<svg xmlns="http://www.w3.org/2000/svg" width="422.561" height="392.619" viewBox="0 0 422.561 392.619">
  <g id="_x33_" transform="translate(-25.827)">
    <g id="Books_1_" transform="translate(319.044 161.982)">
      <g id="Group_14114" data-name="Group 14114" transform="translate(2.853 13.643)">
        <g id="Group_14111" data-name="Group 14111" transform="translate(0.044)">
          <g id="Group_14108" data-name="Group 14108" transform="translate(0.765 0.644)">
            <g id="Group_14107" data-name="Group 14107">
              <path id="Path_11957" data-name="Path 11957" d="M3973.4,593.5s2.213,3.823,0,7h46.643v-7Z" transform="translate(-3973.4 -593.5)" fill="#dbdcf1"/>
            </g>
          </g>
          <g id="Group_14110" data-name="Group 14110">
            <g id="Group_14109" data-name="Group 14109">
              <path id="Path_11958" data-name="Path 11958" d="M3911.5,599.788a.691.691,0,0,0,.644.644h69.38a2.294,2.294,0,0,0,2.294-2.294v-3.944a2.293,2.293,0,0,0-2.294-2.294h-69.38a.644.644,0,0,0,0,1.288h43.1a1.529,1.529,0,0,1,1.53,1.529v2.938a1.529,1.529,0,0,1-1.53,1.529h-43.1A.581.581,0,0,0,3911.5,599.788Z" transform="translate(-3911.501 -591.9)" fill="#ee504f"/>
            </g>
          </g>
        </g>
        <g id="Group_14113" data-name="Group 14113" transform="translate(0 0)">
          <g id="Group_14112" data-name="Group 14112">
            <path id="Path_11959" data-name="Path 11959" d="M3975.143,599.667a.68.68,0,0,0,.162.563.646.646,0,0,0,.442.2h43.5a2.61,2.61,0,0,0,2.616-2.616v-3.3a2.61,2.61,0,0,0-2.616-2.616h-43.5a.65.65,0,0,0-.644.563.622.622,0,0,0,.644.684h43.1a1.528,1.528,0,0,1,1.529,1.529v2.938a1.528,1.528,0,0,1-1.529,1.529h-43.1A.673.673,0,0,0,3975.143,599.667Z" transform="translate(-3975.1 -591.9)" fill="#d34848"/>
          </g>
        </g>
      </g>
      <g id="Group_14145" data-name="Group 14145" transform="translate(0 22.133)">
        <g id="Group_14116" data-name="Group 14116" transform="translate(3.944 13.724)">
          <g id="Group_14115" data-name="Group 14115">
            <path id="Path_11960" data-name="Path 11960" d="M4001.5,647.1s2.294,5.835,0,10.946h35.053V647.1Z" transform="translate(-4001.5 -647.1)" fill="#dbdcf1"/>
          </g>
        </g>
        <g id="Group_14118" data-name="Group 14118" transform="translate(2.696 12.516)">
          <g id="Group_14117" data-name="Group 14117">
            <path id="Path_11961" data-name="Path 11961" d="M3896.9,656.415a.913.913,0,0,0,.241.644.819.819,0,0,0,.6.241h74.009a3.547,3.547,0,0,0,3.541-3.541v-6.117a3.546,3.546,0,0,0-3.541-3.541h-74.009a.842.842,0,0,0-.845.8.816.816,0,0,0,.8.845h31.431a2.868,2.868,0,0,1,2.856,2.857v4.065a2.868,2.868,0,0,1-2.856,2.857h-31.391A1.02,1.02,0,0,0,3896.9,656.415Z" transform="translate(-3896.9 -644.1)" fill="#197a83"/>
          </g>
        </g>
        <g id="Group_14120" data-name="Group 14120" transform="translate(2.696 12.557)">
          <g id="Group_14119" data-name="Group 14119">
            <path id="Path_11962" data-name="Path 11962" d="M3999.9,656.474a.916.916,0,0,0,.241.644.821.821,0,0,0,.6.241H4032.9a3.951,3.951,0,0,0,3.944-3.944v-5.272a3.951,3.951,0,0,0-3.944-3.944h-32.155a.843.843,0,0,0-.845.8.817.817,0,0,0,.805.845h31.43a2.868,2.868,0,0,1,2.857,2.857v4.065a2.868,2.868,0,0,1-2.857,2.857h-31.39A.943.943,0,0,0,3999.9,656.474Z" transform="translate(-3999.899 -644.2)" fill="#156468"/>
          </g>
        </g>
        <g id="Group_14123" data-name="Group 14123" transform="translate(6.721 16.34)">
          <g id="Group_14122" data-name="Group 14122" transform="translate(0)">
            <g id="Group_14121" data-name="Group 14121">
              <rect id="Rectangle_29025" data-name="Rectangle 29025" width="19.559" height="0.121" fill="#373133"/>
            </g>
          </g>
        </g>
        <g id="Group_14125" data-name="Group 14125" transform="translate(12.113 16.34)">
          <g id="Group_14124" data-name="Group 14124">
            <path id="Path_11963" data-name="Path 11963" d="M4063.937,653.6l-1.448,6.52L4061,657.745v-3.662Z" transform="translate(-4061 -653.6)" fill="#afafd5"/>
          </g>
        </g>
        <g id="Group_14127" data-name="Group 14127" transform="translate(7.807 16.34)">
          <g id="Group_14126" data-name="Group 14126">
            <path id="Path_11964" data-name="Path 11964" d="M4061,655.29h0v4.829l2.857-2.133,2.978,2.133V655.29c0-1.167,1.409-1.69,1.409-1.69h-6.277C4061,653.882,4061,655.129,4061,655.29Z" transform="translate(-4061 -653.6)" fill="#6d68e0"/>
          </g>
        </g>
        <g id="Group_14129" data-name="Group 14129" transform="translate(7.807 16.299)">
          <g id="Group_14128" data-name="Group 14128">
            <path id="Path_11965" data-name="Path 11965" d="M4061.1,655.231h5.795v-.04c0-1.167,1.409-1.69,1.409-1.69h-6.279C4061.1,653.822,4061.1,655.07,4061.1,655.231Z" transform="translate(-4061.1 -653.5)" fill="#5a5aba"/>
          </g>
        </g>
        <g id="Group_14131" data-name="Group 14131" transform="translate(31.672 0.645)">
          <g id="Group_14130" data-name="Group 14130">
            <path id="Path_11966" data-name="Path 11966" d="M3951.4,614.6s-2.333,6.358,0,11.148h-46V614.6Z" transform="translate(-3905.4 -614.6)" fill="#dbdcf1"/>
          </g>
        </g>
        <g id="Group_14133" data-name="Group 14133" transform="translate(0 0)">
          <g id="Group_14132" data-name="Group 14132">
            <path id="Path_11967" data-name="Path 11967" d="M3903.9,617.185v4.185a4.225,4.225,0,0,0,4.226,4.226h73.365a.635.635,0,0,0,.643-.644v-.04a.635.635,0,0,0-.643-.644H3939.8a3.04,3.04,0,0,1-3.018-3.018v-3.9a3.04,3.04,0,0,1,3.018-3.018h41.694a.664.664,0,0,0,.481-.2.764.764,0,0,0,.2-.523.664.664,0,0,0-.683-.6h-73.365A4.166,4.166,0,0,0,3903.9,617.185Z" transform="translate(-3903.899 -612.999)" fill="#f1884f"/>
          </g>
        </g>
        <g id="Group_14135" data-name="Group 14135" transform="translate(30.988)">
          <g id="Group_14134" data-name="Group 14134">
            <path id="Path_11968" data-name="Path 11968" d="M3904,616.782v5.031a3.779,3.779,0,0,0,3.783,3.783h42.779a.636.636,0,0,0,.644-.644v-.04a.636.636,0,0,0-.644-.644h-41.693a3.04,3.04,0,0,1-3.018-3.018v-3.9a3.04,3.04,0,0,1,3.018-3.018h41.693a.667.667,0,0,0,.483-.2.763.763,0,0,0,.2-.523.663.663,0,0,0-.684-.6h-42.779A3.754,3.754,0,0,0,3904,616.782Z" transform="translate(-3904 -612.998)" fill="#d37146"/>
          </g>
        </g>
        <g id="Group_14138" data-name="Group 14138" transform="translate(51.432 8.09)">
          <g id="Group_14137" data-name="Group 14137" transform="translate(0)">
            <g id="Group_14136" data-name="Group 14136">
              <rect id="Rectangle_29026" data-name="Rectangle 29026" width="19.559" height="0.121" fill="#373133"/>
            </g>
          </g>
        </g>
        <g id="Group_14140" data-name="Group 14140" transform="translate(56.019 8.049)">
          <g id="Group_14139" data-name="Group 14139" transform="translate(0)">
            <rect id="Rectangle_29027" data-name="Rectangle 29027" width="2.495" height="3.179" fill="#afafd5"/>
          </g>
        </g>
        <g id="Group_14142" data-name="Group 14142" transform="translate(57.468 10.826)">
          <g id="Group_14141" data-name="Group 14141">
            <path id="Path_11969" data-name="Path 11969" d="M3942.3,639.9V650l2.737-2.455,2.616,2.455v-9.7Z" transform="translate(-3942.3 -639.9)" fill="#a82329"/>
          </g>
        </g>
        <g id="Group_14144" data-name="Group 14144" transform="translate(56.019 8.049)">
          <g id="Group_14143" data-name="Group 14143">
            <path id="Path_11970" data-name="Path 11970" d="M3942.3,633h5.313s0,2.374,1.488,3.179h-5.312S3942.3,635.777,3942.3,633Z" transform="translate(-3942.3 -633)" fill="#ee504f"/>
          </g>
        </g>
      </g>
      <g id="Group_14147" data-name="Group 14147" transform="translate(13.924 1.489)">
        <g id="Group_14146" data-name="Group 14146">
          <path id="Path_11971" data-name="Path 11971" d="M3949.2,561.7a18.435,18.435,0,0,1,0,10.745h46.119V561.9Z" transform="translate(-3949.2 -561.7)" fill="#dbdcf1"/>
        </g>
      </g>
      <g id="Group_14149" data-name="Group 14149" transform="translate(12.918)">
        <g id="Group_14148" data-name="Group 14148">
          <path id="Path_11972" data-name="Path 11972" d="M3991.292,558h-44.066a.91.91,0,0,0-.926.926h0a.91.91,0,0,0,.926.926h43.625a2.293,2.293,0,0,1,2.294,2.294V567.5a2.293,2.293,0,0,1-2.294,2.294h-43.625a.91.91,0,0,0-.926.926v.081a.911.911,0,0,0,.926.926h44.066a3.315,3.315,0,0,0,3.3-3.3V561.38A3.333,3.333,0,0,0,3991.292,558Z" transform="translate(-3946.3 -558)" fill="#6d68e0"/>
        </g>
      </g>
      <g id="Group_14152" data-name="Group 14152" transform="translate(19.8 8.612)">
        <g id="Group_14151" data-name="Group 14151" transform="translate(0)">
          <g id="Group_14150" data-name="Group 14150">
            <rect id="Rectangle_29028" data-name="Rectangle 29028" width="19.559" height="0.121" fill="#373133"/>
          </g>
        </g>
      </g>
      <g id="Group_14154" data-name="Group 14154" transform="translate(26.158 8.612)">
        <g id="Group_14153" data-name="Group 14153" transform="translate(0)">
          <rect id="Rectangle_29029" data-name="Rectangle 29029" width="2.052" height="3.139" fill="#afafd5"/>
        </g>
      </g>
      <g id="Group_14156" data-name="Group 14156" transform="translate(21.852 11.389)">
        <g id="Group_14155" data-name="Group 14155">
          <path id="Path_11973" data-name="Path 11973" d="M4036.75,586.3v8.21l-2.455-2.455-2.495,2.455V586.7Z" transform="translate(-4031.8 -586.3)" fill="#156468"/>
        </g>
      </g>
      <g id="Group_14158" data-name="Group 14158" transform="translate(21.852 8.612)">
        <g id="Group_14157" data-name="Group 14157">
          <path id="Path_11974" data-name="Path 11974" d="M4034.658,579.4h-4.87s0,2.374-1.488,3.139h4.869C4033.169,582.579,4034.658,582.177,4034.658,579.4Z" transform="translate(-4028.3 -579.4)" fill="#197a83"/>
        </g>
      </g>
    </g>
    <g id="Table_1_" transform="translate(25.827 209.912)">
      <g id="Group_14190" data-name="Group 14190" transform="translate(364.288 4.668)">
        <g id="Group_14189" data-name="Group 14189">
          <path id="Path_11989" data-name="Path 11989" d="M3777,688.7l48.9,177.958h9.377L3786.335,688.7Z" transform="translate(-3777 -688.7)" fill="#afafd5"/>
        </g>
      </g>
      <g id="Group_14192" data-name="Group 14192" transform="translate(315.351 4.668)">
        <g id="Group_14191" data-name="Group 14191">
          <path id="Path_11990" data-name="Path 11990" d="M3956.873,688.7l-48.9,177.958H3898.6L3947.537,688.7Z" transform="translate(-3898.6 -688.7)" fill="#afafd5"/>
        </g>
      </g>
      <g id="Group_14194" data-name="Group 14194" transform="translate(76.745 4.668)">
        <g id="Group_14193" data-name="Group 14193" transform="translate(0)">
          <rect id="Rectangle_29031" data-name="Rectangle 29031" width="87.168" height="177.958" fill="#afafd5"/>
        </g>
      </g>
      <g id="Group_14196" data-name="Group 14196" transform="translate(275.308 4.668)">
        <g id="Group_14195" data-name="Group 14195">
          <path id="Path_11991" data-name="Path 11991" d="M4056.373,688.7l-48.936,177.958H3998.1L4047,688.7Z" transform="translate(-3998.099 -688.7)" fill="#afafd5"/>
        </g>
      </g>
      <g id="Group_14198" data-name="Group 14198" transform="translate(271.646 4.668)">
        <g id="Group_14197" data-name="Group 14197">
          <path id="Path_11992" data-name="Path 11992" d="M4065.474,688.7l-48.9,177.958H4007.2L4056.136,688.7Z" transform="translate(-4007.2 -688.7)" fill="#dbdcf1"/>
        </g>
      </g>
      <g id="Group_14200" data-name="Group 14200" transform="translate(324.205 4.668)">
        <g id="Group_14199" data-name="Group 14199">
          <path id="Path_11993" data-name="Path 11993" d="M3876.6,688.7l48.937,177.958h9.336l-48.9-177.958Z" transform="translate(-3876.6 -688.7)" fill="#afafd5"/>
        </g>
      </g>
      <g id="Group_14202" data-name="Group 14202" transform="translate(320.583 4.668)">
        <g id="Group_14201" data-name="Group 14201">
          <path id="Path_11994" data-name="Path 11994" d="M3885.6,688.7l48.9,177.958h9.377L3894.936,688.7Z" transform="translate(-3885.6 -688.7)" fill="#dbdcf1"/>
        </g>
      </g>
      <g id="Group_14204" data-name="Group 14204">
        <g id="Group_14203" data-name="Group 14203">
          <path id="Path_11995" data-name="Path 11995" d="M4303.9,677.1v9.337H4030.2v173.29h-78.6V677.1Z" transform="translate(-3951.599 -677.1)" fill="#dbdcf1"/>
        </g>
      </g>
      <g id="Group_14206" data-name="Group 14206" transform="translate(340.343)">
        <g id="Group_14205" data-name="Group 14205" transform="translate(0)">
          <rect id="Rectangle_29032" data-name="Rectangle 29032" width="60.889" height="9.377" fill="#afafd5"/>
        </g>
      </g>
      <g id="Group_14209" data-name="Group 14209" transform="translate(4.145 13.522)">
        <g id="Group_14208" data-name="Group 14208">
          <g id="Group_14207" data-name="Group 14207">
            <path id="Path_11996" data-name="Path 11996" d="M4714.7,710.7V874.613H4646V710.7Zm-66.6,161.821H4712.6V842.1H4691.8v5.473h-24.912V842.1h-18.833v30.424Zm0-32.517H4712.6V807.728H4691.8V813.2h-24.912v-5.473h-18.833V840Zm0-34.328H4712.6v-29.5H4691.8v5.272h-24.912v-5.272h-18.833v29.5Zm0-31.592H4712.6v-29.3H4691.8v5.473h-24.912v-5.473h-18.833v29.3Zm0-31.39H4712.6V712.752H4691.8v5.192h-24.912v-5.192h-18.833v29.941Z" transform="translate(-4645.999 -710.7)" fill="#afafd5"/>
          </g>
        </g>
      </g>
    </g>
    <g id="Computer" transform="translate(197.407 99.201)">
      <g id="Group_14211" data-name="Group 14211" transform="translate(55.597 78.274)">
        <g id="Group_14210" data-name="Group 14210">
          <path id="Path_11997" data-name="Path 11997" d="M4215.244,596.5l4.829,32.6H4196.33l-4.83-32.6Z" transform="translate(-4191.5 -596.5)" fill="#373133"/>
        </g>
      </g>
      <g id="Group_14213" data-name="Group 14213" transform="translate(4.834)">
        <g id="Group_14212" data-name="Group 14212">
          <path id="Path_11998" data-name="Path 11998" d="M4197.607,408.2l-4.87,71.715a5.809,5.809,0,0,1-5.794,5.433h-112.16a5.794,5.794,0,0,1-5.795-6.2l4.87-71.715a5.81,5.81,0,0,1,5.8-5.433h112.159A5.842,5.842,0,0,1,4197.607,408.2Z" transform="translate(-4068.973 -402)" fill="#373133"/>
        </g>
      </g>
      <g id="Group_14215" data-name="Group 14215" transform="translate(51.17 78.274)">
        <g id="Group_14214" data-name="Group 14214">
          <path id="Path_11999" data-name="Path 11999" d="M4226.244,596.5l4.829,32.6H4207.33l-4.83-32.6Z" transform="translate(-4202.5 -596.5)" fill="#7e59d1"/>
        </g>
      </g>
      <g id="Group_14217" data-name="Group 14217" transform="translate(0 0)">
        <g id="Group_14216" data-name="Group 14216">
          <path id="Path_12000" data-name="Path 12000" d="M4086.737,485.385H4198.9a5.81,5.81,0,0,0,5.794-5.433l.6-8.733,4.306-62.982a5.829,5.829,0,0,0-5.8-6.238H4091.648a5.811,5.811,0,0,0-5.8,5.433l-4.346,63.787-.523,7.928A5.752,5.752,0,0,0,4086.737,485.385Z" transform="translate(-4080.962 -402)" fill="#7e59d1"/>
        </g>
      </g>
      <g id="Group_14219" data-name="Group 14219" transform="translate(6.419 6.037)">
        <g id="Group_14218" data-name="Group 14218">
          <path id="Path_12001" data-name="Path 12001" d="M4208.95,479.74l3.864-57.388a5.126,5.126,0,0,0-5.233-5.352H4106.207a5.129,5.129,0,0,0-5.232,4.668l-3.9,58.072Z" transform="translate(-4097.072 -417)" fill="#fff"/>
        </g>
      </g>
      <g id="Group_14221" data-name="Group 14221" transform="translate(88.798 106.043)">
        <g id="Group_14220" data-name="Group 14220">
          <rect id="Rectangle_29033" data-name="Rectangle 29033" width="26.762" height="4.829" fill="#373133"/>
        </g>
      </g>
      <g id="Group_14223" data-name="Group 14223" transform="translate(18.774 106.043)">
        <g id="Group_14222" data-name="Group 14222">
          <rect id="Rectangle_29034" data-name="Rectangle 29034" width="71.433" height="4.829" fill="#7e59d1"/>
        </g>
      </g>
      <g id="Group_14225" data-name="Group 14225" transform="translate(90.408 75.699)">
        <g id="Group_14224" data-name="Group 14224">
          <path id="Path_12002" data-name="Path 12002" d="M4127.668,590.1h16.661v10.866s0,4.266-4.266,4.668H4123a5.06,5.06,0,0,0,4.468-4.467Z" transform="translate(-4123 -590.1)" fill="#fc2b45"/>
        </g>
      </g>
      <g id="Group_14227" data-name="Group 14227" transform="translate(69.884 71.272)">
        <g id="Group_14226" data-name="Group 14226">
          <path id="Path_12003" data-name="Path 12003" d="M4178.669,579.1h16.66v10.866s0,4.266-4.266,4.668H4174a5.058,5.058,0,0,0,4.467-4.467Z" transform="translate(-4174 -579.1)" fill="#8c76bc"/>
        </g>
      </g>
      <g id="Group_14230" data-name="Group 14230" transform="translate(92.948 5.941)">
        <g id="Group_14229" data-name="Group 14229" transform="translate(0 0)">
          <g id="Group_14228" data-name="Group 14228">
            <rect id="Rectangle_29035" data-name="Rectangle 29035" width="2.817" height="62.904" transform="translate(2.811 62.956) rotate(-176.332)" fill="#dbdcf1"/>
          </g>
        </g>
      </g>
      <g id="Group_14233" data-name="Group 14233" transform="translate(34.591 5.941)">
        <g id="Group_14232" data-name="Group 14232" transform="translate(0 0)">
          <g id="Group_14231" data-name="Group 14231">
            <rect id="Rectangle_29036" data-name="Rectangle 29036" width="2.817" height="62.904" transform="translate(2.811 62.956) rotate(-176.332)" fill="#dbdcf1"/>
          </g>
        </g>
      </g>
      <g id="Group_14235" data-name="Group 14235" transform="translate(44.932 17.707)">
        <g id="Group_14234" data-name="Group 14234">
          <path id="Path_12004" data-name="Path 12004" d="M4220.281,446l-1.207,17.707H4174L4175.207,446Z" transform="translate(-4174 -446)" fill="#dbdcf1"/>
        </g>
      </g>
      <g id="Group_14237" data-name="Group 14237" transform="translate(15.152 18.351)">
        <g id="Group_14236" data-name="Group 14236">
          <path id="Path_12005" data-name="Path 12005" d="M4334.317,447.6l-.524,7.4H4315l.523-7.4Z" transform="translate(-4315 -447.6)" fill="#dbdcf1"/>
        </g>
      </g>
      <g id="Group_14239" data-name="Group 14239" transform="translate(13.945 34.046)">
        <g id="Group_14238" data-name="Group 14238">
          <path id="Path_12006" data-name="Path 12006" d="M4337.316,486.6l-.522,7.4H4318l.523-7.4Z" transform="translate(-4318 -486.6)" fill="#dbdcf1"/>
        </g>
      </g>
      <g id="Group_14241" data-name="Group 14241" transform="translate(12.737 49.741)">
        <g id="Group_14240" data-name="Group 14240">
          <path id="Path_12007" data-name="Path 12007" d="M4340.318,525.6l-.524,7.4H4321l.523-7.4Z" transform="translate(-4321 -525.6)" fill="#dbdcf1"/>
        </g>
      </g>
      <g id="Group_14243" data-name="Group 14243" transform="translate(43.323 43.463)">
        <g id="Group_14242" data-name="Group 14242">
          <path id="Path_12008" data-name="Path 12008" d="M4224.281,510l-1.208,17.707H4178L4179.207,510Z" transform="translate(-4178 -510)" fill="#dbdcf1"/>
        </g>
      </g>
      <g id="Group_14246" data-name="Group 14246" transform="translate(74.713 11.067)">
        <g id="Group_14245" data-name="Group 14245">
          <g id="Group_14244" data-name="Group 14244">
            <rect id="Rectangle_29037" data-name="Rectangle 29037" width="16.5" height="2.012" fill="#dbdcf1"/>
          </g>
        </g>
      </g>
      <g id="Group_14249" data-name="Group 14249" transform="translate(102.481 11.268)">
        <g id="Group_14248" data-name="Group 14248">
          <g id="Group_14247" data-name="Group 14247">
            <rect id="Rectangle_29038" data-name="Rectangle 29038" width="16.5" height="2.012" fill="#dbdcf1"/>
          </g>
        </g>
      </g>
      <g id="Group_14252" data-name="Group 14252" transform="translate(102.079 16.902)">
        <g id="Group_14251" data-name="Group 14251">
          <g id="Group_14250" data-name="Group 14250">
            <rect id="Rectangle_29039" data-name="Rectangle 29039" width="16.5" height="2.012" fill="#dbdcf1"/>
          </g>
        </g>
      </g>
      <g id="Group_14255" data-name="Group 14255" transform="translate(101.676 22.537)">
        <g id="Group_14254" data-name="Group 14254">
          <g id="Group_14253" data-name="Group 14253">
            <rect id="Rectangle_29040" data-name="Rectangle 29040" width="16.5" height="2.012" fill="#dbdcf1"/>
          </g>
        </g>
      </g>
      <g id="Group_14258" data-name="Group 14258" transform="translate(101.274 28.171)">
        <g id="Group_14257" data-name="Group 14257">
          <g id="Group_14256" data-name="Group 14256">
            <rect id="Rectangle_29041" data-name="Rectangle 29041" width="16.5" height="2.012" fill="#dbdcf1"/>
          </g>
        </g>
      </g>
      <g id="Group_14261" data-name="Group 14261" transform="translate(100.871 33.805)">
        <g id="Group_14260" data-name="Group 14260">
          <g id="Group_14259" data-name="Group 14259">
            <rect id="Rectangle_29042" data-name="Rectangle 29042" width="16.5" height="2.012" fill="#dbdcf1"/>
          </g>
        </g>
      </g>
      <g id="Group_14264" data-name="Group 14264" transform="translate(24.408 11.671)">
        <g id="Group_14263" data-name="Group 14263">
          <g id="Group_14262" data-name="Group 14262">
            <rect id="Rectangle_29043" data-name="Rectangle 29043" width="10.463" height="2.012" fill="#dbdcf1"/>
          </g>
        </g>
      </g>
    </g>
    <g id="Man" transform="translate(91.425 67.011)">
      <g id="Group_14266" data-name="Group 14266" transform="translate(23.945 14.55)">
        <g id="Group_14265" data-name="Group 14265">
          <path id="Path_12009" data-name="Path 12009" d="M4542.208,406.593l-.041-11.63s19.076,4.91,10.021-31.109c0,0-12.194-12.8-27.365,0l-1.61,26.159-2.173,15.413Z" transform="translate(-4521.04 -358.167)" fill="#fcbb9d"/>
        </g>
      </g>
      <g id="Group_14268" data-name="Group 14268" transform="translate(17.666)">
        <g id="Group_14267" data-name="Group 14267">
          <path id="Path_12010" data-name="Path 12010" d="M4509.482,342.411c-1.571-14.649,6.519-12.918,6.519-12.918h0c8.128-11.63,12.235-4.709,12.235-4.709,6.84-6.117,8.973-.2,8.973-.2,6.721-2.777,7.929,3.179,7.929,3.179,6.319-1.207,5.956,4.749,5.956,4.749,2.375.4,2.858,3.5,2.776,4.749-.562,7.968-6.236,8.572-9.376,8.29l-.724,9.7a1.417,1.417,0,0,1-1.852,1.248h0a1.508,1.508,0,0,1-1.006-1.127,1,1,0,0,1-.04-.322c-.685-3.461-6.277-6.117-7.083,0,0,0-.6,7.888,3.542,8.049,0,0-4.466,9.417-15.091,7.445-1.771-.322-13.4-3.26-12.476-23.5A29.335,29.335,0,0,1,4509.482,342.411Z" transform="translate(-4509.28 -322.012)" fill="#373133"/>
        </g>
      </g>
      <g id="Group_14270" data-name="Group 14270" transform="translate(62.378 93.562)">
        <g id="Group_14269" data-name="Group 14269">
          <path id="Path_12011" data-name="Path 12011" d="M4262.088,573.616l15.534,15.212a9.961,9.961,0,0,0,5.111,2.656l50.386,9.7,13.281.8s-2.415-3.219-5.634-4.024h8.854l8.814,3.823a2.159,2.159,0,0,0,2.776-.966h0a2.248,2.248,0,0,0-.6-2.777l-9.376-7.123a7.613,7.613,0,0,0-5.393-1.529l-12.476,1.167-4.587,1.65-40.526-18.593L4269.13,554.5Z" transform="translate(-4262.088 -554.5)" fill="#cc8772"/>
        </g>
      </g>
      <g id="Group_14272" data-name="Group 14272" transform="translate(151.317 289.912)">
        <g id="Group_14271" data-name="Group 14271">
          <path id="Path_12012" data-name="Path 12012" d="M4221.8,1042.4l8.088,17.989,3.421,7.606h15.132l-3.864-11.228-4.87-14.126Z" transform="translate(-4221.801 -1042.4)" fill="#fcbb9d"/>
        </g>
      </g>
      <g id="Group_14274" data-name="Group 14274" transform="translate(157.363 310.028)">
        <g id="Group_14273" data-name="Group 14273">
          <path id="Path_12013" data-name="Path 12013" d="M4166.054,1092.712c1.329,1.368,6.721,5.916,15.614-.282a.239.239,0,0,1,.281,0l24.589,13.16a1.261,1.261,0,0,1-.6,2.374h-40.123a2.885,2.885,0,0,1-2.817-3.5l2.616-11.55C4165.651,1092.632,4165.892,1092.551,4166.054,1092.712Z" transform="translate(-4162.925 -1092.384)" fill="#4f216c"/>
        </g>
      </g>
      <g id="Group_14276" data-name="Group 14276" transform="translate(91.756 289.751)">
        <g id="Group_14275" data-name="Group 14275">
          <path id="Path_12014" data-name="Path 12014" d="M4378.8,1042.161l5.594,18.11,2.294,7.485h15.132l-2.053-10.423L4396.708,1042Z" transform="translate(-4378.799 -1042)" fill="#fcbb9d"/>
        </g>
      </g>
      <g id="Group_14278" data-name="Group 14278" transform="translate(91.756 289.751)">
        <g id="Group_14277" data-name="Group 14277">
          <path id="Path_12015" data-name="Path 12015" d="M4383.9,1042.161l5.594,18.11,15.373-2.938L4401.809,1042Z" transform="translate(-4383.9 -1042)" fill="#e6a68a"/>
        </g>
      </g>
      <g id="Group_14280" data-name="Group 14280" transform="translate(94.985 310.028)">
        <g id="Group_14279" data-name="Group 14279">
          <path id="Path_12016" data-name="Path 12016" d="M4321.053,1092.712c1.329,1.368,6.721,5.916,15.616-.282a.239.239,0,0,1,.281,0l24.589,13.16a1.261,1.261,0,0,1-.6,2.374h-40.122a2.886,2.886,0,0,1-2.817-3.5l2.616-11.55C4320.651,1092.632,4320.893,1092.551,4321.053,1092.712Z" transform="translate(-4317.924 -1092.384)" fill="#4f216c"/>
        </g>
      </g>
      <g id="Group_14282" data-name="Group 14282" transform="translate(58.152 186.525)">
        <g id="Group_14281" data-name="Group 14281">
          <path id="Path_12017" data-name="Path 12017" d="M4416.633,785.5l18.311,115.7-26.561,1.61L4378,785.5Z" transform="translate(-4378 -785.5)" fill="#311547"/>
        </g>
      </g>
      <g id="Group_14284" data-name="Group 14284" transform="translate(151.317 289.912)">
        <g id="Group_14283" data-name="Group 14283">
          <path id="Path_12018" data-name="Path 12018" d="M4231.4,1042.4l8.09,17.989,14.688-3.622-4.87-14.126Z" transform="translate(-4231.4 -1042.4)" fill="#e6a68a"/>
        </g>
      </g>
      <g id="Group_14286" data-name="Group 14286" transform="translate(72.439 97.506)">
        <g id="Group_14285" data-name="Group 14285">
          <path id="Path_12019" data-name="Path 12019" d="M4227,582.289l9.176,7.727,4.508,3.783a8.843,8.843,0,0,0,3.743,1.851l61.854,14c4.911.845,9.9-1.207,13.482-3.3,1.208-.2,2.375-.362,3.5-.523,1.893,3.984,7.164,5.473,7.164,5.473l-2.254-8.17a4.325,4.325,0,0,0-2.053-2.616l-7.927-4.507a6.837,6.837,0,0,0-6.358-.2l-2.9,1.408-54.772-18.834-8.251-9.095-4.507-4.99Z" transform="translate(-4227 -564.3)" fill="#fcbb9d"/>
        </g>
      </g>
      <g id="Group_14288" data-name="Group 14288" transform="translate(72.439 97.586)">
        <g id="Group_14287" data-name="Group 14287">
          <path id="Path_12020" data-name="Path 12020" d="M4437,582.408l9.175,7.727,9.739-20.645-4.507-4.99Z" transform="translate(-4437 -564.5)" fill="#e6a68a"/>
        </g>
      </g>
      <g id="Group_14290" data-name="Group 14290" transform="translate(4.095 155.94)">
        <g id="Group_14289" data-name="Group 14289">
          <path id="Path_12021" data-name="Path 12021" d="M4287.161,709.5l4.427,5.634,42.457,5.111a28.867,28.867,0,0,1,23.663,18.713l42.257,114.413-28.573,4.427-44.751-96.465s-108.779,17.667-96.706-39Z" transform="translate(-4228.999 -709.5)" fill="#311547"/>
        </g>
      </g>
      <g id="Group_14292" data-name="Group 14292" transform="translate(0 56.876)">
        <g id="Group_14291" data-name="Group 14291">
          <path id="Path_12022" data-name="Path 12022" d="M4493.523,466.583c.282.08,9.618,4.024,14.849,10.946,8.935,11.832,22.014,29.016,22.014,29.016l-14.408,19.438-6.56-6.52.805,33.4,4.628,15.373a94.157,94.157,0,0,1-14.085,8.854c-25.757,12.073-60.367,7.244-60.367,7.244l4.186-80.609s-1.086-28.452,10.3-37.306C4454.888,466.422,4468.611,459.38,4493.523,466.583Z" transform="translate(-4440.4 -463.339)" fill="#f2b636"/>
        </g>
      </g>
      <g id="Group_14294" data-name="Group 14294" transform="translate(61.93 107.849)">
        <g id="Group_14293" data-name="Group 14293" transform="translate(0 0)">
          <rect id="Rectangle_29044" data-name="Rectangle 29044" width="17.426" height="1.207" transform="matrix(-0.762, -0.647, 0.647, -0.762, 13.285, 12.197)" fill="#373133"/>
        </g>
      </g>
    </g>
    <g id="Chair_1_" transform="translate(85.227 274.745)">
      <g id="Group_14296" data-name="Group 14296" transform="translate(49.46 40.606)">
        <g id="Group_14295" data-name="Group 14295" transform="translate(0)">
          <rect id="Rectangle_29045" data-name="Rectangle 29045" width="6.962" height="48.011" fill="#dbdcf1"/>
        </g>
      </g>
      <g id="Group_14298" data-name="Group 14298" transform="translate(43.745 15.896)">
        <g id="Group_14297" data-name="Group 14297">
          <path id="Path_12023" data-name="Path 12023" d="M4543.451,877.7v20.122a9.172,9.172,0,0,1-9.175,9.176h0a9.172,9.172,0,0,1-9.176-9.176V877.7Z" transform="translate(-4525.1 -877.7)" fill="#dbdcf1"/>
        </g>
      </g>
      <g id="Group_14300" data-name="Group 14300" transform="translate(14.931 9.417)">
        <g id="Group_14299" data-name="Group 14299">
          <path id="Path_12024" data-name="Path 12024" d="M4543.165,861.6v1.61a6.751,6.751,0,0,1-6.761,6.761h-53.243a6.749,6.749,0,0,1-6.761-6.761V861.6Z" transform="translate(-4476.4 -861.6)" fill="#dbdcf1"/>
        </g>
      </g>
      <g id="Group_14302" data-name="Group 14302">
        <g id="Group_14301" data-name="Group 14301">
          <path id="Path_12025" data-name="Path 12025" d="M4595.381,838.2v12.114h-50.546a6.029,6.029,0,0,1-6.037-6.037h0a6.029,6.029,0,0,1,6.037-6.037h50.546Z" transform="translate(-4538.799 -838.2)" fill="#d34848"/>
        </g>
      </g>
      <g id="Group_14304" data-name="Group 14304" transform="translate(51.593)">
        <g id="Group_14303" data-name="Group 14303">
          <path id="Path_12026" data-name="Path 12026" d="M4479.853,844.237h0a6.029,6.029,0,0,1-6.037,6.036h-35.978a6.028,6.028,0,0,1-6.037-6.036h0a6.028,6.028,0,0,1,6.037-6.037h35.978A6.029,6.029,0,0,1,4479.853,844.237Z" transform="translate(-4431.801 -838.2)" fill="#ee504f"/>
        </g>
      </g>
      <g id="Group_14306" data-name="Group 14306" transform="translate(5.624 78.274)">
        <g id="Group_14305" data-name="Group 14305">
          <path id="Path_12027" data-name="Path 12027" d="M4518.947,1054.874l-33.523-9.015v-.121a13.036,13.036,0,0,0-13.04-13.039h0a13.035,13.035,0,0,0-13.038,13.039v.644l-31.552,8.451a3.8,3.8,0,0,0,1.691,7.4l32.638-6.278h22.456l32.638,6.278a3.785,3.785,0,0,0,1.73-7.364Z" transform="translate(-4424.967 -1032.7)" fill="#dbdcf1"/>
        </g>
      </g>
      <g id="Group_14308" data-name="Group 14308" transform="translate(10.101 105.68)">
        <g id="Group_14307" data-name="Group 14307" transform="translate(0)">
          <circle id="Ellipse_2091" data-name="Ellipse 2091" cx="6.077" cy="6.077" r="6.077" fill="#373133"/>
        </g>
      </g>
      <g id="Group_14310" data-name="Group 14310" transform="translate(12.798 108.377)">
        <g id="Group_14309" data-name="Group 14309" transform="translate(0)">
          <circle id="Ellipse_2092" data-name="Ellipse 2092" cx="3.38" cy="3.38" r="3.38" fill="#afafd5"/>
        </g>
      </g>
      <g id="Group_14312" data-name="Group 14312" transform="translate(85.639 105.68)">
        <g id="Group_14311" data-name="Group 14311" transform="translate(0)">
          <circle id="Ellipse_2093" data-name="Ellipse 2093" cx="6.077" cy="6.077" r="6.077" fill="#373133"/>
        </g>
      </g>
      <g id="Group_14314" data-name="Group 14314" transform="translate(88.335 108.377)">
        <g id="Group_14313" data-name="Group 14313" transform="translate(0)">
          <circle id="Ellipse_2094" data-name="Ellipse 2094" cx="3.38" cy="3.38" r="3.38" fill="#afafd5"/>
        </g>
      </g>
    </g>
    <g id="Video_icon" transform="translate(332.767)">
      <g id="Group_14316" data-name="Group 14316">
        <g id="Group_14315" data-name="Group 14315">
          <path id="Path_12028" data-name="Path 12028" d="M3899.036,155.5H3797.742a3.761,3.761,0,0,0-3.743,3.743v74.411a3.761,3.761,0,0,0,3.743,3.743h101.294a3.762,3.762,0,0,0,3.743-3.743V159.243A3.762,3.762,0,0,0,3899.036,155.5Z" transform="translate(-3794 -155.5)" fill="#dbdcf1"/>
        </g>
      </g>
      <g id="Group_14318" data-name="Group 14318" transform="translate(38.554 18.633)">
        <g id="Group_14317" data-name="Group 14317" transform="translate(0)">
          <rect id="Rectangle_29046" data-name="Rectangle 29046" width="64.873" height="35.576" fill="#fff"/>
        </g>
      </g>
      <g id="Group_14320" data-name="Group 14320" transform="translate(24.146 6.68)">
        <g id="Group_14319" data-name="Group 14319" transform="translate(0)">
          <rect id="Rectangle_29047" data-name="Rectangle 29047" width="67.73" height="4.306" fill="#afafd5"/>
        </g>
      </g>
      <g id="Group_14322" data-name="Group 14322" transform="translate(12.637 6.64)">
        <g id="Group_14321" data-name="Group 14321">
          <circle id="Ellipse_2095" data-name="Ellipse 2095" cx="2.213" cy="2.213" r="2.213" fill="#afafd5"/>
        </g>
      </g>
      <g id="Group_14324" data-name="Group 14324" transform="translate(6.801 6.64)">
        <g id="Group_14323" data-name="Group 14323">
          <circle id="Ellipse_2096" data-name="Ellipse 2096" cx="2.213" cy="2.213" r="2.213" fill="#afafd5"/>
        </g>
      </g>
      <g id="Group_14326" data-name="Group 14326" transform="translate(19.84 18.552)">
        <g id="Group_14325" data-name="Group 14325" transform="translate(0)">
          <rect id="Rectangle_29048" data-name="Rectangle 29048" width="14.85" height="11.791" fill="#afafd5"/>
        </g>
      </g>
      <g id="Group_14328" data-name="Group 14328" transform="translate(8.129 18.552)">
        <g id="Group_14327" data-name="Group 14327" transform="translate(0)">
          <rect id="Rectangle_29049" data-name="Rectangle 29049" width="8.934" height="2.093" fill="#afafd5"/>
        </g>
      </g>
      <g id="Group_14330" data-name="Group 14330" transform="translate(3.743 23.301)">
        <g id="Group_14329" data-name="Group 14329" transform="translate(0)">
          <rect id="Rectangle_29050" data-name="Rectangle 29050" width="13.321" height="2.093" fill="#afafd5"/>
        </g>
      </g>
      <g id="Group_14332" data-name="Group 14332" transform="translate(8.129 34.65)">
        <g id="Group_14331" data-name="Group 14331" transform="translate(0)">
          <rect id="Rectangle_29051" data-name="Rectangle 29051" width="8.934" height="2.093" fill="#afafd5"/>
        </g>
      </g>
      <g id="Group_14334" data-name="Group 14334" transform="translate(3.743 39.399)">
        <g id="Group_14333" data-name="Group 14333" transform="translate(0)">
          <rect id="Rectangle_29052" data-name="Rectangle 29052" width="13.321" height="2.093" fill="#afafd5"/>
        </g>
      </g>
      <g id="Group_14336" data-name="Group 14336" transform="translate(8.129 50.466)">
        <g id="Group_14335" data-name="Group 14335" transform="translate(0)">
          <rect id="Rectangle_29053" data-name="Rectangle 29053" width="8.934" height="2.093" fill="#afafd5"/>
        </g>
      </g>
      <g id="Group_14338" data-name="Group 14338" transform="translate(3.743 55.215)">
        <g id="Group_14337" data-name="Group 14337" transform="translate(0)">
          <rect id="Rectangle_29054" data-name="Rectangle 29054" width="13.321" height="2.093" fill="#afafd5"/>
        </g>
      </g>
      <g id="Group_14340" data-name="Group 14340" transform="translate(8.129 66.282)">
        <g id="Group_14339" data-name="Group 14339" transform="translate(0)">
          <rect id="Rectangle_29055" data-name="Rectangle 29055" width="8.934" height="2.093" fill="#afafd5"/>
        </g>
      </g>
      <g id="Group_14342" data-name="Group 14342" transform="translate(3.743 71.03)">
        <g id="Group_14341" data-name="Group 14341" transform="translate(0)">
          <rect id="Rectangle_29056" data-name="Rectangle 29056" width="13.321" height="2.093" fill="#afafd5"/>
        </g>
      </g>
      <g id="Group_14344" data-name="Group 14344" transform="translate(19.84 34.529)">
        <g id="Group_14343" data-name="Group 14343" transform="translate(0)">
          <rect id="Rectangle_29057" data-name="Rectangle 29057" width="14.85" height="11.791" fill="#afafd5"/>
        </g>
      </g>
      <g id="Group_14346" data-name="Group 14346" transform="translate(19.84 50.546)">
        <g id="Group_14345" data-name="Group 14345" transform="translate(0)">
          <rect id="Rectangle_29058" data-name="Rectangle 29058" width="14.85" height="11.791" fill="#afafd5"/>
        </g>
      </g>
      <g id="Group_14348" data-name="Group 14348" transform="translate(19.84 66.402)">
        <g id="Group_14347" data-name="Group 14347" transform="translate(0)">
          <rect id="Rectangle_29059" data-name="Rectangle 29059" width="14.85" height="11.791" fill="#afafd5"/>
        </g>
      </g>
      <g id="Group_14350" data-name="Group 14350" transform="translate(59.078 57.589)">
        <g id="Group_14349" data-name="Group 14349" transform="translate(0)">
          <rect id="Rectangle_29060" data-name="Rectangle 29060" width="44.791" height="3.783" fill="#afafd5"/>
        </g>
      </g>
      <g id="Group_14352" data-name="Group 14352" transform="translate(94.211 64.752)">
        <g id="Group_14351" data-name="Group 14351">
          <circle id="Ellipse_2097" data-name="Ellipse 2097" cx="4.829" cy="4.829" r="4.829" fill="#afafd5"/>
        </g>
      </g>
      <g id="Group_14354" data-name="Group 14354" transform="translate(74.009 64.793)">
        <g id="Group_14353" data-name="Group 14353">
          <rect id="Rectangle_29061" data-name="Rectangle 29061" width="16.098" height="3.501" fill="#afafd5"/>
        </g>
      </g>
      <g id="Group_14356" data-name="Group 14356" transform="translate(65.436 29.016)">
        <g id="Group_14355" data-name="Group 14355" transform="translate(0 0)">
          <path id="Path_12029" data-name="Path 12029" d="M3874.2,227.6v14.77l11.067-7.4Z" transform="translate(-3874.199 -227.6)" fill="#e8315d"/>
        </g>
      </g>
      <g id="Group_14358" data-name="Group 14358" transform="translate(95.579 6.68)">
        <g id="Group_14357" data-name="Group 14357" transform="translate(0)">
          <rect id="Rectangle_29062" data-name="Rectangle 29062" width="7.888" height="4.427" fill="#afafd5"/>
        </g>
      </g>
    </g>
    <g id="Video_icon_1_" transform="translate(270.468 43.262)">
      <g id="Group_14360" data-name="Group 14360">
        <g id="Group_14359" data-name="Group 14359">
          <path id="Path_12030" data-name="Path 12030" d="M4130.369,263h33.483a1.426,1.426,0,0,1,1.409,1.409v25.474a1.426,1.426,0,0,1-1.409,1.409h-19.96l-9.5,8.331v-8.331h-3.984a1.426,1.426,0,0,1-1.409-1.409V264.409A1.367,1.367,0,0,1,4130.369,263Z" transform="translate(-4128.999 -263)" fill="#dbdcf1"/>
        </g>
      </g>
      <g id="Group_14362" data-name="Group 14362" transform="translate(11.029 7.083)">
        <g id="Group_14361" data-name="Group 14361" transform="translate(0 0)">
          <path id="Path_12031" data-name="Path 12031" d="M4164.8,280.6v13.844l10.827-6.922Z" transform="translate(-4164.799 -280.6)" fill="#e8315d"/>
        </g>
      </g>
    </g>
    <g id="Chat_icon_2_" transform="translate(183.14 22.496)">
      <g id="Group_14364" data-name="Group 14364">
        <g id="Group_14363" data-name="Group 14363">
          <path id="Path_12032" data-name="Path 12032" d="M4309.8,213.613a2.233,2.233,0,0,1,2.215-2.213h46.4a2.233,2.233,0,0,1,2.213,2.213v36.541a2.233,2.233,0,0,1-2.213,2.213h-4.668v10.866l-9.5-10.866h-32.235a2.233,2.233,0,0,1-2.215-2.213Z" transform="translate(-4309.799 -211.4)" fill="#dbdcf1"/>
        </g>
      </g>
      <g id="Group_14366" data-name="Group 14366" transform="translate(7.325 11.389)">
        <g id="Group_14365" data-name="Group 14365">
          <rect id="Rectangle_29063" data-name="Rectangle 29063" width="35.415" height="3.22" fill="#afafd5"/>
        </g>
      </g>
      <g id="Group_14368" data-name="Group 14368" transform="translate(7.284 18.271)">
        <g id="Group_14367" data-name="Group 14367">
          <rect id="Rectangle_29064" data-name="Rectangle 29064" width="35.415" height="3.22" fill="#afafd5"/>
        </g>
      </g>
      <g id="Group_14370" data-name="Group 14370" transform="translate(7.284 25.193)">
        <g id="Group_14369" data-name="Group 14369">
          <rect id="Rectangle_29065" data-name="Rectangle 29065" width="35.415" height="3.22" fill="#afafd5"/>
        </g>
      </g>
    </g>
  </g>
</svg>
