<svg xmlns="http://www.w3.org/2000/svg" width="46.136" height="41.768" viewBox="0 0 46.136 41.768">
  <g id="Group_3297" data-name="Group 3297" transform="translate(-116.5 -1007)">
    <g id="Group_1064" data-name="Group 1064" transform="translate(-300 -22)">
      <g id="Group_1052" data-name="Group 1052" transform="translate(1319.5 -477.018)">
        <g id="Group_1049" data-name="Group 1049" transform="translate(-903 1506.018)">
          <path id="Path_4751" data-name="Path 4751" d="M405.681,371.928a1.636,1.636,0,1,1,1.636-1.636A1.638,1.638,0,0,1,405.681,371.928Zm0-2.127a.491.491,0,1,0,.491.491A.492.492,0,0,0,405.681,369.8Z" transform="translate(-364.275 -340.034)" fill="#fee671"/>
          <path id="Path_4752" data-name="Path 4752" d="M68.751,156.072a.572.572,0,0,1-.572-.572.688.688,0,0,0-.687-.687.572.572,0,1,1,0-1.145.688.688,0,0,0,.687-.687.572.572,0,1,1,1.145,0,.688.688,0,0,0,.687.687.572.572,0,1,1,0,1.145.688.688,0,0,0-.687.687A.572.572,0,0,1,68.751,156.072Z" transform="translate(-65.741 -148.541)" fill="#7e59d1"/>
          <path id="Path_4753" data-name="Path 4753" d="M418.484,414.156a.572.572,0,0,1-.572-.572.688.688,0,0,0-.687-.687.572.572,0,1,1,0-1.145.688.688,0,0,0,.687-.687.572.572,0,0,1,1.145,0,.688.688,0,0,0,.687.687.572.572,0,1,1,0,1.145.687.687,0,0,0-.687.687A.572.572,0,0,1,418.484,414.156Z" transform="translate(-375.438 -377.081)" fill="#7e59d1"/>
          <g id="Group_867" data-name="Group 867">
            <path id="Path_4754" data-name="Path 4754" d="M429.484,122.285a.572.572,0,0,1-.572-.572.688.688,0,0,0-.687-.687.572.572,0,1,1,0-1.145.688.688,0,0,0,.687-.687.572.572,0,1,1,1.145,0,.688.688,0,0,0,.687.687.572.572,0,0,1,0,1.145.688.688,0,0,0-.687.687A.572.572,0,0,1,429.484,122.285Z" transform="translate(-385.179 -118.622)" fill="#f2b636"/>
            <path id="Path_4755" data-name="Path 4755" d="M58.459,205.369a.572.572,0,0,1-.572-.572.688.688,0,0,0-.687-.687.572.572,0,0,1,0-1.145.688.688,0,0,0,.687-.687.572.572,0,0,1,1.145,0,.688.688,0,0,0,.687.687.572.572,0,1,1,0,1.145.688.688,0,0,0-.687.687A.572.572,0,0,1,58.459,205.369Z" transform="translate(-56.627 -192.195)" fill="#f2b636"/>
          </g>
        </g>
        <g id="svgexport-6_28_" data-name="svgexport-6 (28)" transform="translate(-900.63 1506.018)">
          <path id="Path_5160" data-name="Path 5160" d="M41.768,20.883A20.87,20.87,0,0,1,27.216,40.789a20.466,20.466,0,0,1-3.011.715l-.014,0q-.759.121-1.534.187l-.332.025c-.156.01-.313.019-.471.026q-.483.023-.972.023t-1-.024q-.224-.01-.448-.026c-.112-.008-.222-.015-.333-.025q-.794-.066-1.571-.193c-.247-.04-.494-.083-.737-.132a20.628,20.628,0,0,1-3.079-.862q-.863-.315-1.69-.7-.281-.132-.559-.274-.713-.36-1.394-.774a20.884,20.884,0,1,1,31.69-17.872Zm0,0" transform="translate(0 0.001)" fill="#e1e1e1"/>
        </g>
      </g>
    </g>
    <g id="svgexport-6_33_" data-name="svgexport-6 (33)" transform="translate(129 1012.763)">
      <g id="Page-1" transform="translate(0 0.001)">
        <g id="_100---Deformed-Bot" data-name="100---Deformed-Bot" transform="translate(0)">
          <path id="Shape" d="M37.622,39.96l-.321.422a1.018,1.018,0,0,1-1.547.1,6.87,6.87,0,0,0-2-1.527L33.5,35.705c0-.1.249-.209.234-.305a11.392,11.392,0,0,1,3.883,3.328,1.023,1.023,0,0,1,.005,1.232Z" transform="translate(-16.452 -17.385)" fill="#bcc2c6"/>
          <path id="Shape-2" data-name="Shape" d="M4.092,35.4c-.015.1.234.2.234.305l-.254,3.252a6.87,6.87,0,0,0-2,1.527,1.018,1.018,0,0,1-1.547-.1L.2,39.96a1.023,1.023,0,0,1,.005-1.232A11.392,11.392,0,0,1,4.092,35.4Z" transform="translate(0 -17.385)" fill="#bcc2c6"/>
          <path id="Shape-3" data-name="Shape" d="M13.089,52.527v1.018a1.527,1.527,0,0,1-1.527,1.527H9.527A1.527,1.527,0,0,1,8,53.544V51Z" transform="translate(-3.929 -25.047)" fill="#94a4a4"/>
          <path id="Shape-4" data-name="Shape" d="M29.089,51v2.544a1.527,1.527,0,0,1-1.527,1.527H25.527A1.527,1.527,0,0,1,24,53.544V52.527Z" transform="translate(-11.786 -25.047)" fill="#94a4a4"/>
          <path id="Shape-5" data-name="Shape" d="M20.509,32.51a2.5,2.5,0,0,1,.7,1.471,2.008,2.008,0,0,1,.02.305V41.92A1.527,1.527,0,0,1,19.7,43.446H9.527A1.527,1.527,0,0,1,8,41.92V34.286a2.008,2.008,0,0,1,.02-.305,2.5,2.5,0,0,1,.7-1.471Z" transform="translate(-3.929 -15.966)" fill="#000748"/>
          <path id="Rectangle-path" d="M20,33h1.018V43.687H20Z" transform="translate(-9.822 -16.207)" fill="#fff"/>
          <ellipse id="Oval" cx="0.544" cy="1.089" rx="0.544" ry="1.089" transform="translate(6.532 19.138)" fill="#f2b636"/>
          <g id="Group_1067" data-name="Group 1067" transform="translate(5.598)">
            <path id="Shape-6" data-name="Shape" d="M11.509,44.527A.509.509,0,0,1,11,44.018v-.509a.509.509,0,1,1,1.018,0v.509A.509.509,0,0,1,11.509,44.527Z" transform="translate(-11 -21.118)" fill="#bcc2c6"/>
            <path id="Shape-7" data-name="Shape" d="M15.509,44.527A.509.509,0,0,1,15,44.018v-.509a.509.509,0,1,1,1.018,0v.509A.509.509,0,0,1,15.509,44.527Z" transform="translate(-12.964 -21.118)" fill="#bcc2c6"/>
            <path id="Shape-8" data-name="Shape" d="M20.509,3.054A.509.509,0,0,1,20,2.545V1.385a1.018,1.018,0,0,1,.7-.967L21.875.027A.509.509,0,1,1,22.2.994l-1.179.391v1.16A.509.509,0,0,1,20.509,3.054Z" transform="translate(-15.42 -0.001)" fill="#f2b636"/>
          </g>
          <path id="Shape-9" data-name="Shape" d="M21.285,12.053v5.6a3.562,3.562,0,0,1-2.249,3.313,3.525,3.525,0,0,1-1.313.249H8.562a3.525,3.525,0,0,1-1.313-.249A3.562,3.562,0,0,1,5,17.651v-5.6A3.053,3.053,0,0,1,8.053,9H18.231a3.053,3.053,0,0,1,3.053,3.053Z" transform="translate(-2.456 -4.42)" fill="#7e59d1" opacity="0.96"/>
          <circle id="Oval-2" data-name="Oval" cx="1.089" cy="1.089" r="1.089" transform="translate(5.444 10.428)" fill="#bcc2c6"/>
          <ellipse id="Oval-3" data-name="Oval" cx="1.633" cy="2.177" rx="1.633" ry="2.177" transform="translate(13.065 8.251)" fill="#bcc2c6"/>
          <path id="Shape-10" data-name="Shape" d="M20.549,27.528a.509.509,0,0,1-.423-.226.807.807,0,0,0-1.19,0,.509.509,0,0,1-.846-.566,1.781,1.781,0,0,1,2.881,0,.509.509,0,0,1-.422.792Z" transform="translate(-8.844 -12.77)" fill="#fff"/>
          <path id="Shape-11" data-name="Shape" d="M18.036,5h1.018a2.036,2.036,0,0,1,2.036,2.036H16A2.036,2.036,0,0,1,18.036,5Z" transform="translate(-7.858 -2.456)" fill="#bcc2c6"/>
        </g>
      </g>
    </g>
  </g>
</svg>
