<svg xmlns="http://www.w3.org/2000/svg" width="46.136" height="41.768" viewBox="0 0 46.136 41.768">
  <g id="Group_1051" data-name="Group 1051" transform="translate(903 -1506.018)">
    <g id="Group_1049" data-name="Group 1049" transform="translate(-903 1506.018)">
      <path id="Path_4751" data-name="Path 4751" d="M405.681,371.928a1.636,1.636,0,1,1,1.636-1.636A1.638,1.638,0,0,1,405.681,371.928Zm0-2.127a.491.491,0,1,0,.491.491A.492.492,0,0,0,405.681,369.8Z" transform="translate(-364.275 -340.034)" fill="#fee671"/>
      <path id="Path_4752" data-name="Path 4752" d="M68.751,156.072a.572.572,0,0,1-.572-.572.688.688,0,0,0-.687-.687.572.572,0,1,1,0-1.145.688.688,0,0,0,.687-.687.572.572,0,1,1,1.145,0,.688.688,0,0,0,.687.687.572.572,0,1,1,0,1.145.688.688,0,0,0-.687.687A.572.572,0,0,1,68.751,156.072Z" transform="translate(-65.741 -148.541)" fill="#7e59d1"/>
      <path id="Path_4753" data-name="Path 4753" d="M418.484,414.156a.572.572,0,0,1-.572-.572.688.688,0,0,0-.687-.687.572.572,0,1,1,0-1.145.688.688,0,0,0,.687-.687.572.572,0,0,1,1.145,0,.688.688,0,0,0,.687.687.572.572,0,1,1,0,1.145.687.687,0,0,0-.687.687A.572.572,0,0,1,418.484,414.156Z" transform="translate(-375.438 -377.081)" fill="#7e59d1"/>
      <g id="Group_867" data-name="Group 867">
        <path id="Path_4754" data-name="Path 4754" d="M429.484,122.285a.572.572,0,0,1-.572-.572.688.688,0,0,0-.687-.687.572.572,0,1,1,0-1.145.688.688,0,0,0,.687-.687.572.572,0,1,1,1.145,0,.688.688,0,0,0,.687.687.572.572,0,0,1,0,1.145.688.688,0,0,0-.687.687A.572.572,0,0,1,429.484,122.285Z" transform="translate(-385.179 -118.622)" fill="#f2b636"/>
        <path id="Path_4755" data-name="Path 4755" d="M58.459,205.369a.572.572,0,0,1-.572-.572.688.688,0,0,0-.687-.687.572.572,0,0,1,0-1.145.688.688,0,0,0,.687-.687.572.572,0,0,1,1.145,0,.688.688,0,0,0,.687.687.572.572,0,1,1,0,1.145.688.688,0,0,0-.687.687A.572.572,0,0,1,58.459,205.369Z" transform="translate(-56.627 -192.195)" fill="#f2b636"/>
      </g>
    </g>
    <g id="svgexport-6_28_" data-name="svgexport-6 (28)" transform="translate(-900.63 1506.018)">
      <path id="Path_5160" data-name="Path 5160" d="M41.768,20.883A20.87,20.87,0,0,1,27.216,40.789a20.466,20.466,0,0,1-3.011.715l-.014,0q-.759.121-1.534.187l-.332.025c-.156.01-.313.019-.471.026q-.483.023-.972.023t-1-.024q-.224-.01-.448-.026c-.112-.008-.222-.015-.333-.025q-.794-.066-1.571-.193c-.247-.04-.494-.083-.737-.132a20.628,20.628,0,0,1-3.079-.862q-.863-.315-1.69-.7-.281-.132-.559-.274-.713-.36-1.394-.774a20.884,20.884,0,1,1,31.69-17.872Zm0,0" transform="translate(0 0.001)" fill="#e1e1e1"/>
      <path id="Path_5161" data-name="Path 5161" d="M36.973,268.492v14.267a20.631,20.631,0,0,1-3.079-.862q-.863-.314-1.69-.7-.281-.132-.559-.274-.713-.36-1.394-.774a20.945,20.945,0,0,1-8.286-9.4v-2.257a5.661,5.661,0,0,1,4.193-5.467c.089-.024.177-.046.268-.065a5.467,5.467,0,0,1,.736-.109c.153-.012.307-.019.463-.019h3.687a5.629,5.629,0,0,1,1.2.128l.066.014c.065.015.131.031.194.048l.005,0a5.666,5.666,0,0,1,4.195,5.468Zm0,0" transform="translate(-20.173 -241.391)" fill="#7e59d1"/>
      <path id="Path_5162" data-name="Path 5162" d="M64.321,268.492v14.267a20.631,20.631,0,0,1-3.079-.862q-.863-.315-1.69-.7-.281-.132-.559-.274-.713-.36-1.394-.774a20.994,20.994,0,0,1-5.857-5.282v-6.373a5.661,5.661,0,0,1,4.193-5.467c.089-.024.177-.046.268-.065a5.477,5.477,0,0,1,.736-.109c.153-.012.307-.019.463-.019H58.66a5.625,5.625,0,0,1,1.2.128l.066.014c.065.015.131.031.194.048l.005,0a5.666,5.666,0,0,1,4.195,5.468Zm0,0" transform="translate(-47.521 -241.391)" fill="#1f83e2"/>
      <path id="Path_5163" data-name="Path 5163" d="M79.85,264.4l-.013.064-1.693,7.876a1.647,1.647,0,0,1-1.6,1.306h-.029a1.647,1.647,0,0,1-1.6-1.306l-1.693-7.875L73.2,264.4Zm0,0" transform="translate(-67.232 -242.829)" fill="#f2f0ec"/>
      <path id="Path_5164" data-name="Path 5164" d="M76.526,256.09l-2.548,1.416L73.2,253.9l1.583-.932" transform="translate(-67.231 -232.332)" fill="#d8d5d0"/>
      <path id="Path_5165" data-name="Path 5165" d="M113.941,256.09l2.548,1.416.775-3.606-1.583-.932" transform="translate(-104.646 -232.332)" fill="#d8d5d0"/>
      <path id="Path_5166" data-name="Path 5166" d="M20.676,64.336V55.8a7.609,7.609,0,1,1,15.218,0v8.536" transform="translate(-18.989 -44.259)" fill="#cc7a3b"/>
      <path id="Path_5167" data-name="Path 5167" d="M23.8,56.142c0,3.019,1.768,6.513,2.739,8.2H20.672V55.808A7.6,7.6,0,0,1,28.225,48.2c-2.339.058-4.423,3.812-4.423,7.942Zm0,0" transform="translate(-18.985 -44.267)" fill="#a35418"/>
      <path id="Path_5168" data-name="Path 5168" d="M93.234,236.1v2.479a2.019,2.019,0,0,1-4.039,0V236.1Zm0,0" transform="translate(-81.919 -216.844)" fill="#eab599"/>
      <path id="Path_5169" data-name="Path 5169" d="M106.867,264.563v.157a2.019,2.019,0,0,1-1.422,1.929,2.019,2.019,0,0,1-1.406-1.666q.2.012.407.012a6.975,6.975,0,0,0,2.421-.432Zm0,0" transform="translate(-95.552 -242.98)" fill="#f6caae"/>
      <path id="Path_5170" data-name="Path 5170" d="M3.756,165.174a1.878,1.878,0,1,1-1.577-1.854,1.878,1.878,0,0,1,1.577,1.854Zm0,0" transform="translate(0 -149.975)" fill="#f6caae"/>
      <path id="Path_5171" data-name="Path 5171" d="M25.479,165.447A1.878,1.878,0,0,1,23.9,167.3a7.02,7.02,0,0,1,0-3.708A1.878,1.878,0,0,1,25.479,165.447Zm0,0" transform="translate(-21.723 -150.248)" fill="#eab599"/>
      <path id="Path_5172" data-name="Path 5172" d="M16.136,178.761a.671.671,0,1,1-.671-.671A.671.671,0,0,1,16.136,178.761Zm0,0" transform="translate(-13.586 -163.561)" fill="#eab599"/>
      <path id="Path_5173" data-name="Path 5173" d="M40.107,108.931v6.456a6.961,6.961,0,0,1-3.7,1.842l-.034.006a6.9,6.9,0,0,1-1.087.084,6.987,6.987,0,0,1-6.987-6.987V107.67a7.041,7.041,0,0,1,.071-1,4.428,4.428,0,0,0,5.565-.358,3.957,3.957,0,0,0,1.05-1.641,4.611,4.611,0,0,0,1.442,2.879,5.157,5.157,0,0,0,3.681,1.384Zm0,0" transform="translate(-25.989 -96.129)" fill="#eab599"/>
      <path id="Path_5174" data-name="Path 5174" d="M64.6,108.931v6.455a6.961,6.961,0,0,1-3.7,1.842l-.034.006a6.988,6.988,0,0,1-5.9-6.9V107.67q0-.106,0-.211a4.378,4.378,0,0,0,3.457-1.15,3.956,3.956,0,0,0,1.05-1.64,4.611,4.611,0,0,0,1.442,2.879A5.157,5.157,0,0,0,64.6,108.931Zm0,0" transform="translate(-50.485 -96.129)" fill="#f6caae"/>
      <path id="Path_5175" data-name="Path 5175" d="M133.817,153.786a1.161,1.161,0,1,0-2.321,0" transform="translate(-120.769 -140.174)" fill="#eab599"/>
      <path id="Path_5176" data-name="Path 5176" d="M70.282,153.786a1.16,1.16,0,1,0-2.321,0" transform="translate(-62.417 -140.174)" fill="#eab599"/>
      <path id="Path_5177" data-name="Path 5177" d="M74.054,163.984a.793.793,0,1,1-.793-.793A.793.793,0,0,1,74.054,163.984Zm0,0" transform="translate(-66.557 -149.878)" fill="#3d4159"/>
      <path id="Path_5178" data-name="Path 5178" d="M137.593,163.984a.793.793,0,1,1-.793-.793A.793.793,0,0,1,137.593,163.984Zm0,0" transform="translate(-124.913 -149.878)" fill="#3d4159"/>
      <path id="Path_5179" data-name="Path 5179" d="M101.974,189.672h-1.585a.342.342,0,1,1,0-.684h1.585a.342.342,0,0,1,0,.684Zm0,0" transform="translate(-91.885 -173.571)" fill="#eab599"/>
      <path id="Path_5180" data-name="Path 5180" d="M92.96,212.371a3.529,3.529,0,0,1-1.7-.44.311.311,0,1,1,.3-.545,2.9,2.9,0,0,0,2.808,0,.311.311,0,1,1,.3.545,3.529,3.529,0,0,1-1.7.44Zm0,0" transform="translate(-83.664 -194.107)" fill="#eab599"/>
      <path id="Path_5181" data-name="Path 5181" d="M82.273,167.367a.34.34,0,1,1-.34-.34A.34.34,0,0,1,82.273,167.367Zm0,0" transform="translate(-74.937 -153.401)" fill="#fff"/>
      <path id="Path_5182" data-name="Path 5182" d="M146.289,167.367a.34.34,0,1,1-.339-.34A.34.34,0,0,1,146.289,167.367Zm0,0" transform="translate(-133.731 -153.401)" fill="#fff"/>
      <path id="Path_5183" data-name="Path 5183" d="M152.651,186.773a.87.87,0,1,1-.871-.871A.87.87,0,0,1,152.651,186.773Zm0,0" transform="translate(-138.599 -170.736)" fill="#eab599"/>
      <path id="Path_5184" data-name="Path 5184" d="M57.393,186.773a.87.87,0,1,1-.87-.871A.87.87,0,0,1,57.393,186.773Zm0,0" transform="translate(-51.112 -170.736)" fill="#eab599"/>
      <path id="Path_5185" data-name="Path 5185" d="M312.252,263.447v2.614a20.967,20.967,0,0,1-10.157,10.261,20.842,20.842,0,0,1-5.53,1.7l-.014,0V263.447a5.921,5.921,0,0,1,5.438-5.9c.16-.014.321-.019.484-.019h3.856a5.912,5.912,0,0,1,5.923,5.921Zm0,0" transform="translate(-272.358 -236.518)" fill="#bfd5de"/>
      <path id="Path_5186" data-name="Path 5186" d="M346.3,263.448v2.614a20.967,20.967,0,0,1-10.157,10.261,20.665,20.665,0,0,1-2.52.984v-13.86a5.922,5.922,0,0,1,5.923-5.921h.832a5.921,5.921,0,0,1,5.923,5.921Zm0,0" transform="translate(-306.408 -236.519)" fill="#dde8ed"/>
      <path id="Path_5187" data-name="Path 5187" d="M277.492,155.344a1.964,1.964,0,1,1-1.65-1.94A1.965,1.965,0,0,1,277.492,155.344Zm0,0" transform="translate(-251.245 -140.867)" fill="#d3a489"/>
      <path id="Path_5188" data-name="Path 5188" d="M376.476,283.711l-1.59,2.55-1.59-2.55" transform="translate(-342.844 -260.566)" fill="#f74f4f"/>
      <path id="Path_5189" data-name="Path 5189" d="M370.841,314.7l-2.139,2.7-2.139-2.7,2.14-7.867Zm0,0" transform="translate(-336.659 -281.805)" fill="#f74f4f"/>
      <path id="Path_5190" data-name="Path 5190" d="M300.223,155.627a1.965,1.965,0,0,1-1.65,1.94,7.347,7.347,0,0,1,0-3.879A1.965,1.965,0,0,1,300.223,155.627Zm0,0" transform="translate(-273.976 -141.15)" fill="#bf8e75"/>
      <path id="Path_5191" data-name="Path 5191" d="M290.448,169.562a.7.7,0,1,1-.7-.7A.7.7,0,0,1,290.448,169.562Zm0,0" transform="translate(-265.464 -155.084)" fill="#bf8e75"/>
      <path id="Path_5192" data-name="Path 5192" d="M353.633,250.462l-2.666,1.482-.811-3.773,1.656-.976" transform="translate(-321.591 -227.029)" fill="#bfd5de"/>
      <path id="Path_5193" data-name="Path 5193" d="M392.777,250.462l2.666,1.482.811-3.773L394.6,247.2" transform="translate(-360.735 -227.029)" fill="#bfd5de"/>
      <path id="Path_5194" data-name="Path 5194" d="M463.828,155.344a1.964,1.964,0,1,0,1.65-1.94A1.965,1.965,0,0,0,463.828,155.344Zm0,0" transform="translate(-425.99 -140.867)" fill="#d3a489"/>
      <g id="Group_1048" data-name="Group 1048" transform="translate(24.732 6.11)">
        <path id="Path_5195" data-name="Path 5195" d="M463.828,155.627a1.965,1.965,0,0,0,1.65,1.94,7.348,7.348,0,0,0,0-3.879A1.965,1.965,0,0,0,463.828,155.627Zm0,0" transform="translate(-450.722 -147.26)" fill="#bf8e75"/>
        <path id="Path_5196" data-name="Path 5196" d="M480.709,169.562a.7.7,0,1,1-.7-.7A.7.7,0,0,1,480.709,169.562Zm0,0" transform="translate(-464.935 -161.195)" fill="#bf8e75"/>
        <path id="Path_5197" data-name="Path 5197" d="M317.789,82.223a7.311,7.311,0,0,1-6.137,7.216,7.222,7.222,0,0,1-1.173.094,7.31,7.31,0,0,1-7.31-7.31c0-1.91.663-4.778,1.863-6.081,1.336-1.45,3.32-1.23,5.447-1.23a7.224,7.224,0,0,1,1.173.095,7.311,7.311,0,0,1,6.137,7.216Zm0,0" transform="translate(-303.167 -74.9)" fill="#bf8e75"/>
        <path id="Path_5198" data-name="Path 5198" d="M371.109,229.559v2.593a2.113,2.113,0,0,1-4.226,0v-2.593Zm0,0" transform="translate(-361.685 -216.942)" fill="#bf8e75"/>
      </g>
      <path id="Path_5199" data-name="Path 5199" d="M385.373,259.328v.164a1.528,1.528,0,1,1-2.959.275q.212.013.426.013a7.292,7.292,0,0,0,2.533-.452Zm0,0" transform="translate(-351.218 -238.172)" fill="#d3a489"/>
      <path id="Path_5200" data-name="Path 5200" d="M344.208,83.419a7.306,7.306,0,1,1-.036-.729c.024.24.036.483.036.729Zm0,0" transform="translate(-304.855 -69.986)" fill="#d3a489"/>
      <path id="Path_5201" data-name="Path 5201" d="M370.819,196.751a3.692,3.692,0,0,1-1.782-.46.325.325,0,1,1,.313-.57,3.036,3.036,0,0,0,2.938,0,.325.325,0,0,1,.313.57,3.694,3.694,0,0,1-1.782.46Zm0,0" transform="translate(-338.776 -179.717)" fill="#bf8e75"/>
      <path id="Path_5202" data-name="Path 5202" d="M355.026,150.11a.829.829,0,1,1-.829-.829A.829.829,0,0,1,355.026,150.11Zm0,0" transform="translate(-324.54 -137.103)" fill="#3d4159"/>
      <path id="Path_5203" data-name="Path 5203" d="M413.525,150.11a.829.829,0,1,1-.829-.829A.829.829,0,0,1,413.525,150.11Zm0,0" transform="translate(-378.268 -137.103)" fill="#3d4159"/>
      <path id="Path_5204" data-name="Path 5204" d="M363.625,153.652a.355.355,0,1,1-.355-.355A.355.355,0,0,1,363.625,153.652Zm0,0" transform="translate(-333.308 -140.791)" fill="#fff"/>
      <path id="Path_5205" data-name="Path 5205" d="M422.625,153.652a.355.355,0,1,1-.355-.355A.356.356,0,0,1,422.625,153.652Zm0,0" transform="translate(-387.495 -140.791)" fill="#fff"/>
      <path id="Path_5206" data-name="Path 5206" d="M380.247,176.989h-1.659a.358.358,0,1,1,0-.715h1.659a.358.358,0,1,1,0,.715Zm0,0" transform="translate(-347.375 -161.893)" fill="#bf8e75"/>
      <path id="Path_5207" data-name="Path 5207" d="M422.289,327.727h3.187v.975h-3.187Zm0,0" transform="translate(-387.839 -300.992)" fill="#bfd5de"/>
      <path id="Path_5208" data-name="Path 5208" d="M387.539,49.32a4.431,4.431,0,0,1,4.105,4.2l.021.423h1.274l.686,4.563,1.662-.514-.223-4.471a4.431,4.431,0,0,0-4.442-4.211Zm0,0" transform="translate(-355.924 -45.286)" fill="#2a2f4f"/>
      <path id="Path_5209" data-name="Path 5209" d="M406.16,27.816a4.516,4.516,0,1,1-6.386,6.386Zm0,0" transform="translate(-367.161 -25.547)" fill="#3d4159"/>
      <path id="Path_5210" data-name="Path 5210" d="M310.941,53.938H305.4l-.686,4.563-1.662-.514.223-4.471a4.431,4.431,0,0,1,4.443-4.211l8,.03,1.058,1.9" transform="translate(-278.328 -45.282)" fill="#3d4159"/>
      <path id="Path_5211" data-name="Path 5211" d="M310.795,49.32a4.431,4.431,0,0,0-4.105,4.2l-.021.423h-1.274l-.686,4.563-1.662-.514.223-4.471a4.431,4.431,0,0,1,4.442-4.211Zm0,0" transform="translate(-278.325 -45.286)" fill="#2a2f4f"/>
      <path id="Path_5212" data-name="Path 5212" d="M165.182,393.561v1.566a20.939,20.939,0,0,1-17.705,0v-1.565a6.679,6.679,0,0,1,4.947-6.451c.1-.028.209-.054.315-.077a6.6,6.6,0,0,1,.869-.128c.181-.015.362-.022.547-.022H158.5a6.7,6.7,0,0,1,1.417.15l.078.017c.077.018.153.037.229.057l.006,0a6.685,6.685,0,0,1,4.948,6.452Zm0,0" transform="translate(-135.446 -355.322)" fill="#000748"/>
      <path id="Path_5213" data-name="Path 5213" d="M215.768,388.723l-.016.076-2.13,9.906-.332.026c-.156.01-.313.019-.471.026q-.483.023-.972.023t-1-.024q-.224-.01-.448-.026c-.112-.008-.222-.015-.333-.025l-2.129-9.905-.016-.077Zm0,0" transform="translate(-190.964 -357.012)" fill="#1f83e2"/>
      <path id="Path_5214" data-name="Path 5214" d="M237.6,416.422l-1.793,2.875-1.793-2.875" transform="translate(-214.929 -382.451)" fill="#3d4159"/>
      <path id="Path_5215" data-name="Path 5215" d="M241.194,448.114c-.156.01-.313.019-.471.026q-.483.023-.972.023t-1-.024q-.224-.01-.448-.026l1.443-5.62Zm0,0" transform="translate(-218.868 -406.395)" fill="#3d4159"/>
      <path id="Path_5216" data-name="Path 5216" d="M211.843,378.926l-3.007,1.671-.915-4.254,1.868-1.1" transform="translate(-190.96 -344.631)" fill="#7e59d1"/>
      <path id="Path_5217" data-name="Path 5217" d="M255.988,378.926l3.006,1.671.915-4.254-1.868-1.1" transform="translate(-235.105 -344.631)" fill="#7e59d1"/>
      <path id="Path_5218" data-name="Path 5218" d="M270.972,394.464h.954l-1.666,4.052a20.751,20.751,0,0,1-2.35.241l2.926-9.96.022-.074,2.057.672Zm0,0" transform="translate(-246.054 -357.012)" fill="#373c65"/>
      <path id="Path_5219" data-name="Path 5219" d="M187.436,398.755a20.687,20.687,0,0,1-2.352-.244l-1.664-4.048h.954l-1.944-5.069,2.058-.672.022.074Zm0,0" transform="translate(-167.548 -357.011)" fill="#373c65"/>
      <path id="Path_5220" data-name="Path 5220" d="M231.55,355.352v2.924a2.383,2.383,0,0,1-4.765,0v-2.924Zm0,0" transform="translate(-208.284 -326.363)" fill="#eab599"/>
      <path id="Path_5221" data-name="Path 5221" d="M247.633,388.922v.185a1.723,1.723,0,1,1-3.337.31q.239.015.48.015a8.214,8.214,0,0,0,2.857-.51Zm0,0" transform="translate(-224.367 -357.194)" fill="#f6caae"/>
      <path id="Path_5222" data-name="Path 5222" d="M125.982,271.661a2.216,2.216,0,1,1-1.861-2.187A2.216,2.216,0,0,1,125.982,271.661Zm0,0" transform="translate(-111.635 -247.464)" fill="#f6caae"/>
      <path id="Path_5223" data-name="Path 5223" d="M151.616,271.984a2.216,2.216,0,0,1-1.861,2.187,8.289,8.289,0,0,1,0-4.375A2.216,2.216,0,0,1,151.616,271.984Zm0,0" transform="translate(-137.268 -247.787)" fill="#eab599"/>
      <path id="Path_5224" data-name="Path 5224" d="M140.592,287.694a.792.792,0,1,1-.792-.792A.792.792,0,0,1,140.592,287.694Zm0,0" transform="translate(-127.668 -263.497)" fill="#eab599"/>
      <path id="Path_5225" data-name="Path 5225" d="M336.1,271.661a2.216,2.216,0,1,0,1.861-2.187A2.216,2.216,0,0,0,336.1,271.661Zm0,0" transform="translate(-308.686 -247.464)" fill="#f6caae"/>
      <path id="Path_5226" data-name="Path 5226" d="M336.1,271.984a2.216,2.216,0,0,0,1.861,2.187,8.289,8.289,0,0,0,0-4.375A2.216,2.216,0,0,0,336.1,271.984Zm0,0" transform="translate(-308.686 -247.787)" fill="#eab599"/>
      <path id="Path_5227" data-name="Path 5227" d="M171.429,150.88v3.139a8.244,8.244,0,0,1-6.921,8.137l-.04.007a8.1,8.1,0,0,1-1.283.1,8.243,8.243,0,0,1-8.243-8.243V150.88a8.239,8.239,0,0,1,8.243-8.244h0a8.238,8.238,0,0,1,8.244,8.244Zm0,0" transform="translate(-142.302 -131)" fill="#eab599"/>
      <path id="Path_5228" data-name="Path 5228" d="M355.143,287.694a.792.792,0,1,1-.792-.792A.792.792,0,0,1,355.143,287.694Zm0,0" transform="translate(-324.716 -263.497)" fill="#eab599"/>
      <path id="Path_5229" data-name="Path 5229" d="M200.326,152v3.139a8.244,8.244,0,0,1-6.921,8.137l-.04.007a8.245,8.245,0,0,1-6.959-8.144V152a8.245,8.245,0,0,1,6.961-8.144A8.245,8.245,0,0,1,200.326,152Zm0,0" transform="translate(-171.2 -132.123)" fill="#f6caae"/>
      <path id="Path_5230" data-name="Path 5230" d="M213.414,265.763a.935.935,0,1,1-.935-.935A.935.935,0,0,1,213.414,265.763Zm0,0" transform="translate(-194.286 -243.224)" fill="#3d4159"/>
      <path id="Path_5231" data-name="Path 5231" d="M279.382,265.763a.935.935,0,1,1-.935-.935A.935.935,0,0,1,279.382,265.763Zm0,0" transform="translate(-254.873 -243.224)" fill="#3d4159"/>
      <path id="Path_5232" data-name="Path 5232" d="M223.11,269.757a.4.4,0,1,1-.4-.4A.4.4,0,0,1,223.11,269.757Zm0,0" transform="translate(-204.173 -247.382)" fill="#fff"/>
      <path id="Path_5233" data-name="Path 5233" d="M289.641,269.757a.4.4,0,1,1-.4-.4A.4.4,0,0,1,289.641,269.757Zm0,0" transform="translate(-265.277 -247.382)" fill="#fff"/>
      <path id="Path_5234" data-name="Path 5234" d="M241.856,291.576h-1.871a.4.4,0,0,1,0-.807h1.871a.4.4,0,1,1,0,.807Zm0,0" transform="translate(-220.037 -267.049)" fill="#eab599"/>
      <path id="Path_5235" data-name="Path 5235" d="M231.224,318.354a4.164,4.164,0,0,1-2.01-.519.367.367,0,0,1,.353-.643,3.421,3.421,0,0,0,3.313,0,.367.367,0,0,1,.353.643A4.165,4.165,0,0,1,231.224,318.354Zm0,0" transform="translate(-210.34 -291.274)" fill="#eab599"/>
      <path id="Path_5236" data-name="Path 5236" d="M171.425,134.047v3.216h-1.534v-2.518l-11.076-2.058-2.343-.436v5.012h-1.534v-3.216a6.637,6.637,0,0,1,6.637-6.637h3.215c.087,0,.175,0,.262.006a6.636,6.636,0,0,1,6.375,6.631Zm0,0" transform="translate(-142.298 -117.016)" fill="#2a2f4f"/>
      <path id="Path_5237" data-name="Path 5237" d="M215.082,134.115v3.216h-1.534v-2.518l-11.076-2.058a6.354,6.354,0,0,1,12.61,1.361Zm0,0" transform="translate(-185.955 -117.084)" fill="#3d4159"/>
    </g>
  </g>
</svg>
