<svg xmlns="http://www.w3.org/2000/svg" width="46.136" height="41.768" viewBox="0 0 46.136 41.768">
  <g id="Group_1066" data-name="Group 1066" transform="translate(-1016.5 -1030)">
    <g id="Group_1056" data-name="Group 1056" transform="translate(600 1)">
      <g id="Group_1052" data-name="Group 1052" transform="translate(1319.5 -477.018)">
        <g id="Group_1049" data-name="Group 1049" transform="translate(-903 1506.018)">
          <path id="Path_4751" data-name="Path 4751" d="M405.681,371.928a1.636,1.636,0,1,1,1.636-1.636A1.638,1.638,0,0,1,405.681,371.928Zm0-2.127a.491.491,0,1,0,.491.491A.492.492,0,0,0,405.681,369.8Z" transform="translate(-364.275 -340.034)" fill="#fee671"/>
          <path id="Path_4752" data-name="Path 4752" d="M68.751,156.072a.572.572,0,0,1-.572-.572.688.688,0,0,0-.687-.687.572.572,0,1,1,0-1.145.688.688,0,0,0,.687-.687.572.572,0,1,1,1.145,0,.688.688,0,0,0,.687.687.572.572,0,1,1,0,1.145.688.688,0,0,0-.687.687A.572.572,0,0,1,68.751,156.072Z" transform="translate(-65.741 -148.541)" fill="#7e59d1"/>
          <path id="Path_4753" data-name="Path 4753" d="M418.484,414.156a.572.572,0,0,1-.572-.572.688.688,0,0,0-.687-.687.572.572,0,1,1,0-1.145.688.688,0,0,0,.687-.687.572.572,0,0,1,1.145,0,.688.688,0,0,0,.687.687.572.572,0,1,1,0,1.145.687.687,0,0,0-.687.687A.572.572,0,0,1,418.484,414.156Z" transform="translate(-375.438 -377.081)" fill="#7e59d1"/>
          <g id="Group_867" data-name="Group 867">
            <path id="Path_4754" data-name="Path 4754" d="M429.484,122.285a.572.572,0,0,1-.572-.572.688.688,0,0,0-.687-.687.572.572,0,1,1,0-1.145.688.688,0,0,0,.687-.687.572.572,0,1,1,1.145,0,.688.688,0,0,0,.687.687.572.572,0,0,1,0,1.145.688.688,0,0,0-.687.687A.572.572,0,0,1,429.484,122.285Z" transform="translate(-385.179 -118.622)" fill="#f2b636"/>
            <path id="Path_4755" data-name="Path 4755" d="M58.459,205.369a.572.572,0,0,1-.572-.572.688.688,0,0,0-.687-.687.572.572,0,0,1,0-1.145.688.688,0,0,0,.687-.687.572.572,0,0,1,1.145,0,.688.688,0,0,0,.687.687.572.572,0,1,1,0,1.145.688.688,0,0,0-.687.687A.572.572,0,0,1,58.459,205.369Z" transform="translate(-56.627 -192.195)" fill="#f2b636"/>
          </g>
        </g>
        <g id="svgexport-6_28_" data-name="svgexport-6 (28)" transform="translate(-900.63 1506.018)">
          <path id="Path_5160" data-name="Path 5160" d="M41.768,20.883A20.87,20.87,0,0,1,27.216,40.789a20.466,20.466,0,0,1-3.011.715l-.014,0q-.759.121-1.534.187l-.332.025c-.156.01-.313.019-.471.026q-.483.023-.972.023t-1-.024q-.224-.01-.448-.026c-.112-.008-.222-.015-.333-.025q-.794-.066-1.571-.193c-.247-.04-.494-.083-.737-.132a20.628,20.628,0,0,1-3.079-.862q-.863-.315-1.69-.7-.281-.132-.559-.274-.713-.36-1.394-.774a20.884,20.884,0,1,1,31.69-17.872Zm0,0" transform="translate(0 0.001)" fill="#e1e1e1"/>
        </g>
      </g>
    </g>
    <g id="svgexport-6_32_" data-name="svgexport-6 (32)" transform="translate(1028.421 1039.117)">
      <path id="Path_4817" data-name="Path 4817" d="M431.172,431.174l-.745,2.141,1.658.432a1.484,1.484,0,0,0,1.66-1.66l-.432-1.658Z" transform="translate(-410.643 -410.645)" fill="#465059"/>
      <path id="Path_4818" data-name="Path 4818" d="M433.09,442.817l-1.658-.432.486-1.4-.745.259-.745,2.141,1.658.432a1.485,1.485,0,0,0,1.612-1.052A1.479,1.479,0,0,1,433.09,442.817Z" transform="translate(-410.643 -420.719)" fill="#3c474d"/>
      <path id="Path_4819" data-name="Path 4819" d="M347.526,339.7l.739,2.833-2.886,2.886-2.832-.739-1.265-2.833,3.549-3.549Z" transform="translate(-325.594 -322.744)" fill="#efedee"/>
      <path id="Path_4820" data-name="Path 4820" d="M342.285,393.646l-1,1,1.265,2.833,2.832.739,1-1-3.733-1.64Z" transform="translate(-325.593 -375.552)" fill="#d4d2d3"/>
      <rect id="Rectangle_511" data-name="Rectangle 511" width="7.042" height="4.109" transform="translate(10.266 5.286) rotate(135)" fill="#bab8b9"/>
      <rect id="Rectangle_512" data-name="Rectangle 512" width="4.109" height="1.421" transform="translate(3.385 6.356) rotate(45)" fill="#a6a4a5"/>
      <path id="Path_4821" data-name="Path 4821" d="M23.213,5.36a1.1,1.1,0,0,0,0-1.55L19.723.32a1.1,1.1,0,0,0-1.55,0L.32,18.173a1.1,1.1,0,0,0,0,1.55l3.49,3.49a1.1,1.1,0,0,0,1.55,0M18.86,3.239a1.014,1.014,0,1,1,0,1.434A1.014,1.014,0,0,1,18.86,3.239Z" fill="#000748"/>
      <g id="Group_983" data-name="Group 983" transform="translate(3.88 5.713)">
        <path id="Path_4822" data-name="Path 4822" d="M394.689,126.952l-2.054-2.054a.355.355,0,1,1,.5-.5l2.054,2.054Z" transform="translate(-378.369 -124.292)" fill="#bab8b9"/>
        <path id="Path_4823" data-name="Path 4823" d="M86.579,435.061l-2.054-2.054a.355.355,0,1,1,.5-.5l2.054,2.054Z" transform="translate(-84.421 -418.239)" fill="#bab8b9"/>
        <path id="Path_4824" data-name="Path 4824" d="M388.355,161.7l-1.369-1.369a.355.355,0,1,1,.5-.5l1.369,1.369Z" transform="translate(-372.979 -158.094)" fill="#bab8b9"/>
        <path id="Path_4825" data-name="Path 4825" d="M367.814,182.239l-1.369-1.369a.355.355,0,0,1,.5-.5l1.369,1.369Z" transform="translate(-353.382 -177.691)" fill="#bab8b9"/>
        <path id="Path_4826" data-name="Path 4826" d="M347.274,202.78,345.9,201.41a.355.355,0,1,1,.5-.5l1.369,1.369Z" transform="translate(-333.786 -197.287)" fill="#bab8b9"/>
        <path id="Path_4827" data-name="Path 4827" d="M189.282,332.358l-2.054-2.054a.355.355,0,0,1,.5-.5l2.054,2.054Z" transform="translate(-182.403 -320.257)" fill="#bab8b9"/>
        <path id="Path_4828" data-name="Path 4828" d="M182.948,367.1l-1.369-1.369a.355.355,0,0,1,.5-.5l1.369,1.369Z" transform="translate(-177.013 -354.059)" fill="#bab8b9"/>
        <path id="Path_4829" data-name="Path 4829" d="M121.327,428.727l-1.369-1.369a.355.355,0,0,1,.5-.5l1.369,1.369Z" transform="translate(-118.225 -412.849)" fill="#bab8b9"/>
        <path id="Path_4830" data-name="Path 4830" d="M141.867,408.187l-1.369-1.369a.355.355,0,0,1,.5-.5l1.369,1.369Z" transform="translate(-137.82 -393.253)" fill="#bab8b9"/>
        <path id="Path_4831" data-name="Path 4831" d="M162.408,387.646l-1.369-1.369a.355.355,0,1,1,.5-.5l1.369,1.369Z" transform="translate(-157.417 -373.656)" fill="#bab8b9"/>
      </g>
      <path id="Path_4832" data-name="Path 4832" d="M12.274,9.588,9.588,12.274a1.622,1.622,0,0,0,0,2.294l1.419,1.419,4.98-4.98L14.568,9.588A1.622,1.622,0,0,0,12.274,9.588Z" transform="translate(-8.695 -8.695)" fill="#7e59d1"/>
      <path id="Path_4833" data-name="Path 4833" d="M10.593,56.027l-1,1a1.622,1.622,0,0,0,0,2.294l1.419,1.419,1-1-1.419-1.419A1.622,1.622,0,0,1,10.593,56.027Z" transform="translate(-8.695 -53.452)" fill="#7e59d1"/>
      <path id="Path_4834" data-name="Path 4834" d="M116.484,121.464l11.6,11.6.129-2.361,2.361-.129.129-2.361,2.361-.129-11.6-11.6Z" transform="translate(-111.13 -111.13)" fill="#f2b636"/>
      <path id="Path_4835" data-name="Path 4835" d="M117.489,202.963l-1,1,11.6,11.6.1-1.905Z" transform="translate(-111.13 -193.634)" fill="#e7b835"/>
      <path id="Path_4836" data-name="Path 4836" d="M101.2,96.219l-4.98,4.98a.876.876,0,0,0,0,1.238h0a.876.876,0,0,0,1.238,0l4.98-4.98a.876.876,0,0,0,0-1.238h0A.876.876,0,0,0,101.2,96.219Z" transform="translate(-91.552 -91.552)" fill="#d4d2d3"/>
      <path id="Path_4837" data-name="Path 4837" d="M97.225,189.259h0a.876.876,0,0,1,0-1.238l-1,1a.876.876,0,0,0,0,1.238h0a.876.876,0,0,0,1.238,0l1-1A.876.876,0,0,1,97.225,189.259Z" transform="translate(-91.553 -179.379)" fill="#bab8b9"/>
      <path id="Path_4838" data-name="Path 4838" d="M37.986,33.006l-4.98,4.98a.876.876,0,0,0,0,1.238h0a.876.876,0,0,0,1.238,0l4.98-4.98a.876.876,0,0,0,0-1.238h0A.876.876,0,0,0,37.986,33.006Z" transform="translate(-31.245 -31.245)" fill="#d4d2d3"/>
      <path id="Path_4839" data-name="Path 4839" d="M34.011,126.045h0a.876.876,0,0,1,0-1.238l-1,1a.876.876,0,0,0,0,1.238h0a.876.876,0,0,0,1.238,0l1-1A.876.876,0,0,1,34.011,126.045Z" transform="translate(-31.245 -119.071)" fill="#bab8b9"/>
    </g>
  </g>
</svg>
