<svg xmlns="http://www.w3.org/2000/svg" width="46.136" height="41.768" viewBox="0 0 46.136 41.768">
  <g id="Group_1073" data-name="Group 1073" transform="translate(-1016.5 -1132)">
    <g id="Group_1057" data-name="Group 1057" transform="translate(600 103)">
      <g id="Group_1052" data-name="Group 1052" transform="translate(1319.5 -477.018)">
        <g id="Group_1049" data-name="Group 1049" transform="translate(-903 1506.018)">
          <path id="Path_4751" data-name="Path 4751" d="M405.681,371.928a1.636,1.636,0,1,1,1.636-1.636A1.638,1.638,0,0,1,405.681,371.928Zm0-2.127a.491.491,0,1,0,.491.491A.492.492,0,0,0,405.681,369.8Z" transform="translate(-364.275 -340.034)" fill="#fee671"/>
          <path id="Path_4752" data-name="Path 4752" d="M68.751,156.072a.572.572,0,0,1-.572-.572.688.688,0,0,0-.687-.687.572.572,0,1,1,0-1.145.688.688,0,0,0,.687-.687.572.572,0,1,1,1.145,0,.688.688,0,0,0,.687.687.572.572,0,1,1,0,1.145.688.688,0,0,0-.687.687A.572.572,0,0,1,68.751,156.072Z" transform="translate(-65.741 -148.541)" fill="#7e59d1"/>
          <path id="Path_4753" data-name="Path 4753" d="M418.484,414.156a.572.572,0,0,1-.572-.572.688.688,0,0,0-.687-.687.572.572,0,1,1,0-1.145.688.688,0,0,0,.687-.687.572.572,0,0,1,1.145,0,.688.688,0,0,0,.687.687.572.572,0,1,1,0,1.145.687.687,0,0,0-.687.687A.572.572,0,0,1,418.484,414.156Z" transform="translate(-375.438 -377.081)" fill="#7e59d1"/>
          <g id="Group_867" data-name="Group 867">
            <path id="Path_4754" data-name="Path 4754" d="M429.484,122.285a.572.572,0,0,1-.572-.572.688.688,0,0,0-.687-.687.572.572,0,1,1,0-1.145.688.688,0,0,0,.687-.687.572.572,0,1,1,1.145,0,.688.688,0,0,0,.687.687.572.572,0,0,1,0,1.145.688.688,0,0,0-.687.687A.572.572,0,0,1,429.484,122.285Z" transform="translate(-385.179 -118.622)" fill="#f2b636"/>
            <path id="Path_4755" data-name="Path 4755" d="M58.459,205.369a.572.572,0,0,1-.572-.572.688.688,0,0,0-.687-.687.572.572,0,0,1,0-1.145.688.688,0,0,0,.687-.687.572.572,0,0,1,1.145,0,.688.688,0,0,0,.687.687.572.572,0,1,1,0,1.145.688.688,0,0,0-.687.687A.572.572,0,0,1,58.459,205.369Z" transform="translate(-56.627 -192.195)" fill="#f2b636"/>
          </g>
        </g>
        <g id="svgexport-6_28_" data-name="svgexport-6 (28)" transform="translate(-900.63 1506.018)">
          <path id="Path_5160" data-name="Path 5160" d="M41.768,20.883A20.87,20.87,0,0,1,27.216,40.789a20.466,20.466,0,0,1-3.011.715l-.014,0q-.759.121-1.534.187l-.332.025c-.156.01-.313.019-.471.026q-.483.023-.972.023t-1-.024q-.224-.01-.448-.026c-.112-.008-.222-.015-.333-.025q-.794-.066-1.571-.193c-.247-.04-.494-.083-.737-.132a20.628,20.628,0,0,1-3.079-.862q-.863-.315-1.69-.7-.281-.132-.559-.274-.713-.36-1.394-.774a20.884,20.884,0,1,1,31.69-17.872Zm0,0" transform="translate(0 0.001)" fill="#e1e1e1"/>
        </g>
      </g>
    </g>
    <g id="svgexport-6_38_" data-name="svgexport-6 (38)" transform="translate(1026.502 1139.209)">
      <path id="Path_5252" data-name="Path 5252" d="M271.029,38.414H260.887a1.527,1.527,0,0,0-1.527,1.527v5.737a1.527,1.527,0,0,0,1.527,1.527h3.608l-.583,2.353a.334.334,0,0,0,.528.345l3.513-2.7h3.077a1.528,1.528,0,0,0,1.527-1.527V39.942a1.528,1.528,0,0,0-1.527-1.527Zm0,0" transform="translate(-245.79 -36.404)" fill="#f2b636"/>
      <path id="Path_5253" data-name="Path 5253" d="M346.609,206.966l-.451,1.82a.334.334,0,0,0,.528.345l3.513-2.7h-2.9Zm0,0" transform="translate(-328.037 -195.632)" fill="#f2b636"/>
      <path id="Path_5254" data-name="Path 5254" d="M429.927,38.414h-2.9a1.528,1.528,0,0,1,1.527,1.527v5.737a1.527,1.527,0,0,1-1.527,1.527h2.9a1.527,1.527,0,0,0,1.527-1.527V39.942A1.528,1.528,0,0,0,429.927,38.414Zm0,0" transform="translate(-404.688 -36.404)" fill="#f9bb15"/>
      <g id="Group_1072" data-name="Group 1072" transform="translate(17.727 4.198)">
        <path id="Path_5255" data-name="Path 5255" d="M338.96,106.735l1.268-.824a.15.15,0,0,1,.095-.025.377.377,0,0,1,.34.364.228.228,0,0,1-.09.195l-.879.569.879.569a.229.229,0,0,1,.09.195.378.378,0,0,1-.34.364.151.151,0,0,1-.095-.025l-1.268-.824a.33.33,0,0,1,0-.559Zm0,0" transform="translate(-338.805 -104.543)" fill="#f2f2f2"/>
        <path id="Path_5256" data-name="Path 5256" d="M386.6,80.483a.217.217,0,0,1-.02.095l-1.757,3.6a.25.25,0,0,1-.225.125.276.276,0,0,1-.28-.265.225.225,0,0,1,.025-.095l1.753-3.6a.22.22,0,0,1,.21-.125.286.286,0,0,1,.295.264Zm0,0" transform="translate(-381.939 -80.219)" fill="#f2f2f2"/>
        <path id="Path_5257" data-name="Path 5257" d="M439.648,107.295l-1.268.824a.151.151,0,0,1-.095.025.377.377,0,0,1-.34-.364.229.229,0,0,1,.09-.195l.879-.569-.879-.569a.228.228,0,0,1-.09-.195.377.377,0,0,1,.34-.364.15.15,0,0,1,.095.025l1.268.824a.33.33,0,0,1,0,.559Zm0,0" transform="translate(-432.757 -104.544)" fill="#f2f2f2"/>
      </g>
      <path id="Path_5258" data-name="Path 5258" d="M21.3,242.166a3.471,3.471,0,0,0-2.124-2.926,50.257,50.257,0,0,0-5.582-1.764.832.832,0,0,1-.68-.819v-2.334H8.477v2.334a.833.833,0,0,1-.681.819,50.257,50.257,0,0,0-5.581,1.764,3.471,3.471,0,0,0-2.124,2.926L0,247.73a1.111,1.111,0,0,0,1.111,1.124H20.282a1.111,1.111,0,0,0,1.111-1.124Zm0,0" transform="translate(0 -222.063)" fill="#fcc18b"/>
      <path id="Path_5259" data-name="Path 5259" d="M202.785,242.166a3.471,3.471,0,0,0-2.124-2.926,50.255,50.255,0,0,0-5.582-1.764.832.832,0,0,1-.68-.819v-2.334h-2.9v3.733a.833.833,0,0,0,.68.819,50.25,50.25,0,0,1,5.582,1.764,3.471,3.471,0,0,1,2.124,2.926l.087,5.288h1.79a1.111,1.111,0,0,0,1.111-1.124Zm0,0" transform="translate(-181.485 -222.063)" fill="#eaab65"/>
      <path id="Path_5260" data-name="Path 5260" d="M89.6,121.426h-.583a.9.9,0,0,0-.887,1.084l.229,1.26c.177.934,1.242.507,1.242.507Zm0,0" transform="translate(-83.507 -115.072)" fill="#eaab65"/>
      <path id="Path_5261" data-name="Path 5261" d="M292.333,121.426h.583a.9.9,0,0,1,.887,1.084l-.229,1.26c-.178.934-1.242.507-1.242.507Zm0,0" transform="translate(-277.037 -115.072)" fill="#fcc18b"/>
      <path id="Path_5262" data-name="Path 5262" d="M122.187,5.856a4.589,4.589,0,0,0-6.459,0,4.886,4.886,0,0,0-1.49,3.59v4.775c0,2.257,2.934,4.595,4.718,4.595s4.718-2.338,4.718-4.595V9.446A4.885,4.885,0,0,0,122.187,5.856Zm0,0" transform="translate(-108.263 -4.29)" fill="#fcc18b"/>
      <path id="Path_5263" data-name="Path 5263" d="M181.439,5.856a4.766,4.766,0,0,0-3.229-1.329,4.63,4.63,0,0,0-1.448.246,5.02,5.02,0,0,1,1.782,1.083,4.885,4.885,0,0,1,1.49,3.59v4.775c0,1.708-1.68,3.462-3.27,4.214a3.508,3.508,0,0,0,1.448.381c1.784,0,4.718-2.338,4.718-4.595V9.446a4.885,4.885,0,0,0-1.49-3.59Zm0,0" transform="translate(-167.514 -4.29)" fill="#eaab65"/>
      <path id="Path_5264" data-name="Path 5264" d="M105.211,0H99.373a2.72,2.72,0,0,0-2.72,2.72V6.474a1.878,1.878,0,0,1,1.23.459.159.159,0,0,0,.27-.114V3.877a1.2,1.2,0,0,1,1.2-1.2h1.093a1.242,1.242,0,0,1,.786.28l.107.087a1.5,1.5,0,0,0,1.9,0l.107-.087a1.242,1.242,0,0,1,.786-.28h1.093a1.2,1.2,0,0,1,1.2,1.2V6.819a.159.159,0,0,0,.271.114,1.878,1.878,0,0,1,1.23-.459V2.72A2.72,2.72,0,0,0,105.211,0Zm0,0" transform="translate(-91.597)" fill="#7e59d1"/>
      <path id="Path_5265" data-name="Path 5265" d="M241.928,0h-1.01a4.1,4.1,0,0,1,.835,2.675h.192a1.2,1.2,0,0,1,1.2,1.2V6.819a.159.159,0,0,0,.271.114,1.878,1.878,0,0,1,1.23-.459V2.72A2.72,2.72,0,0,0,241.928,0Zm0,0" transform="translate(-228.313)" fill="#7e59d1"/>
      <path id="Path_5266" data-name="Path 5266" d="M19.177,304.541a32.973,32.973,0,0,0-3.928-1.311l-.283.107a12.056,12.056,0,0,1-8.541,0l-.283-.107a32.968,32.968,0,0,0-3.928,1.311,3.47,3.47,0,0,0-2.124,2.926L0,313.03a1.111,1.111,0,0,0,1.111,1.124H20.282a1.111,1.111,0,0,0,1.111-1.124l-.092-5.564a3.47,3.47,0,0,0-2.124-2.926Zm0,0" transform="translate(0 -287.363)" fill="#000748"/>
      <path id="Path_5267" data-name="Path 5267" d="M59.549,312.756H45.733a.8.8,0,0,1-.8-.744l-.565-7.928a.8.8,0,0,1,.8-.858H60.114a.8.8,0,0,1,.8.858l-.565,7.928a.8.8,0,0,1-.8.744Zm0,0" transform="translate(-42.047 -287.359)" fill="#f2f2f2"/>
      <path id="Path_5268" data-name="Path 5268" d="M292.488,303.229h-2.917a.8.8,0,0,1,.8.858l-.618,8.672h2.171a.8.8,0,0,0,.8-.744l.565-7.928a.8.8,0,0,0-.8-.858Zm0,0" transform="translate(-274.42 -287.362)" fill="#cdd6df"/>
      <path id="Path_5269" data-name="Path 5269" d="M58.382,486.753h-15.6a.7.7,0,1,1,0-1.394h15.6a.7.7,0,1,1,0,1.394Zm0,0" transform="translate(-39.889 -459.962)" fill="#cdd6df"/>
      <path id="Path_5270" data-name="Path 5270" d="M185.341,380.2a1.116,1.116,0,1,1-1.116-1.115A1.116,1.116,0,0,1,185.341,380.2Zm0,0" transform="translate(-173.53 -359.249)" fill="#fff"/>
    </g>
  </g>
</svg>
