<svg xmlns="http://www.w3.org/2000/svg" xmlns:xlink="http://www.w3.org/1999/xlink" width="68" height="68" viewBox="0 0 68 68">
  <defs>
    <filter id="Ellipse_1823" x="0" y="0" width="68" height="68" filterUnits="userSpaceOnUse">
      <feOffset input="SourceAlpha"/>
      <feGaussianBlur stdDeviation="3" result="blur"/>
      <feFlood flood-color="#e0e0f5"/>
      <feComposite operator="in" in2="blur"/>
      <feComposite in="SourceGraphic"/>
    </filter>
    <clipPath id="clip-path">
      <rect id="Rectangle_923" data-name="Rectangle 923" width="24" height="24" transform="translate(714 648)" fill="#fff" stroke="#707070" stroke-width="1"/>
    </clipPath>
  </defs>
  <g id="Group_14399" data-name="Group 14399" transform="translate(-881 -621)">
    <g transform="matrix(1, 0, 0, 1, 881, 621)" filter="url(#Ellipse_1823)">
      <circle id="Ellipse_1823-2" data-name="Ellipse 1823" cx="25" cy="25" r="25" transform="translate(9 9)" fill="#fff"/>
    </g>
    <g id="Mask_Group_142" data-name="Mask Group 142" transform="translate(189 -5)" clip-path="url(#clip-path)">
      <g id="svgexport-6_78_" data-name="svgexport-6 (78)" transform="translate(720 648)">
        <path id="Path_5553" data-name="Path 5553" d="M14.966,3.985h2.191V.169A28.292,28.292,0,0,0,13.965,0C7.033,0,8.919,7.85,8.643,9H5.156v4.266H8.642V24h4.274V13.267h3.345L16.792,9H12.915c.188-2.824-.761-5.016,2.051-5.016Z" transform="translate(-5.156 0)" fill="#3b5999"/>
      </g>
    </g>
  </g>
</svg>
