<svg xmlns="http://www.w3.org/2000/svg" width="15" height="15" viewBox="0 0 15 15">
  <g id="Group_3402" data-name="Group 3402" transform="translate(-1016.147 -167.148)">
    <path id="Path_4694" data-name="Path 4694" d="M5.151,0A5.151,5.151,0,1,1,0,5.151,5.151,5.151,0,0,1,5.151,0Z" transform="translate(1018.634 169.634)" fill="#fff"/>
    <g id="svgexport-6_15_" data-name="svgexport-6 (15)" transform="translate(1016.147 167.148)">
      <g id="Group_731" data-name="Group 731" transform="translate(0)">
        <g id="Group_730" data-name="Group 730">
          <path id="Path_4677" data-name="Path 4677" d="M7.5,0A7.5,7.5,0,1,0,15,7.5,7.5,7.5,0,0,0,7.5,0Zm3.159,7.739a.536.536,0,0,1-.241.241v0L6.132,10.125a.536.536,0,0,1-.775-.482V5.357a.536.536,0,0,1,.775-.479l4.286,2.143A.536.536,0,0,1,10.659,7.739Z" transform="translate(0)" fill="#6a6f73"/>
        </g>
      </g>
    </g>
  </g>
</svg>
