<svg xmlns="http://www.w3.org/2000/svg" width="13.594" height="12" viewBox="0 0 13.594 12">
  <path id="Icon_awesome-signal" data-name="Icon awesome-signal" d="M6.328,8.351H4.922a.465.465,0,0,0-.469.462v5.538a.465.465,0,0,0,.469.462H6.328a.465.465,0,0,0,.469-.462V8.813A.465.465,0,0,0,6.328,8.351ZM2.578,11.12H1.172a.465.465,0,0,0-.469.462v2.769a.465.465,0,0,0,.469.462H2.578a.465.465,0,0,0,.469-.462V11.582A.465.465,0,0,0,2.578,11.12Zm7.5-5.538H8.672a.465.465,0,0,0-.469.462v8.308a.465.465,0,0,0,.469.462h1.406a.465.465,0,0,0,.469-.462V6.043A.465.465,0,0,0,10.078,5.582Zm3.75-2.769H12.422a.465.465,0,0,0-.469.462V14.351a.465.465,0,0,0,.469.462h1.406a.465.465,0,0,0,.469-.462V3.274A.465.465,0,0,0,13.828,2.813Z" transform="translate(-0.703 -2.813)" fill="#6a6f73"/>
</svg>
