<svg xmlns="http://www.w3.org/2000/svg" width="46.136" height="41.768" viewBox="0 0 46.136 41.768">
  <g id="Group_1071" data-name="Group 1071" transform="translate(-716.5 -1132)">
    <g id="Group_1058" data-name="Group 1058" transform="translate(300 103)">
      <g id="Group_1052" data-name="Group 1052" transform="translate(1319.5 -477.018)">
        <g id="Group_1049" data-name="Group 1049" transform="translate(-903 1506.018)">
          <path id="Path_4751" data-name="Path 4751" d="M405.681,371.928a1.636,1.636,0,1,1,1.636-1.636A1.638,1.638,0,0,1,405.681,371.928Zm0-2.127a.491.491,0,1,0,.491.491A.492.492,0,0,0,405.681,369.8Z" transform="translate(-364.275 -340.034)" fill="#fee671"/>
          <path id="Path_4752" data-name="Path 4752" d="M68.751,156.072a.572.572,0,0,1-.572-.572.688.688,0,0,0-.687-.687.572.572,0,1,1,0-1.145.688.688,0,0,0,.687-.687.572.572,0,1,1,1.145,0,.688.688,0,0,0,.687.687.572.572,0,1,1,0,1.145.688.688,0,0,0-.687.687A.572.572,0,0,1,68.751,156.072Z" transform="translate(-65.741 -148.541)" fill="#7e59d1"/>
          <path id="Path_4753" data-name="Path 4753" d="M418.484,414.156a.572.572,0,0,1-.572-.572.688.688,0,0,0-.687-.687.572.572,0,1,1,0-1.145.688.688,0,0,0,.687-.687.572.572,0,0,1,1.145,0,.688.688,0,0,0,.687.687.572.572,0,1,1,0,1.145.687.687,0,0,0-.687.687A.572.572,0,0,1,418.484,414.156Z" transform="translate(-375.438 -377.081)" fill="#7e59d1"/>
          <g id="Group_867" data-name="Group 867">
            <path id="Path_4754" data-name="Path 4754" d="M429.484,122.285a.572.572,0,0,1-.572-.572.688.688,0,0,0-.687-.687.572.572,0,1,1,0-1.145.688.688,0,0,0,.687-.687.572.572,0,1,1,1.145,0,.688.688,0,0,0,.687.687.572.572,0,0,1,0,1.145.688.688,0,0,0-.687.687A.572.572,0,0,1,429.484,122.285Z" transform="translate(-385.179 -118.622)" fill="#f2b636"/>
            <path id="Path_4755" data-name="Path 4755" d="M58.459,205.369a.572.572,0,0,1-.572-.572.688.688,0,0,0-.687-.687.572.572,0,0,1,0-1.145.688.688,0,0,0,.687-.687.572.572,0,0,1,1.145,0,.688.688,0,0,0,.687.687.572.572,0,1,1,0,1.145.688.688,0,0,0-.687.687A.572.572,0,0,1,58.459,205.369Z" transform="translate(-56.627 -192.195)" fill="#f2b636"/>
          </g>
        </g>
        <g id="svgexport-6_28_" data-name="svgexport-6 (28)" transform="translate(-900.63 1506.018)">
          <path id="Path_5160" data-name="Path 5160" d="M41.768,20.883A20.87,20.87,0,0,1,27.216,40.789a20.466,20.466,0,0,1-3.011.715l-.014,0q-.759.121-1.534.187l-.332.025c-.156.01-.313.019-.471.026q-.483.023-.972.023t-1-.024q-.224-.01-.448-.026c-.112-.008-.222-.015-.333-.025q-.794-.066-1.571-.193c-.247-.04-.494-.083-.737-.132a20.628,20.628,0,0,1-3.079-.862q-.863-.315-1.69-.7-.281-.132-.559-.274-.713-.36-1.394-.774a20.884,20.884,0,1,1,31.69-17.872Zm0,0" transform="translate(0 0.001)" fill="#e1e1e1"/>
        </g>
      </g>
    </g>
    <g id="svgexport-6_37_" data-name="svgexport-6 (37)" transform="translate(726.619 1139.935)">
      <g id="Group_1070" data-name="Group 1070" transform="translate(0 0)">
        <path id="Path_5248" data-name="Path 5248" d="M19.423,25.9H6.474A6.475,6.475,0,0,1,0,19.423V6.474A6.475,6.475,0,0,1,6.474,0H19.423A6.474,6.474,0,0,1,25.9,6.474V19.423A6.474,6.474,0,0,1,19.423,25.9" transform="translate(0 0)" fill="#7e59d1"/>
        <path id="Path_5249" data-name="Path 5249" d="M12.139,7.284h7.284A3.642,3.642,0,0,0,19.8.019C19.671.012,19.549,0,19.423,0H6.474A6.475,6.475,0,0,0,0,6.474V19.423A12.14,12.14,0,0,1,12.139,7.284" transform="translate(0 0)" fill="#f2b636"/>
        <path id="Path_5250" data-name="Path 5250" d="M38.474,22.474a6.474,6.474,0,1,0,6.474,6.474V16a6.474,6.474,0,0,1-6.474,6.474" transform="translate(-19.051 -9.526)" fill="#000748"/>
      </g>
      <path id="Path_5251" data-name="Path 5251" d="M25.332,11.821a3.153,3.153,0,0,1-.808,2.068,2.886,2.886,0,0,1-2.009,1.133.285.285,0,0,1-.291-.285h0a3.24,3.24,0,0,1,.857-2.09,3.3,3.3,0,0,1,1.044-.784,3.41,3.41,0,0,1,.9-.306.266.266,0,0,1,.306.263Zm2.851,11.22a8.022,8.022,0,0,1-.794,1.428,7.262,7.262,0,0,1-1.023,1.237,1.987,1.987,0,0,1-1.315.579A3.3,3.3,0,0,1,23.836,26a3.486,3.486,0,0,0-1.308-.289A3.6,3.6,0,0,0,21.183,26a3.622,3.622,0,0,1-1.162.306,1.87,1.87,0,0,1-1.345-.595,7.606,7.606,0,0,1-1.07-1.281,8.854,8.854,0,0,1-1.132-2.248A8.233,8.233,0,0,1,16,19.5a4.894,4.894,0,0,1,.643-2.56,3.772,3.772,0,0,1,1.346-1.361,3.62,3.62,0,0,1,1.82-.513,4.28,4.28,0,0,1,1.407.328,4.527,4.527,0,0,0,1.116.328,6.666,6.666,0,0,0,1.238-.387,4.094,4.094,0,0,1,1.682-.3,3.872,3.872,0,0,1,2.13.765A.782.782,0,0,1,27.4,16.98,3.015,3.015,0,0,0,26.4,19.335a3.119,3.119,0,0,0,1.024,2.35,3.449,3.449,0,0,0,.463.371.8.8,0,0,1,.3.98S28.184,23.04,28.184,23.041Z" transform="translate(-9.523 -6.88)" fill="#fff"/>
    </g>
  </g>
</svg>
