<svg xmlns="http://www.w3.org/2000/svg" width="46.136" height="41.768" viewBox="0 0 46.136 41.768">
  <g id="Group_1069" data-name="Group 1069" transform="translate(-416.5 -1132)">
    <g id="Group_1063" data-name="Group 1063" transform="translate(0 103)">
      <g id="Group_1052" data-name="Group 1052" transform="translate(1319.5 -477.018)">
        <g id="Group_1049" data-name="Group 1049" transform="translate(-903 1506.018)">
          <path id="Path_4751" data-name="Path 4751" d="M405.681,371.928a1.636,1.636,0,1,1,1.636-1.636A1.638,1.638,0,0,1,405.681,371.928Zm0-2.127a.491.491,0,1,0,.491.491A.492.492,0,0,0,405.681,369.8Z" transform="translate(-364.275 -340.034)" fill="#fee671"/>
          <path id="Path_4752" data-name="Path 4752" d="M68.751,156.072a.572.572,0,0,1-.572-.572.688.688,0,0,0-.687-.687.572.572,0,1,1,0-1.145.688.688,0,0,0,.687-.687.572.572,0,1,1,1.145,0,.688.688,0,0,0,.687.687.572.572,0,1,1,0,1.145.688.688,0,0,0-.687.687A.572.572,0,0,1,68.751,156.072Z" transform="translate(-65.741 -148.541)" fill="#7e59d1"/>
          <path id="Path_4753" data-name="Path 4753" d="M418.484,414.156a.572.572,0,0,1-.572-.572.688.688,0,0,0-.687-.687.572.572,0,1,1,0-1.145.688.688,0,0,0,.687-.687.572.572,0,0,1,1.145,0,.688.688,0,0,0,.687.687.572.572,0,1,1,0,1.145.687.687,0,0,0-.687.687A.572.572,0,0,1,418.484,414.156Z" transform="translate(-375.438 -377.081)" fill="#7e59d1"/>
          <g id="Group_867" data-name="Group 867">
            <path id="Path_4754" data-name="Path 4754" d="M429.484,122.285a.572.572,0,0,1-.572-.572.688.688,0,0,0-.687-.687.572.572,0,1,1,0-1.145.688.688,0,0,0,.687-.687.572.572,0,1,1,1.145,0,.688.688,0,0,0,.687.687.572.572,0,0,1,0,1.145.688.688,0,0,0-.687.687A.572.572,0,0,1,429.484,122.285Z" transform="translate(-385.179 -118.622)" fill="#f2b636"/>
            <path id="Path_4755" data-name="Path 4755" d="M58.459,205.369a.572.572,0,0,1-.572-.572.688.688,0,0,0-.687-.687.572.572,0,0,1,0-1.145.688.688,0,0,0,.687-.687.572.572,0,0,1,1.145,0,.688.688,0,0,0,.687.687.572.572,0,1,1,0,1.145.688.688,0,0,0-.687.687A.572.572,0,0,1,58.459,205.369Z" transform="translate(-56.627 -192.195)" fill="#f2b636"/>
          </g>
        </g>
        <g id="svgexport-6_28_" data-name="svgexport-6 (28)" transform="translate(-900.63 1506.018)">
          <path id="Path_5160" data-name="Path 5160" d="M41.768,20.883A20.87,20.87,0,0,1,27.216,40.789a20.466,20.466,0,0,1-3.011.715l-.014,0q-.759.121-1.534.187l-.332.025c-.156.01-.313.019-.471.026q-.483.023-.972.023t-1-.024q-.224-.01-.448-.026c-.112-.008-.222-.015-.333-.025q-.794-.066-1.571-.193c-.247-.04-.494-.083-.737-.132a20.628,20.628,0,0,1-3.079-.862q-.863-.315-1.69-.7-.281-.132-.559-.274-.713-.36-1.394-.774a20.884,20.884,0,1,1,31.69-17.872Zm0,0" transform="translate(0 0.001)" fill="#e1e1e1"/>
        </g>
      </g>
    </g>
    <g id="svgexport-6_36_" data-name="svgexport-6 (36)" transform="translate(424.314 1138.574)">
      <g id="Group_1068" data-name="Group 1068" transform="translate(1 0)">
        <path id="Path_5244" data-name="Path 5244" d="M29.044,359.04l-.538-.269-12.127,6.064a2.525,2.525,0,0,1-2.25,0L2,358.771l-.538.269a.838.838,0,0,0,0,1.5l13.415,6.708a.838.838,0,0,0,.75,0l13.415-6.708a.838.838,0,0,0,0-1.5Z" transform="translate(-1 -338.717)" fill="#000748"/>
        <path id="Path_5245" data-name="Path 5245" d="M29.044,289.04l-.538-.269-12.127,6.064a2.525,2.525,0,0,1-2.25,0L2,288.771l-.538.269a.838.838,0,0,0,0,1.5l13.415,6.708a.838.838,0,0,0,.75,0l13.415-6.708a.838.838,0,0,0,0-1.5Z" transform="translate(-1 -272.629)" fill="#000748"/>
        <path id="Path_5246" data-name="Path 5246" d="M122.187,9.867l1.677,2.9a.838.838,0,0,0,1.145.307l.69-.4a6.341,6.341,0,0,0,1.345.783v.792a.838.838,0,0,0,.838.838h3.354a.838.838,0,0,0,.838-.838v-.792a6.341,6.341,0,0,0,1.345-.783l.69.4a.838.838,0,0,0,1.145-.307l1.677-2.9a.838.838,0,0,0-.307-1.145l-.688-.4a6.2,6.2,0,0,0,0-1.557l.688-.4a.838.838,0,0,0,.307-1.145l-1.677-2.9a.838.838,0,0,0-1.145-.307l-.691.4a6.34,6.34,0,0,0-1.345-.783V.838A.838.838,0,0,0,131.238,0h-3.354a.838.838,0,0,0-.838.838V1.63a6.34,6.34,0,0,0-1.345.783l-.69-.4a.838.838,0,0,0-1.145.307l-1.677,2.9a.838.838,0,0,0,.307,1.145l.688.4a6.2,6.2,0,0,0,0,1.557l-.688.4a.838.838,0,0,0-.307,1.145Zm7.374-4.836a2.515,2.515,0,1,1-2.515,2.515A2.518,2.518,0,0,1,129.561,5.031Z" transform="translate(-115.307 0)" fill="#f2b636"/>
        <path id="Path_5247" data-name="Path 5247" d="M1.463,185.192,14.879,191.9a.838.838,0,0,0,.75,0l13.415-6.708a.838.838,0,0,0,0-1.5l-4.724-2.362a2.51,2.51,0,0,1-.241.569L22.4,184.8a2.523,2.523,0,0,1-2.179,1.258h0a2.515,2.515,0,0,1-.822-.139,2.52,2.52,0,0,1-2.47,2.04H13.577a2.52,2.52,0,0,1-2.47-2.04,2.515,2.515,0,0,1-3-1.119l-1.677-2.9a2.531,2.531,0,0,1-.242-.569l-4.723,2.361a.838.838,0,0,0,0,1.5Z" transform="translate(-1 -171.194)" fill="#7e59d1"/>
      </g>
    </g>
  </g>
</svg>
