<svg xmlns="http://www.w3.org/2000/svg" width="46.136" height="41.768" viewBox="0 0 46.136 41.768">
  <g id="Group_1065" data-name="Group 1065" transform="translate(-716.5 -1030)">
    <g id="Group_1055" data-name="Group 1055" transform="translate(300 1)">
      <g id="Group_1052" data-name="Group 1052" transform="translate(1319.5 -477.018)">
        <g id="Group_1049" data-name="Group 1049" transform="translate(-903 1506.018)">
          <path id="Path_4751" data-name="Path 4751" d="M405.681,371.928a1.636,1.636,0,1,1,1.636-1.636A1.638,1.638,0,0,1,405.681,371.928Zm0-2.127a.491.491,0,1,0,.491.491A.492.492,0,0,0,405.681,369.8Z" transform="translate(-364.275 -340.034)" fill="#fee671"/>
          <path id="Path_4752" data-name="Path 4752" d="M68.751,156.072a.572.572,0,0,1-.572-.572.688.688,0,0,0-.687-.687.572.572,0,1,1,0-1.145.688.688,0,0,0,.687-.687.572.572,0,1,1,1.145,0,.688.688,0,0,0,.687.687.572.572,0,1,1,0,1.145.688.688,0,0,0-.687.687A.572.572,0,0,1,68.751,156.072Z" transform="translate(-65.741 -148.541)" fill="#7e59d1"/>
          <path id="Path_4753" data-name="Path 4753" d="M418.484,414.156a.572.572,0,0,1-.572-.572.688.688,0,0,0-.687-.687.572.572,0,1,1,0-1.145.688.688,0,0,0,.687-.687.572.572,0,0,1,1.145,0,.688.688,0,0,0,.687.687.572.572,0,1,1,0,1.145.687.687,0,0,0-.687.687A.572.572,0,0,1,418.484,414.156Z" transform="translate(-375.438 -377.081)" fill="#7e59d1"/>
          <g id="Group_867" data-name="Group 867">
            <path id="Path_4754" data-name="Path 4754" d="M429.484,122.285a.572.572,0,0,1-.572-.572.688.688,0,0,0-.687-.687.572.572,0,1,1,0-1.145.688.688,0,0,0,.687-.687.572.572,0,1,1,1.145,0,.688.688,0,0,0,.687.687.572.572,0,0,1,0,1.145.688.688,0,0,0-.687.687A.572.572,0,0,1,429.484,122.285Z" transform="translate(-385.179 -118.622)" fill="#f2b636"/>
            <path id="Path_4755" data-name="Path 4755" d="M58.459,205.369a.572.572,0,0,1-.572-.572.688.688,0,0,0-.687-.687.572.572,0,0,1,0-1.145.688.688,0,0,0,.687-.687.572.572,0,0,1,1.145,0,.688.688,0,0,0,.687.687.572.572,0,1,1,0,1.145.688.688,0,0,0-.687.687A.572.572,0,0,1,58.459,205.369Z" transform="translate(-56.627 -192.195)" fill="#f2b636"/>
          </g>
        </g>
        <g id="svgexport-6_28_" data-name="svgexport-6 (28)" transform="translate(-900.63 1506.018)">
          <path id="Path_5160" data-name="Path 5160" d="M41.768,20.883A20.87,20.87,0,0,1,27.216,40.789a20.466,20.466,0,0,1-3.011.715l-.014,0q-.759.121-1.534.187l-.332.025c-.156.01-.313.019-.471.026q-.483.023-.972.023t-1-.024q-.224-.01-.448-.026c-.112-.008-.222-.015-.333-.025q-.794-.066-1.571-.193c-.247-.04-.494-.083-.737-.132a20.628,20.628,0,0,1-3.079-.862q-.863-.315-1.69-.7-.281-.132-.559-.274-.713-.36-1.394-.774a20.884,20.884,0,1,1,31.69-17.872Zm0,0" transform="translate(0 0.001)" fill="#e1e1e1"/>
        </g>
      </g>
    </g>
    <g id="svgexport-6_31_" data-name="svgexport-6 (31)" transform="translate(702.526 1036.161)">
      <path id="Path_4817" data-name="Path 4817" d="M232.526,319.559l-1.231,1.231a.87.87,0,0,1-1.231-1.231l1.231-1.231a.871.871,0,0,0,0-1.23l-1.131-1.131a.87.87,0,0,1,1.231-1.231l1.131,1.131A2.613,2.613,0,0,1,232.526,319.559Z" transform="translate(-194.243 -296.767)" fill="#2a2a2a"/>
      <path id="Path_4818" data-name="Path 4818" d="M166.486,358.632h0a1.74,1.74,0,0,1-2.461,0l-6.153-6.153,2.461-2.461,6.153,6.153A1.74,1.74,0,0,1,166.486,358.632Z" transform="translate(-126.357 -330.303)" fill="#000748"/>
      <path id="Path_4819" data-name="Path 4819" d="M31.466,261.753l3.815,3.815-.074,2.387L30.9,272.262a2.637,2.637,0,0,1-3.716-.025l-2.461-2.461a2.588,2.588,0,0,1,.025-3.667l4.307-4.307Z" transform="translate(0 -247.01)" fill="#7e59d1" opacity="0.89"/>
      <path id="Path_4820" data-name="Path 4820" d="M66.941,295.4l1.92,1.92-.074,2.387-4.307,4.307a2.637,2.637,0,0,1-3.716-.025l-1.206-1.206Z" transform="translate(-33.581 -278.762)" fill="#7e59d1"/>
      <g id="Group_983" data-name="Group 983" transform="translate(41.409 0)">
        <path id="Path_4821" data-name="Path 4821" d="M334.409,3.481a.87.87,0,0,1-.87-.87V.87a.87.87,0,1,1,1.74,0V2.611A.87.87,0,0,1,334.409,3.481Z" transform="translate(-333.538 0)" fill="#f2b636"/>
        <path id="Path_4822" data-name="Path 4822" d="M428.841,125.329H427.1a.87.87,0,0,1,0-1.74h1.741a.87.87,0,0,1,0,1.74Z" transform="translate(-421.009 -116.627)" fill="#f2b636"/>
        <path id="Path_4823" data-name="Path 4823" d="M396.94,28.9a.862.862,0,0,1,0,1.231l-1.846,1.846a.87.87,0,0,1-1.23-1.231L395.71,28.9A.862.862,0,0,1,396.94,28.9Z" transform="translate(-390.222 -27.028)" fill="#f2b636"/>
      </g>
      <path id="Path_4824" data-name="Path 4824" d="M122.79,49.1l8.614,8.614c.246.246.554,2.843.874,2.892l-2.424.5a18.869,18.869,0,0,0-9.315,5.008l-.209.209-6.153-6.153.209-.209a18.286,18.286,0,0,0,4.971-9.352l.5-2.523Z" transform="translate(-85.122 -45.378)" fill="#f3f3f4" opacity="0.99"/>
      <path id="Path_4825" data-name="Path 4825" d="M101.384,334.765a.862.862,0,0,1,0,1.231l-1.231,1.231A.87.87,0,1,1,98.923,336l1.231-1.23A.862.862,0,0,1,101.384,334.765Z" transform="translate(-70.484 -315.665)" fill="#e1e4fb"/>
      <path id="Path_4826" data-name="Path 4826" d="M178.64,142.467l4.307,4.307c.246.246.554,2.843.874,2.892l-2.424.5a18.87,18.87,0,0,0-9.315,5.008l-.209.209-3.076-3.076Z" transform="translate(-136.666 -134.443)" fill="#f3f3f4"/>
      <path id="Path_4827" data-name="Path 4827" d="M105.714,339.094a.862.862,0,0,1,0,1.231l-1.231,1.231a.862.862,0,0,1-1.231,0Z" transform="translate(-74.814 -319.994)" fill="#c5c9f7"/>
      <path id="Path_4828" data-name="Path 4828" d="M217.79,13.8l11.075,11.075a1.745,1.745,0,0,1,0,2.461,1.016,1.016,0,0,1-.271.172,1.626,1.626,0,0,1-1.317.258,1.55,1.55,0,0,1-.874-.431L215.329,16.264a1.786,1.786,0,0,1-.258-2.08,2.073,2.073,0,0,1,.258-.381A1.746,1.746,0,0,1,217.79,13.8Z" transform="translate(-180.122 -12.546)" fill="#7e59d1" opacity="0.89"/>
      <path id="Path_4829" data-name="Path 4829" d="M324.187,120.62l5.538,5.538a1.745,1.745,0,0,1,0,2.461,1.016,1.016,0,0,1-.271.172,1.626,1.626,0,0,1-1.317.258,1.55,1.55,0,0,1-.874-.431l-5.538-5.537Z" transform="translate(-280.982 -113.826)" fill="#7e59d1"/>
    </g>
  </g>
</svg>
