<svg xmlns="http://www.w3.org/2000/svg" xmlns:xlink="http://www.w3.org/1999/xlink" width="15" height="15" viewBox="0 0 15 15">
  <defs>
    <clipPath id="clip-path">
      <rect id="Rectangle_27268" data-name="Rectangle 27268" width="15" height="15" transform="translate(131 1542)" fill="#6a6f73" stroke="#707070" stroke-width="1"/>
    </clipPath>
  </defs>
  <g id="Mask_Group_441" data-name="Mask Group 441" transform="translate(-131 -1542)" clip-path="url(#clip-path)">
    <g id="svgexport-6_76_" data-name="svgexport-6 (76)" transform="translate(131 1542)">
      <g id="Live_1_">
        <path id="Path_10599" data-name="Path 10599" d="M13.682,7.09H1.318A1.32,1.32,0,0,0,0,8.408v5.273A1.32,1.32,0,0,0,1.318,15H13.682A1.32,1.32,0,0,0,15,13.682V8.408A1.32,1.32,0,0,0,13.682,7.09Zm-9.7,6.152H2.227a.439.439,0,0,1-.439-.439V9.287a.439.439,0,1,1,.879,0v3.076H3.984a.439.439,0,0,1,0,.879Zm2.2-.439a.439.439,0,1,1-.879,0V9.287a.439.439,0,1,1,.879,0Zm3.5-3.409-.879,3.516a.439.439,0,0,1-.852,0L7.074,9.394a.439.439,0,0,1,.852-.213l.453,1.81.453-1.81a.439.439,0,0,1,.852.213Zm3.089,1.212a.439.439,0,1,1,0,.879H11.455v.879h1.318a.439.439,0,0,1,0,.879H11.016a.439.439,0,0,1-.439-.439V9.287a.439.439,0,0,1,.439-.439h1.758a.439.439,0,0,1,0,.879H11.455v.879Z" fill="#6a6f73"/>
        <g id="Group_10178" data-name="Group 10178">
          <path id="Path_10600" data-name="Path 10600" d="M3.632,5.977a4.855,4.855,0,0,1,0-5.8.44.44,0,0,1,.7.528,3.971,3.971,0,0,0,0,4.746.44.44,0,1,1-.7.528Z" fill="#6a6f73"/>
        </g>
        <g id="Group_10179" data-name="Group 10179">
          <path id="Path_10601" data-name="Path 10601" d="M10.752,6.064a.44.44,0,0,1-.088-.615,3.971,3.971,0,0,0,0-4.746.44.44,0,1,1,.7-.528,4.855,4.855,0,0,1,0,5.8.44.44,0,0,1-.615.088Z" fill="#6a6f73"/>
        </g>
        <g id="Group_10180" data-name="Group 10180">
          <path id="Path_10602" data-name="Path 10602" d="M5.207,5.127a3.071,3.071,0,0,1,0-4.1.439.439,0,1,1,.655.586,2.193,2.193,0,0,0,0,2.929.439.439,0,0,1-.655.586Z" fill="#6a6f73"/>
        </g>
        <g id="Group_10181" data-name="Group 10181">
          <path id="Path_10603" data-name="Path 10603" d="M9.172,5.161a.44.44,0,0,1-.034-.621,2.193,2.193,0,0,0,0-2.929.439.439,0,0,1,.655-.586,3.071,3.071,0,0,1,0,4.1.44.44,0,0,1-.621.034Z" fill="#6a6f73"/>
        </g>
        <g id="Group_10182" data-name="Group 10182">
          <path id="Path_10604" data-name="Path 10604" d="M7.5,4.395A1.318,1.318,0,1,1,8.818,3.076,1.32,1.32,0,0,1,7.5,4.395Z" fill="#6a6f73"/>
        </g>
      </g>
    </g>
  </g>
</svg>
