<svg xmlns="http://www.w3.org/2000/svg" width="46.136" height="41.768" viewBox="0 0 46.136 41.768">
  <g id="Group_1054" data-name="Group 1054" transform="translate(-416.5 -1029)">
    <g id="Group_1052" data-name="Group 1052" transform="translate(1319.5 -477.018)">
      <g id="Group_1049" data-name="Group 1049" transform="translate(-903 1506.018)">
        <path id="Path_4751" data-name="Path 4751" d="M405.681,371.928a1.636,1.636,0,1,1,1.636-1.636A1.638,1.638,0,0,1,405.681,371.928Zm0-2.127a.491.491,0,1,0,.491.491A.492.492,0,0,0,405.681,369.8Z" transform="translate(-364.275 -340.034)" fill="#fee671"/>
        <path id="Path_4752" data-name="Path 4752" d="M68.751,156.072a.572.572,0,0,1-.572-.572.688.688,0,0,0-.687-.687.572.572,0,1,1,0-1.145.688.688,0,0,0,.687-.687.572.572,0,1,1,1.145,0,.688.688,0,0,0,.687.687.572.572,0,1,1,0,1.145.688.688,0,0,0-.687.687A.572.572,0,0,1,68.751,156.072Z" transform="translate(-65.741 -148.541)" fill="#7e59d1"/>
        <path id="Path_4753" data-name="Path 4753" d="M418.484,414.156a.572.572,0,0,1-.572-.572.688.688,0,0,0-.687-.687.572.572,0,1,1,0-1.145.688.688,0,0,0,.687-.687.572.572,0,0,1,1.145,0,.688.688,0,0,0,.687.687.572.572,0,1,1,0,1.145.687.687,0,0,0-.687.687A.572.572,0,0,1,418.484,414.156Z" transform="translate(-375.438 -377.081)" fill="#7e59d1"/>
        <g id="Group_867" data-name="Group 867">
          <path id="Path_4754" data-name="Path 4754" d="M429.484,122.285a.572.572,0,0,1-.572-.572.688.688,0,0,0-.687-.687.572.572,0,1,1,0-1.145.688.688,0,0,0,.687-.687.572.572,0,1,1,1.145,0,.688.688,0,0,0,.687.687.572.572,0,0,1,0,1.145.688.688,0,0,0-.687.687A.572.572,0,0,1,429.484,122.285Z" transform="translate(-385.179 -118.622)" fill="#f2b636"/>
          <path id="Path_4755" data-name="Path 4755" d="M58.459,205.369a.572.572,0,0,1-.572-.572.688.688,0,0,0-.687-.687.572.572,0,0,1,0-1.145.688.688,0,0,0,.687-.687.572.572,0,0,1,1.145,0,.688.688,0,0,0,.687.687.572.572,0,1,1,0,1.145.688.688,0,0,0-.687.687A.572.572,0,0,1,58.459,205.369Z" transform="translate(-56.627 -192.195)" fill="#f2b636"/>
        </g>
      </g>
      <g id="svgexport-6_28_" data-name="svgexport-6 (28)" transform="translate(-900.63 1506.018)">
        <path id="Path_5160" data-name="Path 5160" d="M41.768,20.883A20.87,20.87,0,0,1,27.216,40.789a20.466,20.466,0,0,1-3.011.715l-.014,0q-.759.121-1.534.187l-.332.025c-.156.01-.313.019-.471.026q-.483.023-.972.023t-1-.024q-.224-.01-.448-.026c-.112-.008-.222-.015-.333-.025q-.794-.066-1.571-.193c-.247-.04-.494-.083-.737-.132a20.628,20.628,0,0,1-3.079-.862q-.863-.315-1.69-.7-.281-.132-.559-.274-.713-.36-1.394-.774a20.884,20.884,0,1,1,31.69-17.872Zm0,0" transform="translate(0 0.001)" fill="#e1e1e1"/>
      </g>
    </g>
    <g id="svgexport-6_29_" data-name="svgexport-6 (29)" transform="translate(428.948 1020.298)">
      <g id="Group_1053" data-name="Group 1053" transform="translate(0.035 0)">
        <path id="Path_5238" data-name="Path 5238" d="M9.192,276.04,8.056,269.8l-3.227,1.466-3.144,1.428.73,4.028a2.011,2.011,0,0,0-.691,0,2.037,2.037,0,1,0,2.371,1.636l-.884-4.865,1.618-.735,2.2-1,.478,2.65a2.033,2.033,0,1,0,1.68,1.636Z" transform="translate(-0.035 -257.588)" fill="#9bf"/>
        <path id="Path_5239" data-name="Path 5239" d="M108.646,274.4a2.033,2.033,0,1,0,1.68,1.636l-1.136-6.242-3.227,1.466v1.491l2.2-1Z" transform="translate(-101.17 -257.589)" fill="#7e59d1"/>
        <path id="Path_5242" data-name="Path 5242" d="M289.546,274.428l-2.222,4.655a1.982,1.982,0,0,0-1.343-.6,2.037,2.037,0,1,0-.1,4.071c.033,0,.064-.012.1-.014a2.032,2.032,0,0,0,1.744-1.144h0l1.634-3.422.734,2.076,1.279-.452Z" transform="translate(-271.004 -262.008)" fill="#ffd480"/>
        <path id="Path_5243" data-name="Path 5243" d="M332.709,281.393h0l1.634-3.422.734,2.076,1.279-.452-1.826-5.166-2.222,4.655a1.982,1.982,0,0,0-1.343-.6v4.058A2.032,2.032,0,0,0,332.709,281.393Z" transform="translate(-315.988 -262.008)" fill="#f2b636"/>
      </g>
    </g>
    <g id="svgexport-6_30_" data-name="svgexport-6 (30)" transform="translate(423 1035.846)">
      <g id="Group_993" data-name="Group 993" transform="translate(5 9.126)">
        <path id="Path_4817" data-name="Path 4817" d="M38.867,16.25l-.848,5.983H37.66l.848-5.983Z" transform="translate(-25.93 -13.691)" fill="#3f4346"/>
        <g id="Group_985" data-name="Group 985" transform="translate(0 13.208)">
          <path id="Path_4818" data-name="Path 4818" d="M14.52,48.83h.729v4.892H14.52Z" transform="translate(-11.101 -47.778)" fill="#3f4346"/>
          <path id="Path_4819" data-name="Path 4819" d="M13.12,47.97h1.731v1.189H13.12Z" transform="translate(-10.204 -47.227)" fill="#5f6163"/>
          <path id="Path_4820" data-name="Path 4820" d="M5.237,47.3h7.09a.237.237,0,0,0,.237-.237v0A1.163,1.163,0,0,0,11.4,45.9H6.164A1.163,1.163,0,0,0,5,47.064v0A.239.239,0,0,0,5.237,47.3Z" transform="translate(-5 -45.9)" fill="#f2b636"/>
          <path id="Path_4821" data-name="Path 4821" d="M5.011,48.83c0,.04-.011.075-.011.111v0a.237.237,0,0,0,.237.237h7.09a.237.237,0,0,0,.237-.237v0a1.064,1.064,0,0,0-.011-.111Z" transform="translate(-5 -47.778)" fill="#edd9d2"/>
          <g id="Group_983" data-name="Group 983" transform="translate(1.652 6.138)">
            <path id="Path_4822" data-name="Path 4822" d="M10.282,63.327a.345.345,0,0,1-.345.345.339.339,0,0,1-.338-.345.341.341,0,0,1,.682,0Z" transform="translate(-9.6 -62.99)" fill="#3f4346"/>
            <path id="Path_4823" data-name="Path 4823" d="M20.242,63.327a.345.345,0,0,1-.345.345.339.339,0,0,1-.338-.345.341.341,0,0,1,.682,0Z" transform="translate(-15.983 -62.99)" fill="#3f4346"/>
          </g>
          <g id="Group_984" data-name="Group 984" transform="translate(1.728 5.556)">
            <path id="Path_4824" data-name="Path 4824" d="M11.864,61.37l-2.054.312v.4h2.054Z" transform="translate(-9.81 -61.37)" fill="#5f6163"/>
            <path id="Path_4825" data-name="Path 4825" d="M15.53,61.37l2.054.312v.4H15.53Z" transform="translate(-13.476 -61.37)" fill="#5f6163"/>
          </g>
        </g>
        <g id="Group_987" data-name="Group 987" transform="translate(2.083)">
          <path id="Path_4826" data-name="Path 4826" d="M32.31,34.9s1.009.011,1.3.553c.327.618-.463.736-.625.417s-.5-.28-.812-.42Z" transform="translate(-24.495 -25.643)" fill="#fdc5ae"/>
          <path id="Path_4827" data-name="Path 4827" d="M20.284,23.29c.467,1.031.772,3.333.988,3.426l2.97.675-.2.837a16.583,16.583,0,0,1-3.811-.481c-.535-.251-1.034-1.49-1.264-2.593Z" transform="translate(-16.036 -18.203)" fill="#7e59d1"/>
          <path id="Path_4828" data-name="Path 4828" d="M35.212,58.84s.18.37.377.388,1.293-.273,1.279.083c-.011.2-.363.4-1.142.654-.481.154-.812.277-.9.068s-.334-.862-.334-.862Z" transform="translate(-25.982 -40.985)" fill="#f2b636"/>
          <path id="Path_4829" data-name="Path 4829" d="M29.986,47.734,27.4,42.006l.176-1.516a2.892,2.892,0,0,1,1.968,1.171,47.583,47.583,0,0,1,1.365,5.624Z" transform="translate(-21.438 -29.225)" fill="#000748"/>
          <path id="Path_4830" data-name="Path 4830" d="M26.374,60.047s-.136.391-.007.542,1.11.722.844.963c-.151.136-.539.029-1.268-.345-.449-.233-.769-.377-.686-.589s.374-.848.374-.848Z" transform="translate(-20.057 -41.581)" fill="#f2b636"/>
          <path id="Path_4831" data-name="Path 4831" d="M17.19,46.657s1.541-5.836.97-6.863-4.629-.97-5.229-1.343l-2.1.772s-.273,1.613.873,1.914a23.326,23.326,0,0,0,4.471.1L16.116,46.4Z" transform="translate(-10.801 -27.918)" fill="#000748"/>
          <path id="Path_4832" data-name="Path 4832" d="M10.81,27.71V22.4a1.937,1.937,0,0,1,1.48-1.9c.1-.022.208-.043.323-.061a2.859,2.859,0,0,1,1.871.334,1.33,1.33,0,0,1,.664,1.164l0,5.315C13.78,27.121,12.347,28.137,10.81,27.71Z" transform="translate(-10.807 -16.355)" fill="#0874db" opacity="0.97"/>
          <g id="Group_986" data-name="Group 986" transform="translate(0.301 5.331)">
            <path id="Path_4833" data-name="Path 4833" d="M17.785,27.389v.377c-.553-.093-1.1-.19-1.656-.295l-.022,0h0a.437.437,0,0,1-.111-.09.448.448,0,0,1-.04-.065.6.6,0,0,1-.054-.122,1.6,1.6,0,0,1-.079-.219c-.043-.144-.09-.291-.126-.435l-.233-.866c-.072-.291-.144-.575-.233-.858a6.047,6.047,0,0,0-.3-.844,9.28,9.28,0,0,1,.718,1.645l.284.851c.047.136.1.277.147.413.029.068.054.136.083.2a.4.4,0,0,0,.04.079l.011.014a.013.013,0,0,1,.011,0v0C16.744,27.242,17.268,27.314,17.785,27.389Z" transform="translate(-13.748 -23.97)" fill="#3d5f88"/>
            <path id="Path_4834" data-name="Path 4834" d="M15.214,31.944c.151,0,.305,0,.463,0v.384c-.158,0-.312,0-.47-.007a11.666,11.666,0,0,1-1.72-.165,3.226,3.226,0,0,1-.435-.126,1.09,1.09,0,0,1-.384-.277,3.037,3.037,0,0,1-.485-.736,7.073,7.073,0,0,1-.542-1.623,8.616,8.616,0,0,0,.708,1.534,3.451,3.451,0,0,0,.5.65.852.852,0,0,0,.309.2,2.748,2.748,0,0,0,.388.079,13.6,13.6,0,0,0,1.674.093Z" transform="translate(-11.64 -27.443)" fill="#3d5f88"/>
            <path id="Path_4835" data-name="Path 4835" d="M18.511,32.9v0a.013.013,0,0,0-.011,0Z" transform="translate(-16.036 -29.693)" fill="#558cce"/>
          </g>
          <path id="Path_4836" data-name="Path 4836" d="M18.27,31.54l.047,0s-.014,0-.018,0Z" transform="translate(-15.587 -23.49)" fill="#5488c6"/>
          <path id="Path_4837" data-name="Path 4837" d="M18.27,31.62l.04,0a.022.022,0,0,1-.014,0Z" transform="translate(-15.587 -23.541)" fill="#5488c6"/>
          <path id="Path_4838" data-name="Path 4838" d="M15.9,17.28l-.251,1.164s.6,1.253,1.164.873l.05-1.641Z" transform="translate(-13.908 -14.351)" fill="#efb19c"/>
          <path id="Path_4839" data-name="Path 4839" d="M15.192,13.505a1.813,1.813,0,0,0,1.674,1.106c1.178-.079.7-3.222.7-3.222l-1.552.09-1.225.74Z" transform="translate(-13.357 -10.577)" fill="#fdc5ae"/>
          <path id="Path_4840" data-name="Path 4840" d="M14.348,12.665a3.741,3.741,0,0,1,.241-.873.731.731,0,0,1-.18-.74c.158-.417.618,0,.618,0s.435-.057.413-.37.564-.19.891-.19.675-.19.593-.625-.406-.575-.858-.657c-.424-.075-2.252-.348-2.148.776C13.12,10.621,13.339,11.534,14.348,12.665Z" transform="translate(-12.488 -9.126)" fill="#3f4346"/>
          <path id="Path_4841" data-name="Path 4841" d="M25.461,34.887s1.009-.057,1.332.463c.366.6-.413.765-.6.46s-.521-.244-.837-.366Z" transform="translate(-20.131 -25.633)" fill="#fdc5ae"/>
          <path id="Path_4842" data-name="Path 4842" d="M12.822,23.98c.539,1,.995,3.272,1.218,3.351l3.006.47-.144.848a16.526,16.526,0,0,1-3.836-.223c-.553-.215-1.135-1.415-1.437-2.5Z" transform="translate(-11.332 -18.645)" fill="#7e59d1"/>
        </g>
        <path id="Path_4843" data-name="Path 4843" d="M47.878,32.972v.3H36.04v-.3a.4.4,0,0,1,.4-.4H47.479A.406.406,0,0,1,47.878,32.972Z" transform="translate(-24.892 -24.15)" fill="#c47544"/>
        <path id="Path_4844" data-name="Path 4844" d="M47.057,34.52v1.307H34.76a1.569,1.569,0,0,0,.456-1.307Z" transform="translate(-24.072 -25.4)" fill="#aa6139"/>
        <g id="Group_989" data-name="Group 989" transform="translate(10.613 11.491)">
          <path id="Path_4845" data-name="Path 4845" d="M35.42,46.22h.585v6.253H35.42Z" transform="translate(-35.108 -44.388)" fill="#3f4346"/>
          <g id="Group_988" data-name="Group 988">
            <path id="Path_4846" data-name="Path 4846" d="M34.55,41.12h1.21V43.1H34.55Z" transform="translate(-34.55 -41.12)" fill="#edd9d2"/>
            <path id="Path_4847" data-name="Path 4847" d="M34.55,62.89h1.21V63.6H34.55Z" transform="translate(-34.55 -55.071)" fill="#edd9d2"/>
          </g>
        </g>
        <g id="Group_991" data-name="Group 991" transform="translate(21.226 11.491)">
          <path id="Path_4848" data-name="Path 4848" d="M64.96,46.22h.585v6.253H64.96Z" transform="translate(-64.651 -44.388)" fill="#3f4346"/>
          <g id="Group_990" data-name="Group 990">
            <path id="Path_4849" data-name="Path 4849" d="M64.1,41.12h1.21V43.1H64.1Z" transform="translate(-64.1 -41.12)" fill="#edd9d2"/>
            <path id="Path_4850" data-name="Path 4850" d="M64.1,62.89h1.21V63.6H64.1Z" transform="translate(-64.1 -55.071)" fill="#edd9d2"/>
          </g>
        </g>
        <path id="Path_4851" data-name="Path 4851" d="M43.763,38.17v1.437H29.62v-.858a.578.578,0,0,1,.578-.578Z" transform="translate(-20.778 -27.739)" fill="#c47544"/>
        <path id="Path_4852" data-name="Path 4852" d="M40.333,20.012l-1.49-6.17a.357.357,0,0,1,.348-.442h1.95a.169.169,0,0,1,.14.075,3.444,3.444,0,0,0,3.189,1.555l1.965-.169a2.718,2.718,0,1,1,.233,5.427H40.681A.36.36,0,0,1,40.333,20.012Z" transform="translate(-26.681 -11.865)" fill="#aa6139"/>
        <path id="Path_4853" data-name="Path 4853" d="M0,0H.4V3.477H0Z" transform="translate(13.181 3.418) rotate(-13.592)" fill="#3f4346"/>
        <g id="Group_992" data-name="Group 992" transform="translate(13.395 3.678)">
          <path id="Path_4854" data-name="Path 4854" d="M42.933,22.083A.068.068,0,0,1,42.987,22a.066.066,0,1,1,.029.129.022.022,0,0,1-.014,0A.066.066,0,0,1,42.933,22.083Zm-.093-.377a.069.069,0,0,1,.054-.083.071.071,0,0,1,.036.136c-.007,0-.011,0-.022,0A.086.086,0,0,1,42.84,21.706Zm-.09-.374a.07.07,0,0,1,.054-.086.065.065,0,0,1,.083.047.079.079,0,0,1-.054.09h-.014A.073.073,0,0,1,42.75,21.332Zm-.09-.381a.069.069,0,0,1,.054-.083.068.068,0,0,1,.083.054.065.065,0,0,1-.054.083s-.007,0-.014,0A.072.072,0,0,1,42.66,20.951Zm-.09-.374a.063.063,0,0,1,.054-.083.067.067,0,0,1,.083.047.079.079,0,0,1-.054.09h-.014A.069.069,0,0,1,42.57,20.578Zm-.093-.377a.07.07,0,0,1,.136-.029.067.067,0,0,1-.054.083s-.007,0-.014,0A.076.076,0,0,1,42.477,20.2Zm-.09-.374a.068.068,0,0,1,.054-.083.064.064,0,0,1,.083.047.074.074,0,0,1-.047.09h-.014A.075.075,0,0,1,42.387,19.827Zm-.09-.377a.067.067,0,0,1,.054-.083.07.07,0,0,1,.029.136.022.022,0,0,1-.014,0A.073.073,0,0,1,42.3,19.45Z" transform="translate(-42.296 -19.366)" fill="#f9d557"/>
        </g>
      </g>
    </g>
  </g>
</svg>
