<svg xmlns="http://www.w3.org/2000/svg" width="12.555" height="12.062" viewBox="0 0 12.555 12.062">
  <path id="Icon_awesome-star" data-name="Icon awesome-star" d="M6.5.376l-1.383,2.8-3.095.451a.678.678,0,0,0-.375,1.157L3.886,6.971l-.53,3.082a.677.677,0,0,0,.983.714L7.108,9.312l2.769,1.455a.678.678,0,0,0,.983-.714l-.53-3.082,2.239-2.182a.678.678,0,0,0-.375-1.157L9.1,3.181,7.716.376A.678.678,0,0,0,6.5.376Z" transform="translate(-0.831 0.601)" fill="none" stroke="#f2b636" stroke-width="1.2"/>
</svg>
