<svg xmlns="http://www.w3.org/2000/svg" width="14" height="14" viewBox="0 0 14 15"><defs><clipPath id="a"><path data-name="Rectangle 688" fill="#fff" d="M258 293h14v15h-14z"/></clipPath></defs><g data-name="Mask Group 58" transform="translate(-258 -293)" clip-path="url(#a)"><g data-name="svgexport-6 (48)"><g data-name="Group 1380"><g data-name="Group 1379"><g data-name="Group 1368"><path data-name="Path 5393" d="m267.715 303.644-1.451-1.66v-2.019h-2.529v2.02l-1.435 1.659Z" fill="#ffddce"/><path data-name="Path 5394" d="m267.451 303.614-1.3-.4-1.151 1.382-1.989-2.389-2.111.65a2.019 2.019 0 0 0-1.4 1.948v2.137a.7.7 0 0 0 .686.718h.93l.168-.125h.087l.168.125h6.914l.246-.184h.2v-1.825a2.112 2.112 0 0 0-1.448-2.037Z" fill="#2a2a2a"/><path data-name="Path 5395" d="m269.1 302.857-2.11-.65-.983 1.18 1.314.4a2.019 2.019 0 0 1 1.392 1.947v1.737h.167v.184h.931a.7.7 0 0 0 .686-.718v-2.132a2.019 2.019 0 0 0-1.397-1.948Z" fill="#2a2a2a"/><g data-name="Group 1367"><g data-name="Group 1366"><g data-name="Group 1365"><g data-name="Group 1364" fill="#2a2a2a"><path data-name="Path 5396" d="M261.543 307.66v-1.175a.212.212 0 1 0-.423 0v1.175Z"/><path data-name="Path 5397" d="M268.879 307.66v-1.175a.212.212 0 1 0-.423 0v1.175Z"/></g></g></g></g></g><g data-name="Group 1376"><g data-name="Group 1375"><path data-name="Path 5398" d="m261.189 297.329-.217-.245h-.463l-.217.25-.285 1.75a.268.268 0 0 0 .255.317h.956a.268.268 0 0 0 .256-.317Z" fill="#e4f6ff"/><path data-name="Path 5399" d="M260.952 296.903v-2.219a.212.212 0 1 0-.423 0v2.219Z" fill="#2a2a2a"/><g data-name="Group 1372"><g data-name="Group 1371"><g data-name="Group 1370"><g data-name="Group 1369"><path data-name="Path 5400" d="M266.17 294.506h-2.341a1.57 1.57 0 0 0-1.529 1.606v1.548l.254.234h5.146v-1.782a1.57 1.57 0 0 0-1.53-1.606Z" fill="#efc984"/></g></g></g></g><path data-name="Path 5401" d="M266.17 294.506h-.245v3.388h1.544l.231-.234v-1.548a1.57 1.57 0 0 0-1.53-1.606Z" fill="#eabc6b"/><g data-name="Group 1373"><path data-name="Path 5402" d="M265 301.134h.076a2.4 2.4 0 0 0 1.052-1.893v-2.8h-2.908v.734a.475.475 0 0 1-.463.485h-.457v.795a.359.359 0 0 0 .351.367.118.118 0 0 1 .115.114 2.29 2.29 0 0 0 2.234 2.198Z" fill="#ffddce"/></g><path data-name="Path 5403" d="M267.244 297.66a.475.475 0 0 1-.464-.485v-.738h-.855v2.731a2.361 2.361 0 0 1-1.171 1.952 2.163 2.163 0 0 0 .246.014 2.29 2.29 0 0 0 2.239-2.2.118.118 0 0 1 .115-.114.359.359 0 0 0 .346-.365v-.795Z" fill="#ffcbbe"/><path data-name="Path 5404" d="M266.128 295.495v-.547a.481.481 0 0 1-.465-.491v-.983l-.2-.331-.391-.131a.229.229 0 0 0-.145 0l-4.284 1.427a.253.253 0 0 0 .032.486l4.325.775Z" fill="#2a2a2a"/><path data-name="Path 5405" d="m266.128 294.956-.623-.081a3.934 3.934 0 0 0-1.011 0l-2.372.308v1.106a.212.212 0 0 0 .207.217h3.8Z" fill="#2a2a2a"/><g data-name="Group 1374"><path data-name="Path 5406" d="m269.357 294.439-3.891-1.296v1.3a.475.475 0 0 0 .46.485v.6l3.4-.606a.253.253 0 0 0 .032-.486Z" fill="#2a2a2a"/></g><path data-name="Path 5407" d="M265.925 294.93v1.577h1.745a.212.212 0 0 0 .208-.22v-1.1Z" fill="#2a2a2a"/><path data-name="Path 5408" d="M261.189 297.328h-.9v-.616a.232.232 0 0 1 .226-.237h.443a.232.232 0 0 1 .226.237v.616Z" fill="#ffe07d"/></g></g><g data-name="Group 1377" fill="#2a2a2a"><path data-name="Path 5409" d="M266.265 301.245a4.591 4.591 0 0 1-.686 2.42l-.578.931 3.228-2.008Z"/><path data-name="Path 5410" d="M263.737 301.245a4.591 4.591 0 0 0 .686 2.42l.578.931-3.228-2.008Z"/></g><g data-name="Group 1378"><path data-name="Path 5411" d="M266.077 302.547a4.938 4.938 0 0 1-2.155 0 4.536 4.536 0 0 0 .5 1.119l.578.931.579-.931a4.535 4.535 0 0 0 .498-1.119Z" fill="#f4fbff"/></g></g></g></g></g></svg>