<svg xmlns="http://www.w3.org/2000/svg" width="13.59" height="12.701" viewBox="0 0 13.59 12.701">
  <g id="svgexport-6_82_" data-name="svgexport-6 (82)" transform="translate(-1 -2)">
    <g id="Group_5068" data-name="Group 5068" transform="translate(1 2)">
      <path id="Path_9597" data-name="Path 9597" d="M13.108,2h-1.27V3.27a.423.423,0,1,1-.847,0V2H4.218V3.27a.423.423,0,1,1-.847,0V2H2.1A1.166,1.166,0,0,0,1,3.27V4.794H14.548V3.27A1.429,1.429,0,0,0,13.108,2ZM1,5.683v7.748A1.149,1.149,0,0,0,2.143,14.7H13.151a1.429,1.429,0,0,0,1.439-1.27V5.683ZM4.768,12.8H3.752a.334.334,0,0,1-.339-.339V11.4a.334.334,0,0,1,.339-.339H4.81a.334.334,0,0,1,.339.339v1.058a.371.371,0,0,1-.381.339Zm0-3.81H3.752a.334.334,0,0,1-.339-.339V7.588a.334.334,0,0,1,.339-.339H4.81a.334.334,0,0,1,.339.339V8.647a.371.371,0,0,1-.381.339ZM8.155,12.8H7.1a.334.334,0,0,1-.339-.339V11.4A.334.334,0,0,1,7.1,11.06H8.155a.334.334,0,0,1,.339.339v1.058A.312.312,0,0,1,8.155,12.8Zm0-3.81H7.1a.334.334,0,0,1-.339-.339V7.588A.334.334,0,0,1,7.1,7.25H8.155a.334.334,0,0,1,.339.339V8.647A.312.312,0,0,1,8.155,8.986Zm3.387,3.81H10.483a.334.334,0,0,1-.339-.339V11.4a.334.334,0,0,1,.339-.339h1.058a.334.334,0,0,1,.339.339v1.058A.312.312,0,0,1,11.542,12.8Zm0-3.81H10.483a.334.334,0,0,1-.339-.339V7.588a.334.334,0,0,1,.339-.339h1.058a.334.334,0,0,1,.339.339V8.647A.312.312,0,0,1,11.542,8.986Z" transform="translate(-1 -2)" fill="#6a6f73"/>
    </g>
  </g>
</svg>
