<svg xmlns="http://www.w3.org/2000/svg" width="14" height="14" viewBox="0 0 14 14">
  <g id="svgexport-6_13_" data-name="svgexport-6 (13)" transform="translate(0.726 0)">
    <g id="Group_729" data-name="Group 729" transform="translate(0 0)">
      <path id="Path_4674" data-name="Path 4674" d="M12.487,14H1.513A1.513,1.513,0,0,1,0,12.487V1.513A1.513,1.513,0,0,1,1.513,0H12.487A1.513,1.513,0,0,1,14,1.513V12.487A1.513,1.513,0,0,1,12.487,14Z" transform="translate(-0.726 0)" fill="#2a2a2a"/>
      <g id="Group_728" data-name="Group 728" transform="translate(2.233 4.613)">
        <path id="Path_4675" data-name="Path 4675" d="M148.942,196.512l-1.029.535a1.054,1.054,0,0,0-.4-.48.91.91,0,0,0-.446-.137q-1.029,0-1.029,1.358a1.684,1.684,0,0,0,.261.988.879.879,0,0,0,.768.37.962.962,0,0,0,.947-.659l.947.48a2.37,2.37,0,0,1-3.676.576,2.728,2.728,0,0,1,.007-3.5,2.394,2.394,0,0,1,3.656.467Zm4.431,0-1.015.535a1.053,1.053,0,0,0-.4-.48.93.93,0,0,0-.46-.137q-1.029,0-1.029,1.358a1.684,1.684,0,0,0,.261.988.879.879,0,0,0,.768.37.962.962,0,0,0,.947-.659l.96.48a2.358,2.358,0,0,1-.851.885,2.412,2.412,0,0,1-2.833-.309,2.74,2.74,0,0,1,.014-3.5,2.173,2.173,0,0,1,1.612-.645A2.124,2.124,0,0,1,153.373,196.512Z" transform="translate(-144.648 -195.401)" fill="#fff"/>
      </g>
    </g>
  </g>
</svg>
