<svg xmlns="http://www.w3.org/2000/svg" width="18.073" height="18.073" viewBox="0 0 18.073 18.073">
  <path id="Icon_awesome-exclamation-circle" data-name="Icon awesome-exclamation-circle" d="M18.385,9.349A9.036,9.036,0,1,1,9.349.313,9.036,9.036,0,0,1,18.385,9.349ZM9.349,11.171a1.676,1.676,0,1,0,1.676,1.676A1.676,1.676,0,0,0,9.349,11.171ZM7.758,5.146l.27,4.955a.437.437,0,0,0,.437.413h1.769a.437.437,0,0,0,.437-.413l.27-4.955a.437.437,0,0,0-.437-.461H8.194a.437.437,0,0,0-.437.461Z" transform="translate(-0.313 -0.313)" fill="#7e59d1"/>
</svg>
