<svg xmlns="http://www.w3.org/2000/svg" xmlns:xlink="http://www.w3.org/1999/xlink" width="1073.793" height="505.136" viewBox="0 0 1073.793 505.136">
  <defs>
    <filter id="Vector_335" x="0" y="0" width="1073.793" height="505.136" filterUnits="userSpaceOnUse">
      <feOffset dy="24" input="SourceAlpha"/>
      <feGaussianBlur stdDeviation="24" result="blur"/>
      <feFlood flood-color="#3734a9" flood-opacity="0.302"/>
      <feComposite operator="in" in2="blur"/>
      <feComposite in="SourceGraphic"/>
    </filter>
  </defs>
  <g id="AboutUsNodes" data-name="Group 88464" transform="translate(-22.509 -867.071)">
    <g transform="matrix(1, 0, 0, 1, 22.51, 867.07)" filter="url(#Vector_335)">
      <path id="Vector_335-2" data-name="Vector 335" d="M0,277.312c43.587,31.533,145.108,91,202.5,76.581,71.737-18.019,89.444-110.818,200.227-132.441S594.778,275.06,680.59,166.494,808.172-13.247,923.5,2.07" transform="translate(75.49 50.48)" fill="none" stroke="#f2b636" stroke-linecap="round" stroke-linejoin="round" stroke-width="5"/>
    </g>
    <g id="Group_199" data-name="Group 199" transform="translate(-25.5 -360.801)">
      <rect id="Rectangle_105" data-name="Rectangle 105" width="64" height="64" rx="20" transform="translate(248 1590)" fill="#fff"/>
      <rect id="Rectangle_106" data-name="Rectangle 106" width="23" height="23" rx="10" transform="translate(268 1610)" fill="#7e59d1" opacity="0.4"/>
    </g>
    <rect id="Rectangle_105-2" data-name="Rectangle 105" width="64" height="64" rx="20" transform="translate(652.5 1109.604)" fill="#fff"/>
    <rect id="Rectangle_106-2" data-name="Rectangle 106" width="23" height="23" rx="10" transform="translate(672.5 1129.604)" fill="#7e59d1" opacity="0.7"/>
    <rect id="Rectangle_105-3" data-name="Rectangle 105" width="64" height="64" rx="20" transform="translate(960 882.402)" fill="#fff"/>
    <rect id="Rectangle_106-3" data-name="Rectangle 106" width="23" height="23" rx="10" transform="translate(980 902.402)" fill="#7e59d1"/>
  </g>
</svg>
