<svg xmlns="http://www.w3.org/2000/svg" width="22" height="22" viewBox="0 0 22 22">
  <g id="action" transform="translate(-293 -159)">
    <rect id="Rectangle_8983" data-name="Rectangle 8983" width="22" height="22" rx="5" transform="translate(293 159)" fill="#7f8fa4" opacity="0.1"/>
    <g id="action-2" data-name="action" transform="translate(295.5 160.5)">
      <path id="Path_40850" data-name="Path 40850" d="M0,0H15V15H0Z" transform="translate(1 2)" fill="none"/>
      <path id="Path_40851" data-name="Path 40851" d="M15.557,6.057,11.935,2.435A1.5,1.5,0,0,0,10.878,2H5.5A1.5,1.5,0,0,0,4.008,3.5L4,15.5A1.5,1.5,0,0,0,5.492,17H14.5A1.5,1.5,0,0,0,16,15.5V7.123A1.5,1.5,0,0,0,15.557,6.057Zm-6.885,7.41-1.59-1.59a.747.747,0,0,1,0-1.057h0a.747.747,0,0,1,1.058,0L9.2,11.878l2.655-2.655a.747.747,0,0,1,1.058,0h0a.747.747,0,0,1,0,1.057L9.73,13.46A.74.74,0,0,1,8.673,13.468ZM11.5,7.25a.752.752,0,0,1-.75-.75V3.125L14.875,7.25Z" transform="translate(-1.5)" fill="#7f8fa4"/>
    </g>
  </g>
</svg>
