<svg xmlns="http://www.w3.org/2000/svg" width="43.509" height="43.509" viewBox="0 0 43.509 43.509">
  <g id="Group_10284" data-name="Group 10284" transform="translate(-560.029 -423.029)">
    <circle id="Ellipse_2863" data-name="Ellipse 2863" cx="15" cy="15" r="15" transform="translate(597 460) rotate(180)" fill="#fff"/>
    <g id="svgexport-6_34_" data-name="svgexport-6 (34)" transform="translate(603.538 466.538) rotate(180)">
      <g id="Group_10283" data-name="Group 10283" transform="translate(0 0)">
        <g id="Group_10282" data-name="Group 10282">
          <g id="Group_10281" data-name="Group 10281">
            <path id="Path_10603" data-name="Path 10603" d="M0,6.009a1.2,1.2,0,0,0,1.2,1.2H4.807v3.605a1.2,1.2,0,1,0,2.4,0V7.211h3.605a1.2,1.2,0,1,0,0-2.4H7.211V1.2a1.2,1.2,0,1,0-2.4,0V4.807H1.2A1.2,1.2,0,0,0,0,6.009Z" transform="translate(15.745 15.745)" fill="#7e59d1"/>
            <path id="Path_10604" data-name="Path 10604" d="M1.662,2.956l1.554-.644A1.2,1.2,0,1,0,2.3.092L.742.736a1.2,1.2,0,1,0,.92,2.221Z" transform="translate(6.176 16.649) rotate(-45)" fill="#dbdfea"/>
            <path id="Path_10605" data-name="Path 10605" d="M15.383,0a1.2,1.2,0,0,0,0,2.4A12.979,12.979,0,1,1,2.4,15.383a1.2,1.2,0,0,0-2.4,0A15.383,15.383,0,1,0,15.383,0Z" transform="translate(0 21.754) rotate(-45)" fill="#dbdfea"/>
            <path id="Path_10606" data-name="Path 10606" d="M2.052,3.241l1.19-1.19a1.2,1.2,0,0,0-1.7-1.7L.352,1.542a1.2,1.2,0,0,0,1.7,1.7Z" transform="translate(5.032 21.754) rotate(-45)" fill="#dbdfea"/>
            <path id="Path_10607" data-name="Path 10607" d="M.742,3.867a1.2,1.2,0,0,0,1.57-.65l.644-1.554A1.2,1.2,0,0,0,.736.742L.092,2.3A1.2,1.2,0,0,0,.742,3.867Z" transform="translate(6.175 26.859) rotate(-45)" fill="#dbdfea"/>
          </g>
        </g>
      </g>
    </g>
  </g>
</svg>
