<svg xmlns="http://www.w3.org/2000/svg" xmlns="http://www.w3.org/1999/xlink" width="15" height="15" viewBox="0 0 15 15">
  <defs>
    <clipPath id="article-icon">
      <rect id="Rectangle_1365" data-name="Rectangle 1365" width="15" height="15" transform="translate(130 1586)" fill="#6a6f73" stroke="#707070" stroke-width="1"/>
    </clipPath>
  </defs>
  <g id="Mask_Group_292" data-name="Mask Group 292" transform="translate(-130 -1586)" clip-path="url(#article-icon)">
    <g id="svgexport-7_1_" data-name="svgexport-7 (1)" transform="translate(130 1586)">
      <path id="Path_7757" data-name="Path 7757" d="M9.668,4.395A1.027,1.027,0,0,1,8.643,3.369V0H3.4A1.613,1.613,0,0,0,1.787,1.611V13.389A1.613,1.613,0,0,0,3.4,15h8.2a1.613,1.613,0,0,0,1.611-1.611V4.395ZM4.189,10.547H6.32a.439.439,0,0,1,0,.879H4.189a.439.439,0,0,1,0-.879Zm-.439-1.9A.439.439,0,0,1,4.189,8.2h6.445a.439.439,0,0,1,0,.879H4.189A.439.439,0,0,1,3.75,8.643Zm6.885-2.783a.439.439,0,0,1,0,.879H4.189a.439.439,0,0,1,0-.879Z" fill="#6a6f73"/>
      <path id="Path_7758" data-name="Path 7758" d="M9.521,3.369a.147.147,0,0,0,.146.146h3.349a1.607,1.607,0,0,0-.308-.4L9.884.441A1.615,1.615,0,0,0,9.522.182V3.369Z" fill="#6a6f73"/>
    </g>
  </g>
</svg>
