<svg xmlns="http://www.w3.org/2000/svg" xmlns="http://www.w3.org/1999/xlink" width="110" height="65" viewBox="0 0 110 65">
  <defs>
    <clipPath id="article">
      <rect id="Rectangle_33039" data-name="Rectangle 33039" width="32" height="32" transform="translate(589 542)" fill="#7e59d1" stroke="#707070" stroke-width="1"/>
    </clipPath>
  </defs>
  <g id="Group_90136" data-name="Group 90136" transform="translate(-550 -525)">
    <rect id="NoPath_-_Copy_6_" data-name="NoPath - Copy (6)" width="110" height="65" rx="2" transform="translate(550 525)" fill="#f3f7f8"/>
    <g id="Mask_Group_926" data-name="Mask Group 926" clip-path="url(#article)">
      <g id="svgexport-15_16_" data-name="svgexport-15 (16)" transform="translate(589.002 542)">
        <path id="Path_49030" data-name="Path 49030" d="M6,0A2.018,2.018,0,0,0,4,2V30a2.017,2.017,0,0,0,2,2H26a2.017,2.017,0,0,0,2-2V8H21.006A1.017,1.017,0,0,1,20,7V0ZM22,0V6h6a.994.994,0,0,0-.3-.711L22.775.359A.9.9,0,0,0,22,0ZM10,11H22a1,1,0,1,1,0,2H10A1,1,0,0,1,10,11Zm0,5H22a1,1,0,0,1,0,2H10A1,1,0,0,1,10,15.994ZM10,21H22a1,1,0,1,1,0,2H10a1,1,0,0,1,0-2Z" fill="#7e59d1"/>
      </g>
    </g>
  </g>
</svg>
