<svg xmlns="http://www.w3.org/2000/svg" xmlns:xlink="http://www.w3.org/1999/xlink" width="123" height="108" viewBox="0 0 123 108">
  <defs>
    <clipPath id="avalibale-points">
      <rect id="Rectangle_29485" data-name="Rectangle 29485" width="123" height="108" transform="translate(333 237)" fill="#fff" stroke="#707070" stroke-width="1"/>
    </clipPath>
  </defs>
  <g id="Mask_Group_704" data-name="Mask Group 704" transform="translate(-333 -237)" clip-path="url(#avalibale-points)">
    <g id="svgexport-6_-_2022-05-11T140558.369" data-name="svgexport-6 - 2022-05-11T140558.369" transform="translate(338.446 234.946)">
      <g id="Group_14764" data-name="Group 14764">
        <g id="Group_14763" data-name="Group 14763">
          <g id="Group_14680" data-name="Group 14680">
            <g id="Group_14675" data-name="Group 14675">
              <circle id="Ellipse_2830" data-name="Ellipse 2830" cx="10.585" cy="10.585" r="10.585" transform="translate(52.507 42.258) rotate(-80.003)" fill="#f5d66e"/>
            </g>
            <g id="Group_14679" data-name="Group 14679">
              <g id="Group_14676" data-name="Group 14676">
                <path id="Path_12801" data-name="Path 12801" d="M64.184,42.23a8.58,8.58,0,1,1,9.146-7.973A8.589,8.589,0,0,1,64.184,42.23ZM65.33,25.517a8.172,8.172,0,1,0,7.594,8.712A8.181,8.181,0,0,0,65.33,25.517Z" fill="#241726"/>
              </g>
              <g id="Group_14677" data-name="Group 14677">
                <path id="Path_12802" data-name="Path 12802" d="M64.516,37.312a2.54,2.54,0,0,1-2.152-1.378l.361-.188a2.236,2.236,0,0,0,2.384,1.138,1.669,1.669,0,0,0,1.495-1.06c.215-1.13-.852-1.7-2.505-2.437a2.186,2.186,0,0,1-1.326-2.2,1.76,1.76,0,0,1,1.547-1.52,2.851,2.851,0,0,1,2.976,1.654l-.372.166a2.4,2.4,0,0,0-2.53-1.42,1.354,1.354,0,0,0-1.216,1.167,1.775,1.775,0,0,0,1.088,1.778c1.49.665,3.03,1.353,2.739,2.885a2.036,2.036,0,0,1-1.836,1.387A3.053,3.053,0,0,1,64.516,37.312Z" fill="#241726"/>
              </g>
              <g id="Group_14678" data-name="Group 14678">
                <rect id="Rectangle_29482" data-name="Rectangle 29482" width="9.632" height="0.407" transform="translate(64.331 38.279) rotate(-86.078)" fill="#241726"/>
              </g>
            </g>
          </g>
          <g id="Group_14686" data-name="Group 14686">
            <g id="Group_14681" data-name="Group 14681">
              <circle id="Ellipse_2831" data-name="Ellipse 2831" cx="10.585" cy="10.585" r="10.585" transform="translate(36.897 25.322) rotate(-45)" fill="#f5d66e"/>
            </g>
            <g id="Group_14685" data-name="Group 14685">
              <g id="Group_14682" data-name="Group 14682">
                <path id="Path_12803" data-name="Path 12803" d="M53.5,33.744a8.579,8.579,0,1,1,6.786-10.058A8.589,8.589,0,0,1,53.5,33.744ZM50.309,17.3a8.172,8.172,0,1,0,9.58,6.464A8.181,8.181,0,0,0,50.309,17.3Z" fill="#241726"/>
              </g>
              <g id="Group_14683" data-name="Group 14683">
                <path id="Path_12804" data-name="Path 12804" d="M52.558,28.907a2.539,2.539,0,0,1-2.434-.778l.3-.275a2.236,2.236,0,0,0,2.6.486,1.669,1.669,0,0,0,1.171-1.409c-.083-1.148-1.261-1.422-3.048-1.71A2.186,2.186,0,0,1,49.3,23.439a1.76,1.76,0,0,1,1.1-1.866,2.85,2.85,0,0,1,3.3.832l-.317.256a2.4,2.4,0,0,0-2.81-.721,1.355,1.355,0,0,0-.875,1.441A1.775,1.775,0,0,0,51.21,24.82c1.611.259,3.277.528,3.389,2.083a2.036,2.036,0,0,1-1.417,1.813A3.045,3.045,0,0,1,52.558,28.907Z" fill="#241726"/>
              </g>
              <g id="Group_14684" data-name="Group 14684">
                <rect id="Rectangle_29483" data-name="Rectangle 29483" width="0.407" height="9.632" transform="translate(50.795 20.435) rotate(-10.993)" fill="#241726"/>
              </g>
            </g>
          </g>
          <g id="Group_14692" data-name="Group 14692">
            <g id="Group_14687" data-name="Group 14687">
              <circle id="Ellipse_2832" data-name="Ellipse 2832" cx="10.585" cy="10.585" r="10.585" transform="translate(26.294 31.087) rotate(-28.218)" fill="#f5d66e"/>
            </g>
            <g id="Group_14691" data-name="Group 14691">
              <g id="Group_14688" data-name="Group 14688">
                <path id="Path_12805" data-name="Path 12805" d="M43.907,43.338a8.58,8.58,0,1,1,4.65-11.207A8.589,8.589,0,0,1,43.907,43.338Zm-6.4-15.481a8.172,8.172,0,1,0,10.675,4.43A8.181,8.181,0,0,0,37.506,27.857Z" fill="#241726"/>
              </g>
              <g id="Group_14689" data-name="Group 14689">
                <path id="Path_12806" data-name="Path 12806" d="M42.018,38.786a2.54,2.54,0,0,1-2.54-.279l.24-.329a2.236,2.236,0,0,0,2.641-.04,1.668,1.668,0,0,0,.868-1.614c-.31-1.108-1.518-1.143-3.327-1.07a2.186,2.186,0,0,1-2.165-1.38,1.76,1.76,0,0,1,.71-2.049,2.85,2.85,0,0,1,3.4.159l-.259.314a2.4,2.4,0,0,0-2.9-.147,1.355,1.355,0,0,0-.571,1.586,1.775,1.775,0,0,0,1.765,1.11c1.63-.066,3.316-.134,3.736,1.367a2.036,2.036,0,0,1-1.028,2.058A3.075,3.075,0,0,1,42.018,38.786Z" fill="#241726"/>
              </g>
              <g id="Group_14690" data-name="Group 14690">
                <rect id="Rectangle_29484" data-name="Rectangle 29484" width="0.407" height="9.631" transform="translate(38.602 30.835) rotate(-22.464)" fill="#241726"/>
              </g>
            </g>
          </g>
          <g id="Group_14713" data-name="Group 14713">
            <g id="Group_14693" data-name="Group 14693">
              <path id="Path_12807" data-name="Path 12807" d="M29.544,37.179l46.073-.423s-7.2,8.622,2.113,28.32c10.556,22.332-19.443,21.98-19.443,23.248s.557,11.54.557,11.54l11.278,10.017-30.879-.217,10.394-8.909,1.886-12.008s-28.069.107-23.924-17.68C30.949,56.694,39.367,50.949,29.544,37.179Z" fill="#9375d8"/>
            </g>
            <g id="Group_14696" data-name="Group 14696">
              <g id="Group_14694" data-name="Group 14694">
                <path id="Path_12808" data-name="Path 12808" d="M42.526,54.842s-13.72-21.2-26.193-1.96,16.215,17.106,22.273,27.8l3.029-.891a11.829,11.829,0,0,0-9.8-10.513c-19.957-4.1-11.111-20.96-2.138-19.6,5.88.891,10.691,8.375,10.691,8.375Z" fill="#9375d8"/>
              </g>
              <g id="Group_14695" data-name="Group 14695">
                <path id="Path_12809" data-name="Path 12809" d="M64.918,54.842s13.72-21.2,26.193-1.96S74.9,69.988,68.838,80.679l-3.029-.891a11.829,11.829,0,0,1,9.8-10.513c19.957-4.1,11.111-20.96,2.138-19.6-5.88.891-10.691,8.375-10.691,8.375Z" fill="#9375d8"/>
              </g>
            </g>
            <g id="Group_14704" data-name="Group 14704">
              <g id="Group_14697" data-name="Group 14697">
                <path id="Path_12810" data-name="Path 12810" d="M75.009,68.576a.258.258,0,0,1-.057-.007.25.25,0,0,1-.185-.3,2.538,2.538,0,0,0-.339-1.816.249.249,0,0,1,.413-.279,3.026,3.026,0,0,1,.412,2.209A.25.25,0,0,1,75.009,68.576Z" fill="#241726"/>
              </g>
              <g id="Group_14698" data-name="Group 14698">
                <path id="Path_12811" data-name="Path 12811" d="M73.607,70.934a.258.258,0,0,1-.057-.007.25.25,0,0,1-.185-.3,2.539,2.539,0,0,0-.339-1.816.249.249,0,0,1,.413-.279,3.027,3.027,0,0,1,.412,2.209A.25.25,0,0,1,73.607,70.934Z" fill="#241726"/>
              </g>
              <g id="Group_14699" data-name="Group 14699">
                <path id="Path_12812" data-name="Path 12812" d="M76.674,71.77a.258.258,0,0,1-.057-.007.25.25,0,0,1-.185-.3,2.537,2.537,0,0,0-.339-1.815.249.249,0,0,1,.413-.279,3.028,3.028,0,0,1,.412,2.209A.249.249,0,0,1,76.674,71.77Z" fill="#241726"/>
              </g>
              <g id="Group_14700" data-name="Group 14700">
                <path id="Path_12813" data-name="Path 12813" d="M72.009,67.079a.258.258,0,0,1-.057-.007.25.25,0,0,1-.185-.3,2.56,2.56,0,0,0-.34-1.816.249.249,0,0,1,.413-.279,3.027,3.027,0,0,1,.412,2.209A.249.249,0,0,1,72.009,67.079Z" fill="#241726"/>
              </g>
              <g id="Group_14701" data-name="Group 14701">
                <path id="Path_12814" data-name="Path 12814" d="M75.078,74.65a.258.258,0,0,1-.057-.007.249.249,0,0,1-.185-.3,2.561,2.561,0,0,0-.34-1.816.249.249,0,0,1,.413-.279,3.027,3.027,0,0,1,.412,2.209A.25.25,0,0,1,75.078,74.65Z" fill="#241726"/>
              </g>
              <g id="Group_14702" data-name="Group 14702">
                <path id="Path_12815" data-name="Path 12815" d="M74.67,78.623a.249.249,0,0,1-.212-.381,2.561,2.561,0,0,0,.258-1.829.249.249,0,0,1,.48-.132,3.027,3.027,0,0,1-.315,2.225A.248.248,0,0,1,74.67,78.623Z" fill="#241726"/>
              </g>
              <g id="Group_14703" data-name="Group 14703">
                <path id="Path_12816" data-name="Path 12816" d="M72.752,75.745a.249.249,0,0,1-.216-.372,2.539,2.539,0,0,0,.185-1.838.249.249,0,1,1,.474-.152,3.027,3.027,0,0,1-.226,2.236A.248.248,0,0,1,72.752,75.745Z" fill="#241726"/>
              </g>
            </g>
            <g id="Group_14712" data-name="Group 14712">
              <g id="Group_14705" data-name="Group 14705">
                <path id="Path_12817" data-name="Path 12817" d="M39.594,52.171a.246.246,0,0,1-.11-.026.249.249,0,0,1-.112-.334,2.54,2.54,0,0,0,.082-1.845.249.249,0,1,1,.465-.178,3.028,3.028,0,0,1-.1,2.245A.249.249,0,0,1,39.594,52.171Z" fill="#241726"/>
              </g>
              <g id="Group_14706" data-name="Group 14706">
                <path id="Path_12818" data-name="Path 12818" d="M37.693,54.148a.246.246,0,0,1-.11-.026.249.249,0,0,1-.112-.334,2.538,2.538,0,0,0,.082-1.845.249.249,0,0,1,.465-.178,3.026,3.026,0,0,1-.1,2.245A.25.25,0,0,1,37.693,54.148Z" fill="#241726"/>
              </g>
              <g id="Group_14707" data-name="Group 14707">
                <path id="Path_12819" data-name="Path 12819" d="M40.489,55.66a.246.246,0,0,1-.11-.026.249.249,0,0,1-.112-.334,2.537,2.537,0,0,0,.082-1.845.249.249,0,1,1,.465-.178,3.025,3.025,0,0,1-.1,2.245A.249.249,0,0,1,40.489,55.66Z" fill="#241726"/>
              </g>
              <g id="Group_14708" data-name="Group 14708">
                <path id="Path_12820" data-name="Path 12820" d="M37.012,50.031a.246.246,0,0,1-.11-.026.249.249,0,0,1-.112-.334,2.54,2.54,0,0,0,.082-1.845.249.249,0,1,1,.465-.178,3.025,3.025,0,0,1-.1,2.245A.249.249,0,0,1,37.012,50.031Z" fill="#241726"/>
              </g>
              <g id="Group_14709" data-name="Group 14709">
                <path id="Path_12821" data-name="Path 12821" d="M38.28,58.1a.246.246,0,0,1-.11-.026.249.249,0,0,1-.112-.334,2.537,2.537,0,0,0,.082-1.845.249.249,0,1,1,.465-.178,3.025,3.025,0,0,1-.1,2.245A.249.249,0,0,1,38.28,58.1Z" fill="#241726"/>
              </g>
              <g id="Group_14710" data-name="Group 14710">
                <path id="Path_12822" data-name="Path 12822" d="M36.981,61.879a.249.249,0,0,1-.176-.425,2.538,2.538,0,0,0,.667-1.723.249.249,0,0,1,.239-.259.244.244,0,0,1,.259.239,3.027,3.027,0,0,1-.813,2.1A.249.249,0,0,1,36.981,61.879Z" fill="#241726"/>
              </g>
              <g id="Group_14711" data-name="Group 14711">
                <path id="Path_12823" data-name="Path 12823" d="M35.768,58.639a.249.249,0,0,1-.183-.418,2.539,2.539,0,0,0,.6-1.748.249.249,0,0,1,.5-.041,3.028,3.028,0,0,1-.728,2.126A.249.249,0,0,1,35.768,58.639Z" fill="#241726"/>
              </g>
            </g>
          </g>
          <g id="Group_14714" data-name="Group 14714">
            <path id="Path_12824" data-name="Path 12824" d="M7.159,92.412c-.185,0-.361,0-.851-1.953-1.657-.319-1.8-.513-1.85-.578a.331.331,0,0,1-.045-.251c.03-.106.1-.351,1.991-1.113.679-1.771.908-1.771,1.061-1.771a.341.341,0,0,1,.234.12,4.868,4.868,0,0,1,.4,1.265c.053.213.116.471.152.584.1.044.319.123.5.188.972.348,1.223.467,1.268.7a.332.332,0,0,1-.093.271,8.793,8.793,0,0,1-1.631.7c-.8,1.822-.971,1.831-1.122,1.839ZM5.09,89.666c.33.1.937.234,1.467.333a.249.249,0,0,1,.2.185c.135.548.312,1.173.439,1.527.183-.329.463-.917.69-1.436a.25.25,0,0,1,.146-.136c.453-.159.964-.355,1.28-.494-.222-.094-.527-.2-.725-.274-.555-.2-.659-.242-.73-.337a2.748,2.748,0,0,1-.239-.785c-.052-.213-.133-.541-.2-.784a13.67,13.67,0,0,0-.578,1.33.25.25,0,0,1-.141.143A16.185,16.185,0,0,0,5.09,89.666Z" fill="#241726"/>
          </g>
          <g id="Group_14716" data-name="Group 14716">
            <g id="Group_14715" data-name="Group 14715">
              <path id="Path_12825" data-name="Path 12825" d="M7.5,24.885c-.185,0-.36,0-.851-1.953-1.657-.319-1.8-.513-1.85-.578a.33.33,0,0,1-.045-.25c.03-.106.1-.351,1.991-1.113.679-1.771.908-1.771,1.061-1.771a.341.341,0,0,1,.234.12,4.855,4.855,0,0,1,.4,1.265c.052.213.116.471.152.583.1.044.319.123.5.189.972.348,1.222.467,1.267.7a.332.332,0,0,1-.092.271,8.776,8.776,0,0,1-1.631.7c-.8,1.822-.971,1.831-1.122,1.839ZM5.428,22.139c.33.1.937.234,1.467.333a.249.249,0,0,1,.2.185c.135.548.312,1.173.439,1.527.183-.329.463-.917.69-1.436a.25.25,0,0,1,.146-.136c.453-.159.964-.355,1.28-.494-.222-.094-.527-.2-.724-.274-.555-.2-.66-.242-.731-.338a2.737,2.737,0,0,1-.239-.784c-.052-.213-.133-.541-.2-.785a13.646,13.646,0,0,0-.578,1.33.25.25,0,0,1-.141.143A16.048,16.048,0,0,0,5.428,22.139Z" fill="#241726"/>
            </g>
          </g>
          <g id="Group_14717" data-name="Group 14717">
            <path id="Path_12826" data-name="Path 12826" d="M65.507,18.173c-.185,0-.361,0-.851-1.953-1.656-.319-1.8-.513-1.85-.578a.331.331,0,0,1-.045-.251c.03-.106.1-.351,1.991-1.113.679-1.771.908-1.771,1.061-1.771a.341.341,0,0,1,.234.12,4.858,4.858,0,0,1,.4,1.265c.053.213.116.471.152.583.1.044.319.123.5.188.972.349,1.223.467,1.268.7a.331.331,0,0,1-.092.271,8.789,8.789,0,0,1-1.631.7c-.8,1.822-.971,1.831-1.122,1.839Zm-2.069-2.746c.33.1.937.234,1.467.333a.249.249,0,0,1,.2.185c.135.548.312,1.173.439,1.527.183-.329.463-.917.689-1.436a.25.25,0,0,1,.146-.136c.452-.159.964-.355,1.28-.494-.222-.094-.527-.2-.725-.274-.555-.2-.659-.242-.73-.337a2.744,2.744,0,0,1-.239-.784c-.053-.213-.133-.541-.2-.785a13.761,13.761,0,0,0-.578,1.33.25.25,0,0,1-.141.143A16.04,16.04,0,0,0,63.438,15.427Z" fill="#241726"/>
          </g>
          <g id="Group_14718" data-name="Group 14718">
            <path id="Path_12827" data-name="Path 12827" d="M93.407,87.923c-.185,0-.361,0-.851-1.953-1.656-.319-1.8-.513-1.85-.578a.331.331,0,0,1-.045-.251c.03-.106.1-.351,1.991-1.113.679-1.771.908-1.771,1.061-1.771a.341.341,0,0,1,.234.12,4.858,4.858,0,0,1,.4,1.265c.053.213.116.471.152.583.1.044.319.123.5.188.972.349,1.223.467,1.268.7a.331.331,0,0,1-.092.271,8.783,8.783,0,0,1-1.631.7c-.8,1.822-.971,1.831-1.122,1.839Zm-2.069-2.746c.33.1.937.234,1.467.333a.249.249,0,0,1,.2.185c.135.548.312,1.173.439,1.527.183-.329.463-.917.689-1.436a.25.25,0,0,1,.146-.136c.452-.159.964-.355,1.28-.494-.222-.094-.527-.2-.725-.274-.555-.2-.659-.242-.73-.337a2.744,2.744,0,0,1-.239-.784c-.053-.213-.133-.541-.2-.785a13.758,13.758,0,0,0-.578,1.33.25.25,0,0,1-.141.143A16.087,16.087,0,0,0,91.338,85.177Z" fill="#241726"/>
          </g>
          <g id="Group_14723" data-name="Group 14723">
            <g id="Group_14720" data-name="Group 14720">
              <g id="Group_14719" data-name="Group 14719">
                <path id="Path_12828" data-name="Path 12828" d="M3.54,39.184s-.517-3.646,3.009-2.5,2.413,4.5,1.062,3.37,1.125-5.035,3.831-3.334,2.137,5.059.232,5.325,1.117-3.914,3.545-1.375-2.773,7.264-4.935,5.567-.51-4.487.021-2.8-.841,3.356-4.647,3.328-2.131-5.9-.784-4.209-.843,3.636-3.547,1.655S1.646,38.049,3.54,39.184Z" fill="#fff"/>
              </g>
            </g>
            <g id="Group_14722" data-name="Group 14722">
              <g id="Group_14721" data-name="Group 14721">
                <path id="Path_12829" data-name="Path 12829" d="M5.753,47.014h-.1A2.384,2.384,0,0,1,3.2,45.276a4.354,4.354,0,0,1-2.02-.864,2.787,2.787,0,0,1-1.006-3.29,3.265,3.265,0,0,1,2.669-2.379,1.6,1.6,0,0,1,.421.055,3,3,0,0,1,.577-1.97c.572-.658,1.517-.793,2.785-.381a4.809,4.809,0,0,1,1.277.62,2.82,2.82,0,0,1,3.672-.557A3.986,3.986,0,0,1,13.534,39.6a2.626,2.626,0,0,1,1.866.9,2.658,2.658,0,0,1,.411,3.041A5.637,5.637,0,0,1,11.4,46.848a2,2,0,0,1-1.266-.413,3.451,3.451,0,0,1-.455-.426A6.48,6.48,0,0,1,5.753,47.014ZM3.73,45.29a1.862,1.862,0,0,0,1.931,1.226h.093a5.815,5.815,0,0,0,3.623-.906A2.52,2.52,0,0,1,9.162,43.2a.827.827,0,0,1,.688-.536c.177,0,.5.09.693.7a2.3,2.3,0,0,1-.5,2.311,2.975,2.975,0,0,0,.394.37,1.511,1.511,0,0,0,.959.307,5.167,5.167,0,0,0,3.955-3.005,2.191,2.191,0,0,0-.313-2.5,2.15,2.15,0,0,0-1.513-.745,2.267,2.267,0,0,1-1.817,2.194,1.431,1.431,0,0,1-.2.015h0a.606.606,0,0,1-.685-.58c-.031-.687.949-1.852,2.211-2.086a3.491,3.491,0,0,0-1.727-2.71,2.309,2.309,0,0,0-3.018.45,2.337,2.337,0,0,1,.772,2.412,1,1,0,0,1-.907.739h0a1.1,1.1,0,0,1-.7-.288c-.747-.625-.522-1.86.136-2.791a4.33,4.33,0,0,0-1.116-.533c-1.06-.345-1.817-.27-2.254.234a2.917,2.917,0,0,0-.431,1.994.249.249,0,0,1-.375.249,1.092,1.092,0,0,0-.568-.157,2.8,2.8,0,0,0-2.2,2.036,2.341,2.341,0,0,0,.827,2.733,4,4,0,0,0,1.622.747,3.417,3.417,0,0,1,.545-2.349A.937.937,0,0,1,4.362,42a.9.9,0,0,1,.707.4,1.746,1.746,0,0,1,.31,1.883A1.924,1.924,0,0,1,3.73,45.29Zm6.12-2.125c-.043,0-.147.071-.242.261a2.024,2.024,0,0,0,.138,1.831,1.787,1.787,0,0,0,.322-1.745C9.978,43.229,9.878,43.165,9.85,43.165ZM4.362,42.5a.481.481,0,0,0-.33.219A2.949,2.949,0,0,0,3.6,44.8a1.462,1.462,0,0,0,1.326-.729,1.269,1.269,0,0,0-.251-1.356A.477.477,0,0,0,4.362,42.5Zm8.657-2.345a2.277,2.277,0,0,0-1.7,1.551c0,.046,0,.1.188.1.031.017.083,0,.129-.01A1.755,1.755,0,0,0,13.019,40.155ZM7.976,37.769c-.564.8-.664,1.71-.2,2.1a.628.628,0,0,0,.384.171h0c.185,0,.348-.152.437-.406A1.833,1.833,0,0,0,7.976,37.769Z" fill="#241726"/>
              </g>
            </g>
          </g>
          <g id="Group_14726" data-name="Group 14726">
            <g id="Group_14724" data-name="Group 14724">
              <path id="Path_12830" data-name="Path 12830" d="M76.365,19.13s-.517-3.646,3.009-2.5,2.413,4.5,1.062,3.37,1.125-5.035,3.831-3.334,2.137,5.059.232,5.325,1.117-3.914,3.545-1.375-2.773,7.264-4.935,5.567-.51-4.487.021-2.8-.841,3.356-4.647,3.328-2.131-5.9-.784-4.209-.843,3.636-3.547,1.655S74.47,18,76.365,19.13Z" fill="#fff"/>
            </g>
            <g id="Group_14725" data-name="Group 14725">
              <path id="Path_12831" data-name="Path 12831" d="M78.579,26.96h-.1a2.384,2.384,0,0,1-2.456-1.738,4.352,4.352,0,0,1-2.02-.864A2.787,2.787,0,0,1,73,21.068a3.265,3.265,0,0,1,2.669-2.379,1.6,1.6,0,0,1,.421.055,3,3,0,0,1,.577-1.969c.572-.659,1.518-.793,2.785-.381a4.8,4.8,0,0,1,1.277.62,2.82,2.82,0,0,1,3.672-.557,3.985,3.985,0,0,1,1.958,3.091,2.627,2.627,0,0,1,1.866.9,2.657,2.657,0,0,1,.411,3.04,5.637,5.637,0,0,1-4.413,3.307,2,2,0,0,1-1.266-.413,3.449,3.449,0,0,1-.455-.426A6.476,6.476,0,0,1,78.579,26.96Zm-2.025-1.725a1.862,1.862,0,0,0,1.931,1.226h.094a5.812,5.812,0,0,0,3.622-.906,2.52,2.52,0,0,1-.214-2.408.827.827,0,0,1,.687-.536c.177,0,.5.09.693.7a2.3,2.3,0,0,1-.5,2.31,2.962,2.962,0,0,0,.394.37,1.511,1.511,0,0,0,.959.307,5.167,5.167,0,0,0,3.955-3,2.191,2.191,0,0,0-.313-2.5,2.15,2.15,0,0,0-1.513-.745,2.267,2.267,0,0,1-1.817,2.194,1.432,1.432,0,0,1-.2.015h0a.606.606,0,0,1-.685-.58c-.031-.687.949-1.852,2.211-2.086a3.491,3.491,0,0,0-1.727-2.71,2.309,2.309,0,0,0-3.018.45,2.337,2.337,0,0,1,.771,2.412,1,1,0,0,1-.907.739h0a1.1,1.1,0,0,1-.7-.288c-.747-.625-.522-1.86.136-2.791a4.337,4.337,0,0,0-1.116-.534c-1.06-.345-1.817-.27-2.254.234a2.917,2.917,0,0,0-.431,1.994.249.249,0,0,1-.375.249,1.093,1.093,0,0,0-.568-.157,2.8,2.8,0,0,0-2.2,2.036,2.341,2.341,0,0,0,.827,2.733,4.006,4.006,0,0,0,1.622.747,3.418,3.418,0,0,1,.545-2.349.937.937,0,0,1,.72-.406.9.9,0,0,1,.707.4,1.746,1.746,0,0,1,.31,1.883A1.923,1.923,0,0,1,76.554,25.236Zm6.12-2.125c-.043,0-.146.071-.242.261a2.024,2.024,0,0,0,.138,1.831,1.787,1.787,0,0,0,.322-1.745C82.8,23.175,82.7,23.111,82.674,23.111Zm-5.488-.665a.48.48,0,0,0-.33.219,2.948,2.948,0,0,0-.427,2.079,1.462,1.462,0,0,0,1.326-.73,1.268,1.268,0,0,0-.251-1.356A.476.476,0,0,0,77.186,22.446ZM85.844,20.1a2.277,2.277,0,0,0-1.7,1.551c0,.046,0,.1.188.1h0a.93.93,0,0,0,.129-.01A1.756,1.756,0,0,0,85.844,20.1ZM80.8,17.715c-.564.8-.664,1.711-.2,2.1a.628.628,0,0,0,.384.171h0c.184,0,.348-.152.437-.406A1.831,1.831,0,0,0,80.8,17.715Z" fill="#241726"/>
            </g>
          </g>
          <g id="Group_14729" data-name="Group 14729">
            <g id="Group_14727" data-name="Group 14727">
              <path id="Path_12832" data-name="Path 12832" d="M74.784,99.966s-.517-3.646,3.009-2.5,2.413,4.5,1.062,3.37S79.981,95.8,82.687,97.5s2.137,5.059.232,5.325,1.117-3.914,3.545-1.374-2.773,7.264-4.935,5.567-.51-4.487.021-2.8-.841,3.356-4.647,3.328-2.131-5.9-.784-4.209-.843,3.636-3.547,1.655S72.89,98.831,74.784,99.966Z" fill="#fff"/>
            </g>
            <g id="Group_14728" data-name="Group 14728">
              <path id="Path_12833" data-name="Path 12833" d="M77,107.8h-.1a2.384,2.384,0,0,1-2.456-1.738,4.352,4.352,0,0,1-2.02-.864,2.787,2.787,0,0,1-1.006-3.29,3.265,3.265,0,0,1,2.669-2.379,1.6,1.6,0,0,1,.421.055,3,3,0,0,1,.577-1.97c.572-.658,1.518-.793,2.785-.381a4.809,4.809,0,0,1,1.277.62,2.82,2.82,0,0,1,3.672-.557,3.986,3.986,0,0,1,1.958,3.091,2.626,2.626,0,0,1,1.866.9,2.658,2.658,0,0,1,.411,3.041,5.637,5.637,0,0,1-4.413,3.307,2,2,0,0,1-1.266-.413,3.465,3.465,0,0,1-.455-.426A6.482,6.482,0,0,1,77,107.8Zm-2.024-1.725A1.862,1.862,0,0,0,76.9,107.3H77a5.815,5.815,0,0,0,3.623-.906,2.52,2.52,0,0,1-.214-2.408.828.828,0,0,1,.688-.536c.177,0,.5.09.693.7a2.3,2.3,0,0,1-.5,2.31,2.976,2.976,0,0,0,.394.37,1.511,1.511,0,0,0,.959.307,5.167,5.167,0,0,0,3.955-3.005,2.191,2.191,0,0,0-.313-2.5,2.15,2.15,0,0,0-1.513-.745,2.267,2.267,0,0,1-1.817,2.194,1.432,1.432,0,0,1-.2.015h0a.606.606,0,0,1-.685-.58c-.031-.687.949-1.852,2.211-2.086a3.49,3.49,0,0,0-1.727-2.71,2.309,2.309,0,0,0-3.018.45,2.337,2.337,0,0,1,.772,2.412,1,1,0,0,1-.907.739h0a1.1,1.1,0,0,1-.7-.288c-.747-.625-.522-1.86.136-2.791a4.33,4.33,0,0,0-1.116-.533c-1.061-.346-1.817-.27-2.254.233a2.918,2.918,0,0,0-.431,1.994.249.249,0,0,1-.375.249,1.092,1.092,0,0,0-.568-.157,2.8,2.8,0,0,0-2.2,2.036,2.341,2.341,0,0,0,.827,2.733,4,4,0,0,0,1.622.747,3.417,3.417,0,0,1,.545-2.349.937.937,0,0,1,.72-.406.9.9,0,0,1,.707.4,1.747,1.747,0,0,1,.31,1.883A1.924,1.924,0,0,1,74.973,106.071Zm6.12-2.125c-.043,0-.147.071-.242.261a2.024,2.024,0,0,0,.138,1.831,1.787,1.787,0,0,0,.322-1.745C81.223,104.01,81.122,103.946,81.094,103.946Zm-5.488-.665a.48.48,0,0,0-.33.219,2.949,2.949,0,0,0-.428,2.079,1.462,1.462,0,0,0,1.326-.729,1.269,1.269,0,0,0-.251-1.356A.478.478,0,0,0,75.606,103.281Zm8.657-2.345a2.277,2.277,0,0,0-1.7,1.551c0,.046,0,.1.188.1h0a.929.929,0,0,0,.129-.01A1.754,1.754,0,0,0,84.263,100.936ZM79.22,98.55c-.564.8-.664,1.71-.2,2.1a.628.628,0,0,0,.384.171h0c.185,0,.348-.152.437-.406A1.833,1.833,0,0,0,79.22,98.55Z" fill="#241726"/>
            </g>
          </g>
          <g id="Group_14730" data-name="Group 14730">
            <path id="Path_12834" data-name="Path 12834" d="M37.635,18.507h-.008a1.769,1.769,0,1,1,.008,0Zm.005-3.033a1.267,1.267,0,0,0-.011,2.534l.006.249v-.249a1.267,1.267,0,0,0,.005-2.534Z" fill="#241726"/>
          </g>
          <g id="Group_14731" data-name="Group 14731">
            <path id="Path_12835" data-name="Path 12835" d="M24.558,110.054h-.007a1.769,1.769,0,1,1,.007,0Zm.005-3.033a1.267,1.267,0,0,0-.011,2.534l.006.249v-.249a1.267,1.267,0,0,0,.005-2.534Z" fill="#241726"/>
          </g>
          <g id="Group_14732" data-name="Group 14732">
            <path id="Path_12836" data-name="Path 12836" d="M92.314,97.6h-.007a1.769,1.769,0,1,1,.007,0Zm.005-3.033a1.267,1.267,0,0,0-.011,2.534l.006.249V97.1a1.267,1.267,0,0,0,.005-2.534Z" fill="#241726"/>
          </g>
          <g id="Group_14733" data-name="Group 14733">
            <path id="Path_12837" data-name="Path 12837" d="M8.608,96.685,23.222,86.056l7.639,8.636,7.971-5.979,7.639,9.3L63.743,75.76l7.639,12.289L91.975,68.785,86.329,64.8l15.61-4.318V76.424l-5.646-4.982L71.715,98.678,63.743,86.056,46.472,107.978,38.5,95.688l-7.971,9.964L23.555,93.031l-8.968,12.953Z" fill="#ea7e94"/>
          </g>
          <g id="Group_14737" data-name="Group 14737">
            <g id="Group_14734" data-name="Group 14734">
              <path id="Path_12838" data-name="Path 12838" d="M107.667,34.343S96.3,23.578,84.3,31.658c-7.258,4.886-4.714,17.063-3.061,18.684s-1.889,6.013-.468,5.937,5.368-.855,5.368-.855A23.473,23.473,0,0,0,99.5,60.272C107.785,60.687,118.185,45.276,107.667,34.343Z" fill="#668e9d"/>
            </g>
            <g id="Group_14735" data-name="Group 14735">
              <path id="Path_12839" data-name="Path 12839" d="M88.213,42.705s4.648-2.789,5.67-4.276-.372-5.484.558-5.3,3.811,1.023,3.067,4.462c0,0,3.811-.279,4.183.372s2.51,6.414,2.324,7.715S97.137,46.888,95.928,48s-2.882,2.231-3.532,2.045S88.213,42.705,88.213,42.705Z" fill="#f5d66e"/>
            </g>
            <g id="Group_14736" data-name="Group 14736">
              <path id="Path_12840" data-name="Path 12840" d="M90.444,40.753s4.74,7.529,4.834,8.18-3.253,3.439-3.9,2.6a71.671,71.671,0,0,1-4.462-8.83C86.912,42.148,90.165,40.2,90.444,40.753Z" fill="#fdffff"/>
            </g>
          </g>
          <g id="Group_14741" data-name="Group 14741">
            <g id="Group_14740" data-name="Group 14740">
              <g id="Group_14738" data-name="Group 14738">
                <path id="Path_12841" data-name="Path 12841" d="M5.19,57.994s11.368-10.765,23.371-2.685c7.258,4.886,4.714,17.063,3.061,18.684s1.889,6.013.468,5.937-5.368-.855-5.368-.855a23.474,23.474,0,0,1-13.365,4.847C5.072,84.337-5.328,68.927,5.19,57.994Z" fill="#fff"/>
              </g>
              <g id="Group_14739" data-name="Group 14739">
                <path id="Path_12842" data-name="Path 12842" d="M13.028,84.18c-4.209,0-8.909-3.864-11.175-9.188A15.225,15.225,0,0,1,5.011,57.821c.069-.066,6.183-5.768,14.084-5.768A16.985,16.985,0,0,1,28.7,55.1c3.567,2.4,4.635,6.385,4.9,9.3.411,4.475-.8,8.772-1.807,9.765-.812.8-.117,2.537.391,3.808.389.975.646,1.618.4,1.982a.52.52,0,0,1-.461.219c-1.346-.071-4.66-.706-5.336-.838a24.151,24.151,0,0,1-13.42,4.828C13.257,84.177,13.142,84.18,13.028,84.18ZM19.1,52.552c-7.7,0-13.674,5.567-13.733,5.623A14.741,14.741,0,0,0,2.312,74.8c2.249,5.284,6.938,9.087,11.033,8.877a23.4,23.4,0,0,0,13.213-4.786.249.249,0,0,1,.212-.057c.039.008,3.947.777,5.334.851.072.011.079-.006.079-.007a4.538,4.538,0,0,0-.458-1.511c-.559-1.4-1.326-3.32-.277-4.349.785-.77,2.082-4.773,1.66-9.364-.258-2.812-1.281-6.644-4.686-8.936A16.5,16.5,0,0,0,19.1,52.552Z" fill="#241726"/>
              </g>
            </g>
          </g>
          <g id="Group_14751" data-name="Group 14751">
            <g id="Group_14742" data-name="Group 14742">
              <circle id="Ellipse_2833" data-name="Ellipse 2833" cx="9.543" cy="9.543" r="9.543" transform="translate(7.55 57.18)" fill="#9375d8"/>
            </g>
            <g id="Group_14745" data-name="Group 14745">
              <g id="Group_14743" data-name="Group 14743">
                <line id="Line_527" data-name="Line 527" y2="19.086" transform="translate(17.093 57.18)" fill="#fff"/>
              </g>
              <g id="Group_14744" data-name="Group 14744">
                <path id="Path_12843" data-name="Path 12843" d="M17.093,76.515a.249.249,0,0,1-.249-.249V57.18a.249.249,0,0,1,.5,0V76.266A.249.249,0,0,1,17.093,76.515Z" fill="#241726"/>
              </g>
            </g>
            <g id="Group_14746" data-name="Group 14746">
              <path id="Path_12844" data-name="Path 12844" d="M21.123,75.232a.249.249,0,0,1-.22-.366c4.4-8.262-.933-16.971-.988-17.058a.249.249,0,0,1,.422-.265c.056.09,5.547,9.036,1.005,17.557A.25.25,0,0,1,21.123,75.232Z" fill="#241726"/>
            </g>
            <g id="Group_14747" data-name="Group 14747">
              <path id="Path_12845" data-name="Path 12845" d="M15.217,76.33a.248.248,0,0,1-.2-.1c-6.781-8.834-.093-18.9-.025-19a.249.249,0,1,1,.412.28c-.066.1-6.552,9.876.007,18.421a.249.249,0,0,1-.2.4Z" fill="#241726"/>
            </g>
            <g id="Group_14748" data-name="Group 14748">
              <path id="Path_12846" data-name="Path 12846" d="M26.636,66.972H7.55a.249.249,0,0,1,0-.5H26.636a.249.249,0,0,1,0,.5Z" fill="#241726"/>
            </g>
            <g id="Group_14749" data-name="Group 14749">
              <path id="Path_12847" data-name="Path 12847" d="M17.53,63.443a20.1,20.1,0,0,1-8.409-1.915.249.249,0,0,1,.232-.441c.08.042,8.1,4.161,15.475,0a.249.249,0,0,1,.245.434A15.2,15.2,0,0,1,17.53,63.443Z" fill="#241726"/>
            </g>
            <g id="Group_14750" data-name="Group 14750">
              <path id="Path_12848" data-name="Path 12848" d="M9.49,72.739a.249.249,0,0,1-.08-.485c.461-.156,11.345-3.782,15.7-.309a.249.249,0,1,1-.311.389c-4.137-3.3-15.114.355-15.225.392A.243.243,0,0,1,9.49,72.739Z" fill="#241726"/>
            </g>
          </g>
          <g id="Group_14761" data-name="Group 14761">
            <g id="Group_14753" data-name="Group 14753">
              <g id="Group_14752" data-name="Group 14752">
                <path id="Path_12849" data-name="Path 12849" d="M13.843,32.17c-.358,0-1.775.295-1.963.216a.759.759,0,0,1-.416-.45c-.5-1.327,1.33-5.3,3.592-9.965a30.761,30.761,0,0,0,1.7-3.806c-.927-.792-9.893-8.611-9.686-10.1a.422.422,0,0,1,.278-.346c.554-.14,12.985-3.237,16.646-3.237.543,0,1.111.053,1.2.45.312,1.322-3.833,10.294-4.646,12.035,2.943,2.06,11.507,8.248,10.457,9.766C30,28.186,17.46,31.627,13.843,32.17Zm-6.28-24c.1,1.2,8.742,9.05,9.565,9.655.321.236.139.725-1.623,4.361-1.609,3.32-4.042,8.337-3.574,9.571a.257.257,0,0,0,.142.166c.086.036,2.34-.372,2.695-.419,2.859-.379,15-3.856,15.833-5.062.538-.778-5.033-5.378-10.5-9.194a.249.249,0,0,1-.083-.31c1.929-4.11,4.908-10.965,4.7-11.895a2.9,2.9,0,0,0-.72-.07C20.529,4.977,8.575,7.922,7.562,8.174Z" fill="#241726"/>
              </g>
            </g>
            <g id="Group_14755" data-name="Group 14755">
              <g id="Group_14754" data-name="Group 14754">
                <path id="Path_12850" data-name="Path 12850" d="M5.307,6.794S25.1,2.1,25.57,2.75a10.244,10.244,0,0,1,.905,2.512S6.926,9.507,6.073,9.093,5.307,6.794,5.307,6.794Z" fill="#ea7e94"/>
              </g>
            </g>
            <g id="Group_14757" data-name="Group 14757">
              <g id="Group_14756" data-name="Group 14756">
                <path id="Path_12851" data-name="Path 12851" d="M9.908,30.84s21.784-6.41,22.253-5.765S33.437,27.2,33.437,27.2s-21.91,6.354-22.763,5.94S9.908,30.84,9.908,30.84Z" fill="#ea7e94"/>
              </g>
            </g>
            <g id="Group_14758" data-name="Group 14758">
              <path id="Path_12852" data-name="Path 12852" d="M13.432,11.536s8.22-2.407,8-1.708-2.921,7.9-2.921,7.9S12.289,11.863,13.432,11.536Z" fill="#f5d66e"/>
            </g>
            <g id="Group_14759" data-name="Group 14759">
              <path id="Path_12853" data-name="Path 12853" d="M14.134,28.757S28.28,25.518,27.8,24.835s-6.7-3.034-7.337-2.762S14.1,27.908,14.134,28.757Z" fill="#f5d66e"/>
            </g>
            <g id="Group_14760" data-name="Group 14760">
              <path id="Path_12854" data-name="Path 12854" d="M18.154,15.066s3.538,9.969,2.894,10.115l-.644.146s-3.477-10-3.237-10.307S18.154,15.066,18.154,15.066Z" fill="#f5d66e"/>
            </g>
          </g>
          <g id="Group_14762" data-name="Group 14762">
            <path id="Path_12855" data-name="Path 12855" d="M48.244,11.323a.338.338,0,0,1-.3-.188c-.005-.009-.612-1.064-1.308-2.373-2.1.39-3.171.409-3.4-.061a.534.534,0,0,1,.122-.587c.351-.45,1.04-1.287,1.857-2.209-.844-1.877-.806-2.375-.655-2.61a.442.442,0,0,1,.49-.177,22.608,22.608,0,0,1,2.162.675c1.6-1.555,2.209-1.738,2.529-1.738a.571.571,0,0,1,.573.462,7.655,7.655,0,0,1-.135,2.439c2.254.991,2.574,1.457,2.584,1.782a.471.471,0,0,1-.3.442,19.018,19.018,0,0,1-2.907.926C48.8,11.323,48.44,11.323,48.244,11.323ZM47.151,8.662c.482.9.911,1.666,1.11,2.018a14.037,14.037,0,0,0,.757-2.438C48.378,8.4,47.744,8.543,47.151,8.662Zm-3.441-.177a1.49,1.49,0,0,0,.543.065A13.338,13.338,0,0,0,46.4,8.3c-.366-.7-.684-1.337-.949-1.9C44.7,7.247,44.081,8,43.755,8.42A.485.485,0,0,0,43.711,8.485Zm2.1-2.491c.3.637.665,1.379,1.1,2.209.7-.138,1.47-.312,2.24-.506.188-.818.357-1.671.484-2.438-.85-.361-1.684-.675-2.288-.892C46.873,4.834,46.357,5.381,45.808,5.994ZM50.1,5.463c-.112.665-.255,1.387-.412,2.092a17.824,17.824,0,0,0,2.555-.822l.012,0C52.2,6.628,51.865,6.249,50.1,5.463ZM44.976,3.61A5.107,5.107,0,0,0,45.583,5.5c.437-.483.852-.924,1.24-1.316C46.031,3.908,45.334,3.691,44.976,3.61Zm2.764.369c.554.2,1.254.469,1.972.771a6.492,6.492,0,0,0,.127-2.106c-.025-.093-.05-.093-.092-.093C49.588,2.552,49.086,2.7,47.74,3.98Z" fill="#241726"/>
          </g>
        </g>
      </g>
    </g>
  </g>
</svg>
