<svg xmlns="http://www.w3.org/2000/svg" xmlnsxlink="http://www.w3.org/1999/xlink" width="20" height="20" viewBox="0 0 20 20">
  <defs>
    <clipPath id="bill">
      <rect id="Rectangle_481" data-name="Rectangle 481" width="20" height="20" transform="translate(4552 -80)" fill="#fff"/>
    </clipPath>
  </defs>
  <g id="Mask_Group_12" data-name="Mask Group 12" transform="translate(-4552 80)" clip-path="url(#bill)">
    <g id="svgexport-6_11_" data-name="svgexport-6 (11)" transform="translate(4552 -80)">
      <path id="Path_4723" data-name="Path 4723" d="M17.586,15.916a3.107,3.107,0,0,1-.944-1.286,14.879,14.879,0,0,1-.984-5.879c0-.008,0-.015,0-.023a5.675,5.675,0,0,0-3.34-5.147V2.228A2.229,2.229,0,0,0,10.092,0H9.908A2.229,2.229,0,0,0,7.684,2.228V3.582A5.675,5.675,0,0,0,4.343,8.751a14.879,14.879,0,0,1-.984,5.879,3.107,3.107,0,0,1-.944,1.286.57.57,0,0,0-.313.648.6.6,0,0,0,.588.458H6.983a3.017,3.017,0,0,0,6.033,0h4.295a.6.6,0,0,0,.588-.458A.57.57,0,0,0,17.586,15.916ZM8.855,2.228A1.054,1.054,0,0,1,9.908,1.174h.184a1.054,1.054,0,0,1,1.052,1.054V3.2a5.675,5.675,0,0,0-2.289,0V2.228ZM10,18.826a1.849,1.849,0,0,1-1.845-1.8h3.689A1.849,1.849,0,0,1,10,18.826Zm2.359-2.978H4.024a6.142,6.142,0,0,0,.307-.539A14.835,14.835,0,0,0,5.515,8.751a4.485,4.485,0,1,1,8.97,0c0,.007,0,.014,0,.022a14.8,14.8,0,0,0,1.184,6.535,6.146,6.146,0,0,0,.307.539Z" fill="#2a2a2a"/>
    </g>
  </g>
</svg>
