<svg id="Component_19_217" data-name="Component 19 – 217" xmlns="http://www.w3.org/2000/svg" xmlnsxlink="http://www.w3.org/1999/xlink" width="20" height="20" viewBox="0 0 20 20">
  <defs>
    <clipPath id="cart">
      <rect id="Rectangle_480" data-name="Rectangle 480" width="20" height="20" transform="translate(4519 -80)" fill="#fff"/>
    </clipPath>
  </defs>
  <g id="Mask_Group_11" data-name="Mask Group 11" transform="translate(-4519 80)" clip-path="url(#cart)">
    <g id="svgexport-6_10_" data-name="svgexport-6 (10)" transform="translate(4519 -80)">
      <g id="Group_846" data-name="Group 846">
        <path id="Path_4720" data-name="Path 4720" d="M7.07,17.031a1.758,1.758,0,1,0,1.758-1.758A1.76,1.76,0,0,0,7.07,17.031Zm1.758-.586a.586.586,0,1,1-.586.586A.587.587,0,0,1,8.828,16.445Z" fill="#2a2a2a"/>
        <path id="Path_4721" data-name="Path 4721" d="M12.969,17.031a1.758,1.758,0,1,0,1.758-1.758A1.76,1.76,0,0,0,12.969,17.031Zm1.758-.586a.586.586,0,1,1-.586.586A.587.587,0,0,1,14.726,16.445Z" fill="#2a2a2a"/>
        <path id="Path_4722" data-name="Path 4722" d="M19.414,3.555H4.583L4.034,1.636a.586.586,0,0,0-.563-.425H.586a.586.586,0,0,0,0,1.172H3.029l2.829,9.9-.222.444a1.758,1.758,0,0,0,1.572,2.544H17.07a.586.586,0,0,0,0-1.172H7.209a.586.586,0,0,1-.524-.848l.162-.324H17.07a.586.586,0,0,0,.563-.425l2.344-8.2a.586.586,0,0,0-.563-.747Zm-2.786,8.2h-9.7L4.917,4.727h13.72Z" fill="#2a2a2a"/>
      </g>
    </g>
  </g>
</svg>
