<svg xmlns="http://www.w3.org/2000/svg" xmlns:xlink="http://www.w3.org/1999/xlink" width="16" height="16" viewBox="0 0 16 16">
  <defs>
    <clipPath id="certificate">
      <rect id="Rectangle_2646" data-name="Rectangle 2646" width="16" height="16" transform="translate(39 319)" fill="#8391a2" stroke="#8391a2" stroke-width="1"/>
    </clipPath>
  </defs>
  <g id="Mask_Group_335" data-name="Mask Group 335" transform="translate(-39 -319)" clip-path="url(#certificate)">
    <g id="svgexport-6_12_" data-name="svgexport-6 (12)" transform="translate(39.847 319)">
      <g id="Group_3652" data-name="Group 3652" transform="translate(0)">
        <g id="Group_3651" data-name="Group 3651">
          <g id="Group_3650" data-name="Group 3650">
            <path id="Path_8215" data-name="Path 8215" d="M15.088,2.782a.777.777,0,0,0-.778-.712H12.289v-.3h.039a.524.524,0,0,0,.523-.523V.523A.524.524,0,0,0,12.328,0H6.379a.234.234,0,1,0,0,.469h5.949a.055.055,0,0,1,.055.055v.726a.055.055,0,0,1-.055.055H3.566a.055.055,0,0,1-.055-.055V.523A.055.055,0,0,1,3.566.469H5.281a.234.234,0,1,0,0-.469H3.566a.524.524,0,0,0-.523.523v.726a.524.524,0,0,0,.523.523h.039v.3H1.584a.777.777,0,0,0-.778.712A6.841,6.841,0,0,0,1.213,5.5,5.577,5.577,0,0,0,5.26,9.053a4.338,4.338,0,0,0,1.354.725l.118.195a2.425,2.425,0,0,1,.341,1.258,2.507,2.507,0,0,1-.132.807l-.164.483H6.232a1.016,1.016,0,0,0-1.014,1.014v.491H4.365a.437.437,0,0,0-.437.437v1.1A.437.437,0,0,0,4.365,16h7.165a.437.437,0,0,0,.437-.437v-1.1a.437.437,0,0,0-.437-.437h-.853v-.491a1.016,1.016,0,0,0-1.014-1.014H9.117l-.164-.483a2.506,2.506,0,0,1-.132-.807,2.425,2.425,0,0,1,.341-1.258l.118-.195a4.337,4.337,0,0,0,1.354-.725A5.577,5.577,0,0,0,14.681,5.5a6.841,6.841,0,0,0,.407-2.715ZM3.692,6.511a3.98,3.98,0,0,1-1-1.522,5.26,5.26,0,0,1-.31-1.357H3.605V5.646A4.344,4.344,0,0,0,3.692,6.511ZM1.653,5.335a6.321,6.321,0,0,1-.38-2.511.311.311,0,0,1,.311-.285H3.605v.625H2.362a.451.451,0,0,0-.449.493,5.738,5.738,0,0,0,.34,1.5A4.349,4.349,0,0,0,3.934,7.3a4.343,4.343,0,0,0,.593,1.014A5.038,5.038,0,0,1,1.653,5.335Zm9.844,9.16v1.037H4.4V14.495ZM9.662,12.989a.546.546,0,0,1,.546.546v.491H5.686v-.491a.546.546,0,0,1,.546-.546Zm-1.153-.8.113.332H7.272l.113-.332a2.975,2.975,0,0,0,.157-.958,2.924,2.924,0,0,0-.3-1.3,4.348,4.348,0,0,0,1.409,0,2.924,2.924,0,0,0-.3,1.3,2.975,2.975,0,0,0,.157.958Zm-.562-2.67A3.877,3.877,0,0,1,4.074,5.646V1.772H11.82V5.646A3.877,3.877,0,0,1,7.947,9.519Zm6.294-4.184a5.038,5.038,0,0,1-2.874,2.982A4.344,4.344,0,0,0,11.961,7.3a4.288,4.288,0,0,0,1.522-1.772.234.234,0,0,0-.424-.2A3.873,3.873,0,0,1,12.2,6.512a4.344,4.344,0,0,0,.087-.867V3.633h1.223a5.568,5.568,0,0,1-.115.711.234.234,0,0,0,.457.105,6.053,6.053,0,0,0,.127-.792.451.451,0,0,0-.449-.493H12.289V2.539H14.31a.311.311,0,0,1,.311.285,6.323,6.323,0,0,1-.38,2.511Z" transform="translate(-0.794)" fill="#8391a2" stroke="#8391a2" stroke-width="0.3"/>
            <path id="Path_8216" data-name="Path 8216" d="M9.167,4.334l-.672-.1a.09.09,0,0,1-.068-.049l-.3-.609a.559.559,0,0,0-1,0l-.3.609a.09.09,0,0,1-.068.049l-.672.1a.559.559,0,0,0-.31.953l.486.474a.09.09,0,0,1,.026.08l-.115.669a.559.559,0,0,0,.811.589l.6-.316a.09.09,0,0,1,.084,0l.6.316a.559.559,0,0,0,.81-.589L8.965,5.84a.09.09,0,0,1,.026-.08l.486-.474a.559.559,0,0,0-.31-.953Zm-.018.617-.486.474A.559.559,0,0,0,8.5,5.92l.115.669a.09.09,0,0,1-.13.095l-.6-.316a.558.558,0,0,0-.52,0l-.6.316a.09.09,0,0,1-.13-.095L6.75,5.92a.558.558,0,0,0-.161-.494L6.1,4.951a.09.09,0,0,1,.05-.153l.672-.1a.559.559,0,0,0,.421-.306l.3-.609a.09.09,0,0,1,.161,0l.3.609a.558.558,0,0,0,.421.306l.672.1a.09.09,0,0,1,.05.153Z" transform="translate(-0.473 0.218)" fill="#8391a2" stroke="#8391a2" stroke-width="0.3"/>
          </g>
        </g>
      </g>
    </g>
  </g>
</svg>
