<svg xmlns="http://www.w3.org/2000/svg" width="91" height="91" viewBox="0 0 91 91">
  <g id="Group_4827" data-name="Group 4827" transform="translate(-746 -184)">
    <g id="svgexport-6_51_" data-name="svgexport-6 (51)" transform="translate(835.25 185.563)">
      <path id="Check_Mark" d="M38.979,61.729,67.417,33.292A2.843,2.843,0,0,0,63.4,29.271L36.969,55.7,27.6,46.333a2.843,2.843,0,1,0-4.021,4.021L34.958,61.729a2.842,2.842,0,0,0,4.021,0Z" transform="translate(-89 -2)" fill="#2da381"/>
    </g>
    <g id="svgexport-6_51_2" data-name="svgexport-6 (51)" transform="translate(746 184)" opacity="0.65">
      <path id="Check_Mark-2" data-name="Check_Mark" d="M45.5,91A45.5,45.5,0,1,1,91,45.5,45.552,45.552,0,0,1,45.5,91Zm0-85.312A39.813,39.813,0,1,0,85.313,45.5,39.857,39.857,0,0,0,45.5,5.688Z" fill="#2da381"/>
    </g>
  </g>
</svg>
