<svg xmlns="http://www.w3.org/2000/svg" width="18" height="18" viewBox="0 0 18 18" fill="#7e59d1">
  <g id="Group_4827" data-name="Group 4827" transform="translate(-746 -184)">
    <g id="svgexport-6_51_" data-name="svgexport-6 (51)" transform="translate(750.719 189.662)">
      <path id="Check_Mark" d="M25.841,34.778l5.416-5.416a.541.541,0,1,0-.766-.766l-5.033,5.033-1.783-1.783a.541.541,0,1,0-.766.766l2.166,2.166a.541.541,0,0,0,.766,0Z" transform="translate(-22.75 -28.438)" />
    </g>
    <g id="svgexport-6_51_2" data-name="svgexport-6 (51)" transform="translate(746 184)">
      <path id="Check_Mark-2" data-name="Check_Mark" d="M9,18a9,9,0,1,1,9-9A9.01,9.01,0,0,1,9,18ZM9,1.125A7.875,7.875,0,1,0,16.875,9,7.884,7.884,0,0,0,9,1.125Z" />
    </g>
  </g>
</svg>
