<svg xmlns="http://www.w3.org/2000/svg" width="18" height="18" viewBox="0 0 18 18">
  <g id="Group_12368" data-name="Group 12368" transform="translate(-720 -361)">
    <circle id="Ellipse_750" data-name="Ellipse 750" cx="9" cy="9" r="9" transform="translate(720 361)" fill="#6a6f73"/>
    <g id="svgexport-6_47_" data-name="svgexport-6 (47)" transform="translate(726.32 367.321)">
      <g id="Group_1354" data-name="Group 1354" transform="translate(0 0)">
        <g id="Group_1353" data-name="Group 1353" transform="translate(0 0)">
          <path id="Path_5152" data-name="Path 5152" d="M3.27,2.7l2-2a.294.294,0,0,0,0-.414L5.1.1a.294.294,0,0,0-.415,0l-2,2-2-2A.294.294,0,0,0,.261.1L.086.277a.293.293,0,0,0,0,.414l2,2-2,2a.294.294,0,0,0,0,.415l.176.176a.294.294,0,0,0,.414,0l2-2,2,2a.291.291,0,0,0,.207.086h0A.291.291,0,0,0,5.1,5.289l.176-.176a.294.294,0,0,0,0-.415Z" transform="translate(0 -0.016)" fill="#fff" stroke="#fff" stroke-width="0.2"/>
        </g>
      </g>
    </g>
  </g>
</svg>
