<svg id="svgexport-6_47_" data-name="svgexport-6 (47)" xmlns="http://www.w3.org/2000/svg" width="11.173" height="11.172" viewBox="0 0 11.173 11.172">
  <g id="Group_1354" data-name="Group 1354" transform="translate(0 0)">
    <g id="Group_1353" data-name="Group 1353" transform="translate(0 0)">
      <path id="Path_5152" data-name="Path 5152" d="M6.817,5.6l4.177-4.178a.612.612,0,0,0,0-.864L10.629.194a.613.613,0,0,0-.864,0L5.587,4.372,1.409.194a.612.612,0,0,0-.864,0L.179.56a.612.612,0,0,0,0,.864L4.356,5.6.179,9.78a.613.613,0,0,0,0,.864l.366.366a.612.612,0,0,0,.864,0L5.587,6.832,9.764,11.01a.606.606,0,0,0,.432.178h0a.606.606,0,0,0,.432-.178l.366-.366a.613.613,0,0,0,0-.864Z" transform="translate(0 -0.016)" fill="#6a6f73"/>
    </g>
  </g>
</svg>
