<svg xmlns="http://www.w3.org/2000/svg" xmlns:xlink="http://www.w3.org/1999/xlink" width="16" height="16" viewBox="0 0 16 16">
  <defs>
    <clipPath id="coursesSide">
      <rect id="Rectangle_27785" data-name="Rectangle 27785" width="16" height="16" transform="translate(39 201)" fill="#8391a2" stroke="#8391a2" stroke-width="1"/>
    </clipPath>
  </defs>
  <g id="Mask_Group_576" data-name="Mask Group 576" transform="translate(-39 -201)" clip-path="url(#coursesSide)">
    <g id="svgexport-6_22_" data-name="svgexport-6 (22)" transform="translate(38.542 200.542)">
      <g id="Group_11138" data-name="Group 11138">
        <path id="Path_11317" data-name="Path 11317" d="M14.656,1.839H11.342L8.69.513a.52.52,0,0,0-.463,0L5.575,1.839H2.261A1.1,1.1,0,0,0,1.166,2.934v9.328a1.1,1.1,0,0,0,1.095,1.095h4.36V15.8H5.444a.33.33,0,1,0,0,.661h6.028a.33.33,0,1,0,0-.661H10.3V13.357h4.36a1.1,1.1,0,0,0,1.095-1.095V2.934a1.1,1.1,0,0,0-1.095-1.095Zm.434,10.423a.435.435,0,0,1-.434.434H2.261a.434.434,0,0,1-.434-.434v-.456H15.09ZM9.635,15.8H7.282V13.357H9.635ZM2.261,2.5H4.253l-.282.141a.517.517,0,0,0,0,.925l1.119.559V6.291a.8.8,0,0,0,.633.781,13.385,13.385,0,0,0,2.735.284,13.387,13.387,0,0,0,2.735-.284.8.8,0,0,0,.633-.781V4.125l.322-.161V6.092a.33.33,0,1,0,.661,0V3.634l.136-.068a.517.517,0,0,0,0-.925L12.664,2.5h1.992a.435.435,0,0,1,.434.434v8.211H1.827V2.934A.434.434,0,0,1,2.261,2.5Zm10.133.6L8.458,5.071,4.523,3.1,8.458,1.136ZM5.751,4.456,8.227,5.694a.52.52,0,0,0,.463,0l2.476-1.238V6.291a.136.136,0,0,1-.107.134,12.669,12.669,0,0,1-5.2,0,.136.136,0,0,1-.107-.134V4.456Z" fill="#8391a2" stroke="#8391a2" stroke-width="0.2"/>
        <path id="Path_11318" data-name="Path 11318" d="M6.164,8.786h3.3a.33.33,0,1,0,0-.661h-3.3a.33.33,0,1,0,0,.661Z" fill="#8391a2" stroke="#8391a2" stroke-width="0.2"/>
        <path id="Path_11319" data-name="Path 11319" d="M4.016,8.786h.661a.33.33,0,1,0,0-.661H4.016a.33.33,0,1,0,0,.661Z" fill="#8391a2" stroke="#8391a2" stroke-width="0.2"/>
        <path id="Path_11320" data-name="Path 11320" d="M6.164,10.376H12.9a.33.33,0,1,0,0-.661H6.164a.33.33,0,1,0,0,.661Z" fill="#8391a2" stroke="#8391a2" stroke-width="0.2"/>
        <path id="Path_11321" data-name="Path 11321" d="M4.016,10.376h.661a.33.33,0,1,0,0-.661H4.016a.33.33,0,1,0,0,.661Z" fill="#8391a2" stroke="#8391a2" stroke-width="0.2"/>
      </g>
    </g>
  </g>
</svg>
