<svg xmlns="http://www.w3.org/2000/svg" width="87" height="87" viewBox="0 0 87 87">
  <g id="svgexport-6_-_2022-05-26T164506.524" data-name="svgexport-6 - 2022-05-26T164506.524" transform="translate(0 -0.15)">
    <g id="Group_15197" data-name="Group 15197" transform="translate(0 0.15)">
      <g id="Group_15185" data-name="Group 15185">
        <g id="Group_15184" data-name="Group 15184">
          <path id="Path_12233" data-name="Path 12233" d="M43.5,0A43.5,43.5,0,1,0,87,43.5,43.476,43.476,0,0,0,43.5,0Zm0,80.93A37.43,37.43,0,1,1,80.93,43.5,37.473,37.473,0,0,1,43.5,80.93Z" fill="#fa5c7c"/>
        </g>
      </g>
      <path id="Path_12238" data-name="Path 12238" d="M34.118,34.1a2.588,2.588,0,0,1-3.643,0L19.464,23.094,8.469,34.1a2.576,2.576,0,0,1-3.643-3.643L15.837,19.467,4.826,8.472A2.576,2.576,0,0,1,8.469,4.829L19.464,15.823,30.459,4.829A2.576,2.576,0,0,1,34.1,8.472L23.107,19.45,34.1,30.445A2.593,2.593,0,0,1,34.118,34.1Z" transform="translate(23.58 23.577)" fill="#fa5c7c" fill-rule="evenodd"/>
    </g>
  </g>
</svg>
