<svg xmlns="http://www.w3.org/2000/svg" xmlns:xlink="http://www.w3.org/1999/xlink" width="269" height="201" viewBox="0 0 269 201">
  <defs>
    <clipPath id="earn-points">
      <rect id="Rectangle_3125" data-name="Rectangle 3125" width="269" height="201" transform="translate(942.731 221)" fill="#fff" stroke="#707070" stroke-width="1"/>
    </clipPath>
  </defs>
  <g id="Mask_Group_379" data-name="Mask Group 379" transform="translate(-942.731 -221)" clip-path="url(#earn-points)">
    <g id="Awards-cuate" transform="translate(973.464 221)">
      <g id="freepik--background-complete--inject-4" transform="translate(0)">
        <path id="Path_9194" data-name="Path 9194" d="M50.6,217.024l-6.1.125-3.1.056c-1.036,0-2.077,0-3.114.023h-.2v-.2l-.028-5.2v-.237h.232l6.153.028c2.054,0,4.1.051,6.153.074h.13v.125c0,.878-.042,1.757-.06,2.626Zm0,0-.065-2.631c0-.864-.051-1.72-.06-2.57l.125.125c-2.05.023-4.1.074-6.153.074l-6.153.028.232-.228v5.2l-.209-.209c1.013,0,2.026,0,3.044.023l3.058.056Z" transform="translate(-24.295 -84.585)" fill="#ebebeb"/>
        <path id="Path_9195" data-name="Path 9195" d="M40.488,226.689l-6.1.125-3.1.056c-1.036,0-2.077,0-3.114.023h-.2v-.2l-.028-5.2v-.237h.232l6.153.028c2.05,0,4.1.051,6.153.074h.13v.125c0,.878-.037,1.757-.06,2.626Zm0,0-.065-2.631c-.023-.864-.051-1.72-.06-2.57l.125.125c-2.05.023-4.1.074-6.153.074l-6.153.028.232-.228-.023,5.2-.209-.2h3.044l3.058.056Z" transform="translate(-21.052 -87.688)" fill="#ebebeb"/>
        <path id="Path_9196" data-name="Path 9196" d="M201.2,156.753l-6.1.13-3.1.051c-1.032,0-2.073,0-3.109.023h-.2v-5.642h.232l6.153.028c2.05,0,4.1.051,6.153.074h.13v.125c0,.883-.037,1.757-.06,2.626Zm0,0-.065-2.631c-.023-.864-.051-1.72-.06-2.57l.125.125c-2.05.023-4.1.074-6.153.074l-6.153.033.232-.232-.028,5.2-.2-.209c1.013,0,2.026,0,3.044.028l3.053.051Z" transform="translate(-72.627 -65.246)" fill="#ebebeb"/>
        <path id="Path_9197" data-name="Path 9197" d="M191.078,166.409l-6.1.13-3.1.051c-1.032,0-2.073,0-3.109.023h-.209V166.4l-.023-5.2v-.232h.232l6.153.028c2.05,0,4.1.051,6.153.074h.125v.125c0,.883-.037,1.757-.06,2.626Zm0,0-.065-2.631c-.023-.864-.056-1.72-.06-2.57l.125.125c-2.054.023-4.1.074-6.153.074l-6.153.033.232-.232-.028,5.2-.2-.209c1.013,0,2.026,0,3.04.028l3.058.051Z" transform="translate(-69.371 -68.345)" fill="#ebebeb"/>
        <path id="Path_9198" data-name="Path 9198" d="M211.526,166.409l-6.1.13-3.1.051c-1.036,0-2.073,0-3.114.023h-.2V166.4l-.023-5.2v-.232h.232l6.153.028c2.054,0,4.1.051,6.158.074h.112v.125c0,.883-.042,1.757-.06,2.626Zm0,0-.07-2.631c0-.864-.051-1.72-.06-2.57l.13.125c-2.054.023-4.1.074-6.158.074l-6.153.033.232-.232-.023,5.2-.209-.209c1.018,0,2.026,0,3.044.028l3.058.051Z" transform="translate(-75.932 -68.345)" fill="#ebebeb"/>
        <path id="Path_9199" data-name="Path 9199" d="M307.958,226.689l-6.1.125-3.1.056c-1.032,0-2.073,0-3.109.023h-.209v-.2l-.023-5.2v-.237h.232l6.153.028c2.05,0,4.1.051,6.153.074h.126v.125c0,.878-.037,1.757-.06,2.626Zm0,0-.065-2.631c0-.864-.056-1.72-.06-2.57l.125.125c-2.05.023-4.1.074-6.153.074l-6.153.028.232-.228-.028,5.2-.2-.2h3.04l3.058.056Z" transform="translate(-106.873 -87.688)" fill="#ebebeb"/>
        <path id="Path_9200" data-name="Path 9200" d="M297.87,56.424l-6.1.13-3.1.051c-1.032,0-2.073,0-3.109.028h-.191V50.991h.237l6.153.028c2.05,0,4.1.056,6.153.079h.125v.121c0,.883-.042,1.761-.06,2.626Zm0,0L297.8,53.8c-.023-.869-.056-1.724-.065-2.575l.13.125c-2.054,0-4.1.074-6.153.079l-6.153.028.232-.232-.028,5.2-.2-.209c1.013,0,2.022,0,3.04.028l3.058.051Z" transform="translate(-103.65 -33.055)" fill="#ebebeb"/>
        <path id="Path_9201" data-name="Path 9201" d="M307.958,66.08l-6.1.13-3.1.051c-1.032,0-2.073,0-3.109.028h-.209V66.08l-.023-5.2v-.232h.232l6.153.028c2.05,0,4.1.056,6.153.079h.126v.125c0,.883-.037,1.761-.06,2.626Zm0,0-.065-2.626c0-.869-.056-1.724-.06-2.575l.125.125c-2.05,0-4.1.074-6.153.079l-6.153.028.232-.232-.028,5.2-.2-.209c1.013,0,2.026,0,3.04.028l3.058.051Z" transform="translate(-106.873 -36.154)" fill="#ebebeb"/>
        <path id="Path_9202" data-name="Path 9202" d="M50.6,56.421l-6.1.13-3.1.051c-1.036,0-2.077,0-3.114.028h-.2v-.209l-.028-5.205v-.232h.232l6.153.028c2.054,0,4.1.056,6.153.079h.13v.125c0,.883-.042,1.761-.06,2.626Zm0,0L50.531,53.8c0-.869-.051-1.724-.06-2.575l.125.125c-2.05,0-4.1.074-6.153.079l-6.153.028.232-.232v5.2l-.209-.209c1.013,0,2.026,0,3.044.028l3.058.051Z" transform="translate(-24.295 -33.053)" fill="#ebebeb"/>
        <path id="Path_9203" data-name="Path 9203" d="M58,134.071a1.046,1.046,0,1,1-.4-.7A1.05,1.05,0,0,1,58,134.071Z" transform="translate(-30.022 -59.421)" fill="#ebebeb"/>
        <path id="Path_9204" data-name="Path 9204" d="M100.786,50.1a1.06,1.06,0,1,1-.4-.71A1.05,1.05,0,0,1,100.786,50.1Z" transform="translate(-43.75 -32.47)" fill="#ebebeb"/>
        <path id="Path_9205" data-name="Path 9205" d="M143.407,128.658a1.05,1.05,0,1,1-.635-.855A1.05,1.05,0,0,1,143.407,128.658Z" transform="translate(-57.426 -57.675)" fill="#ebebeb"/>
        <path id="Path_9206" data-name="Path 9206" d="M221.185,98.488a.525.525,0,1,1-.2-.357.525.525,0,0,1,.2.357Z" transform="translate(-82.719 -48.145)" fill="#ebebeb"/>
        <path id="Path_9207" data-name="Path 9207" d="M121.941,88.743a.525.525,0,1,1-.2-.357A.525.525,0,0,1,121.941,88.743Z" transform="translate(-50.875 -45.018)" fill="#ebebeb"/>
        <path id="Path_9208" data-name="Path 9208" d="M258.023,48.877a.525.525,0,1,1-.315-.433A.525.525,0,0,1,258.023,48.877Z" transform="translate(-94.538 -32.225)" fill="#ebebeb"/>
        <path id="Path_9209" data-name="Path 9209" d="M195.18,55.283a.525.525,0,1,1-.315-.433A.525.525,0,0,1,195.18,55.283Z" transform="translate(-74.374 -34.28)" fill="#ebebeb"/>
        <path id="Path_9210" data-name="Path 9210" d="M121.168,149.8a.525.525,0,1,1-.2-.355.525.525,0,0,1,.2.355Z" transform="translate(-50.626 -64.61)" fill="#ebebeb"/>
        <path id="Path_9211" data-name="Path 9211" d="M152.244,44.945a.521.521,0,1,1-.2-.358A.525.525,0,0,1,152.244,44.945Z" transform="translate(-60.598 -30.965)" fill="#ebebeb"/>
        <path id="Path_9212" data-name="Path 9212" d="M182.951,184.675a.53.53,0,1,1-.2-.355.525.525,0,0,1,.2.355Z" transform="translate(-70.45 -75.8)" fill="#ebebeb"/>
        <path id="Path_9213" data-name="Path 9213" d="M111.6,91.53a1.05,1.05,0,1,1-.4-.7A1.05,1.05,0,0,1,111.6,91.53Z" transform="translate(-47.221 -45.769)" fill="#ebebeb"/>
        <path id="Path_9214" data-name="Path 9214" d="M141.835,73.671a1.046,1.046,0,1,1-.4-.7A1.05,1.05,0,0,1,141.835,73.671Z" transform="translate(-56.923 -40.04)" fill="#ebebeb"/>
        <path id="Path_9215" data-name="Path 9215" d="M202.755,48.567a1.05,1.05,0,1,1-.4-.7A1.05,1.05,0,0,1,202.755,48.567Z" transform="translate(-76.47 -31.984)" fill="#ebebeb"/>
        <path id="Path_9216" data-name="Path 9216" d="M211.27,84.9l1.487-.493a2.321,2.321,0,0,1-1.013-2.152c0-1.627,1.394-2.268.79-3.718l-1.659.465a3.054,3.054,0,0,1,.074,2.491A2.789,2.789,0,0,0,211.27,84.9Z" transform="translate(-79.63 -41.896)" fill="#ebebeb"/>
        <path id="Path_9217" data-name="Path 9217" d="M144.171,54.612l-1.445-.548a2.333,2.333,0,0,1-.567,2.324c-1.032,1.278-2.51.883-2.97,2.4l1.562.7a3.091,3.091,0,0,1,1.51-2A2.84,2.84,0,0,0,144.171,54.612Z" transform="translate(-56.745 -34.041)" fill="#ebebeb"/>
        <path id="Path_9218" data-name="Path 9218" d="M161.194,128.288l-1.469-.548a2.333,2.333,0,0,1-.567,2.324c-1.032,1.278-2.51.883-2.97,2.4l1.566.7a3.063,3.063,0,0,1,1.51-1.98A2.9,2.9,0,0,0,161.194,128.288Z" transform="translate(-62.199 -57.682)" fill="#ebebeb"/>
        <path id="Path_9219" data-name="Path 9219" d="M118.612,170.512l-1.469-.548a2.333,2.333,0,0,1-.567,2.324c-1.032,1.278-2.51.883-2.974,2.407l1.566.7a3.077,3.077,0,0,1,1.515-1.98A2.9,2.9,0,0,0,118.612,170.512Z" transform="translate(-48.535 -71.23)" fill="#ebebeb"/>
        <path id="Path_9220" data-name="Path 9220" d="M271.147,119.725l-1.464-.553a2.33,2.33,0,0,1-.572,2.324c-1.036,1.278-2.51.883-2.97,2.4l1.566.7a3.077,3.077,0,0,1,1.51-1.985A2.869,2.869,0,0,0,271.147,119.725Z" transform="translate(-97.48 -54.932)" fill="#ebebeb"/>
        <path id="Path_9221" data-name="Path 9221" d="M99,73.727l.214-1.552a2.336,2.336,0,0,1-2.375-.046c-1.445-.72-1.394-2.254-3-2.366L93.5,71.445a3.077,3.077,0,0,1,2.268,1.036A2.855,2.855,0,0,0,99,73.727Z" transform="translate(-42.085 -39.079)" fill="#ebebeb"/>
        <path id="Path_9222" data-name="Path 9222" d="M192.172,120.474l.214-1.552a2.323,2.323,0,0,1-2.375-.046c-1.445-.725-1.394-2.249-3-2.366l-.339,1.682a3.072,3.072,0,0,1,2.268,1.036A2.837,2.837,0,0,0,192.172,120.474Z" transform="translate(-71.98 -54.078)" fill="#ebebeb"/>
        <path id="Path_9223" data-name="Path 9223" d="M179.765,193.788l.214-1.552a2.336,2.336,0,0,1-2.375-.046c-1.445-.72-1.418-2.254-3-2.366l-.339,1.682a3.072,3.072,0,0,1,2.268,1.036A2.837,2.837,0,0,0,179.765,193.788Z" transform="translate(-67.998 -77.602)" fill="#ebebeb"/>
        <path id="Path_9224" data-name="Path 9224" d="M260.832,73.727l.214-1.552a2.343,2.343,0,0,1-2.38-.046c-1.45-.72-1.394-2.254-3-2.366l-.335,1.682a3.077,3.077,0,0,1,2.268,1.036A2.852,2.852,0,0,0,260.832,73.727Z" transform="translate(-94.01 -39.079)" fill="#ebebeb"/>
        <path id="Path_9225" data-name="Path 9225" d="M131.271,209.8l.3,1.543a2.336,2.336,0,0,1,2.263-.72c1.613.209,2.064,1.678,3.6,1.273l-.223-1.7a3.058,3.058,0,0,1-2.477-.251A2.824,2.824,0,0,0,131.271,209.8Z" transform="translate(-54.204 -83.841)" fill="#ebebeb"/>
        <path id="Path_9226" data-name="Path 9226" d="M72.089,100.949l2.505-.706s1.19,3.128-1.292,4.011C73.325,104.263,74.148,102.595,72.089,100.949Z" transform="translate(-35.215 -48.859)" fill="#ebebeb"/>
        <path id="Path_9227" data-name="Path 9227" d="M71.677,109.468l-2.147-1.394s.316-2.04,2.951-1.9C72.5,106.164,70.478,107.628,71.677,109.468Z" transform="translate(-34.393 -50.759)" fill="#ebebeb"/>
        <path id="Path_9228" data-name="Path 9228" d="M132.467,156.75l-1.655-.9s-1.339,2.017.274,3.035C131.087,158.888,130.752,157.577,132.467,156.75Z" transform="translate(-53.89 -66.702)" fill="#ebebeb"/>
        <path id="Path_9229" data-name="Path 9229" d="M131.5,162.776l1.738-.646s.1-1.487-1.78-1.808A1.807,1.807,0,0,1,131.5,162.776Z" transform="translate(-54.266 -68.136)" fill="#ebebeb"/>
        <path id="Path_9230" data-name="Path 9230" d="M213.173,158.657l-1.655-.9s-1.334,2.017.274,3.035A2.017,2.017,0,0,1,213.173,158.657Z" transform="translate(-79.786 -67.313)" fill="#ebebeb"/>
        <path id="Path_9231" data-name="Path 9231" d="M212.237,164.694l1.738-.623s.1-1.492-1.78-1.813A1.78,1.78,0,0,1,212.237,164.694Z" transform="translate(-80.17 -68.757)" fill="#ebebeb"/>
        <path id="Path_9232" data-name="Path 9232" d="M224.851,164.31a1.046,1.046,0,1,1,.4.7,1.05,1.05,0,0,1-.4-.7Z" transform="translate(-84.228 -69.034)" fill="#ebebeb"/>
        <path id="Path_9233" data-name="Path 9233" d="M284.727,129.546a.525.525,0,1,1,.2.357.525.525,0,0,1-.2-.357Z" transform="translate(-103.442 -58.075)" fill="#ebebeb"/>
        <path id="Path_9234" data-name="Path 9234" d="M228.232,90.914a1.05,1.05,0,1,1,1.18.9,1.05,1.05,0,0,1-1.18-.9Z" transform="translate(-85.313 -45.484)" fill="#ebebeb"/>
        <path id="Path_9235" data-name="Path 9235" d="M189.121,133.939a1.046,1.046,0,1,1,.4.7A1.05,1.05,0,0,1,189.121,133.939Z" transform="translate(-72.763 -59.289)" fill="#ebebeb"/>
        <path id="Path_9236" data-name="Path 9236" d="M235.745,106.393l-.214,1.552a2.336,2.336,0,0,1,2.375.046c1.445.72,1.418,2.254,3,2.366l.335-1.682a3.077,3.077,0,0,1-2.268-1.036A2.848,2.848,0,0,0,235.745,106.393Z" transform="translate(-87.658 -50.798)" fill="#ebebeb"/>
        <path id="Path_9237" data-name="Path 9237" d="M230.777,193.169l-2.505.711s-1.19-3.128,1.287-4.016C229.56,189.865,228.718,191.519,230.777,193.169Z" transform="translate(-85.237 -77.615)" fill="#ebebeb"/>
        <path id="Path_9238" data-name="Path 9238" d="M231.111,185l2.147,1.394s-.316,2.04-2.956,1.9C230.3,188.3,232.311,186.84,231.111,185Z" transform="translate(-85.98 -76.054)" fill="#ebebeb"/>
        <path id="Path_9239" data-name="Path 9239" d="M170.93,181.75l-2.505.711s-1.194-3.128,1.287-4.011C169.713,178.45,168.867,180.114,170.93,181.75Z" transform="translate(-66.034 -73.953)" fill="#ebebeb"/>
        <path id="Path_9240" data-name="Path 9240" d="M171.261,173.584l2.152,1.394s-.316,2.045-2.956,1.906C170.457,176.889,172.46,175.425,171.261,173.584Z" transform="translate(-66.778 -72.392)" fill="#ebebeb"/>
        <path id="Path_9241" data-name="Path 9241" d="M213.516,62.182l1.65.9s1.339-2.017-.27-3.035C214.91,60.044,215.226,61.355,213.516,62.182Z" transform="translate(-80.594 -35.96)" fill="#ebebeb"/>
        <path id="Path_9242" data-name="Path 9242" d="M214.658,56.431l-1.738.646s-.1,1.487,1.785,1.808C214.719,58.885,213.524,57.537,214.658,56.431Z" transform="translate(-80.402 -34.801)" fill="#ebebeb"/>
        <path id="Path_9243" data-name="Path 9243" d="M226.477,175.691l.274,1.859s2.417-.139,2.263-2.036A1.962,1.962,0,0,1,226.477,175.691Z" transform="translate(-84.753 -73.011)" fill="#ebebeb"/>
        <path id="Path_9244" data-name="Path 9244" d="M232.005,172.816l-1.562-1a1.83,1.83,0,0,0-.376,2.514S230.439,172.569,232.005,172.816Z" transform="translate(-85.805 -71.823)" fill="#ebebeb"/>
        <path id="Path_9245" data-name="Path 9245" d="M313.225,35.34l-7.59,2.621,7.05,8.124Z" transform="translate(-110.152 -28.034)" fill="#dbdbdb"/>
        <path id="Path_9246" data-name="Path 9246" d="M290.621,42.648l-7.808,1.887,6.242,8.756Z" transform="translate(-102.829 -30.379)" fill="#c7c7c7"/>
        <path id="Path_9247" data-name="Path 9247" d="M267.433,47.63l-7.971,1,5.229,9.4Z" transform="translate(-95.337 -31.977)" fill="#ebebeb"/>
        <path id="Path_9248" data-name="Path 9248" d="M243.939,49.882l-8.031.037,4.057,9.96Z" transform="translate(-87.779 -32.7)" fill="#a6a6a6"/>
        <path id="Path_9249" data-name="Path 9249" d="M220.469,48.314l-7.938-1.2L215,57.577Z" transform="translate(-80.278 -31.81)" fill="#dbdbdb"/>
        <path id="Path_9250" data-name="Path 9250" d="M197.816,43.016l-7.548-2.742.363,10.75Z" transform="translate(-73.135 -29.617)" fill="#dbdbdb"/>
        <path id="Path_9251" data-name="Path 9251" d="M175.729,33.048l-6.716-4.4L166.9,39.192Z" transform="translate(-65.636 -25.886)" fill="#c7c7c7"/>
        <path id="Path_9252" data-name="Path 9252" d="M294.31,41.577l.674.846.451.567L296,43.7l.451.567.562.711.451.567.562.711.451.567.567.716.446.567.567.711.446.567.493.618.074-.785.07-.72.084-.906.07-.72.084-.906.07-.72.088-.9.065-.72.088-.906.065-.716.084-.906.07-.72.1-1.078Z" transform="translate(-106.518 -29.303)" fill="#a6a6a6"/>
        <path id="Path_9253" data-name="Path 9253" d="M295.3,42.932l.451.567,6.4-1.9.07-.72Z" transform="translate(-106.836 -29.812)" fill="#fff"/>
        <path id="Path_9254" data-name="Path 9254" d="M296.794,44.979l.451.567,5.238-1.552.065-.716Z" transform="translate(-107.315 -30.581)" fill="#fff"/>
        <path id="Path_9255" data-name="Path 9255" d="M298.286,47.023l.451.567,4.071-1.2.065-.72Z" transform="translate(-107.794 -31.347)" fill="#fff"/>
        <path id="Path_9256" data-name="Path 9256" d="M299.778,49.068l.451.567,2.9-.86.07-.72Z" transform="translate(-108.272 -32.113)" fill="#fff"/>
        <path id="Path_9257" data-name="Path 9257" d="M301.276,51.119l.446.567,1.734-.516.07-.72Z" transform="translate(-108.753 -32.882)" fill="#fff"/>
        <path id="Path_9258" data-name="Path 9258" d="M302.768,53.166l.446.567.567-.167.07-.72Z" transform="translate(-109.232 -33.65)" fill="#fff"/>
        <path id="Path_9259" data-name="Path 9259" d="M271.2,46.941l.581.911.39.613.488.762.386.613.488.762.39.613.488.762.39.613.483.767.39.609.488.767.39.609.423.665.158-.772.139-.711.181-.888.139-.711.181-.892.139-.706.181-.892.139-.711.181-.888.139-.711.177-.888.144-.711.214-1.06Z" transform="translate(-99.102 -31.283)" fill="#a6a6a6"/>
        <path id="Path_9260" data-name="Path 9260" d="M272.055,48.353l.39.613,6.562-1.227.144-.711Z" transform="translate(-99.377 -31.784)" fill="#fff"/>
        <path id="Path_9261" data-name="Path 9261" d="M273.348,50.484l.386.613,5.373-1,.139-.711Z" transform="translate(-99.792 -32.539)" fill="#fff"/>
        <path id="Path_9262" data-name="Path 9262" d="M274.635,52.615l.39.613,4.174-.781.139-.711Z" transform="translate(-100.205 -33.295)" fill="#fff"/>
        <path id="Path_9263" data-name="Path 9263" d="M275.928,54.748l.39.613,2.974-.558.139-.706Z" transform="translate(-100.62 -34.052)" fill="#fff"/>
        <path id="Path_9264" data-name="Path 9264" d="M277.215,56.884l.39.609,1.78-.33.139-.711Z" transform="translate(-101.033 -34.808)" fill="#fff"/>
        <path id="Path_9265" data-name="Path 9265" d="M278.508,59.015l.39.609.581-.107.139-.711Z" transform="translate(-101.448 -35.563)" fill="#fff"/>
        <path id="Path_9266" data-name="Path 9266" d="M247.747,49.593l.469.971.316.655.4.813.316.651.4.818.316.651.4.818.311.651.4.818.311.651.4.818.316.651.344.711.242-.748.228-.688.279-.864.218-.688.284-.869.223-.688.279-.86.223-.688.284-.864.223-.688.279-.864.223-.688.335-1.032Z" transform="translate(-91.577 -32.43)" fill="#dbdbdb"/>
        <path id="Path_9267" data-name="Path 9267" d="M248.438,51.052l.316.655,6.665-.46.223-.688Z" transform="translate(-91.799 -32.917)" fill="#fff"/>
        <path id="Path_9268" data-name="Path 9268" d="M249.485,53.254l.316.651,5.452-.372.223-.688Z" transform="translate(-92.135 -33.65)" fill="#fff"/>
        <path id="Path_9269" data-name="Path 9269" d="M250.532,55.456l.316.651,4.234-.288.223-.688Z" transform="translate(-92.471 -34.384)" fill="#fff"/>
        <path id="Path_9270" data-name="Path 9270" d="M251.586,57.656l.311.651,3.021-.209.223-.688Z" transform="translate(-92.809 -35.115)" fill="#fff"/>
        <path id="Path_9271" data-name="Path 9271" d="M252.633,59.86l.311.651,1.808-.121.218-.688Z" transform="translate(-93.145 -35.851)" fill="#fff"/>
        <path id="Path_9272" data-name="Path 9272" d="M253.68,62.062l.316.651.586-.037.228-.688Z" transform="translate(-93.481 -36.584)" fill="#fff"/>
        <path id="Path_9273" data-name="Path 9273" d="M224.109,48.965l.33,1.027.223.692.274.864.223.688.279.864.218.688.279.864.223.688.274.869.223.688.279.864.223.688.242.753.344-.711.321-.651.4-.813.316-.651.4-.818.321-.651.4-.813.316-.651.4-.818.316-.651.4-.813.321-.651.474-.976Z" transform="translate(-83.993 -32.405)" fill="#c7c7c7"/>
        <path id="Path_9274" data-name="Path 9274" d="M224.6,50.477l.223.692,6.66.479L231.8,51Z" transform="translate(-84.149 -32.891)" fill="#fff"/>
        <path id="Path_9275" data-name="Path 9275" d="M225.328,52.77l.223.688,5.447.39.316-.651Z" transform="translate(-84.384 -33.626)" fill="#fff"/>
        <path id="Path_9276" data-name="Path 9276" d="M226.067,55.056l.218.688,4.234.307.316-.651Z" transform="translate(-84.621 -34.36)" fill="#fff"/>
        <path id="Path_9277" data-name="Path 9277" d="M226.8,57.341l.223.688,3.016.218.321-.651Z" transform="translate(-84.856 -35.093)" fill="#fff"/>
        <path id="Path_9278" data-name="Path 9278" d="M227.531,59.634l.223.688,1.8.13.316-.651Z" transform="translate(-85.091 -35.829)" fill="#fff"/>
        <path id="Path_9279" data-name="Path 9279" d="M228.27,61.92l.223.688.586.042L229.4,62Z" transform="translate(-85.328 -36.562)" fill="#fff"/>
        <path id="Path_9280" data-name="Path 9280" d="M201.177,44.263l.144,1.074.093.716.121.9.1.716.116.9.1.716.121.9.093.716.121.9.1.716.121.9.093.716.107.785.465-.637.428-.586.539-.73.423-.586.539-.734.432-.581.534-.734.428-.581.534-.734.428-.586.534-.73.432-.586.637-.874Z" transform="translate(-76.635 -30.897)" fill="#ebebeb"/>
        <path id="Path_9281" data-name="Path 9281" d="M201.389,45.844l.093.716,6.469,1.655.432-.586Z" transform="translate(-76.703 -31.404)" fill="#fff"/>
        <path id="Path_9282" data-name="Path 9282" d="M201.7,48.226l.1.716,5.289,1.352.428-.586Z" transform="translate(-76.804 -32.168)" fill="#fff"/>
        <path id="Path_9283" data-name="Path 9283" d="M202.019,50.607l.1.716,4.113,1.05.428-.581Z" transform="translate(-76.905 -32.932)" fill="#fff"/>
        <path id="Path_9284" data-name="Path 9284" d="M202.34,52.989l.093.716,2.933.748.432-.581Z" transform="translate(-77.008 -33.697)" fill="#fff"/>
        <path id="Path_9285" data-name="Path 9285" d="M202.655,55.37l.1.716,1.752.451.423-.586Z" transform="translate(-77.109 -34.461)" fill="#fff"/>
        <path id="Path_9286" data-name="Path 9286" d="M202.977,57.752l.093.716.572.149.428-.586Z" transform="translate(-77.212 -35.225)" fill="#fff"/>
        <path id="Path_9287" data-name="Path 9287" d="M179.542,35.1l-.07,1.083-.046.72-.06.906-.046.72-.06.906-.046.725-.06.906-.046.72-.06.906-.046.725-.06.906-.046.72-.051.785.581-.53.535-.488.674-.613.53-.488.674-.613.534-.488.669-.613.534-.488.669-.609.534-.488.669-.613.539-.488.795-.73Z" transform="translate(-69.467 -27.957)" fill="#a6a6a6"/>
        <path id="Path_9288" data-name="Path 9288" d="M179.749,36.695l-.046.72,6.019,2.9.539-.488Z" transform="translate(-69.744 -28.468)" fill="#fff"/>
        <path id="Path_9289" data-name="Path 9289" d="M179.591,39.09l-.046.72,4.922,2.37.534-.488Z" transform="translate(-69.694 -29.237)" fill="#fff"/>
        <path id="Path_9290" data-name="Path 9290" d="M179.434,41.485l-.046.725,3.825,1.836.534-.488Z" transform="translate(-69.643 -30.005)" fill="#fff"/>
        <path id="Path_9291" data-name="Path 9291" d="M179.277,43.887l-.046.72,2.728,1.311.534-.488Z" transform="translate(-69.593 -30.776)" fill="#fff"/>
        <path id="Path_9292" data-name="Path 9292" d="M179.119,46.282l-.046.725,1.631.781.53-.488Z" transform="translate(-69.542 -31.545)" fill="#fff"/>
        <path id="Path_9293" data-name="Path 9293" d="M178.962,48.684l-.046.72.53.256.534-.488Z" transform="translate(-69.492 -32.315)" fill="#fff"/>
        <path id="Path_9294" data-name="Path 9294" d="M270.345,31.768a139.388,139.388,0,0,1-25.8,8.022,128.35,128.35,0,0,1-13.376,2.157,131.526,131.526,0,0,1-13.529.795,109.775,109.775,0,0,1-13.529-.93l-3.356-.516c-1.111-.186-2.217-.465-3.328-.66-.553-.121-1.111-.218-1.659-.353l-1.641-.432-1.641-.465-.823-.2-.8-.265-3.225-1.06c-1.064-.386-2.105-.827-3.156-1.236-.525-.218-1.06-.4-1.571-.641l-1.534-.725-1.534-.72a14.009,14.009,0,0,1-1.51-.772l-2.933-1.641a16.446,16.446,0,0,1-1.445-.93l-1.394-.93-1.394-.93c-.465-.316-.9-.674-1.352-1.013l-2.677-2.064,2.756,1.952c.465.316.93.665,1.394.967l1.441.883,1.436.883a14.2,14.2,0,0,0,1.455.846l2.984,1.562c.251.125.493.27.748.386l.767.344,1.534.692,1.538.688c.511.223,1.046.4,1.566.6,1.055.39,2.1.809,3.156,1.167l3.216.995a91.906,91.906,0,0,0,13.088,2.728,110.7,110.7,0,0,0,13.418.841A138.89,138.89,0,0,0,244.4,39.1q6.618-1.283,13.116-3.123C261.84,34.761,266.144,33.39,270.345,31.768Z" transform="translate(-65.71 -25.122)" fill="#ebebeb"/>
        <path id="Path_9295" data-name="Path 9295" d="M20.14,39.494l7.687,2.319L21.1,50.206Z" transform="translate(-18.546 -29.366)" fill="#c7c7c7"/>
        <path id="Path_9296" data-name="Path 9296" d="M42.915,45.913l7.873,1.571-5.893,9Z" transform="translate(-25.854 -31.426)" fill="#dbdbdb"/>
        <path id="Path_9297" data-name="Path 9297" d="M66.2,49.978l8,.683-4.852,9.6Z" transform="translate(-33.326 -32.73)" fill="#a6a6a6"/>
        <path id="Path_9298" data-name="Path 9298" d="M89.738,51.167l8.026-.279L94.1,61Z" transform="translate(-40.878 -33.022)" fill="#a6a6a6"/>
        <path id="Path_9299" data-name="Path 9299" d="M113.2,48.66l7.882-1.515L119.021,57.7Z" transform="translate(-48.405 -31.821)" fill="#ebebeb"/>
        <path id="Path_9300" data-name="Path 9300" d="M135.836,42.474l7.436-3.035.056,10.755Z" transform="translate(-55.669 -29.349)" fill="#c7c7c7"/>
        <path id="Path_9301" data-name="Path 9301" d="M157.16,31.436l6.511-4.7,2.584,10.439Z" transform="translate(-62.511 -25.273)" fill="#dbdbdb"/>
        <path id="Path_9302" data-name="Path 9302" d="M39.239,44.98l-.637.874-.432.586-.534.734-.428.581-.534.734-.428.586-.534.73-.428.586-.534.734-.428.586-.534.73-.428.586-.469.637-.1-.781-.1-.716-.121-.9-.1-.716-.121-.9-.1-.72-.121-.9-.093-.716-.125-.9-.093-.716-.121-.9-.1-.72L31.459,43Z" transform="translate(-22.178 -30.493)" fill="#a6a6a6"/>
        <path id="Path_9303" data-name="Path 9303" d="M38.669,46.358l-.432.586L31.767,45.3l-.1-.72Z" transform="translate(-22.244 -30.998)" fill="#fff"/>
        <path id="Path_9304" data-name="Path 9304" d="M37.807,48.445l-.428.581-5.294-1.343-.093-.716Z" transform="translate(-22.349 -31.764)" fill="#fff"/>
        <path id="Path_9305" data-name="Path 9305" d="M36.948,50.524l-.428.586-4.113-1.046-.093-.716Z" transform="translate(-22.453 -32.528)" fill="#fff"/>
        <path id="Path_9306" data-name="Path 9306" d="M36.087,52.6l-.428.586-2.933-.744-.1-.72Z" transform="translate(-22.554 -33.29)" fill="#fff"/>
        <path id="Path_9307" data-name="Path 9307" d="M35.229,54.688l-.428.586-1.752-.446-.1-.716Z" transform="translate(-22.657 -34.057)" fill="#fff"/>
        <path id="Path_9308" data-name="Path 9308" d="M34.37,56.767l-.428.586-.572-.144-.1-.716Z" transform="translate(-22.76 -34.821)" fill="#fff"/>
        <path id="Path_9309" data-name="Path 9309" d="M62.451,49.429l-.544.934-.367.627-.455.785-.363.623-.46.785-.363.627-.455.781-.367.627-.455.785-.367.627-.455.781-.367.627-.4.683-.186-.771-.172-.7-.214-.883-.167-.7-.214-.883-.172-.706L55.7,53.2l-.167-.706-.214-.883-.172-.7-.214-.883-.172-.7-.251-1.055Z" transform="translate(-29.574 -32.181)" fill="#ebebeb"/>
        <path id="Path_9310" data-name="Path 9310" d="M62.026,50.861l-.367.627-6.609-.967-.172-.7Z" transform="translate(-29.692 -32.68)" fill="#fff"/>
        <path id="Path_9311" data-name="Path 9311" d="M61.385,53.023l-.363.623-5.405-.79-.172-.7Z" transform="translate(-29.874 -33.429)" fill="#fff"/>
        <path id="Path_9312" data-name="Path 9312" d="M60.745,55.18l-.363.627-4.2-.613-.167-.706Z" transform="translate(-30.057 -34.177)" fill="#fff"/>
        <path id="Path_9313" data-name="Path 9313" d="M60.107,57.337l-.367.627-2.993-.437-.172-.706Z" transform="translate(-30.237 -34.926)" fill="#fff"/>
        <path id="Path_9314" data-name="Path 9314" d="M59.467,59.5l-.367.627-1.789-.265-.167-.7Z" transform="translate(-30.419 -35.677)" fill="#fff"/>
        <path id="Path_9315" data-name="Path 9315" d="M58.824,61.658l-.367.627-.581-.088-.172-.7Z" transform="translate(-30.599 -36.426)" fill="#fff"/>
        <path id="Path_9316" data-name="Path 9316" d="M85.939,51.161l-.437.99-.288.665-.363.832-.293.665-.363.832-.288.665-.363.832-.293.66-.363.837-.288.66-.363.832-.293.665-.316.725-.274-.744-.251-.679-.311-.851-.251-.679-.316-.855-.251-.679-.311-.851L79.414,55l-.316-.851-.246-.679-.316-.855-.251-.679-.372-1.013Z" transform="translate(-37.083 -33.036)" fill="#c7c7c7"/>
        <path id="Path_9317" data-name="Path 9317" d="M85.678,52.63l-.288.665-6.679-.2-.251-.679Z" transform="translate(-37.259 -33.514)" fill="#fff"/>
        <path id="Path_9318" data-name="Path 9318" d="M85.3,54.851,85,55.516l-5.461-.158-.246-.679Z" transform="translate(-37.527 -34.239)" fill="#fff"/>
        <path id="Path_9319" data-name="Path 9319" d="M84.906,57.07l-.288.665-4.243-.125-.251-.679Z" transform="translate(-37.793 -34.961)" fill="#fff"/>
        <path id="Path_9320" data-name="Path 9320" d="M84.521,59.289l-.293.66L81.2,59.861l-.251-.679Z" transform="translate(-38.058 -35.684)" fill="#fff"/>
        <path id="Path_9321" data-name="Path 9321" d="M84.133,61.51l-.288.66-1.808-.051-.251-.679Z" transform="translate(-38.326 -36.408)" fill="#fff"/>
        <path id="Path_9322" data-name="Path 9322" d="M83.748,63.725l-.293.665-.59-.019-.251-.679Z" transform="translate(-38.592 -37.131)" fill="#fff"/>
        <path id="Path_9323" data-name="Path 9323" d="M109.544,49.451l-.293,1.041-.2.7-.242.874-.2.7-.242.874-.2.7-.242.874-.2.7-.242.878-.2.7-.242.874-.2.7-.214.762-.376-.7-.339-.637-.432-.8-.339-.637-.432-.8-.344-.637-.432-.8-.339-.637-.432-.8-.339-.637-.432-.8-.344-.637-.511-.953Z" transform="translate(-44.672 -32.561)" fill="#dbdbdb"/>
        <path id="Path_9324" data-name="Path 9324" d="M109.492,50.984l-.2.7-6.637.739-.344-.637Z" transform="translate(-44.914 -33.053)" fill="#fff"/>
        <path id="Path_9325" data-name="Path 9325" d="M109.422,53.3l-.2.7-5.428.6-.339-.637Z" transform="translate(-45.28 -33.798)" fill="#fff"/>
        <path id="Path_9326" data-name="Path 9326" d="M109.35,55.617l-.2.7-4.22.469-.339-.637Z" transform="translate(-45.645 -34.54)" fill="#fff"/>
        <path id="Path_9327" data-name="Path 9327" d="M109.278,57.93l-.2.7-3.007.335-.344-.637Z" transform="translate(-46.009 -35.282)" fill="#fff"/>
        <path id="Path_9328" data-name="Path 9328" d="M109.207,60.25l-.2.7-1.8.2-.339-.637Z" transform="translate(-46.376 -36.026)" fill="#fff"/>
        <path id="Path_9329" data-name="Path 9329" d="M109.135,62.563l-.2.7-.59.065-.339-.637Z" transform="translate(-46.741 -36.769)" fill="#fff"/>
        <path id="Path_9330" data-name="Path 9330" d="M132.4,43.853l-.1,1.078-.065.72-.084.9-.07.72L132,48.18l-.07.72-.084.9-.065.72-.084.906-.07.72-.084.906-.07.72-.074.785-.488-.618-.451-.567-.567-.711-.446-.567-.567-.711-.451-.567-.567-.706-.446-.567-.567-.711-.451-.567-.567-.711-.451-.567-.674-.846Z" transform="translate(-52.098 -30.765)" fill="#dbdbdb"/>
        <path id="Path_9331" data-name="Path 9331" d="M132.621,45.441l-.065.72-6.4,1.906L125.7,47.5Z" transform="translate(-52.417 -31.275)" fill="#fff"/>
        <path id="Path_9332" data-name="Path 9332" d="M132.953,47.829l-.07.72-5.233,1.562-.451-.567Z" transform="translate(-52.898 -32.041)" fill="#fff"/>
        <path id="Path_9333" data-name="Path 9333" d="M133.281,50.224l-.07.72-4.067,1.213-.446-.567Z" transform="translate(-53.379 -32.809)" fill="#fff"/>
        <path id="Path_9334" data-name="Path 9334" d="M133.606,52.612l-.065.72-2.9.864-.451-.567Z" transform="translate(-53.857 -33.576)" fill="#fff"/>
        <path id="Path_9335" data-name="Path 9335" d="M133.938,55.008l-.07.72-1.734.516-.446-.567Z" transform="translate(-54.338 -34.344)" fill="#fff"/>
        <path id="Path_9336" data-name="Path 9336" d="M134.263,57.4l-.07.72-.562.167-.451-.567Z" transform="translate(-54.817 -35.113)" fill="#fff"/>
        <path id="Path_9337" data-name="Path 9337" d="M153.823,33.738l.112,1.078.079.72.093.9.079.72.093.9.074.72.1.9.074.72.1.906.074.716.1.906.074.716.084.785-.6-.507-.553-.465-.7-.586-.548-.469-.7-.586-.553-.465-.692-.586-.553-.469-.7-.586-.548-.465-.7-.586-.553-.465-.827-.7Z" transform="translate(-59.165 -27.52)" fill="#a6a6a6"/>
        <path id="Path_9338" data-name="Path 9338" d="M154.325,35.326l.079.72-5.9,3.128-.553-.465Z" transform="translate(-59.555 -28.029)" fill="#fff"/>
        <path id="Path_9339" data-name="Path 9339" d="M155.088,37.714l.079.72-4.829,2.556-.548-.465Z" transform="translate(-60.146 -28.795)" fill="#fff"/>
        <path id="Path_9340" data-name="Path 9340" d="M155.848,40.1l.074.72-3.746,1.989-.553-.469Z" transform="translate(-60.735 -29.562)" fill="#fff"/>
        <path id="Path_9341" data-name="Path 9341" d="M156.609,42.491l.074.72-2.672,1.418-.553-.465Z" transform="translate(-61.323 -30.328)" fill="#fff"/>
        <path id="Path_9342" data-name="Path 9342" d="M157.371,44.886l.074.716-1.6.851-.548-.469Z" transform="translate(-61.914 -31.097)" fill="#fff"/>
        <path id="Path_9343" data-name="Path 9343" d="M158.132,47.275l.074.716-.521.279-.553-.465Z" transform="translate(-62.502 -31.863)" fill="#fff"/>
        <path id="Path_9344" data-name="Path 9344" d="M17.793,34.109c4.262,1.455,8.6,2.654,12.981,3.718s8.8,1.9,13.241,2.593A138.5,138.5,0,0,0,70.86,42.085,110.343,110.343,0,0,0,84.254,40.7a92.491,92.491,0,0,0,13.013-3.253l3.174-1.12c1.046-.4,2.068-.86,3.1-1.287.516-.223,1.041-.423,1.543-.669l1.506-.748,1.51-.748.781-.358c.251-.125.488-.279.73-.414l2.923-1.678c.5-.27.953-.595,1.418-.906l1.394-.93,1.394-.93c.465-.316.892-.683,1.343-1.022l2.677-2.059-2.584,2.138c-.442.353-.86.734-1.315,1.069l-1.394.981-1.394.985c-.465.33-.93.674-1.394.957l-2.868,1.775a15.9,15.9,0,0,1-1.483.827l-1.5.785-1.506.781c-.5.256-1.027.465-1.543.7-1.036.465-2.059.93-3.1,1.362L97.5,38.13l-.795.3-.813.251-1.617.5-1.627.5c-.539.158-1.092.279-1.641.418-1.1.26-2.194.562-3.3.795l-3.332.646A110.3,110.3,0,0,1,70.9,43a131.82,131.82,0,0,1-13.552-.256A129.436,129.436,0,0,1,43.9,41.118a139.194,139.194,0,0,1-26.106-7.009Z" transform="translate(-17.793 -24.582)" fill="#ebebeb"/>
      </g>
      <g id="freepik--Floor--inject-4" transform="translate(4.657 160.241)">
        <path id="Path_9345" data-name="Path 9345" d="M24.65,260.763l24.809-.116,24.814-.042,49.618-.074,49.623.074,24.809.042,24.809.116-24.809.112-24.809.042-49.623.074-49.618-.074-24.814-.042Z" transform="translate(-24.65 -260.53)" fill="#263238"/>
      </g>
      <g id="freepik--Trophy--inject-4" transform="translate(83.409 90.392)">
        <path id="Path_9346" data-name="Path 9346" d="M152.324,178.061c.93,0,1.617-.046,1.687-.051l-.125-1.859c-.046,0-4.341.283-6.549-.614-1.757-.73-3.69-5.656-4.555-10.025-.544-2.765-.246-3.634,0-3.909.046-.06.177-.218.674-.218h1.715c.493,1.492,1.287,2.993,2.482,2.993h3.43v-1.859h-3.318a7.2,7.2,0,0,1-1.027-2.324l-.191-.683h-3.119a2.6,2.6,0,0,0-2.105.888c-.8.981-.93,2.663-.367,5.461a35.207,35.207,0,0,0,1.98,6.581c1.125,2.654,2.375,4.276,3.718,4.815A16.473,16.473,0,0,0,152.324,178.061Z" transform="translate(-140.61 -158.267)" fill="#f2b636"/>
        <path id="Path_9347" data-name="Path 9347" d="M152,163.921h2.747v1.873h-2.324Z" transform="translate(-144.265 -159.683)" fill="#2a2a2a" opacity="0.2"/>
        <path id="Path_9348" data-name="Path 9348" d="M159.115,185.888c-.074,0-.739.051-1.687.051h-.493l-.418-1.859c1.362.042,2.449-.028,2.473-.033Z" transform="translate(-145.714 -166.141)" fill="#2a2a2a" opacity="0.2"/>
        <path id="Path_9349" data-name="Path 9349" d="M183.518,178.063c-.93,0-1.617-.046-1.687-.051l.125-1.859c.046,0,4.341.283,6.549-.613,1.757-.711,3.695-5.652,4.555-10.02.544-2.765.246-3.634,0-3.909-.046-.06-.177-.218-.674-.218H190.67c-.493,1.492-1.287,2.993-2.482,2.993h-3.43v-1.859h3.318A7.2,7.2,0,0,0,189.1,160.2l.191-.683h3.119a2.6,2.6,0,0,1,2.105.883c.8.981.93,2.663.367,5.461a35.207,35.207,0,0,1-1.98,6.581c-1.125,2.654-2.375,4.276-3.718,4.815A16.473,16.473,0,0,1,183.518,178.063Z" transform="translate(-153.836 -158.269)" fill="#f2b636"/>
        <path id="Path_9350" data-name="Path 9350" d="M188.875,163.921h-2.747v1.873h2.324Z" transform="translate(-155.215 -159.683)" fill="#2a2a2a" opacity="0.2"/>
        <path id="Path_9351" data-name="Path 9351" d="M181.831,185.888c.074,0,.739.051,1.687.051h.493l.418-1.859c-1.362.042-2.449-.028-2.473-.033Z" transform="translate(-153.836 -166.141)" fill="#2a2a2a" opacity="0.2"/>
        <path id="Path_9352" data-name="Path 9352" d="M156.695,207.2v1.055h19.548V207.2h-1.673l-1.25-1.789-5.689-2.263v-11.1h-2.324v11.1l-5.689,2.263-1.25,1.789Z" transform="translate(-145.771 -168.705)" fill="#f2b636"/>
        <rect id="Rectangle_3126" data-name="Rectangle 3126" width="3.611" height="1.167" transform="translate(22.501 24.818) rotate(180)" fill="#7e59d1"/>
        <path id="Path_9353" data-name="Path 9353" d="M168.431,193.245l3.607-.158v-.581h-3.607Z" transform="translate(-149.537 -168.855)" fill="#f2b636" opacity="0.2"/>
        <path id="Path_9354" data-name="Path 9354" d="M153.485,157.68s.93,15.123,3.3,19.306,7.469,4.536,8.654,4.536,6.274-.358,8.654-4.536,3.3-19.306,3.3-19.306Z" transform="translate(-144.741 -157.68)" fill="#f2b636"/>
        <path id="Path_9355" data-name="Path 9355" d="M163.621,181.35a9.5,9.5,0,0,1-6.841-4.364c-2.384-4.183-3.3-19.306-3.3-19.306h2.245c.311,3.174.93,15.309,2.64,18.837A11.6,11.6,0,0,0,163.621,181.35Z" transform="translate(-144.741 -157.68)" fill="#fff" opacity="0.3"/>
        <path id="Path_9356" data-name="Path 9356" d="M175.36,213.793h-16.2l.446-.646,14.91-.562Z" transform="translate(-146.562 -175.297)" fill="#2a2a2a" opacity="0.2"/>
        <path id="Path_9357" data-name="Path 9357" d="M169.121,164.715l1.283,2.6,2.877.418-2.082,2.026.493,2.858-2.57-1.348-2.57,1.348.493-2.858-2.082-2.026,2.877-.418Z" transform="translate(-148.424 -159.937)" fill="#2a2a2a" opacity="0.1"/>
        <rect id="Rectangle_3127" data-name="Rectangle 3127" width="32.134" height="27.667" transform="translate(4.631 42.358)" fill="#37474f"/>
        <rect id="Rectangle_3128" data-name="Rectangle 3128" width="28.383" height="2.812" transform="translate(6.508 39.547)" fill="#263238"/>
      </g>
      <g id="freepik--Balloons--inject-4" transform="translate(1.425 66.819)">
        <rect id="Rectangle_3129" data-name="Rectangle 3129" width="0.358" height="37.99" transform="translate(183.272 55.604)" fill="#263238"/>
        <path id="Path_9358" data-name="Path 9358" d="M301.319,182.858l-10.308,52.9h-.363l10.322-52.969Z" transform="translate(-106.768 -142.164)" fill="#263238"/>
        <path id="Path_9359" data-name="Path 9359" d="M288.178,229.456h-.353L284.7,163.162l.358-.014,3.072,65.281Z" transform="translate(-104.86 -135.862)" fill="#263238"/>
        <path id="Path_9360" data-name="Path 9360" d="M290.129,137.645a17.88,17.88,0,0,1-4.4,7.088c-2.71,2.789-5.493,4.294-5.466,4.592.084.846.906,2.129.841,2.407s-.753.562-1.334.562-1.269-.279-1.334-.562.758-1.562.837-2.407c.06-.595-11.238-6.1-10.457-16.978a9.214,9.214,0,0,1,6.92-8.747,13.943,13.943,0,0,1,2.547-.521,12.664,12.664,0,0,1,1.487-.088c1.589,0,10.3.386,10.95,9.356a14.333,14.333,0,0,1-.595,5.3Z" transform="translate(-99.751 -122.977)" fill="#f2b636"/>
        <path id="Path_9361" data-name="Path 9361" d="M280.267,149.612c.084.846.906,2.129.841,2.407s-.753.562-1.334.562-1.269-.279-1.334-.562.758-1.562.837-2.407c.06-.595-11.238-6.1-10.457-16.978a9.214,9.214,0,0,1,6.92-8.747c-2.654,2.268-5.921,6.73-3.555,14a10.66,10.66,0,0,0,13.548,7.134C283.023,147.8,280.239,149.314,280.267,149.612Z" transform="translate(-99.751 -123.264)" fill="#2a2a2a" opacity="0.1"/>
        <path id="Path_9362" data-name="Path 9362" d="M293.768,130.835a2.463,2.463,0,1,1-2.463-2.459A2.463,2.463,0,0,1,293.768,130.835Z" transform="translate(-106.188 -124.705)" fill="#fff"/>
        <path id="Path_9363" data-name="Path 9363" d="M311.264,156.238a17.828,17.828,0,0,1-4.4,7.088c-2.7,2.789-5.493,4.294-5.466,4.592.084.846.906,2.129.841,2.407s-.753.562-1.329.562-1.273-.279-1.339-.562.758-1.562.841-2.407c.056-.595-11.238-6.1-10.457-16.978a9.206,9.206,0,0,1,6.916-8.747,14.006,14.006,0,0,1,2.547-.521,12.728,12.728,0,0,1,1.492-.088c1.589,0,10.3.386,10.945,9.356A14.333,14.333,0,0,1,311.264,156.238Z" transform="translate(-106.534 -128.943)" fill="#c7c7c7"/>
        <path id="Path_9364" data-name="Path 9364" d="M301.4,168.205c.084.846.906,2.129.841,2.407s-.753.562-1.329.562-1.273-.279-1.339-.562.758-1.562.841-2.407c.056-.595-11.238-6.1-10.457-16.978a9.206,9.206,0,0,1,6.916-8.747c-2.649,2.268-5.921,6.73-3.555,14a10.665,10.665,0,0,0,13.548,7.134C304.163,166.4,301.374,167.908,301.4,168.205Z" transform="translate(-106.534 -129.23)" fill="#a6a6a6"/>
        <path id="Path_9365" data-name="Path 9365" d="M315.414,149.474a2.459,2.459,0,1,1-.718-1.741,2.463,2.463,0,0,1,.718,1.741Z" transform="translate(-113.134 -130.684)" fill="#fff"/>
        <path id="Path_9366" data-name="Path 9366" d="M295.171,178.2a17.977,17.977,0,0,1-4.466,7.139c-2.686,2.733-5.414,4.22-5.387,4.513.079.841.9,2.129.837,2.407s-.767.567-1.329.567-1.273-.279-1.339-.562.758-1.566.841-2.407c.06-.595-11.238-6.1-10.457-16.978a9.222,9.222,0,0,1,6.971-8.77,14.647,14.647,0,0,1,2.533-.507,13.7,13.7,0,0,1,1.436-.084c1.589,0,10.3.39,10.95,9.36a14.371,14.371,0,0,1-.59,5.322Z" transform="translate(-101.372 -135.98)" fill="#7e59d1"/>
        <path id="Path_9367" data-name="Path 9367" d="M273.87,173.15a9.222,9.222,0,0,1,6.971-8.77c-2.668,2.24-6.042,6.725-3.658,14.087a10.658,10.658,0,0,0,13.506,7.148c-2.686,2.733-5.414,4.22-5.387,4.513.079.841.9,2.129.837,2.407s-.753.567-1.315.567-1.273-.279-1.339-.562.758-1.566.841-2.407C284.388,189.533,273.09,184.03,273.87,173.15Z" transform="translate(-101.372 -136.257)" fill="#3a09a7" opacity="0.27"/>
        <path id="Path_9368" data-name="Path 9368" d="M298.88,171.291a2.463,2.463,0,1,1-2.463-2.463,2.463,2.463,0,0,1,2.463,2.463Z" transform="translate(-107.828 -137.684)" fill="#fff"/>
        <rect id="Rectangle_3130" data-name="Rectangle 3130" width="6.772" height="8.849" transform="translate(180.269 84.777)" fill="#7e59d1"/>
        <rect id="Rectangle_3131" data-name="Rectangle 3131" width="0.358" height="37.99" transform="translate(14.238 55.604)" fill="#263238"/>
        <path id="Path_9369" data-name="Path 9369" d="M52.423,182.858l-10.3,52.9h-.367l10.322-52.969Z" transform="translate(-26.905 -142.164)" fill="#263238"/>
        <path id="Path_9370" data-name="Path 9370" d="M39.281,229.456h-.353L35.8,163.162l.358-.014,3.072,65.281Z" transform="translate(-24.997 -135.862)" fill="#263238"/>
        <path id="Path_9371" data-name="Path 9371" d="M41.242,137.638a17.828,17.828,0,0,1-4.4,7.088c-2.7,2.789-5.493,4.294-5.466,4.592.084.846.906,2.129.841,2.407s-.753.562-1.334.562-1.269-.279-1.334-.562.758-1.562.841-2.407c.056-.595-11.243-6.1-10.457-16.978a9.234,9.234,0,0,1,6.9-8.761,13.942,13.942,0,0,1,2.547-.521,12.662,12.662,0,0,1,1.487-.088c1.589,0,10.3.386,10.95,9.356a14.334,14.334,0,0,1-.576,5.312Z" transform="translate(-19.893 -122.97)" fill="#c7c7c7"/>
        <path id="Path_9372" data-name="Path 9372" d="M31.373,149.605c.084.846.906,2.129.841,2.407s-.753.562-1.334.562-1.269-.279-1.334-.562.758-1.562.841-2.407c.056-.595-11.243-6.1-10.457-16.978a9.243,9.243,0,0,1,6.9-8.761c-2.654,2.268-5.921,6.73-3.555,14A10.66,10.66,0,0,0,36.824,145C34.133,147.8,31.345,149.308,31.373,149.605Z" transform="translate(-19.891 -123.258)" fill="#a6a6a6"/>
        <path id="Path_9373" data-name="Path 9373" d="M44.892,130.835a2.463,2.463,0,1,1-2.463-2.459A2.463,2.463,0,0,1,44.892,130.835Z" transform="translate(-26.332 -124.705)" fill="#fff"/>
        <path id="Path_9374" data-name="Path 9374" d="M62.368,156.238a17.828,17.828,0,0,1-4.4,7.088c-2.7,2.789-5.489,4.294-5.461,4.592.079.846.9,2.129.837,2.407s-.753.562-1.329.562-1.273-.279-1.339-.562.758-1.562.841-2.407c.06-.595-11.238-6.1-10.457-16.978a9.2,9.2,0,0,1,6.92-8.747,13.89,13.89,0,0,1,2.542-.521,12.728,12.728,0,0,1,1.492-.088c1.589,0,10.3.386,10.945,9.356A14.236,14.236,0,0,1,62.368,156.238Z" transform="translate(-26.672 -128.943)" fill="#455a64"/>
        <path id="Path_9375" data-name="Path 9375" d="M52.51,168.205c.079.846.9,2.129.837,2.407s-.753.562-1.329.562-1.273-.279-1.339-.562.758-1.562.841-2.407c.06-.595-11.238-6.1-10.457-16.978a9.2,9.2,0,0,1,6.92-8.747c-2.654,2.268-5.921,6.73-3.56,14a10.683,10.683,0,0,0,13.548,7.134C55.266,166.4,52.482,167.908,52.51,168.205Z" transform="translate(-26.672 -129.23)" fill="#37474f"/>
        <path id="Path_9376" data-name="Path 9376" d="M66.518,149.474a2.459,2.459,0,1,1-.718-1.741,2.463,2.463,0,0,1,.718,1.741Z" transform="translate(-33.271 -130.684)" fill="#fff"/>
        <path id="Path_9377" data-name="Path 9377" d="M46.274,178.2a17.977,17.977,0,0,1-4.466,7.139c-2.668,2.733-5.414,4.234-5.387,4.513.084.841.93,2.129.841,2.407s-.753.567-1.334.567-1.269-.279-1.334-.562.758-1.566.837-2.407c.06-.595-11.238-6.1-10.457-16.978a9.222,9.222,0,0,1,6.971-8.77,14.514,14.514,0,0,1,2.547-.511,13.71,13.71,0,0,1,1.436-.084c1.589,0,10.3.39,10.95,9.36A14.371,14.371,0,0,1,46.274,178.2Z" transform="translate(-21.51 -135.978)" fill="#7e59d1"/>
        <path id="Path_9378" data-name="Path 9378" d="M24.974,173.15a9.222,9.222,0,0,1,6.971-8.77c-2.672,2.24-6.042,6.725-3.662,14.087a10.658,10.658,0,0,0,13.506,7.148c-2.649,2.733-5.4,4.234-5.368,4.513.084.841.93,2.129.841,2.407s-.753.567-1.334.567-1.269-.279-1.334-.562.758-1.566.837-2.407C35.492,189.533,24.193,184.03,24.974,173.15Z" transform="translate(-21.51 -136.257)" fill="#2a2a2a" opacity="0.1"/>
        <path id="Path_9379" data-name="Path 9379" d="M49.984,171.291a2.463,2.463,0,1,1-2.463-2.463A2.463,2.463,0,0,1,49.984,171.291Z" transform="translate(-27.966 -137.684)" fill="#fff"/>
        <rect id="Rectangle_3132" data-name="Rectangle 3132" width="6.772" height="8.849" transform="translate(11.235 84.777)" fill="#7e59d1"/>
      </g>
      <g id="freepik--Lines--inject-4" transform="translate(80.246 30.316)">
        <path id="Path_9380" data-name="Path 9380" d="M170.709,78.266a44.112,44.112,0,0,1,0-9.044A44.118,44.118,0,0,1,170.709,78.266Z" transform="translate(-147.029 -69.222)" fill="#263238"/>
        <path id="Path_9381" data-name="Path 9381" d="M155.126,82.76a39.612,39.612,0,0,1-2.463-3.8,38.654,38.654,0,0,1-2.059-4.029A43.74,43.74,0,0,1,155.126,82.76Z" transform="translate(-140.653 -71.053)" fill="#263238"/>
        <path id="Path_9382" data-name="Path 9382" d="M143.783,94.5a44.093,44.093,0,0,1-7.831-4.517,37.327,37.327,0,0,1,4.03,2.059,38.69,38.69,0,0,1,3.8,2.459Z" transform="translate(-135.952 -75.882)" fill="#263238"/>
        <path id="Path_9383" data-name="Path 9383" d="M194.689,93.565a38.7,38.7,0,0,1,3.8-2.459,37.33,37.33,0,0,1,4.029-2.059,44.093,44.093,0,0,1-7.831,4.517Z" transform="translate(-154.799 -75.583)" fill="#263238"/>
        <path id="Path_9384" data-name="Path 9384" d="M184.52,82.22a44.533,44.533,0,0,1,4.517-7.831,37.84,37.84,0,0,1-2.059,4.034A38.627,38.627,0,0,1,184.52,82.22Z" transform="translate(-151.536 -70.879)" fill="#263238"/>
      </g>
      <g id="freepik--character-2--inject-4" transform="translate(95.9 10.662)">
        <path id="Path_9385" data-name="Path 9385" d="M225.467,266.642v19.125c0,3.653-.033,6.86-.214,8.514a2.584,2.584,0,0,1-.265,1.134l-.023.023c-1.083.739-30.284,1.743-31.316,1.431s-.232-3.253.869-4.211,12.116-6.325,12.116-6.325l.186-19.1Z" transform="translate(-169.966 -112.912)" fill="#d3766a"/>
        <path id="Path_9386" data-name="Path 9386" d="M225.467,289.02v3.927c0,3.653-.033,6.86-.214,8.514a5.062,5.062,0,0,1-.265,1.134l-.023.023c-1.083.739-30.284,1.743-31.316,1.431s-.232-3.253.869-4.211,12.116-6.325,12.116-6.325l-.056-3.983Z" transform="translate(-169.966 -120.092)" fill="#fff"/>
        <path id="Path_9387" data-name="Path 9387" d="M193.646,305.852c1.032.311,30.233-.688,31.32-1.431.418-.279.521-4.541.493-9.695v-.163L206.613,295v.321s-11.006,5.382-12.116,6.325S192.614,305.55,193.646,305.852Z" transform="translate(-169.963 -121.871)" fill="#a6a6a6"/>
        <path id="Path_9388" data-name="Path 9388" d="M194.269,309.073c4.917-.288,24.781-.99,29.666-.9.037,0,.042.028,0,.028-4.871.4-24.739.93-29.666.957C194.167,309.156,194.162,309.082,194.269,309.073Z" transform="translate(-170.293 -126.235)" fill="#263238"/>
        <path id="Path_9389" data-name="Path 9389" d="M210.624,295.742a6.857,6.857,0,0,1,5.828,1.12c.06.051,0,.135-.074.116a26.989,26.989,0,0,0-5.74-.99.125.125,0,0,1-.014-.246Z" transform="translate(-175.535 -122.186)" fill="#263238"/>
        <path id="Path_9390" data-name="Path 9390" d="M208.6,297.056a6.869,6.869,0,0,1,5.833,1.115c.056.051,0,.135-.079.116a27.6,27.6,0,0,0-5.735-.99.121.121,0,0,1-.019-.242Z" transform="translate(-174.88 -122.607)" fill="#263238"/>
        <path id="Path_9391" data-name="Path 9391" d="M206.588,298.363a6.867,6.867,0,0,1,5.833,1.12c.06.051,0,.135-.079.116a26.9,26.9,0,0,0-5.726-.99.125.125,0,0,1-.028-.246Z" transform="translate(-174.241 -123.027)" fill="#263238"/>
        <path id="Path_9392" data-name="Path 9392" d="M232.255,213.929l0,.214-.418,33.458-20.445-.409,4.2-102H232.85Z" transform="translate(-175.811 -73.943)" fill="#37474f"/>
        <path id="Path_9393" data-name="Path 9393" d="M212.625,290.334c3.193-.028,2.277-.06,5.47-.056,1.562,0,11.824.042,13.278.3.033,0,.033.06,0,.065-1.464.228-11.721,0-13.283-.023-3.193-.07-2.277-.084-5.466-.191a.046.046,0,1,1,0-.093Z" transform="translate(-176.193 -120.496)" fill="#263238"/>
        <path id="Path_9394" data-name="Path 9394" d="M236.344,233.692q.06-4.583.149-9.17.177-9.165.339-18.34.344-18.247.59-36.493c.1-6.86.1-13.724.274-20.584h.028c.116,6.112.046,12.233.037,18.349s-.037,12.228-.1,18.344q-.172,18.247-.576,36.493c-.079,3.43-.163,6.86-.279,10.29s-.2,6.865-.437,10.29a.042.042,0,1,1-.084,0C236.232,239.813,236.307,236.75,236.344,233.692Z" transform="translate(-183.794 -75.199)" fill="#263238"/>
        <path id="Path_9395" data-name="Path 9395" d="M236.238,145.4l-.451,52.081L221.947,145.2h14.287Z" transform="translate(-179.199 -73.945)" fill="#263238"/>
        <path id="Path_9396" data-name="Path 9396" d="M279.113,252.565s9.862,16.025,9.867,16.039c1.6,3.281,2.947,6.191,3.5,7.762a.052.052,0,0,1,0,.028,2.515,2.515,0,0,1,.251,1.129.282.282,0,0,1,0,.033c-.655,1.139-26.533,14.7-27.6,14.872s-1.627-2.844-1.041-4.183,8.171-10.954,8.171-10.954l-9.69-16.1Z" transform="translate(-192.236 -108.395)" fill="#d3766a"/>
        <path id="Path_9397" data-name="Path 9397" d="M293.352,283.757a.061.061,0,0,1,0,.028c-.66,1.139-26.538,14.705-27.6,14.872s-1.627-2.844-1.046-4.183,8.175-10.954,8.175-10.954l-1.729-2.872c4.229-2.254,11.921-6.214,16.694-8.668,1.041,1.687,1.748,2.84,1.748,2.844,1.6,3.286,2.951,6.191,3.5,7.762a.065.065,0,0,1,0,.028A2.519,2.519,0,0,1,293.352,283.757Z" transform="translate(-192.844 -114.625)" fill="#fff"/>
        <path id="Path_9398" data-name="Path 9398" d="M265.754,299.937c1.064-.167,26.956-13.734,27.6-14.872.26-.432-1.5-4.318-3.755-8.951a1.4,1.4,0,0,0-.074-.144L272.73,284.53l.153.283s-7.58,9.625-8.152,10.954S264.695,300.109,265.754,299.937Z" transform="translate(-192.853 -115.905)" fill="#a6a6a6"/>
        <path id="Path_9399" data-name="Path 9399" d="M265.979,303.095c4.3-2.394,21.9-11.619,26.338-13.678.037,0,.051,0,0,.028-4.215,2.463-21.886,11.568-26.315,13.72C265.923,303.211,265.886,303.146,265.979,303.095Z" transform="translate(-193.31 -120.22)" fill="#263238"/>
        <path id="Path_9400" data-name="Path 9400" d="M274.793,289.365a6.863,6.863,0,0,1,5.74-1.524c.074.023.046.13,0,.139a27.314,27.314,0,0,0-5.6,1.594.126.126,0,0,1-.139-.209Z" transform="translate(-196.138 -119.661)" fill="#263238"/>
        <path id="Path_9401" data-name="Path 9401" d="M273.547,291.419a6.844,6.844,0,0,1,5.74-1.52c.074,0,.042.125-.023.139a27.061,27.061,0,0,0-5.577,1.594.128.128,0,1,1-.139-.214Z" transform="translate(-195.737 -120.321)" fill="#263238"/>
        <path id="Path_9402" data-name="Path 9402" d="M272.294,293.473a6.879,6.879,0,0,1,5.74-1.52c.079,0,.046.13,0,.139a27.312,27.312,0,0,0-5.6,1.594.128.128,0,1,1-.139-.214Z" transform="translate(-195.335 -120.981)" fill="#263238"/>
        <path id="Path_9403" data-name="Path 9403" d="M220.318,145.153h0c.079.358,1.283,5.958,2.538,10.769.906,3.514,1.859,6.6,2.38,6.925.609.358,3.574,1.673,4.569,2.082,0,0,6.665,33.282,10.188,43.6,3.253,9.523,16.685,34.978,16.685,34.978l19.52-9.853s-15.244-25.822-16.843-30.47c-2.482-7.185-11.782-42.27-11.782-42.27s.07-10.987-3.63-15.8Z" transform="translate(-178.677 -73.919)" fill="#37474f"/>
        <path id="Path_9404" data-name="Path 9404" d="M274.274,280.269c2.789-1.557,1.966-1.148,4.768-2.672,1.371-.748,10.392-5.642,11.8-6.116.028,0,.056.037.028.056-1.162.9-10.276,5.661-11.666,6.358-2.83,1.473-2.036,1.018-4.88,2.459a.048.048,0,1,1-.046-.084Z" transform="translate(-195.981 -114.465)" fill="#263238"/>
        <path id="Path_9405" data-name="Path 9405" d="M249.172,160.621c-.53-.139-1.1-.181-1.645-.27-.442-.07-.878-.144-1.315-.242a5.8,5.8,0,0,1-2.324-.976,5.57,5.57,0,0,1-1.5-2.324c-.214-.511-.465-1.013-.665-1.52l-.335-.73a7.948,7.948,0,0,1-.414-.878c0-.042-.084,0-.065.023a5.733,5.733,0,0,1,.186.627c.074.246.144.493.218.739.135.437.27.874.414,1.306a10.076,10.076,0,0,0,.93,2.3,4.825,4.825,0,0,0,3.681,1.98c.414.056.827.084,1.246.107a8.867,8.867,0,0,0,1.571,0,.07.07,0,0,0,.019-.139Z" transform="translate(-185.283 -76.661)" fill="#263238"/>
        <path id="Path_9406" data-name="Path 9406" d="M225.165,170.085a38.609,38.609,0,0,1,6.112,2.844c.074.042,0,.163-.056.125-2.059-.883-4.16-1.729-6.167-2.728a.135.135,0,0,1,.112-.242Z" transform="translate(-180.177 -81.929)" fill="#263238"/>
        <path id="Path_9407" data-name="Path 9407" d="M224.264,149.3c0-.074.13-.088.125,0a68.468,68.468,0,0,0,.349,6.879c.093,1.064.93,6.92,2.789,6.507.307-.074.465-.376.511-.841a7.483,7.483,0,0,0-.246-1.8c-.2-1.227-.367-2.454-.465-3.718a33.251,33.251,0,0,1,.074-6.934.06.06,0,0,1,.116,0,63.966,63.966,0,0,0,.553,9.574c.228,1.524.995,3.82-.6,4.053s-2.672-3.607-2.872-4.648a35.063,35.063,0,0,1-.335-9.072Z" transform="translate(-179.894 -75.24)" fill="#263238"/>
        <path id="Path_9408" data-name="Path 9408" d="M228.881,169.171a9.4,9.4,0,0,1,.414,1.218,2.742,2.742,0,0,1,.172,1,.07.07,0,0,1-.125,0,3.379,3.379,0,0,1-.428-.971c-.139-.372-.288-.748-.418-1.125a.2.2,0,0,1,.386-.121Z" transform="translate(-181.3 -81.6)" fill="#263238"/>
        <path id="Path_9409" data-name="Path 9409" d="M281.725,231.162c-2.789-5.229-5.633-10.406-8.505-15.579-1.418-2.547-2.9-5.071-4.248-7.655a46.182,46.182,0,0,1-3.081-7.985q-2.579-8.366-4.88-16.82t-4.327-16.973c-.339-1.422-.706-2.84-.981-4.276a13.185,13.185,0,0,1,0-4.378,13.943,13.943,0,0,0,.033-4.076,27.42,27.42,0,0,0-.93-3.983c-.214-.683-.465-1.366-.683-2.045a.065.065,0,0,0-.121.037c.841,2.751,1.7,5.531,1.52,8.445-.088,1.394-.465,2.789-.432,4.183a19.855,19.855,0,0,0,.706,4.136q1.984,8.575,4.271,17.071t4.829,16.927a63.919,63.919,0,0,0,2.789,8.105c1.19,2.6,2.663,5.08,4.067,7.571q4.346,7.729,8.8,15.393L281.7,231.2C281.688,231.241,281.748,231.2,281.725,231.162Z" transform="translate(-189.484 -74.639)" fill="#263238"/>
        <path id="Path_9410" data-name="Path 9410" d="M217.756,109.505c-1.394,3.6-10.4,16.546-16.332,17.2-6.042.665-19.32-8.366-20.891-9.425s5-11.679,6.507-10.755c3.82,2.352,13.153,9.188,14.872,8.366,3.574-1.743,6.325-4.146,11.466-7.58C216.942,104.909,219.294,105.555,217.756,109.505Z" transform="translate(-165.834 -61.337)" fill="#d3766a"/>
        <path id="Path_9411" data-name="Path 9411" d="M174.12,114.2c-1.441-.423-7.994-2.923-9.635-4.025s-6.107-4.615-5.41-5.972,2.115-.418,2.115-.418-1.664-1.78-.818-3.067,2.97.228,2.97.228-1.571-1.957-.641-3.179,2.816.655,2.816.655-1.52-1.724-.325-2.4c1.431-.823,3.876,2.668,5.777,3.746.432.246,9.1,4.35,9.1,4.35Z" transform="translate(-159.002 -58.124)" fill="#d3766a"/>
        <path id="Path_9412" data-name="Path 9412" d="M168.278,99.372a11.011,11.011,0,0,0,5.879,4.555c.056,0,.037.112-.023.093-2.9-.906-4.587-1.7-5.986-4.569C168.083,99.311,168.195,99.255,168.278,99.372Z" transform="translate(-161.931 -59.221)" fill="#263238"/>
        <path id="Path_9413" data-name="Path 9413" d="M165.123,103.02a16.463,16.463,0,0,0,6.321,4.847c.042.023,0,.093-.033.074-2.956-1.194-4.624-2.022-6.4-4.8C164.947,103.02,165.026,102.909,165.123,103.02Z" transform="translate(-160.923 -60.397)" fill="#263238"/>
        <path id="Path_9414" data-name="Path 9414" d="M162.382,107.6A14.814,14.814,0,0,0,169,111.967a.06.06,0,0,1-.033.112,10.524,10.524,0,0,1-6.646-4.4C162.21,107.515,162.243,107.468,162.382,107.6Z" transform="translate(-160.046 -61.856)" fill="#263238"/>
        <path id="Path_9415" data-name="Path 9415" d="M187.626,104.731a38.6,38.6,0,0,0-2.686-4.982c-1.06-1.413-6.971-5.219-7.845-3.992-1.157,1.58,1.813,4.448,3.449,5.661,0,0-2.672,3.658-.99,6.177S187.626,104.731,187.626,104.731Z" transform="translate(-164.724 -58.004)" fill="#d3766a"/>
        <path id="Path_9416" data-name="Path 9416" d="M176.932,96.664c0,2.2,2.24,3.658,3.741,4.954a.181.181,0,0,1,0,.3c-1.018,1.608-1.989,4.183-1.208,6.042a.047.047,0,0,1-.084.042c-1.1-1.859-.358-4.471.869-6.158-1.557-1.306-3.751-2.868-3.318-5.159Z" transform="translate(-164.738 -58.372)" fill="#263238"/>
        <path id="Path_9417" data-name="Path 9417" d="M193.166,108.032s9.793,6.665,10.806,6.46c1.687-.339,9.555-7.078,12.446-8.505s6.311-2.026,3.509,4.9c-2.008,4.95-11.047,15.486-15.848,16.541-3.318.73-15.8-1.887-15.8-1.887Z" transform="translate(-168.396 -61.073)" fill="#7e59d1"/>
        <path id="Path_9418" data-name="Path 9418" d="M193.32,127.549c1.422-6.567,3.518-13.13,3.834-14.315,0-.056.1,0,.084.046-.3,1.111-2.152,9.063-3.825,14.324C193.394,127.665,193.306,127.614,193.32,127.549Z" transform="translate(-170.013 -63.682)" fill="#263238"/>
        <path id="Path_9419" data-name="Path 9419" d="M225.266,111.091c-2.008,4.95-11.047,15.486-15.848,16.541a17.172,17.172,0,0,1-4.5-.046L225.888,105.7C226.53,106.383,226.525,107.977,225.266,111.091Z" transform="translate(-173.734 -61.273)" fill="#2a2a2a" opacity="0.1"/>
        <path id="Path_9420" data-name="Path 9420" d="M245.715,139.929c-.079.07-30.707-.739-30.707-.739.367-8.2,6.93-29.745,10.518-33.263,2.138-2.091,6.874-1.91,8.579-.214C239.166,110.742,245.993,139.673,245.715,139.929Z" transform="translate(-176.973 -60.854)" fill="#ebebeb"/>
        <path id="Path_9421" data-name="Path 9421" d="M238.962,104.383l-1.343,16.2,2.421,24.228,14.291.511s-6.042-26.584-9.058-33.89S238.962,104.383,238.962,104.383Z" transform="translate(-184.228 -60.848)" fill="#7e59d1"/>
        <path id="Path_9422" data-name="Path 9422" d="M224.473,106.635l-2.236,13.506-4.913,25.474h-4.973s6.367-28.206,8.566-33.379S224.473,106.635,224.473,106.635Z" transform="translate(-176.121 -61.571)" fill="#7e59d1"/>
        <path id="Path_9423" data-name="Path 9423" d="M248.132,92.431c7.9-4.517,14.789-12.549,14.942-15.388.246-4.648-1.7-10.536-4.917-19.055-.641-1.7-13.562,3.978-12.7,5.712,1.7,3.425,6.507,11.814,6.562,14.031.028.93-4.462,5.8-8.877,11.247C237.782,95.568,244.767,94.36,248.132,92.431Z" transform="translate(-185.371 -45.862)" fill="#d3766a"/>
        <path id="Path_9424" data-name="Path 9424" d="M255.378,46.517c1.552,2.468,3.532,9.932,3.253,11.559S247.7,62.1,246.39,61.013s-5.9-9.806-5.563-12.762S253.77,43.956,255.378,46.517Z" transform="translate(-185.251 -41.846)" fill="#d3766a"/>
        <path id="Path_9425" data-name="Path 9425" d="M240.439,51.342c1.394.692,1.394-1.334,1.394-1.334s.665,2.928,2.366,3.091,1.585-2.291,1.585-2.468c.037.153.716,2.826,2.44,2.816s1.32-2.459,1.292-2.617c.079.135,1.167,1.9,2.477,1.6,2.249-.53-.409-5.112.144-6.911,0,0,2.477-.386,2.575-.386,0,0-1.785-3.439-4.239-4.057a1.613,1.613,0,0,0-1.859.813,2.521,2.521,0,0,0-1.989-1.548c-.7,0-1.343,1.083-1.343,1.083a2.022,2.022,0,0,0-1.766-1.143c-.967.033-1.464,1.129-1.464,1.129a2.414,2.414,0,0,0-2.04-.539C238.059,41.577,237.483,49.85,240.439,51.342Z" transform="translate(-184.473 -40.281)" fill="#d3766a"/>
        <path id="Path_9426" data-name="Path 9426" d="M243.314,42.183h-.042a14.366,14.366,0,0,0-.088,8.533c.028.088.181.079.167,0a29.43,29.43,0,0,1-.037-8.533Z" transform="translate(-185.819 -40.891)" fill="#263238"/>
        <path id="Path_9427" data-name="Path 9427" d="M248.233,41.891c0-.028-.046-.037-.06,0a13.478,13.478,0,0,0,.465,9.337c.046.1.191.149.149.028C248.033,49.22,247.819,44.54,248.233,41.891Z" transform="translate(-187.415 -40.789)" fill="#263238"/>
        <path id="Path_9428" data-name="Path 9428" d="M254.272,51.8a18.276,18.276,0,0,1-1.1-9c0-.037-.056-.042-.065,0a12.175,12.175,0,0,0-.367,5.033,8.287,8.287,0,0,0,1.432,4C254.2,51.894,254.3,51.866,254.272,51.8Z" transform="translate(-189.048 -41.079)" fill="#263238"/>
        <path id="Path_9429" data-name="Path 9429" d="M243.483,52.494a9.869,9.869,0,0,0,.683,1.589,3.193,3.193,0,0,0,1.092,1.241,1.06,1.06,0,0,0,.739.121,1.543,1.543,0,0,0,.683-.349,1.859,1.859,0,0,0,.507-1.394l-.046-1.264.465,1.171a5.051,5.051,0,0,0,.869,1.441,1.859,1.859,0,0,0,1.329.725,1.055,1.055,0,0,0,1.092-.767,3.174,3.174,0,0,0,0-1.6l-.321-1.469.781,1.278a4.847,4.847,0,0,0,.776.971,2.012,2.012,0,0,0,1.009.567.93.93,0,0,0,.93-.367,2.119,2.119,0,0,0,.246-1.157,16.64,16.64,0,0,0-.363-2.579c-.079-.432-.158-.864-.218-1.3a3.154,3.154,0,0,1,0-1.32,3.4,3.4,0,0,0,.1,1.3c.093.428.2.851.316,1.278a14.269,14.269,0,0,1,.507,2.612,2.478,2.478,0,0,1-.251,1.394,1.357,1.357,0,0,1-1.357.6,2.449,2.449,0,0,1-1.269-.679,5.154,5.154,0,0,1-.883-1.069l.465-.191a3.718,3.718,0,0,1,0,1.9,1.524,1.524,0,0,1-.613.837,1.692,1.692,0,0,1-.99.274,2.352,2.352,0,0,1-1.682-.93,5.7,5.7,0,0,1-.93-1.6l.465-.093a2.212,2.212,0,0,1-.72,1.72,1.859,1.859,0,0,1-.864.386,1.334,1.334,0,0,1-.93-.2,3.253,3.253,0,0,1-1.088-1.394,7.9,7.9,0,0,1-.525-1.682Z" transform="translate(-186.109 -42.766)" fill="#263238"/>
        <path id="Path_9430" data-name="Path 9430" d="M244.3,61.234s-10.178-7.041-5.475-9.672c1.394-.781,8.068-2.324,8.4-.99.432,1.724-2.231,2.886-4.02,3.351,0,0,3.8,1.91,3.253,4.95a3.063,3.063,0,0,1-2.161,2.361Z" transform="translate(-184.216 -43.415)" fill="#d3766a"/>
        <path id="Path_9431" data-name="Path 9431" d="M238.837,51.679a6.507,6.507,0,0,1,1.673-.874,14.3,14.3,0,0,1,1.813-.548,21.844,21.844,0,0,1,3.751-.59,3.583,3.583,0,0,1,1,.079,1.287,1.287,0,0,1,.516.246.883.883,0,0,1,.218.232,1.087,1.087,0,0,1,.121.288,1.6,1.6,0,0,1-.139,1.1,2.9,2.9,0,0,1-.641.809,5.652,5.652,0,0,1-1.678,1,13.429,13.429,0,0,1-1.822.59l.042-.409a7.654,7.654,0,0,1,1.2.813,7.264,7.264,0,0,1,1.032,1.022,4.9,4.9,0,0,1,.725,1.241,3.718,3.718,0,0,1,.27,1.394,4.131,4.131,0,0,0-.409-1.329,5.026,5.026,0,0,0-.795-1.125,6.638,6.638,0,0,0-1.027-.93,7.231,7.231,0,0,0-1.171-.7l-.511-.242.548-.172a13.7,13.7,0,0,0,1.734-.618,5.507,5.507,0,0,0,1.524-.93,1.552,1.552,0,0,0,.627-1.394c-.074-.423-.758-.493-1.343-.465s-1.227.079-1.859.149-1.236.153-1.859.265a12.038,12.038,0,0,0-3.542,1.1Z" transform="translate(-184.618 -43.29)" fill="#263238"/>
        <path id="Path_9432" data-name="Path 9432" d="M244.847,69.805s5.935,10.248,5.661,11.247c-.465,1.655-7.752,9.012-9.388,11.8s-2,7.3,4.648,3.853c5.224-2.714,16.267-9.895,17.661-14.607.967-3.253-.734-15.89-.734-15.89Z" transform="translate(-185.029 -48.598)" fill="#7e59d1"/>
        <path id="Path_9433" data-name="Path 9433" d="M265.187,71.172c-6.655.93-13.353,2.556-14.556,2.789-.056,0,0,.1.037.088,1.129-.218,9.193-1.487,14.561-2.789C265.294,71.246,265.247,71.172,265.187,71.172Z" transform="translate(-188.395 -50.193)" fill="#263238"/>
        <path id="Path_9434" data-name="Path 9434" d="M231.185,107.336c1.246.139,4-2.017,5.15-3.918a32.778,32.778,0,0,0-.158-3.277c-.056-1.046-.088-2.217-.046-3.286L229.358,98.2a17.144,17.144,0,0,1,.465,4.127,2.465,2.465,0,0,1-.065.437v.074C229.581,103.669,229.233,107.113,231.185,107.336Z" transform="translate(-181.577 -58.434)" fill="#d3766a"/>
        <path id="Path_9435" data-name="Path 9435" d="M229.753,102.813a.657.657,0,0,1,0,.074,4.434,4.434,0,0,0,.688.065c3.816.074,4.945-4.527,5.2-5.954l-6.284,1.246a17.2,17.2,0,0,1,.465,4.136A2.153,2.153,0,0,1,229.753,102.813Z" transform="translate(-181.577 -58.48)" fill="#263238"/>
        <path id="Path_9436" data-name="Path 9436" d="M228.328,78.173a4.936,4.936,0,0,0-3.123,3.053A9.741,9.741,0,0,0,225,86.255C225.191,86.4,228.328,78.173,228.328,78.173Z" transform="translate(-180.105 -52.439)" fill="#263238"/>
        <path id="Path_9437" data-name="Path 9437" d="M236.569,82.548c.409,2.454-1.738,9.1-3.616,10.4-2.724,1.859-6.734,1.566-8.217-1.6-1.441-3.077,1.51-11.689,3.569-12.823C231.336,76.85,235.97,78.919,236.569,82.548Z" transform="translate(-179.972 -52.362)" fill="#d3766a"/>
        <path id="Path_9438" data-name="Path 9438" d="M234.015,87.143a5.58,5.58,0,0,1-.507-.363,1.12,1.12,0,0,1-.465-.465.33.33,0,0,1,.158-.358A.8.8,0,0,1,234,86.1a1.139,1.139,0,0,1,.507.674.344.344,0,0,1-.488.367Z" transform="translate(-182.757 -54.921)" fill="#263238"/>
        <path id="Path_9439" data-name="Path 9439" d="M227.773,85.422a5.549,5.549,0,0,0,.623,0,1.018,1.018,0,0,0,.641-.1.321.321,0,0,0,.088-.381.79.79,0,0,0-.72-.363,1.167,1.167,0,0,0-.809.228.344.344,0,0,0,.177.618Z" transform="translate(-180.968 -54.492)" fill="#263238"/>
        <path id="Path_9440" data-name="Path 9440" d="M231.322,95.281a.73.73,0,0,1-.465.153,1.18,1.18,0,0,1-.465-.256h-.028a.637.637,0,0,0,.5.414.507.507,0,0,0,.465-.3C231.373,95.29,231.34,95.267,231.322,95.281Z" transform="translate(-181.9 -57.896)" fill="#263238"/>
        <path id="Path_9441" data-name="Path 9441" d="M230.424,90.547a1.571,1.571,0,0,1-1.222.386,1.98,1.98,0,0,1-.562-.13l-.1-.046-.093-.042a.116.116,0,0,1-.065-.125h0v-.046h0v-.037c.093-.353.279-.869.279-.869-.144,0-.878.13-.813-.051a24.029,24.029,0,0,1,1.938-4.485.044.044,0,1,1,.079.037c-.465,1.441-1.143,2.789-1.617,4.234a2.83,2.83,0,0,1,.79,0c.046.028-.376,1-.4,1.157a2.24,2.24,0,0,0,1.738-.033C230.437,90.478,230.461,90.505,230.424,90.547Z" transform="translate(-181.09 -54.654)" fill="#263238"/>
        <path id="Path_9442" data-name="Path 9442" d="M229.393,93.27a1.942,1.942,0,0,0,.567.781.85.85,0,0,0,.493.172c.386,0,.493-.316.507-.618a2.023,2.023,0,0,0-.037-.465,2.435,2.435,0,0,1-1.529.13Z" transform="translate(-181.588 -57.241)" fill="#263238"/>
        <path id="Path_9443" data-name="Path 9443" d="M230.228,94.257a.85.85,0,0,0,.493.172c.386,0,.493-.316.507-.618a.883.883,0,0,0-1,.446Z" transform="translate(-181.856 -57.448)" fill="#ff9bbc"/>
        <path id="Path_9444" data-name="Path 9444" d="M233.4,89.07a.7.7,0,0,0-.079-.367.493.493,0,0,0-.325-.242.465.465,0,0,0-.4.107.777.777,0,0,0-.2.307,1.812,1.812,0,0,0-.065.209,1.022,1.022,0,0,0,0,.465,1.487,1.487,0,0,1,.088-.321,1.861,1.861,0,0,1,.13-.274c.1-.177.251-.316.4-.27a.427.427,0,0,1,.274.4,3.307,3.307,0,0,1,0,.641,1.533,1.533,0,0,0,.181-.651Z" transform="translate(-182.52 -55.737)" fill="#263238"/>
        <path id="Path_9445" data-name="Path 9445" d="M227.375,87.16a.688.688,0,0,1,.26-.27.511.511,0,0,1,.4-.033.465.465,0,0,1,.279.3.762.762,0,0,1,0,.367,1.609,1.609,0,0,1-.06.214.971.971,0,0,1-.242.39,1.665,1.665,0,0,0,.093-.321,1.727,1.727,0,0,0,.037-.3c0-.2-.046-.4-.2-.465a.4.4,0,0,0-.442.191,3.208,3.208,0,0,0-.3.581A1.427,1.427,0,0,1,227.375,87.16Z" transform="translate(-180.886 -55.217)" fill="#263238"/>
        <path id="Path_9446" data-name="Path 9446" d="M236.3,87.148c-.832,0-.93-2.579-.906-3.532.037-.841.6-3.37.613-3.546s-4.011,1.069-5.73-.116-2.426-3.323-2.189-4.127,3.253-2.05,5.354-1.473,3.992,4.09,3.992,4.09a9.812,9.812,0,0,1-.507-1.515,2.366,2.366,0,0,1,1.143,1.906s.125-1.269.237-1.26.8,1.366.311,2.059a4.28,4.28,0,0,1,.586,2.589C238.949,83.388,237.29,87.171,236.3,87.148Z" transform="translate(-181.157 -51.166)" fill="#263238"/>
        <path id="Path_9447" data-name="Path 9447" d="M229.546,81.437a6.729,6.729,0,0,0,1.589,1.241,4.517,4.517,0,0,0,2.161.353,7,7,0,0,0,2.156-.465c.6-.237,1.185-.567,1.808-.748.158-.046.242.186.125.274a7.2,7.2,0,0,1-4.3,1.394,4.146,4.146,0,0,1-3.551-2.04A.009.009,0,0,1,229.546,81.437Z" transform="translate(-181.634 -53.486)" fill="#263238"/>
        <path id="Path_9448" data-name="Path 9448" d="M238.8,91.953s1.859-1.961,2.789-1.26-.73,3.718-1.966,3.964a1.2,1.2,0,0,1-1.5-.883Z" transform="translate(-184.39 -56.408)" fill="#d3766a"/>
        <path id="Path_9449" data-name="Path 9449" d="M241.389,92.016v.033a3.191,3.191,0,0,0-1.859,1.641.665.665,0,0,1,1.009-.028.028.028,0,0,1-.028.042.744.744,0,0,0-.846.13,3.515,3.515,0,0,0-.465.595c-.051.065-.177,0-.135-.074h0C239.214,93.289,240.25,91.946,241.389,92.016Z" transform="translate(-184.689 -56.88)" fill="#263238"/>
        <path id="Path_9450" data-name="Path 9450" d="M229.544,104.6l1.975,3.909,4.592-5.577,1.566,1.52s-4.215,8.566-4.28,8.2l-1.971-3.346-2.2,2.635-.335-6.112Z" transform="translate(-181.428 -60.383)" fill="#ebebeb"/>
        <path id="Path_9451" data-name="Path 9451" d="M228.868,109.861c-.023-1.013-.07-2.031-.046-3.04,0-.037.056-.056.07,0a56.125,56.125,0,0,1,.428,5.74h0c.093-.116,2.05-2.324,2.073-2.324.409.521,1.859,2.956,1.957,3.184.669-1.362,3.253-6.321,4.057-7.622.028-.037.084,0,.065.028-.567,1.427-3.969,8.1-4.029,8.082a38.182,38.182,0,0,1-2.064-3.537,25.721,25.721,0,0,1-2.3,2.789,31.57,31.57,0,0,1-.209-3.3Z" transform="translate(-181.403 -61.298)" fill="#263238"/>
        <path id="Path_9452" data-name="Path 9452" d="M244.894,129.369l.386-1.85,1.817.511-3.881-6.4-2.2,1.334Z" transform="translate(-185.317 -66.385)" fill="#f2b636"/>
        <path id="Path_9453" data-name="Path 9453" d="M245.089,124.719l-1.989,1.687-2.087-3.439,2.2-1.339Z" transform="translate(-185.317 -66.382)" fill="#d2991e"/>
        <path id="Path_9454" data-name="Path 9454" d="M239.043,129.888l-.79-1.71-1.655.911,2.333-7.111,2.445.8Z" transform="translate(-183.9 -66.494)" fill="#f2b636"/>
        <path id="Path_9455" data-name="Path 9455" d="M238.371,125.405l2.319,1.194,1.255-3.82-2.445-.809Z" transform="translate(-184.469 -66.492)" fill="#d2991e"/>
        <path id="Path_9456" data-name="Path 9456" d="M239.4,116.22l.623.293.618-.3.5.469.683-.093.325.6.679.121.125.674.6.325-.088.679.479.493-.293.623.3.618-.469.5.093.679-.6.33-.121.674-.674.13-.325.6-.679-.088-.5.474-.618-.293-.618.3-.5-.474-.679.093-.33-.6-.679-.121-.125-.674-.6-.325.088-.679-.474-.5.293-.618-.3-.618.474-.5-.1-.683.6-.33.121-.674.674-.125.325-.6.679.084Z" transform="translate(-183.749 -64.646)" fill="#f2b636"/>
        <path id="Path_9457" data-name="Path 9457" d="M243.484,120.027a3.063,3.063,0,1,1-1.234-2A3.067,3.067,0,0,1,243.484,120.027Z" transform="translate(-184.154 -65.041)" fill="#7e59d1"/>
      </g>
      <g id="freepik--character-1--inject-4" transform="translate(13.045 35.096)">
        <path id="Path_9458" data-name="Path 9458" d="M102.124,297.013c-1.027.321-30.986-.33-32.069-1.06-.418-.27,2.147-28.648,2.147-28.648l19,.363-2.161,18.986s11.033,5.238,12.158,6.167S103.151,296.7,102.124,297.013Z" transform="translate(-47.592 -137.56)" fill="#f7a9a0"/>
        <path id="Path_9459" data-name="Path 9459" d="M102.1,307.375c-1.022.316-30.986-.33-32.069-1.06a28.329,28.329,0,0,1,.3-6.716c5.433.93,24.823,3.885,26.333,3,1.055-.618.121-1.585-.739-2.236a52.149,52.149,0,0,1,5.261,2.821C102.294,304.108,103.131,307.059,102.1,307.375Z" transform="translate(-47.572 -147.922)" fill="#263238"/>
        <path id="Path_9460" data-name="Path 9460" d="M85.319,242.418l-18.656-.265s3.718-44.678,3.541-45.547c-.2-1.1-13.432-52.983-13.432-52.983H74.578s14.04,48.368,14.542,53.043C89.939,204.178,85.319,242.418,85.319,242.418Z" transform="translate(-43.345 -97.874)" fill="#f7a9a0"/>
        <path id="Path_9461" data-name="Path 9461" d="M69.168,297.107c-1.027.321-30.986-.33-32.069-1.06-.418-.27,1.148-28.667,1.148-28.667l18.716.367-.93,19s11.052,5.233,12.172,6.163S70.195,296.8,69.168,297.107Z" transform="translate(-37.01 -137.584)" fill="#f7a9a0"/>
        <path id="Path_9462" data-name="Path 9462" d="M69.159,307.476c-1.022.316-30.986-.33-32.069-1.06a52.477,52.477,0,0,1,0-6.72c5.433.93,25.13,3.89,26.636,3,1.055-.618.121-1.585-.739-2.236a52.163,52.163,0,0,1,5.261,2.821C69.35,304.208,70.186,307.164,69.159,307.476Z" transform="translate(-37.001 -147.952)" fill="#263238"/>
        <path id="Path_9463" data-name="Path 9463" d="M81.433,304.674a3.253,3.253,0,0,0-1.492-1.543c-.813-.465-1.655-.878-2.491-1.3s-1.7-.86-2.658-1.287c-.051-.023-.084,0-.037.033a24.012,24.012,0,0,1,2.352,1.348c.753.465,1.529.864,2.324,1.287a3.839,3.839,0,0,1,1.724,1.487,6.381,6.381,0,0,1,.576,2.287c0,.065.051.06.051,0A6.27,6.27,0,0,0,81.433,304.674Z" transform="translate(-49.108 -148.223)" fill="#455a64"/>
        <path id="Path_9464" data-name="Path 9464" d="M67.866,143.61a78.69,78.69,0,0,1-2.552,15.235c-.163.558-.339,1.1-.53,1.627a31.565,31.565,0,0,0-5.164,2.575s-1.283,32.557-1.26,34.583c.084,7.562-1.859,44.408-1.859,44.408l-18.809-.181s1.952-41.661,1.957-44.436c0-4.452,3.946-53.8,3.946-53.8Z" transform="translate(-37.223 -97.87)" fill="#f7a9a0"/>
        <path id="Path_9465" data-name="Path 9465" d="M68.992,143.624H44.155a35.1,35.1,0,0,0-1.315,17.921l-3.476,46.7s16.773,2.524,27.072,2.524a45.507,45.507,0,0,0,17.587-3.393s.07-7.9-.223-10.792S68.992,143.624,68.992,143.624Z" transform="translate(-37.759 -97.874)" fill="#263238"/>
        <path id="Path_9466" data-name="Path 9466" d="M74.488,94.816a105.625,105.625,0,0,1,0,15.672c-.4,4.025-2.087,7.334-6.27,8.324-3.876.93-9.4.846-12.683-1.729a5.355,5.355,0,0,1-1.957-4.782c.139-2.64,2.226-17.071,2.854-21.57a46.6,46.6,0,0,1,1.6-8.171c1.808-5.577,4.555-5.512,4.94-5.624a7.086,7.086,0,0,1,5.442-.2,5.856,5.856,0,0,1,3.569,3.174C74.121,84.377,74.214,89.973,74.488,94.816Z" transform="translate(-42.316 -76.278)" fill="#263238"/>
        <path id="Path_9467" data-name="Path 9467" d="M61.657,78.349c-3.309,1.548-4.095,5.159-4.9,8.4-1.115,4.5-2.152,9.03-2.97,13.6-.4,2.2-.739,4.406-1.013,6.618a34.546,34.546,0,0,0-.539,6.507c.237,3.541,3.476,5.154,6.614,5.656a.121.121,0,0,0,.046-.237,9.271,9.271,0,0,1-4.945-2.175c-1.706-1.7-1.506-3.923-1.306-6.13.344-3.765.9-7.506,1.594-11.219s1.515-7.413,2.4-11.089c.837-3.5,1.45-8.11,5.038-9.89a.028.028,0,1,0-.019-.037Z" transform="translate(-41.88 -76.924)" fill="#263238"/>
        <path id="Path_9468" data-name="Path 9468" d="M80.587,84.289c-.627-2.7-2.036-5.345-4.885-6.13h0c3.681,1.171,4.578,5.2,5.071,8.556q.772,5.312,1.153,10.662c.246,3.43.423,6.888.353,10.327-.07,3.718-.744,7.19-2.937,10.253-.046.06.042.139.093.079,2.161-2.477,2.877-5.889,3.049-9.077a96.161,96.161,0,0,0-.372-12.674A82.117,82.117,0,0,0,80.587,84.289Z" transform="translate(-49.419 -76.869)" fill="#263238"/>
        <path id="Path_9469" data-name="Path 9469" d="M70.948,109.8c2.547,5.187,13.394,17.707,19.181,18,4.648.232,17.977-5.047,21.263-6.446,2.789-1.18-2.463-12.683-4.861-12.121-2.988.706-12.744,7.436-15.491,6.906-1.078-.209-7.9-4.308-16.141-9.337C71.729,104.857,69.442,106.706,70.948,109.8Z" transform="translate(-47.741 -85.803)" fill="#f7a9a0"/>
        <path id="Path_9470" data-name="Path 9470" d="M127.707,120.337a59.771,59.771,0,0,0,8.366-4.55c1.394-1.153,5.187-4.768,4.411-5.93s-1.966-.191-1.966-.191,1.357-1.78.465-2.877-2.7.465-2.7.465,1.26-1.929.3-2.961-2.514.851-2.514.851,1.236-1.71.084-2.226c-1.394-.618-3.3,2.789-4.945,3.95-.372.26-7.929,4.792-7.929,4.792Z" transform="translate(-64.043 -84.789)" fill="#f7a9a0"/>
        <path id="Path_9471" data-name="Path 9471" d="M137.937,105.973a10,10,0,0,1-4.964,4.694.046.046,0,0,0,.033.084c2.561-1.092,4.039-1.966,5.057-4.717C138.118,105.9,138.011,105.852,137.937,105.973Z" transform="translate(-67.789 -85.772)" fill="#263238"/>
        <path id="Path_9472" data-name="Path 9472" d="M141,109.027a15.223,15.223,0,0,1-5.345,5c-.037,0,0,.084.037.065,2.593-1.362,4.043-2.268,5.419-4.959C141.167,109.008,141.07,108.915,141,109.027Z" transform="translate(-68.649 -86.757)" fill="#263238"/>
        <path id="Path_9473" data-name="Path 9473" d="M143.762,112.96a13.631,13.631,0,0,1-5.656,4.587.053.053,0,0,0,.042.1,9.681,9.681,0,0,0,5.675-4.62C143.916,112.867,143.874,112.821,143.762,112.96Z" transform="translate(-69.432 -88.009)" fill="#263238"/>
        <path id="Path_9474" data-name="Path 9474" d="M117.536,111.128a35.659,35.659,0,0,1,3.351-3.978c1.218-1.074,7.227-3.388,7.8-2.115.739,1.636-2.468,3.658-4.183,4.443,0,0,1.715,3.788-.27,5.74S117.536,111.128,117.536,111.128Z" transform="translate(-62.842 -85.373)" fill="#f7a9a0"/>
        <path id="Path_9475" data-name="Path 9475" d="M131.97,105.967c-.4,1.98-2.7,2.868-4.294,3.751a.167.167,0,0,0-.037.274c.614,1.636,1,4.122-.046,5.642-.028.042.033.093.065.051,1.348-1.473,1.162-3.95.376-5.7,1.645-.883,3.909-1.859,3.955-4.016C131.989,105.958,131.97,105.953,131.97,105.967Z" transform="translate(-66.066 -85.789)" fill="#263238"/>
        <path id="Path_9476" data-name="Path 9476" d="M102.456,110.176l1.092,14.719s-9.918,3.946-14.515,3.114-14.408-10.9-17.563-15.7-2.658-9.537,4.313-5.633,14.849,8.691,15.072,8.775S102.456,110.176,102.456,110.176Z" transform="translate(-47.464 -85.554)" fill="#7e59d1"/>
        <path id="Path_9477" data-name="Path 9477" d="M73.228,110.251a.511.511,0,1,1-.148-.365A.511.511,0,0,1,73.228,110.251Zm6.507-.339a.5.5,0,0,0-.13.339.511.511,0,0,0,1,.163Zm.381,11.075a.506.506,0,1,0,.019,0Zm7.436,0a.511.511,0,1,0,.511.511.511.511,0,0,0-.511-.511Zm7.436,0a.522.522,0,1,1-.014,0Zm7.436,0a.556.556,0,1,1-.033,0Zm-25.966-5.633a.556.556,0,1,1-.033,0Zm7.436,0a.6.6,0,1,1-.051,0Zm14.84,0a.587.587,0,1,1-.051,0ZM91.3,126.6a.547.547,0,1,1-.033,0Zm7.436,0a.587.587,0,1,1-.051,0Z" transform="translate(-48.297 -87.001)" fill="#fff"/>
        <path id="Path_9478" data-name="Path 9478" d="M113.293,121.679c-.06-1.1-.246-5.456-.172-6.535,0-.033.056-.023.06,0,.2,1.069.493,5.447.553,6.544.116,2.184.27,4.387.186,6.581a.04.04,0,0,1-.079,0C113.511,126.1,113.442,123.878,113.293,121.679Z" transform="translate(-61.42 -88.73)" fill="#263238"/>
        <path id="Path_9479" data-name="Path 9479" d="M93.837,127.883a14.473,14.473,0,0,1-4.8.237c-4.6-.837-14.408-10.9-17.563-15.7-1.975-3.012-2.514-6-.93-6.841Z" transform="translate(-47.466 -85.666)" fill="#2a2a2a" opacity="0.1"/>
        <path id="Path_9480" data-name="Path 9480" d="M72.7,136.5H69.814l-1.427-1.859-1.329,1.836H43.764s7.083-24.567,12.888-30.451a5.294,5.294,0,0,1,7.734-.372c.521.465,7.394,8.979,7.9,11.907.423,2.584-1.743,5.387-1.743,5.387Z" transform="translate(-39.171 -85.211)" fill="#ebebeb"/>
        <path id="Path_9481" data-name="Path 9481" d="M72.7,134.129H43.757s7.083-22.188,12.888-28.072a5.294,5.294,0,0,1,7.734-.372c.521.465,7.394,8.979,7.9,11.907.423,2.584-1.743,5.387-1.743,5.387Z" transform="translate(-39.169 -85.22)" fill="#7e59d1"/>
        <path id="Path_9482" data-name="Path 9482" d="M58.823,110.251a.511.511,0,1,1-.148-.365A.511.511,0,0,1,58.823,110.251Zm6.906-.516a.516.516,0,1,0,.511.516.516.516,0,0,0-.511-.516ZM51.322,121.219c-.107.26-.214.521-.325.781a.511.511,0,0,0,.409-.5.465.465,0,0,0-.084-.279Zm6.971-.232a.5.5,0,1,0,.019,0Zm7.436,0a.511.511,0,1,0,.511.511A.511.511,0,0,0,65.729,120.987Zm7.436,0a.548.548,0,1,1-.019,0Zm-18.544-5.633a.535.535,0,1,1-.019,0Zm7.436,0a.563.563,0,1,1-.037,0Zm7.436,0a.6.6,0,1,1-.056,0ZM50.95,132.234a.585.585,0,1,1-.056,0Zm7.436,0a.634.634,0,1,1-.074,0Zm7.436,0a.68.68,0,1,1-.093,0Zm7.436,0a.516.516,0,1,0,.487.242.516.516,0,0,0-.487-.242ZM54.715,126.6a.736.736,0,1,1-.112,0Zm7.436,0a.808.808,0,1,1-.13,0Zm7.436,0a.9.9,0,1,1-.149,0Z" transform="translate(-41.31 -87.001)" fill="#fff"/>
        <path id="Path_9483" data-name="Path 9483" d="M74.741,130.067a20.018,20.018,0,0,0-2.984.283c-.465.093-.971.2-1.455.325-.237.06-.465.116-.72.167a3.1,3.1,0,0,1-.772.093v.037a5.477,5.477,0,0,0,.73.033,5.3,5.3,0,0,0,.711-.084c.493-.088.985-.2,1.483-.288,1-.186,2-.372,3.016-.488C74.8,130.141,74.788,130.062,74.741,130.067Z" transform="translate(-47.208 -93.524)" fill="#263238"/>
        <path id="Path_9484" data-name="Path 9484" d="M78.742,131.473a20.736,20.736,0,0,0-2.459-.284H75.048l-.59.028c-.218,0-.432.056-.651.065v.037c.2,0,.409.028.613.037l.618.023,1.232.056c.827.028,1.645.06,2.468.121a.042.042,0,0,0,0-.084Z" transform="translate(-48.811 -93.884)" fill="#263238"/>
        <path id="Path_9485" data-name="Path 9485" d="M66.382,100.807c.1.465,2.282,3.718,4.49,3.681.72,0,.851-3.937.851-3.937l.074-.284,1.064-4.029-4.648-3.253-.679-.428s-.214,1.12-.465,2.519a.392.392,0,0,1-.037.2.637.637,0,0,0-.042.228c-.042.2-.084.418-.121.632s-.056.321-.079.493-.051.335-.079.507A26.89,26.89,0,0,0,66.382,100.807Z" transform="translate(-46.428 -81.489)" fill="#f7a9a0"/>
        <path id="Path_9486" data-name="Path 9486" d="M67.346,95.059a8.389,8.389,0,0,0,4.745,5.182l1.064-4.03-4.648-3.253-.679-.428S67.621,93.66,67.346,95.059Z" transform="translate(-46.738 -81.48)" fill="#263238"/>
        <path id="Path_9487" data-name="Path 9487" d="M78.138,84.5c1.422,7.171-2.714,8.83-4.262,9.137-1.394.279-6.219,1.041-8.366-5.949s.73-9.913,3.909-10.717S76.716,77.327,78.138,84.5Z" transform="translate(-45.91 -76.418)" fill="#f7a9a0"/>
        <path id="Path_9488" data-name="Path 9488" d="M82.081,86.3a4.522,4.522,0,0,1-.5,0,.813.813,0,0,1-.511-.116.256.256,0,0,1-.056-.311.641.641,0,0,1,.6-.26.93.93,0,0,1,.646.228.279.279,0,0,1-.177.46Z" transform="translate(-51.113 -79.26)" fill="#263238"/>
        <path id="Path_9489" data-name="Path 9489" d="M75.168,87.462a4.109,4.109,0,0,0,.465-.186.813.813,0,0,0,.465-.284.256.256,0,0,0-.056-.311.627.627,0,0,0-.651-.037.93.93,0,0,0-.53.432.274.274,0,0,0,.307.386Z" transform="translate(-49.141 -79.568)" fill="#263238"/>
        <path id="Path_9490" data-name="Path 9490" d="M77.332,90.2s-.033.028-.028.051c.116.465.163,1.06-.246,1.306v.028C77.587,91.4,77.517,90.638,77.332,90.2Z" transform="translate(-49.854 -80.731)" fill="#263238"/>
        <path id="Path_9491" data-name="Path 9491" d="M76.415,89.572c-.8.1-.544,1.682.2,1.594S77.1,89.489,76.415,89.572Z" transform="translate(-49.49 -80.53)" fill="#263238"/>
        <path id="Path_9492" data-name="Path 9492" d="M75.792,89.76c-.125.112-.237.293-.4.339s-.363-.093-.516-.237c0,0-.028,0-.023.023.042.307.209.6.544.595s.465-.311.5-.627C75.9,89.792,75.839,89.718,75.792,89.76Z" transform="translate(-49.146 -80.587)" fill="#263238"/>
        <path id="Path_9493" data-name="Path 9493" d="M81.437,89.4s.042,0,.046.037c.056.493.209,1.05.679,1.148v.028C81.623,90.621,81.437,89.882,81.437,89.4Z" transform="translate(-51.259 -80.477)" fill="#263238"/>
        <path id="Path_9494" data-name="Path 9494" d="M81.825,88.541c.781-.181,1.083,1.394.358,1.566S81.17,88.689,81.825,88.541Z" transform="translate(-51.266 -80.195)" fill="#263238"/>
        <path id="Path_9495" data-name="Path 9495" d="M82.483,88.5c.139.056.293.186.465.167s.274-.218.353-.4h.028a.637.637,0,0,1-.256.748c-.256.112-.5-.116-.627-.4C82.4,88.564,82.427,88.471,82.483,88.5Z" transform="translate(-51.575 -80.112)" fill="#263238"/>
        <path id="Path_9496" data-name="Path 9496" d="M78.306,96.148a.744.744,0,0,0,.465.242,1.315,1.315,0,0,0,.521-.181v.023a.669.669,0,0,1-.6.339.53.53,0,0,1-.437-.4C78.25,96.148,78.283,96.134,78.306,96.148Z" transform="translate(-50.238 -82.639)" fill="#263238"/>
        <path id="Path_9497" data-name="Path 9497" d="M80.125,94.38a2.026,2.026,0,0,1-.646.8.953.953,0,0,1-.534.163c-.414,0-.507-.367-.511-.693a2.268,2.268,0,0,1,.065-.511A2.64,2.64,0,0,0,80.125,94.38Z" transform="translate(-50.295 -81.996)" fill="#263238"/>
        <path id="Path_9498" data-name="Path 9498" d="M79.479,95.411a.953.953,0,0,1-.534.163c-.414,0-.507-.367-.511-.692A.93.93,0,0,1,79.479,95.411Z" transform="translate(-50.295 -82.228)" fill="#ff97b8"/>
        <path id="Path_9499" data-name="Path 9499" d="M80.138,90.778s.223.716.284,1.06c0,.033-.074.06-.191.088h0a1.673,1.673,0,0,1-1.7-.339.037.037,0,0,1,.042-.06,2.5,2.5,0,0,0,1.576.177c0-.1-.428-1.213-.376-1.227a2.937,2.937,0,0,1,.818.042c-.432-1.506-1.1-2.928-1.5-4.429,0-.056.06-.084.084-.042a25.474,25.474,0,0,1,1.794,4.713C81.04,90.95,80.287,90.811,80.138,90.778Z" transform="translate(-50.323 -79.393)" fill="#263238"/>
        <path id="Path_9500" data-name="Path 9500" d="M65.288,87.407c1.706-.186,1.394-2.872,1.394-2.872S68.6,84.131,68.37,81a4.759,4.759,0,0,0,3.816,1.859c.567,0-1.464-1.2-1.464-1.2s2.468,1.757,6.507.5c.284-.088-.855-4.378-4.271-5.48a6.941,6.941,0,0,0-8.008,2.366S62.7,80.436,62.7,82.7,64.629,87.477,65.288,87.407Z" transform="translate(-45.247 -76.259)" fill="#263238"/>
        <path id="Path_9501" data-name="Path 9501" d="M65.6,94.733a1.621,1.621,0,0,0,.344.051,1.148,1.148,0,0,0,.344-.028,1.083,1.083,0,0,0,.4-.181,1.152,1.152,0,0,0,.251-.246,1.394,1.394,0,0,0,.232-.437L66.563,92s-1.859-2.1-2.789-1.418S64.341,94.417,65.6,94.733Z" transform="translate(-45.499 -80.81)" fill="#f7a9a0"/>
        <path id="Path_9502" data-name="Path 9502" d="M64.575,91.955v.033A3.136,3.136,0,0,1,66.4,93.759a.679.679,0,0,0-1.036-.074.028.028,0,0,0,.028.042.762.762,0,0,1,.86.172,3.682,3.682,0,0,1,.465.632c.046.07.181,0,.139-.07h0C66.755,93.359,65.746,91.937,64.575,91.955Z" transform="translate(-45.849 -81.296)" fill="#263238"/>
        <path id="Path_9503" data-name="Path 9503" d="M66.689,96.085a.344.344,0,0,0,.428.218.339.339,0,1,0-.428-.218Z" transform="translate(-46.521 -82.478)" fill="#fff"/>
        <path id="Path_9504" data-name="Path 9504" d="M65.6,95.512a.232.232,0,0,0,.3.153.237.237,0,1,0-.3-.153Z" transform="translate(-46.173 -82.337)" fill="#fff"/>
        <path id="Path_9505" data-name="Path 9505" d="M71.1,104.9l-.981,3.328-4.369-3.676-1,1.394s4.508,6.07,4.508,5.777l1.055-2.886,2.087,1.738-.613-4.81Z" transform="translate(-45.903 -85.338)" fill="#ebebeb"/>
        <path id="Path_9506" data-name="Path 9506" d="M72.182,108.786c-.13-.79-.237-1.589-.4-2.375a.028.028,0,0,0-.056,0c-.084.781.423,3.8.465,4.531h0c-.088-.074-1.929-1.52-1.943-1.492-.246.465-1.022,2.565-1.069,2.756-.716-.962-3.718-4.745-4.536-5.647a.028.028,0,0,0-.042.033c.646,1.032,4.531,6.042,4.578,6.009s1-2.565,1.1-3.049a21.532,21.532,0,0,0,2.189,1.859A24.686,24.686,0,0,0,72.182,108.786Z" transform="translate(-45.857 -85.926)" fill="#263238"/>
        <path id="Path_9560" data-name="Path 9560" d="M60.623,110.661c-.851,7.831-1.018,25.283,3.253,26.626,6.971,2.2,19.58.288,23.206-.8,1.585-.465.376-13.195-1.394-13.213-2.119-.023-15.049,3.021-15.565,2.068C69.83,124.8,68.38,119.7,66,113.449,63.226,106.194,61.032,106.929,60.623,110.661Z" transform="translate(-44.425 -86.411)" fill="#f7a9a0"/>
        <path id="Path_9561" data-name="Path 9561" d="M92.086,129.467s4.387-2.514,7.329-4.025a20.278,20.278,0,0,1,6.079-2.105c2.226-.1,11.619.93,11.419,3.184-.177,2.068-8.129.181-8.129.181s8.194,1.194,7.525,3.639-9.374-.878-9.374-.878,8.394,1.394,7.3,3.83c-.823,1.822-8.872-.744-8.872-.744s7.2,1.264,6.437,3.179c-.846,2.115-8.426.209-8.426.209-2.765,4.531-5.81,5.782-8.277,6.042C94.521,142.015,92.086,129.467,92.086,129.467Z" transform="translate(-54.676 -91.363)" fill="#f7a9a0"/>
        <path id="Path_9562" data-name="Path 9562" d="M113.1,127.514c6.1.423,8.965,2.5,8.877,2.459a35.585,35.585,0,0,0-6.423-1.859c-.953-.181-1.51-.363-2.463-.553A.025.025,0,0,1,113.1,127.514Z" transform="translate(-61.411 -92.705)" fill="#263238"/>
        <path id="Path_9563" data-name="Path 9563" d="M111.423,132.476a20.765,20.765,0,0,1,7.222,1.473c.084.042.046.065-.046.042-1.208-.274-5.968-1.269-7.185-1.487C111.395,132.5,111.4,132.476,111.423,132.476Z" transform="translate(-60.874 -94.297)" fill="#263238"/>
        <path id="Path_9564" data-name="Path 9564" d="M109.687,136.643a15.453,15.453,0,0,1,5.577,1.306c.084.037.028.074-.07.051-1.859-.465-3.277-.851-5.5-1.292a.033.033,0,0,1-.009-.065Z" transform="translate(-60.315 -95.635)" fill="#263238"/>
        <path id="Path_9565" data-name="Path 9565" d="M80.91,123.684l1.971,14.352s-15.658,1.813-19.985-.86c-3.876-2.4-3.253-21.732-2.835-25.692s2.217-5.628,4.685-.874,5.442,14.245,5.517,14.375S80.91,123.684,80.91,123.684Z" transform="translate(-44.3 -86.351)" fill="#7e59d1"/>
        <path id="Path_9566" data-name="Path 9566" d="M62.3,110.251a.511.511,0,1,1-.148-.365.511.511,0,0,1,.148.365Zm-.511,10.736a.511.511,0,1,0,.511.511A.511.511,0,0,0,61.786,120.987Zm7.394,0a.511.511,0,0,0,0,1.022.465.465,0,0,0,.3-.1c-.093-.3-.186-.609-.3-.925Zm-3.686-5.633a.511.511,0,1,0,.511.511.511.511,0,0,0-.511-.511Zm-3.718,16.88a.506.506,0,1,0,.009,0Zm7.436,0a.525.525,0,1,1-.009,0Zm7.436,0a.516.516,0,1,0,.487.242A.516.516,0,0,0,76.649,132.234ZM65.494,126.6a.511.511,0,1,0,.511.511.511.511,0,0,0-.511-.511Zm7.436,0a.535.535,0,1,1-.019,0Zm7.436,0a.577.577,0,1,1-.037,0ZM65.532,137.848a.511.511,0,0,0-.511.511.339.339,0,0,0,0,.139c.27.079.553.153.855.214h0a.493.493,0,0,0,.139-.353.511.511,0,0,0-.521-.511Zm7.436,0a.6.6,0,1,1-.056,0Zm7.436,0a.639.639,0,1,1-.074,0Z" transform="translate(-44.784 -87.001)" fill="#fff"/>
        <path id="Path_9567" data-name="Path 9567" d="M86.573,139.039c-.172-1.083-.776-5.405-.8-6.507,0-.033.051-.033.06,0,.3,1.05,1.018,5.382,1.18,6.465.33,2.166.692,4.341.823,6.535a.04.04,0,1,1-.079,0C87.214,143.422,86.908,141.219,86.573,139.039Z" transform="translate(-52.649 -94.308)" fill="#263238"/>
        <path id="Path_9568" data-name="Path 9568" d="M71.161,122.037c-.688-1.952-1.422-3.89-2.152-5.828,0-.037.051-.06.065-.023.5,1.046.962,2.105,1.394,3.174-.135-.6-.288-1.2-.465-1.8,0-.042.056-.056.07,0a11.87,11.87,0,0,1,.586,2.324c.26.655.516,1.311.758,1.971.353.967,1.813,5.261,1.947,5.758,1.775-.353,3.444-.465,5.238-.739q1.311-.186,2.631-.344a21.924,21.924,0,0,1,2.7-.325c.051,0,.028.26.037.381s-.07.084-.084.033,0-.107-.037-.144c-.4.107-2.152.335-2.6.4l-2.631.372c-1.775.246-5.47.758-5.484.734C72.951,127.531,71.514,123.027,71.161,122.037Z" transform="translate(-47.271 -89.065)" fill="#263238"/>
        <path id="Path_9569" data-name="Path 9569" d="M62.08,140.274a11.471,11.471,0,0,1-.883-2.445c-.228-.837-.409-1.682-.558-2.538a40.084,40.084,0,0,1-.586-5.163c-.125-1.734-.177-3.472-.232-5.21l-.144-5.219c-.112,1.743-.144,3.481-.153,5.224s.051,3.486.149,5.229a34.936,34.936,0,0,0,.674,5.2A15.994,15.994,0,0,0,62.08,140.274Z" transform="translate(-44.228 -90.198)" fill="#263238"/>
        <path id="Path_9570" data-name="Path 9570" d="M59.407,123.91a7.813,7.813,0,0,0-.242-1.283c-.06-.209-.116-.414-.191-.618a6.176,6.176,0,0,0-.237-.613,4.485,4.485,0,0,0,.181,1.3,4.908,4.908,0,0,0,.488,1.218Z" transform="translate(-43.975 -90.742)" fill="#263238"/>
      </g>
      <g id="freepik--Sparkles--inject-4" transform="translate(65.682 42.991)">
        <path id="Path_9571" data-name="Path 9571" d="M169.162,146.4l-1.645.3-.367,1.738-.372-1.738-1.645-.3,1.641-.4.376-1.641.372,1.641Z" transform="translate(-130.751 -106.004)" fill="#7e59d1"/>
        <path id="Path_9572" data-name="Path 9572" d="M151.942,95.472l-1.65.3-.367,1.738-.367-1.738-1.65-.307,1.641-.4.376-1.641.376,1.641Z" transform="translate(-125.224 -89.662)" fill="#7e59d1"/>
        <path id="Path_9573" data-name="Path 9573" d="M128.491,141.515l-1.645.3-.367,1.738-.372-1.738-1.645-.307,1.641-.4.376-1.641.372,1.641Z" transform="translate(-117.701 -104.436)" fill="#7e59d1"/>
        <path id="Path_9574" data-name="Path 9574" d="M207.216,118.1l-.92.167-.2.971-.209-.971-.92-.172.916-.223.214-.916.209.916Z" transform="translate(-143.531 -97.214)" fill="#7e59d1"/>
        <path id="Path_9575" data-name="Path 9575" d="M152.892,156.465l-.92.172-.2.971-.209-.971-.92-.172.92-.223.209-.916.209.916Z" transform="translate(-126.1 -109.524)" fill="#7e59d1"/>
        <path id="Path_9576" data-name="Path 9576" d="M174.743,97.693l-.92.172-.209.971-.2-.971-.92-.172.916-.223.209-.916.214.916Z" transform="translate(-133.112 -90.666)" fill="#7e59d1"/>
        <path id="Path_9577" data-name="Path 9577" d="M201.193,135.318l-.92.172-.2.971-.2-.971-.925-.172.92-.223.209-.916.209.916Z" transform="translate(-141.599 -102.738)" fill="#7e59d1"/>
        <path id="Path_9578" data-name="Path 9578" d="M130.776,108.9l-.92.172-.2.971-.2-.971-.92-.172.916-.223.209-.916.209.916Z" transform="translate(-119.006 -94.26)" fill="#7e59d1"/>
        <path id="Path_9579" data-name="Path 9579" d="M185.525,144.992a.27.27,0,1,0,.234.267A.27.27,0,0,0,185.525,144.992Z" transform="translate(-137.219 -106.208)" fill="#7e59d1"/>
        <path id="Path_9580" data-name="Path 9580" d="M136.163,87.884a.27.27,0,1,0,.234.267A.27.27,0,0,0,136.163,87.884Z" transform="translate(-121.381 -87.884)" fill="#7e59d1"/>
        <path id="Path_9581" data-name="Path 9581" d="M198.829,107.442a.27.27,0,1,0,.234.267A.27.27,0,0,0,198.829,107.442Z" transform="translate(-141.488 -94.159)" fill="#7e59d1"/>
        <path id="Path_9582" data-name="Path 9582" d="M114.668,117.536a.191.191,0,1,0,.161.188A.191.191,0,0,0,114.668,117.536Z" transform="translate(-114.507 -97.398)" fill="#7e59d1"/>
        <path id="Path_9583" data-name="Path 9583" d="M159.041,153.793a.191.191,0,1,0,.161.188A.191.191,0,0,0,159.041,153.793Z" transform="translate(-128.745 -109.032)" fill="#7e59d1"/>
        <path id="Path_9584" data-name="Path 9584" d="M177.038,148.866a.511.511,0,1,0,.511.511.511.511,0,0,0-.511-.511Z" transform="translate(-134.407 -107.451)" fill="#7e59d1"/>
        <path id="Path_9585" data-name="Path 9585" d="M158.6,91.121a.511.511,0,1,0,.511.511A.511.511,0,0,0,158.6,91.121Z" transform="translate(-128.492 -88.922)" fill="#7e59d1"/>
        <path id="Path_9586" data-name="Path 9586" d="M143.136,148.866a.511.511,0,1,0,.511.511.511.511,0,0,0-.511-.511Z" transform="translate(-123.529 -107.451)" fill="#7e59d1"/>
      </g>
    </g>
  </g>
</svg>
