<svg xmlns="http://www.w3.org/2000/svg" xmlns="http://www.w3.org/1999/xlink" width="112" height="86" viewBox="0 0 112 86">
  <defs>
    <clipPath id="work-ex">
      <rect id="Rectangle_29652" data-name="Rectangle 29652" width="112" height="86" transform="translate(612.479 265)" fill="#fff" stroke="#707070" stroke-width="1"/>
    </clipPath>
  </defs>
  <g id="Mask_Group_745" data-name="Mask Group 745" transform="translate(-612.479 -265)" clip-path="url(#work-ex)">
    <g id="Bad_idea-pana" data-name="Bad idea-pana" transform="translate(628.109 264.999)">
      <g id="freepik--background-complete--inject-53" transform="translate(0.758 0)">
        <path id="Path_25872" data-name="Path 25872" d="M54.322,40.5a3.968,3.968,0,0,1,.963-.42l.2-.954L57.1,39.1l.233.947a3.944,3.944,0,0,1,.978.385l.814-.534,1.161,1.12-.507.832a3.9,3.9,0,0,1,.42.963l.954.2.028,1.61-.947.233a3.916,3.916,0,0,1-.385.978l.534.814L59.26,47.811l-.834-.5a3.961,3.961,0,0,1-.963.418l-.2.954-1.61.028-.233-.947a3.972,3.972,0,0,1-.978-.385l-.814.534L52.469,46.79l.5-.834a3.9,3.9,0,0,1-.42-.963l-.954-.2-.028-1.61.947-.233a3.972,3.972,0,0,1,.385-.978l-.534-.814L53.49,40Zm.854,2.152a1.727,1.727,0,1,0,1.213-.528A1.729,1.729,0,0,0,55.176,42.656Z" transform="translate(-12.422 -7.801)" fill="#ebebeb"/>
        <path id="Path_25873" data-name="Path 25873" d="M85.056,42.893a2.6,2.6,0,0,1,.634-.277l.131-.627,1.059-.018.153.623a2.546,2.546,0,0,1,.643.253l.534-.351.764.74-.333.555a2.528,2.528,0,0,1,.275.634l.629.131.018,1.059-.623.153a2.546,2.546,0,0,1-.253.643l.351.536-.74.762-.555-.331a2.67,2.67,0,0,1-.634.276l-.131.627-1.059.018-.153-.623a2.546,2.546,0,0,1-.643-.253l-.536.351-.762-.74.331-.555a2.67,2.67,0,0,1-.275-.634l-.627-.131-.018-1.059.623-.153a2.613,2.613,0,0,1,.251-.643l-.351-.536.74-.762.555.333Zm.566,1.411a1.137,1.137,0,1,0,1.609-.028,1.137,1.137,0,0,0-1.609.028Z" transform="translate(-15.875 -8.114)" fill="#f5f5f5"/>
        <path id="Path_25874" data-name="Path 25874" d="M86.557,28.97a4.856,4.856,0,0,1,1.183-.514l.244-1.172,1.982-.035.285,1.163a4.868,4.868,0,0,1,1.2.473l1.006-.656L93.884,29.6l-.621,1.024a4.861,4.861,0,0,1,.516,1.183l1.17.244.035,1.98-1.163.287a4.822,4.822,0,0,1-.471,1.2l.656,1L92.629,37.95l-1.022-.621a4.867,4.867,0,0,1-1.181.514l-.244,1.172-1.98.035-.285-1.163a4.8,4.8,0,0,1-1.2-.473l-1,.656-1.426-1.376.621-1.022a4.808,4.808,0,0,1-.516-1.185l-1.18-.244-.035-1.98,1.163-.285a4.913,4.913,0,0,1,.473-1.2l-.658-.995,1.376-1.426,1.024.619Zm1.056,2.638a2.126,2.126,0,1,0,3-.052,2.126,2.126,0,0,0-3,.052Z" transform="translate(-15.869 -6.508)" fill="#f5f5f5"/>
        <path id="Path_25875" data-name="Path 25875" d="M56.405,88.359a6.939,6.939,0,1,0-11.721.185l-.913,1.494,5.19,3.173s.544-.819,1.013-1.559a6.943,6.943,0,0,0,6.431-3.293Z" transform="translate(-11.547 -12.02)" fill="#e0e0e0"/>
        <path id="Path_25876" data-name="Path 25876" d="M46.09,91.774c1.163-1.967,2.457-3.853,3.576-5.846.229-.407.451-.819.64-1.248a1.72,1.72,0,0,0,.039-1.708.962.962,0,0,0-1.424-.141,2.971,2.971,0,0,0-1.013,1.322,3.127,3.127,0,0,0,.533,3.258,3.135,3.135,0,0,0,5.4-1.268,1.4,1.4,0,0,0-.307-1.331,1.081,1.081,0,0,0-1.427.165,7.484,7.484,0,0,0-1.141,1.385c-.39.54-.764,1.095-1.133,1.653-.754,1.145-1.479,2.309-2.235,3.456-.174.263-.348.525-.525.784-.083.124.116.239.2.116,1.326-1.945,2.515-3.983,3.894-5.893a8.19,8.19,0,0,1,1.019-1.263,1.22,1.22,0,0,1,.791-.386.667.667,0,0,1,.61.475c.361,1.013-.555,2.121-1.383,2.589a2.9,2.9,0,0,1-4.253-3.058,3,3,0,0,1,.7-1.442c.4-.44,1.174-.913,1.564-.185a1.871,1.871,0,0,1-.246,1.673c-.185.37-.37.719-.571,1.071-1.109,1.945-2.367,3.794-3.5,5.719a.115.115,0,0,0,.2.116Z" transform="translate(-11.801 -12.542)" fill="#ebebeb"/>
        <g id="freepik--2ggvdetif--inject-53" transform="translate(31.83 81.926)">
          <path id="Path_25877" data-name="Path 25877" d="M43.356,95.923a1.849,1.849,0,0,1,.155.508.41.41,0,0,0,.2.3l1.045.638a.41.41,0,0,0,.386.024.764.764,0,0,1,.527-.059Z" transform="translate(-43.356 -95.923)" fill="#e0e0e0"/>
        </g>
        <path id="Path_25878" data-name="Path 25878" d="M43.942,91.884c-.013.02-.765,1.8-1.054,2.481a.9.9,0,0,0,.07.854.841.841,0,0,0,.257.246l2.285,1.4a.9.9,0,0,0,1.022-.026c.425-.4,1.914-2.208,1.914-2.208Z" transform="translate(-11.467 -13.556)" fill="#e0e0e0"/>
        <rect id="Rectangle_29653" data-name="Rectangle 29653" width="0.279" height="4.929" rx="0.14" transform="matrix(0.518, -0.855, 0.855, 0.518, 31.233, 80.658)" fill="#e0e0e0"/>
        <path id="Path_25879" data-name="Path 25879" d="M46.792,96.966a.166.166,0,0,0,.1.009.129.129,0,0,0,.089-.076.126.126,0,0,0-.024-.148c-.214-.135-.54-.324-.924-.555l-3.1-1.867a.1.1,0,0,0-.1,0,.091.091,0,0,0-.041.033.17.17,0,0,0-.026.052.111.111,0,0,0,.024.1.571.571,0,0,0,.1.067l.433.263.817.5,1.383.843.924.571.251.157.065.043.022.017-.024-.013-.067-.037-.257-.152-.937-.555-1.389-.836-.808-.5-.435-.263-.054-.033a.2.2,0,0,1-.057-.043.153.153,0,0,1-.035-.142.215.215,0,0,1,.033-.065.159.159,0,0,1,.057-.048.155.155,0,0,1,.148,0l3.079,1.871c.392.242.712.433.924.577a.137.137,0,0,1,.022.166.141.141,0,0,1-.1.08.122.122,0,0,1-.094-.011Z" transform="translate(-11.456 -13.816)" fill="#ebebeb"/>
        <rect id="Rectangle_29654" data-name="Rectangle 29654" width="0.279" height="5.127" rx="0.14" transform="matrix(0.518, -0.855, 0.855, 0.518, 31.463, 80.094)" fill="#e0e0e0"/>
        <path id="Path_25880" data-name="Path 25880" d="M47.213,96.433a.144.144,0,0,0,.1.011.137.137,0,0,0,.087-.083.128.128,0,0,0-.037-.152l-.967-.577L43.193,93.7a.105.105,0,0,0-.107,0,.1.1,0,0,0-.041.039.131.131,0,0,0-.024.052.111.111,0,0,0,.035.1c.03.022.074.046.109.068l.449.274c.3.185.579.351.851.516l1.437.875.965.6.263.163.067.044.022.015-.024-.011-.07-.041-.266-.155-.973-.582-1.442-.867-.851-.514-.447-.279c-.039-.024-.074-.043-.116-.074a.152.152,0,0,1-.05-.142.172.172,0,0,1,.03-.07.153.153,0,0,1,.057-.052.157.157,0,0,1,.153,0l3.2,1.945c.409.25.74.451.965.6a.139.139,0,0,1,.041.17.15.15,0,0,1-.1.085A.118.118,0,0,1,47.213,96.433Z" transform="translate(-11.485 -13.747)" fill="#ebebeb"/>
        <rect id="Rectangle_29655" data-name="Rectangle 29655" width="0.279" height="5.253" rx="0.14" transform="matrix(0.518, -0.855, 0.855, 0.518, 31.722, 79.547)" fill="#e0e0e0"/>
        <path id="Path_25881" data-name="Path 25881" d="M47.613,95.885a.155.155,0,0,0,.105,0,.139.139,0,0,0,.087-.087.126.126,0,0,0-.048-.152l-1-.6-3.28-1.98a.113.113,0,0,0-.111,0,.107.107,0,0,0-.041.041.116.116,0,0,0-.022.055.105.105,0,0,0,.043.1l.115.07.46.279.869.529,1.47.9.991.608.268.166.068.044.022.017-.024-.013-.072-.041-.272-.159-1-.6-1.479-.889-.871-.525-.46-.279-.118-.072a.157.157,0,0,1-.059-.142.155.155,0,0,1,.028-.074.15.15,0,0,1,.057-.055.159.159,0,0,1,.157,0c1.276.778,2.433,1.479,3.273,1.991l.991.608a.139.139,0,0,1,.05.17.153.153,0,0,1-.1.092A.115.115,0,0,1,47.613,95.885Z" transform="translate(-11.515 -13.679)" fill="#ebebeb"/>
        <path id="Path_25882" data-name="Path 25882" d="M44.3,89.907c-.026.043-.542,1.1-.806,1.642a.723.723,0,0,0,0,.632l.141.292,4.419,2.7h.32a.719.719,0,0,0,.566-.3l1.078-1.47Z" transform="translate(-11.534 -13.341)" fill="#ebebeb"/>
        <path id="Path_25883" data-name="Path 25883" d="M48.693,95.244c0,.011-1.194-.7-2.651-1.592s-2.635-1.62-2.627-1.631,1.193.7,2.651,1.592S48.7,95.233,48.693,95.244Z" transform="translate(-11.533 -13.571)" fill="#e0e0e0"/>
        <path id="Path_25884" data-name="Path 25884" d="M50.1,93.343c0,.013-1.294-.756-2.886-1.716s-2.868-1.749-2.86-1.762,1.294.758,2.884,1.718S50.1,93.332,50.1,93.343Z" transform="translate(-11.635 -13.336)" fill="#e0e0e0"/>
        <path id="Path_25885" data-name="Path 25885" d="M83.148,89.316a4.053,4.053,0,1,0,1.08,6.758l.939.4,1.405-3.262s-.518-.246-.985-.457a4.051,4.051,0,0,0-2.439-3.445Z" transform="translate(-15.248 -13.24)" fill="#e0e0e0"/>
        <path id="Path_25886" data-name="Path 25886" d="M86.006,95.4c-1.294-.533-2.54-1.161-3.85-1.649-.514-.185-1.453-.564-1.768.124s.7,1.154,1.2,1.233a1.877,1.877,0,1,0,.507-3.718.873.873,0,0,0-.764.288.614.614,0,0,0,.076.762,3.1,3.1,0,0,0,.965.647c.414.22.839.423,1.265.623.839.394,1.69.764,2.522,1.172.133.065.25-.133.116-.2-1.17-.573-2.376-1.072-3.537-1.664-.316-.163-1.644-.721-1.2-1.23a.832.832,0,0,1,.834-.111,1.7,1.7,0,0,1,.76.5A1.655,1.655,0,0,1,81.927,94.9a1.71,1.71,0,0,1-.906-.244c-.309-.185-.692-.643-.214-.891a1.346,1.346,0,0,1,1,.1c.226.078.449.163.669.251,1.172.468,2.306,1.021,3.471,1.5C86.082,95.679,86.141,95.455,86.006,95.4Z" transform="translate(-15.558 -13.502)" fill="#ebebeb"/>
        <g id="freepik--2ggvdetif--inject-53-2" data-name="freepik--2ggvdetif--inject-53" transform="translate(72.203 81.693)">
          <path id="Path_25887" data-name="Path 25887" d="M88.67,97.113a1.1,1.1,0,0,1,.281-.131.242.242,0,0,0,.157-.137l.281-.658a.244.244,0,0,0-.017-.226.442.442,0,0,1-.08-.3Z" transform="translate(-88.67 -95.661)" fill="#e0e0e0"/>
        </g>
        <path id="Path_25888" data-name="Path 25888" d="M86.275,96.86c.013,0,1.109.3,1.522.4a.525.525,0,0,0,.488-.111.486.486,0,0,0,.12-.17c.122-.281.618-1.435.618-1.435a.527.527,0,0,0-.1-.588c-.263-.218-1.433-.924-1.433-.924Z" transform="translate(-16.206 -13.791)" fill="#e0e0e0"/>
        <rect id="Rectangle_29656" data-name="Rectangle 29656" width="2.879" height="0.163" rx="0.081" transform="translate(71.371 83.525) rotate(-66.93)" fill="#e0e0e0"/>
        <path id="Path_25889" data-name="Path 25889" d="M88.984,94.889a.074.074,0,0,0,0-.057.072.072,0,0,0-.052-.044.07.07,0,0,0-.083.026c-.059.135-.142.338-.248.586l-.823,1.936a.059.059,0,0,0,0,.061.063.063,0,0,0,.022.022.118.118,0,0,0,.031.009.059.059,0,0,0,.055-.022.351.351,0,0,0,.031-.065c.039-.091.078-.185.115-.272.078-.185.15-.349.22-.512.141-.327.268-.621.37-.869s.194-.446.253-.586l.07-.157.018-.043v0l-.017.043c-.017.037-.037.092-.067.161-.057.141-.142.34-.246.588s-.229.544-.37.871l-.218.514-.115.272-.015.035a.24.24,0,0,1-.02.035.087.087,0,0,1-.08.031.105.105,0,0,1-.041-.013.081.081,0,0,1-.031-.03.092.092,0,0,1-.009-.085l.845-1.94c.107-.248.185-.447.257-.586a.089.089,0,0,1,.148.024.061.061,0,0,1,0,.065Z" transform="translate(-16.365 -13.871)" fill="#ebebeb"/>
        <rect id="Rectangle_29657" data-name="Rectangle 29657" width="2.994" height="0.163" rx="0.081" transform="translate(71.025 83.44) rotate(-66.93)" fill="#e0e0e0"/>
        <path id="Path_25890" data-name="Path 25890" d="M88.644,94.674a.08.08,0,0,0,0-.059.087.087,0,0,0-.055-.044.074.074,0,0,0-.085.035l-.255.61c-.22.516-.52,1.226-.852,2.012a.065.065,0,0,0,0,.063.066.066,0,0,0,.026.02.083.083,0,0,0,.033.009.063.063,0,0,0,.055-.03.263.263,0,0,1,.03-.068q.061-.144.122-.283c.078-.185.155-.37.227-.533l.388-.9c.109-.255.2-.462.263-.608l.072-.165.02-.043v0l-.017.044-.068.166-.255.612-.37.9c-.072.17-.148.349-.227.534l-.12.283a.77.77,0,0,1-.031.072.091.091,0,0,1-.079.041.1.1,0,0,1-.043-.011.09.09,0,0,1-.035-.03.094.094,0,0,1-.018-.092L88.23,95.2l.263-.608a.083.083,0,0,1,.1-.037.087.087,0,0,1,.057.05.068.068,0,0,1,0,.065Z" transform="translate(-16.325 -13.848)" fill="#ebebeb"/>
        <rect id="Rectangle_29658" data-name="Rectangle 29658" width="3.067" height="0.163" rx="0.081" transform="translate(70.688 83.337) rotate(-66.93)" fill="#e0e0e0"/>
        <path id="Path_25891" data-name="Path 25891" d="M88.294,94.482a.08.08,0,0,0,0-.061.078.078,0,0,0-.057-.044.074.074,0,0,0-.083.041l-.272.625-.873,2.06a.068.068,0,0,0,0,.065.083.083,0,0,0,.061.028.067.067,0,0,0,.055-.031.228.228,0,0,1,.031-.074c.041-.1.081-.194.122-.288.081-.185.159-.37.233-.545l.4-.924.27-.623c.031-.07.057-.128.074-.168l.02-.043a.041.041,0,0,1,0-.015V94.5l-.017.044-.07.172-.248.631-.39.924-.233.555-.122.288c-.011.026-.02.048-.033.074a.128.128,0,0,1-.122.046A.083.083,0,0,1,87,97.2a.089.089,0,0,1-.011-.091l.88-2.056.27-.636a.083.083,0,0,1,.094-.043.085.085,0,0,1,.061.048A.072.072,0,0,1,88.294,94.482Z" transform="translate(-16.283 -13.828)" fill="#ebebeb"/>
        <path id="Path_25892" data-name="Path 25892" d="M85.107,96.746c.026.011.68.222,1.015.331a.423.423,0,0,0,.37-.052l.159-.105,1.194-2.773-.031-.185a.427.427,0,0,0-.218-.3l-.939-.5Z" transform="translate(-16.079 -13.695)" fill="#ebebeb"/>
        <path id="Path_25893" data-name="Path 25893" d="M87.837,93.858s-.309.74-.7,1.664-.719,1.664-.725,1.653.307-.74.7-1.664S87.83,93.854,87.837,93.858Z" transform="translate(-16.221 -13.772)" fill="#e0e0e0"/>
        <path id="Path_25894" data-name="Path 25894" d="M86.622,93.167s-.331.814-.754,1.81-.775,1.8-.782,1.8.331-.814.754-1.81S86.615,93.163,86.622,93.167Z" transform="translate(-16.077 -13.696)" fill="#e0e0e0"/>
        <path id="Path_25895" data-name="Path 25895" d="M13.289,89.092a4.053,4.053,0,1,0,1.08,6.758l.939.4,1.405-3.262s-.518-.246-.986-.457A4.051,4.051,0,0,0,13.289,89.092Z" transform="translate(-7.631 -13.216)" fill="#e0e0e0"/>
        <path id="Path_25896" data-name="Path 25896" d="M16.146,95.178c-1.294-.533-2.54-1.161-3.85-1.649-.514-.185-1.453-.564-1.768.124s.7,1.154,1.2,1.233a1.879,1.879,0,1,0,.5-3.722.869.869,0,0,0-.762.288.614.614,0,0,0,.078.767,3.065,3.065,0,0,0,.965.647c.414.22.838.423,1.263.623.841.394,1.692.764,2.524,1.167.133.065.25-.133.116-.2-1.17-.573-2.376-1.072-3.537-1.664-.318-.163-1.644-.721-1.2-1.23a.831.831,0,0,1,.834-.111,1.7,1.7,0,0,1,.76.5,1.655,1.655,0,0,1-1.207,2.725,1.722,1.722,0,0,1-.908-.239c-.307-.185-.69-.643-.213-.891a1.346,1.346,0,0,1,1,.1c.226.078.449.163.669.251,1.172.468,2.306,1.021,3.471,1.5.139.057.2-.166.063-.224Z" transform="translate(-7.94 -13.477)" fill="#ebebeb"/>
        <g id="freepik--2ggvdetif--inject-53-3" data-name="freepik--2ggvdetif--inject-53" transform="translate(9.961 81.495)">
          <path id="Path_25897" data-name="Path 25897" d="M18.81,96.889a1.1,1.1,0,0,1,.281-.131.235.235,0,0,0,.155-.137l.283-.656a.244.244,0,0,0-.017-.226.444.444,0,0,1-.08-.3Z" transform="translate(-18.81 -95.439)" fill="#e0e0e0"/>
        </g>
        <path id="Path_25898" data-name="Path 25898" d="M16.415,96.636c.013,0,1.109.3,1.52.4a.529.529,0,0,0,.49-.111.493.493,0,0,0,.12-.17c.122-.281.618-1.435.618-1.435a.527.527,0,0,0-.1-.588c-.263-.218-1.433-.924-1.433-.924Z" transform="translate(-8.589 -13.767)" fill="#e0e0e0"/>
        <rect id="Rectangle_29659" data-name="Rectangle 29659" width="2.879" height="0.163" rx="0.081" transform="translate(9.131 83.327) rotate(-66.93)" fill="#e0e0e0"/>
        <path id="Path_25899" data-name="Path 25899" d="M19.124,94.667a.078.078,0,0,0-.054-.1.07.07,0,0,0-.083.026c-.059.135-.142.338-.248.586-.211.5-.5,1.182-.821,1.936a.07.07,0,0,0,0,.061.09.09,0,0,0,.024.022.088.088,0,0,0,.031,0,.059.059,0,0,0,.055-.022.351.351,0,0,0,.031-.065c.039-.091.078-.185.115-.272.078-.185.15-.349.22-.512l.37-.869c.107-.246.185-.446.253-.586l.07-.157c0-.018.015-.031.018-.043a.052.052,0,0,0,0-.013v.015l-.017.043-.067.161c-.057.141-.142.34-.246.588l-.37.871-.218.514-.115.272-.015.035a.24.24,0,0,1-.02.035.087.087,0,0,1-.08.031.1.1,0,0,1-.072-.043.087.087,0,0,1-.009-.085l.843-1.916c.107-.248.185-.447.257-.586a.089.089,0,0,1,.148.024A.039.039,0,0,1,19.124,94.667Z" transform="translate(-8.747 -13.848)" fill="#ebebeb"/>
        <rect id="Rectangle_29660" data-name="Rectangle 29660" width="2.994" height="0.163" rx="0.081" transform="translate(8.784 83.242) rotate(-66.93)" fill="#e0e0e0"/>
        <path id="Path_25900" data-name="Path 25900" d="M18.784,94.449a.089.089,0,0,0,0-.059.078.078,0,0,0-.055-.044.072.072,0,0,0-.083.035l-.255.61c-.22.516-.521,1.226-.852,2.012a.065.065,0,0,0,0,.063.067.067,0,0,0,.026.02.068.068,0,0,0,.089-.019l.03-.07.12-.283.229-.533c.146-.34.277-.645.386-.9l.264-.608.072-.165.02-.043v0l-.017.043-.068.166-.255.612-.383.9c-.072.17-.148.349-.227.534L17.708,97a.78.78,0,0,1-.031.072.092.092,0,0,1-.08.041.1.1,0,0,1-.043-.011.078.078,0,0,1-.035-.03.094.094,0,0,1-.011-.089c.337-.784.64-1.492.86-2.008l.264-.608a.083.083,0,0,1,.1-.037.087.087,0,0,1,.057.05A.068.068,0,0,1,18.784,94.449Z" transform="translate(-8.707 -13.823)" fill="#ebebeb"/>
        <path id="Path_25901" data-name="Path 25901" d="M18.436,94.258,17.3,96.937a.078.078,0,0,1-.1.041h0a.078.078,0,0,1-.043-.1L18.294,94.2a.078.078,0,0,1,.1-.041h0a.078.078,0,0,1,.041.1Z" transform="translate(-8.668 -13.803)" fill="#e0e0e0"/>
        <path id="Path_25902" data-name="Path 25902" d="M18.433,94.257a.079.079,0,0,0,0-.061.078.078,0,0,0-.057-.044.074.074,0,0,0-.083.041l-.263.625-.873,2.06a.068.068,0,0,0,0,.065.078.078,0,0,0,.028.02.068.068,0,0,0,.033,0,.067.067,0,0,0,.055-.031l.03-.074c.043-.1.083-.194.124-.288.081-.185.159-.37.233-.545.15-.348.285-.66.4-.924l.27-.623.074-.168c0-.017.015-.031.02-.043a.041.041,0,0,1,0-.015v.015l-.017.044-.07.172-.263.625c-.111.264-.244.579-.392.924-.074.174-.152.357-.231.555l-.124.288a.2.2,0,0,1-.031.076.1.1,0,0,1-.078.046.113.113,0,0,1-.044-.011.083.083,0,0,1-.037-.03.089.089,0,0,1-.011-.091L18,94.808l.27-.621a.086.086,0,0,1,.155.006A.076.076,0,0,1,18.433,94.257Z" transform="translate(-8.665 -13.802)" fill="#ebebeb"/>
        <path id="Path_25903" data-name="Path 25903" d="M15.247,96.522c.026.011.679.222,1.015.331a.423.423,0,0,0,.37-.052l.159-.105,1.194-2.773-.031-.185a.427.427,0,0,0-.218-.3l-.939-.5Z" transform="translate(-8.461 -13.671)" fill="#ebebeb"/>
        <path id="Path_25904" data-name="Path 25904" d="M17.976,93.634s-.307.74-.7,1.664-.719,1.655-.725,1.653.307-.749.7-1.664S17.97,93.63,17.976,93.634Z" transform="translate(-8.603 -13.747)" fill="#e0e0e0"/>
        <path id="Path_25905" data-name="Path 25905" d="M16.763,92.943s-.331.814-.754,1.81-.775,1.8-.782,1.8.331-.814.754-1.81S16.755,92.939,16.763,92.943Z" transform="translate(-8.459 -13.672)" fill="#e0e0e0"/>
        <path id="Path_25906" data-name="Path 25906" d="M84.564,70.452l.682-.105L87.058,72.2l.211,1.361s1.065-.1.664-1.862-.2-1.331-.2-1.331a11.41,11.41,0,0,0,2.4-.581,23.218,23.218,0,0,0-.337-3.605A1.32,1.32,0,0,0,88.674,65a.991.991,0,0,0-.246,0c-.555.087-3.341.984-3.341.984l-1.178.185Z" transform="translate(-15.948 -10.625)" fill="#ebebeb"/>
        <path id="Path_25907" data-name="Path 25907" d="M82.479,71.278l-.305-4.732,1.169-.181.71,4.573Z" transform="translate(-15.759 -10.774)" fill="#ebebeb"/>
        <path id="Path_25908" data-name="Path 25908" d="M75.287,8.949,76,8.94l1.573,2.139.017,1.416s1.1.054.947-1.8,0-1.381,0-1.381a11.458,11.458,0,0,0,2.518-.242,22.717,22.717,0,0,0,.185-3.716A1.359,1.359,0,0,0,80.259,4a1.076,1.076,0,0,0-.251-.031c-.581,0-3.543.514-3.543.514L75.241,4.5Z" transform="translate(-15.003 -3.97)" fill="#ebebeb"/>
        <path id="Path_25909" data-name="Path 25909" d="M73.018,9.425,73.4,4.568l1.215-.013.057,4.754Z" transform="translate(-14.761 -4.034)" fill="#ebebeb"/>
        <path id="Path_25910" data-name="Path 25910" d="M13.5,68.1l-.433-.067-1.15,1.17-.133.863s-.677-.063-.422-1.181.126-.845.126-.845a7.077,7.077,0,0,1-1.52-.37,14.786,14.786,0,0,1,.213-2.289.838.838,0,0,1,.717-.74.555.555,0,0,1,.155,0c.355.054,2.121.623,2.121.623l.74.116Z" transform="translate(-7.884 -10.585)" fill="#ebebeb"/>
        <path id="Path_25911" data-name="Path 25911" d="M15.164,68.621l.192-3-.741-.116-.449,2.9Z" transform="translate(-8.343 -10.68)" fill="#ebebeb"/>
        <path id="Path_25912" data-name="Path 25912" d="M54.017,10.17a3.465,3.465,0,0,1,.828-.431l.115-.858,1.427-.126.264.823a3.513,3.513,0,0,1,.891.281l.69-.525,1.1.924-.394.769a3.568,3.568,0,0,1,.431.828l.858.116.126,1.426-.825.266a3.513,3.513,0,0,1-.279.889l.523.69-.924,1.1-.769-.4a3.568,3.568,0,0,1-.828.431l-.111.849-1.427.126-.264-.823a3.513,3.513,0,0,1-.891-.281l-.688.525-1.1-.924.394-.76a3.513,3.513,0,0,1-.431-.821l-.863-.124-.126-1.427.825-.264a3.587,3.587,0,0,1,.279-.891l-.523-.688.924-1.1Zm.895,1.849a1.537,1.537,0,1,0,2.165-.185,1.537,1.537,0,0,0-2.165.185Z" transform="translate(-12.441 -4.492)" fill="#f5f5f5"/>
        <path id="Path_25913" data-name="Path 25913" d="M45.117,13.884a3.051,3.051,0,0,1,.723-.314l.15-.716,1.209-.02.174.71a3,3,0,0,1,.74.288l.61-.4.871.841-.385.625a2.877,2.877,0,0,1,.314.723l.716.15.022,1.209-.71.174a3.031,3.031,0,0,1-.288.74l.4.61-.839.871-.625-.379a3.008,3.008,0,0,1-.723.314l-.15.716-1.209.022-.174-.712a2.934,2.934,0,0,1-.74-.29l-.612.4-.863-.851.379-.625a2.936,2.936,0,0,1-.314-.723l-.717-.15-.02-1.209.71-.174a3,3,0,0,1,.288-.74l-.4-.612.841-.869.625.37Zm.645,1.612a1.294,1.294,0,1,0,.91-.4A1.294,1.294,0,0,0,45.762,15.5Z" transform="translate(-11.493 -4.936)" fill="#ebebeb"/>
        <rect id="Rectangle_29661" data-name="Rectangle 29661" width="8.995" height="2.38" transform="translate(4.441 37.131)" fill="#fafafa"/>
        <path id="Path_25914" data-name="Path 25914" d="M17.337,50.833a.25.25,0,0,1,0-.044V50.2c0-.41,0-1-.015-1.747l.028.03-9,.017c.02-.02-.046.046.044-.046h0v2.38l-.044-.046,6.41.02,1.892.013H17.3a.15.15,0,0,1,.048,0h-.673l-1.88.013-6.442.02H8.3v-2.4h0c.091-.091.026-.024.046-.044l9,.017h.018v.028c0,.753-.011,1.348-.015,1.764V50.8a.307.307,0,0,1-.009.037Z" transform="translate(-7.704 -8.815)" fill="#e0e0e0"/>
        <path id="Path_25915" data-name="Path 25915" d="M30.209,12.234V11.6c0-.41,0-1-.015-1.745l.028.028-9,.017.046-.044h0v2.38l-.044-.046,6.41.02,1.891.013h.645a.246.246,0,0,1,.048,0h-.671l-1.882.013-6.442.02h-.061v-2.4h0l.046-.046,9,.018h.028v.028c0,.751-.011,1.348-.015,1.762V12.2a.157.157,0,0,1-.013.035Z" transform="translate(-9.107 -4.607)" fill="#e0e0e0"/>
        <path id="Path_25916" data-name="Path 25916" d="M32.018,9.562a.26.26,0,0,1,0-.046v-.6c0-.418-.011-1.008-.018-1.731l.033.031-5.4.013c-.043.041.055-.055.044-.044h0V9.558l-.043-.044,3.866.02,1.126.013h.412a.607.607,0,0,1-.1,0h-.3l-1.109.011-3.9.02h-.072V7.186h0c-.011,0,.087-.087.046-.046l5.4.013h.033v.033c0,.74-.015,1.328-.018,1.751v.47A.537.537,0,0,1,32.018,9.562Z" transform="translate(-9.695 -4.314)" fill="#e0e0e0"/>
        <rect id="Rectangle_29662" data-name="Rectangle 29662" width="8.995" height="2.38" transform="translate(45.764 54.297)" fill="#f5f5f5"/>
        <path id="Path_25917" data-name="Path 25917" d="M63.718,70.1a.252.252,0,0,1,0-.044v-.59c0-.41-.009-1-.015-1.745l.028.028-9,.017.044-.044h0V70.1l-.044-.044,6.41.02,1.892.011h.022l-1.882.013-6.442.02h-.046V67.725h0l.046-.046,9,.018h.028v.028c0,.751-.011,1.348-.015,1.762v.579A.308.308,0,0,1,63.718,70.1Z" transform="translate(-12.762 -10.917)" fill="#e0e0e0"/>
        <path id="Path_25918" data-name="Path 25918" d="M93.912,15.683a.251.251,0,0,1,0-.044v-.59c0-.41-.009-1-.015-1.745l.028.028-9,.017.044-.044h0v2.38l-.046-.044,6.412.02,1.892.011h.02l-1.9.037-6.442.02h-.03v-2.42h0l.046-.046,9,.018h.019v.028c0,.751-.013,1.348-.017,1.762v.579A.308.308,0,0,1,93.912,15.683Z" transform="translate(-16.054 -4.983)" fill="#e0e0e0"/>
        <path id="Path_25919" data-name="Path 25919" d="M95.719,13.012V12.84l-.009-.477c0-.418-.009-1.006-.017-1.731l.031.031-5.4.013c-.041.043.055-.055.046-.044h0v2.376l-.044-.044,3.866.02L95.314,13h.412a.607.607,0,0,1-.1,0h-.294l-1.109.011-3.9.02h-.055V10.636h0l.046-.046,5.4.013h.033v.033c0,.74-.013,1.328-.017,1.751,0,.2,0,.353-.009.47A.926.926,0,0,1,95.719,13.012Z" transform="translate(-16.642 -4.692)" fill="#e0e0e0"/>
        <path id="Path_25920" data-name="Path 25920" d="M93,84.622a.186.186,0,0,1,0-.043v-.592c0-.41-.009-1-.017-1.745l.03.028-9,.018c.02-.02-.046.044.044-.046h0v2.376l-.046-.044,6.41.02,1.893.013h.693a.185.185,0,0,1-.043,0h-.631l-1.882.013-6.442.02h-.044V82.22h0c.092-.092.026-.026.048-.046l9,.018h.028v.028c0,.753-.013,1.348-.017,1.762v.581a.226.226,0,0,1-.026.059Z" transform="translate(-15.955 -12.497)" fill="#e0e0e0"/>
        <path id="Path_25921" data-name="Path 25921" d="M94.8,81.951V81.3c0-.416-.011-1.006-.018-1.731l.033.033-5.4.013.046-.046h0v2.376L89.41,81.9l3.866.022,1.126.011h.412a.607.607,0,0,1-.1,0h-.294l-1.109.011-3.9.022h-.044V79.55h0l.046-.046,5.4.013h.033v.033c0,.74-.013,1.329-.018,1.751v.47A1.231,1.231,0,0,1,94.8,81.951Z" transform="translate(-16.544 -12.206)" fill="#e0e0e0"/>
        <path id="Path_25922" data-name="Path 25922" d="M24.855,84.583a.185.185,0,0,1,0-.043v-.592c0-.41,0-1-.015-1.745l.028.028-9,.018c.02-.02-.046.044.044-.046h0v2.38l-.046-.044,6.412.02,1.891.013h.693a.173.173,0,0,1-.043,0h-.63l-1.882.013-6.442.02h-.044V82.212h0l.046-.046,9,.018H24.9v.028c0,.753-.013,1.348-.017,1.762v.581a.226.226,0,0,1-.024.028Z" transform="translate(-8.524 -12.497)" fill="#e0e0e0"/>
        <path id="Path_25923" data-name="Path 25923" d="M26.662,81.914v-.172c0-.116,0-.275-.009-.477,0-.418,0-1.006-.018-1.731l.033.033-5.4.013.046-.046h0V81.91l-.044-.044,3.866.022,1.126.011h.412a.609.609,0,0,1-.1,0h-.294l-1.109.011-3.9.022H21.23v-2.42h0l.046-.046,5.4.013h.033v.033c0,.74-.013,1.329-.017,1.751,0,.2,0,.355-.009.47A.9.9,0,0,1,26.662,81.914Z" transform="translate(-9.114 -12.202)" fill="#e0e0e0"/>
      </g>
      <g id="freepik--Floor--inject-53" transform="translate(0 83.413)">
        <path id="Path_25924" data-name="Path 25924" d="M85.668,97.64c0,.026-17.661.048-39.442.048S6.78,97.665,6.78,97.64s17.658-.048,39.446-.048S85.668,97.612,85.668,97.64Z" transform="translate(-6.78 -97.591)" fill="#263238"/>
      </g>
      <g id="freepik--light-bulb-2--inject-53" transform="translate(39.321 62.736)">
        <path id="Path_25925" data-name="Path 25925" d="M72.326,93.669a10.229,10.229,0,1,0-15.045-8.487L55,86.4l4.243,7.9s1.3-.636,2.452-1.23A10.221,10.221,0,0,0,72.326,93.669Z" transform="translate(-51.359 -74.389)" fill="#ebebeb"/>
        <path id="Path_25926" data-name="Path 25926" d="M72.318,93.665s-.057.033-.174.092-.29.15-.521.257A10.632,10.632,0,0,1,69.5,94.7a10.186,10.186,0,0,1-3.513.092,10.387,10.387,0,0,1-4.321-1.69H61.7L59.24,94.334l-.033.017-.017-.033-4.24-7.9-.022-.039.041-.022,2.274-1.218-.024.043A11.169,11.169,0,0,1,57.341,83a10.807,10.807,0,0,1,.606-2.173,9.966,9.966,0,0,1,1.1-2.034,9.715,9.715,0,0,1,1.561-1.773l.166-.152.176-.141.349-.279q.37-.264.74-.5l.385-.224.185-.111c.065-.035.133-.065.2-.1.268-.124.531-.253.8-.37a10.432,10.432,0,0,1,3.354-.74,9.873,9.873,0,0,1,3.293.37,10.924,10.924,0,0,1,2.9,1.315,9.821,9.821,0,0,1,3.09,3.212l.185.305a3.177,3.177,0,0,1,.172.309l.3.632a5.092,5.092,0,0,1,.25.64c.072.214.161.423.216.638s.105.431.157.643c.022.107.057.211.07.318l.044.32c.03.213.063.423.087.631s.017.418.026.623c0,.1.009.205.013.307s-.009.2-.013.3c-.011.2-.022.4-.033.6a1.882,1.882,0,0,1-.031.29c-.015.1-.028.185-.043.287-.03.185-.055.37-.089.555s-.091.359-.135.536l-.067.263-.033.129-.044.126c-.059.166-.118.329-.185.492a3.911,3.911,0,0,1-.185.471l-.209.444a3.5,3.5,0,0,1-.216.423c-.161.266-.305.531-.464.773s-.337.457-.494.673-.346.392-.5.575c-.083.089-.159.185-.24.263l-.25.227-.459.42c-.152.118-.3.226-.435.325l-.37.279c-.116.079-.231.141-.329.2l-.453.266c-.1.059-.155.087-.155.087l.152-.1.446-.274c.1-.063.211-.124.327-.205l.37-.281c.133-.1.279-.209.431-.329l.453-.42.248-.229c.081-.081.155-.174.237-.263.159-.185.337-.37.5-.577l.488-.671c.157-.242.3-.5.46-.771a3.457,3.457,0,0,0,.213-.422l.205-.444a3.568,3.568,0,0,0,.185-.468l.172-.49.044-.126.033-.129c.02-.085.043-.174.065-.261q.065-.264.133-.533c.031-.185.055-.37.085-.555.015-.094.03-.185.043-.285a1.859,1.859,0,0,0,.031-.288c.009-.2.02-.392.031-.592,0-.1.015-.2.011-.3s-.009-.2-.013-.305c-.009-.2-.019-.41-.028-.618s-.059-.416-.087-.627c-.017-.105-.031-.211-.046-.316s-.048-.211-.07-.316c-.052-.211-.105-.423-.157-.638s-.144-.422-.216-.634a4.829,4.829,0,0,0-.25-.632l-.3-.627a2.5,2.5,0,0,0-.172-.307c-.059-.1-.12-.2-.185-.3a11.02,11.02,0,0,0-.826-1.178,11.134,11.134,0,0,0-2.224-2,10.848,10.848,0,0,0-2.871-1.294,9.8,9.8,0,0,0-3.263-.37,10.378,10.378,0,0,0-3.328.74c-.264.118-.525.246-.79.37-.065.031-.133.061-.2.1l-.185.109-.379.222c-.246.159-.488.327-.728.5l-.346.277-.174.139-.165.152a9.652,9.652,0,0,0-1.546,1.755,9.927,9.927,0,0,0-1.089,2.019,10.768,10.768,0,0,0-.6,2.152,11.279,11.279,0,0,0-.122,2.165v.03l-.024.013-2.276,1.217.018-.061,4.225,7.891-.052-.017,2.452-1.226.018-.009.018.011a10.354,10.354,0,0,0,4.288,1.694,10.242,10.242,0,0,0,3.5-.076,10.908,10.908,0,0,0,2.123-.662c.233-.105.407-.185.525-.248Z" transform="translate(-51.351 -74.385)" fill="#263238"/>
        <path id="Path_25927" data-name="Path 25927" d="M56.9,90.131c2.9-1.614,5.906-3.032,8.777-4.7.579-.337,1.156-.684,1.7-1.069a2.778,2.778,0,0,0,1.461-2,1.322,1.322,0,0,0-.418-1.069,1.607,1.607,0,0,0-1.085-.335,4.14,4.14,0,0,0-2.317.863,4.569,4.569,0,0,0-1.849,4.306,4.565,4.565,0,0,0,7.78,2.589,1.819,1.819,0,0,0,.418-2.139,1.786,1.786,0,0,0-2.034-.451A14.616,14.616,0,0,0,67,87.054c-.884.394-1.757.815-2.626,1.243-1.788.884-3.554,1.81-5.344,2.692-.394.194-.791.386-1.189.575-.135.065-.017.264.116.2,3.191-1.511,6.272-3.252,9.511-4.665a10.229,10.229,0,0,1,2.228-.806,1.762,1.762,0,0,1,1.148.109,1.015,1.015,0,0,1,.507,1,2.657,2.657,0,0,1-1.52,1.9,4.545,4.545,0,0,1-2.4.533,4.325,4.325,0,0,1-2.94-7.211,4.469,4.469,0,0,1,1.964-1.274c.753-.233,1.943-.318,2.143.688.185.961-.655,1.664-1.353,2.147-.484.337-.991.645-1.5.943-2.653,1.557-5.427,2.9-8.135,4.354q-.41.218-.819.447c-.129.072-.013.272.118.2Z" transform="translate(-51.547 -75.101)" fill="#fff"/>
        <g id="freepik--2ggvdetif--inject-53-4" data-name="freepik--2ggvdetif--inject-53" transform="translate(0.011 16.671)">
          <path id="Path_25928" data-name="Path 25928" d="M51.158,93.1a2.807,2.807,0,0,1-.185.762.6.6,0,0,0,.026.525l.852,1.59a.614.614,0,0,0,.475.32,1.124,1.124,0,0,1,.714.316Z" transform="translate(-50.925 -93.096)" fill="#455a64"/>
        </g>
        <path id="Path_25929" data-name="Path 25929" d="M54.659,88.5c-.031.017-2.317,1.72-3.189,2.37a1.324,1.324,0,0,0-.555,1.139,1.233,1.233,0,0,0,.144.507L52.932,96s.488.908,1.318.729c.876-.185,4.081-1.383,4.081-1.383Z" transform="translate(-50.913 -75.924)" fill="#263238"/>
        <rect id="Rectangle_29663" data-name="Rectangle 29663" width="0.412" height="7.265" rx="0.206" transform="translate(0.427 14.616) rotate(-28.43)" fill="#e0e0e0"/>
        <path id="Path_25930" data-name="Path 25930" d="M54.759,96.991a.226.226,0,0,0,.116.087.2.2,0,0,0,.17-.031.185.185,0,0,0,.08-.207c-.172-.331-.446-.814-.769-1.409l-2.537-4.665a.157.157,0,0,0-.128-.085.164.164,0,0,0-.08.013.2.2,0,0,0-.068.044.161.161,0,0,0-.044.146.861.861,0,0,0,.08.161l.353.656.671,1.241c.423.791.806,1.5,1.13,2.1l.756,1.42c.087.165.153.294.2.386l.05.1.017.037a.137.137,0,0,1-.022-.033l-.057-.1-.213-.383c-.185-.337-.451-.817-.777-1.409s-.712-1.309-1.143-2.1c-.214-.394-.438-.81-.673-1.239l-.355-.655-.044-.085a.285.285,0,0,1-.041-.1.224.224,0,0,1,.061-.205.3.3,0,0,1,.091-.059.227.227,0,0,1,.292.1c.984,1.823,1.873,3.474,2.518,4.674.32.6.584,1.078.754,1.424a.209.209,0,0,1-.1.231.213.213,0,0,1-.185.028.168.168,0,0,1-.111-.1Z" transform="translate(-50.969 -76.154)" fill="#263238"/>
        <rect id="Rectangle_29664" data-name="Rectangle 29664" width="0.412" height="7.557" rx="0.206" transform="translate(1.139 14.067) rotate(-28.43)" fill="#e0e0e0"/>
        <path id="Path_25931" data-name="Path 25931" d="M55.7,96.632a.224.224,0,0,0,.124.089.2.2,0,0,0,.174-.041.185.185,0,0,0,.063-.22L55.247,95l-2.633-4.846a.166.166,0,0,0-.135-.083.157.157,0,0,0-.081.017.2.2,0,0,0-.07.05.163.163,0,0,0-.03.155c.02.05.059.113.089.168l.37.682c.24.447.473.878.7,1.294l1.174,2.184.786,1.479c.091.172.161.307.213.4.02.044.039.078.052.105s.018.037.017.037l-.022-.033-.059-.1c-.052-.094-.128-.227-.222-.4l-.8-1.466c-.338-.619-.74-1.357-1.187-2.176l-.7-1.294-.37-.682a1.791,1.791,0,0,1-.092-.185.224.224,0,0,1,.043-.218.235.235,0,0,1,.091-.067A.2.2,0,0,1,52.483,90a.227.227,0,0,1,.185.118l2.618,4.855c.333.623.6,1.124.786,1.479a.209.209,0,0,1-.076.246.213.213,0,0,1-.185.037.172.172,0,0,1-.115-.1Z" transform="translate(-51.056 -76.087)" fill="#263238"/>
        <path id="Path_25932" data-name="Path 25932" d="M56.618,96.235l-3.5-6.471a.2.2,0,0,1,.08-.266l.018-.009a.185.185,0,0,1,.264.08l3.5,6.471a.185.185,0,0,1-.079.264l-.018.011a.185.185,0,0,1-.264-.079Z" transform="translate(-51.151 -76.029)" fill="#e0e0e0"/>
        <path id="Path_25933" data-name="Path 25933" d="M56.613,96.233a.2.2,0,0,0,.3.044.185.185,0,0,0,.052-.227l-.825-1.5-2.7-4.963a.17.17,0,0,0-.141-.085.2.2,0,0,0-.15.074.163.163,0,0,0-.022.161c.028.054.063.116.094.174l.37.7.712,1.318c.451.841.858,1.6,1.2,2.237l.806,1.509c.091.185.165.314.214.412l.055.109.017.037s0-.011-.022-.035a.766.766,0,0,1-.061-.1c-.054-.1-.129-.233-.227-.407l-.823-1.5c-.348-.636-.758-1.392-1.217-2.23l-.714-1.318c-.126-.227-.251-.46-.379-.7-.031-.061-.063-.115-.1-.185a.226.226,0,0,1,.03-.226.257.257,0,0,1,.091-.072.25.25,0,0,1,.116-.017.231.231,0,0,1,.2.12l2.681,4.972.8,1.511a.207.207,0,0,1-.061.255.233.233,0,0,1-.194.043A.174.174,0,0,1,56.613,96.233Z" transform="translate(-51.146 -76.027)" fill="#263238"/>
        <rect id="Rectangle_29665" data-name="Rectangle 29665" width="0.412" height="8.041" rx="0.206" transform="translate(2.588 13.015) rotate(-28.43)" fill="#e0e0e0"/>
        <path id="Path_25934" data-name="Path 25934" d="M57.554,95.876a.213.213,0,0,0,.133.092.224.224,0,0,0,.185-.055.185.185,0,0,0,.03-.24l-.854-1.557-2.8-5.148a.166.166,0,0,0-.146-.085.209.209,0,0,0-.152.085.166.166,0,0,0,0,.166l.1.185c.133.244.263.486.392.723l.74,1.37,1.248,2.319.828,1.561.224.427.057.113a.192.192,0,0,1,.017.039.23.23,0,0,1-.022-.035l-.063-.109c-.057-.1-.135-.242-.237-.422-.2-.37-.494-.9-.854-1.557l-1.259-2.313c-.237-.435-.484-.893-.74-1.366l-.392-.723-.1-.185a.249.249,0,0,1,.216-.349.231.231,0,0,1,.205.12c1.085,2.012,2.067,3.835,2.773,5.157.353.658.638,1.193.838,1.566a.213.213,0,0,1-.041.268.239.239,0,0,1-.2.054.207.207,0,0,1-.107-.068A.107.107,0,0,1,57.554,95.876Z" transform="translate(-51.234 -75.958)" fill="#263238"/>
        <path id="Path_25935" data-name="Path 25935" d="M56.659,86.223c-.065.035-1.509.995-2.25,1.479a1.067,1.067,0,0,0-.471.8l-.041.477L57.506,95.7l.414.229a1.069,1.069,0,0,0,.939.044l2.467-1.067Z" transform="translate(-51.238 -75.675)" fill="#455a64"/>
        <g id="Group_15191" data-name="Group 15191" transform="translate(0.654 15.007)" opacity="0.3">
          <path id="Path_25936" data-name="Path 25936" d="M51.647,91.229a9.845,9.845,0,0,0,.924,2.088c.311.573.6,1.145.945,1.76.253.451.5.86.765,1.294a1.451,1.451,0,0,0,.4.468Z" transform="translate(-51.647 -91.229)"/>
        </g>
        <g id="Group_15192" data-name="Group 15192" transform="translate(1.31 14.342)" opacity="0.3">
          <path id="Path_25937" data-name="Path 25937" d="M52.384,90.482a11.463,11.463,0,0,0,1,2.243c.335.618.645,1.233,1.019,1.9.274.488.54.924.823,1.409a1.651,1.651,0,0,0,.42.508Z" transform="translate(-52.384 -90.482)"/>
        </g>
        <g id="Group_15193" data-name="Group 15193" transform="translate(2.085 13.929)" opacity="0.3">
          <path id="Path_25938" data-name="Path 25938" d="M53.253,90.019a11.608,11.608,0,0,0,1,2.245c.335.618.645,1.231,1.019,1.9.274.486.54.924.823,1.407a1.6,1.6,0,0,0,.42.508Z" transform="translate(-53.253 -90.019)"/>
        </g>
        <g id="Group_15194" data-name="Group 15194" transform="translate(2.862 13.513)" opacity="0.3">
          <path id="Path_25939" data-name="Path 25939" d="M54.125,89.552a11.648,11.648,0,0,0,1,2.245c.335.616.645,1.231,1.019,1.9.274.486.538.924.823,1.407a1.629,1.629,0,0,0,.42.508Z" transform="translate(-54.125 -89.552)"/>
        </g>
        <path id="Path_25940" data-name="Path 25940" d="M58.476,96.208c-.015.009-.995-1.782-2.184-4s-2.143-4.023-2.126-4.033.993,1.782,2.184,4S58.493,96.2,58.476,96.208Z" transform="translate(-51.268 -75.888)" fill="#263238"/>
        <path id="Path_25941" data-name="Path 25941" d="M61.68,94.836c-.017.011-1.087-1.93-2.391-4.334s-2.344-4.36-2.328-4.378,1.087,1.93,2.391,4.334S61.7,94.827,61.68,94.836Z" transform="translate(-51.573 -75.665)" fill="#263238"/>
      </g>
      <g id="freepik--speech-bubble--inject-53" transform="translate(0.45 7.722)">
        <path id="Path_25942" data-name="Path 25942" d="M17.3,21.435l-1.557-.092A5.02,5.02,0,1,1,16.815,19.9h0Z" transform="translate(-7.286 -12.638)" fill="#fff"/>
        <path id="Path_25943" data-name="Path 25943" d="M17.295,21.434a.284.284,0,0,0-.028-.1l-.089-.292c-.08-.263-.2-.647-.349-1.15v-.02l-.015.017h0l.02.015a5.035,5.035,0,0,0,.531-2.4,4.778,4.778,0,0,0-.1-.777,5.427,5.427,0,0,0-.227-.8,5.047,5.047,0,0,0-6.873-2.8A4.935,4.935,0,0,0,8.3,14.633c-.061.083-.124.165-.185.25s-.107.185-.159.266l-.08.131-.067.139-.133.277c-.041.092-.07.185-.105.285a2.294,2.294,0,0,0-.1.288,4.541,4.541,0,0,0-.129.586,5.109,5.109,0,0,0,.155,2.306,5.04,5.04,0,0,0,4.476,3.528,5.475,5.475,0,0,0,.838-.011,6.457,6.457,0,0,0,.769-.139,4.97,4.97,0,0,0,2.158-1.193h-.009l1.163.061.3.015h0l-.3-.02-1.156-.076h0a4.992,4.992,0,0,1-2.149,1.17,6.34,6.34,0,0,1-.777.144,5.652,5.652,0,0,1-.832,0,5.009,5.009,0,0,1-4.423-3.5,5.048,5.048,0,0,1-.152-2.28,4.5,4.5,0,0,1,.128-.579,2.566,2.566,0,0,1,.1-.281c.035-.094.067-.185.105-.281s.087-.185.131-.274l.065-.137.08-.131.157-.263c.059-.083.12-.165.185-.248a4.9,4.9,0,0,1,1.849-1.5,4.974,4.974,0,0,1,6.8,2.766,5.56,5.56,0,0,1,.216.79,4.926,4.926,0,0,1,.087.769,5.022,5.022,0,0,1-.512,2.4l-.043.085.063-.07H16.8l.37,1.137.094.294Z" transform="translate(-7.285 -12.637)" fill="#263238"/>
        <rect id="Rectangle_29666" data-name="Rectangle 29666" width="0.976" height="4.378" transform="matrix(0.725, 0.689, -0.689, 0.725, 6.298, 3.104)" fill="#7e59d1"/>
        <rect id="Rectangle_29667" data-name="Rectangle 29667" width="0.976" height="4.378" transform="matrix(0.689, -0.725, 0.725, 0.689, 3.219, 3.872)" fill="#7e59d1"/>
      </g>
      <g id="freepik--light-bulb-1--inject-53" transform="translate(39.751 6.063)">
        <path id="Path_25944" data-name="Path 25944" d="M76.883,24.72l-.325-2.971L72.98,19.892l-.838-3.752-3.056-2.727-2.108,3.162-3.36-3.258L61.53,15.26l1.954,8.407,5.321,4.181,4.545-.011Z" transform="translate(-52.501 -11.052)" fill="#7e59d1"/>
        <path id="Path_25945" data-name="Path 25945" d="M76.883,24.72l-.325-2.971L72.98,19.892l-.838-3.752-3.056-2.727-2.108,3.162-3.36-3.258L61.53,15.26l1.954,8.407,5.321,4.181,4.545-.011Z" transform="translate(-52.501 -11.052)" opacity="0.2"/>
        <path id="Path_25946" data-name="Path 25946" d="M81.307,16.557l-1.7,2.762-5.024-1.133-6.519,3.79-5.327-3.2.9-4.478L60.9,12.269l.7-1.494a16.456,16.456,0,0,0-.714,30.138c0,1.949.018,4.149.018,4.149L75.335,45s.078-2.328.1-4.408a16.443,16.443,0,0,0,5.88-24.024Z" transform="translate(-51.395 -10.775)" fill="#7e59d1"/>
        <path id="Path_25947" data-name="Path 25947" d="M67.871,46.346c-.048-2.4-.009-4.807,0-7.211.018-2.6.035-5.21-.055-7.812-.037-1.022-.087-2.047-.2-3.066-.148-1.344-.394-2.868-1.612-3.672a2.113,2.113,0,0,0-1.86-.29,2.505,2.505,0,0,0-1.326,1.311,6.531,6.531,0,0,0-.47,3.822,7.051,7.051,0,0,0,12.227,3.657,7.418,7.418,0,0,0,1.686-3.463,6.174,6.174,0,0,0-.379-3.792c-.514-1.054-1.616-2.06-2.871-1.634-1.13.383-1.592,1.651-1.8,2.722a30.185,30.185,0,0,0-.386,3.829c-.092,1.457-.148,2.914-.185,4.373-.081,3-.1,6-.185,8.993q-.028.987-.072,1.977c-.013.3.449.3.462,0,.124-2.72.146-5.443.2-8.165.052-2.753.111-5.512.327-8.259a14.362,14.362,0,0,1,.52-3.495,2.709,2.709,0,0,1,.843-1.313,1.479,1.479,0,0,1,1.5-.159,3.554,3.554,0,0,1,1.673,3,6.828,6.828,0,0,1-.68,3.587A6.569,6.569,0,0,1,72.8,34.012a6.828,6.828,0,0,1-7.287-.218,6.5,6.5,0,0,1-2.259-2.877A6.815,6.815,0,0,1,62.8,27.3c.172-1.093.74-2.788,2.132-2.642,1.49.157,1.988,1.818,2.163,3.06.137.954.185,1.917.237,2.879.109,2.383.1,4.772.094,7.157s-.046,4.767-.031,7.15q0,.719.017,1.439a.231.231,0,1,0,.462,0Z" transform="translate(-52.58 -12.227)" fill="#263238"/>
        <g id="freepik--2ggvdetif--inject-53-5" data-name="freepik--2ggvdetif--inject-53" transform="translate(13.574 42.587)">
          <path id="Path_25948" data-name="Path 25948" d="M66.631,58.608a4.508,4.508,0,0,1,.945.83.965.965,0,0,0,.767.361l2.9-.015a.98.98,0,0,0,.81-.433,1.809,1.809,0,0,1,.987-.777Z" transform="translate(-66.631 -58.574)" fill="#455a64"/>
        </g>
        <path id="Path_25949" data-name="Path 25949" d="M63.059,49.556c0,.057.7,4.585.961,6.316a2.137,2.137,0,0,0,1.209,1.636,2,2,0,0,0,.826.185L72.4,57.66s1.664-.009,2.034-1.326c.388-1.387,1.109-6.841,1.109-6.841Z" transform="translate(-52.667 -14.997)" fill="#263238"/>
        <rect id="Rectangle_29668" data-name="Rectangle 29668" width="11.682" height="0.664" rx="0.332" transform="matrix(1, -0.009, 0.009, 1, 10.792, 40.15)" fill="#e0e0e0"/>
        <path id="Path_25950" data-name="Path 25950" d="M74.871,56.392a.37.37,0,0,0,.213-.1.327.327,0,0,0,.081-.264.3.3,0,0,0-.233-.27c-.6,0-1.492.02-2.589.031l-8.537.089a.266.266,0,0,0-.218.12.281.281,0,0,0-.041.12.436.436,0,0,0,.011.133.264.264,0,0,0,.176.172,1.591,1.591,0,0,0,.288.009l1.2-.009,2.267-.017,3.838-.022h3.478a.24.24,0,0,1,.063,0,.353.353,0,0,1-.063,0h-.185l-.7.017-2.589.039-3.838.046-2.267.022-1.2.011h-.153a.6.6,0,0,1-.166-.015.37.37,0,0,1-.248-.242.47.47,0,0,1-.015-.174.346.346,0,0,1,.057-.17.37.37,0,0,1,.305-.17l8.539-.057c1.095,0,1.973-.017,2.589,0a.333.333,0,0,1,.255.309.338.338,0,0,1-.1.281.274.274,0,0,1-.22.111Z" transform="translate(-52.709 -15.672)" fill="#263238"/>
        <path id="Path_25951" data-name="Path 25951" d="M75.074,54.793l-11.521.1a.314.314,0,0,1-.318-.311v-.035a.314.314,0,0,1,.312-.316l11.521-.1a.314.314,0,0,1,.318.311v.035a.313.313,0,0,1-.312.316Z" transform="translate(-52.687 -15.502)" fill="#e0e0e0"/>
        <path id="Path_25952" data-name="Path 25952" d="M75.067,54.787a.32.32,0,0,0,.294-.385.3.3,0,0,0-.266-.255l-2.685.039-8.875.092a.262.262,0,0,0-.259.255.3.3,0,0,0,.02.137.253.253,0,0,0,.2.159c.087.009.207,0,.307,0l1.246-.009L67.4,54.8l3.986-.024h3.668a.225.225,0,0,1-.065,0h-.185l-.73.017-2.687.041-3.988.046-2.354.024-1.246.011h-.327a.37.37,0,0,1-.277-.226.435.435,0,0,1-.028-.185.375.375,0,0,1,.366-.37l8.875-.061c1.135,0,2.051-.009,2.69,0a.333.333,0,0,1,.292.292.355.355,0,0,1-.091.3A.274.274,0,0,1,75.067,54.787Z" transform="translate(-52.679 -15.496)" fill="#263238"/>
        <path id="Path_25953" data-name="Path 25953" d="M75.2,53.191l-11.82.1a.312.312,0,0,1-.316-.311v-.035a.311.311,0,0,1,.311-.316l11.82-.1a.314.314,0,0,1,.316.312v.037A.316.316,0,0,1,75.2,53.191Z" transform="translate(-52.668 -15.328)" fill="#e0e0e0"/>
        <path id="Path_25954" data-name="Path 25954" d="M75.191,53.187a.348.348,0,0,0,.224-.111.34.34,0,0,0,.067-.287.3.3,0,0,0-.285-.244l-2.751.041-9.078.094a.265.265,0,0,0-.261.264.326.326,0,0,0,.024.139.268.268,0,0,0,.213.152h.318l1.276-.009,2.4-.018,4.083-.024h3.752a.305.305,0,0,1-.067,0h-.185l-.749.017-2.751.041-4.083.046-2.4.024-1.274.013h-.331a.37.37,0,0,1-.3-.213A.4.4,0,0,1,63,52.927a.357.357,0,0,1,.046-.185.37.37,0,0,1,.318-.185l9.08-.063H75.2a.331.331,0,0,1,.314.281.351.351,0,0,1-.083.305A.283.283,0,0,1,75.191,53.187Z" transform="translate(-52.661 -15.324)" fill="#263238"/>
        <path id="Path_25955" data-name="Path 25955" d="M75.4,51.593,63.1,51.7a.316.316,0,0,1-.318-.312v-.033a.316.316,0,0,1,.311-.318l12.3-.107a.316.316,0,0,1,.316.312v.035a.312.312,0,0,1-.311.316Z" transform="translate(-52.637 -15.153)" fill="#e0e0e0"/>
        <path id="Path_25956" data-name="Path 25956" d="M75.394,51.589a.338.338,0,0,0,.229-.118.348.348,0,0,0,.057-.3.3.3,0,0,0-.318-.224l-2.855.041-9.419.1a.263.263,0,0,0-.226.133.327.327,0,0,0,0,.279.264.264,0,0,0,.233.135h.337l1.324-.009,2.5-.018,4.234-.026h3.833a.294.294,0,0,1,.07,0h-.272l-.775.017-2.855.043-4.234.048-2.5.024-1.322.013H63.1a.37.37,0,0,1-.327-.185.386.386,0,0,1-.046-.185.37.37,0,0,1,.37-.392l9.419-.067h2.855a.337.337,0,0,1,.349.259.37.37,0,0,1-.072.32.323.323,0,0,1-.185.1A.185.185,0,0,1,75.394,51.589Z" transform="translate(-52.631 -15.15)" fill="#263238"/>
        <path id="Path_25957" data-name="Path 25957" d="M61.241,45.172c0,.118.275,2.892.418,4.316a1.723,1.723,0,0,0,.784,1.276l.649.414,12.268-.063L76,50.7a1.716,1.716,0,0,0,.773-1.294l.342-4.306Z" transform="translate(-52.469 -14.517)" fill="#7e59d1"/>
        <g id="Group_15195" data-name="Group 15195" transform="translate(11.527 40.714)" opacity="0.3">
          <path id="Path_25958" data-name="Path 25958" d="M64.333,56.544a15.984,15.984,0,0,0,3.657.264c1.047-.009,2.075.013,3.212-.015.832-.022,1.6-.068,2.43-.109a2.282,2.282,0,0,0,.963-.213Z" transform="translate(-64.333 -56.472)"/>
        </g>
        <g id="Group_15196" data-name="Group 15196" transform="translate(11.074 39.28)" opacity="0.3">
          <path id="Path_25959" data-name="Path 25959" d="M63.825,54.938a18.567,18.567,0,0,0,3.944.264c1.128-.011,2.235.013,3.461-.017.9-.022,1.723-.068,2.62-.109a2.615,2.615,0,0,0,1.039-.214Z" transform="translate(-63.825 -54.862)"/>
        </g>
        <g id="Group_15197" data-name="Group 15197" transform="translate(11.067 37.863)" opacity="0.3">
          <path id="Path_25960" data-name="Path 25960" d="M63.817,53.348a18.567,18.567,0,0,0,3.944.264c1.128-.011,2.235.011,3.461-.018.9-.02,1.725-.067,2.62-.107a2.615,2.615,0,0,0,1.039-.214Z" transform="translate(-63.817 -53.272)"/>
        </g>
        <g id="Group_15198" data-name="Group 15198" transform="translate(11.059 36.445)" opacity="0.3">
          <path id="Path_25961" data-name="Path 25961" d="M63.808,51.758a18.568,18.568,0,0,0,3.944.263c1.13-.009,2.235.013,3.461-.017.9-.022,1.725-.068,2.62-.109a2.615,2.615,0,0,0,1.039-.214Z" transform="translate(-63.808 -51.68)"/>
        </g>
        <path id="Path_25962" data-name="Path 25962" d="M76.541,50.585c0,.03-3.282.07-7.327.091s-7.329.015-7.329-.015,3.28-.072,7.327-.092S76.541,50.556,76.541,50.585Z" transform="translate(-52.539 -15.113)" fill="#263238"/>
        <path id="Path_25963" data-name="Path 25963" d="M77.008,45c0,.031-3.563.091-7.951.131s-7.962.044-7.964.013,3.561-.092,7.951-.133S77.006,44.964,77.008,45Z" transform="translate(-52.453 -14.504)" fill="#263238"/>
        <g id="Group_15199" data-name="Group 15199" transform="translate(8.772 30.58)" opacity="0.3">
          <path id="Path_25964" data-name="Path 25964" d="M61.241,45.172c0,.118.275,2.892.418,4.316a1.723,1.723,0,0,0,.784,1.276l.649.414,12.268-.063L76,50.7a1.716,1.716,0,0,0,.773-1.294l.342-4.306Z" transform="translate(-61.241 -45.098)"/>
        </g>
        <g id="Group_15200" data-name="Group 15200" transform="translate(21.998 13.125)" opacity="0.2">
          <path id="Path_25965" data-name="Path 25965" d="M85.66,26.818c-.4-1.224-2.258-2.062-2.969-.318a2.553,2.553,0,0,0-.172.78c-.141,1.969-.094,4.171-1.294,5.772a10.42,10.42,0,0,1-2.637,2.15,5.748,5.748,0,0,0-2.3,2.459c-.353.9-.37,2.467.98,2.712a1.993,1.993,0,0,0,1.276-.216,11.93,11.93,0,0,0,4.3-3.975,16.322,16.322,0,0,0,2.507-5.251A7.709,7.709,0,0,0,85.66,26.818Z" transform="translate(-76.086 -25.506)" fill="#fff"/>
        </g>
        <g id="Group_15201" data-name="Group 15201" transform="translate(1.243 2.979)" opacity="0.2">
          <path id="Path_25966" data-name="Path 25966" d="M53.149,26.745c-.067,0-.141-.185-.222-.568-.02-.092-.039-.2-.061-.312s-.024-.239-.037-.37a7.814,7.814,0,0,1-.037-.924c0-.17.009-.349.015-.536s.035-.37.055-.579a11.522,11.522,0,0,1,.207-1.27,13.593,13.593,0,0,1,.967-2.785,13.8,13.8,0,0,1,1.579-2.492,11.986,11.986,0,0,1,.863-.947c.146-.141.279-.281.42-.4l.412-.346a7.831,7.831,0,0,1,.74-.544c.115-.074.216-.144.318-.2s.2-.1.281-.146c.342-.17.545-.235.582-.185s-.1.226-.37.484c-.067.063-.141.133-.224.207l-.257.259c-.185.185-.4.37-.618.623l-.348.37c-.12.129-.233.275-.357.42-.253.281-.49.612-.74.95a17.271,17.271,0,0,0-1.416,2.37,17.481,17.481,0,0,0-.974,2.589c-.1.412-.216.8-.279,1.176-.035.185-.08.37-.105.54s-.05.342-.072.5c-.059.32-.072.614-.105.873-.015.128-.028.248-.041.361s-.015.213-.024.305C53.275,26.527,53.216,26.737,53.149,26.745Z" transform="translate(-52.791 -14.118)" fill="#fff"/>
        </g>
      </g>
      <g id="freepik--Character--inject-53" transform="translate(0.375 8.396)">
        <path id="Path_25967" data-name="Path 25967" d="M31.7,17.929a1.446,1.446,0,0,0-.337-1.466c-.37-.381-.684-.381-.631-.431a.942.942,0,0,0-.662-1.122,2.345,2.345,0,0,0-1.427.113,2.069,2.069,0,0,0-3.774-.66,1.965,1.965,0,0,0-2.958,2.219,1.376,1.376,0,0,0,.555,2.589,5.277,5.277,0,0,0,.327,1.936l7.843.638s.216-1.352.216-1.83c0-.592.044-1.15.044-1.15A1.442,1.442,0,0,0,31.7,17.929Z" transform="translate(-8.725 -13.394)" fill="#263238"/>
        <path id="Path_25968" data-name="Path 25968" d="M27.532,15.513l-.209-.011a4.038,4.038,0,0,0-4.2,3.513c-.255,1.941-.51,4.09-.555,5.136a2.6,2.6,0,0,0,2.067,2.611l-.312,2.589,5.264.1.934-9.411C30.827,17.8,29.779,15.755,27.532,15.513Z" transform="translate(-8.876 -13.623)" fill="#ffbf9d"/>
        <path id="Path_25969" data-name="Path 25969" d="M24.87,28.05a5.264,5.264,0,0,0,2.879-.69,2.665,2.665,0,0,1-2.9,1.222Z" transform="translate(-9.126 -14.917)" fill="#ff9a6c"/>
        <path id="Path_25970" data-name="Path 25970" d="M24.193,21.741a.311.311,0,0,0,.283.327.3.3,0,0,0,.333-.264.311.311,0,0,0-.283-.327.3.3,0,0,0-.333.264Z" transform="translate(-9.054 -14.275)" fill="#263238"/>
        <path id="Path_25971" data-name="Path 25971" d="M23.657,20.619c.037.043.279-.118.612-.1s.568.2.606.157-.017-.092-.12-.185a.865.865,0,0,0-.483-.185.826.826,0,0,0-.49.133C23.67,20.528,23.631,20.6,23.657,20.619Z" transform="translate(-8.995 -14.147)" fill="#263238"/>
        <path id="Path_25972" data-name="Path 25972" d="M27.757,21.913a.311.311,0,0,0,.283.327.3.3,0,0,0,.333-.264.309.309,0,0,0-.283-.325.3.3,0,0,0-.333.263Z" transform="translate(-9.442 -14.294)" fill="#263238"/>
        <path id="Path_25973" data-name="Path 25973" d="M27.316,20.873c.037.041.279-.12.612-.1s.569.2.606.157-.017-.091-.118-.174a.845.845,0,0,0-.484-.185.817.817,0,0,0-.488.131C27.337,20.782,27.3,20.853,27.316,20.873Z" transform="translate(-9.394 -14.176)" fill="#263238"/>
        <path id="Path_25974" data-name="Path 25974" d="M25.722,23.274a2.248,2.248,0,0,0-.536-.124c-.085-.013-.165-.035-.185-.094a.435.435,0,0,1,.07-.248c.089-.2.185-.414.283-.634A11.547,11.547,0,0,0,26,20.51a11.428,11.428,0,0,0-.782,1.609c-.094.224-.185.436-.272.64a.492.492,0,0,0-.061.331.209.209,0,0,0,.133.131.684.684,0,0,0,.142.028,2.178,2.178,0,0,0,.558.026Z" transform="translate(-9.129 -14.17)" fill="#263238"/>
        <path id="Path_25975" data-name="Path 25975" d="M27.123,19.628c.039.085.329,0,.68.015s.643.08.68,0c.017-.041-.043-.12-.166-.185a1.052,1.052,0,0,0-.521-.137,1.032,1.032,0,0,0-.516.131C27.16,19.507,27.1,19.585,27.123,19.628Z" transform="translate(-9.373 -14.04)" fill="#263238"/>
        <path id="Path_25976" data-name="Path 25976" d="M23.707,19.4c.067.08.346.015.675.026s.608.081.677,0c.03-.037-.011-.115-.129-.185a1.139,1.139,0,0,0-1.089-.026C23.72,19.288,23.677,19.364,23.707,19.4Z" transform="translate(-9 -14.015)" fill="#263238"/>
        <path id="Path_25977" data-name="Path 25977" d="M31.126,22.486a.588.588,0,0,1,.662-.536c.4.059.839.311.773,1.145a1.115,1.115,0,0,1-1.579,1.01C30.983,24.061,31.069,23.1,31.126,22.486Z" transform="translate(-9.794 -14.326)" fill="#ffbf9d"/>
        <path id="Path_25978" data-name="Path 25978" d="M31.392,23.631a.472.472,0,0,0,.067.044.255.255,0,0,0,.185.018.642.642,0,0,0,.342-.555.878.878,0,0,0-.043-.37.3.3,0,0,0-.185-.214.129.129,0,0,0-.157.059c-.024.039-.017.07-.026.072s-.03-.028-.013-.089a.178.178,0,0,1,.213-.113.359.359,0,0,1,.25.251.86.86,0,0,1,.055.418.671.671,0,0,1-.427.608.277.277,0,0,1-.233-.059C31.392,23.668,31.387,23.633,31.392,23.631Z" transform="translate(-9.839 -14.385)" fill="#ff9a6c"/>
        <path id="Path_25979" data-name="Path 25979" d="M29.615,16.044l-2.8-1.17-1.32.555-2.539,1.6-.335.59c.017.037.035.076.055.111a1.755,1.755,0,0,0,3.241-.429,1.372,1.372,0,0,0,1.773-.623.891.891,0,0,0,1.431.588c-.407.475.185,1.549.231,1.969a14.989,14.989,0,0,0,.024,1.869c.07.337.224,1.095.555,1.185.263.07.525-.468.664-.7a1.623,1.623,0,0,0,.172-.79,2.968,2.968,0,0,1,.078-.81l.161-.081V17.423Z" transform="translate(-8.882 -13.555)" fill="#263238"/>
        <path id="Path_25980" data-name="Path 25980" d="M27.1,24.289c-.02.05-.263,0-.534.1s-.435.277-.481.248,0-.085.059-.185a.788.788,0,0,1,.8-.274C27.051,24.215,27.1,24.267,27.1,24.289Z" transform="translate(-9.258 -14.567)" fill="#263238"/>
        <path id="Path_25981" data-name="Path 25981" d="M23.949,18.483h-.085a.925.925,0,0,1-.25-.026,1.328,1.328,0,0,1-.963-1.126,1.448,1.448,0,0,1,.122-.725,1.79,1.79,0,0,1,1.278-1.015,2.455,2.455,0,0,1,1.446.159l-.063.031a1.278,1.278,0,0,1,.7-.867,1.213,1.213,0,0,1,1.376.283.854.854,0,0,1,.1.122.141.141,0,0,1,.026.046s-.046-.055-.142-.148a1.235,1.235,0,0,0-.481-.29,1.139,1.139,0,0,0-.836.052,1.206,1.206,0,0,0-.653.823l-.011.054-.05-.02a2.4,2.4,0,0,0-1.39-.148,1.708,1.708,0,0,0-1.217.958,1.385,1.385,0,0,0-.124.68,1.241,1.241,0,0,0,.2.568,1.272,1.272,0,0,0,.692.531A2.336,2.336,0,0,0,23.949,18.483Z" transform="translate(-8.885 -13.549)" fill="#455a64"/>
        <path id="Path_25982" data-name="Path 25982" d="M24.559,91l.216,3.966s-3.96,1.555-3.992,2.291l7.712-.144-.085-6.2Z" transform="translate(-8.682 -21.847)" fill="#263238"/>
        <path id="Path_25983" data-name="Path 25983" d="M27.89,95.047a.314.314,0,0,1,.224.355.3.3,0,0,1-.349.226.331.331,0,0,1-.237-.37.314.314,0,0,1,.39-.194" transform="translate(-9.417 -22.298)" fill="#e0e0e0"/>
        <path id="Path_25984" data-name="Path 25984" d="M28.5,97.8l-.033-.625-7.381.37s-.342.155-.3.4Z" transform="translate(-8.682 -22.53)" fill="#455a64"/>
        <path id="Path_25985" data-name="Path 25985" d="M25.123,95.42c0,.037.185.052.37.168s.288.275.324.259-.026-.231-.255-.37S25.112,95.385,25.123,95.42Z" transform="translate(-9.155 -22.334)" fill="#fff"/>
        <path id="Path_25986" data-name="Path 25986" d="M24.223,95.815c0,.037.157.1.288.255s.17.324.207.322.059-.216-.109-.407S24.223,95.78,24.223,95.815Z" transform="translate(-9.057 -22.38)" fill="#fff"/>
        <path id="Path_25987" data-name="Path 25987" d="M23.69,96.836c.033,0,.083-.185-.018-.386s-.277-.283-.292-.251.094.139.185.309S23.652,96.836,23.69,96.836Z" transform="translate(-8.965 -22.422)" fill="#fff"/>
        <path id="Path_25988" data-name="Path 25988" d="M25.181,94.386c.017.033.185-.022.4-.011s.381.074.4.043-.142-.165-.394-.174S25.163,94.357,25.181,94.386Z" transform="translate(-9.161 -22.21)" fill="#fff"/>
        <path id="Path_25989" data-name="Path 25989" d="M35.456,90.573l.418,4.791-.762,3.883a.492.492,0,0,0,.422.584h0a.486.486,0,0,0,.423-.155c.688-.749,3.2-3.513,3.143-3.868-.059-.4-.105-5.083-.105-5.083Z" transform="translate(-10.244 -21.81)" fill="#263238"/>
        <path id="Path_25990" data-name="Path 25990" d="M35.587,100.434l3.556-4.349.013.2a.74.74,0,0,1-.146.492c-.281.37-1.082,1.4-2.984,3.5a.494.494,0,0,1-.438.155Z" transform="translate(-10.296 -22.411)" fill="#455a64"/>
        <g id="Group_15202" data-name="Group 15202" transform="translate(27.655 72.139)" opacity="0.6">
          <path id="Path_25991" data-name="Path 25991" d="M38.346,94.418a.3.3,0,0,0-.055.394.287.287,0,0,0,.39.059.316.316,0,0,0,.057-.418.3.3,0,0,0-.412-.017" transform="translate(-38.24 -94.362)" fill="#fff"/>
        </g>
        <path id="Path_25992" data-name="Path 25992" d="M36.543,98.472a1.058,1.058,0,0,0-1-.418c0-.011.054-.052.165-.076a.788.788,0,0,1,.436.05.767.767,0,0,1,.342.274C36.543,98.4,36.556,98.466,36.543,98.472Z" transform="translate(-10.291 -22.616)" fill="#fff"/>
        <path id="Path_25993" data-name="Path 25993" d="M36.218,99.24a4.067,4.067,0,0,0-.438-.185,3.93,3.93,0,0,0-.473-.03.555.555,0,0,1,.5-.072C36.09,99.024,36.242,99.225,36.218,99.24Z" transform="translate(-10.266 -22.72)" fill="#fff"/>
        <path id="Path_25994" data-name="Path 25994" d="M37.153,97.5a4.821,4.821,0,0,0-.658-.322,4.887,4.887,0,0,0-.723-.12,1.342,1.342,0,0,1,1.381.442Z" transform="translate(-10.316 -22.512)" fill="#fff"/>
        <path id="Path_25995" data-name="Path 25995" d="M37.162,95.9c-.011.03-.283-.065-.629-.055s-.614.111-.627.081a.956.956,0,0,1,.625-.185.941.941,0,0,1,.63.159Z" transform="translate(-10.331 -22.372)" fill="#fff"/>
        <path id="Path_25996" data-name="Path 25996" d="M37.061,94.311a2.422,2.422,0,0,0-.653-.074,2.393,2.393,0,0,0-.627.2c0-.011.041-.074.146-.144a1.06,1.06,0,0,1,.47-.163,1.074,1.074,0,0,1,.492.067C37.008,94.248,37.069,94.3,37.061,94.311Z" transform="translate(-10.318 -22.197)" fill="#fff"/>
        <path id="Path_25997" data-name="Path 25997" d="M36.378,93.83a.444.444,0,0,1-.018-.185,1.259,1.259,0,0,1,.115-.484.564.564,0,0,1,.222-.283.2.2,0,0,1,.226.03.322.322,0,0,1,.091.213.7.7,0,0,1-.568.682.812.812,0,0,1-.819-.37A.272.272,0,0,1,35.6,93.2a.185.185,0,0,1,.2-.116.688.688,0,0,1,.325.144,1.381,1.381,0,0,1,.351.351.453.453,0,0,1,.085.161,2.336,2.336,0,0,0-.477-.451.66.66,0,0,0-.288-.118.105.105,0,0,0-.107.063.2.2,0,0,0,.028.152.721.721,0,0,0,.712.312.6.6,0,0,0,.49-.571.224.224,0,0,0-.055-.15.1.1,0,0,0-.124-.018.5.5,0,0,0-.194.235A1.9,1.9,0,0,0,36.378,93.83Z" transform="translate(-10.296 -22.059)" fill="#fff"/>
        <path id="Path_25998" data-name="Path 25998" d="M20.683,53.463a17.029,17.029,0,0,0-.37,5.022c.081,1.067,3.683,30.6,3.683,30.6h4.865L27.493,61.329l.4.085s2.653,11.833,2.871,13.755C30.958,76.89,33.2,89.406,33.2,89.406l4.447.05L36.224,72.9,34.567,57.021,33.946,52.4Z" transform="translate(-8.626 -17.647)" fill="#263238"/>
        <path id="Path_25999" data-name="Path 25999" d="M28.925,58.764a.848.848,0,0,1-.2.115,2.294,2.294,0,0,1-.6.211,1.257,1.257,0,0,1-.449,0,.913.913,0,0,1-.468-.226,1.109,1.109,0,0,1-.285-.5,5.875,5.875,0,0,1-.129-.586c-.155-.8-.261-1.531-.322-2.062-.031-.266-.052-.481-.063-.631a.939.939,0,0,1,0-.233,1.1,1.1,0,0,1,.046.229c.026.168.057.37.094.623.08.529.2,1.255.349,2.054a2.016,2.016,0,0,0,.37,1.032,1.009,1.009,0,0,0,.839.218,2.679,2.679,0,0,0,.6-.174A1.193,1.193,0,0,1,28.925,58.764Z" transform="translate(-9.294 -17.915)" fill="#455a64"/>
        <path id="Path_26000" data-name="Path 26000" d="M27.558,55.016a.18.18,0,0,1,.1-.03.433.433,0,0,1,.274.087.46.46,0,1,1-.618.679.492.492,0,0,1-.092-.418.442.442,0,0,1,.148-.246c.054-.041.092-.046.094-.043a.54.54,0,0,0-.17.3.425.425,0,0,0,.092.342.394.394,0,0,0,.655-.246.427.427,0,0,0-.155-.318A.536.536,0,0,0,27.558,55.016Z" transform="translate(-9.383 -17.929)" fill="#455a64"/>
        <path id="Path_26001" data-name="Path 26001" d="M29.781,39.422c.02-.5.793-4.09.793-4.153s-.765-5.338-.765-5.338L29.64,28.28l-3.7,2.219A18.151,18.151,0,0,1,24.4,29.25l-.871,5.227L21.767,50.819s.606.74,2.918,1.074c2.884.422,7.046-1.074,7.046-1.074S29.759,39.923,29.781,39.422Z" transform="translate(-8.789 -15.017)" fill="#e0e0e0"/>
        <g id="Group_15203" data-name="Group 15203" transform="translate(12.405 15.84)" opacity="0.3">
          <path id="Path_26002" data-name="Path 26002" d="M21.124,56.862s.545.412.878-2.065,1.316-12.869,1.316-12.869l.708-10.755L21.9,37.437Z" transform="translate(-21.124 -31.173)"/>
        </g>
        <g id="Group_15204" data-name="Group 15204" transform="translate(20.662 33.459)" opacity="0.3">
          <path id="Path_26003" data-name="Path 26003" d="M30.392,50.948s.974,9.509,1.344,9.324,3.935-1.586,3.935-1.586l-.37-3.073Z" transform="translate(-30.392 -50.948)"/>
        </g>
        <path id="Path_26004" data-name="Path 26004" d="M25.41,32.221l.462.68h.692l.37-.68-.409-.86-.547.03Z" transform="translate(-9.187 -15.353)" fill="#7e59d1"/>
        <path id="Path_26005" data-name="Path 26005" d="M30.036,30.774a.775.775,0,0,1-.163.124l-.464.309c-.394.257-.941.606-1.548.989l-.571.355-.039.026-.024-.039a7.765,7.765,0,0,1-.6-1.25c-.063-.159-.111-.287-.142-.37a.462.462,0,0,1-.043-.139,3.247,3.247,0,0,1,.239.492,10.074,10.074,0,0,0,.621,1.222l-.063-.015.569-.359c.608-.381,1.161-.723,1.564-.965l.479-.283A.854.854,0,0,1,30.036,30.774Z" transform="translate(-9.299 -15.289)" fill="#455a64"/>
        <path id="Path_26006" data-name="Path 26006" d="M24.521,31.46a1.383,1.383,0,0,1,.2.242c.118.159.279.383.464.647h-.074c.074-.105.153-.22.233-.338.235-.349.444-.669.6-.893a1.716,1.716,0,0,1,.283-.348,2.57,2.57,0,0,1-.227.385c-.146.233-.346.555-.581.908-.081.12-.161.237-.239.34l-.041.052-.035-.052c-.185-.266-.331-.5-.436-.666a1.193,1.193,0,0,1-.153-.277Z" transform="translate(-9.09 -15.289)" fill="#455a64"/>
        <path id="Path_26007" data-name="Path 26007" d="M25.673,33.09,23.587,48.842l1.326,2.751,2.241-2.9-.79-15.6Z" transform="translate(-8.988 -15.542)" fill="#7e59d1"/>
        <path id="Path_26008" data-name="Path 26008" d="M14.961,28.2a6.475,6.475,0,0,1,1.059-.769c0,.083,1.945,2.942,1.945,2.942l-1.154.791L14.88,28.247" transform="translate(-8.038 -14.924)" fill="#e0e0e0"/>
        <path id="Path_26009" data-name="Path 26009" d="M20.134,56.394a.59.59,0,0,0,.878-.462l1.146-11.767,1.732-14.537-.61.518s-3.254.235-3.328.288a18.9,18.9,0,0,0-1.017,4.511c-.288,2.467-.068,10.134-.068,10.134L17.64,54.734Z" transform="translate(-8.339 -15.164)" fill="#263238"/>
        <path id="Path_26010" data-name="Path 26010" d="M22.345,44.519a.87.87,0,0,1,0-.159c0-.1.011-.257.011-.453,0-.4.013-.967,0-1.673,0-1.411-.043-3.363-.091-5.517-.035-1.47-.068-2.846-.1-4.009v-.026l.022-.011.79-.425-.013.052-.536-.782-.015-.022.018-.018,1.041-.986.283-.261a1.017,1.017,0,0,1,.1-.085.623.623,0,0,1-.089.1l-.27.272-1.021,1.006V31.48l.555.777.022.033-.035.02-.786.431.022-.037c.039,1.163.078,2.539.111,4.01.048,2.156.072,4.107.061,5.519,0,.706-.018,1.279-.037,1.673,0,.2-.022.351-.03.455A.963.963,0,0,1,22.345,44.519Z" transform="translate(-8.833 -15.22)" fill="#455a64"/>
        <path id="Path_26011" data-name="Path 26011" d="M21.524,53.793a.251.251,0,0,1,0,.089c0,.068-.015.153-.024.253-.028.235-.065.555-.109.924-.094.786-.233,1.869-.392,3.066-.057.422-.113.826-.163,1.2l-.009.068-.059-.033L18.8,58.255l-.56-.327a1.852,1.852,0,0,1-.2-.128,1.142,1.142,0,0,1,.214.1l.581.307,1.986,1.083-.067.033c.05-.37.1-.784.157-1.206.159-1.2.309-2.278.422-3.06.057-.381.1-.693.139-.924.017-.1.031-.185.043-.251a.5.5,0,0,1,.011-.089Z" transform="translate(-8.383 -17.799)" fill="#455a64"/>
        <path id="Path_26012" data-name="Path 26012" d="M19.042,30.241a1.39,1.39,0,0,0-.913.39c-.37.37-1.145,1.061-1.145,1.061l-3.811,1.573L16.5,30.811l-2.247-2.958s-3.67,2.5-5.072,3.446-2.208,2.454-1.927,3.463S7.8,36.174,9.793,36.67c.817.2,7.8.937,7.8.937l1.154-5.283Z" transform="translate(-7.201 -14.97)" fill="#263238"/>
        <path id="Path_26013" data-name="Path 26013" d="M12.095,36.433a4.149,4.149,0,0,1,.34-.277,3.513,3.513,0,0,0,1.109-1.742c.072-.261.092-.427.109-.425a1.337,1.337,0,0,1-.043.44,3.036,3.036,0,0,1-.409.991,3.1,3.1,0,0,1-.725.79A1.322,1.322,0,0,1,12.095,36.433Z" transform="translate(-7.735 -15.64)" fill="#455a64"/>
        <path id="Path_26014" data-name="Path 26014" d="M19.273,32.97a1.257,1.257,0,0,1,0,.264c-.011.185-.026.427-.044.716-.039.6-.089,1.438-.131,2.361s-.063,1.758-.08,2.363c0,.288-.013.529-.018.717a1.511,1.511,0,0,1-.018.263,1.307,1.307,0,0,1-.018-.263c0-.17-.011-.414-.011-.717,0-.606,0-1.444.05-2.369s.1-1.758.159-2.361c.028-.3.054-.545.076-.714a1.582,1.582,0,0,1,.037-.261Z" transform="translate(-8.482 -15.529)" fill="#455a64"/>
        <path id="Path_26015" data-name="Path 26015" d="M30.614,28.45c.129.1,1.6,1.52,1.6,1.52s3.358.37,3.454.475c.068.07.1,7.1.081,7.261-.185,1.664-.836,7.353-.836,7.353l2.761,9.615-5.763,2.372s-1.172-5.917-1.72-9.119a28.812,28.812,0,0,1-.324-7.211c.063-3.1.74-10.75.74-10.75Z" transform="translate(-9.665 -15.036)" fill="#263238"/>
        <path id="Path_26016" data-name="Path 26016" d="M30.235,44.052a.771.771,0,0,1,.011-.152c.013-.1.028-.244.057-.429.059-.37.152-.91.283-1.57.257-1.32.649-3.143,1.109-5.138.37-1.6.712-3.084,1-4.271l.013.039-.69-.584-.03-.024.028-.026.692-.651v.028c-.137-.349-.246-.627-.325-.826-.033-.089-.061-.163-.083-.218s-.026-.076-.022-.078a.438.438,0,0,1,.037.072l.094.214c.083.2.2.471.348.817v.015l-.013.013-.68.664V31.9l.69.573.017.015v.024c-.274,1.193-.612,2.672-.978,4.273-.455,2-.856,3.816-1.132,5.131-.139.658-.242,1.193-.311,1.562-.035.185-.055.329-.074.425A.962.962,0,0,1,30.235,44.052Z" transform="translate(-9.713 -15.221)" fill="#455a64"/>
        <path id="Path_26017" data-name="Path 26017" d="M37.7,56.906a.645.645,0,0,1-.107.052l-.32.141-1.2.507-4.129,1.718-.054.022-.009-.055-.394-2.119c-.414-2.278-.79-4.34-1.063-5.841-.131-.74-.237-1.344-.312-1.771-.033-.2-.061-.37-.08-.483a.653.653,0,0,0-.018-.126.161.161,0,0,1,0-.044.185.185,0,0,1,.013.043l.028.124c.024.116.057.277.1.479.081.425.2,1.026.342,1.766.279,1.5.666,3.561,1.091,5.837.135.74.266,1.451.39,2.119l-.063-.035,4.142-1.683,1.209-.483.324-.126A.541.541,0,0,1,37.7,56.906Z" transform="translate(-9.689 -17.266)" fill="#455a64"/>
        <path id="Path_26018" data-name="Path 26018" d="M34.335,48.56a2.532,2.532,0,0,1-.081-.533c-.035-.331-.067-.791-.072-1.294s.011-.969.037-1.294a2.92,2.92,0,0,1,.067-.536,3.292,3.292,0,0,1,0,.54c0,.331-.017.79-.009,1.294s.026.965.043,1.294A3.714,3.714,0,0,1,34.335,48.56Z" transform="translate(-10.143 -16.83)" fill="#455a64"/>
        <path id="Path_26019" data-name="Path 26019" d="M34.379,49.5a1.09,1.09,0,0,1-.1-.133c-.057-.089-.137-.218-.229-.381a13.03,13.03,0,0,1-.642-1.322,12.863,12.863,0,0,1-.49-1.387c-.05-.185-.089-.329-.111-.431a.616.616,0,0,1-.026-.163,4.716,4.716,0,0,1,.2.573c.118.355.292.843.512,1.37s.444.993.614,1.326A5.384,5.384,0,0,1,34.379,49.5Z" transform="translate(-9.991 -16.915)" fill="#455a64"/>
        <path id="Path_26020" data-name="Path 26020" d="M38.3,46.16l-.065-.185L37.142,47.07a18.606,18.606,0,0,0-2.714.133.442.442,0,0,0-.118.791s-.32.5.091.808l.246.148s-.251.544.142.778.353.081.349.3.111.521.311.573a15.066,15.066,0,0,0,2.866-1.054,7.982,7.982,0,0,0,1.23-1.109Z" transform="translate(-10.135 -16.947)" fill="#ffbf9d"/>
        <path id="Path_26021" data-name="Path 26021" d="M37.637,31.49c.534.723,1.411,2.071,1.411,2.071s4.695,3.624,5.845,4.563a2.562,2.562,0,0,1,.37,3.611c-.383.551-5.732,5.933-5.732,5.933L37.245,44.9l3.417-4.362-.026-.3-4.253-2.291-.716,1.664-.013-7.527.449-1.329.2-.076A2.391,2.391,0,0,1,37.637,31.49Z" transform="translate(-10.304 -15.279)" fill="#263238"/>
        <path id="Path_26022" data-name="Path 26022" d="M36.793,34.157c.028,0-.065,1.217-.2,2.711s-.272,2.7-.3,2.7.067-1.215.205-2.709S36.767,34.155,36.793,34.157Z" transform="translate(-10.372 -15.658)" fill="#455a64"/>
        <path id="Path_26023" data-name="Path 26023" d="M43.663,40.092a4.175,4.175,0,0,0-2.433,1.564,1.311,1.311,0,0,1,.237-.37,3.328,3.328,0,0,1,1.76-1.133,1.294,1.294,0,0,1,.436-.061Z" transform="translate(-10.912 -16.305)" fill="#455a64"/>
        <path id="Path_26024" data-name="Path 26024" d="M37.822,47.841c-.024.013-.116-.113-.207-.281s-.146-.312-.124-.325.116.113.209.281S37.846,47.83,37.822,47.841Z" transform="translate(-10.503 -17.084)" fill="#ff9a6c"/>
        <path id="Path_26025" data-name="Path 26025" d="M16.142,27.12a4.767,4.767,0,0,1,.7-.666,10.593,10.593,0,0,1,1.927-.74c.185-.018.5-.031.5-.031s.78-.342.96.116c0,0,.061.263-.031.355a.418.418,0,0,1,.324.717s.435.344.251.716c0,0,.337.311.275.592s-.2.324-.475.429a5.161,5.161,0,0,1-.812.185.335.335,0,0,0-.148.346c.039.242.5.213.967.706.359.381.464.675.312.808-.081.072-.329.161-.8-.2-.673-.512-.963-.239-1.283-.342s-1.011-.4-1.011-.4S16,27.763,16.142,27.12Z" transform="translate(-8.175 -14.721)" fill="#ffbf9d"/>
        <path id="Path_26026" data-name="Path 26026" d="M20.455,26.177a.74.74,0,0,1-.309.34,1.849,1.849,0,0,1-.449.22c-.089.031-.185.061-.281.089l-.152.041a.209.209,0,0,1-.185-.041.327.327,0,0,1-.074-.322.521.521,0,0,1,.159-.251.912.912,0,0,1,.451-.185l-.026.024a.475.475,0,0,1,.266-.279c.087-.033.141-.028.141-.022s-.048.017-.124.057a.466.466,0,0,0-.224.261v.018h-.02a.876.876,0,0,0-.4.185.429.429,0,0,0-.128.209.235.235,0,0,0,.046.226c.046.054.155,0,.253-.02s.185-.052.277-.08a1.986,1.986,0,0,0,.442-.185A2.461,2.461,0,0,0,20.455,26.177Z" transform="translate(-8.487 -14.745)" fill="#ff9a6c"/>
        <path id="Path_26027" data-name="Path 26027" d="M19.349,26.916a.479.479,0,0,0-.011.285.37.37,0,0,0,.205.205.619.619,0,0,0,.37,0,6.689,6.689,0,0,0,.963-.386,2.063,2.063,0,0,1-.941.479.673.673,0,0,1-.431,0,.416.416,0,0,1-.237-.268.355.355,0,0,1,.02-.239C19.317,26.933,19.343,26.912,19.349,26.916Z" transform="translate(-8.515 -14.868)" fill="#ff9a6c"/>
        <path id="Path_26028" data-name="Path 26028" d="M19.78,27.555a.682.682,0,0,0-.185.285.37.37,0,0,0,.068.335.335.335,0,0,0,.166.115.425.425,0,0,0,.22,0c.159-.043.314-.105.453-.15a3.741,3.741,0,0,0,.37-.133.69.69,0,0,0,.261-.226.213.213,0,0,1-.033.1.573.573,0,0,1-.207.185,2.69,2.69,0,0,1-.37.155c-.142.05-.288.113-.462.159a.5.5,0,0,1-.27,0,.438.438,0,0,1-.272-.555.477.477,0,0,1,.172-.226C19.741,27.559,19.776,27.55,19.78,27.555Z" transform="translate(-8.542 -14.938)" fill="#ff9a6c"/>
        <path id="Path_26029" data-name="Path 26029" d="M20.58,29.007a.473.473,0,0,1-.246.068.6.6,0,0,1-.285-.035.483.483,0,0,1-.237-.27.255.255,0,0,1,.011-.205.351.351,0,0,1,.122-.139,1.494,1.494,0,0,1,.261-.1c.15-.044.25-.05.251-.037a1.035,1.035,0,0,1-.229.1,2.2,2.2,0,0,0-.237.111.213.213,0,0,0-.089.233.431.431,0,0,0,.19.235.634.634,0,0,0,.246.046A1.268,1.268,0,0,1,20.58,29.007Z" transform="translate(-8.574 -15.017)" fill="#ff9a6c"/>
        <path id="Path_26030" data-name="Path 26030" d="M18.509,27.6a.725.725,0,0,1,.227.272,1.4,1.4,0,0,1,.148.357c.022.068.03.153.052.211s.074.072.161.1a1.119,1.119,0,0,1,.671.544.612.612,0,0,1,.1.34c-.017,0-.044-.129-.159-.305a1.133,1.133,0,0,0-.634-.475.707.707,0,0,1-.124-.043.2.2,0,0,1-.1-.111,2.233,2.233,0,0,1-.05-.224,1.644,1.644,0,0,0-.124-.348A3.249,3.249,0,0,1,18.509,27.6Z" transform="translate(-8.434 -14.943)" fill="#ff9a6c"/>
        <path id="Path_26031" data-name="Path 26031" d="M19.519,28.241a3.232,3.232,0,0,1-.555-.934,3.143,3.143,0,0,1-.3-1.043c.028,0,.152.46.392,1.006S19.543,28.224,19.519,28.241Z" transform="translate(-8.451 -14.797)" fill="#ff9a6c"/>
      </g>
    </g>
  </g>
</svg>
