<svg xmlns="http://www.w3.org/2000/svg" xmlns:xlink="http://www.w3.org/1999/xlink" width="16" height="16" viewBox="0 0 16 16">
  <defs>
    <clipPath id="fileManager">
      <rect id="Rectangle_27799" data-name="Rectangle 27799" width="16" height="16" transform="translate(26 402)" fill="#8391a2" stroke="#8391a2" stroke-width="1"/>
    </clipPath>
  </defs>
  <g id="Mask_Group_611" data-name="Mask Group 611" transform="translate(-26 -402)" clip-path="url(#fileManager)">
    <g id="svgexport-6_63_" data-name="svgexport-6 (63)" transform="translate(26.29 402)">
      <path id="Path_11421" data-name="Path 11421" d="M14.379,4.594v-2a.238.238,0,0,0-.238-.238H12.85V.238A.238.238,0,0,0,12.612,0h-9.5A.238.238,0,0,0,2.87.238V2.357H1.578a.238.238,0,0,0-.238.238V6.345h-.21A1.117,1.117,0,0,0,.016,7.461v7.424A1.117,1.117,0,0,0,1.131,16H14.289A1.116,1.116,0,0,0,15.4,14.885V5.705a1.117,1.117,0,0,0-1.026-1.111ZM3.345.475h9.029V4.59H11.32v-2a.238.238,0,0,0-.238-.238H3.345ZM.491,14.885V7.461a.641.641,0,0,1,.64-.64h.93a.238.238,0,0,0,0-.475H1.816V2.832h9.029V4.59H8.436A1.116,1.116,0,0,0,7.32,5.705a.641.641,0,0,1-.64.64H3.012a.238.238,0,1,0,0,.475H6.68A1.117,1.117,0,0,0,7.8,5.705a.641.641,0,0,1,.64-.64h3.972a.641.641,0,0,1,.64.64v9.179a.641.641,0,0,1-.64.64H1.131a.641.641,0,0,1-.64-.64Zm14.438,0a.641.641,0,0,1-.64.64h-.968a1.109,1.109,0,0,0,.2-.547h.622a.238.238,0,0,0,.238-.238V8.44a.238.238,0,0,0-.475,0V14.5h-.38v-8.8a1.117,1.117,0,0,0-.674-1.024V2.832H13.9V7.489a.238.238,0,0,0,.475,0V5.072a.64.64,0,0,1,.55.633Zm0,0" fill="#8391a2" stroke="#8391a2" stroke-width="0.2"/>
      <path id="Path_11422" data-name="Path 11422" d="M3.068,4.067h5.7a.238.238,0,0,0,0-.475h-5.7a.238.238,0,0,0,0,.475Zm0,0" fill="#8391a2" stroke="#8391a2" stroke-width="0.2"/>
      <path id="Path_11423" data-name="Path 11423" d="M3.068,5.255H6.331a.238.238,0,0,0,0-.475H3.068a.238.238,0,0,0,0,.475Zm0,0" fill="#8391a2" stroke="#8391a2" stroke-width="0.2"/>
      <path id="Path_11424" data-name="Path 11424" d="M12.145,7.632H7.2a.238.238,0,0,0-.238.238V9.628a.238.238,0,0,0,.238.238h4.942a.238.238,0,0,0,.238-.238V7.869A.238.238,0,0,0,12.145,7.632ZM11.908,9.39H7.441V8.107h4.467Zm0,0" fill="#8391a2" stroke="#8391a2" stroke-width="0.2"/>
    </g>
  </g>
</svg>
