<svg xmlns="http://www.w3.org/2000/svg" xmlns:xlink="http://www.w3.org/1999/xlink" width="16" height="16" viewBox="0 0 16 16">
  <defs>
    <clipPath id="home">
      <rect id="Rectangle_2643" data-name="Rectangle 2643" width="16" height="16" transform="translate(39 143)" fill="#fff" stroke="#707070" stroke-width="1"/>
    </clipPath>
  </defs>
  <g id="Mask_Group_331" data-name="Mask Group 331" transform="translate(-39 -143)" clip-path="url(#home)">
    <g id="svgexport-6_7_" data-name="svgexport-6 (7)" transform="translate(39.001 143)">
      <path id="Path_8198" data-name="Path 8198" d="M15.583,6.959h0L9.055.431a1.473,1.473,0,0,0-2.083,0L.449,6.955l-.007.007a1.472,1.472,0,0,0,.98,2.51l.046,0h.26v4.8A1.726,1.726,0,0,0,3.452,16H6.006a.469.469,0,0,0,.469-.469V11.766a.787.787,0,0,1,.787-.787H8.767a.787.787,0,0,1,.787.787v3.766a.469.469,0,0,0,.469.469h2.553A1.726,1.726,0,0,0,14.3,14.276v-4.8h.241a1.473,1.473,0,0,0,1.042-2.514ZM14.92,8.379a.532.532,0,0,1-.379.157h-.71A.469.469,0,0,0,13.362,9v5.272a.787.787,0,0,1-.786.786H10.491v-3.3a1.726,1.726,0,0,0-1.724-1.724H7.261a1.726,1.726,0,0,0-1.724,1.724v3.3H3.452a.787.787,0,0,1-.787-.786V9A.469.469,0,0,0,2.2,8.536h-.72a.535.535,0,0,1-.369-.913h0L7.635,1.094a.535.535,0,0,1,.757,0l6.525,6.525,0,0a.537.537,0,0,1,0,.756Zm0,0" transform="translate(-0.015 0)" fill="#fffffd"/>
    </g>
  </g>
</svg>
