<svg id="Group_3694" data-name="Group 3694" xmlns="http://www.w3.org/2000/svg" width="58" height="57" viewBox="0 0 58 57">
  <g id="Path_8256" data-name="Path 8256" fill="rgba(242,182,54,0.16)">
    <path d="M 29 56.75 C 25.11812973022461 56.75 21.3525390625 56.00291061401367 17.8078498840332 54.52947998046875 C 14.38422966003418 53.10638046264648 11.30951976776123 51.06909942626953 8.669139862060547 48.47423934936523 C 6.029049873352051 45.87966918945312 3.956350088119507 42.8585090637207 2.508599996566772 39.49465942382812 C 1.009899973869324 36.01242828369141 0.25 32.31328964233398 0.25 28.5 C 0.25 24.68671035766602 1.009899973869324 20.98756980895996 2.508599996566772 17.50535011291504 C 3.956350088119507 14.14150047302246 6.029049873352051 11.12032985687256 8.669139862060547 8.52577018737793 C 11.30951976776123 5.930900096893311 14.38422966003418 3.893630027770996 17.8078498840332 2.47052001953125 C 21.3525505065918 0.9970899820327759 25.11812973022461 0.25 29 0.25 C 32.88187026977539 0.25 36.6474494934082 0.9970899820327759 40.1921501159668 2.47052001953125 C 43.61576843261719 3.893630027770996 46.69047927856445 5.930900096893311 49.33086013793945 8.52577018737793 C 51.97095108032227 11.12032985687256 54.04365158081055 14.14150047302246 55.49140167236328 17.50535011291504 C 56.9901008605957 20.98756980895996 57.75 24.68671035766602 57.75 28.5 C 57.75 32.31328964233398 56.9901008605957 36.01242828369141 55.49140167236328 39.49465942382812 C 54.04365158081055 42.8585090637207 51.97095108032227 45.87966918945312 49.33086013793945 48.47423934936523 C 46.69047927856445 51.06909942626953 43.61576843261719 53.10638046264648 40.1921501159668 54.52947998046875 C 36.6474609375 56.00291061401367 32.88187026977539 56.75 29 56.75 Z" stroke="none"/>
    <path d="M 29 0.5 C 25.15122985839844 0.5 21.41793060302734 1.240650177001953 17.90380859375 2.701370239257812 C 14.50986862182617 4.112140655517578 11.46183013916016 6.131740570068359 8.844371795654297 8.704071044921875 C 6.227508544921875 11.27581024169922 4.173110961914062 14.27024078369141 2.738231658935547 17.60417175292969 C 1.2530517578125 21.05500030517578 0.5 24.72089004516602 0.5 28.5 C 0.5 32.27910995483398 1.2530517578125 35.94499969482422 2.738231658935547 39.39582824707031 C 4.173110961914062 42.72975921630859 6.227508544921875 45.72418975830078 8.844371795654297 48.29592895507812 C 11.46183013916016 50.86825942993164 14.50986862182617 52.88785934448242 17.90380859375 54.29862976074219 C 21.41793060302734 55.75934982299805 25.15122985839844 56.5 29 56.5 C 32.84877014160156 56.5 36.58206939697266 55.75934982299805 40.09619140625 54.29862976074219 C 43.49013137817383 52.88785934448242 46.53816986083984 50.86825942993164 49.15563201904297 48.29592895507812 C 51.77249145507812 45.72418975830078 53.82688903808594 42.72975921630859 55.26176834106445 39.39582824707031 C 56.7469482421875 35.94499969482422 57.5 32.27910995483398 57.5 28.5 C 57.5 24.72089004516602 56.7469482421875 21.05500030517578 55.26176834106445 17.60417175292969 C 53.82688903808594 14.27024078369141 51.77249145507812 11.27581024169922 49.15563201904297 8.704071044921875 C 46.53816986083984 6.131740570068359 43.49013137817383 4.112140655517578 40.09619140625 2.701370239257812 C 36.58206939697266 1.240650177001953 32.84877014160156 0.5 29 0.5 M 29 0 C 45.01625823974609 0 58 12.75988006591797 58 28.5 C 58 44.24011993408203 45.01625823974609 57 29 57 C 12.98374176025391 57 0 44.24011993408203 0 28.5 C 0 12.75988006591797 12.98374176025391 0 29 0 Z" stroke="none" fill="#f2b636"/>
  </g>
  <g id="svgexport-6_20_" data-name="svgexport-6 (20)" transform="translate(15.999 20)">
    <path id="Path_8261" data-name="Path 8261" d="M21.84,2.61H5.168A4.178,4.178,0,0,0,1,6.785v8.676a4.173,4.173,0,0,0,4.168,4.175H21.84a4.173,4.173,0,0,0,4.168-4.175V6.785A4.178,4.178,0,0,0,21.84,2.61Zm-4.393,9.962-4.668,2.7a1.645,1.645,0,0,1-.834.225,1.69,1.69,0,0,1-.834-.225,1.663,1.663,0,0,1-.834-1.445V8.43a1.667,1.667,0,0,1,2.5-1.453l4.668,2.706a1.669,1.669,0,0,1,0,2.889Z" transform="translate(-1 -2.61)" fill="#f2b636"/>
    <path id="Path_8262" data-name="Path 8262" d="M14.13,14.938l4.645-2.679L14.13,9.58Z" transform="translate(-3.172 -3.761)" fill="#f2b636"/>
  </g>
</svg>
