<svg xmlns="http://www.w3.org/2000/svg" xmlns="http://www.w3.org/1999/xlink" width="143" height="143" viewBox="0 0 143 143">
  <defs>
    <clipPath id="instructor_avatar">
      <circle id="Ellipse_3241" data-name="Ellipse 3241" cx="46" cy="46" r="46" transform="translate(1306 24)" fill="#a5a2b4"/>
    </clipPath>
  </defs>
  <g id="instructor_avatar" data-name="instructor avatar" transform="translate(15373 13672)">
    <circle id="julian-wan-WNoLnJo7tS8-unsplash" cx="71.5" cy="71.5" r="71.5" transform="translate(-15373 -13672)" fill="#efeff6"/>
    <g id="Mask_Group_850" data-name="Mask Group 850" transform="translate(-16653 -13670)" opacity="0.5" clip-path="url(#instructor_avatar)">
      <g id="svgexport-6_-_2022-09-18T134021.714" data-name="svgexport-6 - 2022-09-18T134021.714" transform="translate(1310.819 24)">
        <g id="Group_16102" data-name="Group 16102" transform="translate(17.276)">
          <g id="Group_16101" data-name="Group 16101">
            <path id="Path_28294" data-name="Path 28294" d="M30.112,0a23.86,23.86,0,1,0,23.86,23.86A23.924,23.924,0,0,0,30.112,0Z" transform="translate(-6.251)" fill="#a5a2b4"/>
          </g>
        </g>
        <g id="Group_16104" data-name="Group 16104" transform="translate(0 49.427)">
          <g id="Group_16103" data-name="Group 16103">
            <path id="Path_28295" data-name="Path 28295" d="M83.448,31.345a22.244,22.244,0,0,0-2.4-4.376,29.658,29.658,0,0,0-20.526-12.92,4.392,4.392,0,0,0-3.022.729,25.1,25.1,0,0,1-15,4.9,25.1,25.1,0,0,1-15-4.9,3.909,3.909,0,0,0-3.022-.729A29.443,29.443,0,0,0,3.949,26.968a25.647,25.647,0,0,0-2.4,4.376,2.216,2.216,0,0,0,.1,1.98,41.568,41.568,0,0,0,2.813,4.168A39.6,39.6,0,0,0,9.262,42.91a62.455,62.455,0,0,0,4.793,4.168,47.515,47.515,0,0,0,56.681,0,45.813,45.813,0,0,0,4.793-4.168,48.113,48.113,0,0,0,4.793-5.418,36.529,36.529,0,0,0,2.813-4.168A1.778,1.778,0,0,0,83.448,31.345Z" transform="translate(-1.363 -13.984)" fill="#a5a2b4"/>
          </g>
        </g>
      </g>
    </g>
  </g>
</svg>
