<svg xmlns="http://www.w3.org/2000/svg" xmlns="http://www.w3.org/1999/xlink" width="348" height="216" viewBox="0 0 348 216">
  <defs>
    <clipPath id="instructor-terms">
      <rect id="Rectangle_29884" data-name="Rectangle 29884" width="348" height="216" transform="translate(623 251)" fill="#fff" stroke="#707070" stroke-width="1"/>
    </clipPath>
  </defs>
  <g id="Mask_Group_823" data-name="Mask Group 823" transform="translate(-623 -251)" clip-path="url(#instructor-terms)">
    <g id="Accept_terms-pana" data-name="Accept terms-pana" transform="translate(662.361 251)">
      <g id="freepik--background-complete--inject-83" transform="translate(0 6.208)">
        <path id="Path_27185" data-name="Path 27185" d="M51.381,61.115A9.877,9.877,0,0,1,59,62.5a17.341,17.341,0,0,1,5.4,5.754c2.7,4.365,3.618,10.2,3.7,15.335-5.7-.284-10.495-4.809-12.828-7.254-3.655-3.877-7.853-13.094-3.9-15.224" transform="translate(-24.874 -60.872)" fill="#f5f5f5"/>
        <path id="Path_27186" data-name="Path 27186" d="M78.116,87.481a8.433,8.433,0,0,1-2.827-7.988,11.223,11.223,0,0,1,4.889-7.143,4.731,4.731,0,0,1,3.858-.963,3.618,3.618,0,0,1,2.309,2.834,7.408,7.408,0,0,1-.475,3.772c-1.482,4.136-3.667,7.871-7.754,9.489" transform="translate(-25.761 -61.235)" fill="#f5f5f5"/>
        <path id="Path_27187" data-name="Path 27187" d="M81.524,100.139a16.778,16.778,0,0,1-1.611-2.988,15.433,15.433,0,0,1-1.136-3.531,34.262,34.262,0,0,1-.735-4.457,16.989,16.989,0,0,1,1.284-8.106A12.489,12.489,0,0,1,80.561,78.9a3.687,3.687,0,0,1,.617-.673,17.228,17.228,0,0,0-2.6,10.9,40.064,40.064,0,0,0,.654,4.408A17.336,17.336,0,0,0,80.221,97,19.591,19.591,0,0,1,81.524,100.139Z" transform="translate(-25.86 -61.478)" fill="#e0e0e0"/>
        <path id="Path_27188" data-name="Path 27188" d="M55.418,68.1a9.593,9.593,0,0,1,1.2,1.235c.735.821,1.79,2.025,3.087,3.519,2.574,2.994,6.087,7.167,9.877,11.865s7.056,9.063,9.34,12.26c1.154,1.605,2.074,2.908,2.692,3.821a10.1,10.1,0,0,1,.92,1.457,10.229,10.229,0,0,1-1.1-1.321l-2.84-3.7c-2.4-3.136-5.729-7.445-9.495-12.143L59.381,73.11l-2.939-3.63A10.829,10.829,0,0,1,55.418,68.1Z" transform="translate(-25.071 -61.124)" fill="#e0e0e0"/>
        <path id="Path_27189" data-name="Path 27189" d="M73.443,93.695a19.755,19.755,0,0,0-17.9-2.259c-1.494.556-3.087,1.6-3.161,3.192s1.519,2.729,2.994,3.346A16.86,16.86,0,0,0,73.659,94.04" transform="translate(-24.965 -61.899)" fill="#f5f5f5"/>
        <path id="Path_27190" data-name="Path 27190" d="M59.793,93.993a2.877,2.877,0,0,1,.858-.3c.556-.154,1.377-.333,2.4-.525a22.4,22.4,0,0,1,8.118-.068,14,14,0,0,1,4.21,1.611,13.5,13.5,0,0,1,4.4,4.241,2.827,2.827,0,0,1,.438.79c-.093.068-.8-1.012-2.253-2.469a13.711,13.711,0,0,0-6.908-3.642,25.12,25.12,0,0,0-7.939-.093C61.071,93.807,59.812,94.054,59.793,93.993Z" transform="translate(-25.224 -61.987)" fill="#e0e0e0"/>
        <path id="Path_27191" data-name="Path 27191" d="M80.8,219.2c18.409-8.939,25.589-29.824,28-49.239.407-3.241,1.3-6.581.216-9.655s-4.352-5.556-7.457-4.673c-2.568.741-4.056,3.365-5.76,5.451a19.138,19.138,0,0,1-8.711,6.019c-2.222.735-4.865.982-6.717-.457-2.537-1.975-2.253-5.871-1.722-9.075l2.963-17.9c.531-3.2,1.062-6.476.549-9.68s-2.266-6.377-5.179-7.717-6.964-.179-8.106,2.852a29.382,29.382,0,0,0-.728,3.982c-.3,1.321-1.154,2.685-2.469,2.858s-2.469-.938-3.284-2.031c-2.79-3.766-4.377-8.291-5.815-12.773s-2.8-9.05-5.241-13.057-6.173-7.47-10.7-8.464-9.877,1.068-11.767,5.389,0,9.34,2.309,13.458A72.445,72.445,0,0,0,43.83,131.057a6.144,6.144,0,0,1,2.062,3.087c.358,2.247-2.006,4.05-4.229,4.414-2.513.414-5.068-.247-7.618-.346s-5.426.568-6.748,2.778c-1.852,3.087.358,6.939,2.7,9.618A61.975,61.975,0,0,0,46.46,163.961c2.216,1.235,4.581,2.389,6.217,4.352s2.327,5.025.821,7.1-4.574,2.327-6.97,1.475-4.4-2.55-6.612-3.784c-4.136-2.364-9.877-2.969-13.3.389-2.253,2.21-2.969,5.667-2.506,8.8a23.66,23.66,0,0,0,3.6,8.692,62.353,62.353,0,0,0,23.379,22.687c9.661,5.167,18.971,7.643,29.719,5.556" transform="translate(-23.972 -62.079)" fill="#ebebeb"/>
        <path id="Path_27192" data-name="Path 27192" d="M78.561,220.3c.519-7.76.864-3.735-.444-13.927a294.038,294.038,0,0,0-6.482-32.719l-2.142-8.5c-.71-2.784-1.408-5.556-2.266-8.211a144.715,144.715,0,0,0-5.784-15.008c-2.068-4.686-4.2-9.056-6.235-13.125s-3.994-7.846-5.945-11.192a115.529,115.529,0,0,0-10.328-15.1c-1.352-1.679-2.469-2.945-3.2-3.8l-.864-.963a2.117,2.117,0,0,0-.309-.315,2.352,2.352,0,0,0,.265.358c.2.247.475.574.815,1,.722.87,1.784,2.167,3.087,3.865a122.235,122.235,0,0,1,10.143,15.168c1.914,3.352,3.852,7.112,5.871,11.18s4.118,8.451,6.173,13.131a145.39,145.39,0,0,1,5.729,14.983c.846,2.648,1.537,5.389,2.247,8.186s1.414,5.624,2.136,8.488a298.659,298.659,0,0,1,6.519,32.67c1.321,10.161,1.031,6.093.568,13.828" transform="translate(-24.342 -62.15)" fill="#e0e0e0"/>
        <path id="Path_27193" data-name="Path 27193" d="M68.244,157.774a6.957,6.957,0,0,0,.531-1.321c.309-.858.716-2.111,1.191-3.673.963-3.124,2.142-7.476,3.426-12.279s2.525-9.137,3.531-12.23c.494-1.55.914-2.8,1.235-3.661a6.433,6.433,0,0,0,.4-1.364,6.791,6.791,0,0,0-.617,1.278c-.364.84-.846,2.068-1.4,3.611-1.111,3.087-2.42,7.408-3.7,12.2s-2.389,9.038-3.26,12.347c-.4,1.475-.735,2.722-1.006,3.7a5.9,5.9,0,0,0-.333,1.383Z" transform="translate(-25.52 -63.053)" fill="#e0e0e0"/>
        <path id="Path_27194" data-name="Path 27194" d="M26.8,144.241a8.8,8.8,0,0,0,1.617.463c1.037.259,2.55.617,4.4,1.148,3.7,1.012,8.785,2.58,14.31,4.562s10.445,4.007,13.964,5.556c1.766.772,3.179,1.432,4.155,1.852a8.593,8.593,0,0,0,1.55.654,9,9,0,0,0-1.445-.864c-.951-.512-2.34-1.235-4.087-2.056-3.482-1.661-8.4-3.747-13.933-5.741a147.158,147.158,0,0,0-14.409-4.408c-1.852-.463-3.4-.778-4.463-.969a9.377,9.377,0,0,0-1.661-.2Z" transform="translate(-24.071 -63.787)" fill="#e0e0e0"/>
        <path id="Path_27195" data-name="Path 27195" d="M79.324,207.659a3.831,3.831,0,0,0,.364-.457l.945-1.377c.809-1.2,1.938-2.969,3.309-5.173,2.741-4.408,6.334-10.612,10.2-17.514s7.408-13.131,10.05-17.588c1.3-2.161,2.358-3.945,3.148-5.266.34-.574.617-1.049.852-1.438a2.173,2.173,0,0,0,.259-.525,3.829,3.829,0,0,0-.364.457l-.988,1.377c-.815,1.2-1.945,2.969-3.315,5.173-2.722,4.42-6.315,10.594-10.186,17.514s-7.408,13.131-10.05,17.588c-1.3,2.161-2.358,3.945-3.148,5.266l-.846,1.438a2.092,2.092,0,0,0-.235.525Z" transform="translate(-25.907 -64.279)" fill="#e0e0e0"/>
        <path id="Path_27196" data-name="Path 27196" d="M25.448,182.125a2.192,2.192,0,0,0,.506.309l1.482.784,5.556,2.834c4.7,2.4,11.149,5.778,18.267,9.526s13.581,7.069,18.36,9.371c2.371,1.148,4.321,2.056,5.649,2.661l1.556.685a2.253,2.253,0,0,0,.556.2,2.192,2.192,0,0,0-.506-.309l-1.506-.784-5.556-2.834c-4.7-2.4-11.149-5.778-18.267-9.526s-13.581-7.075-18.354-9.371c-2.377-1.148-4.321-2.056-5.655-2.661L26,182.31a2.253,2.253,0,0,0-.556-.185Z" transform="translate(-24.024 -65.111)" fill="#e0e0e0"/>
      </g>
      <g id="freepik--Floor--inject-83" transform="translate(3.103 215.847)">
        <path id="Path_27197" data-name="Path 27197" d="M288.236,278.267c0,.086-58.444.16-130.518.16s-130.53-.068-130.53-.16,58.431-.161,130.531-.161S288.236,278.181,288.236,278.267Z" transform="translate(-27.188 -278.106)" fill="#263238"/>
      </g>
      <g id="freepik--Plant--inject-83" transform="translate(15.388 113.396)">
        <path id="Path_27198" data-name="Path 27198" d="M41.973,172.317s4.26-2.877,9.581,7.328a133.464,133.464,0,0,1,7.359,16.1s1.4,2.136,2.864.716,3.445-5.42,5.964-4.723,3.494,3.611,3.037,7.883-1.111,13.668-1.167,14.514.432,2.056,1.58,1.235,7.748-8.291,11.112-4.939.142,15.032-.185,16.316-.074,1.852.537,2.142,2.593-2.414,4.556-4.463,4.6-4.093,6.377-2,2.426,10.834-5.766,25.12l-4.229,6.371-7.674-.352c-16.378-1.759-23.076-7.408-23.718-10.081s2.543-3.605,5.359-3.988,6.173-.389,6.291-1.068-.185-1.2-1.42-1.692S49.845,232,49.116,227.31s9.2-5.63,10.532-6.093.617-1.568-.086-2.013-8.711-5.439-12.433-7.581-5.556-4.55-4.6-7.087c.914-2.469,5.315-1.7,7.328-2.05s1.1-2.741,1.1-2.741a131.3,131.3,0,0,1-8.711-15.434c-5.13-10.328-.179-12.081-.179-12.081" transform="translate(-39.918 -171.943)" fill="#7e59d1"/>
        <path id="Path_27199" data-name="Path 27199" d="M47.006,181.792a1.853,1.853,0,0,1,.1.179l.29.549,1.08,2.105,3.951,7.766c3.365,6.556,8.025,15.588,13.118,25.57s9.766,19.033,13.051,25.613c1.63,3.284,2.945,5.951,3.865,7.809l1.031,2.13.265.562c.056.123.08.191.08.191a1.494,1.494,0,0,1-.111-.179l-.284-.543c-.259-.5-.617-1.235-1.08-2.111-.945-1.852-2.29-4.494-3.951-7.766-3.309-6.556-7.982-15.594-13.125-25.564s-9.76-19.039-13.026-25.62l-3.889-7.809c-.438-.914-.784-1.63-1.031-2.13-.111-.235-.2-.42-.259-.562A.722.722,0,0,1,47.006,181.792Z" transform="translate(-40.166 -172.288)" fill="#263238"/>
        <path id="Path_27200" data-name="Path 27200" d="M65.988,198.373a15.23,15.23,0,0,1-.426,2.013c-.3,1.315-.679,2.982-1.105,4.834s-.827,3.587-1.148,4.821c-.167.617-.309,1.105-.42,1.445a1.852,1.852,0,0,1-.2.512,19.72,19.72,0,0,1,.42-2.013l1.068-4.84c.432-1.889.852-3.593,1.191-4.821.173-.617.321-1.105.432-1.438A1.883,1.883,0,0,1,65.988,198.373Z" transform="translate(-40.714 -172.867)" fill="#263238"/>
        <path id="Path_27201" data-name="Path 27201" d="M61.391,212.495c0,.074-3.531-.827-7.84-2.025s-7.778-2.222-7.754-2.3,3.525.827,7.834,2.019S61.409,212.414,61.391,212.495Z" transform="translate(-40.123 -173.21)" fill="#263238"/>
        <path id="Path_27202" data-name="Path 27202" d="M71.7,230.433a2.117,2.117,0,0,1-.562.08c-.358.037-.883.074-1.531.1-1.3.062-3.087.1-5.075.049s-3.766-.2-5.056-.333c-.617-.068-1.167-.136-1.531-.191a2.031,2.031,0,0,1-.549-.117,16.744,16.744,0,0,1,2.093.1c1.3.086,3.087.191,5.056.247s3.76.049,5.056.037A16.314,16.314,0,0,1,71.7,230.433Z" transform="translate(-40.529 -173.974)" fill="#263238"/>
        <path id="Path_27203" data-name="Path 27203" d="M78.583,218.358a12.6,12.6,0,0,1-.858,1.741c-.568,1.056-1.364,2.506-2.259,4.1s-1.722,3.031-2.334,4.062a12.344,12.344,0,0,1-1.043,1.636,12.594,12.594,0,0,1,.858-1.741c.568-1.056,1.364-2.506,2.259-4.1s1.722-3.031,2.334-4.056a12.743,12.743,0,0,1,1.043-1.642Z" transform="translate(-41.043 -173.566)" fill="#263238"/>
        <path id="Path_27204" data-name="Path 27204" d="M89.566,232.918a2.687,2.687,0,0,1-.278.617l-.87,1.6c-.741,1.34-1.784,3.185-2.951,5.217s-2.241,3.865-3.031,5.18c-.37.617-.691,1.13-.945,1.556a2.735,2.735,0,0,1-.383.543,2.883,2.883,0,0,1,.278-.617l.87-1.6c.741-1.346,1.784-3.192,2.951-5.223s2.241-3.858,3.031-5.173l.945-1.556a3.358,3.358,0,0,1,.383-.543Z" transform="translate(-41.358 -174.075)" fill="#263238"/>
        <path id="Path_27205" data-name="Path 27205" d="M80.586,247.7a2.872,2.872,0,0,1-.71.062c-.463,0-1.13.031-1.951.037-1.642,0-3.92,0-6.427-.167s-4.778-.352-6.408-.543c-.821-.093-1.482-.185-1.932-.253a3.088,3.088,0,0,1-.7-.142,3.917,3.917,0,0,1,.716,0l1.938.161c1.636.142,3.9.321,6.4.457s4.772.21,6.414.253l1.951.056a3.661,3.661,0,0,1,.71.08Z" transform="translate(-40.706 -174.556)" fill="#263238"/>
      </g>
      <g id="freepik--Character--inject-83" transform="translate(56.114)">
        <path id="Path_27206" data-name="Path 27206" d="M284.184,166.227l-20.662,20.119-19.039,36.331-21.409,41.084-26.3-12.347-28.435-14.557,18.187-34.744,11.3-38.892c-7.988,5.3-22.842,12.513-40.559,8.748-19.224-4.074-9.995-76.55-9.995-76.55l21.125-.543,2.124,51.1,23.86-10.544.037.086c1.438-.617,2.7-1.235,3.365-1.574,13.2-7.2,21.872-8.075,36.04-3.019h0l20.44,6.791c5.254,2.469,24.62,12.007,29.922,28.515" transform="translate(-84.32 -55.853)" fill="#7e59d1"/>
        <path id="Path_27207" data-name="Path 27207" d="M213.774,130.654s-.475.272-1.278.846a14.155,14.155,0,0,0-2.963,2.908,20.99,20.99,0,0,0-2.914,5.426,73.964,73.964,0,0,0-2.179,7.278l-3.63,13.353c-.475,1.673-.858,3.043-1.142,4.031-.13.451-.241.815-.321,1.093a1.675,1.675,0,0,1-.136.377,1.555,1.555,0,0,1,.074-.389c.068-.29.154-.654.265-1.111.253-1,.617-2.377,1.037-4.062.914-3.457,2.161-8.167,3.544-13.378a70.8,70.8,0,0,1,2.21-7.3,20.626,20.626,0,0,1,3.013-5.457,13.34,13.34,0,0,1,3.087-2.877,8.965,8.965,0,0,1,.988-.58A2.667,2.667,0,0,1,213.774,130.654Z" transform="translate(-86.213 -57.104)" fill="#263238"/>
        <g id="Group_15797" data-name="Group 15797" transform="translate(88.274 83.792)" opacity="0.3">
          <path id="Path_27208" data-name="Path 27208" d="M205.168,141.267c-5.908,16-16.532,24.934-31.577,32.947a55.406,55.406,0,0,0,24.811-9.087" transform="translate(-173.591 -141.267)"/>
        </g>
        <g id="Group_15798" data-name="Group 15798" transform="translate(138.673 72.408)" opacity="0.3">
          <path id="Path_27209" data-name="Path 27209" d="M225.817,129.47q3.753,60.117,7.507,120.227l-7.408,15.273Z" transform="translate(-225.817 -129.47)"/>
        </g>
        <path id="Path_27210" data-name="Path 27210" d="M249.783,172.255c-.086.037-.84-1.852-1.9-4.13s-1.994-4.087-1.914-4.13a5.31,5.31,0,0,1,.735,1.117c.414.716.945,1.729,1.469,2.877s.957,2.2,1.235,2.982a4.889,4.889,0,0,1,.37,1.284Z" transform="translate(-87.848 -58.27)" fill="#fafafa"/>
        <path id="Path_27211" data-name="Path 27211" d="M267.05,163.8a34.5,34.5,0,0,1-4.013,2.692,36.206,36.206,0,0,1-4.186,2.42,37.7,37.7,0,0,1,4.019-2.692A36.45,36.45,0,0,1,267.05,163.8Z" transform="translate(-88.299 -58.263)" fill="#fafafa"/>
        <path id="Path_27212" data-name="Path 27212" d="M259.77,157.251a32.569,32.569,0,0,1-.333-6.581,16.378,16.378,0,0,1,.333,3.284,16.887,16.887,0,0,1,0,3.3Z" transform="translate(-88.316 -57.804)" fill="#fafafa"/>
        <path id="Path_27213" data-name="Path 27213" d="M276.965,156.142a37.424,37.424,0,0,1-5.889-3.636,18.867,18.867,0,0,1,3.031,1.679,18.522,18.522,0,0,1,2.858,1.957Z" transform="translate(-88.726 -57.868)" fill="#fafafa"/>
        <path id="Path_27214" data-name="Path 27214" d="M250.586,190.475a33.07,33.07,0,0,1,1.667-4.272,33.583,33.583,0,0,1,1.963-4.142,32.384,32.384,0,0,1-1.667,4.272,33.071,33.071,0,0,1-1.963,4.142Z" transform="translate(-88.01 -58.901)" fill="#fafafa"/>
        <path id="Path_27215" data-name="Path 27215" d="M242.74,198.425a14.67,14.67,0,0,1-1.506-2.655,14.885,14.885,0,0,1-1.235-2.8,14.9,14.9,0,0,1,1.512,2.655,14.419,14.419,0,0,1,1.228,2.8Z" transform="translate(-87.639 -59.283)" fill="#fafafa"/>
        <path id="Path_27216" data-name="Path 27216" d="M249.086,209.184a10.353,10.353,0,0,1-3.173.809,10.224,10.224,0,0,1-3.272.1c0-.093,1.451-.161,3.229-.414S249.061,209.085,249.086,209.184Z" transform="translate(-87.732 -59.849)" fill="#fafafa"/>
        <path id="Path_27217" data-name="Path 27217" d="M257.629,197.419a16.41,16.41,0,0,1,1.1-2.994,15.774,15.774,0,0,1,1.389-2.871,16.088,16.088,0,0,1-1.093,2.994A15.1,15.1,0,0,1,257.629,197.419Z" transform="translate(-88.256 -59.233)" fill="#fafafa"/>
        <path id="Path_27218" data-name="Path 27218" d="M237.257,221.84c-.08.049-.988-1.2-2.235-2.642s-2.358-2.519-2.29-2.587a16.847,16.847,0,0,1,4.525,5.229Z" transform="translate(-87.385 -60.109)" fill="#fafafa"/>
        <path id="Path_27219" data-name="Path 27219" d="M233.628,195.8a18.209,18.209,0,0,1-1.611,3.087,18.873,18.873,0,0,1-1.9,2.939,19.507,19.507,0,0,1,1.617-3.087A19.018,19.018,0,0,1,233.628,195.8Z" transform="translate(-87.294 -59.382)" fill="#fafafa"/>
        <path id="Path_27220" data-name="Path 27220" d="M236.118,186.731a20.082,20.082,0,0,1-3.451-.728,19.428,19.428,0,0,1-3.371-1.037,19.393,19.393,0,0,1,3.451.728,19.019,19.019,0,0,1,3.371,1.037Z" transform="translate(-87.265 -59.003)" fill="#fafafa"/>
        <path id="Path_27221" data-name="Path 27221" d="M236.212,168.243a21.116,21.116,0,0,1,1.852,2.519,20.8,20.8,0,0,1,1.716,2.593,12.119,12.119,0,0,1-1.976-2.414,11.8,11.8,0,0,1-1.593-2.7Z" transform="translate(-87.507 -58.418)" fill="#fafafa"/>
        <path id="Path_27222" data-name="Path 27222" d="M230.132,167.315a27.324,27.324,0,0,1-4.482,3.9,13.583,13.583,0,0,1,2.136-2.074,14.038,14.038,0,0,1,2.346-1.827Z" transform="translate(-87.138 -58.386)" fill="#fafafa"/>
        <path id="Path_27223" data-name="Path 27223" d="M234.786,157.393a20.045,20.045,0,0,1-5.112-6.007c.08-.049,1.093,1.4,2.506,3.05S234.854,157.326,234.786,157.393Z" transform="translate(-87.278 -57.829)" fill="#fafafa"/>
        <path id="Path_27224" data-name="Path 27224" d="M251.08,154.624a20.894,20.894,0,0,1-3.463,1.235,20.582,20.582,0,0,1-3.556.914,21.959,21.959,0,0,1,3.463-1.235A20.83,20.83,0,0,1,251.08,154.624Z" transform="translate(-87.781 -57.942)" fill="#fafafa"/>
        <path id="Path_27225" data-name="Path 27225" d="M228.27,138.815c-.093,0-.049-1.414-.272-3.13s-.617-3.087-.506-3.087a11.409,11.409,0,0,1,.778,6.235Z" transform="translate(-87.201 -57.172)" fill="#fafafa"/>
        <path id="Path_27226" data-name="Path 27226" d="M213.388,185.426a11.687,11.687,0,0,1-1.451,1.074c-.914.617-2.161,1.537-3.494,2.587s-2.506,2.043-3.346,2.772a12.512,12.512,0,0,1-1.389,1.161,8.531,8.531,0,0,1,1.235-1.327,41.975,41.975,0,0,1,3.3-2.858,43.636,43.636,0,0,1,3.562-2.525,9.587,9.587,0,0,1,1.58-.883Z" transform="translate(-86.371 -59.019)" fill="#fafafa"/>
        <path id="Path_27227" data-name="Path 27227" d="M212.713,180.048c-.08.043-1.117-1.568-2.556-3.451s-2.71-3.315-2.642-3.383a4.321,4.321,0,0,1,.932.858,30.129,30.129,0,0,1,1.969,2.327c.716.951,1.315,1.852,1.716,2.519A4.555,4.555,0,0,1,212.713,180.048Z" transform="translate(-86.504 -58.592)" fill="#fafafa"/>
        <path id="Path_27228" data-name="Path 27228" d="M216.578,160.074a37.3,37.3,0,0,1-6.05,3.34,18.886,18.886,0,0,1,2.951-1.809,18.355,18.355,0,0,1,3.1-1.531Z" transform="translate(-86.609 -58.133)" fill="#fafafa"/>
        <path id="Path_27229" data-name="Path 27229" d="M212.73,150.991a4.859,4.859,0,0,1-1.056-.833,22.025,22.025,0,0,1-2.229-2.358,22.562,22.562,0,0,1-1.883-2.655,4.865,4.865,0,0,1-.617-1.2c.086-.049,1.142,1.7,2.741,3.648S212.81,150.917,212.73,150.991Z" transform="translate(-86.484 -57.569)" fill="#fafafa"/>
        <path id="Path_27230" data-name="Path 27230" d="M219.58,150.87a13.678,13.678,0,0,1,1.136-2.7,13.53,13.53,0,0,1,1.426-2.562,26.793,26.793,0,0,1-2.562,5.26Z" transform="translate(-86.925 -57.627)" fill="#fafafa"/>
        <path id="Path_27231" data-name="Path 27231" d="M217.76,140.656c-.1,0,0-1.92-.358-4.235s-1.043-4.105-.951-4.142a4.105,4.105,0,0,1,.525,1.148,16.175,16.175,0,0,1,.747,2.945,17.091,17.091,0,0,1,.191,3.031A3.945,3.945,0,0,1,217.76,140.656Z" transform="translate(-86.816 -57.161)" fill="#fafafa"/>
        <path id="Path_27232" data-name="Path 27232" d="M219.408,191.468a13.237,13.237,0,0,1,0-1.809c.043-1.111.074-2.648.031-4.321s-.154-3.229-.247-4.321a11.6,11.6,0,0,1-.111-1.8,9.261,9.261,0,0,1,.34,1.778,40.133,40.133,0,0,1,.34,4.358,39.657,39.657,0,0,1-.123,4.365A8.5,8.5,0,0,1,219.408,191.468Z" transform="translate(-86.908 -58.802)" fill="#fafafa"/>
        <path id="Path_27233" data-name="Path 27233" d="M218.26,207.7a26.751,26.751,0,0,0-2.735-2.2,27.163,27.163,0,0,0-3.142-1.556,8.97,8.97,0,0,1,5.889,3.76Z" transform="translate(-86.674 -59.666)" fill="#fafafa"/>
        <path id="Path_27234" data-name="Path 27234" d="M226.144,217.686a36.541,36.541,0,0,1-4.241,2.377,35.723,35.723,0,0,1-4.389,2.087,37.766,37.766,0,0,1,4.241-2.371A36.37,36.37,0,0,1,226.144,217.686Z" transform="translate(-86.853 -60.147)" fill="#fafafa"/>
        <path id="Path_27235" data-name="Path 27235" d="M203.735,221.76a38.763,38.763,0,0,1-3.124-3.969,39.807,39.807,0,0,1-2.864-4.167,40.184,40.184,0,0,1,3.124,3.976,40.92,40.92,0,0,1,2.865,4.161Z" transform="translate(-86.162 -60.005)" fill="#fafafa"/>
        <path id="Path_27236" data-name="Path 27236" d="M197.024,203.548a4.537,4.537,0,0,1-.142-1.266c-.031-.784-.043-1.852,0-3.087s.167-2.278.272-3.087a4.78,4.78,0,0,1,.253-1.235c.093,0-.093,1.938-.2,4.321S197.085,203.548,197.024,203.548Z" transform="translate(-86.131 -59.349)" fill="#fafafa"/>
        <path id="Path_27237" data-name="Path 27237" d="M189.24,234.709a33.018,33.018,0,0,1-3.605-2.79,32.531,32.531,0,0,1-3.4-3.037,32.763,32.763,0,0,1,3.605,2.79,32.485,32.485,0,0,1,3.4,3.037Z" transform="translate(-85.62 -60.538)" fill="#fafafa"/>
        <path id="Path_27238" data-name="Path 27238" d="M193.986,233.616a36.6,36.6,0,0,1-.278-4.84,37.1,37.1,0,0,1,.049-4.846,36.6,36.6,0,0,1,.278,4.84,37.1,37.1,0,0,1-.049,4.846Z" transform="translate(-86.019 -60.365)" fill="#fafafa"/>
        <path id="Path_27239" data-name="Path 27239" d="M202.377,253.144c0,.049-.772-.253-2.013-.654a28.867,28.867,0,0,0-10.013-1.364c-1.3.049-2.105.142-2.111.086a1.983,1.983,0,0,1,.556-.13c.358-.068.889-.13,1.543-.185a24.23,24.23,0,0,1,10.087,1.383,13.386,13.386,0,0,1,1.438.617,1.852,1.852,0,0,1,.512.247Z" transform="translate(-85.83 -61.306)" fill="#fafafa"/>
        <path id="Path_27240" data-name="Path 27240" d="M210.214,256.747a7.087,7.087,0,0,1,1.4.957,35.3,35.3,0,0,1,5.76,5.76,7.088,7.088,0,0,1,.957,1.4,11.459,11.459,0,0,1-1.136-1.235c-.679-.784-1.642-1.852-2.76-2.969s-2.185-2.074-2.969-2.759a11.459,11.459,0,0,1-1.247-1.148Z" transform="translate(-86.598 -61.513)" fill="#fafafa"/>
        <path id="Path_27241" data-name="Path 27241" d="M213.3,223.153a24.982,24.982,0,0,1-1.6-3.6,24.4,24.4,0,0,1-1.3-3.7,24.987,24.987,0,0,1,1.6,3.6,24.4,24.4,0,0,1,1.3,3.7Z" transform="translate(-86.604 -60.083)" fill="#fafafa"/>
        <path id="Path_27242" data-name="Path 27242" d="M187.425,158.583a4.8,4.8,0,0,1-.945,1.031,20.891,20.891,0,0,1-2.642,2.087,20.45,20.45,0,0,1-2.951,1.642,4.937,4.937,0,0,1-1.315.475c-.037-.093,1.92-.932,4.087-2.383S187.357,158.509,187.425,158.583Z" transform="translate(-85.527 -58.08)" fill="#fafafa"/>
        <path id="Path_27243" data-name="Path 27243" d="M189.351,151.6a23.627,23.627,0,0,1,.259-5.494A23.626,23.626,0,0,1,189.351,151.6Z" transform="translate(-85.867 -57.644)" fill="#fafafa"/>
        <path id="Path_27244" data-name="Path 27244" d="M176.363,157.392a18.469,18.469,0,0,1-3.2-1.29,18.842,18.842,0,0,1-3.087-1.587,19.089,19.089,0,0,1,3.2,1.29,18.839,18.839,0,0,1,3.087,1.587Z" transform="translate(-85.194 -57.938)" fill="#fafafa"/>
        <path id="Path_27245" data-name="Path 27245" d="M199.357,148.575a18.285,18.285,0,0,1,.1-3.414,17.551,17.551,0,0,1,.42-3.389,18.57,18.57,0,0,1-.1,3.414A18.027,18.027,0,0,1,199.357,148.575Z" transform="translate(-86.217 -57.493)" fill="#fafafa"/>
        <path id="Path_27246" data-name="Path 27246" d="M169.573,170.915a11.618,11.618,0,0,1-3.519-1.543,11.291,11.291,0,0,1-3.019-2.383c.062-.074,1.377,1.031,3.179,2.111S169.611,170.823,169.573,170.915Z" transform="translate(-84.948 -58.374)" fill="#fafafa"/>
        <path id="Path_27247" data-name="Path 27247" d="M160.124,158.039a26.053,26.053,0,0,1-2.63,3.087,26.546,26.546,0,0,1-2.864,2.9,52.138,52.138,0,0,1,5.494-6.019Z" transform="translate(-84.655 -58.06)" fill="#fafafa"/>
        <path id="Path_27248" data-name="Path 27248" d="M159.321,146.236a9.044,9.044,0,0,1-2.883-1.611,9.34,9.34,0,0,1-2.352-2.309c.068-.068,1.105.975,2.55,2.05S159.365,146.155,159.321,146.236Z" transform="translate(-84.636 -57.512)" fill="#fafafa"/>
        <path id="Path_27249" data-name="Path 27249" d="M153.426,148.822a7.8,7.8,0,0,1-1.315,1.8,8.025,8.025,0,0,1-1.562,1.6,15.582,15.582,0,0,1,2.877-3.4Z" transform="translate(-84.512 -57.739)" fill="#fafafa"/>
        <path id="Path_27250" data-name="Path 27250" d="M166.14,127.174a25.273,25.273,0,0,1-2.414,3.2,24.416,24.416,0,0,1-2.661,3,25.568,25.568,0,0,1,2.414-3.2A25.239,25.239,0,0,1,166.14,127.174Z" transform="translate(-84.88 -56.982)" fill="#fafafa"/>
        <path id="Path_27251" data-name="Path 27251" d="M155.184,129.429a22.842,22.842,0,0,1-2.63-2.76,22.879,22.879,0,0,1-2.383-2.963,22.443,22.443,0,0,1,2.63,2.753A22.844,22.844,0,0,1,155.184,129.429Z" transform="translate(-84.499 -56.861)" fill="#fafafa"/>
        <path id="Path_27252" data-name="Path 27252" d="M160.731,115.524a18.372,18.372,0,0,1-1.852-2.926,19.365,19.365,0,0,1-1.562-3.087,18.625,18.625,0,0,1,1.852,2.932,19.174,19.174,0,0,1,1.562,3.081Z" transform="translate(-84.748 -56.365)" fill="#fafafa"/>
        <path id="Path_27253" data-name="Path 27253" d="M160.566,106.563c-.074-.062.852-1.235,1.587-2.9s1-3.124,1.1-3.087a9.513,9.513,0,0,1-2.685,6Z" transform="translate(-84.862 -56.052)" fill="#fafafa"/>
        <path id="Path_27254" data-name="Path 27254" d="M150.017,106a7.18,7.18,0,0,1,.759-3.778,9.112,9.112,0,0,1,1.506-2.3,2.988,2.988,0,0,1,.858-.747,17.964,17.964,0,0,0-2.074,3.173A17.685,17.685,0,0,0,150.017,106Z" transform="translate(-84.493 -56.003)" fill="#fafafa"/>
        <path id="Path_27255" data-name="Path 27255" d="M242.242,90.311a39.2,39.2,0,0,1-.093-7.7,13.143,13.143,0,0,1,2.84-7.056,7.971,7.971,0,0,1,6.828-2.877c1.58.2,3.087.982,4.661.938,1.852-.056,3.439-1.191,5.112-1.951a13.39,13.39,0,0,1,8.421-.883,8.026,8.026,0,0,1,3.982,2.013,4.457,4.457,0,0,1,1.29,4.124,21.28,21.28,0,0,1,5.556.488,7.18,7.18,0,0,1,4.439,3.087,4.374,4.374,0,0,1-.463,5.155,3.556,3.556,0,0,1,3.926,2.679,4.581,4.581,0,0,1-1.852,4.593,8.562,8.562,0,0,1-5.772,1.161,12.5,12.5,0,0,1-5.081-1.852" transform="translate(-87.709 -54.999)" fill="#263238"/>
        <path id="Path_27256" data-name="Path 27256" d="M240.5,148.871h0a13.322,13.322,0,0,0,16.193-9.495c1.043-3.957,1.9-7.272,1.9-7.272s10.316,1.772,13.73-8.025,9.26-32.849,9.26-32.849h0a35.96,35.96,0,0,0-35.688-7.192l-1.852.617L230.93,132.394a13.322,13.322,0,0,0,9.569,16.477Z" transform="translate(-87.305 -55.405)" fill="#f5b9a1"/>
        <path id="Path_27257" data-name="Path 27257" d="M259.251,133.489a24.076,24.076,0,0,1-11.563-7.92s.654,8.069,10.736,10.495Z" transform="translate(-87.908 -56.926)" fill="#aa6550"/>
        <path id="Path_27258" data-name="Path 27258" d="M241.976,95.689c-.142-.13-6.068-4.253-8.1,2.525s5.186,7.408,5.254,7.229S241.976,95.689,241.976,95.689Z" transform="translate(-87.413 -55.834)" fill="#f5b9a1"/>
        <path id="Path_27259" data-name="Path 27259" d="M237.884,102.33a2.092,2.092,0,0,1-.37.08,1.235,1.235,0,0,1-.864-.259,3.1,3.1,0,0,1-.562-3.025,4.043,4.043,0,0,1,.833-1.593,1.432,1.432,0,0,1,1.161-.617.617.617,0,0,1,.617.531c.037.216-.049.34,0,.364s.179-.074.2-.37a.778.778,0,0,0-.136-.5.92.92,0,0,0-.617-.37,1.722,1.722,0,0,0-1.55.679,4.136,4.136,0,0,0-.975,1.766c-.37,1.377-.056,2.864.84,3.445a1.327,1.327,0,0,0,1.136.142C237.841,102.49,237.921,102.354,237.884,102.33Z" transform="translate(-87.481 -55.912)" fill="#aa6550"/>
        <path id="Path_27260" data-name="Path 27260" d="M274.719,106.158a1.482,1.482,0,0,1-1.852.957,1.414,1.414,0,0,1-1.019-1.747,1.482,1.482,0,0,1,1.821-.963,1.42,1.42,0,0,1,1.049,1.753Z" transform="translate(-88.751 -56.184)" fill="#263238"/>
        <path id="Path_27261" data-name="Path 27261" d="M276.519,105.144c-.235.123-1.031-1.012-2.537-1.519s-2.871-.117-2.969-.358c-.056-.1.235-.377.833-.568a4.025,4.025,0,0,1,2.469.062,3.877,3.877,0,0,1,1.945,1.438C276.586,104.712,276.63,105.094,276.519,105.144Z" transform="translate(-88.724 -56.121)" fill="#263238"/>
        <path id="Path_27262" data-name="Path 27262" d="M259.367,101.008a1.482,1.482,0,0,1-1.821.963,1.414,1.414,0,0,1-1.019-1.747,1.475,1.475,0,0,1,1.821-.963,1.414,1.414,0,0,1,1.019,1.747Z" transform="translate(-88.216 -56.004)" fill="#263238"/>
        <path id="Path_27263" data-name="Path 27263" d="M261.076,100.282c-.235.13-1.037-1.012-2.543-1.519s-2.864-.117-2.969-.358c-.049-.1.235-.377.84-.562a4.05,4.05,0,0,1,2.469.056,3.926,3.926,0,0,1,1.951,1.438C261.138,99.85,261.187,100.233,261.076,100.282Z" transform="translate(-88.183 -55.951)" fill="#263238"/>
        <path id="Path_27264" data-name="Path 27264" d="M263.054,113.4a10.612,10.612,0,0,1,2.593.377c.4.093.79.136.944-.1a2.093,2.093,0,0,0,.124-1.235c-.049-1.056-.1-2.161-.154-3.315-.179-4.7-.173-8.513,0-8.519s.488,3.8.667,8.5c.037,1.154.068,2.259.1,3.315a2.327,2.327,0,0,1-.3,1.574,1.019,1.019,0,0,1-.821.352,2.556,2.556,0,0,1-.685-.13A10.943,10.943,0,0,1,263.054,113.4Z" transform="translate(-88.445 -56.053)" fill="#263238"/>
        <path id="Path_27265" data-name="Path 27265" d="M258.072,113.4c.247.068-.3,1.7.716,3.334s2.809,2.037,2.747,2.266c0,.111-.5.191-1.235-.037a4.278,4.278,0,0,1-2.321-1.8,3.7,3.7,0,0,1-.494-2.76C257.646,113.7,257.961,113.351,258.072,113.4Z" transform="translate(-88.248 -56.5)" fill="#263238"/>
        <path id="Path_27266" data-name="Path 27266" d="M276.881,102.206c-.377.253-1.3-.451-2.537-.889s-2.383-.543-2.506-.982c-.049-.21.235-.5.8-.667a3.9,3.9,0,0,1,4.068,1.506C277.029,101.675,277.054,102.077,276.881,102.206Z" transform="translate(-88.752 -56.017)" fill="#263238"/>
        <path id="Path_27267" data-name="Path 27267" d="M260.925,93.921c-.228.123-.617-.08-1.056-.346a11.966,11.966,0,0,0-1.778-.87,11.321,11.321,0,0,0-1.92-.506c-.525-.1-.932-.185-1.025-.432s.2-.617.87-.864a4.179,4.179,0,0,1,4.815,1.79C261.172,93.34,261.141,93.822,260.925,93.921Z" transform="translate(-88.168 -55.707)" fill="#263238"/>
        <path id="Path_27268" data-name="Path 27268" d="M281.418,94.353a24.292,24.292,0,0,1-14.063-5.525c-4.432-3.63-9.982-6.173-11.495-5.457s-2.951,5.8-8.248,6.173c0,0-1.889,9.908-5.729,8.643s2.068-15.909,2.068-15.909L254.6,79.772l10.908.4,9.8,2.222,8.476,4.871Z" transform="translate(-87.66 -55.325)" fill="#263238"/>
        <rect id="Rectangle_29885" data-name="Rectangle 29885" width="138.611" height="215.847" transform="translate(0.142 0.167)" fill="#fafafa"/>
        <path id="Path_27269" data-name="Path 27269" d="M220.873,270.447c0-1.327-.062-88.99-.148-215.847l.148.148H82.28l.167-.161c0,81.662,0,156.854-.037,215.847l-.13-.13,138.611.13-138.611.123h-.123v-.111c0-58.993,0-134.185-.037-215.847v-.161h138.92v.148C220.934,181.463,220.873,269.125,220.873,270.447Z" transform="translate(-82.119 -54.439)" fill="#263238"/>
        <path id="Path_27270" data-name="Path 27270" d="M120.041,103.369H102.3a2.222,2.222,0,0,1-2.222-2.216V76.6a2.222,2.222,0,0,1,2.222-2.216h11.248l8.7,8.97v17.8a2.216,2.216,0,0,1-2.216,2.216Z" transform="translate(-82.747 -55.136)" fill="#7e59d1"/>
        <path id="Path_27271" data-name="Path 27271" d="M114.041,74.385v6.908a2.068,2.068,0,0,0,2.062,2.062h6.643Z" transform="translate(-83.235 -55.136)" fill="#7e59d1"/>
        <g id="Group_15799" data-name="Group 15799" transform="translate(30.898 26.762)" opacity="0.2">
          <path id="Path_27272" data-name="Path 27272" d="M114.137,82.17a2.29,2.29,0,0,0,1.815,2.229l.222.049c.864.154,6.575,1.167,6.575,1.037V83.634h-6.643S114.451,83.572,114.137,82.17Z" transform="translate(-114.137 -82.17)"/>
        </g>
        <g id="Group_15800" data-name="Group 15800" transform="translate(30.805 19.249)" opacity="0.3">
          <path id="Path_27273" data-name="Path 27273" d="M114.041,74.385v6.908a2.068,2.068,0,0,0,2.062,2.062h6.643Z" transform="translate(-114.041 -74.385)" fill="#fff"/>
        </g>
        <path id="Path_27274" data-name="Path 27274" d="M112.2,81.236a26.742,26.742,0,0,1-4.105.161,26.625,26.625,0,0,1-4.1-.161,26.626,26.626,0,0,1,4.1-.161,26.743,26.743,0,0,1,4.105.161Z" transform="translate(-82.884 -55.37)" fill="#fafafa"/>
        <path id="Path_27275" data-name="Path 27275" d="M117.5,85.293c0,.086-3.019.161-6.748.161S104,85.379,104,85.293s3.025-.161,6.754-.161S117.5,85.2,117.5,85.293Z" transform="translate(-82.884 -55.512)" fill="#fafafa"/>
        <path id="Path_27276" data-name="Path 27276" d="M118.715,88.67c0,.093-3.29.161-7.359.161S104,88.763,104,88.67s3.3-.161,7.359-.161S118.715,88.584,118.715,88.67Z" transform="translate(-82.884 -55.63)" fill="#fafafa"/>
        <path id="Path_27277" data-name="Path 27277" d="M118.715,91.863c0,.086-3.29.161-7.359.161S104,91.949,104,91.863s3.3-.161,7.359-.161S118.715,91.77,118.715,91.863Z" transform="translate(-82.884 -55.742)" fill="#fafafa"/>
        <path id="Path_27278" data-name="Path 27278" d="M118.715,95.048c0,.093-3.29.161-7.359.161S104,95.141,104,95.048s3.3-.161,7.359-.161S118.715,94.962,118.715,95.048Z" transform="translate(-82.884 -55.853)" fill="#fafafa"/>
        <path id="Path_27279" data-name="Path 27279" d="M118.715,98.24c0,.086-3.29.161-7.359.161S104,98.327,104,98.24s3.3-.161,7.359-.161S118.715,98.148,118.715,98.24Z" transform="translate(-82.884 -55.965)" fill="#fafafa"/>
        <path id="Path_27280" data-name="Path 27280" d="M129.422,87.43H127.57v-.679h4.513v.679h-1.852v4.778h-.772Z" transform="translate(-83.708 -55.569)" fill="#263238"/>
        <path id="Path_27281" data-name="Path 27281" d="M137.067,91.529v.679H133.11V86.751h3.846v.679H133.87V89.1H136.6v.667H133.87v1.759Z" transform="translate(-83.902 -55.569)" fill="#263238"/>
        <path id="Path_27282" data-name="Path 27282" d="M142.164,92.207l-1.179-1.679a2.958,2.958,0,0,1-.34,0H139.3v1.661h-.784V86.732h2.142c1.42,0,2.272.716,2.272,1.9a1.716,1.716,0,0,1-1.2,1.722l1.3,1.852Zm0-3.556c0-.778-.519-1.235-1.519-1.235H139.3v2.469h1.321c1,0,1.519-.426,1.519-1.235Z" transform="translate(-84.091 -55.568)" fill="#263238"/>
        <path id="Path_27283" data-name="Path 27283" d="M149.445,92.208V88.226l-1.975,3.309h-.358l-1.969-3.284V92.2h-.747V86.744h.617l2.272,3.834,2.241-3.834h.617V92.2Z" transform="translate(-84.297 -55.569)" fill="#263238"/>
        <path id="Path_27284" data-name="Path 27284" d="M151.611,91.581l.284-.617a2.8,2.8,0,0,0,1.8.617c.945,0,1.346-.37,1.346-.846,0-1.333-3.3-.488-3.3-2.513,0-.846.654-1.562,2.087-1.562a3.173,3.173,0,0,1,1.753.488l-.253.617a2.821,2.821,0,0,0-1.5-.438c-.926,0-1.321.389-1.321.864,0,1.327,3.3.494,3.3,2.469,0,.833-.673,1.55-2.111,1.55a3.247,3.247,0,0,1-2.087-.63Z" transform="translate(-84.549 -55.566)" fill="#263238"/>
        <path id="Path_27285" data-name="Path 27285" d="M158.827,89.45a2.9,2.9,0,1,1,2.9,2.79,2.772,2.772,0,0,1-2.9-2.79Zm5.013,0a2.117,2.117,0,1,0-2.111,2.1,2.043,2.043,0,0,0,2.111-2.1Z" transform="translate(-84.801 -55.558)" fill="#263238"/>
        <path id="Path_27286" data-name="Path 27286" d="M166.846,87.43v1.9h2.735V90h-2.735v2.2h-.778V86.751h3.846v.679Z" transform="translate(-85.054 -55.569)" fill="#263238"/>
        <path id="Path_27287" data-name="Path 27287" d="M172.849,91.581l.29-.617a2.79,2.79,0,0,0,1.8.617c.945,0,1.352-.37,1.352-.846,0-1.333-3.3-.488-3.3-2.513,0-.846.654-1.562,2.087-1.562a3.192,3.192,0,0,1,1.753.488l-.259.617a2.815,2.815,0,0,0-1.494-.438c-.926,0-1.327.389-1.327.864,0,1.327,3.3.494,3.3,2.469,0,.833-.667,1.55-2.111,1.55A3.26,3.26,0,0,1,172.849,91.581Z" transform="translate(-85.292 -55.566)" fill="#263238"/>
        <path id="Path_27288" data-name="Path 27288" d="M182.34,91.529v.679h-3.957V86.751h3.846v.679h-3.087V89.1h2.735v.667h-2.735v1.759Z" transform="translate(-85.485 -55.569)" fill="#263238"/>
        <path id="Path_27289" data-name="Path 27289" d="M187.437,92.207l-1.173-1.679a3.155,3.155,0,0,1-.346,0h-1.346v1.661h-.778V86.732h2.124c1.42,0,2.278.716,2.278,1.9a1.716,1.716,0,0,1-1.2,1.722l1.3,1.852Zm0-3.556c0-.778-.519-1.235-1.519-1.235H184.6v2.469h1.321c.975,0,1.494-.426,1.494-1.235Z" transform="translate(-85.674 -55.568)" fill="#263238"/>
        <path id="Path_27290" data-name="Path 27290" d="M194.365,86.751l-2.389,5.457h-.79l-2.4-5.457h.846l1.963,4.482,1.975-4.482Z" transform="translate(-85.849 -55.569)" fill="#263238"/>
        <path id="Path_27291" data-name="Path 27291" d="M195.29,86.751h.778v5.457h-.778Z" transform="translate(-86.076 -55.569)" fill="#263238"/>
        <path id="Path_27292" data-name="Path 27292" d="M197.331,89.458a2.759,2.759,0,0,1,2.889-2.79,2.692,2.692,0,0,1,2.074.852l-.506.488a2.013,2.013,0,0,0-1.537-.617,2.1,2.1,0,1,0,1.537,3.537l.506.488a2.7,2.7,0,0,1-2.08.858,2.76,2.76,0,0,1-2.883-2.815Z" transform="translate(-86.148 -55.566)" fill="#263238"/>
        <path id="Path_27293" data-name="Path 27293" d="M207.589,91.529v.679h-3.957V86.751h3.846v.679h-3.087V89.1h2.747v.667H204.4v1.759Z" transform="translate(-86.368 -55.569)" fill="#263238"/>
        <path id="Path_27294" data-name="Path 27294" d="M134.323,98.208l-1.457,4.321h-.648l-1.2-3.445-1.191,3.469h-.661l-1.451-4.321h.617l1.173,3.537,1.235-3.537h.574l1.2,3.556,1.2-3.556Z" transform="translate(-83.714 -55.969)" fill="#e0e0e0"/>
        <path id="Path_27295" data-name="Path 27295" d="M137.95,101.147h-2.673a1.124,1.124,0,0,0,1.2.963,1.235,1.235,0,0,0,.945-.4l.333.383a1.667,1.667,0,0,1-1.3.531,1.642,1.642,0,0,1-1.766-1.679,1.611,1.611,0,0,1,1.648-1.679,1.593,1.593,0,0,1,1.63,1.7C137.962,101.011,137.956,101.091,137.95,101.147Zm-2.673-.426h2.111a1.062,1.062,0,0,0-2.111,0Z" transform="translate(-83.957 -56.007)" fill="#e0e0e0"/>
        <path id="Path_27296" data-name="Path 27296" d="M138.938,97.939h.617v4.605h-.617Z" transform="translate(-84.106 -55.96)" fill="#e0e0e0"/>
        <path id="Path_27297" data-name="Path 27297" d="M140.416,100.949a1.648,1.648,0,0,1,1.741-1.679,1.475,1.475,0,0,1,1.34.7l-.457.29a1.019,1.019,0,0,0-.889-.469,1.161,1.161,0,0,0,0,2.315,1.019,1.019,0,0,0,.889-.469l.457.284a1.475,1.475,0,0,1-1.34.7,1.648,1.648,0,0,1-1.741-1.679Z" transform="translate(-84.158 -56.006)" fill="#e0e0e0"/>
        <path id="Path_27298" data-name="Path 27298" d="M144.037,100.947a1.71,1.71,0,1,1,1.716,1.679,1.642,1.642,0,0,1-1.716-1.679Zm2.821,0a1.111,1.111,0,1,0-1.105,1.161,1.08,1.08,0,0,0,1.105-1.161Z" transform="translate(-84.284 -56.004)" fill="#e0e0e0"/>
        <path id="Path_27299" data-name="Path 27299" d="M153.9,100.7v1.889h-.617V100.77c0-.648-.315-.963-.852-.963a.984.984,0,0,0-.988,1.093v1.692h-.617V100.77c0-.648-.315-.963-.852-.963a.984.984,0,0,0-.988,1.093v1.692h-.617V99.3h.661v.494a1.34,1.34,0,0,1,1.136-.525,1.235,1.235,0,0,1,1.142.617,1.488,1.488,0,0,1,1.266-.617A1.235,1.235,0,0,1,153.9,100.7Z" transform="translate(-84.436 -56.006)" fill="#e0e0e0"/>
        <path id="Path_27300" data-name="Path 27300" d="M158.209,101.147h-2.667a1.111,1.111,0,0,0,1.191.963,1.235,1.235,0,0,0,.951-.4l.327.383a1.8,1.8,0,0,1-3.087-1.148,1.617,1.617,0,0,1,1.654-1.679,1.587,1.587,0,0,1,1.624,1.7A.43.43,0,0,1,158.209,101.147Zm-2.667-.426h2.111a1.062,1.062,0,0,0-2.111,0Z" transform="translate(-84.665 -56.007)" fill="#e0e0e0"/>
        <path id="Path_27301" data-name="Path 27301" d="M159.057,102.209a.4.4,0,1,1,.12.284A.4.4,0,0,1,159.057,102.209Zm.056-3.988h.7L159.7,101.2h-.475Z" transform="translate(-84.809 -55.97)" fill="#e0e0e0"/>
        <rect id="Rectangle_29886" data-name="Rectangle 29886" width="2.371" height="181.233" rx="0.851" transform="translate(128.308 13.452)" fill="#e0e0e0"/>
        <rect id="Rectangle_29887" data-name="Rectangle 29887" width="2.371" height="93.435" rx="0.851" transform="translate(128.308 13.452)" fill="#7e59d1"/>
        <path id="Path_27302" data-name="Path 27302" d="M104.694,124.436v4.321h-.617v-3.778H103.1v-.543Z" transform="translate(-82.853 -56.886)" fill="#263238"/>
        <path id="Path_27303" data-name="Path 27303" d="M105.724,128.521a.42.42,0,1,1,.42.426.414.414,0,0,1-.42-.426Z" transform="translate(-82.945 -57.015)" fill="#263238"/>
        <path id="Path_27304" data-name="Path 27304" d="M110.135,124.979h-1.494v-.543h3.6v.543h-1.494v3.8h-.617Z" transform="translate(-83.047 -56.886)" fill="#263238"/>
        <path id="Path_27305" data-name="Path 27305" d="M115.578,127.375h-2.673a1.117,1.117,0,0,0,1.191.963,1.235,1.235,0,0,0,.951-.4l.327.389a1.79,1.79,0,0,1-3.087-1.148,1.611,1.611,0,0,1,1.648-1.679,1.593,1.593,0,0,1,1.63,1.7A.344.344,0,0,1,115.578,127.375Zm-2.673-.432h2.142a1.062,1.062,0,0,0-2.111,0Z" transform="translate(-83.174 -56.924)" fill="#263238"/>
        <path id="Path_27306" data-name="Path 27306" d="M118.332,125.5v.58H118.2a.982.982,0,0,0-1.037,1.111v1.636h-.617v-3.29h.568v.556A1.235,1.235,0,0,1,118.332,125.5Z" transform="translate(-83.323 -56.923)" fill="#263238"/>
        <path id="Path_27307" data-name="Path 27307" d="M124.62,126.922v1.9H124v-1.852c0-.617-.309-.957-.852-.957a.976.976,0,0,0-.982,1.093v1.692h-.617V126.94c0-.617-.309-.957-.852-.957a.957.957,0,0,0-.988,1.093v1.692h-.617v-3.29h.568v.494a1.333,1.333,0,0,1,1.136-.525,1.235,1.235,0,0,1,1.142.617,1.488,1.488,0,0,1,1.272-.617,1.235,1.235,0,0,1,1.408,1.475Z" transform="translate(-83.412 -56.921)" fill="#263238"/>
        <path id="Path_27308" data-name="Path 27308" d="M106.4,198.118v.537h-3.087v-.42l1.766-1.71c.463-.444.549-.716.549-.994,0-.444-.321-.716-.926-.716a1.364,1.364,0,0,0-1.111.469l-.426-.364a2.006,2.006,0,0,1,1.593-.661c.907,0,1.488.469,1.488,1.235a1.753,1.753,0,0,1-.71,1.364l-1.333,1.284Z" transform="translate(-82.855 -59.328)" fill="#263238"/>
        <path id="Path_27309" data-name="Path 27309" d="M107.1,198.4a.414.414,0,0,1,.42-.426.426.426,0,1,1,0,.852.42.42,0,0,1-.42-.426Z" transform="translate(-82.993 -59.458)" fill="#263238"/>
        <path id="Path_27310" data-name="Path 27310" d="M110.669,194.311h.617v3.809h2.352v.537h-2.969Z" transform="translate(-83.117 -59.33)" fill="#263238"/>
        <path id="Path_27311" data-name="Path 27311" d="M114.3,194.335a.389.389,0,1,1,.385.389A.389.389,0,0,1,114.3,194.335Zm.1,1.019h.617v3.29H114.4Z" transform="translate(-83.244 -59.317)" fill="#263238"/>
        <path id="Path_27312" data-name="Path 27312" d="M115.883,197.052a1.648,1.648,0,0,1,1.735-1.679,1.469,1.469,0,0,1,1.346.7l-.457.29a1.019,1.019,0,0,0-.889-.469,1.161,1.161,0,0,0,0,2.315,1.025,1.025,0,0,0,.889-.475l.457.284a1.475,1.475,0,0,1-1.346.71,1.648,1.648,0,0,1-1.735-1.679Z" transform="translate(-83.3 -59.367)" fill="#263238"/>
        <path id="Path_27313" data-name="Path 27313" d="M122.769,197.25H120.1a1.117,1.117,0,0,0,1.191.963,1.235,1.235,0,0,0,.951-.4l.327.389a1.8,1.8,0,0,1-3.087-1.148,1.617,1.617,0,0,1,1.654-1.679,1.587,1.587,0,0,1,1.624,1.7A.434.434,0,0,1,122.769,197.25Zm-2.667-.432h2.111a1.062,1.062,0,0,0-2.111,0Z" transform="translate(-83.426 -59.367)" fill="#263238"/>
        <path id="Path_27314" data-name="Path 27314" d="M126.88,196.8v1.9h-.617v-1.852a.835.835,0,0,0-.883-.957.975.975,0,0,0-1.043,1.093v1.692h-.617v-3.29h.574v.494a1.407,1.407,0,0,1,1.185-.525,1.272,1.272,0,0,1,1.4,1.451Z" transform="translate(-83.574 -59.366)" fill="#263238"/>
        <path id="Path_27315" data-name="Path 27315" d="M127.846,197.052a1.642,1.642,0,0,1,1.735-1.679,1.469,1.469,0,0,1,1.346.7l-.457.29a1.025,1.025,0,0,0-.9-.469,1.161,1.161,0,0,0,0,2.315,1.031,1.031,0,0,0,.9-.475l.457.284a1.475,1.475,0,0,1-1.346.71,1.648,1.648,0,0,1-1.735-1.679Z" transform="translate(-83.718 -59.367)" fill="#263238"/>
        <path id="Path_27316" data-name="Path 27316" d="M134.731,197.25h-2.667a1.117,1.117,0,0,0,1.191.963,1.235,1.235,0,0,0,.951-.4l.327.389a1.8,1.8,0,0,1-3.087-1.148,1.617,1.617,0,0,1,1.654-1.679,1.587,1.587,0,0,1,1.624,1.7A.434.434,0,0,1,134.731,197.25Zm-2.667-.432h2.111a1.062,1.062,0,0,0-2.111,0Z" transform="translate(-83.844 -59.367)" fill="#263238"/>
        <path id="Path_27317" data-name="Path 27317" d="M198.207,139.06c0,.093-21.3.161-47.578.161s-47.585-.068-47.585-.161,21.3-.161,47.585-.161S198.207,138.974,198.207,139.06Z" transform="translate(-82.851 -57.392)" fill="#263238"/>
        <path id="Path_27318" data-name="Path 27318" d="M198.207,146.526c0,.086-21.3.161-47.578.161s-47.585-.074-47.585-.161,21.3-.161,47.585-.161S198.207,146.433,198.207,146.526Z" transform="translate(-82.851 -57.653)" fill="#263238"/>
        <path id="Path_27319" data-name="Path 27319" d="M198.207,153.985c0,.093-21.3.161-47.578.161s-47.585-.068-47.585-.161,21.3-.161,47.585-.161S198.207,153.9,198.207,153.985Z" transform="translate(-82.851 -57.914)" fill="#263238"/>
        <path id="Path_27320" data-name="Path 27320" d="M198.207,161.45c0,.086-21.3.161-47.578.161s-47.585-.074-47.585-.161,21.3-.161,47.585-.161S198.207,161.357,198.207,161.45Z" transform="translate(-82.851 -58.175)" fill="#263238"/>
        <path id="Path_27321" data-name="Path 27321" d="M198.207,168.909c0,.093-21.3.161-47.578.161s-47.585-.068-47.585-.161,21.3-.161,47.585-.161S198.207,168.823,198.207,168.909Z" transform="translate(-82.851 -58.436)" fill="#263238"/>
        <path id="Path_27322" data-name="Path 27322" d="M198.207,176.374c0,.086-21.3.161-47.578.161s-47.585-.074-47.585-.161,21.3-.161,47.585-.161S198.207,176.282,198.207,176.374Z" transform="translate(-82.851 -58.697)" fill="#263238"/>
        <path id="Path_27323" data-name="Path 27323" d="M198.207,204.7c0,.086-21.3.161-47.578.161s-47.585-.074-47.585-.161,21.3-.161,47.585-.161S198.207,204.627,198.207,204.7Z" transform="translate(-82.851 -59.687)" fill="#263238"/>
        <path id="Path_27324" data-name="Path 27324" d="M198.207,211.1c0,.093-21.3.161-47.578.161s-47.585-.068-47.585-.161,21.3-.161,47.585-.161S198.207,211.011,198.207,211.1Z" transform="translate(-82.851 -59.911)" fill="#e0e0e0"/>
        <path id="Path_27325" data-name="Path 27325" d="M198.207,217.495c0,.086-21.3.161-47.578.161s-47.585-.074-47.585-.161,21.3-.161,47.585-.161S198.207,217.4,198.207,217.495Z" transform="translate(-82.851 -60.135)" fill="#ebebeb"/>
        <rect id="Rectangle_29888" data-name="Rectangle 29888" width="50.338" height="18.755" transform="translate(71.963 175.775)" fill="#7e59d1"/>
        <path id="Path_27326" data-name="Path 27326" d="M173.932,247.178h-2.469l-.512,1.167h-.685l2.111-4.661h.654l2.117,4.661h-.7Zm-.235-.531-1.006-2.284-1,2.284Z" transform="translate(-85.201 -61.056)" fill="#fff"/>
        <path id="Path_27327" data-name="Path 27327" d="M175.568,246.619a1.766,1.766,0,0,1,1.852-1.8,1.574,1.574,0,0,1,1.438.753l-.488.309a1.1,1.1,0,0,0-.957-.506,1.235,1.235,0,0,0,0,2.469,1.1,1.1,0,0,0,.957-.506l.488.3a1.58,1.58,0,0,1-1.438.759,1.766,1.766,0,0,1-1.852-1.784Z" transform="translate(-85.387 -61.096)" fill="#fff"/>
        <path id="Path_27328" data-name="Path 27328" d="M179.451,246.619a1.766,1.766,0,0,1,1.852-1.8,1.568,1.568,0,0,1,1.438.753l-.488.309a1.1,1.1,0,0,0-.957-.506,1.235,1.235,0,0,0,0,2.469,1.1,1.1,0,0,0,.957-.506l.488.3a1.574,1.574,0,0,1-1.438.759,1.766,1.766,0,0,1-1.852-1.784Z" transform="translate(-85.522 -61.096)" fill="#fff"/>
        <path id="Path_27329" data-name="Path 27329" d="M186.84,246.854h-2.864a1.2,1.2,0,0,0,1.278,1.031,1.321,1.321,0,0,0,1.019-.426l.352.414a1.784,1.784,0,0,1-1.4.568,1.766,1.766,0,0,1-1.9-1.8,1.729,1.729,0,0,1,1.772-1.8,1.7,1.7,0,0,1,1.747,1.815C186.853,246.694,186.846,246.774,186.84,246.854Zm-2.864-.463h2.259a1.136,1.136,0,0,0-2.259,0Z" transform="translate(-85.658 -61.096)" fill="#fff"/>
        <path id="Path_27330" data-name="Path 27330" d="M191.55,246.618a1.71,1.71,0,0,1-1.784,1.8,1.519,1.519,0,0,1-1.235-.568v1.821h-.617v-4.821h.617v.562a1.494,1.494,0,0,1,1.235-.617,1.71,1.71,0,0,1,1.784,1.821Zm-.648,0a1.191,1.191,0,1,0-1.191,1.235,1.167,1.167,0,0,0,1.191-1.235Z" transform="translate(-85.818 -61.095)" fill="#fff"/>
        <path id="Path_27331" data-name="Path 27331" d="M194.566,248.148a1.235,1.235,0,0,1-.778.247,1.006,1.006,0,0,1-1.117-1.105v-1.938h-.617v-.525h.617v-.772h.617v.772H194.3v.525h-1.012v1.914a.519.519,0,0,0,.549.617.8.8,0,0,0,.5-.167Z" transform="translate(-85.963 -61.069)" fill="#fff"/>
        <path id="Path_27332" data-name="Path 27332" d="M100.533,255.429s-.043,0-.123-.08l-.358-.278-1.5-1.154-.056-.043.068-.031c6.075-2.327,25.885-9.76,50.3-18.86l.086-.031.068.056,1.951,1.568.062.049v18.989h-.161l-35.991-.062-10.55-.043h-3.556a2.364,2.364,0,0,1-.241,0h3.834l10.563-.043,35.942-.062-.154.154V236.8l.062.123-1.951-1.574h.154C124.56,244.44,104.719,251.787,98.6,254v-.068l1.457,1.2.358.3Z" transform="translate(-82.692 -60.751)" fill="#7e59d1"/>
        <rect id="Rectangle_29889" data-name="Rectangle 29889" width="50.338" height="18.755" transform="translate(15.884 174.356)" fill="#fff"/>
        <path id="Path_27333" data-name="Path 27333" d="M148.919,253.859v-5.013c0-3.229-.037-7.9-.062-13.723l.111.111-50.338.049h0l.161-.161v18.755l-.154-.154,36.034.074,10.495.043h.074l-10.464.043-36.145.074h-.154v-19.07h.167l50.338.049h.111v.111c0,5.846-.049,10.544-.062,13.791v4.655A.609.609,0,0,1,148.919,253.859Z" transform="translate(-82.691 -60.748)" fill="#7e59d1"/>
        <path id="Path_27334" data-name="Path 27334" d="M112.876,243.453h1.963a2.34,2.34,0,1,1,0,4.667h-1.963Zm1.926,4.087a1.759,1.759,0,1,0,0-3.507h-1.235v3.507Z" transform="translate(-83.195 -61.048)" fill="#7e59d1"/>
        <path id="Path_27335" data-name="Path 27335" d="M121.641,246.6h-2.864a1.2,1.2,0,0,0,1.284,1.031,1.3,1.3,0,0,0,1.019-.426l.352.414a1.926,1.926,0,0,1-3.29-1.235,1.729,1.729,0,0,1,1.772-1.8,1.7,1.7,0,0,1,1.747,1.821C121.66,246.469,121.648,246.543,121.641,246.6Zm-2.864-.457h2.266a1.142,1.142,0,0,0-2.266,0Z" transform="translate(-83.379 -61.087)" fill="#7e59d1"/>
        <path id="Path_27336" data-name="Path 27336" d="M122.363,246.395a1.766,1.766,0,0,1,1.852-1.8,1.574,1.574,0,0,1,1.438.753l-.488.315a1.105,1.105,0,0,0-.957-.506,1.235,1.235,0,0,0,0,2.469,1.1,1.1,0,0,0,.957-.506l.488.309a1.58,1.58,0,0,1-1.438.759,1.766,1.766,0,0,1-1.852-1.79Z" transform="translate(-83.526 -61.088)" fill="#7e59d1"/>
        <path id="Path_27337" data-name="Path 27337" d="M126.592,243.166h.617V248.1h-.617Z" transform="translate(-83.674 -61.038)" fill="#7e59d1"/>
        <path id="Path_27338" data-name="Path 27338" d="M128.4,243.483a.426.426,0,0,1,.432-.42.42.42,0,1,1-.432.42Zm.117,1.093h.617v3.531h-.617Z" transform="translate(-83.737 -61.034)" fill="#7e59d1"/>
        <path id="Path_27339" data-name="Path 27339" d="M133.79,246.13v2.031h-.617v-1.932c0-.691-.352-1.031-.957-1.031a1.049,1.049,0,0,0-1.117,1.173v1.821h-.617v-3.531h.617v.531a1.512,1.512,0,0,1,1.272-.568,1.37,1.37,0,0,1,1.42,1.506Z" transform="translate(-83.81 -61.089)" fill="#7e59d1"/>
        <path id="Path_27340" data-name="Path 27340" d="M138.325,246.6H135.46a1.2,1.2,0,0,0,1.278,1.031,1.3,1.3,0,0,0,1.019-.426l.352.414a1.926,1.926,0,0,1-3.29-1.235,1.729,1.729,0,0,1,1.772-1.8,1.7,1.7,0,0,1,1.747,1.821C138.337,246.469,138.331,246.543,138.325,246.6Zm-2.864-.457h2.259a1.136,1.136,0,0,0-2.259,0Z" transform="translate(-83.962 -61.087)" fill="#7e59d1"/>
        <line id="Line_669" data-name="Line 669" x2="1.951" y2="1.877" transform="translate(66.228 192.802)" fill="#fff"/>
        <path id="Path_27341" data-name="Path 27341" d="M152.7,256.1c-.062.068-.549-.3-1.087-.821s-.926-.988-.864-1.056.549.309,1.087.827S152.759,256.041,152.7,256.1Z" transform="translate(-84.519 -61.424)" fill="#7e59d1"/>
        <path id="Path_27342" data-name="Path 27342" d="M226.286,250.484l7.186-3.457-3.951-11.68-8.68-2.006c-.809-.185-1.71-.4-2.71-.679a10.865,10.865,0,0,1-3.29-1.55,16.52,16.52,0,0,1-3.445-2.92c-.821-1.117-2.562-.7-2.562.543s2.192,4.371,6.087,6.587-2.994,3.284-5.488,3.7-10.161,2.142-10.618,3.013c-.667,1.272.617,2.247,3.087,1.759s10.056-1.451,10.254-.13v.037a5.42,5.42,0,0,0,.327,6.3c1.4,1.747,3.488,3.939,5.025,3.605A69.67,69.67,0,0,0,226.286,250.484Z" transform="translate(-86.193 -60.492)" fill="#f5b9a1"/>
        <path id="Path_27343" data-name="Path 27343" d="M226.834,227.86l6.735,22.774,52.295-15.89a20.99,20.99,0,0,0,13.816-26.6l-12.822-39.9-27.848,6.914L274.3,212.074Z" transform="translate(-87.179 -58.418)" fill="#7e59d1"/>
        <path id="Path_27344" data-name="Path 27344" d="M287.036,234.867l-.253.093-.753.241-2.926.907-10.958,3.358-38.065,11.55-.142.037-.049-.136c-2.327-6.964-4.587-14.619-7.2-22.484l-.049-.148.154-.056,1.315-.432,46.152-15.329-.074.167c-3.7-8.951-6.7-16.285-8.8-21.4-1.037-2.543-1.852-4.531-2.408-5.9-.265-.673-.475-1.191-.617-1.55s-.2-.531-.2-.531.086.173.235.519l.654,1.531c.568,1.358,1.4,3.34,2.469,5.871,2.124,5.1,5.173,12.421,8.9,21.36l.049.123-.13.043L228.191,228.1l-1.315.438.1-.2c2.618,7.871,4.865,15.526,7.186,22.484l-.185-.1,38.1-11.433,11-3.278,2.939-.858.766-.216Z" transform="translate(-87.172 -58.943)" fill="#263238"/>
        <path id="Path_27345" data-name="Path 27345" d="M285.671,220.3c-.049,0-.4-.574-1.093-1.445a14.143,14.143,0,0,0-7.13-4.729c-1.074-.309-1.766-.4-1.759-.451a1.4,1.4,0,0,1,.494,0,9.1,9.1,0,0,1,1.321.222,12.8,12.8,0,0,1,4.05,1.766,12.655,12.655,0,0,1,3.2,3.043,8.887,8.887,0,0,1,.716,1.136,1.377,1.377,0,0,1,.2.457Z" transform="translate(-88.887 -60.006)" fill="#263238"/>
        <path id="Path_27346" data-name="Path 27346" d="M272.893,177.172a35.606,35.606,0,0,1,0-6.754,35.6,35.6,0,0,1,0,6.754Z" transform="translate(-88.783 -58.494)" fill="#fafafa"/>
        <path id="Path_27347" data-name="Path 27347" d="M283.71,177.735a18.035,18.035,0,0,1-1.136-3.235,18.185,18.185,0,0,1-.827-3.327,36.479,36.479,0,0,1,1.963,6.562Z" transform="translate(-89.099 -58.521)" fill="#fafafa"/>
        <path id="Path_27348" data-name="Path 27348" d="M276.811,187.727a11.612,11.612,0,0,1-6.106-1.79c.043-.086,1.333.525,3.019,1.012S276.817,187.635,276.811,187.727Z" transform="translate(-88.713 -59.037)" fill="#fafafa"/>
        <path id="Path_27349" data-name="Path 27349" d="M289.34,192.96a16.349,16.349,0,0,1,.4-3.223,16.565,16.565,0,0,1,.71-3.173,16.958,16.958,0,0,1-.4,3.229A16.274,16.274,0,0,1,289.34,192.96Z" transform="translate(-89.365 -59.059)" fill="#fafafa"/>
        <path id="Path_27350" data-name="Path 27350" d="M284.838,201.787a34.1,34.1,0,0,1-2.772-6.062,34.755,34.755,0,0,1,2.772,6.062Z" transform="translate(-89.11 -59.379)" fill="#fafafa"/>
        <path id="Path_27351" data-name="Path 27351" d="M282.927,209.622A15.66,15.66,0,0,1,280,208.387a15.38,15.38,0,0,1-2.784-1.531,16.773,16.773,0,0,1,2.926,1.235,15.626,15.626,0,0,1,2.79,1.531Z" transform="translate(-88.94 -59.768)" fill="#fafafa"/>
        <path id="Path_27352" data-name="Path 27352" d="M296.89,207.668a24.344,24.344,0,0,1-1.179,2.834,24.506,24.506,0,0,1-1.235,2.8A16.248,16.248,0,0,1,296.89,207.668Z" transform="translate(-89.544 -59.797)" fill="#fafafa"/>
        <path id="Path_27353" data-name="Path 27353" d="M293.1,226a37.006,37.006,0,0,1-.685-6.933,19.667,19.667,0,0,1,.5,3.451A19.136,19.136,0,0,1,293.1,226Z" transform="translate(-89.472 -60.195)" fill="#fafafa"/>
        <path id="Path_27354" data-name="Path 27354" d="M283.182,231.962a15.587,15.587,0,0,1-2.469-2.037,15.989,15.989,0,0,1-2.235-2.272,15.588,15.588,0,0,1,2.469,2.037,15.986,15.986,0,0,1,2.235,2.272Z" transform="translate(-88.985 -60.495)" fill="#fafafa"/>
        <path id="Path_27355" data-name="Path 27355" d="M266.318,233.8a35.855,35.855,0,0,1-4.037,5.507,17.636,17.636,0,0,1,1.889-2.846A18.241,18.241,0,0,1,266.318,233.8Z" transform="translate(-88.418 -60.71)" fill="#fafafa"/>
        <path id="Path_27356" data-name="Path 27356" d="M271.655,225.711a11.328,11.328,0,0,1-2.5-2.2,10.976,10.976,0,0,1-2-2.655c.074-.056.994,1.105,2.235,2.438S271.711,225.643,271.655,225.711Z" transform="translate(-88.589 -60.258)" fill="#fafafa"/>
        <path id="Path_27357" data-name="Path 27357" d="M258.905,227.671a4.822,4.822,0,0,1-2.469.3,4.939,4.939,0,0,1-2.4-.654c.037-.093,1.08.241,2.414.333S258.905,227.579,258.905,227.671Z" transform="translate(-88.13 -60.483)" fill="#fafafa"/>
        <path id="Path_27358" data-name="Path 27358" d="M250.981,241.487a11.729,11.729,0,0,1-.617-2.655,11.421,11.421,0,0,1-.3-2.71,23.25,23.25,0,0,1,.92,5.365Z" transform="translate(-87.991 -60.792)" fill="#fafafa"/>
        <path id="Path_27359" data-name="Path 27359" d="M241.277,246.366a39.666,39.666,0,0,1-6.056-3.821,20.189,20.189,0,0,1,3.118,1.778,20.414,20.414,0,0,1,2.939,2.043Z" transform="translate(-87.472 -61.016)" fill="#fafafa"/>
        <path id="Path_27360" data-name="Path 27360" d="M244.761,229.476c.068.062-.827,1.124-1.821,2.506a28.98,28.98,0,0,1-1.815,2.519,10.088,10.088,0,0,1,1.55-2.71,9.877,9.877,0,0,1,2.087-2.315Z" transform="translate(-87.679 -60.559)" fill="#fafafa"/>
        <path id="Path_27361" data-name="Path 27361" d="M237.411,232.644a6.007,6.007,0,0,1-1.809-.722,5.845,5.845,0,0,1-1.654-1.012,11.692,11.692,0,0,1,3.463,1.735Z" transform="translate(-87.428 -60.609)" fill="#fafafa"/>
        <g id="Group_15801" data-name="Group 15801" transform="translate(186.678 152.267)" opacity="0.2">
          <path id="Path_27362" data-name="Path 27362" d="M275.56,212.667c2.79.284,5.587.574,8.371.926a10.317,10.317,0,0,1,2.84.617,3.612,3.612,0,0,1,2.025,1.982,2.216,2.216,0,0,1-.772,2.587,2.562,2.562,0,0,1-2.531-.111,13.517,13.517,0,0,1-2.087-1.636,11.643,11.643,0,0,0-4.284-2.241,7.346,7.346,0,0,1-2.05-.716,1.778,1.778,0,0,1-.889-1.852" transform="translate(-275.56 -212.223)"/>
        </g>
      </g>
    </g>
  </g>
</svg>
