<svg xmlns="http://www.w3.org/2000/svg" xmlns="http://www.w3.org/1999/xlink" width="110" height="65" viewBox="0 0 110 65">
  <defs>
    <clipPath id="live">
      <rect id="Rectangle_32945" data-name="Rectangle 32945" width="32" height="32" transform="translate(595 548)" fill="#7e59d1" stroke="#707070" stroke-width="1"/>
    </clipPath>
  </defs>
  <g id="Group_90136" data-name="Group 90136" transform="translate(-550 -525)">
    <rect id="NoPath_-_Copy_6_" data-name="NoPath - Copy (6)" width="110" height="65" rx="2" transform="translate(550 525)" fill="#f3f7f8"/>
    <g id="Mask_Group_925" data-name="Mask Group 925" transform="translate(-6 -6)" clip-path="url(#live)">
      <g id="svgexport-20" transform="translate(595 550.262)">
        <path id="Path_48517" data-name="Path 48517" d="M17.706,10.386a.565.565,0,0,0-.565.565,3.4,3.4,0,0,1-3.392,3.392H8.095a3.392,3.392,0,1,1,0-6.785.565.565,0,1,0,0-1.131,4.523,4.523,0,0,0,0,9.046h5.654a4.528,4.528,0,0,0,4.523-4.523A.565.565,0,0,0,17.706,10.386Z" transform="translate(0.952 0.356)" fill="#7e59d1"/>
        <path id="Path_48518" data-name="Path 48518" d="M23.33,5.714H17.676a4.528,4.528,0,0,0-4.523,4.523.565.565,0,0,0,1.131,0,3.4,3.4,0,0,1,3.392-3.392H23.33a3.392,3.392,0,1,1,0,6.785.565.565,0,0,0,0,1.131,4.523,4.523,0,1,0,0-9.046ZM.714,25.5a1.7,1.7,0,0,0,1.7,1.7H30.68a1.7,1.7,0,0,0,1.7-1.7V22.676H.714Zm7.35-1.131h1.7a.565.565,0,0,1,1.131,0H29.55a.565.565,0,1,1,0,1.131H10.891a.565.565,0,1,1-1.131,0h-1.7a.565.565,0,0,1,0-1.131Zm-2.827,0a.565.565,0,0,1,1.131,0V25.5a.565.565,0,1,1-1.131,0Zm-2.262,0a.565.565,0,0,1,1.131,0V25.5a.565.565,0,1,1-1.131,0Z" transform="translate(-0.714 -0.06)" fill="#7e59d1"/>
        <path id="Path_48519" data-name="Path 48519" d="M30.68,2.143H2.41a1.7,1.7,0,0,0-1.7,1.7V23.628H32.376V3.839A1.7,1.7,0,0,0,30.68,2.143ZM15.415,19.1H9.761a5.654,5.654,0,1,1,0-11.308,1.7,1.7,0,0,1,0,3.392,2.262,2.262,0,1,0,0,4.523h5.654a2.262,2.262,0,0,0,2.262-2.262,1.7,1.7,0,0,1,3.392,0A5.66,5.66,0,0,1,15.415,19.1Zm7.916-1.131a1.7,1.7,0,1,1,0-3.392,2.262,2.262,0,1,0,0-4.523H17.676a2.262,2.262,0,0,0-2.262,2.262,1.7,1.7,0,1,1-3.392,0,5.66,5.66,0,0,1,5.654-5.654H23.33a5.654,5.654,0,1,1,0,11.308Z" transform="translate(-0.714 -2.143)" fill="#7e59d1"/>
      </g>
    </g>
  </g>
</svg>
