<svg xmlns="http://www.w3.org/2000/svg" width="14" height="14" viewBox="0 0 14 14">
  <path id="Icon_material-language" data-name="Icon material-language" d="M9.993,3A7,7,0,1,0,17,10,7,7,0,0,0,9.993,3Zm4.851,4.2H12.779a10.954,10.954,0,0,0-.966-2.492A5.621,5.621,0,0,1,14.844,7.2ZM10,4.428A9.861,9.861,0,0,1,11.337,7.2H8.663A9.861,9.861,0,0,1,10,4.428ZM4.582,11.4a5.476,5.476,0,0,1,0-2.8H6.948a11.561,11.561,0,0,0-.1,1.4,11.561,11.561,0,0,0,.1,1.4Zm.574,1.4H7.221a10.954,10.954,0,0,0,.966,2.492A5.591,5.591,0,0,1,5.156,12.8ZM7.221,7.2H5.156A5.591,5.591,0,0,1,8.187,4.708,10.954,10.954,0,0,0,7.221,7.2ZM10,15.572A9.861,9.861,0,0,1,8.663,12.8h2.674A9.861,9.861,0,0,1,10,15.572ZM11.638,11.4H8.362A10.3,10.3,0,0,1,8.25,10a10.21,10.21,0,0,1,.112-1.4h3.276A10.209,10.209,0,0,1,11.75,10,10.3,10.3,0,0,1,11.638,11.4Zm.175,3.892a10.954,10.954,0,0,0,.966-2.492h2.065a5.621,5.621,0,0,1-3.031,2.492ZM13.052,11.4a11.561,11.561,0,0,0,.1-1.4,11.561,11.561,0,0,0-.1-1.4h2.366a5.476,5.476,0,0,1,0,2.8Z" transform="translate(-3 -3)" fill="#6a6f73"/>
</svg>
