<svg xmlns="http://www.w3.org/2000/svg" width="110.401" height="37.633" viewBox="0 0 110.401 37.633">
  <g id="Artboard_٨" data-name="Artboard ٨" transform="translate(-318.689 -140.701)">
    <path id="Path_5609" data-name="Path 5609" d="M378.134,141.3a18.879,18.879,0,0,1,14.174,17h-6.765a11.934,11.934,0,0,0-1.516-4.73,12.241,12.241,0,0,0-14.367-5.518,11.43,11.43,0,0,0-6.006,4.877q-4.99,7.818-9.736,15.794a18.786,18.786,0,0,1-34.856-5.66,18.68,18.68,0,0,1,7.89-19.065,18.391,18.391,0,0,1,20.493-.336,45.676,45.676,0,0,1,5.222,4.772,1.089,1.089,0,0,1,.114,1.572c-1.072,1.66-2.068,3.369-3.037,4.966a52.85,52.85,0,0,0-4.473-4.644A12.045,12.045,0,1,0,347.6,166.06q4.9-8.027,9.746-16.09A18.894,18.894,0,0,1,378.134,141.3Z" transform="translate(0 0)" fill="#fff"/>
    <path id="Path_5610" data-name="Path 5610" d="M780.622,387.158a6.411,6.411,0,0,1-2.119-.34,6.83,6.83,0,0,1-1.759-.9,8.486,8.486,0,0,1-1.365-1.215l1.359-2.158a2.582,2.582,0,0,0,.59.885,4.636,4.636,0,0,0,.974.746,5.51,5.51,0,0,0,1.174.516,4.093,4.093,0,0,0,1.215.19,2.959,2.959,0,0,0,1.426-.292.875.875,0,0,0,.531-.781.885.885,0,0,0-.238-.631,1.992,1.992,0,0,0-.543-.408q-.305-.155-.522-.278c-.109-.054-.305-.138-.591-.251s-.6-.237-.957-.374l-1.005-.387q-.475-.183-.746-.305a2.969,2.969,0,0,1-2.023-2.811,3.2,3.2,0,0,1,.96-2.281,3.447,3.447,0,0,1,1.249-.775,5.2,5.2,0,0,1,1.82-.285,7.589,7.589,0,0,1,2.051.251,7.338,7.338,0,0,1,1.581.631,7.006,7.006,0,0,1,1.175.8l-1.249,2.091A4.721,4.721,0,0,0,780.2,377.3a3.345,3.345,0,0,0-1.215.17,1.22,1.22,0,0,0-.557.381.668.668,0,0,0-.143.346.778.778,0,0,0,.169.461,1.92,1.92,0,0,0,.767.489q.244.109.659.266t.924.346c.339.127.674.26,1,.4s.631.283.9.427a8.342,8.342,0,0,1,1.005.666,3.623,3.623,0,0,1,.875.974,2.607,2.607,0,0,1,.36,1.406,3.716,3.716,0,0,1-.19,1.106,3.33,3.33,0,0,1-.666,1.161,3.456,3.456,0,0,1-1.317.91A5.575,5.575,0,0,1,780.622,387.158Z" transform="translate(-416.271 -213.581)" fill="#fff"/>
    <path id="Path_5611" data-name="Path 5611" d="M902.062,387.129a5.524,5.524,0,0,1-2.879-.727,4.882,4.882,0,0,1-1.888-2.044,6.821,6.821,0,0,1-.665-3.109,7.933,7.933,0,0,1,.72-3.184,5.767,5.767,0,0,1,1.018-1.528,4.881,4.881,0,0,1,1.562-1.12,5.111,5.111,0,0,1,2.169-.427,6,6,0,0,1,1.874.266,5.463,5.463,0,0,1,1.385.666,5.39,5.39,0,0,1,.974.835,6.606,6.606,0,0,1,.62.8c.154.24.266.414.339.522l-1.968,1.5a8.357,8.357,0,0,0-.708-1.093,3.466,3.466,0,0,0-1-.885,2.864,2.864,0,0,0-1.481-.354,2.606,2.606,0,0,0-1.5.407,2.992,2.992,0,0,0-.952,1.029,4.48,4.48,0,0,0-.482,1.328,6.859,6.859,0,0,0-.135,1.3,5.948,5.948,0,0,0,.136,1.264,3.434,3.434,0,0,0,.469,1.139,2.41,2.41,0,0,0,.9.819,2.952,2.952,0,0,0,1.416.305,3.149,3.149,0,0,0,1.554-.34,2.914,2.914,0,0,0,1.013-.957,9.155,9.155,0,0,0,.76-1.446l2.228,1a10.762,10.762,0,0,1-1.344,2.145,5.194,5.194,0,0,1-1.753,1.4A5.328,5.328,0,0,1,902.062,387.129Z" transform="translate(-526.789 -213.552)" fill="#fff"/>
    <path id="Path_5612" data-name="Path 5612" d="M1040.372,388.21a5.613,5.613,0,0,1-2.322-.468,5.447,5.447,0,0,1-1.807-1.3,5.893,5.893,0,0,1-1.167-1.888,6.183,6.183,0,0,1-.407-2.24,7.18,7.18,0,0,1,.326-2.14,6.034,6.034,0,0,1,.991-1.914,4.858,4.858,0,0,1,1.691-1.378,5.33,5.33,0,0,1,2.424-.516,5.971,5.971,0,0,1,2.525.5,4.987,4.987,0,0,1,1.77,1.328,5.584,5.584,0,0,1,1.032,1.874,6.928,6.928,0,0,1,.339,2.145,7.121,7.121,0,0,1-.394,2.417,5.76,5.76,0,0,1-1.116,1.9,4.9,4.9,0,0,1-1.711,1.239A5.358,5.358,0,0,1,1040.372,388.21Zm0-2.268a2.962,2.962,0,0,0,1.5-.4,2.846,2.846,0,0,0,1.113-1.257,5.079,5.079,0,0,0,.421-2.227,3.689,3.689,0,0,0-.462-1.942,2.906,2.906,0,0,0-1.195-1.127,3.388,3.388,0,0,0-1.534-.366,3.287,3.287,0,0,0-1.535.326,2.738,2.738,0,0,0-1.005.875,3.657,3.657,0,0,0-.542,1.229,5.961,5.961,0,0,0-.163,1.4,3.344,3.344,0,0,0,.272,1.337,3.634,3.634,0,0,0,.74,1.113,3.53,3.53,0,0,0,1.08.761A3.116,3.116,0,0,0,1040.372,385.943Z" transform="translate(-652.611 -214.81)" fill="#fff"/>
    <path id="Path_5613" data-name="Path 5613" d="M1181.089,388.21a5.617,5.617,0,0,1-2.323-.468,5.45,5.45,0,0,1-1.805-1.3,5.875,5.875,0,0,1-1.164-1.888,6.183,6.183,0,0,1-.408-2.24,7.18,7.18,0,0,1,.32-2.139,6.029,6.029,0,0,1,.99-1.914,4.863,4.863,0,0,1,1.691-1.378,5.33,5.33,0,0,1,2.423-.516,5.976,5.976,0,0,1,2.526.5,4.975,4.975,0,0,1,1.765,1.328,5.574,5.574,0,0,1,1.032,1.874,6.9,6.9,0,0,1,.34,2.145,7.136,7.136,0,0,1-.394,2.417,5.758,5.758,0,0,1-1.113,1.908,4.907,4.907,0,0,1-1.711,1.239A5.357,5.357,0,0,1,1181.089,388.21Zm0-2.268a2.965,2.965,0,0,0,1.5-.4,2.846,2.846,0,0,0,1.114-1.257,5.081,5.081,0,0,0,.421-2.227,3.689,3.689,0,0,0-.462-1.942,2.921,2.921,0,0,0-1.195-1.127,3.393,3.393,0,0,0-1.535-.366,3.29,3.29,0,0,0-1.534.326,2.731,2.731,0,0,0-1.005.875,3.628,3.628,0,0,0-.542,1.229,5.955,5.955,0,0,0-.164,1.4,3.349,3.349,0,0,0,.271,1.337,3.664,3.664,0,0,0,.74,1.113,3.544,3.544,0,0,0,1.08.761A3.117,3.117,0,0,0,1181.089,385.943Z" transform="translate(-780.876 -214.81)" fill="#fff"/>
    <path id="Path_5614" data-name="Path 5614" d="M1323.63,388.556a7.88,7.88,0,0,1-2.132-.23,2.5,2.5,0,0,1-1.167-.645,2,2,0,0,1-.5-.978,5.965,5.965,0,0,1-.116-1.215q0-1.086.061-2.485t.163-3.009q.1-1.609.224-3.333l2.472.244q-.137,1.045-.238,2.138t-.17,2.124q-.067,1.033-.108,1.874t-.061,1.406c-.014.376-.02.62-.02.727a1.794,1.794,0,0,0,.108.713.6.6,0,0,0,.435.319,4.2,4.2,0,0,0,.95.081,17.5,17.5,0,0,0,1.779-.1q.991-.1,2.01-.305a15.221,15.221,0,0,0,1.859-.489l.531,2.335q-.924.231-1.99.421t-2.124.3A19.586,19.586,0,0,1,1323.63,388.556Z" transform="translate(-912.432 -215.075)" fill="#fff"/>
    <path id="Path_5615" data-name="Path 5615" d="M1441.082,387.007l-2.322-.435q.652-2.636,1.365-4.766a28.257,28.257,0,0,1,1.474-3.653,9.448,9.448,0,0,1,1.554-2.343,2.265,2.265,0,0,1,1.593-.821q1.615,0,2.974,2.994a36.52,36.52,0,0,1,2.308,8.674l-2.4.322q-.164-.9-.354-1.84t-.394-1.84q-.327-.013-.708-.013-.665,0-1.406.027t-1.453.089q-.712.061-1.328.129-.259.87-.5,1.759T1441.082,387.007Zm2.5-7.93q-.3.638-.8,2.064.582-.067,1.239-.1T1445.3,381c.354,0,.692.01,1.019.027q-.191-.693-.36-1.239a8.374,8.374,0,0,0-.305-.856,5.124,5.124,0,0,0-.5-1.038.587.587,0,0,0-.448-.305.676.676,0,0,0-.49.319,6.453,6.453,0,0,0-.631,1.165Z" transform="translate(-1020.937 -213.553)" fill="#fff"/>
  </g>
</svg>
