<svg xmlns="http://www.w3.org/2000/svg" width="15" height="15" viewBox="0 0 15 15">
  <g id="meetings" transform="translate(-1)">
    <rect id="Rectangle_8955" data-name="Rectangle 8955" width="15" height="15" transform="translate(1)" fill="none"/>
    <path id="Path_16266" data-name="Path 16266" d="M14,8.455V5.375A1.446,1.446,0,0,0,12.5,4h-9A1.446,1.446,0,0,0,2,5.375v8.25A1.446,1.446,0,0,0,3.5,15h9A1.446,1.446,0,0,0,14,13.625v-3.08L16.362,12.7A.378.378,0,0,0,17,12.456V6.544a.378.378,0,0,0-.638-.241ZM8,6.75A1.446,1.446,0,0,1,9.5,8.125,1.446,1.446,0,0,1,8,9.5,1.446,1.446,0,0,1,6.5,8.125,1.446,1.446,0,0,1,8,6.75Zm3,5.5H5v-.392a1.385,1.385,0,0,1,.915-1.272,5.65,5.65,0,0,1,4.17,0A1.385,1.385,0,0,1,11,11.858Z" transform="translate(-1 -2)" fill="#7f8fa4"/>
  </g>
</svg>
