<svg xmlns="http://www.w3.org/2000/svg" xmlns:xlink="http://www.w3.org/1999/xlink" width="16" height="16" viewBox="0 0 16 16">
  <defs>
    <clipPath id="meeting-settings">
      <rect id="Rectangle_29719" data-name="Rectangle 29719" width="16" height="16" transform="translate(26 512)" fill="#a5a2b4" stroke="#a5a2b4" stroke-width="1"/>
    </clipPath>
  </defs>
  <g id="Mask_Group_760" data-name="Mask Group 760" transform="translate(-26 -512)" clip-path="url(#meeting-settings)">
    <g id="svgexport-6_-_2022-05-26T112852.161" data-name="svgexport-6 - 2022-05-26T112852.161" transform="translate(26 512)">
      <path id="Path_26841" data-name="Path 26841" d="M16,6.71h-.58l-.864.455a1.283,1.283,0,0,0-.308-.127l-1.087-.272V6.642a1.812,1.812,0,0,0,.774-1.481V4.71a1.854,1.854,0,0,0-1.751-1.871c-.049,0-.1,0-.146,0l.282-.66L10.954.816l-.806.524a4.365,4.365,0,0,0-.966-.4L8.983,0H7.017l-.2.94a4.36,4.36,0,0,0-.966.4L5.046.817,3.681,2.182l.277.66-.031,0A1.807,1.807,0,0,0,2.065,4.645v.516a1.812,1.812,0,0,0,.774,1.481v.124l-.709.177L.844,6.194H0v5.347l2.539.846h.494l.062-.216.778.467a.8.8,0,0,0,.775.778.8.8,0,0,0,.774.774.8.8,0,0,0,.774.774.8.8,0,0,0,1.255.637l.229.2A.786.786,0,0,0,8.2,16h.048a.786.786,0,0,0,.784-.775.785.785,0,0,0,.774-.774.785.785,0,0,0,.774-.775.794.794,0,0,0,.775-.792.756.756,0,0,0,0-.077L16,10.482Zm-2.581-2v.451a1.3,1.3,0,0,1-.646,1.117l-.129.075v.817l1.289.322L11.1,8.985v-.7a1.284,1.284,0,0,0-.37-.9l.886-.221V6.352l-.129-.074a1.294,1.294,0,0,1-.645-1.116V4.645a1.29,1.29,0,0,1,1.33-1.29,1.334,1.334,0,0,1,1.25,1.355ZM8.389,8.782,7.221,8.409a3.187,3.187,0,0,0-1.654-.075l-.148.033V8.29a.774.774,0,0,1,.586-.751l1.478-.369V6.352l-.129-.074A1.294,1.294,0,0,1,6.71,5.161V4.645a1.29,1.29,0,0,1,1.33-1.29A1.334,1.334,0,0,1,9.29,4.71v.451a1.3,1.3,0,0,1-.646,1.117l-.129.075v.817l1.478.369a.774.774,0,0,1,.586.751v.967l-.064.034h-.158L8.772,8.837a1.627,1.627,0,0,0-.383-.055ZM5.477,3.862a2.837,2.837,0,0,1,5.035-.021,1.8,1.8,0,0,0-.19.8v.516A1.812,1.812,0,0,0,11.1,6.642v.124l-1.032.258L9.032,6.766V6.642a1.812,1.812,0,0,0,.774-1.481V4.71A1.854,1.854,0,0,0,8.055,2.839,1.807,1.807,0,0,0,6.194,4.645v.516a1.812,1.812,0,0,0,.774,1.481v.124l-1.032.258L4.9,6.766V6.642a1.812,1.812,0,0,0,.774-1.481V4.71a1.9,1.9,0,0,0-.2-.848ZM4.29,2.3l.824-.824.726.472.139-.085A3.851,3.851,0,0,1,7.1,1.4l.159-.038.18-.847h1.13l.179.846L8.9,1.4a3.855,3.855,0,0,1,1.117.464l.139.085.726-.472.823.824-.293.685a1.8,1.8,0,0,0-.545.362l-.03.032A3.351,3.351,0,0,0,5.149,3.4a1.82,1.82,0,0,0-.569-.4ZM3.355,7.169V6.352l-.129-.074a1.294,1.294,0,0,1-.645-1.116V4.645a1.29,1.29,0,0,1,1.33-1.29A1.334,1.334,0,0,1,5.161,4.71v.451a1.3,1.3,0,0,1-.646,1.117l-.129.075v.817l.885.221a1.284,1.284,0,0,0-.37.9v.191l-.8.179.021-.073.01-.477L2.768,7.316ZM.516,6.71H.7L2.56,7.792l-.936,3.746L.516,11.169Zm2.106,5.161L2.115,11.7l.91-3.639.589.343V8.48l-.969,3.391Zm1.765.743a.291.291,0,0,1,.085-.2l.454-.454a.289.289,0,0,1,.409.409l-.454.454a.289.289,0,0,1-.494-.2Zm.774.774a.291.291,0,0,1,.085-.2L5.7,12.73a.289.289,0,0,1,.409.409l-.454.454a.289.289,0,0,1-.494-.2Zm.774.774a.291.291,0,0,1,.085-.2l.454-.454a.289.289,0,0,1,.409.409l-.454.454a.289.289,0,0,1-.494-.2ZM7,15.226a.289.289,0,0,1-.2-.494l.454-.454a.289.289,0,0,1,.409.409l-.454.454A.291.291,0,0,1,7,15.226Zm1.248.258H8.2a.267.267,0,0,1-.178-.067l-.193-.17.194-.194a.8.8,0,0,0,.163-.24l.235.2a.269.269,0,0,1-.172.476Zm2.314-2.323h-.045a.277.277,0,0,1-.178-.065l-1.4-1.166-.331.4L9.968,13.46a.269.269,0,0,1-.173.476H9.739a.269.269,0,0,1-.172-.062l-1.4-1.168-.331.4,1.359,1.132a.269.269,0,0,1-.172.476.426.426,0,0,1-.272-.1l-.576-.48a.8.8,0,0,0-.693-.451.8.8,0,0,0-.774-.774.8.8,0,0,0-.774-.774.8.8,0,0,0-1.372-.541l-.454.454a.8.8,0,0,0-.072.088l-.793-.476.695-2.432,1.742-.387A2.658,2.658,0,0,1,7.063,8.9l.38.122-1.289.644a.86.86,0,0,0-.477.773v.051a.864.864,0,0,0,1.309.741l.961-.576a.533.533,0,0,1,.619.06l2.18,1.962a.278.278,0,0,1-.186.484Zm4.923-3-4.348,2.174c-.014-.015-.029-.029-.044-.043l-2.18-1.962a1.039,1.039,0,0,0-1.23-.119l-.961.576a.348.348,0,0,1-.527-.3v-.051a.346.346,0,0,1,.193-.311l1.44-.72a1.122,1.122,0,0,1,.8-.075l1.622.463.393.01,4.839-2.547Zm0,0" fill="#a5a2b4"/>
    </g>
  </g>
</svg>
