<svg xmlns="http://www.w3.org/2000/svg" xmlns:xlink="http://www.w3.org/1999/xlink" width="16" height="16" viewBox="0 0 16 16">
  <defs>
    <clipPath id="on-go">
      <rect id="Rectangle_29876" data-name="Rectangle 29876" width="16" height="16" transform="translate(26 222)" fill="#8391a2" stroke="#707070" stroke-width="1"/>
    </clipPath>
  </defs>
  <g id="Mask_Group_782" data-name="Mask Group 782" transform="translate(-26 -222)" clip-path="url(#on-go)">
    <g id="units_" data-name="units " transform="translate(25.711 221.711)">
      <g id="E-learning_completed_course">
        <path id="Path_27036" data-name="Path 27036" d="M16,15.156a.167.167,0,0,0-.146.168v.61a.649.649,0,0,1,.17-1.265.162.162,0,0,0,.145-.111h0s0-.009,0-.013l0-.01a.163.163,0,0,0,0-.026s0,0,0,0h0V7.762a.411.411,0,0,0-.411-.411H12.349V4.574a.411.411,0,0,0-.411-.411H7.858V2.424A1.04,1.04,0,0,0,8.37.886l.294-.32A.167.167,0,0,0,8.671.344a.162.162,0,0,0-.24,0l-.277.3a1.04,1.04,0,0,0-1.675.584H2.842a.336.336,0,0,0-.334-.3H1.8a.336.336,0,0,0-.335.322A1.3,1.3,0,0,0,.4,2.529V9.121l0-.007c0,.026,0,.052,0,.079a.972.972,0,0,0,.973.973H4.894v1.962h0a.972.972,0,0,0,.973.973H8.722v2.21s0,0,0,.005,0,0,0,.005v.02h0a.972.972,0,0,0,.972.948h6.319a.163.163,0,0,0,.163-.163v-.81A.162.162,0,0,0,16,15.156ZM7.5.732a.713.713,0,0,1,.439.15l-.415.451-.2-.206a.162.162,0,1,0-.232.226l.319.328a.162.162,0,0,0,.116.049h0a.162.162,0,0,0,.117-.052l.5-.542A.717.717,0,1,1,7.5.732Zm-5.712.533A.012.012,0,0,1,1.8,1.253h.713a.012.012,0,0,1,.012.012V2.553L2.44,2.445A.344.344,0,0,0,1.9,2.437l-.113.14ZM.728,8.469V2.529a.979.979,0,0,1,.732-.946V2.717a.272.272,0,0,0,.184.259.28.28,0,0,0,.093.016.271.271,0,0,0,.213-.1l.2-.249a.017.017,0,0,1,.016-.008.019.019,0,0,1,.016.008l.169.225A.275.275,0,0,0,2.844,2.7V1.552H6.46A1.042,1.042,0,0,0,7.5,2.49h.039V8.22H1.377a.969.969,0,0,0-.649.249Zm.19,1.183a.648.648,0,0,1-.153-.243h4.2a.162.162,0,0,0,0-.324H.737a.65.65,0,0,1,.639-.541H7.011a.974.974,0,0,0,0,1.3H1.377a.646.646,0,0,1-.459-.19Zm6.779.514A.162.162,0,0,0,7.858,10V9.2a.167.167,0,0,0-.146-.168.162.162,0,0,0-.178.161V9.81A.649.649,0,0,1,7.7,8.545a.163.163,0,0,0,.154-.163h0V7.211H9.276a.338.338,0,0,0,.338-.338V5.405a.338.338,0,0,0-.338-.338H8.862a.167.167,0,0,0-.168.146.162.162,0,0,0,.161.178h.421a.014.014,0,0,1,.014.014V6.873a.014.014,0,0,1-.014.014H7.858v-1.5h.373A.167.167,0,0,0,8.4,5.245a.162.162,0,0,0-.161-.178h-.38v-.58h4.028a.139.139,0,0,1,.139.139v6.53H5.867a.969.969,0,0,0-.649.249h0V10.166ZM5.408,12.588a.648.648,0,0,1-.153-.243h4.2a.162.162,0,0,0,0-.324H5.228a.65.65,0,0,1,.639-.541H11.5a.974.974,0,0,0,0,1.3H5.867a.646.646,0,0,1-.459-.19Zm3.637,2V13.1h3.142a.162.162,0,0,0,.162-.162v-.8a.167.167,0,0,0-.146-.168.162.162,0,0,0-.178.161v.617a.649.649,0,0,1,.17-1.265.159.159,0,0,0,.069-.02h0a.162.162,0,0,0,.025-.018l.009-.008.008-.009.011-.014,0-.007a.162.162,0,0,0,.013-.024v0a.161.161,0,0,0,.007-.024v0a.162.162,0,0,0,0-.03V7.676h3.364a.139.139,0,0,1,.139.139v6.53H9.694a.969.969,0,0,0-.649.249Zm.649,1.373a.647.647,0,0,1-.612-.433h4.2a.162.162,0,1,0,0-.324H9.055a.65.65,0,0,1,.639-.541h5.634a.974.974,0,0,0,0,1.3Z" fill="#8391a2" stroke="#8391a2" stroke-width="0.23"/>
        <path id="Path_27037" data-name="Path 27037" d="M10.264,7.211h.7a.338.338,0,0,0,.338-.338V5.405a.338.338,0,0,0-.338-.338h-.7a.338.338,0,0,0-.338.338V6.873a.338.338,0,0,0,.338.338ZM10.25,5.405a.014.014,0,0,1,.014-.014h.7a.014.014,0,0,1,.014.014V6.873a.014.014,0,0,1-.014.014h-.7a.014.014,0,0,1-.014-.014Z" fill="#8391a2"/>
        <path id="Path_27038" data-name="Path 27038" d="M1.8,5.805H4.786a.338.338,0,0,0,.338-.338V4a.338.338,0,0,0-.338-.338H4.365a.162.162,0,0,0,0,.324h.421A.014.014,0,0,1,4.8,4V5.468a.014.014,0,0,1-.014.014H1.8a.014.014,0,0,1-.014-.014V4A.014.014,0,0,1,1.8,3.986H3.748a.162.162,0,0,0,0-.324H1.8A.338.338,0,0,0,1.46,4V5.468A.338.338,0,0,0,1.8,5.805Z" fill="#8391a2"/>
        <path id="Path_27039" data-name="Path 27039" d="M5.774,5.805h.7a.338.338,0,0,0,.338-.338V4a.338.338,0,0,0-.338-.338h-.7A.338.338,0,0,0,5.436,4V5.468a.338.338,0,0,0,.338.338ZM5.76,4a.014.014,0,0,1,.014-.014h.7A.014.014,0,0,1,6.486,4V5.468a.014.014,0,0,1-.014.014h-.7a.014.014,0,0,1-.014-.014Z" fill="#8391a2"/>
        <path id="Path_27040" data-name="Path 27040" d="M6.617,6.841H4.43a.162.162,0,1,0,0,.324H6.617a.162.162,0,1,0,0-.324Z" fill="#8391a2"/>
        <path id="Path_27041" data-name="Path 27041" d="M6.617,6.247H4.43a.162.162,0,1,0,0,.324H6.617a.162.162,0,1,0,0-.324Z" fill="#8391a2"/>
      </g>
    </g>
  </g>
</svg>
