<svg xmlns="http://www.w3.org/2000/svg" xmlnsxlink="http://www.w3.org/1999/xlink" width="18" height="18" viewBox="0 0 18 18">
  <defs>
    <clipPath id="payment-methods">
      <rect id="Rectangle_29496" data-name="Rectangle 29496" width="18" height="18" transform="translate(281 314)" fill="#fff" stroke="#707070" stroke-width="1"/>
    </clipPath>
  </defs>
  <g id="Mask_Group_714" data-name="Mask Group 714" transform="translate(-281 -314)" clip-path="url(#payment-methods)">
    <g id="svgexport-6_-_2022-05-11T140026.118" data-name="svgexport-6 - 2022-05-11T140026.118" transform="translate(281 314)">
      <g id="Group_14823" data-name="Group 14823">
        <g id="Group_14822" data-name="Group 14822">
          <path id="Path_24903" data-name="Path 24903" d="M16.125,3H1.875A1.878,1.878,0,0,0,0,4.875v8.25A1.878,1.878,0,0,0,1.875,15h14.25A1.878,1.878,0,0,0,18,13.125V4.875A1.878,1.878,0,0,0,16.125,3ZM17.25,13.125a1.126,1.126,0,0,1-1.125,1.125H1.875A1.126,1.126,0,0,1,.75,13.125V4.875A1.126,1.126,0,0,1,1.875,3.75h14.25A1.126,1.126,0,0,1,17.25,4.875v8.25Z" fill="#6a6f73"/>
        </g>
      </g>
      <g id="Group_14825" data-name="Group 14825">
        <g id="Group_14824" data-name="Group 14824">
          <path id="Path_24904" data-name="Path 24904" d="M17.625,5.25H.375A.375.375,0,0,0,0,5.625v2.25a.375.375,0,0,0,.375.375h17.25A.375.375,0,0,0,18,7.875V5.625A.375.375,0,0,0,17.625,5.25ZM17.25,7.5H.75V6h16.5V7.5Z" fill="#6a6f73"/>
        </g>
      </g>
      <g id="Group_14827" data-name="Group 14827">
        <g id="Group_14826" data-name="Group 14826">
          <path id="Path_24905" data-name="Path 24905" d="M7.125,10.5h-4.5a.375.375,0,1,0,0,.75h4.5a.375.375,0,1,0,0-.75Z" fill="#6a6f73"/>
        </g>
      </g>
      <g id="Group_14829" data-name="Group 14829">
        <g id="Group_14828" data-name="Group 14828">
          <path id="Path_24906" data-name="Path 24906" d="M7.125,12h-4.5a.375.375,0,1,0,0,.75h4.5a.375.375,0,0,0,0-.75Z" fill="#6a6f73"/>
        </g>
      </g>
      <g id="Group_14831" data-name="Group 14831">
        <g id="Group_14830" data-name="Group 14830">
          <path id="Path_24907" data-name="Path 24907" d="M14.625,9.75h-.75a1.126,1.126,0,0,0-1.125,1.125v.75a1.126,1.126,0,0,0,1.125,1.125h.75a1.126,1.126,0,0,0,1.125-1.125v-.75A1.126,1.126,0,0,0,14.625,9.75ZM15,11.625a.375.375,0,0,1-.375.375h-.75a.375.375,0,0,1-.375-.375v-.75a.375.375,0,0,1,.375-.375h.75a.375.375,0,0,1,.375.375Z" fill="#6a6f73"/>
        </g>
      </g>
    </g>
  </g>
</svg>
