<svg xmlns="http://www.w3.org/2000/svg" xmlns:xlink="http://www.w3.org/1999/xlink" width="342" height="342" viewBox="0 0 342 342">
  <defs>
    <clipPath id="clip-path">
      <rect id="Rectangle_29691" data-name="Rectangle 29691" width="342" height="342" transform="translate(511 100)" fill="#fff" stroke="#707070" stroke-width="1"/>
    </clipPath>
  </defs>
  <g id="Mask_Group_909" data-name="Mask Group 909" transform="translate(-511 -100)" clip-path="url(#clip-path)">
    <g id="Wallet-pana" transform="translate(489.704 143.838)">
      <g id="freepik--background-complete--inject-81">
        <path id="Path_48091" data-name="Path 48091" d="M227.961,46.761A21.537,21.537,0,1,1,203.578,28.6a21.537,21.537,0,0,1,24.383,18.158Z" fill="#f5f5f5"/>
        <path id="Path_48092" data-name="Path 48092" d="M222.894,47.5a16.409,16.409,0,1,1-18.589-13.845A16.409,16.409,0,0,1,222.894,47.5Z" fill="#ebebeb"/>
        <path id="Path_48093" data-name="Path 48093" d="M222.817,46.992A10.4,10.4,0,0,1,222.1,45.1a17.476,17.476,0,0,0-2.595-4.7,16.789,16.789,0,0,0-2.564-2.636,16.538,16.538,0,0,0-3.59-2.215,15.572,15.572,0,0,0-2.138-.795A16.086,16.086,0,0,0,201.47,35a16.462,16.462,0,0,0-2.256.979,15.3,15.3,0,0,0-2.01,1.261,14.794,14.794,0,0,0-1.733,1.482,16.163,16.163,0,0,0-4.1,6.666,17.46,17.46,0,0,0-.82,5.307,12.912,12.912,0,0,1,0,2.02,4.6,4.6,0,0,1-.472-1.99,15.194,15.194,0,0,1,.451-5.584,16.757,16.757,0,0,1,1.426-3.6,16.515,16.515,0,0,1,2.687-3.59,15.579,15.579,0,0,1,1.836-1.62,15.894,15.894,0,0,1,2.149-1.39,16.665,16.665,0,0,1,2.425-1.077,18.656,18.656,0,0,1,2.641-.692,18.24,18.24,0,0,1,2.723-.256,16.122,16.122,0,0,1,2.646.174,15.6,15.6,0,0,1,2.492.564,15.161,15.161,0,0,1,2.282.846,16.486,16.486,0,0,1,6.389,5.374,15.2,15.2,0,0,1,2.328,5.087A4.746,4.746,0,0,1,222.817,46.992Z" fill="#e0e0e0"/>
        <path id="Path_48094" data-name="Path 48094" d="M209.905,59.273l.451,2.825-2.523.4-.436-2.743a11.979,11.979,0,0,1-6.6-1.026l.9-3.3a10.225,10.225,0,0,0,5.174,1.026l-.677-4.2c-2.9-.231-6.179-.667-6.753-4.266-.426-2.672,1.144-5.277,5.051-6.364l-.446-2.8,2.518-.405L207,41.167a11.543,11.543,0,0,1,5.359.718l-.764,3.3a10.451,10.451,0,0,0-4.061-.7l.687,4.287c2.9.205,6.123.646,6.692,4.2C215.336,55.592,213.782,58.166,209.905,59.273Zm-4.277-10.728-.574-3.59c-1.287.513-1.7,1.333-1.564,2.164S204.434,48.371,205.629,48.546Zm5.3,5.374c-.138-.882-.949-1.241-2.092-1.446l.559,3.477c1.19-.477,1.636-1.22,1.508-2.031Z" fill="#e0e0e0"/>
        <path id="Path_48095" data-name="Path 48095" d="M340.333,139.479s-4.774-2.759-9.712,8.558a141.3,141.3,0,0,0-6.666,17.773s-1.344,2.39-3.01.985-4.1-5.548-6.733-4.615c-2.738.964-3.466,4.128-2.661,8.661s2.2,14.543,2.328,15.445-.308,2.236-1.6,1.456-8.907-8.292-12.261-4.466.969,16.1,1.42,17.435.21,1.954-.421,2.333-2.954-2.39-5.2-4.441-5.225-4.031-6.974-1.661-1.79,11.794,8.041,26.45l5,6.5,8.2-.949c17.389-3.077,24.137-9.651,24.614-12.553s-2.995-3.672-6.03-3.872-6.666.046-6.81-.672.108-1.3,1.39-1.918,13.117-6.01,13.548-11.081-10.256-5.338-11.722-5.728-.785-1.636-.062-2.164,8.917-6.471,12.743-9.035,5.6-5.287,4.395-7.928c-1.159-2.564-5.82-1.42-7.989-1.646s-1.385-2.851-1.385-2.851a142.932,142.932,0,0,0,8.174-17.137c4.728-11.4-.708-12.938-.708-12.938" fill="#ebebeb"/>
        <path id="Path_48096" data-name="Path 48096" d="M302.182,228.191c3.507-8.364,8.446-19.871,13.943-32.572s10.466-24.188,14.015-32.531l4.2-9.881,1.144-2.687.3-.692c.072-.159.113-.236.113-.236a2.085,2.085,0,0,1-.082.246l-.282.7c-.251.631-.62,1.538-1.092,2.708-.954,2.349-2.359,5.738-4.1,9.917-3.523,8.364-8.461,19.9-13.948,32.567s-10.466,24.2-14.015,32.537" fill="#e0e0e0"/>
        <path id="Path_48097" data-name="Path 48097" d="M317.36,168.082a2.562,2.562,0,0,1,.246.544c.138.354.328.872.559,1.538.451,1.287,1.026,3.077,1.626,5.072l1.538,5.1c.185.605.338,1.118.467,1.538a2.42,2.42,0,0,1,.144.574,2.428,2.428,0,0,1-.246-.538c-.144-.359-.333-.877-.554-1.538-.441-1.292-.99-3.077-1.59-5.082l-1.538-5.087-.472-1.538a2.1,2.1,0,0,1-.179-.585Z" fill="#e0e0e0"/>
        <path id="Path_48098" data-name="Path 48098" d="M322.673,182.553c0-.072,3.62-1.426,8.138-3.025s8.2-2.836,8.2-2.759-3.62,1.426-8.138,3.025S322.7,182.6,322.673,182.553Z" fill="#e0e0e0"/>
        <path id="Path_48099" data-name="Path 48099" d="M313.356,201.644a2.472,2.472,0,0,1,.6-.067l1.646-.1c1.385-.082,3.3-.205,5.41-.415s4.01-.451,5.384-.646l1.631-.22a2.441,2.441,0,0,1,.605-.051,2.283,2.283,0,0,1-.585.159c-.379.082-.933.19-1.62.313-1.369.241-3.272.513-5.389.728s-4.036.3-5.43.328h-1.646a2.278,2.278,0,0,1-.605-.031Z" fill="#e0e0e0"/>
        <path id="Path_48100" data-name="Path 48100" d="M305.669,189.64a3.857,3.857,0,0,1,.354.436c.21.292.513.713.877,1.246.723,1.056,1.713,2.533,2.79,4.169s2.051,3.128,2.728,4.215c.344.544.615.99.8,1.3a2.407,2.407,0,0,1,.262.513,2.053,2.053,0,0,1-.354-.436c-.21-.292-.513-.718-.877-1.246-.723-1.061-1.713-2.533-2.79-4.174s-2.051-3.128-2.728-4.215c-.344-.544-.615-.985-.8-1.3a2.471,2.471,0,0,1-.262-.508Z" fill="#e0e0e0"/>
        <path id="Path_48101" data-name="Path 48101" d="M295.3,205.47a3.865,3.865,0,0,1,.441.559c.3.426.677.959,1.128,1.595.938,1.354,2.22,3.236,3.62,5.318s2.656,3.984,3.554,5.364l1.051,1.646a3.671,3.671,0,0,1,.354.626,3.549,3.549,0,0,1-.446-.564l-1.123-1.595c-.938-1.354-2.22-3.231-3.625-5.318s-2.656-3.984-3.554-5.364c-.421-.656-.769-1.21-1.051-1.646a3.078,3.078,0,0,1-.349-.62Z" fill="#e0e0e0"/>
        <path id="Path_48102" data-name="Path 48102" d="M305.3,220.146a4.016,4.016,0,0,1,.764-.108l2.051-.195c1.754-.169,4.179-.405,6.846-.744s5.077-.7,6.82-.974l2.051-.323a3.783,3.783,0,0,1,.764-.082,4.193,4.193,0,0,1-.744.19c-.482.108-1.179.251-2.051.41-1.733.328-4.143.723-6.815,1.056s-5.128.549-6.866.661c-.882.056-1.595.1-2.087.113a3.886,3.886,0,0,1-.733-.005Z" fill="#e0e0e0"/>
        <path id="Path_48103" data-name="Path 48103" d="M158.144,174.174,60.412,143.755a4.764,4.764,0,0,1-3.133-5.964l18.794-60.36a4.759,4.759,0,0,1,5.974-3.143l97.738,30.424a4.759,4.759,0,0,1,3.128,5.959l-18.819,60.376a4.754,4.754,0,0,1-5.948,3.128Z" fill="#e0e0e0"/>
        <path id="Path_48104" data-name="Path 48104" d="M163.544,117.388a7.717,7.717,0,1,1-.533-5.888,7.723,7.723,0,0,1,.533,5.888Z" fill="#fff"/>
        <path id="Path_48105" data-name="Path 48105" d="M164.093,125.839a8.333,8.333,0,0,1-1.4-.308,7.943,7.943,0,1,1,1.4.308Zm1.913-15.332a7.41,7.41,0,1,0,6.154,9.553h0a7.415,7.415,0,0,0-4.872-9.276,8,8,0,0,0-1.308-.277Z" fill="#fff"/>
        <path id="Path_48106" data-name="Path 48106" d="M73.114,120.265l-1.836,5.928-.61-.19,1.677-5.384-1.395-.436.169-.544Z" fill="#fff"/>
        <path id="Path_48107" data-name="Path 48107" d="M77.534,127.551l-.169.544-4.159-1.3.138-.431,3.215-1.646c.872-.456,1.123-.815,1.251-1.22.215-.687-.138-1.261-1.026-1.538a2.113,2.113,0,0,0-1.826.159l-.318-.513a2.79,2.79,0,0,1,2.364-.195c1.205.374,1.779,1.226,1.472,2.215-.179.569-.513,1.026-1.538,1.538L74.3,126.521Z" fill="#fff"/>
        <path id="Path_48108" data-name="Path 48108" d="M84.1,128.474l-1.19-.364-.482,1.538-.61-.195.482-1.538-3.343-1.026.133-.441,4.369-2.949.677.21-4.225,2.882,2.564.805.426-1.374.59.185-.426,1.374,1.185.369Z" fill="#fff"/>
        <path id="Path_48109" data-name="Path 48109" d="M93.184,131.3,92,130.936l-.487,1.538-.61-.19.487-1.538-3.349-1.026.138-.441,4.364-2.954.677.21L89,129.423l2.564.8.426-1.369.595.185-.431,1.369,1.19.369Z" fill="#fff"/>
        <path id="Path_48110" data-name="Path 48110" d="M98.425,132.73c-.313,1.026-1.261,1.579-2.713,1.128a3.2,3.2,0,0,1-1.887-1.426l.446-.39a2.682,2.682,0,0,0,1.605,1.251c1.026.318,1.7,0,1.923-.728s-.092-1.385-1.6-1.856l-1.261-.39,1.231-2.882,3.246,1.026-.169.544-2.713-.846-.79,1.831.764.236C98.292,130.761,98.753,131.684,98.425,132.73Z" fill="#fff"/>
        <path id="Path_48111" data-name="Path 48111" d="M104.291,134.53a1.924,1.924,0,0,1-2.564,1.195c-1.574-.513-2.092-1.851-1.508-3.723.626-2.015,2.051-2.728,3.666-2.226a2.851,2.851,0,0,1,1.3.759l-.395.415a2.215,2.215,0,0,0-1.067-.636c-1.277-.4-2.359.169-2.856,1.779a4.68,4.68,0,0,0-.128.487,1.99,1.99,0,0,1,2.133-.451A1.9,1.9,0,0,1,104.291,134.53Zm-.605-.179a1.367,1.367,0,0,0-1.092-1.743,1.367,1.367,0,1,0-.759,2.579,1.359,1.359,0,0,0,1.851-.836Z" fill="#fff"/>
        <path id="Path_48112" data-name="Path 48112" d="M112.388,137.125c-.313.99-1.267,1.538-2.7,1.082a3.22,3.22,0,0,1-1.9-1.426l.446-.39a2.687,2.687,0,0,0,1.626,1.256c.979.308,1.667,0,1.892-.718s-.133-1.333-1.231-1.677l-.426-.133.138-.446,2.287-1.538-3.036-.944.169-.544,3.815,1.19-.138.431L111,134.859C112.255,135.31,112.68,136.176,112.388,137.125Z" fill="#fff"/>
        <path id="Path_48113" data-name="Path 48113" d="M118.352,138.91a1.94,1.94,0,0,1-2.59,1.19c-1.574-.513-2.092-1.851-1.508-3.723.626-2.015,2.051-2.723,3.666-2.22a2.836,2.836,0,0,1,1.3.759l-.395.415a2.22,2.22,0,0,0-1.067-.641c-1.282-.395-2.359.169-2.856,1.779a4.8,4.8,0,0,0-.128.513,1.984,1.984,0,0,1,2.128-.456A1.856,1.856,0,0,1,118.352,138.91Zm-.605-.174A1.363,1.363,0,0,0,116.655,137a1.434,1.434,0,0,0-1.928.82c-.205.651.144,1.436,1.169,1.759a1.359,1.359,0,0,0,1.851-.841Z" fill="#fff"/>
        <path id="Path_48114" data-name="Path 48114" d="M125.121,136.448l-.138.431-4.189,4.728-.661-.21,4.1-4.615-3.046-.949-.349,1.108-.6-.19.513-1.651Z" fill="#fff"/>
        <path id="Path_48115" data-name="Path 48115" d="M133.582,139.084l-.133.436-4.195,4.723-.661-.205,4.1-4.615-3.077-.949-.344,1.113-.605-.19.513-1.651Z" fill="#fff"/>
        <path id="Path_48116" data-name="Path 48116" d="M138.084,145.181c-.328,1.051-1.42,1.426-2.836.985s-2.082-1.364-1.754-2.415a1.538,1.538,0,0,1,1.595-1.1,1.4,1.4,0,0,1-.513-1.595c.3-.964,1.308-1.308,2.564-.918s1.9,1.251,1.605,2.215a1.4,1.4,0,0,1-1.359,1.026,1.538,1.538,0,0,1,.7,1.805Zm-.62-.205c.226-.728-.262-1.379-1.313-1.708s-1.81-.062-2.051.667.246,1.39,1.3,1.713S137.233,145.714,137.464,144.976Zm-1.159-2.19c.923.287,1.6.041,1.8-.6s-.246-1.256-1.138-1.538-1.59-.051-1.795.61S135.376,142.5,136.3,142.786Z" fill="#fff"/>
        <path id="Path_48117" data-name="Path 48117" d="M144.268,145.632c-.626,2.015-2.051,2.723-3.666,2.22a2.81,2.81,0,0,1-1.3-.759l.395-.415a2.154,2.154,0,0,0,1.067.636c1.277.4,2.359-.164,2.856-1.774a4.37,4.37,0,0,0,.128-.513,1.99,1.99,0,0,1-2.133.451,1.878,1.878,0,0,1-1.441-2.4,1.938,1.938,0,0,1,2.564-1.19C144.335,142.376,144.853,143.735,144.268,145.632Zm-.472-1.441a1.443,1.443,0,0,0-1.169-1.759,1.357,1.357,0,1,0-.759,2.579,1.435,1.435,0,0,0,1.928-.841Z" fill="#fff"/>
        <path id="Path_48118" data-name="Path 48118" d="M151.191,144.566l-1.846,5.933-.61-.19,1.677-5.389-1.4-.436.169-.544Z" fill="#fff"/>
        <path id="Path_48119" data-name="Path 48119" d="M155.611,151.852l-.169.544-4.169-1.3.133-.431,3.215-1.646c.877-.451,1.128-.81,1.256-1.22.21-.682-.138-1.256-1.026-1.538a2.118,2.118,0,0,0-1.826.154l-.313-.513a2.79,2.79,0,0,1,2.364-.19c1.2.374,1.774,1.22,1.467,2.21-.179.569-.513,1.026-1.538,1.538l-2.631,1.354Z" fill="#fff"/>
        <path id="Path_48120" data-name="Path 48120" d="M161.293,152.35c-.308.99-1.267,1.538-2.7,1.082a3.246,3.246,0,0,1-1.892-1.426l.446-.39a2.728,2.728,0,0,0,1.62,1.256c.985.308,1.672,0,1.9-.718s-.133-1.333-1.231-1.677l-.426-.133.138-.446,2.287-1.538-3.036-.944.169-.544,3.815,1.185-.133.436-2.338,1.585C161.16,150.535,161.585,151.4,161.293,152.35Z" fill="#fff"/>
        <rect id="Rectangle_32751" data-name="Rectangle 32751" width="2.697" height="49.746" transform="translate(113.057 146.848) rotate(-72.71)" fill="#fff"/>
        <rect id="Rectangle_32752" data-name="Rectangle 32752" width="2.697" height="25.516" transform="translate(134.593 159.195) rotate(-72.71)" fill="#fff"/>
        <g id="Group_89910" data-name="Group 89910" opacity="0.5">
          <rect id="Rectangle_32753" data-name="Rectangle 32753" width="20.876" height="15.594" rx="2.543" transform="translate(75.724 99.134) rotate(17.29)" fill="#ebebeb"/>
        </g>
        <path id="Path_48121" data-name="Path 48121" d="M72.37,109.9l.3-.954,10.256,3.195a2.251,2.251,0,1,0,1.338-4.3L74.006,104.65l.3-.954,10.256,3.195a3.251,3.251,0,1,1-1.933,6.2Z" fill="#e0e0e0"/>
        <rect id="Rectangle_32754" data-name="Rectangle 32754" width="0.996" height="7.351" transform="translate(85.754 111.898) rotate(-72.474)" fill="#e0e0e0"/>
        <rect id="Rectangle_32755" data-name="Rectangle 32755" width="53.684" height="4.605" transform="translate(81.895 87.613) rotate(17.29)" fill="#fff"/>
        <path id="Path_48122" data-name="Path 48122" d="M97.8,202.8a13.615,13.615,0,1,1-15.43-11.481A13.615,13.615,0,0,1,97.8,202.8Z" fill="#f5f5f5"/>
        <path id="Path_48123" data-name="Path 48123" d="M94.6,203.27a10.379,10.379,0,1,1-11.758-8.753A10.379,10.379,0,0,1,94.6,203.27Z" fill="#ebebeb"/>
        <path id="Path_48124" data-name="Path 48124" d="M94.548,202.947a6.123,6.123,0,0,1-.451-1.195,11.1,11.1,0,0,0-1.641-2.974,10.256,10.256,0,0,0-5.251-3.59,9.194,9.194,0,0,0-1.467-.313,10.37,10.37,0,0,0-1.538-.092,12.074,12.074,0,0,0-1.595.154,11.623,11.623,0,0,0-1.538.405,10.144,10.144,0,0,0-1.426.62,10.264,10.264,0,0,0-4.015,3.831,10.686,10.686,0,0,0-.959,2.128,11.1,11.1,0,0,0-.513,3.354,5.641,5.641,0,0,1,0,1.282,3.194,3.194,0,0,1-.3-1.261,9.774,9.774,0,0,1,.287-3.533,10.866,10.866,0,0,1,.923-2.3,10.63,10.63,0,0,1,1.7-2.287,9.783,9.783,0,0,1,1.159-1.026,10.452,10.452,0,0,1,1.359-.877,10.855,10.855,0,0,1,1.538-.677,11.942,11.942,0,0,1,1.672-.441,11.585,11.585,0,0,1,1.723-.164,10.564,10.564,0,0,1,1.672.113,9.948,9.948,0,0,1,1.579.354,10.255,10.255,0,0,1,1.441.564,10.42,10.42,0,0,1,4.041,3.4,9.687,9.687,0,0,1,1.487,3.215,3.046,3.046,0,0,1,.108,1.308Z" fill="#e0e0e0"/>
        <path id="Path_48125" data-name="Path 48125" d="M86.379,210.716l.287,1.785-1.595.256-.277-1.738a7.63,7.63,0,0,1-4.169-.636l.564-2.087a6.533,6.533,0,0,0,3.272.636l-.426-2.661c-1.841-.144-3.907-.415-4.272-2.7-.272-1.687.723-3.333,3.195-4.025l-.282-1.769,1.59-.256.282,1.738a7.307,7.307,0,0,1,3.39.456l-.482,2.087a6.615,6.615,0,0,0-2.564-.441l.436,2.713c1.836.128,3.872.41,4.231,2.656C89.815,208.387,88.836,210.013,86.379,210.716Zm-2.718-6.784-.364-2.267c-.815.328-1.077.846-.99,1.369S82.923,203.819,83.662,203.931Zm3.354,3.4c-.087-.559-.6-.785-1.323-.918l.354,2.2c.769-.3,1.051-.774.969-1.282Z" fill="#e0e0e0"/>
      </g>
      <g id="freepik--Plant--inject-81">
        <path id="Path_48126" data-name="Path 48126" d="M301.228,208.475c-.995,1.415-2.928.949-3.82.082a7.245,7.245,0,0,1-1.62-3.323c-.79-2.733-1.579-5.6-.995-8.394a4.687,4.687,0,0,1,1.072-2.282,2.446,2.446,0,0,1,2.308-.769,3.56,3.56,0,0,1,2.015,2.123,20,20,0,0,1,1.979,8.584,7,7,0,0,1-.938,3.979" fill="#7e59d1"/>
        <g id="Group_89911" data-name="Group 89911" opacity="0.2">
          <path id="Path_48127" data-name="Path 48127" d="M301.228,208.475c-.995,1.415-2.928.949-3.82.082a7.245,7.245,0,0,1-1.62-3.323c-.79-2.733-1.579-5.6-.995-8.394a4.687,4.687,0,0,1,1.072-2.282,2.446,2.446,0,0,1,2.308-.769,3.56,3.56,0,0,1,2.015,2.123,20,20,0,0,1,1.979,8.584,7,7,0,0,1-.938,3.979" fill="#a58bdf"/>
        </g>
        <path id="Path_48128" data-name="Path 48128" d="M297.505,215.664a8.615,8.615,0,0,0-5.348-.651,4.415,4.415,0,0,0-2.636,1.179,1.9,1.9,0,0,0-.031,2.636,2.533,2.533,0,0,0,1.667.421c1.41,0,2.979-.267,4.1.585.646.487,1.072,1.292,1.846,1.538a1.826,1.826,0,0,0,2-.892,3.077,3.077,0,0,0,.226-2.3A3.492,3.492,0,0,0,297.505,215.664Z" fill="#7e59d1"/>
        <path id="Path_48129" data-name="Path 48129" d="M303.956,210.51a5.169,5.169,0,0,1-.8-4.754,9.154,9.154,0,0,1,2.815-4.1,15.152,15.152,0,0,1,5.041-2.974,5.394,5.394,0,0,1,2.267-.385,2.379,2.379,0,0,1,1.9,1.149c.513,1.026.026,2.241-.513,3.241a37.847,37.847,0,0,1-3.313,5.046,8.777,8.777,0,0,1-3.641,3.118c-1.513.554-3.077.513-3.887-.513" fill="#7e59d1"/>
        <path id="Path_48130" data-name="Path 48130" d="M301.295,229.889a3.645,3.645,0,0,1-.087-.646c-.046-.467-.1-1.056-.174-1.759a25.688,25.688,0,0,0-.395-2.564,20.242,20.242,0,0,0-.938-3.046,11.122,11.122,0,0,0-1.538-2.759,5.523,5.523,0,0,0-3.62-2.154,2.872,2.872,0,0,1-.646-.092,3.413,3.413,0,0,1,.656,0,5.076,5.076,0,0,1,1.728.451,5.805,5.805,0,0,1,2.051,1.651,11.1,11.1,0,0,1,1.61,2.81,18.456,18.456,0,0,1,.933,3.1,22.478,22.478,0,0,1,.344,2.615c.056.744.077,1.349.087,1.769a2.676,2.676,0,0,1-.01.62Z" fill="#263238"/>
        <path id="Path_48131" data-name="Path 48131" d="M301.177,228.535a1.226,1.226,0,0,1,0-.3c0-.226,0-.513,0-.856,0-.744,0-1.82-.041-3.149-.067-2.656-.292-6.318-.733-10.348s-1.026-7.656-1.574-10.256c-.128-.651-.256-1.236-.374-1.754s-.215-.959-.308-1.318-.149-.61-.2-.831a1.235,1.235,0,0,1-.051-.3,1.535,1.535,0,0,1,.1.282l.251.82c.108.359.221.8.349,1.313s.277,1.092.415,1.743a97.881,97.881,0,0,1,1.651,10.256c.446,4.041.641,7.692.661,10.374,0,1.333,0,2.41-.046,3.154,0,.349-.041.631-.051.856a1.734,1.734,0,0,1-.051.308Z" fill="#263238"/>
        <path id="Path_48132" data-name="Path 48132" d="M301.156,221.443a6.246,6.246,0,0,1,0-.892c.036-.574.113-1.405.277-2.42a32.031,32.031,0,0,1,.785-3.533,31.326,31.326,0,0,1,1.477-4.174,22.194,22.194,0,0,1,4.338-6.753,11.085,11.085,0,0,1,1.026-.949c.159-.128.3-.262.436-.364l.4-.277a5.855,5.855,0,0,1,.749-.482,27.981,27.981,0,0,0-2.467,2.205,23.5,23.5,0,0,0-4.225,6.723,33.373,33.373,0,0,0-1.487,4.138c-.385,1.3-.641,2.492-.836,3.5s-.292,1.831-.359,2.4A5.281,5.281,0,0,1,301.156,221.443Z" fill="#263238"/>
      </g>
      <g id="freepik--credit-card--inject-81">
        <path id="Path_48133" data-name="Path 48133" d="M189.732,180.769l-79.37-83.954a2.21,2.21,0,0,1,.087-3.118l52.1-49.248a2.205,2.205,0,0,1,3.118.087l79.364,83.959a2.21,2.21,0,0,1-.087,3.118L192.855,180.84a2.2,2.2,0,0,1-3.123-.072Z" fill="#7e59d1"/>
        <g id="Group_89912" data-name="Group 89912" opacity="0.3">
          <path id="Path_48134" data-name="Path 48134" d="M189.732,180.769l-79.37-83.954a2.21,2.21,0,0,1,.087-3.118l52.1-49.248a2.205,2.205,0,0,1,3.118.087l79.364,83.959a2.21,2.21,0,0,1-.087,3.118L192.855,180.84a2.2,2.2,0,0,1-3.123-.072Z" fill="#d9ccf6"/>
        </g>
        <path id="Path_48135" data-name="Path 48135" d="M244.452,127.88,166.241,45.151a3.046,3.046,0,0,0-4.313-.123l-14.8,13.994a1.215,1.215,0,0,0-.369,1.087c1.482,8.276,7.4,15.676,14.456,20.578,8.523,5.923,18.625,9.046,28.2,13s19.235,9.164,24.993,17.8c5.43,8.158,6.712,18.276,9.476,27.691a54.214,54.214,0,0,0,2.81,7.476,1.226,1.226,0,0,0,1.949.379l15.686-14.83a3.046,3.046,0,0,0,.118-4.328Z" fill="#263238" opacity="0.77"/>
        <path id="Path_48136" data-name="Path 48136" d="M165.088,69.227c-.708.672-1.651.513-2.667-.579l-2-2.118,4.1-3.866,1.887,2c.969,1.026,1.026,1.954.405,2.564a1.349,1.349,0,0,1-1.415.308,1.4,1.4,0,0,1-.313,1.692Zm-.4-4.948-.964.913.882.959c.436.462.836.559,1.159.256s.241-.7-.195-1.164Zm-.405,3.9c.344-.323.262-.744-.205-1.236l-1.026-1.1-1.026.954,1.026,1.108c.482.492.882.61,1.231.3Z" fill="#fff"/>
        <path id="Path_48137" data-name="Path 48137" d="M168.072,72.867l-1.8-1.9-1.22.467-.913-.969,5.815-2.051.882.938-2.359,5.7-.944-.995Zm.436-.979.954-2.128-2.179.831Z" fill="#fff"/>
        <path id="Path_48138" data-name="Path 48138" d="M176.512,75.38l-4.1,3.866-.723-.79.559-4.384-2.487,2.333-.882-.938,4.1-3.866.744.785-.564,4.379,2.487-2.349Z" fill="#fff"/>
        <path id="Path_48139" data-name="Path 48139" d="M176.354,80.164h-1.092l-1.026.979-.913-.949,4.1-3.872.887.944L176.4,79.072h3.625l.995,1.026-3.425.031L177.03,84.1,176,83Z" fill="#fff"/>
        <path id="Path_48140" data-name="Path 48140" d="M147.345,84.549l-.687-.754-1.026.933-.364-.385.99-.933-2.005-2.118.277-.267,4.374-.364.405.431-4.241.374,1.538,1.631.867-.826.354.379-.867.82.708.749Z" fill="#fff"/>
        <path id="Path_48141" data-name="Path 48141" d="M150.047,87.22c-.631.59-1.538.595-2.4-.313a2.692,2.692,0,0,1-.795-1.81l.482-.1A2.251,2.251,0,0,0,148,86.569c.59.626,1.2.692,1.667.251s.446-1.026-.21-1.718l-.256-.267.287-.272,2.287-.19-1.815-1.923.344-.323,2.282,2.415-.272.256-2.343.2A1.493,1.493,0,0,1,150.047,87.22Z" fill="#fff"/>
        <path id="Path_48142" data-name="Path 48142" d="M152.945,90.251c-.641.605-1.538.631-2.426-.287a2.651,2.651,0,0,1-.79-1.805l.482-.1a2.225,2.225,0,0,0,.656,1.538c.6.641,1.231.687,1.687.251s.513-1.026-.4-1.995l-.759-.8,2.051-1.585,1.943,2.051-.344.323-1.605-1.692-1.323,1,.456.513C153.647,88.749,153.606,89.6,152.945,90.251Z" fill="#fff"/>
        <path id="Path_48143" data-name="Path 48143" d="M156.088,93.523a1.605,1.605,0,0,1-2.364-.19c-.944-1-.764-2.195.42-3.318,1.277-1.205,2.6-1.138,3.564-.118a2.343,2.343,0,0,1,.641,1.087l-.461.138a1.754,1.754,0,0,0-.513-.9c-.764-.81-1.774-.841-2.795.123-.087.082-.19.19-.292.308a1.641,1.641,0,0,1,1.728.538A1.559,1.559,0,0,1,156.088,93.523Zm-.369-.369a1.118,1.118,0,0,0-.082-1.708,1.136,1.136,0,1,0-1.6,1.559,1.128,1.128,0,0,0,1.682.149Z" fill="#fff"/>
        <path id="Path_48144" data-name="Path 48144" d="M162.642,102.7l.333-2.01-2.051.215-.405-.431,2.508-.256.364-2.359.41.431-.308,1.892,1.908-.2.395.42-2.374.236-.385,2.5Z" fill="#fff"/>
        <path id="Path_48145" data-name="Path 48145" d="M165.349,105.568l.333-2.015-2.051.215-.41-.431,2.508-.251.369-2.359.405.426-.3,1.892,1.9-.195.4.42-2.379.236-.385,2.5Z" fill="#fff"/>
        <path id="Path_48146" data-name="Path 48146" d="M168.057,108.429l.333-2.01-2.051.215-.405-.431,2.5-.251.369-2.364.405.431-.3,1.892,1.908-.195.395.415-2.379.236-.385,2.5Z" fill="#fff"/>
        <path id="Path_48147" data-name="Path 48147" d="M170.759,111.275l.333-2.01-2.051.215-.405-.431,2.5-.256.369-2.359.405.431-.3,1.892,1.908-.2.395.42-2.379.236-.379,2.5Z" fill="#fff"/>
        <path id="Path_48148" data-name="Path 48148" d="M180.117,121.188l.333-2.01-2.051.215-.405-.431,2.5-.251.369-2.364.405.431-.3,1.892,1.908-.2.395.42-2.379.236-.385,2.5Z" fill="#fff"/>
        <path id="Path_48149" data-name="Path 48149" d="M182.825,124.054l.333-2.015-2.051.215-.405-.426,2.5-.256.369-2.359.405.431-.3,1.892,1.908-.2.395.42-2.379.236-.385,2.5Z" fill="#fff"/>
        <path id="Path_48150" data-name="Path 48150" d="M185.532,126.921l.338-2.015-2.051.215-.405-.431,2.5-.251.369-2.359.405.426-.3,1.892,1.908-.195.395.415-2.379.236-.379,2.5Z" fill="#fff"/>
        <path id="Path_48151" data-name="Path 48151" d="M188.245,129.782l.333-2.01-2.051.215-.405-.431,2.5-.251.369-2.364.41.431-.308,1.892,1.908-.2.395.42-2.379.236-.379,2.5Z" fill="#fff"/>
        <path id="Path_48152" data-name="Path 48152" d="M200.4,135.115l-3.754,3.554-.369-.39,3.415-3.225-.836-.882.344-.328Z" fill="#fff"/>
        <path id="Path_48153" data-name="Path 48153" d="M200.916,141.017c-.626.595-1.538.595-2.4-.313a2.692,2.692,0,0,1-.795-1.81l.482-.1a2.292,2.292,0,0,0,.667,1.579c.59.62,1.205.692,1.672.251s.446-1.026-.215-1.723l-.251-.267.282-.267,2.287-.195-1.815-1.918.344-.328,2.282,2.415-.272.262-2.338.2C201.562,139.658,201.526,140.458,200.916,141.017Z" fill="#fff"/>
        <path id="Path_48154" data-name="Path 48154" d="M204.357,144.848l-.713-.754-.985.933-.369-.385.99-.933-2.005-2.118.282-.267,4.369-.359.405.426-4.241.374,1.538,1.631.867-.82.359.374-.872.82.713.754Z" fill="#fff"/>
        <path id="Path_48155" data-name="Path 48155" d="M206.449,148.355l-.344.323-2.492-2.636.277-.256,3,.113a1.713,1.713,0,0,0,1.405-.369c.436-.415.415-.974-.128-1.538a1.754,1.754,0,0,0-1.39-.626v-.513a2.318,2.318,0,0,1,1.795.82c.718.764.79,1.61.159,2.205a2.253,2.253,0,0,1-1.754.513l-2.467-.087Z" fill="#fff"/>
        <path id="Path_48156" data-name="Path 48156" d="M133.659,87.687a1.359,1.359,0,0,1,2.225,1.133l-.513-.031a.793.793,0,1,0-1.364.436.779.779,0,0,0,.641.246v.513a1.282,1.282,0,0,1-1.026-.441,1.267,1.267,0,0,1,.036-1.856Z" fill="#fff"/>
        <path id="Path_48157" data-name="Path 48157" d="M136.115,91.277l-.79-.831-.513.205-.4-.426,2.564-.9.385.41-1.026,2.5-.446-.446Zm.19-.426.415-.933-.954.364Z" fill="#fff"/>
        <path id="Path_48158" data-name="Path 48158" d="M137.551,93.574l.169-.82h0l-.344-.359-.513.472-.395-.415,1.795-1.692.733.774a.917.917,0,0,1,.082,1.39.8.8,0,0,1-.913.169l-.195.944Zm1.087-1.764-.323-.338-.626.59.323.338c.236.251.477.267.672.087s.19-.426-.046-.7Z" fill="#fff"/>
        <path id="Path_48159" data-name="Path 48159" d="M138.294,94l.446-.154a1.426,1.426,0,0,0,.374.769c.231.246.405.267.513.164.333-.318-.882-1.138-.215-1.769.308-.287.79-.282,1.272.226a1.631,1.631,0,0,1,.431.774l-.436.169a1.4,1.4,0,0,0-.328-.631c-.236-.246-.415-.251-.513-.149-.328.313.882,1.144.226,1.764-.3.282-.79.277-1.277-.236A1.79,1.79,0,0,1,138.294,94Z" fill="#fff"/>
        <path id="Path_48160" data-name="Path 48160" d="M143.832,96.625l-1.795,1.7-.39-.415.733-.7-.769-.815-.733.7-.395-.415,1.795-1.692.39.41-.708.672.769.815.708-.672Z" fill="#fff"/>
        <path id="Path_48161" data-name="Path 48161" d="M143.232,97.789a1.354,1.354,0,1,1,0,1.856,1.282,1.282,0,0,1,0-1.856Zm1.456,1.538a.749.749,0,0,0,.046-1.1.79.79,0,1,0-.046,1.1Z" fill="#fff"/>
        <path id="Path_48162" data-name="Path 48162" d="M146.284,99.22l.39.415-1.456,1.385.851.9-.338.318-1.241-1.313Z" fill="#fff"/>
        <path id="Path_48163" data-name="Path 48163" d="M147.745,100.768l.769.815a1.236,1.236,0,1,1-1.79,1.692l-.769-.815Zm-.7,2.164a.769.769,0,1,0,1.113-1.026l-.359-.379-1.108,1.031Z" fill="#fff"/>
        <path id="Path_48164" data-name="Path 48164" d="M149.6,105.635l-.333.318-1.313-1.39,1.795-1.692,1.277,1.354-.328.313-.892-.938-.39.364.785.836-.323.3-.785-.831-.415.39Z" fill="#fff"/>
        <path id="Path_48165" data-name="Path 48165" d="M150.663,107.44l.169-.815h0l-.344-.359-.513.472-.395-.415,1.795-1.7.733.779a.917.917,0,0,1,.082,1.39.8.8,0,0,1-.913.169l-.195.944Zm1.087-1.764-.323-.338-.62.595.318.338c.241.251.477.267.672.082S151.986,105.932,151.75,105.676Z" fill="#fff"/>
        <path id="Path_48166" data-name="Path 48166" d="M126.485,94.107l.954-.062a1.1,1.1,0,0,0,.226,1c.3.318.656.308,1.026-.051l1.641-1.538-1.149-1.215.641-.605,1.9,2.01-2.241,2.113a1.534,1.534,0,0,1-2.446-.036,1.913,1.913,0,0,1-.554-1.615Z" fill="#fff"/>
        <path id="Path_48167" data-name="Path 48167" d="M129.223,96.984a.657.657,0,1,1-.026.928A.657.657,0,0,1,129.223,96.984Z" fill="#fff"/>
        <path id="Path_48168" data-name="Path 48168" d="M138.422,100.7l-4.523,2.133-.81-.856,1.62-2.969-3.077,1.426-.805-.851,2.379-4.4.785.826L132.3,99.086l3.2-1.482.7.738-1.7,3.1,3.21-1.508Z" fill="#fff"/>
        <path id="Path_48169" data-name="Path 48169" d="M138.746,101.045a.658.658,0,0,1,.918.938.657.657,0,0,1-.918-.938Zm-.713.846.728.769-2.656,2.508-.723-.769Z" fill="#fff"/>
        <path id="Path_48170" data-name="Path 48170" d="M140.443,102.425l.728.769-3.661,3.466-.728-.769Z" fill="#fff"/>
        <path id="Path_48171" data-name="Path 48171" d="M141.843,103.907l.728.769-3.661,3.461-.728-.769Z" fill="#fff"/>
        <path id="Path_48172" data-name="Path 48172" d="M142.95,105.491a.61.61,0,0,1,.882.072.6.6,0,0,1,.036.872.661.661,0,0,1-.918-.944Zm-.713.851.728.769-2.651,2.508-.728-.769Z" fill="#fff"/>
        <path id="Path_48173" data-name="Path 48173" d="M144.72,111.275l-1.538,1.431-.682-.718.333-.313a1.2,1.2,0,0,1-1.133-.462,1.177,1.177,0,0,1-.133-1.749c.462-.431,1.1-.42,1.867.385l.579.615c.333-.313.338-.692-.056-1.108a1.749,1.749,0,0,0-.969-.513l.277-.779a2.8,2.8,0,0,1,1.405.836A1.478,1.478,0,0,1,144.72,111.275Zm-1.4-.128.272-.256-.513-.513c-.338-.364-.579-.349-.759-.185s-.164.467.092.738a.785.785,0,0,0,.908.19Z" fill="#fff"/>
        <path id="Path_48174" data-name="Path 48174" d="M149.622,116.4l-1.538,1.436-.723-.769,1.4-1.323c.426-.405.441-.785.149-1.092a.835.835,0,0,0-1.251.067l-1.328,1.261-.728-.769,1.4-1.323c.431-.41.451-.779.149-1.1a.82.82,0,0,0-1.246.077l-1.3,1.272-.728-.769,2.651-2.508.7.733-.308.292a1.467,1.467,0,0,1,1.133.513,1.364,1.364,0,0,1,.39,1.287,1.646,1.646,0,0,1,1.344.544A1.4,1.4,0,0,1,149.622,116.4Z" fill="#fff"/>
        <path id="Path_48175" data-name="Path 48175" d="M148.755,118.054l.795-.267a2.456,2.456,0,0,0,.615,1.164c.333.354.554.4.7.262.431-.41-1.538-1.595-.467-2.6.513-.472,1.287-.354,2.02.42a3.02,3.02,0,0,1,.733,1.241l-.79.262a2.051,2.051,0,0,0-.513-.954c-.323-.344-.574-.39-.713-.262-.451.431,1.5,1.62.456,2.6-.513.467-1.277.344-2.051-.451a3.1,3.1,0,0,1-.79-1.42Z" fill="#fff"/>
        <path id="Path_48176" data-name="Path 48176" d="M179.394,147.709c1.138-1.077,2.379-1.056,3.184-.21s.754,2.092-.39,3.169-2.374,1.061-3.184.21S178.256,148.786,179.394,147.709Zm2.051,2.154c.785-.738.851-1.323.472-1.723s-.959-.364-1.743.379-.851,1.323-.477,1.718.949.369,1.733-.374Z" fill="#fff"/>
        <path id="Path_48177" data-name="Path 48177" d="M184.6,154.509a1.631,1.631,0,0,1-2.384-.22,2.053,2.053,0,0,1,.251-3.164,2.321,2.321,0,0,1,3.523,0,2.564,2.564,0,0,1,.677,1.19l-.867.256a1.6,1.6,0,0,0-.441-.81,1.261,1.261,0,0,0-1.918-.026,1.641,1.641,0,0,1,1.113.564,1.538,1.538,0,0,1,.046,2.21Zm-.769-.738a.718.718,0,0,0-.041-1.077.744.744,0,0,0-1.082-.108.733.733,0,0,0,.062,1.092.718.718,0,0,0,1.072.092Z" fill="#fff"/>
        <path id="Path_48178" data-name="Path 48178" d="M189.219,153.222l.651.682-6.189,2.769-.646-.687Z" fill="#fff"/>
        <path id="Path_48179" data-name="Path 48179" d="M188.758,159.77l-.651.615-2.477-2.61.513-.487,2.518.144a1.2,1.2,0,0,0,.979-.241c.272-.256.251-.595-.1-.959a1.154,1.154,0,0,0-1.026-.39l-.174-.938a2.21,2.21,0,0,1,1.938.764c.728.774.815,1.656.19,2.251a1.882,1.882,0,0,1-1.636.451l-1.5-.087Z" fill="#fff"/>
        <path id="Path_48180" data-name="Path 48180" d="M192.086,163.139l-.513-.559-.723.682-.738-.779.728-.682-1.759-1.861.538-.513,3.728-.441.795.836-3.507.451.877.928.646-.61.713.754-.646.61.513.564Z" fill="#fff"/>
        <path id="Path_48181" data-name="Path 48181" d="M208.285,120.429a7.423,7.423,0,0,0-1.431-9.4,9.292,9.292,0,0,0-2.723-1.785c-2.5-1.026-5.8-.282-7.118,2.087-1.072,1.933-.641,4.348.113,6.425.785,2.179,2.051,4.4,4.21,5.251a5.723,5.723,0,0,0,6.123-1.538,6.462,6.462,0,0,0,.826-1.036Z" fill="#7e59d1"/>
      </g>
      <g id="freepik--Wallet--inject-81">
        <rect id="Rectangle_32756" data-name="Rectangle 32756" width="149.022" height="108.152" rx="8.943" transform="translate(115.767 121.664)" fill="#7e59d1"/>
        <path id="Path_48182" data-name="Path 48182" d="M264.789,130.608v-.323a7.236,7.236,0,0,0-.092-.959,8.749,8.749,0,0,0-1.313-3.5,9.328,9.328,0,0,0-1.826-2.077,9.046,9.046,0,0,0-2.918-1.6c-.287-.1-.59-.154-.892-.241a7.96,7.96,0,0,0-.949-.149l-.99-.046h-5.528l-53.469.041H125.828a14.158,14.158,0,0,0-2.723.154,8.748,8.748,0,0,0-4.748,2.564,8.6,8.6,0,0,0-1.574,2.261,8.358,8.358,0,0,0-.8,2.651,22.322,22.322,0,0,0-.087,2.82v88.62a8.876,8.876,0,0,0,2.195,5.83,8.718,8.718,0,0,0,5.43,2.928,26.927,26.927,0,0,0,3.159.087H255.1a12.481,12.481,0,0,0,2.4-.159,8.824,8.824,0,0,0,2.251-.759,9.618,9.618,0,0,0,1.026-.585,10.671,10.671,0,0,0,.923-.728,8.753,8.753,0,0,0,2.959-6.092c.051-6.153,0-12.071.031-17.712,0-22.563.036-40.839.046-53.463,0-6.312,0-11.21.026-14.538v0c0,3.328,0,8.2.026,14.538,0,12.625,0,30.89.041,53.463,0,5.641.036,11.553,0,17.722a8.989,8.989,0,0,1-1.456,4.436,9.184,9.184,0,0,1-1.538,1.8,10.248,10.248,0,0,1-.949.744,10.111,10.111,0,0,1-1.026.6,8.841,8.841,0,0,1-2.3.779,12.238,12.238,0,0,1-2.446.164H126.659a26.717,26.717,0,0,1-3.195-.092,8.943,8.943,0,0,1-5.595-3.01,9.148,9.148,0,0,1-2.256-5.984c0-17.225,0-34.034,0-50.253V132.213a22.18,22.18,0,0,1,.092-2.856,8.554,8.554,0,0,1,.826-2.723,8.743,8.743,0,0,1,1.62-2.328,9.491,9.491,0,0,1,2.236-1.7,9.23,9.23,0,0,1,2.646-.923l.692-.108.692-.036c.467-.026.923,0,1.379,0h70.985l53.469.046h5.5l1,.051c.323.056.646.092.954.159a7.217,7.217,0,0,1,.9.246,9.077,9.077,0,0,1,2.938,1.62,9.3,9.3,0,0,1,1.831,2.1,8.718,8.718,0,0,1,1.292,3.528,6.2,6.2,0,0,1,.082.964A2.573,2.573,0,0,1,264.789,130.608Z" fill="#263238"/>
        <path id="Path_48183" data-name="Path 48183" d="M259.569,128.331a8.944,8.944,0,0,1,3.077,0A8.944,8.944,0,0,1,259.569,128.331Z" fill="#263238"/>
        <path id="Path_48184" data-name="Path 48184" d="M247.016,128.331a37,37,0,0,1,6.277,0A37.005,37.005,0,0,1,247.016,128.331Z" fill="#263238"/>
        <path id="Path_48185" data-name="Path 48185" d="M234.468,128.331a36.923,36.923,0,0,1,6.271,0A36.92,36.92,0,0,1,234.468,128.331Z" fill="#263238"/>
        <path id="Path_48186" data-name="Path 48186" d="M221.915,128.331a37,37,0,0,1,6.277,0A37.005,37.005,0,0,1,221.915,128.331Z" fill="#263238"/>
        <path id="Path_48187" data-name="Path 48187" d="M209.367,128.331a36.923,36.923,0,0,1,6.271,0,36.92,36.92,0,0,1-6.271,0Z" fill="#263238"/>
        <path id="Path_48188" data-name="Path 48188" d="M196.814,128.331a37,37,0,0,1,6.277,0A37.005,37.005,0,0,1,196.814,128.331Z" fill="#263238"/>
        <path id="Path_48189" data-name="Path 48189" d="M184.266,128.331a36.923,36.923,0,0,1,6.271,0A36.92,36.92,0,0,1,184.266,128.331Z" fill="#263238"/>
        <path id="Path_48190" data-name="Path 48190" d="M171.713,128.331a37,37,0,0,1,6.277,0A37.005,37.005,0,0,1,171.713,128.331Z" fill="#263238"/>
        <path id="Path_48191" data-name="Path 48191" d="M159.16,128.331a37,37,0,0,1,6.277,0A37.005,37.005,0,0,1,159.16,128.331Z" fill="#263238"/>
        <path id="Path_48192" data-name="Path 48192" d="M146.612,128.331a18.819,18.819,0,0,1,3.123-.133,18.818,18.818,0,0,1,3.138.133,18.179,18.179,0,0,1-3.138.133,18.179,18.179,0,0,1-3.123-.133Z" fill="#263238"/>
        <path id="Path_48193" data-name="Path 48193" d="M134.059,128.331a18.819,18.819,0,0,1,3.138-.133,18.817,18.817,0,0,1,3.138.133,18.179,18.179,0,0,1-3.138.133A18.18,18.18,0,0,1,134.059,128.331Z" fill="#263238"/>
        <path id="Path_48194" data-name="Path 48194" d="M124.71,131.408a17.435,17.435,0,0,1-.133-3.077l.133-.133h1.195l.979.031a3.287,3.287,0,0,1,.9.092,3.148,3.148,0,0,1-.9.1l-.979.026H124.71l.133-.133A18.06,18.06,0,0,1,124.71,131.408Z" fill="#263238"/>
        <path id="Path_48195" data-name="Path 48195" d="M124.71,142.909a15.288,15.288,0,0,1-.133-2.877,15.257,15.257,0,0,1,.133-2.872,15.789,15.789,0,0,1,.133,2.872,15.823,15.823,0,0,1-.133,2.877Z" fill="#263238"/>
        <path id="Path_48196" data-name="Path 48196" d="M124.71,154.411a31.05,31.05,0,0,1,0-5.748,31.051,31.051,0,0,1,0,5.748Z" fill="#263238"/>
        <path id="Path_48197" data-name="Path 48197" d="M124.71,165.913a31.1,31.1,0,0,1,0-5.754,31.1,31.1,0,0,1,0,5.754Z" fill="#263238"/>
        <path id="Path_48198" data-name="Path 48198" d="M124.71,177.425a31.1,31.1,0,0,1,0-5.754,31.1,31.1,0,0,1,0,5.754Z" fill="#263238"/>
        <path id="Path_48199" data-name="Path 48199" d="M124.71,188.912a31.049,31.049,0,0,1,0-5.748,31.051,31.051,0,0,1,0,5.748Z" fill="#263238"/>
        <path id="Path_48200" data-name="Path 48200" d="M124.71,200.414a31.049,31.049,0,0,1,0-5.748,31.051,31.051,0,0,1,0,5.748Z" fill="#263238"/>
        <path id="Path_48201" data-name="Path 48201" d="M124.71,211.915a31.049,31.049,0,0,1,0-5.748,31.051,31.051,0,0,1,0,5.748Z" fill="#263238"/>
        <path id="Path_48202" data-name="Path 48202" d="M127.787,220.746a18.112,18.112,0,0,1-3.077.133c-.267-.267-.077-.077-.133-.138h0v-2.169a2.887,2.887,0,0,1,.1-.9,3.231,3.231,0,0,1,.092.9c0,.318,0,.641.031.979v1.19h0c-.062-.056.133.138-.133-.128a17.5,17.5,0,0,1,3.123.133Z" fill="#263238"/>
        <path id="Path_48203" data-name="Path 48203" d="M140.156,220.746a18.277,18.277,0,0,1-3.077.133,18.276,18.276,0,0,1-3.077-.133,17.654,17.654,0,0,1,3.077-.133,17.656,17.656,0,0,1,3.077.133Z" fill="#263238"/>
        <path id="Path_48204" data-name="Path 48204" d="M152.524,220.746a18.277,18.277,0,0,1-3.077.133,18.276,18.276,0,0,1-3.077-.133,17.654,17.654,0,0,1,3.077-.133A17.656,17.656,0,0,1,152.524,220.746Z" fill="#263238"/>
        <path id="Path_48205" data-name="Path 48205" d="M164.893,220.746a35.922,35.922,0,0,1-6.184,0,35.923,35.923,0,0,1,6.184,0Z" fill="#263238"/>
        <path id="Path_48206" data-name="Path 48206" d="M177.261,220.746a35.922,35.922,0,0,1-6.184,0,35.922,35.922,0,0,1,6.184,0Z" fill="#263238"/>
        <path id="Path_48207" data-name="Path 48207" d="M189.63,220.746a35.922,35.922,0,0,1-6.184,0,35.922,35.922,0,0,1,6.184,0Z" fill="#263238"/>
        <path id="Path_48208" data-name="Path 48208" d="M202,220.746a35.922,35.922,0,0,1-6.184,0,35.923,35.923,0,0,1,6.184,0Z" fill="#263238"/>
        <path id="Path_48209" data-name="Path 48209" d="M214.346,220.746a35.922,35.922,0,0,1-6.184,0,35.922,35.922,0,0,1,6.184,0Z" fill="#263238"/>
        <path id="Path_48210" data-name="Path 48210" d="M226.735,220.746a35.922,35.922,0,0,1-6.184,0,35.922,35.922,0,0,1,6.184,0Z" fill="#263238"/>
        <path id="Path_48211" data-name="Path 48211" d="M239.1,220.746a35.922,35.922,0,0,1-6.184,0,35.922,35.922,0,0,1,6.184,0Z" fill="#263238"/>
        <path id="Path_48212" data-name="Path 48212" d="M251.477,220.746a35.922,35.922,0,0,1-6.184,0,35.922,35.922,0,0,1,6.184,0Z" fill="#263238"/>
        <path id="Path_48213" data-name="Path 48213" d="M260.738,220.746a8.943,8.943,0,0,1-3.077,0,8.943,8.943,0,0,1,3.077,0Z" fill="#263238"/>
        <g id="Group_89913" data-name="Group 89913" opacity="0.3">
          <path id="Path_48214" data-name="Path 48214" d="M167.169,181.651s.031,5.128-1.538,8.2-2.051,4.3-5.333,5.487-44.572,5.728-44.572,5.728V187.137Z"/>
        </g>
        <g id="Group_89914" data-name="Group 89914" opacity="0.3">
          <path id="Path_48215" data-name="Path 48215" d="M166.446,162.318s.472-5.236-12.661-7.179c-15.02-2.22-38.018-4.948-38.018-4.948v9.9Z"/>
        </g>
        <rect id="Rectangle_32757" data-name="Rectangle 32757" width="57.397" height="33.803" rx="7.338" transform="translate(109.793 157.57)" fill="#7e59d1"/>
        <path id="Path_48216" data-name="Path 48216" d="M117.131,191.368H116.7a6.636,6.636,0,0,1-1.277-.174,7.071,7.071,0,0,1-1.954-.759,7.266,7.266,0,0,1-2.159-1.861,7.359,7.359,0,0,1-1.461-3.256,10.681,10.681,0,0,1-.123-2.051v-18.6a7.425,7.425,0,0,1,2.943-5.692,7.251,7.251,0,0,1,3.174-1.395,9.359,9.359,0,0,1,1.774-.123h42.274a7.473,7.473,0,0,1,7.435,6.743c.056.723.036,1.426.041,2.128v16.261c0,.656.026,1.292,0,1.949a7.686,7.686,0,0,1-.118.969,9.648,9.648,0,0,1-.256.933,7.471,7.471,0,0,1-5.42,4.836,8.876,8.876,0,0,1-.9.159c-.3.026-.605.036-.908.046H142L123.8,191.43l-4.948-.026h0l4.948-.026L142,191.337h16a15.2,15.2,0,0,0,3.513-.205,7.235,7.235,0,0,0,5.169-4.707,10.726,10.726,0,0,0,.379-3.774V166.39c0-.7,0-1.415-.036-2.1a7.215,7.215,0,0,0-1.574-3.836,7.96,7.96,0,0,0-1.538-1.431,7.8,7.8,0,0,0-1.923-.918,7.989,7.989,0,0,0-2.118-.318H117.6a9.286,9.286,0,0,0-1.738.118,7.056,7.056,0,0,0-3.077,1.344,7.22,7.22,0,0,0-2.872,5.523c-.026,2.087,0,4.1,0,6.025v12.574a10.831,10.831,0,0,0,.113,2.026,7.333,7.333,0,0,0,5.456,5.846,6.956,6.956,0,0,0,1.267.195Z" fill="#263238"/>
        <circle id="Ellipse_3242" data-name="Ellipse 3242" cx="12.286" cy="12.286" r="12.286" transform="translate(137.612 163.457)" fill="#263238"/>
        <path id="Path_48217" data-name="Path 48217" d="M153.047,185.779a12.994,12.994,0,0,0,2.933-1.538,10.614,10.614,0,0,0,2.482-2.564,9.63,9.63,0,0,0,1.328-8.353,10.435,10.435,0,0,0-1.569-3.2,12.708,12.708,0,0,0-2.308-2.369,1.232,1.232,0,0,1,.2.113,6.155,6.155,0,0,1,.549.385,9.353,9.353,0,0,1,1.713,1.759,10.394,10.394,0,0,1,1.651,3.246,9.656,9.656,0,0,1-1.364,8.564,10.384,10.384,0,0,1-2.564,2.564,9.092,9.092,0,0,1-2.174,1.133,5.432,5.432,0,0,1-.636.2A.646.646,0,0,1,153.047,185.779Z" fill="#fafafa"/>
      </g>
      <g id="freepik--Money--inject-81">
        <path id="Path_48218" data-name="Path 48218" d="M342.246,96.989a22.7,22.7,0,1,1-24.614-20.512,22.7,22.7,0,0,1,24.614,20.512Z" fill="#a58bdf"/>
        <g id="Group_89915" data-name="Group 89915" opacity="0.3">
          <path id="Path_48219" data-name="Path 48219" d="M336.811,96.917a10.821,10.821,0,0,1-.636-2.051,18.46,18.46,0,0,0-2.461-5.1,17.649,17.649,0,0,0-2.564-2.928,17.25,17.25,0,0,0-3.641-2.564,16.075,16.075,0,0,0-2.205-.959,16.716,16.716,0,0,0-2.415-.651,16.965,16.965,0,0,0-2.564-.292,17.949,17.949,0,0,0-2.667.108,19.046,19.046,0,0,0-2.615.513,17.163,17.163,0,0,0-2.431.9,16.835,16.835,0,0,0-4.1,2.666,17.3,17.3,0,0,0-2.933,3.338,17.639,17.639,0,0,0-1.784,3.456,18.229,18.229,0,0,0-1.169,5.538,10.09,10.09,0,0,1-.138,2.128c-.108.015-.292-.733-.379-2.128a16.045,16.045,0,0,1,.8-5.851,17.271,17.271,0,0,1,4.789-7.384,17.552,17.552,0,0,1,6.984-3.928,18.971,18.971,0,0,1,2.82-.579,19.42,19.42,0,0,1,2.877-.113,18.3,18.3,0,0,1,2.779.338A17.722,17.722,0,0,1,328.1,83.18a17.343,17.343,0,0,1,6.415,6.03,15.985,15.985,0,0,1,2.174,5.492A5.535,5.535,0,0,1,336.811,96.917Z"/>
        </g>
        <g id="Group_89916" data-name="Group 89916" opacity="0.3">
          <path id="Path_48220" data-name="Path 48220" d="M322.5,109.111l.313,2.995-2.677.282-.3-2.918a12.777,12.777,0,0,1-6.882-1.446l1.128-3.42a10.856,10.856,0,0,0,5.384,1.359L319,101.5c-3.041-.415-6.461-1.056-6.861-4.887-.3-2.836,1.513-5.482,5.687-6.4l-.308-2.969,2.677-.277.3,2.913a12.235,12.235,0,0,1,5.6,1.067l-.99,3.415a11.04,11.04,0,0,0-4.236-.964l.472,4.548c3.041.385,6.41,1.026,6.8,4.81C328.437,105.548,326.647,108.168,322.5,109.111Zm-3.9-11.548-.4-3.8c-1.379.467-1.861,1.3-1.769,2.184S317.381,97.312,318.6,97.563Zm5.271,5.969c-.1-.938-.928-1.364-2.118-1.646l.385,3.692C323.447,105.148,323.96,104.389,323.873,103.532Z"/>
        </g>
        <path id="Path_48221" data-name="Path 48221" d="M302.413,100.594a.631.631,0,0,1,.036.138,2.729,2.729,0,0,0,.072.405c.031.164.062.405.1.656a7.423,7.423,0,0,0,.179.892,17.5,17.5,0,0,0,4.677,8.441l.81.738c.138.118.267.251.415.369l.456.338c.308.226.61.477.938.687l1.026.62a17.522,17.522,0,0,0,4.692,1.82,17.137,17.137,0,0,0,10.63-.979,17.507,17.507,0,0,0,4.282-2.646l.892-.795c.287-.267.513-.569.795-.846.128-.138.262-.277.385-.415s.231-.3.349-.441c.22-.3.441-.585.661-.872a18.173,18.173,0,0,0,1.861-3.518,17.434,17.434,0,0,0,1.195-5.641,6.819,6.819,0,0,0,0-.908V97.563a.812.812,0,0,1,0-.144.582.582,0,0,1,0,.138,2.116,2.116,0,0,0,.031.41c.031.164,0,.41.036.672a5.831,5.831,0,0,1,0,.913,16.877,16.877,0,0,1-1.123,5.7,17.552,17.552,0,0,1-1.856,3.59l-.641.9c-.118.149-.226.308-.349.451l-.39.426c-.262.282-.513.585-.805.856l-.9.815a17.722,17.722,0,0,1-4.338,2.7,17.3,17.3,0,0,1-10.769.995,17.574,17.574,0,0,1-4.759-1.867l-1.026-.631c-.333-.215-.636-.472-.949-.7l-.456-.349c-.149-.118-.282-.256-.426-.379l-.831-.779a17.978,17.978,0,0,1-2.477-3.179,16.922,16.922,0,0,1-2.143-5.4,6.219,6.219,0,0,1-.154-.9c-.031-.256-.056-.482-.082-.667s-.031-.3-.046-.41a.7.7,0,0,1-.005-.128Z" fill="#263238"/>
        <path id="Path_48222" data-name="Path 48222" d="M310.238,163.913a13.189,13.189,0,1,1-6.153-17.578A13.189,13.189,0,0,1,310.238,163.913Z" fill="#a58bdf"/>
        <g id="Group_89917" data-name="Group 89917" opacity="0.3">
          <path id="Path_48223" data-name="Path 48223" d="M307.566,162.267a5.861,5.861,0,0,1,.287-1.205,10.768,10.768,0,0,0,.292-3.277,10.609,10.609,0,0,0-.405-2.225,10.148,10.148,0,0,0-1.061-2.354,9.791,9.791,0,0,0-4.4-3.831,10.337,10.337,0,0,0-1.461-.513,10.017,10.017,0,0,0-1.482-.272,9.229,9.229,0,0,0-1.451-.051,9.362,9.362,0,0,0-1.39.159,9.855,9.855,0,0,0-2.456.79,10.5,10.5,0,0,0-1.923,1.19,10.707,10.707,0,0,0-2.231,2.42,6.259,6.259,0,0,1-.7,1.026,2.928,2.928,0,0,1,.446-1.174,9.231,9.231,0,0,1,2.154-2.7,9.943,9.943,0,0,1,1.985-1.344,10.228,10.228,0,0,1,7.276-.795,11.332,11.332,0,0,1,1.579.554,10.955,10.955,0,0,1,1.472.8,10.289,10.289,0,0,1,1.282.995,9.4,9.4,0,0,1,1.077,1.144,9.6,9.6,0,0,1,.851,1.231,10.286,10.286,0,0,1,1.072,2.564,10.158,10.158,0,0,1,.333,2.369,9.3,9.3,0,0,1-.549,3.39,3.076,3.076,0,0,1-.59,1.113Z"/>
        </g>
        <g id="Group_89918" data-name="Group 89918" opacity="0.3">
          <path id="Path_48224" data-name="Path 48224" d="M296.8,164.093l-.733,1.585-1.42-.656.718-1.538a7.446,7.446,0,0,1-3-2.774l1.585-1.369a6.328,6.328,0,0,0,2.282,2.287l1.1-2.369c-1.4-1.113-2.913-2.456-1.969-4.482.7-1.5,2.384-2.287,4.743-1.5l.733-1.574,1.415.661-.718,1.538a7.072,7.072,0,0,1,2.477,2.2l-1.538,1.415a6.43,6.43,0,0,0-1.826-1.743l-1.118,2.41c1.4,1.1,2.887,2.425,1.959,4.425C300.823,164.093,299.151,164.847,296.8,164.093Zm1.492-6.928.938-2.01c-.831-.179-1.323.092-1.538.559s.072.954.6,1.441Zm.856,4.554c.226-.513-.056-.959-.569-1.456l-.908,1.959c.774.164,1.287-.062,1.477-.513Z"/>
        </g>
        <path id="Path_48225" data-name="Path 48225" d="M289.311,153.837s-.154.415-.405,1.169a10.082,10.082,0,0,0-.472,3.3,10.481,10.481,0,0,0,.313,2.282,10.826,10.826,0,0,0,.979,2.477,10.255,10.255,0,0,0,1.795,2.292,9.871,9.871,0,0,0,5.564,2.667,10.184,10.184,0,0,0,2.908-.041,9.958,9.958,0,0,0,4.5-1.943,10.256,10.256,0,0,0,2.282-2.436c.426-.667.626-1.067.651-1.051a1.3,1.3,0,0,1-.128.292,8.255,8.255,0,0,1-.436.81,10.016,10.016,0,0,1-6.83,4.584,10.153,10.153,0,0,1-2.984.056,10.065,10.065,0,0,1-5.707-2.733,10.312,10.312,0,0,1-1.826-2.359,10.738,10.738,0,0,1-1.026-2.513,10.478,10.478,0,0,1-.282-2.333,9.616,9.616,0,0,1,.559-3.338,6.7,6.7,0,0,1,.359-.846,1.605,1.605,0,0,1,.185-.338Z" fill="#263238"/>
        <path id="Path_48226" data-name="Path 48226" d="M92.528,162.042a21.537,21.537,0,1,1-24.393-18.158,21.537,21.537,0,0,1,24.393,18.158Z" fill="#a58bdf"/>
        <g id="Group_89919" data-name="Group 89919" opacity="0.3">
          <path id="Path_48227" data-name="Path 48227" d="M87.379,162.257a10.221,10.221,0,0,1-.713-1.887,17.27,17.27,0,0,0-2.595-4.707,17.015,17.015,0,0,0-2.564-2.636,16.292,16.292,0,0,0-3.59-2.215,14.915,14.915,0,0,0-2.138-.79,15.29,15.29,0,0,0-2.323-.513,16.1,16.1,0,0,0-2.451-.144,17.58,17.58,0,0,0-2.518.246,17.167,17.167,0,0,0-2.451.636,16.822,16.822,0,0,0-2.256.979,15.323,15.323,0,0,0-2.01,1.267,15.787,15.787,0,0,0-1.738,1.477,16.307,16.307,0,0,0-4.1,6.666,17.276,17.276,0,0,0-.815,5.312,13.713,13.713,0,0,1,0,2.015,4.657,4.657,0,0,1-.467-1.99,14.973,14.973,0,0,1,.451-5.584,16.471,16.471,0,0,1,1.456-3.631,16.922,16.922,0,0,1,2.687-3.615,16,16,0,0,1,1.836-1.62,16.41,16.41,0,0,1,2.149-1.39,16.924,16.924,0,0,1,7.789-2.026,17.337,17.337,0,0,1,2.646.174,15.788,15.788,0,0,1,2.5.564,16.575,16.575,0,0,1,8.671,6.261,15.317,15.317,0,0,1,2.349,5.092A5.242,5.242,0,0,1,87.379,162.257Z"/>
        </g>
        <g id="Group_89920" data-name="Group 89920" opacity="0.3">
          <path id="Path_48228" data-name="Path 48228" d="M74.467,174.543l.451,2.82-2.518.405-.441-2.749a11.96,11.96,0,0,1-6.594-1.026l.892-3.3a10.255,10.255,0,0,0,5.174,1.026l-.672-4.2c-2.908-.231-6.179-.667-6.759-4.266-.426-2.672,1.149-5.277,5.056-6.364l-.451-2.8,2.523-.4.436,2.743a11.63,11.63,0,0,1,5.364.718l-.764,3.3a10.451,10.451,0,0,0-4.066-.692l.687,4.282c2.9.205,6.123.646,6.692,4.2C79.9,170.856,78.344,173.431,74.467,174.543Zm-4.3-10.733-.574-3.59c-1.287.513-1.7,1.333-1.564,2.164S69,163.636,70.165,163.811Zm5.307,5.379c-.144-.882-.949-1.246-2.092-1.451l.554,3.477c1.215-.456,1.667-1.22,1.538-2.026Z"/>
        </g>
        <path id="Path_48229" data-name="Path 48229" d="M55,167.528a.825.825,0,0,1,.036.128c.026.1.056.226.092.379l.133.615a7.214,7.214,0,0,0,.215.836,16.522,16.522,0,0,0,2.364,4.923,16.922,16.922,0,0,0,2.508,2.82l.805.656c.138.108.272.226.415.328l.451.3c.3.195.6.415.923.6l.995.513a16.722,16.722,0,0,0,4.538,1.482,17.635,17.635,0,0,0,5.128.056,17.814,17.814,0,0,0,4.892-1.538,16.784,16.784,0,0,0,3.913-2.728l.8-.805c.262-.267.477-.564.713-.836l.344-.415c.113-.144.205-.292.3-.436.2-.292.39-.579.585-.861a17.435,17.435,0,0,0,1.579-3.425,16.492,16.492,0,0,0,.836-5.4,5.64,5.64,0,0,0-.036-.861c0-.241-.036-.451-.046-.631a2.491,2.491,0,0,0-.026-.39.441.441,0,0,1,0-.133.421.421,0,0,1,.026.133,3.663,3.663,0,0,0,.051.385c.021.154.046.39.077.631a6.154,6.154,0,0,1,.056.867,15.9,15.9,0,0,1-.759,5.456,16.8,16.8,0,0,1-1.574,3.487l-.579.872c-.1.149-.195.3-.308.446l-.344.42c-.236.282-.456.585-.718.856s-.513.544-.81.815a16.819,16.819,0,0,1-3.969,2.79,16.409,16.409,0,0,1-10.169,1.5,16.875,16.875,0,0,1-4.615-1.538l-1.026-.549c-.328-.185-.626-.41-.933-.61l-.456-.3c-.144-.108-.277-.231-.42-.338l-.81-.667a17.008,17.008,0,0,1-2.513-2.882,16.009,16.009,0,0,1-2.308-5,5.3,5.3,0,0,1-.195-.846c-.041-.241-.077-.446-.113-.626l-.062-.385A.513.513,0,0,1,55,167.528Z" fill="#263238"/>
      </g>
      <g id="freepik--Floor--inject-81">
        <path id="Path_48230" data-name="Path 48230" d="M363.3,229.832c0,.077-76.565.138-170.99.138s-171.01-.062-171.01-.138,76.549-.133,171.01-.133S363.3,229.761,363.3,229.832Z" fill="#263238"/>
      </g>
      <g id="freepik--Character--inject-81">
        <path id="Path_48231" data-name="Path 48231" d="M283.573,133.5a26.977,26.977,0,0,0-.185-3.441l-6.994,1.564a62.08,62.08,0,0,0-.81,6.584l7.892,2.19S283.573,133.7,283.573,133.5Z" fill="#ffbe9d"/>
        <path id="Path_48232" data-name="Path 48232" d="M283.573,139.879a.339.339,0,0,0,.031-.154c.082-.764.036-4.1-.374-4.241s-1.595.1-1.672.538.19,4.195.19,4.195.077.59,1.072.733C283.445,141.017,283.573,139.879,283.573,139.879Z" fill="#ffbe9d"/>
        <path id="Path_48233" data-name="Path 48233" d="M281.583,141.079a.339.339,0,0,0,.031-.154c.082-.764.036-4.1-.374-4.246s-1.595.1-1.672.544.19,4.195.19,4.195.077.59,1.072.733C281.445,142.238,281.583,141.079,281.583,141.079Z" fill="#ffbe9d"/>
        <path id="Path_48234" data-name="Path 48234" d="M279.624,141.674a.615.615,0,0,0,.036-.154c.082-.764.031-4.1-.374-4.241s-1.6.1-1.677.544.19,4.189.19,4.189.077.595,1.072.738C279.47,142.838,279.624,141.674,279.624,141.674Z" fill="#ffbe9d"/>
        <path id="Path_48235" data-name="Path 48235" d="M277.676,142.238a.47.47,0,0,1,.036-.154c.082-.764.031-4.1-.374-4.241s-1.595.1-1.677.538.19,4.195.19,4.195.082.59,1.077.733C277.542,143.4,277.676,142.238,277.676,142.238Z" fill="#ffbe9d"/>
        <path id="Path_48236" data-name="Path 48236" d="M281.552,137a6.538,6.538,0,0,1,.154,1.626,6.152,6.152,0,0,1-.051,1.605,6.539,6.539,0,0,1-.154-1.626,6.153,6.153,0,0,1,.051-1.605Z" fill="#eb996e"/>
        <path id="Path_48237" data-name="Path 48237" d="M279.583,136.987a12.394,12.394,0,0,1,.19,2.308,12.253,12.253,0,0,1-.026,2.318,13.265,13.265,0,0,1-.185-2.308,13.08,13.08,0,0,1,.02-2.318Z" fill="#eb996e"/>
        <g id="Group_89921" data-name="Group 89921" opacity="0.78">
          <path id="Path_48238" data-name="Path 48238" d="M277.588,137.151a13.265,13.265,0,0,1,.185,2.308,13.106,13.106,0,0,1,0,2.318,12.948,12.948,0,0,1-.19-2.308,13.377,13.377,0,0,1,.005-2.318Z" fill="#eb996e"/>
        </g>
        <path id="Path_48239" data-name="Path 48239" d="M276.332,131.787s-2.774,6.307-2.369,6.7a9.3,9.3,0,0,0,1.708.99Z" fill="#ffbe9d"/>
        <path id="Path_48240" data-name="Path 48240" d="M261.01,47.218l-2.051,23.588-11.794-.944c-.077-1.379.026-6.718.026-6.718s-4.918-.764-4.979-5.677c-.026-2.384.313-7.318.672-11.763a9.1,9.1,0,0,1,9.594-8.348h0a9.1,9.1,0,0,1,8.533,9.861Z" fill="#ffbe9d"/>
        <path id="Path_48241" data-name="Path 48241" d="M247.165,63.073a11.415,11.415,0,0,0,6.4-1.826s-1.538,3.538-6.415,3.077Z" fill="#eb996e"/>
        <path id="Path_48242" data-name="Path 48242" d="M244.165,49.151a.708.708,0,0,0,.677.708.667.667,0,0,0,.723-.631.7.7,0,0,0-.672-.713.677.677,0,0,0-.728.636Z" fill="#263238"/>
        <path id="Path_48243" data-name="Path 48243" d="M243.908,48.2c.087.092.62-.3,1.374-.3s1.308.379,1.39.287-.046-.205-.287-.385a1.969,1.969,0,0,0-1.118-.344,1.9,1.9,0,0,0-1.092.354C243.944,47.977,243.867,48.141,243.908,48.2Z" fill="#263238"/>
        <path id="Path_48244" data-name="Path 48244" d="M251.6,49.151a.708.708,0,0,0,.692.708.667.667,0,0,0,.708-.631.7.7,0,0,0-.672-.713.677.677,0,0,0-.728.636Z" fill="#263238"/>
        <path id="Path_48245" data-name="Path 48245" d="M251.328,48.325c.087.092.62-.3,1.374-.3s1.313.379,1.395.287-.051-.205-.292-.379a1.933,1.933,0,0,0-1.113-.344,1.805,1.805,0,0,0-1.092.354C251.37,48.12,251.267,48.284,251.328,48.325Z" fill="#263238"/>
        <path id="Path_48246" data-name="Path 48246" d="M248.59,53.925a5.128,5.128,0,0,0-1.226-.22c-.195,0-.374-.062-.41-.19a1,1,0,0,1,.128-.574l.574-1.467a24.942,24.942,0,0,0,1.277-3.841,24.73,24.73,0,0,0-1.585,3.728c-.19.513-.374,1.026-.549,1.477a1.133,1.133,0,0,0-.1.759.513.513,0,0,0,.318.282,1.677,1.677,0,0,0,.328.046,4.964,4.964,0,0,0,1.241,0Z" fill="#263238"/>
        <path id="Path_48247" data-name="Path 48247" d="M250.811,54.448c-.123,0-.123.81-.826,1.395a3.977,3.977,0,0,1-1.579.605c-.005.092.195.159.564.169a2.051,2.051,0,0,0,1.318-.462,1.749,1.749,0,0,0,.641-1.169C250.959,54.643,250.867,54.443,250.811,54.448Z" fill="#263238"/>
        <path id="Path_48248" data-name="Path 48248" d="M251.134,45.367c.077.205.831.108,1.718.215s1.6.349,1.718.164c.051-.092-.072-.282-.359-.482a3,3,0,0,0-2.615-.287C251.267,45.125,251.1,45.269,251.134,45.367Z" fill="#263238"/>
        <path id="Path_48249" data-name="Path 48249" d="M244.185,46c.133.174.651,0,1.277,0s1.159.118,1.282-.062c.051-.087-.031-.262-.262-.42a1.856,1.856,0,0,0-2.051.062C244.2,45.736,244.129,45.915,244.185,46Z" fill="#263238"/>
        <path id="Path_48250" data-name="Path 48250" d="M262.036,44.182c-.282,2.384-.933,5.4-1.123,7.846a1.221,1.221,0,0,1-.174.646c-.349.462-1.185,1.467-1.61,1.067-1.026-.964-1.436-3.661-1.646-5.061s-.169-2.825-.359-4.231v-.1a3.872,3.872,0,0,0-1.431-2.492,2.462,2.462,0,0,0-.574-.3c-1.446-.513-3.851.431-5.292.954-.738.272-1.461.605-2.179.933a5.087,5.087,0,0,1-5.071-.426c-.877-.636-.954-2.641-.569-3.907,1.026-3.42,5.338-4.615,10.861-3.292S262.6,39.269,262.036,44.182Z" fill="#263238"/>
        <path id="Path_48251" data-name="Path 48251" d="M259.328,49.443c.082-.036,3.374-1.026,3.266,2.359s-3.456,2.564-3.461,2.467S259.328,49.443,259.328,49.443Z" fill="#ffbe9d"/>
        <path id="Path_48252" data-name="Path 48252" d="M260.2,53.028a1.376,1.376,0,0,0,.154.092.579.579,0,0,0,.436,0,1.446,1.446,0,0,0,.713-1.277,1.959,1.959,0,0,0-.138-.846.667.667,0,0,0-.426-.462.3.3,0,0,0-.349.149c-.051.092-.031.159-.051.164s-.067-.056-.036-.195a.359.359,0,0,1,.138-.205.456.456,0,0,1,.328-.077.826.826,0,0,1,.595.544,2,2,0,0,1,.169.938,1.538,1.538,0,0,1-.9,1.426.6.6,0,0,1-.513-.108C260.2,53.11,260.19,53.033,260.2,53.028Z" fill="#eb996e"/>
        <path id="Path_48253" data-name="Path 48253" d="M261.984,44.408a5.169,5.169,0,0,1-4.825.087,14.4,14.4,0,0,0,2.42.287,14.7,14.7,0,0,0,2.4-.374Z" fill="#455a64"/>
        <path id="Path_48254" data-name="Path 48254" d="M261.866,45.372a3.948,3.948,0,0,1-2.3.641,4,4,0,0,1-2.328-.554,14.419,14.419,0,0,0,2.323.282A13.845,13.845,0,0,0,261.866,45.372Z" fill="#455a64"/>
        <path id="Path_48255" data-name="Path 48255" d="M238.488,212.731l2.184,10.056s-9.487,5.595-9.261,7.492l19.64-3.533-2.759-15.8Z" fill="#263238"/>
        <path id="Path_48256" data-name="Path 48256" d="M251.052,226.745l-.338-1.585-18.707,3.979s-.805.513-.595,1.138Z" fill="#455a64"/>
        <path id="Path_48257" data-name="Path 48257" d="M260.831,213.833l.323,10.281s-10.343,3.784-10.466,5.687l19.958.087.154-16.04Z" fill="#263238"/>
        <g id="Group_89922" data-name="Group 89922" opacity="0.6">
          <path id="Path_48258" data-name="Path 48258" d="M270.645,229.894l-.046-1.615-19.117.513s-.892.379-.795,1.026Z" fill="#455a64"/>
        </g>
        <path id="Path_48259" data-name="Path 48259" d="M237.422,221.356s-10.256-50.187-10.256-51.192l18.286-9.661,7.076,58.894Z" fill="#263238"/>
        <path id="Path_48260" data-name="Path 48260" d="M260.425,223.064,246.3,136.058V117.3l19.3,1.795c.246.728,6.564,104.06,6.564,104.06l-1.99-.113h-9.743" fill="#263238"/>
        <path id="Path_48261" data-name="Path 48261" d="M235.186,115.967l-8.01,54.2,17.912-4.343,7.3-48.089Z" fill="#263238"/>
        <path id="Path_48262" data-name="Path 48262" d="M251.78,120.562v.267c0,.174.046.446.082.779.082.692.195,1.7.344,2.984.3,2.595.764,6.343,1.369,10.974,1.195,9.256,3,22.05,4.954,36.136.974,7.056,1.867,13.784,2.625,19.906.2,1.538.354,3.031.569,4.477s.436,2.851.646,4.2c.41,2.713.795,5.241,1.144,7.548.692,4.615,1.241,8.353,1.6,10.938.179,1.292.313,2.3.39,2.979.041.344.067.6.077.779a1.357,1.357,0,0,1,0,.195c0,.056-.031,0-.031,0h.036a.717.717,0,0,0,0-.2,4.947,4.947,0,0,0-.051-.779c-.062-.682-.179-1.692-.344-2.984-.333-2.59-.851-6.333-1.538-10.953-.344-2.308-.718-4.836-1.118-7.553-.205-1.354-.415-2.759-.631-4.2s-.364-2.943-.559-4.472c-.749-6.128-1.636-12.856-2.6-19.917-1.949-14.107-3.79-26.87-5.03-36.126l-1.415-10.933c-.164-1.287-.3-2.287-.385-2.979l-.108-.774C251.78,120.654,251.78,120.562,251.78,120.562Z" fill="#455a64"/>
        <path id="Path_48263" data-name="Path 48263" d="M241.011,220.889a1.39,1.39,0,0,0-.036-.256c-.036-.169-.072-.431-.123-.754-.113-.667-.277-1.641-.513-2.887l-1.861-10.61L232.253,171.4a8,8,0,0,1-.149-2.538c.1-.836.246-1.687.369-2.518q.385-2.508.764-4.933c.513-3.231,1.026-6.348,1.5-9.312.99-5.928,1.938-11.281,2.79-15.727s1.6-8.066,2.169-10.543c.267-1.246.513-2.2.662-2.856.077-.318.133-.564.174-.738a1.755,1.755,0,0,0,.046-.256.74.74,0,0,1-.072.251,6.645,6.645,0,0,0-.195.733c-.169.651-.426,1.605-.708,2.841-.6,2.477-1.374,6.071-2.246,10.538s-1.846,9.789-2.841,15.722c-.513,2.964-1.026,6.082-1.538,9.312q-.379,2.426-.764,4.933c-.128.836-.267,1.667-.374,2.528a8.43,8.43,0,0,0,.154,2.61c2.456,13.65,4.682,26.009,6.3,34.967.815,4.466,1.477,8.087,1.938,10.594.231,1.246.41,2.215.538,2.882.062.318.108.569.144.749A.586.586,0,0,0,241.011,220.889Z" fill="#455a64"/>
        <path id="Path_48264" data-name="Path 48264" d="M246.3,135.443c-.072,0,.764,5.641,1.861,12.548s2.051,12.522,2.108,12.512-.769-5.641-1.867-12.548S246.365,135.433,246.3,135.443Z" fill="#455a64"/>
        <path id="Path_48265" data-name="Path 48265" d="M260.256,222.879a1.564,1.564,0,0,0,.467.082c.3.036.733.077,1.267.118,1.077.087,2.564.164,4.2.19s3.133,0,4.21-.051c.513,0,.969-.051,1.272-.077a2,2,0,0,0,.467-.062,13.805,13.805,0,0,0-1.743-.036h-4.2c-1.636,0-3.123-.077-4.2-.118a14.277,14.277,0,0,0-1.743-.046Z" fill="#455a64"/>
        <path id="Path_48266" data-name="Path 48266" d="M237.422,221.356a2.937,2.937,0,0,0,.6-.031l1.62-.174c1.374-.154,3.261-.39,5.348-.656s3.974-.513,5.338-.728l1.615-.246a3.435,3.435,0,0,0,.59-.123,3.118,3.118,0,0,0-.6,0c-.385.036-.944.092-1.626.169-1.369.154-3.261.385-5.348.656s-3.974.513-5.338.733l-1.615.246A2.842,2.842,0,0,0,237.422,221.356Z" fill="#455a64"/>
        <path id="Path_48267" data-name="Path 48267" d="M210.521,83.933,222.038,92.7S232.755,74.411,233.7,73.273a13.486,13.486,0,0,1,3.354-2.349l-1.323,23.429s-5.8,14.8-13.758,13.994c-6.092-.615-16.625-16.691-16.625-16.691Z" fill="#455a64"/>
        <g id="Group_89923" data-name="Group 89923" opacity="0.2">
          <path id="Path_48268" data-name="Path 48268" d="M221.828,92.42a10.123,10.123,0,0,0-1.164,8.43,1.256,1.256,0,0,0,.467.744.918.918,0,0,0,1.154-.385,2.667,2.667,0,0,0,.3-1.3,2.954,2.954,0,0,0,.851,1.113,1.026,1.026,0,0,0,1.3-.046c.379-.42.169-1.087-.062-1.61q-1.467-3.333-2.943-6.666"/>
        </g>
        <path id="Path_48269" data-name="Path 48269" d="M213.418,86.559a42.314,42.314,0,0,1-2.641,4.42,43.814,43.814,0,0,1-2.9,4.251,39.858,39.858,0,0,1,2.636-4.42A46.2,46.2,0,0,1,213.418,86.559Z" fill="#263238"/>
        <path id="Path_48270" data-name="Path 48270" d="M210.485,86.236c-.031,0,.118-.179.379-.077a.51.51,0,1,1-.687.359c.067-.272.277-.308.282-.267a.9.9,0,0,0-.062.292c.01.164.144.338.354.231a.236.236,0,0,0,0-.42C210.634,86.251,210.505,86.277,210.485,86.236Z" fill="#263238"/>
        <path id="Path_48271" data-name="Path 48271" d="M222.038,98.251a6.359,6.359,0,0,1-.513-2.764,6.289,6.289,0,0,1,.441-2.779c.077.026-.159,1.246-.128,2.774S222.146,98.225,222.038,98.251Z" fill="#263238"/>
        <path id="Path_48272" data-name="Path 48272" d="M224.289,98.168a9.021,9.021,0,0,1-1.477-2.59,9.389,9.389,0,0,1-.872-2.851c.087-.026.513,1.231,1.159,2.728S224.366,98.122,224.289,98.168Z" fill="#263238"/>
        <path id="Path_48273" data-name="Path 48273" d="M261.174,68.714l-1.743-3.446h-12.6l-1.984,3.913-7.784,1.764-3.354,50.2a3.477,3.477,0,0,0,.446,1.82h0l30.608,1.133,1.246.513c1.1-.677.415-3.477.426-4.789l.395-24.86,6.056-19.865Z" fill="#455a64"/>
        <g id="Group_89924" data-name="Group 89924" opacity="0.2">
          <path id="Path_48274" data-name="Path 48274" d="M248.113,70.437l2.226-2.231q1.251,3.025,2.5,6.036a62.971,62.971,0,0,0,8.2-5.738l-8.476,2.723q-1.077-2.856-2.149-5.7a21.82,21.82,0,0,1-2.133,4.938"/>
        </g>
        <path id="Path_48275" data-name="Path 48275" d="M283.629,131.638l-8.251.426V108.388l-8.533-13.409L272.9,75.113c1.246.513,10.646,24.1,13.04,30.5a7.22,7.22,0,0,1,.446,2.892Z" fill="#455a64"/>
        <path id="Path_48276" data-name="Path 48276" d="M237.063,81.282c.087,0-.323,4.866-.913,10.84s-1.138,10.825-1.226,10.815.323-4.861.918-10.846S236.981,81.277,237.063,81.282Z" fill="#263238"/>
        <path id="Path_48277" data-name="Path 48277" d="M250.405,65.54a30.626,30.626,0,0,1-1.5,4.036l-.169.405a.969.969,0,0,1-.272.421.513.513,0,0,1-.549.031,3.856,3.856,0,0,1-.349-.215l-1.133-.769a5.031,5.031,0,0,1-1-.774,5.128,5.128,0,0,1,1.118.59l1.169.708c.226.144.451.308.554.19a2.564,2.564,0,0,0,.344-.7A29.206,29.206,0,0,1,250.405,65.54Z" fill="#263238"/>
        <path id="Path_48278" data-name="Path 48278" d="M260.425,68.616a13.965,13.965,0,0,1-1.923.774c-1.205.441-2.872,1.026-4.718,1.661l-1.026.344-.138.046-.051-.133c-.651-1.574-1.215-2.964-1.6-3.969a10.769,10.769,0,0,1-.574-1.631,9.843,9.843,0,0,1,.759,1.538c.441.979,1.026,2.359,1.7,3.928l-.19-.087,1.026-.349c1.851-.631,3.528-1.185,4.748-1.574a12.863,12.863,0,0,1,1.99-.549Z" fill="#263238"/>
        <path id="Path_48279" data-name="Path 48279" d="M271.589,75.821c0,.092-1.749.574-3.8,1.492s-3.59,1.908-3.661,1.831a4,4,0,0,1,.964-.733,19.691,19.691,0,0,1,5.313-2.364,4.128,4.128,0,0,1,1.19-.226Z" fill="#263238"/>
        <path id="Path_48280" data-name="Path 48280" d="M250.405,65.54a.57.57,0,0,1,0,.149c0,.118,0,.262,0,.441,0,.39.036.959.041,1.7,0,1.472,0,3.59-.1,6.236-.185,5.266-.846,12.522-1.892,20.486-.513,3.99-1.077,7.774-1.456,11.23a73.33,73.33,0,0,0-.513,9.23,47.523,47.523,0,0,0,.513,6.2c.092.733.21,1.292.267,1.672.026.179.046.323.062.441a.544.544,0,0,1,0,.149.559.559,0,0,1-.046-.144c-.026-.118-.056-.256-.1-.431-.072-.379-.21-.938-.318-1.667a42.336,42.336,0,0,1-.59-6.215,69.906,69.906,0,0,1,.431-9.23c.364-3.466.923-7.256,1.431-11.235,1.026-7.964,1.743-15.2,1.984-20.46.133-2.625.174-4.754.195-6.225V65.724a.569.569,0,0,1,.087-.185Z" fill="#263238"/>
        <path id="Path_48281" data-name="Path 48281" d="M284.086,128.013a60.981,60.981,0,0,1-8.728-.426,30.366,30.366,0,0,1,4.369.056,31.4,31.4,0,0,1,4.359.369Z" fill="#263238"/>
        <path id="Path_48282" data-name="Path 48282" d="M276.758,128.936v.226a.14.14,0,0,0,.241.087c.108-.087.072-.185-.031-.256s-.185-.041-.215-.072.056-.169.277-.138a.385.385,0,0,1,.3.236.405.405,0,0,1-.139.472.41.41,0,0,1-.513.036.4.4,0,0,1-.169-.344C276.578,128.956,276.742,128.9,276.758,128.936Z" fill="#263238"/>
        <g id="Group_89925" data-name="Group 89925" opacity="0.2">
          <path id="Path_48283" data-name="Path 48283" d="M266.948,94.912l-2.687-4.856a66.77,66.77,0,0,0,1.774,25.609l.831-20.645"/>
        </g>
        <path id="Path_48284" data-name="Path 48284" d="M253.318,85.99a2.728,2.728,0,0,1,.513-.031l1.431-.036c1.246-.026,3.046-.056,5.21-.067h.144V86c-.138,1.9-.3,4.1-.472,6.43v.087l-.077.041-.323.169-3.482,1.831-.087.046-.077-.062L252.805,91.9l-.051-.041v-.067c.154-1.738.277-3.19.369-4.261.046-.462.087-.846.118-1.154a1.913,1.913,0,0,1,.056-.385,2.963,2.963,0,0,1,0,.441c0,.313-.031.708-.051,1.185-.056,1.026-.138,2.482-.236,4.189l-.046-.108,3.266,2.61h-.164l3.477-1.841.318-.169-.082.123c.19-2.338.364-4.528.513-6.425l.138.149c-2.108,0-3.872-.041-5.128-.067l-1.467-.036A4.612,4.612,0,0,1,253.318,85.99Z" fill="#263238"/>
        <path id="Path_48285" data-name="Path 48285" d="M238.165,123.193c0,.082-.646-.031-1.061-.651s-.287-1.256-.205-1.226a6.991,6.991,0,0,0,.467,1.026C237.724,122.854,238.191,123.105,238.165,123.193Z" fill="#263238"/>
        <path id="Path_48286" data-name="Path 48286" d="M238.96,122.859a2.836,2.836,0,0,1-.779-3.077c.092,0,0,.738.221,1.585S239.032,122.8,238.96,122.859Z" fill="#263238"/>
        <path id="Path_48287" data-name="Path 48287" d="M262.066,119.408a4.194,4.194,0,0,1-.482,2.528,4.264,4.264,0,0,1-1.641,1.979A14.919,14.919,0,0,0,261.3,121.8,23.772,23.772,0,0,0,262.066,119.408Z" fill="#263238"/>
        <path id="Path_48288" data-name="Path 48288" d="M209.875,84.892s-9.323-7.061-10.625-7.533c-2.169-.785-2.692-.574-2.692-.574l5.128,5.507s-5.4,1.82-5.795,2.051-.579,1.405.733,1.405c1.082,0,6.266.123,6.266.123l4.272,3.118Z" fill="#ffbe9d"/>
      </g>
      <g id="freepik--speech-bubble--inject-81">
        <path id="Path_48289" data-name="Path 48289" d="M292.362,24.055a1.267,1.267,0,0,1,.308,0l.9.026h.667l.795.113.933.133,1.026.262a16.84,16.84,0,0,1,5.041,2.215,17.763,17.763,0,0,1,8.2,13.368,18.289,18.289,0,0,1,.051,2.436,10.244,10.244,0,0,1-.082,1.246c-.082.415-.128.831-.19,1.256a17.83,17.83,0,0,1-1.692,4.954,19.163,19.163,0,0,1-3.241,4.461,18.738,18.738,0,0,1-4.666,3.349,16.968,16.968,0,0,1-5.687,1.749,11.433,11.433,0,0,1-1.538.128,13.887,13.887,0,0,1-1.538,0,18.429,18.429,0,0,1-3.077-.385,17.948,17.948,0,0,1-6.112-2.564h.185l-6.23,2.5-.369.149.108-.385c.626-2.287,1.241-4.507,1.831-6.666l.031.164a17.881,17.881,0,0,1-3.323-7.61,16.234,16.234,0,0,1-.241-3.9,12.58,12.58,0,0,1,.174-1.877c.046-.3.1-.605.144-.908s.144-.59.215-.882a17.835,17.835,0,0,1,6.948-10.133,17.154,17.154,0,0,1,4.143-2.133c.323-.118.631-.231.933-.333l.882-.226.81-.2c.256-.051.513-.077.744-.113.472-.062.887-.144,1.246-.159l.918-.031h.559a.785.785,0,0,1,.19,0,1.481,1.481,0,0,1-.19.026l-.559.041-.908.062c-.359.031-.769.118-1.236.19a17.707,17.707,0,0,0-14.163,13.138c-.067.287-.159.574-.21.867s-.087.595-.133.9a11.366,11.366,0,0,0-.164,1.836,15.846,15.846,0,0,0,.251,3.82,17.548,17.548,0,0,0,3.277,7.446l.056.077v.087q-.877,3.231-1.815,6.666l-.262-.231,6.225-2.508.1-.041.087.056a17.538,17.538,0,0,0,5.979,2.518,18.116,18.116,0,0,0,3,.379,13.331,13.331,0,0,0,1.5-.031,10.194,10.194,0,0,0,1.482-.123,16.5,16.5,0,0,0,5.564-1.7,18.349,18.349,0,0,0,4.569-3.272,18.761,18.761,0,0,0,3.179-4.354,17.482,17.482,0,0,0,1.677-4.851c.062-.415.128-.826.19-1.231s.051-.815.082-1.22a17.413,17.413,0,0,0-7.994-15.6,16.88,16.88,0,0,0-4.954-2.236l-1.026-.272-.918-.154-.79-.128c-.241-.026-.467-.031-.661-.051l-.933-.067a2.826,2.826,0,0,1-.3-.046Z" fill="#263238"/>
        <path id="Path_48290" data-name="Path 48290" d="M298.213,46.151a1.185,1.185,0,0,1-.21,0H297.4l-2.246.036-7.523.067h-.062v-.062c-.062-.395-.123-.82-.185-1.246-.513-3.646-.985-6.9-1.287-9.025l.041.036h-2.7a.847.847,0,0,1,.185,0h.513l2-.062h.041v.036c.318,2.128.8,5.379,1.344,9.02L287.7,46.2l-.072-.062h7.523l2.267.015h.61a.989.989,0,0,1,.185,0Z" fill="#7e59d1"/>
        <path id="Path_48291" data-name="Path 48291" d="M287.788,46.356h-.251L287.5,46.1h0v-.062l-.149-1.026-1.308-8.964H283.6c-.215,0-.251,0-.251-.072v-.026h0l.231-.036h.513l1.882-.026v-.051l.051.046h.174v.092a.449.449,0,0,0,0,.082l.051.046H286.2c.318,2.128.79,5.323,1.323,8.892l.164,1.133h10.256c.241,0,.272,0,.272.077s0,.072-.272.077h-.605l-2.241.031-7.369.067Zm0-.154Zm-.687-3.641.513,3.507h0l-.164-1.113C287.331,44.141,287.214,43.341,287.1,42.562Z" fill="#7e59d1"/>
        <path id="Path_48292" data-name="Path 48292" d="M287.311,44.018h.815l2.261-.036,7.81-.072-.067.056c.226-1.313.467-2.738.718-4.21.128-.754.256-1.5.374-2.21l.072.082-9.2.031h-2.707l2.723-.036,9.2-.077h.082v.082c-.118.708-.246,1.451-.374,2.21-.251,1.472-.513,2.892-.723,4.21v.056H287.352Z" fill="#7e59d1"/>
        <path id="Path_48293" data-name="Path 48293" d="M290.388,44.1h-3.025c-.056,0-.118,0-.118-.072s.062-.067.118-.072h.759l2.267-.031,7.692-.072.7-4.1c.123-.7.241-1.39.354-2.051l-9.046.031h-3.651c-.067,0-.128,0-.128-.072s.062-.067.128-.072h.923l2.728-.041,9.092-.077h.292l-.041.246h0L298.4,43.869h0l-.041.246h-.251Zm7.692-.154h0Zm1.2-6.282c-.113.667-.231,1.364-.354,2.051l-.692,4.1h0l1.026-6.153Zm-.108-.138h0Z" fill="#7e59d1"/>
        <path id="Path_48294" data-name="Path 48294" d="M290.29,49.064a.779.779,0,0,0-.062-.251,1.02,1.02,0,0,0-1.338-.672,1,1,0,0,0-.641.933,1,1,0,0,0,1.6.795,1.072,1.072,0,0,0,.385-.554c.046-.154.046-.251.056-.251a.513.513,0,0,1,0,.267,1.056,1.056,0,0,1-.374.615,1.118,1.118,0,1,1-1.067-1.928,1.091,1.091,0,0,1,1.441.779C290.316,48.971,290.3,49.064,290.29,49.064Z" fill="#7e59d1"/>
        <path id="Path_48295" data-name="Path 48295" d="M289.213,50.253a1.118,1.118,0,0,1-.379-.067,1.181,1.181,0,1,1,1.1-2.051,1.1,1.1,0,0,1,.405.651.739.739,0,0,1,0,.277.836.836,0,0,1,0,.277,1.113,1.113,0,0,1-.4.656,1.185,1.185,0,0,1-.728.256Zm-.22-2.215-.133.041a1.056,1.056,0,0,0,0,1.99l.133.036-.128-.041a1.056,1.056,0,0,1,0-1.984Zm.246.1a.888.888,0,0,0-.333.062.932.932,0,1,0,.9,1.615,1.025,1.025,0,0,0,.364-.513,1.072,1.072,0,0,0,.041-.19s0-.031,0-.046a.1.1,0,0,1,0-.041,1.09,1.09,0,0,0-.046-.19.979.979,0,0,0-.364-.513.944.944,0,0,0-.554-.185Z" fill="#7e59d1"/>
        <path id="Path_48296" data-name="Path 48296" d="M297.1,49.023a.778.778,0,0,0-.062-.251,1.012,1.012,0,1,0-.379,1.056,1.062,1.062,0,0,0,.385-.549c.046-.159.046-.256.056-.256a.569.569,0,0,1,0,.267,1.026,1.026,0,0,1-.374.62,1.118,1.118,0,1,1,0-1.764,1.077,1.077,0,0,1,.385.615.512.512,0,0,1-.01.262Z" fill="#7e59d1"/>
        <path id="Path_48297" data-name="Path 48297" d="M296.028,50.212a1.159,1.159,0,0,1-.385-.062,1.185,1.185,0,1,1,1.108-2.051,1.133,1.133,0,0,1,.405.651.739.739,0,0,1,0,.277.836.836,0,0,1,0,.277,1.149,1.149,0,0,1-1.133.913ZM295.8,48l-.123.036a1.056,1.056,0,0,0,0,1.99l.149.041-.144-.041a1.061,1.061,0,0,1,0-1.99Zm.256.1a.867.867,0,0,0-.333.062.933.933,0,1,0,.9,1.615,1.026,1.026,0,0,0,.364-.513,1.926,1.926,0,0,0,.041-.19.148.148,0,0,1,0-.046.1.1,0,0,1,0-.041.355.355,0,0,0-.046-.19.98.98,0,0,0-.364-.513.954.954,0,0,0-.559-.185Z" fill="#7e59d1"/>
      </g>
    </g>
  </g>
</svg>
