<svg xmlns="http://www.w3.org/2000/svg" width="18.417" height="21" viewBox="0 0 18.417 21">
  <g id="Group_15955" data-name="Group 15955" transform="translate(-1174 -573.001)">
    <path id="Path_27381" data-name="Path 27381" d="M15.812,189.25c-.962-1.1-2.75-1.65-5.225-1.65H3.712a1.18,1.18,0,0,0-.962.825L0,206.438a.629.629,0,0,0,.55.688H4.812l1.1-6.738v.275a1.18,1.18,0,0,1,.962-.825H8.937c3.987,0,7.012-1.65,7.975-6.188v-.412h0a4.8,4.8,0,0,0-1.1-3.988" transform="translate(1174 385.401)" fill="#263b80"/>
    <path id="Path_27382" data-name="Path 27382" d="M37.975,220.4h0v.413C37.012,225.488,33.987,227,30,227H27.937a1.179,1.179,0,0,0-.962.825L25.6,236.213a.5.5,0,0,0,.55.55h3.575a.77.77,0,0,0,.825-.687v-.138l.687-4.263V231.4a.77.77,0,0,1,.825-.687h.55c3.437,0,6.187-1.375,6.875-5.5a5.055,5.055,0,0,0-.687-4.125,1.408,1.408,0,0,0-.825-.687" transform="translate(1152.801 357.238)" fill="#139ad6"/>
  </g>
</svg>
