<svg id="Group_3694" data-name="Group 3694" xmlns="http://www.w3.org/2000/svg" xmlns:xlink="http://www.w3.org/1999/xlink" width="58" height="57" viewBox="0 0 58 57">
  <defs>
    <clipPath id="points">
      <rect id="Rectangle_2657" data-name="Rectangle 2657" width="26" height="20" transform="translate(0 -0.464)" fill="#f49263" stroke="#707070" stroke-width="1"/>
    </clipPath>
  </defs>
  <g id="Path_8256" data-name="Path 8256" fill="rgba(244,146,99,0.08)">
    <path d="M 29 56.75 C 25.11812973022461 56.75 21.3525390625 56.00291061401367 17.8078498840332 54.52947998046875 C 14.38422966003418 53.10638046264648 11.30951976776123 51.06909942626953 8.669139862060547 48.47423934936523 C 6.029049873352051 45.87966918945312 3.956350088119507 42.8585090637207 2.508599996566772 39.49465942382812 C 1.009899973869324 36.01242828369141 0.25 32.31328964233398 0.25 28.5 C 0.25 24.68671035766602 1.009899973869324 20.98756980895996 2.508599996566772 17.50535011291504 C 3.956350088119507 14.14150047302246 6.029049873352051 11.12032985687256 8.669139862060547 8.52577018737793 C 11.30951976776123 5.930900096893311 14.38422966003418 3.893630027770996 17.8078498840332 2.47052001953125 C 21.3525505065918 0.9970899820327759 25.11812973022461 0.25 29 0.25 C 32.88187026977539 0.25 36.6474494934082 0.9970899820327759 40.1921501159668 2.47052001953125 C 43.61576843261719 3.893630027770996 46.69047927856445 5.930900096893311 49.33086013793945 8.52577018737793 C 51.97095108032227 11.12032985687256 54.04365158081055 14.14150047302246 55.49140167236328 17.50535011291504 C 56.9901008605957 20.98756980895996 57.75 24.68671035766602 57.75 28.5 C 57.75 32.31328964233398 56.9901008605957 36.01242828369141 55.49140167236328 39.49465942382812 C 54.04365158081055 42.8585090637207 51.97095108032227 45.87966918945312 49.33086013793945 48.47423934936523 C 46.69047927856445 51.06909942626953 43.61576843261719 53.10638046264648 40.1921501159668 54.52947998046875 C 36.6474609375 56.00291061401367 32.88187026977539 56.75 29 56.75 Z" stroke="none"/>
    <path d="M 29 0.5 C 25.15122985839844 0.5 21.41793060302734 1.240650177001953 17.90380859375 2.701370239257812 C 14.50986862182617 4.112140655517578 11.46183013916016 6.131740570068359 8.844371795654297 8.704071044921875 C 6.227508544921875 11.27581024169922 4.173110961914062 14.27024078369141 2.738231658935547 17.60417175292969 C 1.2530517578125 21.05500030517578 0.5 24.72089004516602 0.5 28.5 C 0.5 32.27910995483398 1.2530517578125 35.94499969482422 2.738231658935547 39.39582824707031 C 4.173110961914062 42.72975921630859 6.227508544921875 45.72418975830078 8.844371795654297 48.29592895507812 C 11.46183013916016 50.86825942993164 14.50986862182617 52.88785934448242 17.90380859375 54.29862976074219 C 21.41793060302734 55.75934982299805 25.15122985839844 56.5 29 56.5 C 32.84877014160156 56.5 36.58206939697266 55.75934982299805 40.09619140625 54.29862976074219 C 43.49013137817383 52.88785934448242 46.53816986083984 50.86825942993164 49.15563201904297 48.29592895507812 C 51.77249145507812 45.72418975830078 53.82688903808594 42.72975921630859 55.26176834106445 39.39582824707031 C 56.7469482421875 35.94499969482422 57.5 32.27910995483398 57.5 28.5 C 57.5 24.72089004516602 56.7469482421875 21.05500030517578 55.26176834106445 17.60417175292969 C 53.82688903808594 14.27024078369141 51.77249145507812 11.27581024169922 49.15563201904297 8.704071044921875 C 46.53816986083984 6.131740570068359 43.49013137817383 4.112140655517578 40.09619140625 2.701370239257812 C 36.58206939697266 1.240650177001953 32.84877014160156 0.5 29 0.5 M 29 0 C 45.01625823974609 0 58 12.75988006591797 58 28.5 C 58 44.24011993408203 45.01625823974609 57 29 57 C 12.98374176025391 57 0 44.24011993408203 0 28.5 C 0 12.75988006591797 12.98374176025391 0 29 0 Z" stroke="none" fill="#f49263"/>
  </g>
  <g id="Mask_Group_343" data-name="Mask Group 343" transform="translate(16 19)" clip-path="url(#points)">
    <g id="svgexport-6_23_" data-name="svgexport-6 (23)" transform="translate(3.772 0)">
      <g id="Group_3711" data-name="Group 3711">
        <g id="Page-1_16_">
          <g id="_x30_17---Box-of-Points">
            <path id="Shape_130_" d="M1.117,13.143H7.85a.343.343,0,0,0,.308-.189l1.034-2.069a.345.345,0,0,0-.308-.5H2.151a.345.345,0,0,0-.308.191L.808,12.644a.345.345,0,0,0,.308.5Z" transform="translate(-0.772 -0.039)" fill="#f49263"/>
            <path id="Shape_129_" d="M2.414,20.039H9.655V11.5L8.68,13.453a.685.685,0,0,1-.617.379H2.07v5.862a.345.345,0,0,0,.345.345Z" transform="translate(-0.772 -0.039)" fill="#f49263"/>
            <path id="Shape_128_" d="M17.93,19.694V13.833H11.937a.685.685,0,0,1-.617-.381L10.345,11.5v8.539h7.241a.345.345,0,0,0,.345-.345Z" transform="translate(-0.772 -0.039)" fill="#f49263"/>
            <path id="Shape_127_" d="M17.849,10.385H11.116a.345.345,0,0,0-.308.5l1.034,2.069a.345.345,0,0,0,.308.191h6.733a.345.345,0,0,0,.308-.5l-1.034-2.069a.345.345,0,0,0-.308-.191Z" transform="translate(-0.772 -0.039)" fill="#f49263"/>
            <path id="Shape_126_" d="M7.214,7.911a.613.613,0,0,0,.875.677L9.721,7.7a.578.578,0,0,1,.557,0l1.632.892a.613.613,0,0,0,.875-.677l-.307-1.862a.66.66,0,0,1,.177-.57l1.3-1.313a.649.649,0,0,0-.334-1.093L11.811,2.8a.609.609,0,0,1-.456-.345L10.542.738a.592.592,0,0,0-1.083,0L8.644,2.454a.609.609,0,0,1-.456.345l-1.805.273a.649.649,0,0,0-.334,1.093l1.3,1.313a.66.66,0,0,1,.177.57Z" transform="translate(-0.772 -0.039)" fill="#f49263"/>
            <path id="Shape_125_" d="M2.121,7.069a.33.33,0,0,1,.089.285l-.154.931a.307.307,0,0,0,.438.338l.817-.445a.29.29,0,0,1,.279,0l.816.446a.307.307,0,0,0,.438-.338l-.154-.931a.33.33,0,0,1,.089-.285l.648-.655a.324.324,0,0,0-.167-.547l-.9-.138a.3.3,0,0,1-.228-.172L3.721,4.7a.3.3,0,0,0-.542,0l-.408.857a.3.3,0,0,1-.228.172l-.9.138a.324.324,0,0,0-.167.547Z" transform="translate(-0.772 -0.039)" fill="#f49263"/>
            <path id="Shape_124_" d="M16.28,4.7l-.407.858a.3.3,0,0,1-.228.172l-.9.138a.324.324,0,0,0-.167.547l.648.655a.33.33,0,0,1,.089.285l-.154.931a.307.307,0,0,0,.438.338l.817-.445a.29.29,0,0,1,.279,0l.816.446a.307.307,0,0,0,.438-.338l-.154-.931a.33.33,0,0,1,.089-.285l.648-.655a.324.324,0,0,0-.167-.547l-.9-.138a.3.3,0,0,1-.228-.172L16.823,4.7a.3.3,0,0,0-.543,0Z" transform="translate(-0.772 -0.039)" fill="#f49263"/>
            <path id="Shape_123_" d="M7.586,1.42a.345.345,0,0,0,.31-.5L7.552.232A.345.345,0,1,0,6.935.54l.345.69A.345.345,0,0,0,7.586,1.42Z" transform="translate(-0.772 -0.039)" fill="#f49263"/>
            <path id="Shape_122_" d="M6.451,2.009a.345.345,0,0,0,0-.488l-.345-.345a.345.345,0,0,0-.488.488l.345.345A.345.345,0,0,0,6.451,2.009Z" transform="translate(-0.772 -0.039)" fill="#f49263"/>
            <path id="Shape_121_" d="M12.414,1.42a.345.345,0,0,0,.31-.191l.345-.69a.346.346,0,1,0-.621-.308L12.1.921a.345.345,0,0,0,.31.5Z" transform="translate(-0.772 -0.039)" fill="#f49263"/>
            <path id="Shape_120_" d="M14.036,2.009l.345-.345a.345.345,0,1,0-.488-.488l-.345.345a.345.345,0,1,0,.488.488Z" transform="translate(-0.772 -0.039)" fill="#f49263"/>
          </g>
        </g>
      </g>
    </g>
  </g>
</svg>
