<svg xmlns="http://www.w3.org/2000/svg" xmlnsxlink="http://www.w3.org/1999/xlink" width="14" height="14" viewBox="0 0 14 14">
  <defs>
    <clipPath id="profile">
      <rect id="Rectangle_29296" data-name="Rectangle 29296" width="14" height="14" transform="translate(-788 1323)" fill="#6a6f73" stroke="#707070" stroke-width="1"/>
    </clipPath>
  </defs>
  <g id="Mask_Group_691" data-name="Mask Group 691" transform="translate(788 -1323)" clip-path="url(#profile)">
    <g id="svgexport-6_-_2022-05-09T112435.596" data-name="svgexport-6 - 2022-05-09T112435.596" transform="translate(-786.84 1323)">
      <path id="Path_11667" data-name="Path 11667" d="M5.752,6.744a3.263,3.263,0,0,0,2.384-.988,3.263,3.263,0,0,0,.988-2.384A3.263,3.263,0,0,0,8.136.988,3.263,3.263,0,0,0,5.752,0,3.263,3.263,0,0,0,3.368.988,3.263,3.263,0,0,0,2.38,3.372a3.263,3.263,0,0,0,.988,2.384,3.264,3.264,0,0,0,2.384.988Zm-1.8-5.176A2.437,2.437,0,0,1,5.752.82a2.438,2.438,0,0,1,1.8.747,2.438,2.438,0,0,1,.748,1.8,2.438,2.438,0,0,1-.748,1.8,2.437,2.437,0,0,1-1.8.748,2.438,2.438,0,0,1-1.8-.748,2.437,2.437,0,0,1-.748-1.8,2.438,2.438,0,0,1,.748-1.8Zm0,0" fill="#6a6f73"/>
      <path id="Path_11668" data-name="Path 11668" d="M11.652,10.765a8.329,8.329,0,0,0-.113-.885,6.97,6.97,0,0,0-.218-.889,4.394,4.394,0,0,0-.366-.829,3.127,3.127,0,0,0-.551-.719,2.431,2.431,0,0,0-.792-.5A2.737,2.737,0,0,0,8.6,6.763,1.026,1.026,0,0,0,8.053,7c-.164.107-.356.231-.571.368a3.271,3.271,0,0,1-.739.325,2.869,2.869,0,0,1-1.807,0A3.262,3.262,0,0,1,4.2,7.363c-.212-.136-.4-.26-.571-.368a1.025,1.025,0,0,0-.548-.232,2.734,2.734,0,0,0-1.011.183,2.429,2.429,0,0,0-.792.5,3.128,3.128,0,0,0-.551.718,4.4,4.4,0,0,0-.366.83,6.986,6.986,0,0,0-.217.889,8.272,8.272,0,0,0-.113.885c-.019.267-.028.546-.028.827a2.325,2.325,0,0,0,.69,1.759A2.485,2.485,0,0,0,2.47,14H9.211a2.485,2.485,0,0,0,1.779-.649,2.324,2.324,0,0,0,.691-1.759c0-.282-.01-.56-.028-.827Zm-1.228,1.991a1.673,1.673,0,0,1-1.213.423H2.47a1.673,1.673,0,0,1-1.213-.423A1.518,1.518,0,0,1,.82,11.592c0-.262.009-.521.026-.77a7.461,7.461,0,0,1,.1-.8,6.162,6.162,0,0,1,.191-.784,3.583,3.583,0,0,1,.3-.675,2.318,2.318,0,0,1,.405-.531,1.613,1.613,0,0,1,.527-.328,1.888,1.888,0,0,1,.646-.125c.029.015.08.044.163.1.169.11.363.235.578.373a4.065,4.065,0,0,0,.927.414A3.688,3.688,0,0,0,7,8.469a4.069,4.069,0,0,0,.928-.415c.22-.141.409-.262.578-.372.083-.054.134-.083.163-.1a1.889,1.889,0,0,1,.646.125,1.615,1.615,0,0,1,.527.328,2.312,2.312,0,0,1,.405.531,3.571,3.571,0,0,1,.3.674,6.147,6.147,0,0,1,.191.784,7.524,7.524,0,0,1,.1.8h0c.017.248.026.507.026.77a1.518,1.518,0,0,1-.436,1.164Zm0,0" fill="#6a6f73"/>
    </g>
  </g>
</svg>
