<svg xmlns="http://www.w3.org/2000/svg" xmlns:xlink="http://www.w3.org/1999/xlink" width="16" height="16" viewBox="0 0 16 16">
  <defs>
    <clipPath id="q-a">
      <rect id="Rectangle_29955" data-name="Rectangle 29955" width="16" height="16" transform="translate(26 222)" fill="#8391a2" stroke="#707070" stroke-width="1"/>
    </clipPath>
  </defs>
  <g id="Mask_Group_834" data-name="Mask Group 834" transform="translate(-26 -222)" clip-path="url(#q-a)">
    <g id="svgexport-6_-_2022-06-14T144927.708" data-name="svgexport-6 - 2022-06-14T144927.708" transform="translate(26 222)">
      <path id="Path_27457" data-name="Path 27457" d="M11.481,7.247a.469.469,0,1,1-.469-.469A.469.469,0,0,1,11.481,7.247Zm0,0" fill="#8391a2"/>
      <path id="Path_27458" data-name="Path 27458" d="M11.012,2.259A1.723,1.723,0,0,0,9.289,3.983h0a.469.469,0,1,0,.937,0,.786.786,0,1,1,.786.787.469.469,0,0,0-.469.469v.5a.469.469,0,1,0,.937,0v-.1a1.724,1.724,0,0,0-.469-3.383Zm0,0" fill="#8391a2"/>
      <path id="Path_27459" data-name="Path 27459" d="M4.5,11.963a2.477,2.477,0,1,0-3.038,0A2.976,2.976,0,0,0,0,14.527v1A.469.469,0,0,0,.469,16H5.49a.469.469,0,0,0,.469-.469v-1A2.976,2.976,0,0,0,4.5,11.963ZM1.44,10.008a1.54,1.54,0,1,1,1.54,1.54,1.541,1.541,0,0,1-1.54-1.54Zm3.581,5.054H.938v-.535a2.042,2.042,0,1,1,4.083,0v.535Zm0,0" fill="#8391a2"/>
      <path id="Path_27460" data-name="Path 27460" d="M14.025,0H8A1.974,1.974,0,0,0,6.025,1.975v9.037a.469.469,0,0,0,.75.375L8.658,9.975h5.367A1.974,1.974,0,0,0,16,8V1.975A1.974,1.974,0,0,0,14.025,0Zm1.037,8a1.037,1.037,0,0,1-1.037,1.037H8.5a.469.469,0,0,0-.281.094l-1.258.944v-8.1A1.037,1.037,0,0,1,8,.938h6.025a1.037,1.037,0,0,1,1.037,1.037Zm0,0" fill="#8391a2"/>
    </g>
  </g>
</svg>
