<svg xmlns="http://www.w3.org/2000/svg" xmlns="http://www.w3.org/1999/xlink" width="12" height="12" viewBox="0 0 12 12">
  <defs>
    <clipPath id="resorces-icon">
      <rect id="Rectangle_27437" data-name="Rectangle 27437" width="12" height="12" transform="translate(162 1537)" fill="#6a6f73" stroke="#707070" stroke-width="1"/>
    </clipPath>
  </defs>
  <g id="Mask_Group_444" data-name="Mask Group 444" transform="translate(-162 -1537)" clip-path="url(#resorces-icon)">
    <g id="svgexport-6_46_" data-name="svgexport-6 (46)" transform="translate(162 1537)">
      <path id="Path_10649" data-name="Path 10649" d="M.7,4.594A1.056,1.056,0,0,1,1.758,3.539H7.852A1.056,1.056,0,0,1,8.906,4.594v.352h.7V3.773a.939.939,0,0,0-.937-.937H4.453V2.367a.939.939,0,0,0-.937-.937H.937A.939.939,0,0,0,0,2.367V8.791L.7,7.665Z" fill="#6a6f73"/>
      <path id="Path_10650" data-name="Path 10650" d="M7.852,4.242H1.758a.352.352,0,0,0-.352.352V6.539l.686-1.1a1.049,1.049,0,0,1,.895-.5H8.2V4.594A.352.352,0,0,0,7.852,4.242Z" fill="#6a6f73"/>
      <path id="Path_10651" data-name="Path 10651" d="M9.258,10.57H.352a.352.352,0,0,1-.3-.538L2.689,5.814a.352.352,0,0,1,.3-.165H11.18a.82.82,0,0,1,.685,1.272L9.552,10.413A.352.352,0,0,1,9.258,10.57Z" fill="#6a6f73"/>
    </g>
  </g>
</svg>
