<svg xmlns="http://www.w3.org/2000/svg" width="260.857" height="173.357" viewBox="0 0 260.857 173.357">
  <g id="Setup-cuate" transform="translate(-50.72 -33.39)">
    <g id="freepik--background-complete--inject-50" transform="translate(57.471 41.266)">
      <path id="Path_10801" data-name="Path 10801" d="M190.7,87.752H140V53.06h50.7Zm-50.3-.4h49.9V53.46H140.4Z" transform="translate(-111.002 -53.06)" fill="#ebebeb"/>
      <path id="Path_10802" data-name="Path 10802" d="M146.868,57.129a1.009,1.009,0,1,1-1.009-1.009A1.009,1.009,0,0,1,146.868,57.129Z" transform="translate(-113.91 -54.895)" fill="#a6a6a6"/>
      <path id="Path_10803" data-name="Path 10803" d="M157.158,57.129a1.009,1.009,0,1,1-1.009-1.009,1.009,1.009,0,0,1,1.009,1.009Z" transform="translate(-120.079 -54.895)" fill="#ebebeb"/>
      <path id="Path_10804" data-name="Path 10804" d="M167.446,57.129a1.013,1.013,0,1,1-.993-1.009A1.013,1.013,0,0,1,167.446,57.129Z" transform="translate(-126.243 -54.894)" fill="#7e59d1"/>
      <rect id="Rectangle_27489" data-name="Rectangle 27489" width="50.309" height="0.4" transform="translate(29.194 4.012)" fill="#ebebeb"/>
      <path id="Path_10805" data-name="Path 10805" d="M645.512,160.465l2.359-3.8-1.165-.721a1.073,1.073,0,0,1-.493-1,5.291,5.291,0,0,0,0-.669,1.069,1.069,0,0,1,.557-.965l1.2-.645-2.114-3.944-1.2.649a1.065,1.065,0,0,1-1.109-.072,6.057,6.057,0,0,0-.569-.352,1.065,1.065,0,0,1-.561-.965l.044-1.369-4.449-.14-.04,1.373a1.065,1.065,0,0,1-.625.925l-.292.148-.288.164a1.053,1.053,0,0,1-1.109,0l-1.173-.725-2.354,3.8,1.165.725a1.061,1.061,0,0,1,.493,1,6.1,6.1,0,0,0-.024.665,1.069,1.069,0,0,1-.553.965l-1.2.645,2.114,3.944,1.2-.649a1.065,1.065,0,0,1,1.109.072,5.97,5.97,0,0,0,.565.348,1.069,1.069,0,0,1,.565.965l-.044,1.373,4.469.136.044-1.369a1.065,1.065,0,0,1,.621-.925c.1-.044.2-.1.3-.148s.192-.1.288-.164a1.061,1.061,0,0,1,1.113,0Zm-3.784-2.8a9.013,9.013,0,1,0,0-.02Z" transform="translate(-406.002 -109.067)" fill="#ebebeb"/>
      <path id="Path_10806" data-name="Path 10806" d="M91.638,245.171l2.354-3.8-1.161-.721a1.065,1.065,0,0,1-.5-1,6.181,6.181,0,0,0,.024-.669,1.069,1.069,0,0,1,.553-.965l1.2-.645L92,233.426l-1.2.649A1.065,1.065,0,0,1,89.688,234a6.4,6.4,0,0,0-.569-.352,1.065,1.065,0,0,1-.561-.965l.044-1.369-4.469-.136-.032,1.373a1.065,1.065,0,0,1-.621.925c-.1.044-.2.1-.3.148s-.192.1-.284.164a1.077,1.077,0,0,1-1.113,0l-1.169-.729-2.358,3.8,1.165.725a1.057,1.057,0,0,1,.493,1,5.265,5.265,0,0,0,0,.665,1.069,1.069,0,0,1-.557.965l-1.2.649,2.114,3.94,1.2-.645a1.057,1.057,0,0,1,1.109.068,6.408,6.408,0,0,0,.569.352,1.065,1.065,0,0,1,.561.965l-.044,1.369,4.473.14.04-1.373a1.061,1.061,0,0,1,.625-.921c.1-.048.2-.1.3-.152s.192-.1.284-.16a1.069,1.069,0,0,1,1.117,0Zm-3.784-2.823a3.66,3.66,0,1,1,1.776-2.168A3.664,3.664,0,0,1,87.854,242.348Z" transform="translate(-73.924 -159.857)" fill="#ebebeb"/>
      <path id="Path_10807" data-name="Path 10807" d="M609.052,103.2l-1.566-2.711-.829.48a.749.749,0,0,1-.8-.028c-.132-.084-.264-.164-.4-.236a.737.737,0,0,1-.4-.661V99.09H601.92v.957a.737.737,0,0,1-.4.661,4.45,4.45,0,0,0-.4.236.749.749,0,0,1-.8.028l-.833-.48L597.92,103.2l.837.48a.757.757,0,0,1,.364.693v.46a.749.749,0,0,1-.364.689l-.837.485,1.566,2.711.833-.477a.741.741,0,0,1,.8.024,4.606,4.606,0,0,0,.4.236.741.741,0,0,1,.4.661v.961h3.135v-.961a.745.745,0,0,1,.4-.661,3.684,3.684,0,0,0,.4-.236.741.741,0,0,1,.8-.024l.833.477,1.566-2.711-.833-.48a.737.737,0,0,1-.36-.689v-.464a.749.749,0,0,1,.364-.693Zm-3,1.405a2.559,2.559,0,1,1-.747-1.818A2.567,2.567,0,0,1,606.057,104.608Z" transform="translate(-385.562 -80.659)" fill="#ebebeb"/>
      <path id="Path_10808" data-name="Path 10808" d="M82.462,75.018l5.253-.12,2.667-.044c.893,0,1.79,0,2.683-.024h.176v.18l.024,4.481V79.7h-.2l-5.3-.024c-1.77,0-3.536-.048-5.3-.068H82.35V79.5c0-.761.032-1.518.052-2.262Zm0,0,.056,2.282c0,.749.044,1.486.052,2.218l-.108-.108c1.766,0,3.532-.064,5.3-.068l5.3-.04-.2.2V75.022l.18.18c-.873,0-1.746,0-2.623-.024l-2.607-.048Z" transform="translate(-76.436 -66.113)" fill="#ebebeb"/>
      <path id="Path_10809" data-name="Path 10809" d="M97.2,60.92l5.253-.112,2.671-.044c.889,0,1.786,0,2.679-.024h.176V65.6h-.2l-5.3-.024c-1.766,0-3.536-.048-5.3-.068H97.06V65.4c0-.761.032-1.518.052-2.262Zm0,0,.056,2.262c0,.749.044,1.486.052,2.218l-.108-.108c1.766,0,3.536-.064,5.3-.068l5.3-.024-.2.2.02-4.481.18.18c-.873,0-1.746,0-2.623-.024l-2.631-.044Z" transform="translate(-85.256 -57.665)" fill="#ebebeb"/>
      <path id="Path_10810" data-name="Path 10810" d="M67.692,60.92l5.261-.112,2.667-.044c.893,0,1.79,0,2.683-.024h.176v.18L78.5,65.4v.2h-.2l-5.31-.024c-1.77,0-3.536-.048-5.3-.068H67.58V65.4c0-.761.036-1.518.052-2.262Zm0,0,.056,2.262c0,.749.044,1.486.052,2.218l-.108-.108c1.766,0,3.532-.064,5.3-.068l5.3-.024-.2.2V60.92l.18.18c-.877,0-1.746,0-2.623-.024l-2.635-.044Z" transform="translate(-67.58 -57.665)" fill="#ebebeb"/>
      <path id="Path_10811" data-name="Path 10811" d="M460.042,208.19l5.253-.112,2.667-.044c.893,0,1.79,0,2.683-.024h.176v.18l.024,4.481v.2h-.2l-5.3-.028c-1.77,0-3.536-.044-5.3-.064h-.112v-.108c0-.761.036-1.518.056-2.266Zm0,0,.056,2.262c0,.745.044,1.486.052,2.218l-.108-.112c1.766-.02,3.532-.06,5.3-.064l5.3-.024-.2.2.02-4.481.18.176c-.873,0-1.746,0-2.623-.02l-2.635-.044Z" transform="translate(-302.826 -145.965)" fill="#ebebeb"/>
      <path id="Path_10812" data-name="Path 10812" d="M474.82,194.08l5.253-.112,2.671-.044c.889-.02,1.786,0,2.679-.024h.176v4.861h-.2l-5.286-.016c-1.766,0-3.536-.044-5.3-.064H474.7v-.108c0-.761.032-1.518.052-2.266Zm0,0,.056,2.262c.02.745.044,1.486.052,2.218l-.108-.112c1.766,0,3.536-.06,5.3-.064l5.3-.024-.2.2.02-4.481.18.176H482.8l-2.631-.044Z" transform="translate(-311.682 -137.505)" fill="#ebebeb"/>
      <path id="Path_10813" data-name="Path 10813" d="M445.272,194.08l5.254-.112,2.667-.044c.893-.02,1.786,0,2.683-.024h.176v.18l.024,4.481v.2h-.2l-5.3-.016c-1.77,0-3.536-.044-5.3-.064h-.112v-.108c0-.761.036-1.518.052-2.266Zm0,0,.056,2.262c0,.745.044,1.486.052,2.218l-.108-.112c1.766,0,3.532-.06,5.3-.064l5.3-.024-.2.2.02-4.481.18.176h-2.623l-2.635-.044Z" transform="translate(-293.97 -137.505)" fill="#ebebeb"/>
      <path id="Path_10814" data-name="Path 10814" d="M643.458,71.136l5.258-.112,2.667-.044h2.859v.18l.02,4.481v.2h-.2l-5.3-.048c-1.766,0-3.536-.048-5.3-.068h-.108v-.108c0-.761.032-1.518.052-2.262Zm0,0,.056,2.262c0,.749.048,1.486.052,2.218l-.108-.108c1.766-.02,3.536-.064,5.3-.068l5.3-.024-.2.2.024-4.481.176.18c-.873,0-1.746,0-2.619-.024l-2.627-.044Z" transform="translate(-412.801 -63.805)" fill="#ebebeb"/>
      <path id="Path_10815" data-name="Path 10815" d="M236.972,208.226l5.254-.108,2.667-.048h2.859v.176l.024,4.481v.2h-.2l-5.3-.024c-1.77,0-3.536-.044-5.3-.064h-.112v-.108c0-.757.032-1.514.052-2.262Zm0,0,.056,2.266c.02.745.044,1.482.052,2.214l-.108-.108c1.766,0,3.532-.064,5.3-.064l5.3-.024-.2.2.02-4.481.18.18h-2.623l-2.635-.048Z" transform="translate(-169.077 -146.001)" fill="#ebebeb"/>
      <path id="Path_10816" data-name="Path 10816" d="M83.956,316.876l5.253-.108,2.671-.048c.889,0,1.786,0,2.679-.02h.176v4.861h-.2l-5.3-.024c-1.766,0-3.536-.044-5.3-.064H83.82v-.108c0-.757.032-1.514.052-2.262Zm0,0,.056,2.266c0,.745.044,1.482.052,2.214l-.108-.108c1.766-.02,3.536-.064,5.3-.064l5.3-.028-.2.2v-4.481l.18.18c-.873,0-1.746,0-2.623-.024l-2.631-.044Z" transform="translate(-77.317 -211.134)" fill="#ebebeb"/>
      <path id="Path_10817" data-name="Path 10817" d="M69.222,302.736l5.253-.108,2.667-.048c.893,0,1.79,0,2.683-.02H80v.176l.024,4.481v.2h-.2l-5.3-.024c-1.77,0-3.536-.044-5.3-.064H69.11v-.108c0-.757.036-1.514.056-2.262Zm0,0L69.278,305c0,.745.044,1.482.052,2.214l-.108-.108c1.766-.02,3.532-.064,5.3-.064l5.3-.028-.2.2v-4.481l.18.18c-.873,0-1.746,0-2.623-.02l-2.635-.048Z" transform="translate(-68.497 -202.656)" fill="#ebebeb"/>
      <path id="Path_10818" data-name="Path 10818" d="M655.462,316.866l5.258-.112,2.667-.044c.889-.02,1.786,0,2.679-.02h.18v4.861h-.2l-5.3-.024c-1.766,0-3.532-.044-5.3-.068h-.108v-.108c0-.761.036-1.514.052-2.262Zm0,0,.06,2.266c0,.745.044,1.482.052,2.214l-.112-.108c1.77-.02,3.536-.064,5.3-.064l5.3-.028-.2.2.024-4.481.176.18c-.873,0-1.742,0-2.619-.024l-2.635-.044Z" transform="translate(-419.984 -211.128)" fill="#ebebeb"/>
      <rect id="Rectangle_27490" data-name="Rectangle 27490" width="41.656" height="57.648" transform="translate(196.061 77.032)" fill="#dbdbdb"/>
      <rect id="Rectangle_27491" data-name="Rectangle 27491" width="45.692" height="2.138" transform="translate(194.043 74.894)" fill="#ebebeb"/>
      <rect id="Rectangle_27492" data-name="Rectangle 27492" width="14.371" height="2.138" transform="translate(239.734 74.894)" fill="#dbdbdb"/>
      <rect id="Rectangle_27493" data-name="Rectangle 27493" width="14.115" height="57.648" transform="translate(237.716 77.032)" fill="#ebebeb"/>
      <path id="Path_10819" data-name="Path 10819" d="M601.112,284.411H568.43V265.94h32.682Zm-32.582-.1h32.482V266.04H568.53Z" transform="translate(-367.881 -180.699)" fill="#a6a6a6"/>
      <rect id="Rectangle_27494" data-name="Rectangle 27494" width="6.363" height="3.656" transform="translate(212.33 90.639)" fill="#a6a6a6"/>
      <path id="Path_10820" data-name="Path 10820" d="M608.883,283.2H602.42V280h6.463Zm-6.363-.1h6.263V280.1H602.52Z" transform="translate(-388.26 -189.129)" fill="#a6a6a6"/>
      <path id="Path_10821" data-name="Path 10821" d="M601.112,342.359H568.43V323.9h32.682Zm-32.582-.1h32.482V324H568.53Z" transform="translate(-367.881 -215.451)" fill="#a6a6a6"/>
      <rect id="Rectangle_27495" data-name="Rectangle 27495" width="6.363" height="3.656" transform="translate(212.33 113.847)" fill="#a6a6a6"/>
      <path id="Path_10822" data-name="Path 10822" d="M608.883,341.2H602.42V338h6.463Zm-6.363-.1h6.263V338.1H602.52Z" transform="translate(-388.26 -223.905)" fill="#a6a6a6"/>
    </g>
    <g id="freepik--Plant--inject-50" transform="translate(51.745 115.576)">
      <path id="Path_10823" data-name="Path 10823" d="M111.73,303.64s6.931-1.57,10.731-5.069,5.918-9.77,5.918-9.77a59.408,59.408,0,0,0-7.772,2.038,13.1,13.1,0,0,0-2.362,3.327,16.231,16.231,0,0,1,0-2.379,10.772,10.772,0,0,0-2.467,1.5C112.639,296.044,111.73,303.64,111.73,303.64Z" transform="translate(-88.325 -268.715)" fill="#7e59d1"/>
      <path id="Path_10824" data-name="Path 10824" d="M117.9,293.352c.941-.657,1.906-1.285,2.847-1.946a.056.056,0,0,0-.06-.092c-1.786,1.069-3.544,2.206-5.249,3.4-.593.4-1.177.853-1.754,1.293.04-.068.08-.136.124-.2.2-.348.424-.693.645-1.033a14.643,14.643,0,0,1,1.47-1.962c.02-.024,0-.056-.032-.032-.541.621-1.077,1.237-1.57,1.9-.236.312-.452.637-.661.969-.108.172-.212.348-.312.525-.032.06-.068.116-.1.18-.893.7-1.766,1.437-2.6,2.21-.517.48-1.009.977-1.49,1.49.268-.841.5-1.686.8-2.515,0-.028-.036-.04-.048,0-.3.869-.629,1.738-.865,2.627-.529.577-1.037,1.169-1.514,1.786l.024-.112c.076-.324.16-.653.248-.977.168-.625.352-1.249.565-1.862a10.683,10.683,0,0,1,1.862-3.516c0-.024,0-.056-.036-.036a13.578,13.578,0,0,0-2.655,5.546c-.072.292-.144.589-.212.885-.036.16-.076.32-.1.48-.208.284-.4.569-.609.861a30.157,30.157,0,0,0-2.931,5.738,66.684,66.684,0,0,0-2.218,6.927c0,.044.056.06.068,0,1.357-4.056,2.743-8.169,5.061-11.792.489-.765,1.021-1.5,1.582-2.214a13.09,13.09,0,0,0,3.372-.673,14.919,14.919,0,0,0,3.376-1.63,19.653,19.653,0,0,0,1.734-1.309.024.024,0,1,0-.032-.036,13.793,13.793,0,0,1-3.175,1.922,17.09,17.09,0,0,1-3.5,1.173c-.513.112-1.029.2-1.55.264a28.743,28.743,0,0,1,2.042-2.262c.236-.236.477-.456.717-.685a16.239,16.239,0,0,1,2.563-1.466c1.137-.549,2.254-1.133,3.376-1.7.637-.324,1.265-.653,1.906-.965.028,0,0-.056-.024-.04-1.141.549-2.3,1.065-3.448,1.6-1.081.5-2.178.993-3.2,1.578l-.132.076c.941-.8,1.91-1.6,2.907-2.346C116.015,294.685,116.948,293.989,117.9,293.352Z" transform="translate(-82.168 -270.22)" fill="#263238"/>
      <path id="Path_10825" data-name="Path 10825" d="M136.48,305.327c-.565.248-1.137.464-1.694.725s-1.117.585-1.662.9a.021.021,0,1,0,.02.036c.553-.264,1.113-.509,1.662-.8s1.113-.585,1.69-.837C136.52,305.359,136.508,305.315,136.48,305.327Z" transform="translate(-101.147 -278.623)" fill="#263238"/>
      <path id="Path_10826" data-name="Path 10826" d="M55.51,238.64a9.886,9.886,0,0,1,2.07,5.75c.024.621-.076,1.49-.148,2.507a16.461,16.461,0,0,1,4.525,3.864,8.209,8.209,0,0,0-4.573-1.093,14.1,14.1,0,0,0,.268,2.07,7.8,7.8,0,0,1,2.939.585,6.559,6.559,0,0,0-2.651.525c1.233,3.956,4.905,7.96,15.048,9.686a21.278,21.278,0,0,0-1.8-14.267C68.151,242.288,55.51,238.64,55.51,238.64Z" transform="translate(-54.617 -238.64)" fill="#7e59d1"/>
      <path id="Path_10827" data-name="Path 10827" d="M80.552,283.341q-.264-2.519-.657-5.021a98.5,98.5,0,0,0-2.046-9.918,39.678,39.678,0,0,0-1.462-4.521,6.9,6.9,0,0,0,.036-.8v-.973c0-.653-.036-1.3-.092-1.946a23.544,23.544,0,0,0-.621-3.8c-.188-.721-.4-1.434-.613-2.146a.024.024,0,1,0-.048,0,27.782,27.782,0,0,1,.753,3.78,34.592,34.592,0,0,1,.34,3.8v1.493a32.589,32.589,0,0,0-1.706-3.536,43.445,43.445,0,0,0-3.472-5.205,2.071,2.071,0,0,0-.084-.565c-.048-.228-.1-.452-.148-.681-.1-.464-.22-.925-.344-1.381-.252-.917-.585-1.806-.873-2.715,0-.028-.052,0-.044,0,.268.9.444,1.826.649,2.743q.156.677.3,1.357c.052.224.1.452.148.677a.235.235,0,0,0,0,.052q-.613-.773-1.257-1.53c-1.934-2.27-4.056-4.365-6.194-6.443-.264-.256-.533-.5-.8-.757-.024-.024-.056,0-.036.032,2.042,2.13,4.056,4.285,5.958,6.543.452.533.9,1.077,1.337,1.626l-.693-.456c-.589-.4-1.2-.765-1.8-1.109s-1.237-.681-1.87-.993-1.345-.585-1.97-.949c-.028,0-.052.028-.024.04a14.38,14.38,0,0,1,1.85,1.025c.617.364,1.233.737,1.838,1.121s1.2.749,1.79,1.133c.493.32.977.673,1.49.965a48.706,48.706,0,0,1,3.247,4.729,34.075,34.075,0,0,1,1.678,3.2l-.36-.16-.929-.4c-.6-.264-1.2-.521-1.794-.781-1.137-.5-2.294-.949-3.408-1.494a15.838,15.838,0,0,1-1.8-.989c-.024-.02-.048.024-.02.04a40.231,40.231,0,0,0,6.707,3.46l1,.444c.272.12.549.256.829.36a35.042,35.042,0,0,1,1.714,4.7,94.355,94.355,0,0,1,2.206,9.81c.585,3.311.977,6.643,1.281,10.01.036.4.076.837.124,1.253a.132.132,0,1,0,.264,0C80.9,286.733,80.728,285.031,80.552,283.341Z" transform="translate(-58.673 -242.631)" fill="#263238"/>
      <path id="Path_10828" data-name="Path 10828" d="M91.342,265.767c-.188-1.033-.465-2.038-.741-3.047a.024.024,0,1,0-.044,0c.256.989.44,2,.625,3.007s.36,2.054.5,3.083h.028A28.032,28.032,0,0,0,91.342,265.767Z" transform="translate(-75.629 -253.058)" fill="#263238"/>
      <path id="Path_10829" data-name="Path 10829" d="M74.821,273.87a17.516,17.516,0,0,0-2.206-1.241c-.368-.192-.741-.372-1.117-.553s-.8-.344-1.169-.537c-.028,0-.048.028-.024.04.372.188.725.4,1.089.613s.749.4,1.125.613a24.922,24.922,0,0,0,2.25,1.165.056.056,0,0,0,.052-.1Z" transform="translate(-63.481 -258.366)" fill="#263238"/>
      <path id="Path_10830" data-name="Path 10830" d="M112.05,269.582s6.407-1.534,9.358-5.834c2.8-4.108,3.72-11.112,3.792-11.728-.116.565-1.437,6.687-5.806,9.538C116.034,263.74,112.831,265.538,112.05,269.582Z" transform="translate(-88.517 -246.662)" fill="#263238" opacity="0.1"/>
      <path id="Path_10831" data-name="Path 10831" d="M123.286,268.2a8.2,8.2,0,0,0-2.366,3.892h0a9.554,9.554,0,0,1,2.378-3.864C123.355,268.21,123.307,268.174,123.286,268.2Z" transform="translate(-93.836 -256.358)" fill="#263238"/>
      <path id="Path_10832" data-name="Path 10832" d="M111.866,269.516s6.407-1.534,9.358-5.834c2.8-4.108,3.72-11.112,3.792-11.728v-.044s-3.075,4.373-6.311,5.49S110.937,262.357,111.866,269.516Z" transform="translate(-88.333 -246.596)" fill="#7e59d1"/>
      <path id="Path_10833" data-name="Path 10833" d="M119.979,257.921A26.271,26.271,0,0,1,118,261.309a13.675,13.675,0,0,1-2.639,2.715c-.873.693-1.794,1.317-2.675,2a.223.223,0,0,1,.02-.032c.168-.248.344-.484.525-.717.368-.472.769-.913,1.173-1.353.8-.861,1.6-1.71,2.326-2.647a9.773,9.773,0,0,0,1.025-1.658c0-.024-.028-.04-.044,0-1.037,2.166-3.115,3.552-4.6,5.382a8.432,8.432,0,0,0-.593.8,3.138,3.138,0,0,0-.372.649,13.616,13.616,0,0,0-2.186,2.214,8.7,8.7,0,0,1,.256-1.245,6.3,6.3,0,0,1,.681-1.626c0-.024-.024-.052-.04-.024a7.675,7.675,0,0,0-.749,1.6,5.638,5.638,0,0,0-.232,1.385h0a12.189,12.189,0,0,0-.865,1.345c.028-.136.052-.272.08-.4.128-.637.268-1.273.432-1.906a11.508,11.508,0,0,1,1.542-3.6.022.022,0,1,0-.036-.024,13.65,13.65,0,0,0-1.71,3.532c-.2.629-.368,1.269-.513,1.918-.072.312-.136.629-.2.949-.028.164-.064.332-.092.5a22.785,22.785,0,0,0-1.478,4.345,63.267,63.267,0,0,0-1.369,8.108,67.272,67.272,0,0,0-.44,8.613c0,.36.024.721.044,1.081a.076.076,0,0,0,.152,0c.06-1.425.1-2.847.18-4.268s.208-2.843.364-4.26a75.279,75.279,0,0,1,1.333-8.293,21.577,21.577,0,0,1,2.475-6.759,12.813,12.813,0,0,1,2.314-2.751c.9-.8,1.882-1.514,2.831-2.262a15.485,15.485,0,0,0,2.6-2.495,20.66,20.66,0,0,0,2.038-3.311c.152-.292.3-.581.46-.869C120.031,257.917,119.991,257.893,119.979,257.921Z" transform="translate(-84.426 -250.193)" fill="#263238"/>
      <path id="Path_10834" data-name="Path 10834" d="M137.165,260.261a21.384,21.384,0,0,1-1.425,2.5c0,.02,0,.04.028.02a17.281,17.281,0,0,0,1.446-2.5C137.226,260.249,137.182,260.237,137.165,260.261Z" transform="translate(-102.721 -251.596)" fill="#263238"/>
      <path id="Path_10835" data-name="Path 10835" d="M53.28,288.8s-.112,9.113,5.346,11.744,8.373.436,12.073,1.317h0a13.5,13.5,0,0,0-6.991-5.061C59.378,295.719,54.589,292.6,53.28,288.8Z" transform="translate(-53.28 -268.715)" fill="#7e59d1"/>
      <path id="Path_10836" data-name="Path 10836" d="M53.28,288.8s-.112,9.113,5.346,11.744,8.373.436,12.073,1.317h0a20.776,20.776,0,0,0-6.2-1.826A12.476,12.476,0,0,1,53.28,288.8Z" transform="translate(-53.28 -268.715)" opacity="0.1"/>
      <path id="Path_10837" data-name="Path 10837" d="M74.67,310.327a9.351,9.351,0,0,0-2.166-1.47c-.12-.056-.24-.1-.356-.152s-.12-.14-.184-.208c-.164-.168-.332-.332-.513-.484a7.558,7.558,0,0,0-1.1-.8c-.9-.529-1.89-.9-2.8-1.393a.024.024,0,0,0-.024.04c.456.236.9.5,1.345.757s.873.493,1.293.765a9.209,9.209,0,0,1,1.077.8c.1.084.188.172.28.264a15.394,15.394,0,0,0-1.842-.488c-1-.2-2-.344-3-.557a14,14,0,0,1-1.446-.4c-.452-.364-.9-.725-1.329-1.121a10.638,10.638,0,0,1-1.409-1.562c0-.024-.06,0-.04.024a16.716,16.716,0,0,0,2.234,2.467c-.236-.092-.468-.184-.7-.288a11.24,11.24,0,0,1-4.645-3.864c0-.024-.056,0-.04.024a12.754,12.754,0,0,0,3.756,3.6,11.3,11.3,0,0,0,2.374,1.121,21.9,21.9,0,0,0,2.955.729,21.073,21.073,0,0,1,2.891.689,8.81,8.81,0,0,1,2.4,1.273,11.308,11.308,0,0,1,3.263,4.048,20.249,20.249,0,0,1,1.8,6.663c0,.1.164.1.156,0C78.646,316.974,77.621,312.986,74.67,310.327Z" transform="translate(-56.891 -277.016)" fill="#263238"/>
      <path id="Path_10838" data-name="Path 10838" d="M78.148,311.223a3.147,3.147,0,0,0-1.121-1.017,4.08,4.08,0,0,1-1.333-1.1c0-.024-.06,0-.04.024a4.476,4.476,0,0,0,1.177,1.053,4.161,4.161,0,0,1,1.281,1.061C78.128,311.263,78.16,311.243,78.148,311.223Z" transform="translate(-66.692 -280.884)" fill="#263238"/>
      <path id="Path_10839" data-name="Path 10839" d="M89.11,338.63l.244,5.009.761,15.312h11.432l.761-15.312.248-5.009Z" transform="translate(-74.763 -298.592)" fill="#37474f"/>
      <path id="Path_10840" data-name="Path 10840" d="M89.11,338.63l.244,5.009h12.954l.248-5.009Z" transform="translate(-74.763 -298.592)" fill="#263238"/>
      <rect id="Rectangle_27496" data-name="Rectangle 27496" width="15.048" height="4.781" transform="translate(28.594 42.725) rotate(180)" fill="#37474f"/>
    </g>
    <g id="freepik--Floor--inject-50" transform="translate(50.72 175.747)">
      <path id="Path_10841" data-name="Path 10841" d="M50.72,389.106l32.462-.1,32.462-.036,64.924-.064,64.924.064,32.462.036,32.462.1-32.462.1-32.462.036-64.924.064-64.924-.064-32.462-.036Z" transform="translate(-50.72 -388.91)" fill="#263238"/>
    </g>
    <g id="freepik--Shadow--inject-50" transform="translate(62.841 188.08)">
      <ellipse id="Ellipse_2981" data-name="Ellipse 2981" cx="117.727" cy="9.334" rx="117.727" ry="9.334" transform="translate(0)" fill="#ebebeb"/>
    </g>
    <g id="freepik--Device--inject-50" transform="translate(95.259 48.878)">
      <rect id="Rectangle_27497" data-name="Rectangle 27497" width="170.622" height="116.017" fill="#37474f"/>
      <rect id="Rectangle_27498" data-name="Rectangle 27498" width="170.622" height="17.114" transform="translate(0 98.907)" fill="#ebebeb"/>
      <rect id="Rectangle_27499" data-name="Rectangle 27499" width="66.493" height="5.558" transform="translate(52.062 136.935)" fill="#dbdbdb"/>
      <path id="Path_10842" data-name="Path 10842" d="M362.4,382.744H311.74l1.289-9.642.064-.456.116-.9.06-.456.124-.9.016-.14.044-.312.12-.9.06-.456.9-6.735h45.071l.849,6.355.04.3.14,1.053.04.308.056.388.088.665.04.3.14,1.057.04.3Z" transform="translate(-251.761 -245.805)" fill="#ebebeb"/>
      <path id="Path_10843" data-name="Path 10843" d="M373.464,333.337a2.827,2.827,0,1,1-2.827-2.827A2.827,2.827,0,0,1,373.464,333.337Z" transform="translate(-285.38 -227.026)" fill="#37474f"/>
      <path id="Path_10844" data-name="Path 10844" d="M363.567,370.239l-47.1-1.674.9-6.735h45.071Z" transform="translate(-254.597 -245.805)" fill="#dbdbdb"/>
      <rect id="Rectangle_27500" data-name="Rectangle 27500" width="154.874" height="83.311" transform="translate(7.872 7.544)" fill="#fff"/>
      <rect id="Rectangle_27501" data-name="Rectangle 27501" width="154.874" height="83.311" transform="translate(7.872 7.544)" fill="#fff"/>
      <rect id="Rectangle_27502" data-name="Rectangle 27502" width="152.127" height="10.775" transform="translate(7.872 11.316)" fill="#7e59d1"/>
      <rect id="Rectangle_27503" data-name="Rectangle 27503" width="3.676" height="0.593" transform="translate(12.986 14.916)" fill="#fff"/>
      <rect id="Rectangle_27504" data-name="Rectangle 27504" width="3.676" height="0.593" transform="translate(12.986 17.566)" fill="#fff"/>
      <rect id="Rectangle_27505" data-name="Rectangle 27505" width="3.676" height="0.593" transform="translate(12.986 16.257)" fill="#fff"/>
      <rect id="Rectangle_27506" data-name="Rectangle 27506" width="83.411" height="3.171" transform="translate(52.599 14.948)" fill="#fff"/>
      <path id="Path_10845" data-name="Path 10845" d="M376.705,112.559H293.23V109.32h83.475Z" transform="translate(-240.663 -94.404)" fill="#fff"/>
      <rect id="Rectangle_27507" data-name="Rectangle 27507" width="3.239" height="3.239" transform="translate(132.803 14.916)" fill="#455a64"/>
      <path id="Path_10846" data-name="Path 10846" d="M498.617,114.067l-.3.22-.541-.717-.2-.26a.656.656,0,0,0,.116-.064.533.533,0,0,0,.148-.2l.212.276Z" transform="translate(-363.188 -96.641)" fill="#fff"/>
      <path id="Path_10847" data-name="Path 10847" d="M496.576,110.91a.8.8,0,1,0-.256,1.2.637.637,0,0,0,.108-.072.685.685,0,0,0,.168-.172.8.8,0,0,0-.02-.957Zm-.34.869a.658.658,0,0,1-.116.064.48.48,0,1,1,.264-.26A.533.533,0,0,1,496.236,111.778Z" transform="translate(-361.727 -95.173)" fill="#fff"/>
      <rect id="Rectangle_27508" data-name="Rectangle 27508" width="0.172" height="1.926" transform="translate(53.264 15.572)" fill="#c7c7c7"/>
      <path id="Path_10848" data-name="Path 10848" d="M543.5,112.644a1.855,1.855,0,0,1-.517.216,1.8,1.8,0,1,1,.517-.216Z" transform="translate(-389.071 -94.397)" fill="#455a64"/>
      <path id="Path_10849" data-name="Path 10849" d="M544.977,112.469a.549.549,0,1,1-.549-.549A.549.549,0,0,1,544.977,112.469Z" transform="translate(-390.948 -95.963)" fill="#fff"/>
      <path id="Path_10850" data-name="Path 10850" d="M544.771,115.557v.228a1.853,1.853,0,0,1-.517.216,1.782,1.782,0,0,1-1.377-.22v-.224a.949.949,0,1,1,1.894,0Z" transform="translate(-390.346 -97.538)" fill="#fff"/>
      <path id="Path_10851" data-name="Path 10851" d="M528.217,112.9h-1.253v-.444a.064.064,0,0,0-.036-.06.934.934,0,0,1-.136-.08.076.076,0,0,0-.072,0l-.4.224-.629-1.085.4-.224a.064.064,0,0,0,.032-.06.532.532,0,0,1,0-.08.48.48,0,0,1,0-.076.072.072,0,0,0-.032-.064l-.4-.224.629-1.085.4.224a.068.068,0,0,0,.072,0,1.516,1.516,0,0,1,.136-.08.064.064,0,0,0,.036-.06v-.44h1.253v.44a.064.064,0,0,0,.04.06l.136.08a.068.068,0,0,0,.072,0l.4-.224.625,1.085-.4.224a.06.06,0,0,0-.032.064v.16a.06.06,0,0,0,.032.064l.4.224-.625,1.085-.4-.22a.068.068,0,0,0-.072,0,1.2,1.2,0,0,1-.136.08.072.072,0,0,0-.04.06Zm-.941-.312h.629v-.132a.372.372,0,0,1,.208-.336l.108-.064a.372.372,0,0,1,.4,0l.116.068.312-.545-.112-.068a.376.376,0,0,1-.188-.352v-.12a.4.4,0,0,1,.188-.352l.112-.064-.312-.545-.112.064a.4.4,0,0,1-.4,0,.7.7,0,0,0-.108-.06.4.4,0,0,1-.208-.34v-.168h-.629v.128a.4.4,0,0,1-.208.34c-.036,0-.072.04-.108.06a.372.372,0,0,1-.4,0l-.112-.064-.316.545.116.064a.4.4,0,0,1,.184.352v.124a.4.4,0,0,1-.184.348l-.116.068.316.545.112-.068a.373.373,0,0,1,.4,0l.108.064a.372.372,0,0,1,.208.336Zm.316-.577a.921.921,0,1,1,.008,0Zm0-1.538a.609.609,0,1,0,.008,0Z" transform="translate(-380.042 -94.38)" fill="#455a64"/>
      <rect id="Rectangle_27509" data-name="Rectangle 27509" width="25.27" height="1.205" transform="translate(19.781 16.257)" fill="#455a64"/>
      <rect id="Rectangle_27510" data-name="Rectangle 27510" width="154.874" height="3.772" transform="translate(7.872 7.544)" fill="#455a64"/>
      <path id="Path_10852" data-name="Path 10852" d="M186.284,94.223a.937.937,0,1,1-.933-.933A.937.937,0,0,1,186.284,94.223Z" transform="translate(-175.417 -84.793)" fill="#c7c7c7"/>
      <path id="Path_10853" data-name="Path 10853" d="M195.824,94.223a.937.937,0,1,1-.937-.933.937.937,0,0,1,.937.933Z" transform="translate(-181.137 -84.793)" fill="#fff"/>
      <path id="Path_10854" data-name="Path 10854" d="M205.354,94.223a.937.937,0,1,1-.933-.933A.937.937,0,0,1,205.354,94.223Z" transform="translate(-186.851 -84.793)" fill="#7e59d1"/>
      <rect id="Rectangle_27511" data-name="Rectangle 27511" width="2.747" height="79.543" transform="translate(159.999 11.316)" fill="#dbdbdb"/>
      <path id="Path_10855" data-name="Path 10855" d="M563.933,133.82h0a.713.713,0,0,1-.713-.713V102.419a.713.713,0,0,1,.713-.709h0a.709.709,0,0,1,.709.709v30.688A.713.713,0,0,1,563.933,133.82Z" transform="translate(-402.544 -89.842)" fill="#a6a6a6"/>
      <rect id="Rectangle_27512" data-name="Rectangle 27512" width="24.926" height="19.124" transform="translate(98.903 80.921) rotate(180)" fill="#7e59d1"/>
      <path id="Path_10856" data-name="Path 10856" d="M352.825,234.113a2.262,2.262,0,1,0,1.778-1.778A2.262,2.262,0,0,0,352.825,234.113Z" transform="translate(-276.369 -168.136)" fill="#fff" opacity="0.6"/>
      <path id="Path_10857" data-name="Path 10857" d="M367.23,248.455h16.7l-8.349-10.295Z" transform="translate(-285.032 -171.655)" fill="#7e59d1"/>
      <path id="Path_10858" data-name="Path 10858" d="M367.23,248.455h16.7l-8.349-10.295Z" transform="translate(-285.032 -171.655)" opacity="0.2"/>
      <path id="Path_10859" data-name="Path 10859" d="M346.69,253.853h14.815l-7.408-6.7Z" transform="translate(-272.717 -177.045)" fill="#7e59d1"/>
      <path id="Path_10860" data-name="Path 10860" d="M346.69,253.853h14.815l-7.408-6.7Z" transform="translate(-272.717 -177.045)" opacity="0.1"/>
      <rect id="Rectangle_27513" data-name="Rectangle 27513" width="24.926" height="4.12" transform="translate(73.973 76.8)" fill="#7e59d1"/>
      <rect id="Rectangle_27514" data-name="Rectangle 27514" width="24.926" height="4.12" transform="translate(73.973 76.8)" opacity="0.1"/>
      <rect id="Rectangle_27515" data-name="Rectangle 27515" width="18.724" height="1.574" transform="translate(14.912 61.793)" fill="#a6a6a6"/>
      <rect id="Rectangle_27516" data-name="Rectangle 27516" width="54.185" height="1.574" transform="translate(14.912 65.448)" fill="#ebebeb"/>
      <rect id="Rectangle_27517" data-name="Rectangle 27517" width="54.185" height="1.574" transform="translate(14.912 68.916)" fill="#ebebeb"/>
      <rect id="Rectangle_27518" data-name="Rectangle 27518" width="54.185" height="1.574" transform="translate(14.912 72.38)" fill="#ebebeb"/>
      <rect id="Rectangle_27519" data-name="Rectangle 27519" width="54.185" height="1.574" transform="translate(14.912 75.847)" fill="#ebebeb"/>
      <rect id="Rectangle_27520" data-name="Rectangle 27520" width="54.185" height="1.574" transform="translate(14.912 79.311)" fill="#ebebeb"/>
      <rect id="Rectangle_27521" data-name="Rectangle 27521" width="38.468" height="4.212" transform="translate(60.435 30.472)" fill="#a6a6a6"/>
      <rect id="Rectangle_27522" data-name="Rectangle 27522" width="38.468" height="1.574" transform="translate(60.435 37.591)" fill="#ebebeb"/>
      <rect id="Rectangle_27523" data-name="Rectangle 27523" width="38.468" height="1.574" transform="translate(60.435 41.055)" fill="#ebebeb"/>
      <rect id="Rectangle_27524" data-name="Rectangle 27524" width="38.468" height="1.574" transform="translate(60.435 44.523)" fill="#ebebeb"/>
      <rect id="Rectangle_27525" data-name="Rectangle 27525" width="38.468" height="1.574" transform="translate(60.435 47.986)" fill="#ebebeb"/>
      <rect id="Rectangle_27526" data-name="Rectangle 27526" width="38.468" height="1.574" transform="translate(60.435 52.599)" fill="#ebebeb"/>
      <rect id="Rectangle_27527" data-name="Rectangle 27527" width="38.468" height="1.574" transform="translate(60.435 56.063)" fill="#ebebeb"/>
      <path id="Path_10861" data-name="Path 10861" d="M239.773,175.091h-.8v-.3h.8Zm-1.6,0h-.8v-.3h.8Zm-1.6,0h-.8v-.3h.8Zm-1.6,0h-.8v-.3h.8Zm-1.6,0h-.8v-.3h.8Zm-1.6,0h-.8v-.3h.8Zm-1.6,0h-.8v-.3h.8Zm-1.6,0h-.8v-.3h.8Zm-1.6,0h-.8v-.3h.8Zm-1.6,0h-.8v-.3h.8Zm-1.6,0h-.8v-.3h.8Zm-1.6,0h-.8v-.3h.8Zm-1.6,0h-.8v-.3h.8Zm-1.6,0h-.8v-.3h.8Zm-1.6,0h-.8v-.3h.8Zm-1.6,0h-.8v-.3h.8Zm-1.6,0h-.8v-.3h.8Zm-1.6,0h-.8v-.3h.8Zm-1.6,0h-.8v-.3h.8Zm-1.6,0h-.8v-.3h.8Zm-1.6,0h-.8v-.3h.8Zm-1.6,0h-.8v-.3h.8Zm-1.6,0h-.8v-.3h.8Zm-1.6,0h-.8v-.3h.8Zm-1.6,0h-.8v-.3h.8Zm-1.6,0h-.921v-.148h.152v-.136h.769Zm40.194-.476h-.3v-.8h.3Zm-40.815-.5h-.3v-.8h.3Zm40.815-1.1h-.3v-.8h.3Zm-40.815-.5h-.3v-.8h.3Zm40.815-1.1h-.3v-.8h.3Zm-40.815-.5h-.3v-.8h.3Zm40.815-1.1h-.3v-.8h.3Zm-40.815-.5h-.3v-.8h.3Zm40.815-1.1h-.3v-.8h.3Zm-40.815-.5h-.3v-.8h.3Zm40.815-1.1h-.3v-.8h.3Zm-40.815-.5h-.3v-.8h.3Zm40.815-1.1h-.3v-.8h.3Zm-40.815-.5h-.3v-.8h.3Zm40.815-1.1h-.3v-.8h.3Zm-40.815-.5h-.3v-.8h.3Zm40.815-1.1h-.3V161h.3Zm-40.815-.5h-.3v-.8h.3Zm40.815-1.1h-.3v-.8h.3Zm-40.815-.5h-.3v-.8h.3Zm40.815-1.1h-.3v-.8h.3Zm-40.815-.5h-.3v-.8h.3Zm40.815-1.1h-.3v-.8h.3Zm-40.815-.5h-.3v-.8h.3Zm40.815-1.1h-.3v-.8h.3Zm-40.815-.5h-.3v-.8h.3Zm40.815-1.1h-.3v-.8h.3Zm-40.815-.5h-.3v-.8h.3Zm40.815-1.1h-.3v-.8h.3Zm-40.815-.5h-.3v-.8h.3Zm40.815-1.1h-.3v-.8h.3Zm-40.815-.5h-.3v-.8h.3Zm40.815-1.1h-.3v-.8h.3Zm-40.815-.5h-.3v-.713h.4v.3h-.088Zm40.13-.4h-.8v-.3h.8Zm-1.6,0h-.8v-.3h.8Zm-1.6,0h-.8v-.3h.8Zm-1.6,0h-.8v-.3h.8Zm-1.6,0h-.8v-.3h.8Zm-1.6,0h-.8v-.3h.8Zm-1.6,0h-.8v-.3h.8Zm-1.6,0h-.8v-.3h.8Zm-1.6,0h-.8v-.3h.8Zm-1.6,0h-.8v-.3h.8Zm-1.6,0h-.8v-.3h.8Zm-1.6,0h-.8v-.3h.8Zm-1.6,0h-.8v-.3h.8Zm-1.6,0h-.8v-.3h.8Zm-1.6,0h-.8v-.3h.8Zm-1.6,0h-.8v-.3h.8Zm-1.6,0h-.8v-.3h.8Zm-1.6,0h-.8v-.3h.8Zm-1.6,0h-.8v-.3h.8Zm-1.6,0h-.8v-.3h.8Zm-1.6,0h-.8v-.3h.8Zm-1.6,0h-.8v-.3h.8Zm-1.6,0h-.8v-.3h.8Zm-1.6,0h-.8v-.3h.8Zm-1.6,0H200v-.3h.8Z" transform="translate(-184.051 -117.458)" fill="#dbdbdb"/>
      <circle id="Ellipse_2982" data-name="Ellipse 2982" cx="3.684" cy="3.684" r="3.684" transform="translate(31.633 40.298)" fill="#7e59d1"/>
      <rect id="Rectangle_27528" data-name="Rectangle 27528" width="0.701" height="4.381" transform="translate(34.969 41.792)" fill="#fff"/>
      <rect id="Rectangle_27529" data-name="Rectangle 27529" width="0.701" height="4.381" transform="translate(37.503 43.634) rotate(90)" fill="#fff"/>
      <path id="Path_10862" data-name="Path 10862" d="M471.675,239.532h-.8v-.3h.8Zm-1.6,0h-.8v-.3h.8Zm-1.6,0h-.8v-.3h.8Zm-1.6,0h-.8v-.3h.8Zm-1.6,0h-.8v-.3h.8Zm-1.6,0h-.8v-.3h.8Zm-1.6,0h-.8v-.3h.8Zm-1.6,0h-.8v-.3h.8Zm-1.6,0h-.8v-.3h.8Zm-1.6,0h-.8v-.3h.8Zm-1.6,0h-.8v-.3h.8Zm-1.6,0h-.8v-.3h.8Zm-1.6,0h-.8v-.3h.8Zm-1.6,0h-.8v-.3h.8Zm-1.6,0h-.8v-.3h.8Zm-1.6,0h-.8v-.3h.8Zm-1.6,0h-.8v-.3h.8Zm-1.6,0h-.8v-.3h.8Zm-1.6,0h-.8v-.3h.8Zm-1.6,0h-.8v-.3h.8Zm-1.6,0h-.8v-.3h.8Zm-1.6,0h-.8v-.3h.8Zm-1.6,0h-.8v-.3h.8Zm-1.6,0h-.8v-.3h.8Zm-1.6,0h-.8v-.3h.8Zm-1.6,0h-.8v-.3h.8Zm-1.6,0h-.8v-.3h.8Zm-1.6,0h-.8v-.3h.8Zm-1.6,0h-.8v-.3h.8Zm-1.6,0h-.8v-.3h.8Zm-1.6,0h-.8v-.3h.8Zm-1.6,0h-.913v-.192h.152v-.108h.761Zm49.8-.565h-.3v-.8h.3Zm-50.413-.428h-.3v-.8h.3Zm50.413-1.173h-.3v-.8h.3Zm-50.413-.428h-.3v-.8h.3Zm50.413-1.173h-.3v-.8h.3Zm-50.413-.428h-.3v-.8h.3Zm50.413-1.173h-.3v-.8h.3Zm-50.413-.428h-.3v-.8h.3Zm50.413-1.173h-.3v-.8h.3Zm-50.413-.428h-.3v-.8h.3Zm50.413-1.173h-.3v-.8h.3Zm-50.413-.428h-.3v-.8h.3Zm50.413-1.173h-.3v-.8h.3Zm-50.413-.428h-.3v-.8h.3Zm50.413-1.173h-.3v-.8h.3Zm-50.413-.428h-.3v-.8h.3Zm50.413-1.173h-.3v-.8h.3Zm-50.413-.428h-.3v-.8h.3Zm50.413-1.173h-.3v-.8h.3Zm-50.413-.428h-.3v-.8h.3Zm50.413-1.173h-.3v-.8h.3Zm-50.413-.428h-.3v-.8h.3Zm50.413-1.173h-.3v-.8h.3Zm-50.413-.428h-.3v-.8h.3Zm50.413-1.173h-.3v-.8h.3Zm-50.413-.428h-.3v-.8h.3Zm50.413-1.173h-.3v-.8h.3Zm-50.413-.428h-.3v-.8h.3Zm50.413-1.173h-.3v-.084h-.4v-.3h.717Zm-1.518-.084h-.8v-.3h.8Zm-1.6,0h-.8v-.3h.8Zm-1.6,0h-.8v-.3h.8Zm-1.6,0h-.8v-.3h.8Zm-1.6,0h-.8v-.3h.8Zm-1.6,0h-.8v-.3h.8Zm-1.6,0h-.8v-.3h.8Zm-1.6,0h-.8v-.3h.8Zm-1.6,0h-.8v-.3h.8Zm-1.6,0h-.8v-.3h.8Zm-1.6,0h-.8v-.3h.8Zm-1.6,0h-.8v-.3h.8Zm-1.6,0h-.8v-.3h.8Zm-1.6,0h-.8v-.3h.8Zm-1.6,0h-.8v-.3h.8Zm-1.6,0h-.8v-.3h.8Zm-1.6,0h-.8v-.3h.8Zm-1.6,0h-.8v-.3h.8Zm-1.6,0h-.8v-.3h.8Zm-1.6,0h-.8v-.3h.8Zm-1.6,0h-.8v-.3h.8Zm-1.6,0h-.8v-.3h.8Zm-1.6,0h-.8v-.3h.8Zm-1.6,0h-.8v-.3h.8Zm-1.6,0h-.8v-.3h.8Zm-1.6,0h-.8v-.3h.8Zm-1.6,0h-.8v-.3h.8Zm-1.6,0h-.8v-.3h.8Zm-1.6,0h-.8v-.3h.8Zm-1.6,0h-.8v-.3h.8Zm-1.6,0h-.8v-.3h.8Z" transform="translate(-317.338 -158.464)" fill="#dbdbdb"/>
      <circle id="Ellipse_2983" data-name="Ellipse 2983" cx="3.684" cy="3.684" r="3.684" transform="translate(125.447 65.701)" fill="#7e59d1"/>
      <rect id="Rectangle_27530" data-name="Rectangle 27530" width="0.701" height="4.381" transform="translate(128.783 67.194)" fill="#fff"/>
      <rect id="Rectangle_27531" data-name="Rectangle 27531" width="0.701" height="4.381" transform="translate(131.317 69.036) rotate(90)" fill="#fff"/>
      <path id="Path_10863" data-name="Path 10863" d="M455.633,182.413h-.553v-.3h.252v-.252h.3Z" transform="translate(-337.705 -137.898)" fill="#dbdbdb"/>
      <path id="Path_10864" data-name="Path 10864" d="M435.922,182.79h-.765v-.3h.765Zm-1.534,0h-.769v-.3h.769Zm-1.534,0h-.769v-.3h.769Zm-1.538,0h-.769v-.3h.769Zm-1.534,0h-.769v-.3h.769Zm-1.538,0h-.769v-.3h.773Zm-1.534,0h-.769v-.3h.769Zm-1.538,0h-.765v-.3h.765Z" transform="translate(-319.316 -138.276)" fill="#dbdbdb"/>
      <path id="Path_10865" data-name="Path 10865" d="M421.663,182.413h-.553v-.553h.3v.252h.252Z" transform="translate(-317.338 -137.898)" fill="#dbdbdb"/>
      <path id="Path_10866" data-name="Path 10866" d="M421.41,162.756h-.3v-.8h.3Zm0-1.538h-.3v-.769h.3Zm0-1.534h-.3v-.769h.3Zm0-1.538h-.3v-.769h.3Zm0-1.534h-.3v-.769h.3Zm0-1.538h-.3v-.765h.3Zm0-1.534h-.3v-.8h.3Zm0-1.538h-.3v-.765h.3Z" transform="translate(-317.338 -119.539)" fill="#dbdbdb"/>
      <path id="Path_10867" data-name="Path 10867" d="M421.41,148.449h-.3V147.9h.553v.3h-.252Z" transform="translate(-317.338 -117.536)" fill="#dbdbdb"/>
      <path id="Path_10868" data-name="Path 10868" d="M435.926,148.19h-.769v-.3h.769Zm-1.538,0h-.769v-.3h.769Zm-1.534,0h-.769v-.3h.769Zm-1.538,0h-.769v-.3h.769Zm-1.534,0h-.769v-.3h.769Zm-1.538,0h-.765v-.3h.769Zm-1.534,0h-.769v-.3h.769Zm-1.538,0h-.765v-.3h.765Z" transform="translate(-319.316 -117.53)" fill="#dbdbdb"/>
      <path id="Path_10869" data-name="Path 10869" d="M455.633,148.449h-.3V148.2h-.252v-.3h.553Z" transform="translate(-337.705 -117.536)" fill="#dbdbdb"/>
      <path id="Path_10870" data-name="Path 10870" d="M456.01,162.756h-.3v-.8h.3Zm0-1.538h-.3v-.769h.3Zm0-1.534h-.3v-.769h.3Zm0-1.538h-.3v-.769h.3Zm0-1.534h-.3v-.769h.3Zm0-1.538h-.3v-.765h.3Zm0-1.534h-.3v-.8h.3Zm0-1.538h-.3v-.765h.3Z" transform="translate(-338.083 -119.539)" fill="#dbdbdb"/>
      <path id="Path_10871" data-name="Path 10871" d="M421.52,148.27c1.165,1.121,2.326,2.258,3.484,3.4l3.464,3.444,3.452,3.484,1.718,1.754,1.71,1.77-1.746-1.69-1.738-1.71-3.464-3.444-3.452-3.484C423.8,150.628,422.657,149.459,421.52,148.27Z" transform="translate(-317.583 -117.758)" fill="#dbdbdb"/>
      <path id="Path_10872" data-name="Path 10872" d="M435.346,148.27c-1.137,1.2-2.282,2.358-3.428,3.524l-3.452,3.484L425,158.721l-1.738,1.71-1.746,1.69,1.71-1.77,1.718-1.754,3.452-3.484,3.464-3.444C433.02,150.528,434.181,149.391,435.346,148.27Z" transform="translate(-317.584 -117.758)" fill="#dbdbdb"/>
      <path id="Path_10873" data-name="Path 10873" d="M483.054,161.513a2.767,2.767,0,1,1-2.763-2.763A2.767,2.767,0,0,1,483.054,161.513Z" transform="translate(-351.16 -124.042)" fill="#7e59d1"/>
      <rect id="Rectangle_27532" data-name="Rectangle 27532" width="0.525" height="3.287" transform="translate(128.867 35.829)" fill="#fff"/>
      <rect id="Rectangle_27533" data-name="Rectangle 27533" width="0.525" height="3.287" transform="translate(130.773 37.211) rotate(90)" fill="#fff"/>
      <path id="Path_10874" data-name="Path 10874" d="M501.283,182.5h-.553v-.3h.252v-.248h.3Z" transform="translate(-365.076 -137.952)" fill="#7e59d1"/>
      <path id="Path_10875" data-name="Path 10875" d="M481.576,182.87h-.769v-.3h.769Zm-1.538,0h-.765v-.3h.773Zm-1.534,0h-.769v-.3h.769Zm-1.538,0H476.2v-.3h.765Zm-1.534,0h-.769v-.3h.769Zm-1.534,0h-.769v-.3h.769Zm-1.538,0h-.769v-.3h.769Zm-1.534,0h-.769v-.3h.777Z" transform="translate(-346.687 -138.324)" fill="#7e59d1"/>
      <path id="Path_10876" data-name="Path 10876" d="M467.319,182.5h-.549v-.549h.3v.248h.248Z" transform="translate(-344.715 -137.952)" fill="#7e59d1"/>
      <path id="Path_10877" data-name="Path 10877" d="M467.07,162.756h-.3v-.765h.3Zm0-1.534h-.3v-.769h.3Zm0-1.538h-.3v-.765h.3Zm0-1.534h-.3v-.769h.3Zm0-1.538h-.3v-.765h.3Zm0-1.534h-.3v-.769h.3Zm0-1.534h-.3v-.769h.3Zm0-1.538h-.3v-.769h.3Z" transform="translate(-344.715 -119.539)" fill="#7e59d1"/>
      <path id="Path_10878" data-name="Path 10878" d="M467.07,148.533h-.3v-.553h.549v.3h-.248Z" transform="translate(-344.715 -117.584)" fill="#7e59d1"/>
      <path id="Path_10879" data-name="Path 10879" d="M481.576,148.292h-.769V148h.769Zm-1.538,0h-.765V148h.773Zm-1.534,0h-.769V148h.769Zm-1.538,0H476.2V148h.765Zm-1.534,0h-.769V148h.769Zm-1.534,0h-.769V148h.769Zm-1.538,0h-.769V148h.769Zm-1.534,0h-.769V148h.777Z" transform="translate(-346.687 -117.596)" fill="#7e59d1"/>
      <path id="Path_10880" data-name="Path 10880" d="M501.283,148.533h-.3v-.252h-.252v-.3h.553Z" transform="translate(-365.076 -117.584)" fill="#7e59d1"/>
      <path id="Path_10881" data-name="Path 10881" d="M501.66,162.756h-.3v-.765h.3Zm0-1.534h-.3v-.769h.3Zm0-1.538h-.3v-.765h.3Zm0-1.534h-.3v-.769h.3Zm0-1.538h-.3v-.765h.3Zm0-1.534h-.3v-.769h.3Zm0-1.534h-.3v-.769h.3Zm0-1.538h-.3v-.769h.3Z" transform="translate(-365.454 -119.539)" fill="#7e59d1"/>
      <path id="Path_10882" data-name="Path 10882" d="M512.85,148.36c1.169,1.121,2.326,2.258,3.484,3.4L519.8,155.2l3.448,3.48,1.718,1.758,1.714,1.77-1.758-1.694-1.738-1.706-3.468-3.444-3.448-3.484C515.136,150.718,513.987,149.545,512.85,148.36Z" transform="translate(-372.343 -117.812)" fill="#dbdbdb"/>
      <path id="Path_10883" data-name="Path 10883" d="M526.68,148.36q-1.706,1.778-3.432,3.524l-3.448,3.484-3.464,3.444-1.742,1.706-1.746,1.714,1.714-1.77,1.718-1.758,3.448-3.48,3.468-3.444C524.354,150.618,525.511,149.481,526.68,148.36Z" transform="translate(-372.343 -117.812)" fill="#dbdbdb"/>
      <path id="Path_10884" data-name="Path 10884" d="M546.969,182.413h-.549v-.3h.248v-.252h.3Z" transform="translate(-392.471 -137.898)" fill="#dbdbdb"/>
      <path id="Path_10885" data-name="Path 10885" d="M527.256,182.79h-.769v-.3h.769Zm-1.534,0h-.769v-.3h.769Zm-1.538,0h-.769v-.3h.769Zm-1.534,0h-.769v-.3h.769Zm-1.538,0h-.765v-.3h.765Zm-1.534,0h-.769v-.3h.769Zm-1.538,0h-.765v-.3h.765Zm-1.534,0h-.769v-.3h.769Z" transform="translate(-374.076 -138.276)" fill="#dbdbdb"/>
      <path id="Path_10886" data-name="Path 10886" d="M513,182.413h-.549v-.553h.3v.252H513Z" transform="translate(-372.103 -137.898)" fill="#dbdbdb"/>
      <path id="Path_10887" data-name="Path 10887" d="M512.75,162.756h-.3v-.8h.3Zm0-1.538h-.3v-.769h.3Zm0-1.534h-.3v-.769h.3Zm0-1.538h-.3v-.769h.3Zm0-1.534h-.3v-.769h.3Zm0-1.538h-.3v-.765h.3Zm0-1.534h-.3v-.8h.3Zm0-1.538h-.3v-.765h.3Z" transform="translate(-372.103 -119.539)" fill="#dbdbdb"/>
      <path id="Path_10888" data-name="Path 10888" d="M512.75,148.449h-.3V147.9H513v.3h-.248Z" transform="translate(-372.103 -117.536)" fill="#dbdbdb"/>
      <path id="Path_10889" data-name="Path 10889" d="M527.256,148.19h-.769v-.3h.769Zm-1.534,0h-.769v-.3h.769Zm-1.538,0h-.769v-.3h.769Zm-1.534,0h-.769v-.3h.769Zm-1.538,0h-.769v-.3h.769Zm-1.534,0h-.769v-.3h.769Zm-1.538,0h-.765v-.3h.765Zm-1.534,0h-.769v-.3h.769Z" transform="translate(-374.076 -117.53)" fill="#dbdbdb"/>
      <path id="Path_10890" data-name="Path 10890" d="M546.969,148.449h-.3V148.2h-.248v-.3h.549Z" transform="translate(-392.471 -117.536)" fill="#dbdbdb"/>
      <path id="Path_10891" data-name="Path 10891" d="M547.316,162.756H547v-.8h.3Zm0-1.538H547v-.769h.3Zm0-1.534H547v-.769h.3Zm0-1.538H547v-.769h.3Zm0-1.534H547v-.769h.3Zm0-1.538H547v-.765h.3Zm0-1.534H547v-.8h.3Zm0-1.538H547v-.765h.3Z" transform="translate(-392.819 -119.539)" fill="#dbdbdb"/>
      <rect id="Rectangle_27534" data-name="Rectangle 27534" width="50.501" height="6.186" transform="translate(103.925 47.986)" fill="#7e59d1"/>
    </g>
    <g id="freepik--Gears--inject-50" transform="translate(233.775 33.39)">
      <path id="Path_10892" data-name="Path 10892" d="M615.34,97.183a4.529,4.529,0,1,0,2.943,5.682A4.529,4.529,0,0,0,615.34,97.183Zm2.426,5.514a3.97,3.97,0,1,1-.262-3.029,3.972,3.972,0,0,1,.262,3.029Zm-2.426-5.514a4.529,4.529,0,1,0,2.943,5.682A4.529,4.529,0,0,0,615.34,97.183Zm2.426,5.514a3.97,3.97,0,1,1-.262-3.029,3.972,3.972,0,0,1,.262,3.029Zm-2.426-5.514a4.529,4.529,0,1,0,2.943,5.682A4.529,4.529,0,0,0,615.34,97.183Zm2.426,5.514a3.97,3.97,0,1,1-.262-3.029,3.972,3.972,0,0,1,.262,3.029ZM616.846,92.4a9.548,9.548,0,1,0,5.608,4.7,9.542,9.542,0,0,0-5.608-4.7Zm2.118,10.671a5.229,5.229,0,1,1-3.412-6.559,5.229,5.229,0,0,1,3.412,6.559Zm-.673-.212a126.236,126.236,0,1,1-.008,0Zm-.525-.164a3.97,3.97,0,1,1-.262-3.029,3.972,3.972,0,0,1,.262,3.029Zm-2.426-5.514a4.529,4.529,0,1,0,2.943,5.682A4.529,4.529,0,0,0,615.34,97.183Zm2.426,5.514a3.97,3.97,0,1,1-.262-3.029,3.972,3.972,0,0,1,.262,3.029Zm-2.426-5.514a4.529,4.529,0,1,0,2.943,5.682A4.529,4.529,0,0,0,615.34,97.183Zm2.426,5.514a3.97,3.97,0,1,1-.262-3.029,3.972,3.972,0,0,1,.262,3.029Z" transform="translate(-565.78 -68.509)" fill="#7e59d1"/>
      <path id="Path_10893" data-name="Path 10893" d="M619.634,137.3l-3.5-1.1-.585,2.539,3.111.981Z" transform="translate(-572.437 -95.033)" fill="#7e59d1"/>
      <path id="Path_10894" data-name="Path 10894" d="M604.194,125.9,602.5,122.64l-2.21,1.381,1.51,2.891Z" transform="translate(-563.287 -86.903)" fill="#7e59d1"/>
      <path id="Path_10895" data-name="Path 10895" d="M601.109,107.758l1.1-3.5-2.539-.589-.981,3.111Z" transform="translate(-562.328 -75.529)" fill="#7e59d1"/>
      <path id="Path_10896" data-name="Path 10896" d="M611.387,92.324l3.255-1.694-1.381-2.21-2.891,1.51Z" transform="translate(-569.331 -66.385)" fill="#7e59d1"/>
      <path id="Path_10897" data-name="Path 10897" d="M629.81,89.235l3.5,1.105.589-2.539-3.111-.981Z" transform="translate(-580.987 -65.426)" fill="#7e59d1"/>
      <path id="Path_10898" data-name="Path 10898" d="M645.51,99.511l1.694,3.251,2.21-1.377-1.505-2.9Z" transform="translate(-590.401 -72.423)" fill="#7e59d1"/>
      <path id="Path_10899" data-name="Path 10899" d="M649.175,117.93l-1.105,3.5,2.539.589.981-3.115Z" transform="translate(-591.935 -84.079)" fill="#7e59d1"/>
      <path id="Path_10900" data-name="Path 10900" d="M637.771,133.64l-3.251,1.694,1.377,2.21,2.9-1.51Z" transform="translate(-583.811 -93.498)" fill="#7e59d1"/>
      <path id="Path_10901" data-name="Path 10901" d="M518.543,56.4a2.9,2.9,0,1,0,1.894,3.64A2.9,2.9,0,0,0,518.543,56.4ZM520.1,59.94a2.547,2.547,0,1,1-1.662-3.2,2.547,2.547,0,0,1,1.662,3.2ZM518.543,56.4a2.9,2.9,0,1,0,1.894,3.64A2.9,2.9,0,0,0,518.543,56.4ZM520.1,59.94a2.547,2.547,0,1,1-1.662-3.2,2.547,2.547,0,0,1,1.662,3.2ZM518.543,56.4a2.9,2.9,0,1,0,1.894,3.64A2.9,2.9,0,0,0,518.543,56.4ZM520.1,59.94a2.547,2.547,0,1,1-1.662-3.2,2.547,2.547,0,0,1,1.662,3.2Zm-.589-6.6a6.118,6.118,0,1,0,4,7.672,6.118,6.118,0,0,0-4-7.672Zm1.357,6.843a3.351,3.351,0,1,1-2.19-4.2,3.351,3.351,0,0,1,2.19,4.2Zm-.432-.136a2.9,2.9,0,1,0-3.636,1.9,2.9,2.9,0,0,0,3.636-1.9Zm-.336-.1a2.547,2.547,0,1,1-1.662-3.2A2.547,2.547,0,0,1,520.1,59.94ZM518.543,56.4a2.9,2.9,0,1,0,1.894,3.64A2.9,2.9,0,0,0,518.543,56.4ZM520.1,59.94a2.547,2.547,0,1,1-1.662-3.2,2.547,2.547,0,0,1,1.662,3.2ZM518.543,56.4a2.9,2.9,0,1,0,1.894,3.64A2.9,2.9,0,0,0,518.543,56.4ZM520.1,59.94a2.547,2.547,0,1,1-1.662-3.2,2.547,2.547,0,0,1,1.662,3.2Z" transform="translate(-510.086 -45.18)" fill="#7e59d1"/>
      <path id="Path_10902" data-name="Path 10902" d="M521.3,82.125l-2.242-.7-.376,1.626,1.994.629Z" transform="translate(-514.355 -62.188)" fill="#7e59d1"/>
      <path id="Path_10903" data-name="Path 10903" d="M511.407,74.81l-1.089-2.09L508.9,73.6l.969,1.858Z" transform="translate(-508.492 -56.972)" fill="#7e59d1"/>
      <path id="Path_10904" data-name="Path 10904" d="M509.43,63.183l.7-2.246-1.626-.376-.629,2Z" transform="translate(-507.88 -49.681)" fill="#7e59d1"/>
      <path id="Path_10905" data-name="Path 10905" d="M516.013,53.293,518.1,52.2l-.881-1.413-1.858.965Z" transform="translate(-512.365 -43.823)" fill="#7e59d1"/>
      <path id="Path_10906" data-name="Path 10906" d="M527.82,51.31l2.246.7.376-1.626-2-.629Z" transform="translate(-519.836 -43.205)" fill="#7e59d1"/>
      <path id="Path_10907" data-name="Path 10907" d="M537.89,57.9l1.089,2.082,1.414-.881-.965-1.858Z" transform="translate(-525.874 -47.69)" fill="#7e59d1"/>
      <path id="Path_10908" data-name="Path 10908" d="M540.245,69.7l-.7,2.246,1.626.376.629-2Z" transform="translate(-526.863 -55.161)" fill="#7e59d1"/>
      <path id="Path_10909" data-name="Path 10909" d="M532.926,79.77l-2.086,1.089.885,1.413,1.858-.965Z" transform="translate(-521.646 -61.199)" fill="#7e59d1"/>
      <g id="Group_10591" data-name="Group 10591" transform="translate(0 6.555)" opacity="0.6">
        <path id="Path_10910" data-name="Path 10910" d="M518.543,56.4a2.9,2.9,0,1,0,1.894,3.64A2.9,2.9,0,0,0,518.543,56.4ZM520.1,59.94a2.547,2.547,0,1,1-1.662-3.2,2.547,2.547,0,0,1,1.662,3.2ZM518.543,56.4a2.9,2.9,0,1,0,1.894,3.64A2.9,2.9,0,0,0,518.543,56.4ZM520.1,59.94a2.547,2.547,0,1,1-1.662-3.2,2.547,2.547,0,0,1,1.662,3.2ZM518.543,56.4a2.9,2.9,0,1,0,1.894,3.64A2.9,2.9,0,0,0,518.543,56.4ZM520.1,59.94a2.547,2.547,0,1,1-1.662-3.2,2.547,2.547,0,0,1,1.662,3.2Zm-.589-6.6a6.118,6.118,0,1,0,4,7.672,6.118,6.118,0,0,0-4-7.672Zm1.357,6.843a3.351,3.351,0,1,1-2.19-4.2,3.351,3.351,0,0,1,2.19,4.2Zm-.432-.136a2.9,2.9,0,1,0-3.636,1.9,2.9,2.9,0,0,0,3.636-1.9Zm-.336-.1a2.547,2.547,0,1,1-1.662-3.2A2.547,2.547,0,0,1,520.1,59.94ZM518.543,56.4a2.9,2.9,0,1,0,1.894,3.64A2.9,2.9,0,0,0,518.543,56.4ZM520.1,59.94a2.547,2.547,0,1,1-1.662-3.2,2.547,2.547,0,0,1,1.662,3.2ZM518.543,56.4a2.9,2.9,0,1,0,1.894,3.64A2.9,2.9,0,0,0,518.543,56.4ZM520.1,59.94a2.547,2.547,0,1,1-1.662-3.2,2.547,2.547,0,0,1,1.662,3.2Z" transform="translate(-510.086 -51.735)" fill="#fff"/>
        <path id="Path_10911" data-name="Path 10911" d="M521.3,82.125l-2.242-.7-.376,1.626,1.994.629Z" transform="translate(-514.355 -68.743)" fill="#fff"/>
        <path id="Path_10912" data-name="Path 10912" d="M511.407,74.81l-1.089-2.09L508.9,73.6l.969,1.858Z" transform="translate(-508.492 -63.526)" fill="#fff"/>
        <path id="Path_10913" data-name="Path 10913" d="M509.43,63.183l.7-2.246-1.626-.376-.629,2Z" transform="translate(-507.88 -56.235)" fill="#fff"/>
        <path id="Path_10914" data-name="Path 10914" d="M516.013,53.293,518.1,52.2l-.881-1.413-1.858.965Z" transform="translate(-512.365 -50.378)" fill="#fff"/>
        <path id="Path_10915" data-name="Path 10915" d="M527.82,51.31l2.246.7.376-1.626-2-.629Z" transform="translate(-519.836 -49.76)" fill="#fff"/>
        <path id="Path_10916" data-name="Path 10916" d="M537.89,57.9l1.089,2.082,1.414-.881-.965-1.858Z" transform="translate(-525.874 -54.245)" fill="#fff"/>
        <path id="Path_10917" data-name="Path 10917" d="M540.245,69.7l-.7,2.246,1.626.376.629-2Z" transform="translate(-526.863 -61.716)" fill="#fff"/>
        <path id="Path_10918" data-name="Path 10918" d="M532.926,79.77l-2.086,1.089.885,1.413,1.858-.965Z" transform="translate(-521.646 -67.753)" fill="#fff"/>
      </g>
      <path id="Path_10919" data-name="Path 10919" d="M577.409,54.863a11.952,11.952,0,1,0-14.439,8.785A11.952,11.952,0,0,0,577.409,54.863Zm-6.19-1.506a5.582,5.582,0,1,1-4.1-6.743A5.582,5.582,0,0,1,571.219,53.358Z" transform="translate(-535.437 -37.401)" fill="#263238"/>
      <path id="Path_10920" data-name="Path 10920" d="M575.035,97.465,570.57,96.38,570.05,99.6l3.972.969Z" transform="translate(-545.156 -71.158)" fill="#263238"/>
      <path id="Path_10921" data-name="Path 10921" d="M554.657,84.288l-2.391-3.928-2.647,1.906,2.122,3.492Z" transform="translate(-532.907 -61.552)" fill="#263238"/>
      <path id="Path_10922" data-name="Path 10922" d="M549.5,62.019l1.089-4.465-3.223-.525L546.4,61Z" transform="translate(-530.976 -47.564)" fill="#263238"/>
      <path id="Path_10923" data-name="Path 10923" d="M560.874,41.643l3.924-2.386-1.906-2.647L559.4,38.732Z" transform="translate(-538.771 -35.321)" fill="#263238"/>
      <path id="Path_10924" data-name="Path 10924" d="M583.75,36.489l4.465,1.089.525-3.219-3.972-.969Z" transform="translate(-553.37 -33.39)" fill="#263238"/>
      <path id="Path_10925" data-name="Path 10925" d="M604.06,47.854l2.387,3.928,2.647-1.91-2.122-3.492Z" transform="translate(-565.548 -41.179)" fill="#263238"/>
      <path id="Path_10926" data-name="Path 10926" d="M610.479,70.74,609.39,75.2l3.219.521.969-3.968Z" transform="translate(-568.744 -55.784)" fill="#263238"/>
      <path id="Path_10927" data-name="Path 10927" d="M597.3,91.05l-3.928,2.386,1.91,2.647,3.492-2.122Z" transform="translate(-559.138 -67.962)" fill="#263238"/>
      <path id="Path_10928" data-name="Path 10928" d="M574.266,66.12l3.6,1.962,3.472-2.13-.1-4.084-3.58-1.958-3.5,2.118Zm3.8-3.372a1.3,1.3,0,1,1-1.558.941A1.3,1.3,0,0,1,578.062,62.749Z" transform="translate(-547.626 -49.291)" fill="#263238"/>
    </g>
    <g id="freepik--character-2--inject-50" transform="translate(228.699 78.483)">
      <path id="Path_10929" data-name="Path 10929" d="M560.417,169.628l2.359.44a7.316,7.316,0,0,0,1.462-4.224,8.422,8.422,0,0,1-.264,4.449c2.491.468,5.878,1.1,8.841,1.6.248-1.149.525-2.206.525-2.206a13.176,13.176,0,0,0,.12,2.322c.4.076.8.14,1.2.208a45.534,45.534,0,0,1,1.005-4.877,15.952,15.952,0,0,0,.665,5.205,17.494,17.494,0,0,0,3.063.4c-2.322-3.732.072-5.277-.268-8.293-.4-3.6-3.3-4.641-2.8-7.208.4-2.1,1.293-5.882-1.237-7.131a5.206,5.206,0,0,0-5.4-1.97c-4.473.929-3.864,7.7-4.365,8.981-.717,1.822-1.726,2.342-2.747,4.4s-.28,3.68-.4,5.177S559.944,169.548,560.417,169.628Z" transform="translate(-534.263 -147.323)" fill="#263238"/>
      <path id="Path_10930" data-name="Path 10930" d="M603.1,185.482a7.554,7.554,0,0,1-.617-2,3.944,3.944,0,0,1,.332-1.982c.236-.653.5-1.321.685-2.026a5.607,5.607,0,0,0,.144-2.206,4.872,4.872,0,0,0-.833-2.058,12.933,12.933,0,0,0-1.4-1.646,8.011,8.011,0,0,1-1.273-1.63,3.868,3.868,0,0,1-.448-2,3.6,3.6,0,0,0,.216,2.122,7.4,7.4,0,0,0,1.2,1.8,16.055,16.055,0,0,1,1.277,1.642,4.676,4.676,0,0,1,.713,1.854,5.45,5.45,0,0,1-.124,2c-.148.669-.4,1.325-.589,2a7.444,7.444,0,0,0-.24,1.061,3.06,3.06,0,0,0,.064,1.113A6.1,6.1,0,0,0,603.1,185.482Z" transform="translate(-557.811 -160.35)" fill="#263238"/>
      <path id="Path_10931" data-name="Path 10931" d="M565.98,153.5a10.739,10.739,0,0,0-.981,2.427c-.248.837-.452,1.686-.645,2.531l-.28,1.249a6.309,6.309,0,0,1-.4,1.2,6.958,6.958,0,0,1-1.5,2,10.3,10.3,0,0,0-.873,1.017,6.254,6.254,0,0,0-.673,1.181,8.863,8.863,0,0,0-.4,1.289,5.407,5.407,0,0,0-.156,1.317c0,.452.06.889.1,1.313a7.065,7.065,0,0,1,0,1.269,2.667,2.667,0,0,1-1.389,2,2.7,2.7,0,0,0,1.654-1.966,6.5,6.5,0,0,0,.1-1.329c0-.444-.044-.873-.028-1.289a7.015,7.015,0,0,1,.6-2.427,5.812,5.812,0,0,1,.629-1.065,9.2,9.2,0,0,1,.833-.953c.3-.312.6-.637.885-.993a5.515,5.515,0,0,0,.7-1.173,7.105,7.105,0,0,0,.4-1.293c.092-.432.172-.861.248-1.285.156-.857.3-1.71.48-2.555A12.587,12.587,0,0,1,565.98,153.5Z" transform="translate(-533.322 -150.499)" fill="#263238"/>
      <path id="Path_10932" data-name="Path 10932" d="M541.448,418.528c.8.256,23.264-.036,24.113-.593.328-.2.477-3.48.541-7.448v-.124c0-.8.028-1.658.028-2.511V407.5c.032-5.722-.06-11.66-.06-11.66l-15.036.152.424,11.548.02.461.088,2.4v.244s-8.553,3.96-9.422,4.669S540.647,418.279,541.448,418.528Z" transform="translate(-522.709 -295.801)" fill="#ffc4c0"/>
      <path id="Path_10933" data-name="Path 10933" d="M558.83,436.552c.06,0,.088-.032.092-.052Z" transform="translate(-533.352 -320.18)" fill="#7e59d1"/>
      <path id="Path_10934" data-name="Path 10934" d="M541.461,442.4c.8.252,23.26-.036,24.109-.593.288-.18.44-2.8.516-6.154-4.12.861-20.077,4.088-20.513,2.723-.172-.537,1.2-1.462,2.054-2a51.789,51.789,0,0,0-5.434,2.8C541.325,439.878,540.66,442.145,541.461,442.4Z" transform="translate(-522.722 -319.671)" fill="#263238"/>
      <path id="Path_10935" data-name="Path 10935" d="M584.931,234.15s-3.372,37.98-3.924,40.879c-.128.661-.2,4.248-.256,8.865-.116,10.067-.048,28.221-.048,28.221H564.85s.473-31.457,1.173-37.239,5.205-40.718,5.205-40.718Z" transform="translate(-536.962 -198.855)" fill="#263238"/>
      <path id="Path_10936" data-name="Path 10936" d="M566.586,421.831c2.471-.052,1.762-.072,4.237-.1,1.2,0,9.158-.08,10.291.108a.024.024,0,0,1,0,.048c-1.133.188-9.081.12-10.291.108-2.475-.024-1.766-.044-4.237-.1a.036.036,0,0,1,0-.072Z" transform="translate(-537.981 -311.317)" fill="#37474f"/>
      <path id="Path_10937" data-name="Path 10937" d="M596.744,294.037q.032-3.448.052-6.9c0-2.226,0-4.453.12-6.679.212-4.5,1.125-8.925,1.778-13.378s1.2-8.925,1.682-13.4c.549-5.021,1.037-10.047,1.554-15.068,0-.036.056-.036.052,0-.745,8.969-1.578,17.935-2.823,26.852q-.461,3.328-1.009,6.639c-.372,2.234-.741,4.473-.917,6.735s-.2,4.433-.22,6.651q-.036,3.448-.068,6.891c-.052,5.1-.1,12.949-.152,18.051a.076.076,0,1,1-.152,0C596.676,305.886,596.712,298.586,596.744,294.037Z" transform="translate(-556.023 -201.519)" fill="#37474f"/>
      <path id="Path_10938" data-name="Path 10938" d="M600.75,234.15s-6.715,37.98-7.268,40.879c-.128.661-.2,4.248-.256,8.865h0L585.67,234.15Z" transform="translate(-549.445 -198.855)" fill="#37474f"/>
      <path id="Path_10939" data-name="Path 10939" d="M633.414,409.049c.821-.128,20.742-10.539,21.246-11.416.2-.332-1.149-3.323-2.883-6.891l-.052-.112c-.356-.733-7.472-12.729-7.472-12.729L632,385.108l6.807,12.113.12.216s-5.842,7.4-6.3,8.409S632.6,409.173,633.414,409.049Z" transform="translate(-577.224 -285.045)" fill="#ffc4c0"/>
      <path id="Path_10940" data-name="Path 10940" d="M634.07,430.556c.8-.128,20.738-10.539,21.242-11.42.168-.28-.8-2.507-2.15-5.366-2.855,2.158-16.641,12.513-17.65,11.436-.212-.228-.052-.765.228-1.341a36.3,36.3,0,0,0-2.471,3.484C632.82,428.365,633.249,430.68,634.07,430.556Z" transform="translate(-577.876 -306.552)" fill="#263238"/>
      <path id="Path_10941" data-name="Path 10941" d="M606.269,310.552l14.519-8.969s-16.818-24.025-16.878-26.167c-.116-3.175-1.638-16.273-2.915-26.88,0,0,2.423-5.742-2.114-14.415H580.69s1.2,8.257,3.307,13.49a24.226,24.226,0,0,1,4.044,1.846s1.81,23.645,1.878,26.6C590.052,281.882,606.269,310.552,606.269,310.552Z" transform="translate(-546.459 -198.837)" fill="#263238"/>
      <path id="Path_10942" data-name="Path 10942" d="M642.3,405.464c2.094-1.317,1.478-.969,3.584-2.258,1.033-.633,7.82-4.773,8.885-5.205.024,0,.048.028.028.044-.873.741-7.732,4.765-8.777,5.374-2.134,1.249-1.534.869-3.684,2.094a.036.036,0,1,1-.036-.048Z" transform="translate(-583.379 -297.097)" fill="#37474f"/>
      <path id="Path_10943" data-name="Path 10943" d="M587.017,266.9a30.075,30.075,0,0,1,4.733,2.206.053.053,0,0,1-.044.1c-1.6-.685-3.223-1.341-4.777-2.114a.1.1,0,0,1,.088-.188Z" transform="translate(-550.168 -218.487)" fill="#37474f"/>
      <path id="Path_10944" data-name="Path 10944" d="M588.522,247.813c-.156-.949-.284-1.9-.364-2.863a26.2,26.2,0,0,1,.056-5.374.048.048,0,0,1,.092,0,49.841,49.841,0,0,0,.432,7.412c.18,1.181.773,2.959-.461,3.143s-2.07-2.8-2.226-3.6a27.174,27.174,0,0,1-.264-7.027c0-.056.1-.068.1,0a53.246,53.246,0,0,0,.267,5.319c.073.811.734,5.372,2.159,5.04.24-.056.36-.288.4-.649a5.725,5.725,0,0,0-.192-1.393" transform="translate(-549.446 -202.035)" fill="#37474f"/>
      <path id="Path_10945" data-name="Path 10945" d="M591.722,265.6a7.669,7.669,0,0,1,.32.941,2.123,2.123,0,0,1,.132.773c0,.048-.072.052-.1.02a2.75,2.75,0,0,1-.328-.753c-.108-.292-.224-.581-.324-.873a.16.16,0,0,1,.3-.108Z" transform="translate(-552.891 -217.656)" fill="#37474f"/>
      <path id="Path_10946" data-name="Path 10946" d="M620.78,237a17.056,17.056,0,0,1,1.433,2.971,18.7,18.7,0,0,1,.881,3.2c.116.541.164,1.093.236,1.642a9.551,9.551,0,0,1,.06,1.658,17.592,17.592,0,0,1-.348,3.3v-.04q.733,6.871,1.409,13.738t1.357,13.742l.044.432v.212a.535.535,0,0,0,.032.188,6.161,6.161,0,0,0,.4.725c.284.5.585.985.881,1.478l1.822,2.931,3.684,5.842,7.416,11.644c-2.563-3.824-5.121-7.652-7.632-11.516-1.257-1.93-2.519-3.856-3.752-5.8l-1.83-2.935c-.3-.492-.6-.985-.893-1.486a7.081,7.081,0,0,1-.4-.8.883.883,0,0,1-.048-.236l-.02-.212-.044-.432q-.7-6.871-1.353-13.75t-1.3-13.758v-.04a17.413,17.413,0,0,0,.4-3.251,13.97,13.97,0,0,0-.032-1.638,12.408,12.408,0,0,0-.2-1.63,18.306,18.306,0,0,0-.8-3.2A16.572,16.572,0,0,0,620.78,237Z" transform="translate(-570.497 -200.564)" fill="#37474f"/>
      <path id="Path_10947" data-name="Path 10947" d="M552.3,189.355c-.633,2.991-3.836,13.114-7,15.392-2.266,1.638-10.051,3.151-16.045,3.079-2.078-.024-.729-8.849,1.229-9.93,1.173-.653,9.926-.192,11.284-.733,1.017-.4,3.368-5.4,7.608-9.906C551.7,184.79,553.154,185.335,552.3,189.355Z" transform="translate(-514.996 -169.848)" fill="#ffc4c0"/>
      <path id="Path_10948" data-name="Path 10948" d="M509.993,223.428c-1.2,0-7.9-.036-9.378-.517s-5.654-2.174-5.4-3.347,1.514-.773,1.514-.773-1.65-1-1.285-2.154,2.3-.472,2.3-.472-1.6-1.145-1.173-2.274,2.278-.116,2.278-.116-1.526-.977-.769-1.754c.909-.933,3.524,1.2,5.205,1.6.4.092,7.856,1.325,7.856,1.325Z" transform="translate(-495.203 -185.446)" fill="#ffc4c0"/>
      <path id="Path_10949" data-name="Path 10949" d="M503.737,216.5a8.692,8.692,0,0,0,5.458,2.182c.044,0,.048.076,0,.076-2.4-.06-3.852-.292-5.538-2.166C503.577,216.5,503.645,216.424,503.737,216.5Z" transform="translate(-500.25 -188.252)" fill="#263238"/>
      <path id="Path_10950" data-name="Path 10950" d="M501.02,222.371a13.016,13.016,0,0,0,5.854,2.306c.036,0,.028.068,0,.064-2.5-.264-3.952-.533-5.9-2.25C500.875,222.415,500.924,222.307,501.02,222.371Z" transform="translate(-498.63 -191.781)" fill="#263238"/>
      <path id="Path_10951" data-name="Path 10951" d="M499.159,229.271a11.742,11.742,0,0,0,5.97,1.878.048.048,0,0,1,0,.092,8.327,8.327,0,0,1-6.006-1.9C499,229.243,499.027,229.191,499.159,229.271Z" transform="translate(-497.507 -195.906)" fill="#263238"/>
      <path id="Path_10952" data-name="Path 10952" d="M523.5,213.1a23.641,23.641,0,0,0-3.852-2.739c-1.285-.545-6.807-.8-6.939.376-.164,1.538,3,2.322,4.6,2.5,0,0-.4,3.56,1.77,4.613S523.5,213.1,523.5,213.1Z" transform="translate(-505.697 -184.319)" fill="#ffc4c0"/>
      <path id="Path_10953" data-name="Path 10953" d="M512.958,213.071c.865,1.51,2.979,1.6,4.517,1.906a.14.14,0,0,1,.1.208c-.06,1.5.292,3.64,1.558,4.6a.036.036,0,1,1-.036.06c-1.5-.841-2-2.911-1.846-4.553-1.582-.276-3.7-.473-4.312-2.21C512.918,213.067,512.934,213.059,512.958,213.071Z" transform="translate(-505.832 -186.213)" fill="#263238"/>
      <path id="Path_10954" data-name="Path 10954" d="M568.848,203.251,565,193.325a93.5,93.5,0,0,1,6.17-8.345c3.2-3.768,5.013-3.7,3.684,2.334S571.263,200.444,568.848,203.251Z" transform="translate(-537.052 -167.836)" fill="#7e59d1"/>
      <path id="Path_10955" data-name="Path 10955" d="M568.848,203.251,565,193.325a93.5,93.5,0,0,1,6.17-8.345c3.2-3.768,5.013-3.7,3.684,2.334S571.263,200.444,568.848,203.251Z" transform="translate(-537.052 -167.836)" fill="#f2b636"/>
      <path id="Path_10956" data-name="Path 10956" d="M575.58,182.68a.524.524,0,0,1-.52.4.4.4,0,0,1-.152-.028A3.324,3.324,0,0,1,575.58,182.68Zm-3.908,5.205a.545.545,0,1,0,.5.543A.545.545,0,0,0,571.672,187.885Zm3.388,0a.545.545,0,1,0,.5.543A.544.544,0,0,0,575.06,187.885Zm-1.694-2.9a.545.545,0,1,0,.5.543A.545.545,0,0,0,573.366,184.99Zm3.388,0a.545.545,0,0,0,0,1.085c.064-.4.108-.745.132-1.065a.344.344,0,0,0-.132-.036Zm-8.469,8.741a.545.545,0,1,0,.545.545A.545.545,0,0,0,568.285,193.732Zm3.387,0a.545.545,0,1,0,.5.543A.545.545,0,0,0,571.672,193.732Zm2.843.545a.51.51,0,0,0,.08.276c.08-.252.16-.509.236-.769A.537.537,0,0,0,574.515,194.276Zm-4.537-3.44a.545.545,0,1,0,.5.543A.545.545,0,0,0,569.978,190.837Zm3.388,0a.545.545,0,1,0,.5.543A.545.545,0,0,0,573.366,190.837Zm-1.694,8.757a.545.545,0,1,0,.541.545A.545.545,0,0,0,571.672,199.594Zm-1.694-2.895a.545.545,0,1,0,.541.545.545.545,0,0,0-.541-.545Zm3.388,0a.545.545,0,1,0,0,1.085.472.472,0,0,0,.108,0c.108-.28.216-.569.32-.857a.528.528,0,0,0-.429-.228Zm-3.2,5.9.288.737a.509.509,0,0,0,.056-.232.537.537,0,0,0-.332-.5Z" transform="translate(-538.695 -167.995)" fill="#fff"/>
      <path id="Path_10957" data-name="Path 10957" d="M567.07,195.5l3.019,7.748c2.4-2.8,4.653-9.906,5.986-15.937.765-3.46.493-4.961-.484-4.9Z" transform="translate(-538.293 -167.836)" opacity="0.1"/>
      <path id="Path_10958" data-name="Path 10958" d="M568.007,208.589c.609,1.345,1.169,2.7,1.682,4.084.26.693.509,1.393.749,2.094s.436,1.441.665,2.162c0,.036-.044.052-.056,0-.489-1.4-1.029-2.8-1.546-4.176s-1.029-2.775-1.542-4.16C567.95,208.581,567.995,208.561,568.007,208.589Z" transform="translate(-538.825 -183.52)" fill="#263238"/>
      <path id="Path_10959" data-name="Path 10959" d="M576.328,203.324l20.117-.228s-6.327-17.346-11.212-21.29c-2.222-1.794-4.068-1.2-5.482.34-.352.4-4.425,7.372-4.537,9.61-.1,2,1.778,3.916,1.778,3.916Z" transform="translate(-543.174 -166.808)" fill="#f2b636"/>
      <path id="Path_10960" data-name="Path 10960" d="M583.979,181.545a.541.541,0,1,1-.158-.386A.545.545,0,0,1,583.979,181.545Zm-3.936,5.318a.545.545,0,1,0,.5.543A.545.545,0,0,0,580.042,186.862Zm3.383,0a.541.541,0,1,0,.008,0Zm3.388,0a.541.541,0,1,0,.008,0Zm2.887.344a.473.473,0,0,0-.04.2.537.537,0,0,0,.456.533c-.128-.248-.268-.493-.408-.733Zm-10.951-2.33a.451.451,0,0,0,.108-.2.829.829,0,0,1-.1.2Zm2.987-.909a.537.537,0,1,0,.008,0Zm3.384,0a.541.541,0,1,0,.008,0Zm2.851.521a.052.052,0,0,0,0,.024.533.533,0,0,0,.376.513c-.12-.184-.244-.364-.368-.537Zm-11.316,8.237a.545.545,0,1,0,.5.543A.545.545,0,0,0,576.655,192.724Zm3.388,0a.545.545,0,1,0,.5.543A.545.545,0,0,0,580.042,192.724Zm3.384,0a.541.541,0,1,0,.008,0Zm3.388,0a.541.541,0,1,0,.008,0Zm3.388,0a.541.541,0,1,0,.008,0Zm-11.852-2.9a.545.545,0,1,0,.5.543A.545.545,0,0,0,578.349,189.829Zm3.388,0a.537.537,0,1,0,.008,0Zm3.383,0a.541.541,0,1,0,.008,0Zm3.388,0a.541.541,0,1,0,.008,0Zm2.855.452a.34.34,0,0,0,0,.092.525.525,0,0,0,.3.477Zm-11.32,8.3a.545.545,0,1,0,.54.545A.545.545,0,0,0,580.042,198.586Zm3.383,0a.543.543,0,1,0,.008,0Zm3.388,0a.543.543,0,1,0,.008,0Zm3.388,0a.543.543,0,1,0,.008,0Zm3.387,0a.541.541,0,1,0,.008,0Zm-15.24-2.9a.537.537,0,1,0,.008,0Zm3.387,0a.537.537,0,1,0,.008,0Zm3.384,0a.541.541,0,1,0,.008,0Zm3.388,0a.541.541,0,1,0,.008,0Zm3.387,0a.541.541,0,1,0,.008,0Zm-13.546,5.862a.537.537,0,1,0,.008,0Zm3.388,0a.537.537,0,1,0,.008,0Zm3.384,0a.543.543,0,1,0,.008,0Zm3.388,0a.543.543,0,1,0,.008,0Zm3.388,0a.541.541,0,1,0,.008,0Zm3.388,0a.537.537,0,1,0,.008,0Z" transform="translate(-543.685 -166.987)" fill="#fff"/>
      <path id="Path_10961" data-name="Path 10961" d="M587.4,215.379a19.482,19.482,0,0,1,2.835.553c.461.136.913.288,1.365.452.224.08.448.156.677.228a3.045,3.045,0,0,0,.729.16c.024,0,0,.036,0,.036a6.012,6.012,0,0,1-.709-.036,5.548,5.548,0,0,1-.669-.148c-.469-.132-.929-.284-1.4-.4-.941-.276-1.886-.549-2.843-.753C587.338,215.447,587.354,215.371,587.4,215.379Z" transform="translate(-550.457 -187.6)" fill="#263238"/>
      <path id="Path_10962" data-name="Path 10962" d="M581.426,217.231a21.543,21.543,0,0,1,2.4-.044,10.147,10.147,0,0,1,1.2.108q.284.036.565.084c.208.032.4.092.617.12v.036c-.2-.024-.4,0-.593-.024l-.593-.032-1.2-.064c-.8-.052-1.582-.1-2.378-.12C581.382,217.3,581.386,217.235,581.426,217.231Z" transform="translate(-546.883 -188.676)" fill="#263238"/>
      <path id="Path_10963" data-name="Path 10963" d="M587.822,173.562c-.032.372-1.405,2.991-3.071,3.163-.545.056-.981-2.9-.981-2.9l-.084-.212-1.145-2.951,3.235-2.847.472-.38s.26.825.577,1.858a.559.559,0,0,0,.044.148,1.617,1.617,0,0,1,.052.168q.076.232.144.468c.036.12.072.236.1.364s.068.252.1.376A20.647,20.647,0,0,1,587.822,173.562Z" transform="translate(-547.568 -158.857)" fill="#ffc4c0"/>
      <path id="Path_10964" data-name="Path 10964" d="M586.824,169.3a6.343,6.343,0,0,1-3.139,4.321l-1.145-2.951,3.235-2.847.472-.38S586.508,168.265,586.824,169.3Z" transform="translate(-547.568 -158.857)" fill="#263238"/>
      <path id="Path_10965" data-name="Path 10965" d="M570.577,153.243c-1.229,5.418,1.878,6.763,3.047,7.027,1.061.236,4.7.917,6.483-4.345s-.344-7.548-2.723-8.237S571.81,147.825,570.577,153.243Z" transform="translate(-540.226 -146.89)" fill="#ffc4c0"/>
      <path id="Path_10966" data-name="Path 10966" d="M573.195,159.212h.4a.637.637,0,0,0,.4-.08.2.2,0,0,0,.048-.236.5.5,0,0,0-.452-.208.729.729,0,0,0-.493.16.208.208,0,0,0,.1.364Z" transform="translate(-541.863 -153.608)" fill="#263238"/>
      <path id="Path_10967" data-name="Path 10967" d="M581.73,160.811c-.124-.04-.232-.1-.352-.152a.633.633,0,0,1-.328-.224.2.2,0,0,1,.048-.236.488.488,0,0,1,.5,0,.729.729,0,0,1,.4.34.212.212,0,0,1-.264.272Z" transform="translate(-546.662 -154.474)" fill="#263238"/>
      <path id="Path_10968" data-name="Path 10968" d="M579.8,164.73s.024.024,0,.04c-.1.364-.144.8.164,1v.02C579.559,165.639,579.631,165.062,579.8,164.73Z" transform="translate(-545.845 -157.232)" fill="#263238"/>
      <path id="Path_10969" data-name="Path 10969" d="M580.23,163.992c.6.092.4,1.293-.18,1.2S579.722,163.9,580.23,163.992Z" transform="translate(-545.875 -156.786)" fill="#263238"/>
      <path id="Path_10970" data-name="Path 10970" d="M581.406,164.2c.092.088.172.228.3.264s.276-.064.4-.168h0c-.04.228-.172.448-.424.436s-.352-.244-.368-.485C581.318,164.223,581.37,164.166,581.406,164.2Z" transform="translate(-546.831 -156.909)" fill="#263238"/>
      <path id="Path_10971" data-name="Path 10971" d="M573.963,163.57s-.032,0-.032.028c-.056.372-.18.8-.541.857v.02C573.81,164.491,573.971,163.934,573.963,163.57Z" transform="translate(-542.082 -156.537)" fill="#263238"/>
      <path id="Path_10972" data-name="Path 10972" d="M573.263,162.43c-.593-.152-.853,1.041-.3,1.2S573.756,162.558,573.263,162.43Z" transform="translate(-541.643 -155.845)" fill="#263238"/>
      <path id="Path_10973" data-name="Path 10973" d="M572.568,162.222c-.108.04-.224.136-.34.12s-.2-.172-.256-.312h0c-.056.224-.032.48.176.573s.4-.08.485-.3C572.632,162.274,572.612,162.206,572.568,162.222Z" transform="translate(-541.216 -155.613)" fill="#263238"/>
      <path id="Path_10974" data-name="Path 10974" d="M577.5,172.363c-.1.076-.208.184-.344.176a1.03,1.03,0,0,1-.4-.152h0a.508.508,0,0,0,.445.272.4.4,0,0,0,.344-.292S577.515,172.351,577.5,172.363Z" transform="translate(-544.093 -161.806)" fill="#263238"/>
      <path id="Path_10975" data-name="Path 10975" d="M574.451,162.859s-.184.541-.236.8c0,.024.056.048.144.072h0a1.261,1.261,0,0,0,1.3-.224c0-.02,0-.056-.032-.044a1.906,1.906,0,0,1-1.2.1c0-.076.352-.913.312-.921a2.182,2.182,0,0,0-.621,0c.356-1.137.893-2.2,1.229-3.335a.036.036,0,0,0-.064-.032,19.152,19.152,0,0,0-1.478,3.536C573.762,162.971,574.339,162.883,574.451,162.859Z" transform="translate(-542.331 -153.952)" fill="#263238"/>
      <path id="Path_10976" data-name="Path 10976" d="M580.773,155.012c-1.389-.192-1.345-4.513-1.337-5.045a9.992,9.992,0,0,1-.3,2.158,1.4,1.4,0,0,1-.428-.128h0a4.167,4.167,0,0,0,0-.637c0-.1-.06.208-.152.585l-.248-.1a5.211,5.211,0,0,0,0-1.353c-.024-.168-.148.573-.376,1.2a16.692,16.692,0,0,0-3.576-1.021,8.68,8.68,0,0,0-.913-.092c.052-.521.168-1.069.12-.953a5.057,5.057,0,0,0-.32.945h-.4c.04-.741.513-1.874.376-1.71a5.17,5.17,0,0,0-.9,1.738c-.509.044-.657.128-.657,0a6.162,6.162,0,0,1,2.258-3.6,4.945,4.945,0,0,1,7.115,1.221,4.557,4.557,0,0,1,1.6,2.939C582.731,152.894,581.574,155.124,580.773,155.012Z" transform="translate(-541.045 -146.005)" fill="#263238"/>
      <path id="Path_10977" data-name="Path 10977" d="M591.951,168.723a1.315,1.315,0,0,1-.264.032.761.761,0,0,1-.26-.032.741.741,0,0,1-.3-.144.908.908,0,0,1-.184-.188,1.043,1.043,0,0,1-.168-.336l.5-1.429s1.438-1.554,2.158-1.021S592.912,168.5,591.951,168.723Z" transform="translate(-552.503 -157.689)" fill="#ffc4c0"/>
      <path id="Path_10978" data-name="Path 10978" d="M593.856,167.439v.028a2.4,2.4,0,0,0-1.417,1.305.516.516,0,0,1,.8-.036v.032a.581.581,0,0,0-.657.112,2.622,2.622,0,0,0-.372.468c-.04.056-.136,0-.108-.052h0C592.174,168.464,592.967,167.4,593.856,167.439Z" transform="translate(-553.299 -158.856)" fill="#263238"/>
      <path id="Path_10979" data-name="Path 10979" d="M592.849,172.492a.26.26,0,1,1-.16-.324A.256.256,0,0,1,592.849,172.492Z" transform="translate(-553.445 -161.682)" fill="#fff"/>
      <path id="Path_10980" data-name="Path 10980" d="M594.518,171.808a.184.184,0,0,1-.232.112.18.18,0,0,1-.112-.232.184.184,0,0,1,.232-.112A.188.188,0,0,1,594.518,171.808Z" transform="translate(-554.537 -161.331)" fill="#fff"/>
      <rect id="Rectangle_27535" data-name="Rectangle 27535" width="50.413" height="23.072" transform="translate(9.803 12.786) rotate(22.7)" fill="#fff"/>
      <path id="Path_10981" data-name="Path 10981" d="M543.843,218.447l-46.54-19.38-.072-.028.028-.072,8.885-21.294.036-.092.092.036,46.492,19.492.048.024v.048Zm0,0,8.849-21.306.028.068L506.2,177.8l.152-.052-8.921,21.278-.044-.1Z" transform="translate(-496.418 -164.937)" fill="#263238"/>
      <path id="Path_10982" data-name="Path 10982" d="M523.491,197.729a3.908,3.908,0,1,1,3.283-4.167,3.937,3.937,0,0,1-3.283,4.167Z" transform="translate(-509.453 -172.36)" fill="#ebebeb"/>
      <path id="Path_10983" data-name="Path 10983" d="M528.544,197.342a1.2,1.2,0,1,1-.621-1.566,1.2,1.2,0,0,1,.621,1.566Z" transform="translate(-513.81 -175.785)" fill="#fff"/>
      <path id="Path_10984" data-name="Path 10984" d="M524.792,203.977l-.192.452a3.937,3.937,0,0,1-1.225,0,3.892,3.892,0,0,1-2.555-1.6l.192-.448a2.059,2.059,0,1,1,3.78,1.634Z" transform="translate(-510.562 -179.061)" fill="#fff"/>
      <rect id="Rectangle_27536" data-name="Rectangle 27536" width="44.775" height="1.574" transform="translate(7.656 25.227) rotate(22.7)" fill="#ebebeb"/>
      <rect id="Rectangle_27537" data-name="Rectangle 27537" width="44.775" height="1.574" transform="translate(6.318 28.423) rotate(22.7)" fill="#ebebeb"/>
      <rect id="Rectangle_27538" data-name="Rectangle 27538" width="44.775" height="1.574" transform="translate(4.98 31.616) rotate(22.7)" fill="#ebebeb"/>
      <rect id="Rectangle_27539" data-name="Rectangle 27539" width="24.766" height="2.118" transform="translate(20.442 20.878) rotate(22.7)" fill="#ebebeb"/>
      <rect id="Rectangle_27540" data-name="Rectangle 27540" width="12.269" height="2.118" transform="translate(19.084 24.113) rotate(22.7)" fill="#dbdbdb"/>
      <path id="Path_10985" data-name="Path 10985" d="M589.579,187.057c3.78,6.951,7.444,12.605,6.567,15.881-1.313,4.905-8.6,13.5-11.18,14.84-1.113.577-6.947-7.232-5.97-8.149,1.177-1.1,8.809-8.921,8.937-9.734.2-1.393-.657-4.208-1.6-11.752C585.627,182.292,588.141,184.378,589.579,187.057Z" transform="translate(-545.378 -169.02)" fill="#ffc4c0"/>
      <path id="Path_10986" data-name="Path 10986" d="M561.643,241.83a47.736,47.736,0,0,1-4.721-.757,15.177,15.177,0,0,0-4.845-.348c-1.646.36-8.3,2.923-7.712,4.549.529,1.474,5.966-1.454,5.966-1.454s-5.746,2.471-4.781,4.124,6.655-2.471,6.655-2.471-5.846,2.671-4.581,4.22c.957,1.169,6.331-2.274,6.331-2.274s-5.009,2.33-4.076,3.576c1.029,1.377,6.19-1.49,6.19-1.49,2.9,2.767,6.579,3.3,8.745,1.678C565.175,250.919,561.643,241.83,561.643,241.83Z" transform="translate(-524.657 -202.743)" fill="#ffc4c0"/>
      <path id="Path_10987" data-name="Path 10987" d="M554.761,246.14c-.685.264-1.381.529-2.042.853s-1.309.677-1.934,1.061a12.3,12.3,0,0,0-2.294,1.734,27.031,27.031,0,0,1,4.325-2.615c.657-.324,1.3-.685,1.958-1.009Z" transform="translate(-527.153 -206.044)" fill="#263238"/>
      <path id="Path_10988" data-name="Path 10988" d="M559.695,252c-.861.376-1.726.721-2.571,1.137s-1.6.877-2.4,1.349c-.064.036-.024.056.04.024.829-.44,1.626-.781,2.458-1.2s1.65-.889,2.495-1.285C559.719,252.028,559.711,252,559.695,252Z" transform="translate(-530.87 -209.558)" fill="#263238"/>
      <path id="Path_10989" data-name="Path 10989" d="M564.987,256.617a20.946,20.946,0,0,0-3.8,2.038c-.06.036,0,.06.06.024,1.249-.7,2.226-1.261,3.76-2C565.027,256.653,565.015,256.605,564.987,256.617Z" transform="translate(-534.748 -212.325)" fill="#263238"/>
      <path id="Path_10990" data-name="Path 10990" d="M607.789,202.125l-9.742-4.317a92.953,92.953,0,0,1-1.509-10.275c-.4-4.929.949-6.158,4.256-.941S607.521,198.429,607.789,202.125Z" transform="translate(-555.92 -168.315)" fill="#f2b636"/>
      <path id="Path_10991" data-name="Path 10991" d="M600.123,191.85a.541.541,0,1,1-.158-.386A.545.545,0,0,1,600.123,191.85Zm2.358-.236a.526.526,0,0,0-.056.236.533.533,0,0,0,.521.537C602.81,192.126,602.642,191.87,602.481,191.613Zm-4.6-3.2a.541.541,0,1,0,.386.158A.545.545,0,0,0,597.885,188.41Zm2.859.436a.471.471,0,0,0,0,.108.533.533,0,0,0,.432.529Zm-1.165,8.321a.541.541,0,1,0,.386.158.545.545,0,0,0-.386-.158Zm3.388,0a.541.541,0,1,0,.386.158A.545.545,0,0,0,602.966,197.167Zm2.847.577a.517.517,0,0,0,.172.364c-.06-.12-.116-.252-.172-.364Zm-7.928-3.472a.533.533,0,0,0-.4.192c.04.272.076.541.116.8a.541.541,0,1,0,.284-.993Zm3.388,0a.541.541,0,1,0,.386.158.545.545,0,0,0-.386-.158Zm2.907.292a.533.533,0,0,0,.424.8Zm2.174,8.465a.545.545,0,1,0,.544.545A.545.545,0,0,0,606.354,203.029Zm-5.081-2.9a.541.541,0,1,0,.386.158.545.545,0,0,0-.386-.158Zm3.388,0a.545.545,0,1,0,.544.545.545.545,0,0,0-.544-.545Z" transform="translate(-556.442 -171.43)" fill="#fff"/>
      <path id="Path_10992" data-name="Path 10992" d="M596.574,200.821a5.017,5.017,0,0,1,.332.9l.092.308q-.1-.861-.192-1.718c0-.04.052-.052.056,0,.212,1.3,1.173,7.38,1.2,7.7.028,0,.521.256.541.256s0,.06-.024.048-.7-.248-.7-.252c-.116-.28-.757-4.933-.825-5.5a.671.671,0,0,1-.036-.076c-.028-.08-.052-.16-.08-.244-.052-.148-.1-.3-.144-.448a7.074,7.074,0,0,1-.26-.949S596.566,200.8,596.574,200.821Z" transform="translate(-555.957 -178.543)" fill="#263238"/>
      <path id="Path_10993" data-name="Path 10993" d="M600.965,216.9a9.611,9.611,0,0,1,1.145.38c.4.128.761.256,1.141.4.725.264,1.445.549,2.162.837a46.554,46.554,0,0,1,4.244,1.93c.028,0,0,.06-.024.048-1.474-.565-2.915-1.2-4.377-1.794l-2.15-.877c-.36-.144-.717-.3-1.077-.444a11.548,11.548,0,0,1-1.081-.44S600.925,216.9,600.965,216.9Z" transform="translate(-558.602 -188.512)" fill="#263238"/>
    </g>
    <g id="freepik--character-1--inject-50" transform="translate(74.485 57.74)">
      <path id="Path_10994" data-name="Path 10994" d="M197.668,313.438h-2.262l-18.163-84.58H158.107l10.935,84.58h-2.234L155.62,226.9h23.461Z" transform="translate(-137.381 -173.765)" fill="#7e59d1"/>
      <path id="Path_10995" data-name="Path 10995" d="M197.668,313.438h-2.262l-18.163-84.58H158.107l10.935,84.58h-2.234L155.62,226.9h23.461Z" transform="translate(-137.381 -173.765)" opacity="0.4"/>
      <rect id="Rectangle_27541" data-name="Rectangle 27541" width="26.011" height="2.334" transform="translate(16.766 50.797)" fill="#7e59d1"/>
      <rect id="Rectangle_27542" data-name="Rectangle 27542" width="26.011" height="2.334" transform="translate(16.766 50.797)" opacity="0.2"/>
      <path id="Path_10996" data-name="Path 10996" d="M154.282,227.68l-9.15,90.767H142.9l8.929-88.548h-19.14l-16.149,88.548H114.28l16.553-90.767Z" transform="translate(-112.594 -174.233)" fill="#7e59d1"/>
      <rect id="Rectangle_27543" data-name="Rectangle 27543" width="22.62" height="2.218" transform="translate(16.693 72.96)" fill="#7e59d1"/>
      <rect id="Rectangle_27544" data-name="Rectangle 27544" width="22.62" height="2.218" transform="translate(13.106 90.958)" fill="#7e59d1"/>
      <rect id="Rectangle_27545" data-name="Rectangle 27545" width="24.682" height="2.218" transform="translate(9.278 108.957)" fill="#7e59d1"/>
      <rect id="Rectangle_27546" data-name="Rectangle 27546" width="26.267" height="2.218" transform="translate(6.335 126.956)" fill="#7e59d1"/>
      <g id="Group_10592" data-name="Group 10592" transform="translate(1.686 53.447)" opacity="0.2">
        <path id="Path_10997" data-name="Path 10997" d="M154.282,227.68l-9.15,90.767H142.9l8.929-88.548h-19.14l-16.149,88.548H114.28l16.553-90.767Z" transform="translate(-114.28 -227.68)"/>
        <rect id="Rectangle_27547" data-name="Rectangle 27547" width="22.62" height="2.218" transform="translate(15.008 19.512)"/>
        <rect id="Rectangle_27548" data-name="Rectangle 27548" width="22.62" height="2.218" transform="translate(11.42 37.511)"/>
        <rect id="Rectangle_27549" data-name="Rectangle 27549" width="24.682" height="2.218" transform="translate(7.592 55.51)"/>
        <rect id="Rectangle_27550" data-name="Rectangle 27550" width="26.267" height="2.218" transform="translate(4.649 73.509)"/>
      </g>
      <path id="Path_10998" data-name="Path 10998" d="M118.789,301.19s-7.812,14.711-7.816,14.739c-.456,2.779-.8,5.225-.869,6.507v.02a1.97,1.97,0,0,0,.064.893v.02c.737.7,22.848,4.989,23.669,4.881s.573-2.463-.152-3.311-8.461-6.283-8.461-6.283l7.688-14.739Z" transform="translate(-110.075 -218.308)" fill="#f7a9a0"/>
      <path id="Path_10999" data-name="Path 10999" d="M112.48,330.62,111,333.575c-.456,2.779-.8,5.225-.869,6.507v.02a3.744,3.744,0,0,0,.064.893v.02c.737.7,22.848,4.989,23.669,4.881s.573-2.463-.152-3.311-8.461-6.283-8.461-6.283l1.506-2.975Z" transform="translate(-110.105 -235.954)" fill="#fff"/>
      <path id="Path_11000" data-name="Path 11000" d="M144.465,344.843a5.291,5.291,0,0,0-4.565.36c-.048.036,0,.1.052.1a20.97,20.97,0,0,1,4.481-.272.1.1,0,0,0,.032-.184Z" transform="translate(-127.944 -244.275)" fill="#263238"/>
      <path id="Path_11001" data-name="Path 11001" d="M146.9,346.833a5.281,5.281,0,0,0-4.561.36c-.052.036,0,.108.048.1a21.223,21.223,0,0,1,4.481-.268.1.1,0,0,0,.032-.188Z" transform="translate(-129.404 -245.468)" fill="#263238"/>
      <path id="Path_11002" data-name="Path 11002" d="M149.328,348.833a5.282,5.282,0,0,0-4.561.36c-.052.032,0,.1.048.1a20.97,20.97,0,0,1,4.481-.272.1.1,0,0,0,.032-.184Z" transform="translate(-130.861 -246.667)" fill="#263238"/>
      <path id="Path_11003" data-name="Path 11003" d="M133.866,350.1c-.825.108-22.932-4.184-23.669-4.881-.284-.26.152-3.52.8-7.44l.024-.124,14.295,2.611-.056.24s7.728,5.43,8.461,6.283S134.687,349.987,133.866,350.1Z" transform="translate(-110.093 -240.169)" fill="#37474f"/>
      <path id="Path_11004" data-name="Path 11004" d="M111.032,337.64v.128c-.641,3.92-1.081,7.18-.8,7.44a89.836,89.836,0,0,0,10.267,2.435c6.186,1.261,12.946,2.507,13.394,2.447.821-.108.569-2.463-.152-3.311s-8.457-6.283-8.457-6.283l.052-.24-4.773-.869Z" transform="translate(-110.115 -240.163)" fill="#f2b636"/>
      <path id="Path_11005" data-name="Path 11005" d="M135.542,360.056c-3.708-.8-18.748-3.752-22.475-4.276-.028,0-.032,0,0,.024,3.66.889,18.72,3.7,22.467,4.317C135.61,360.133,135.618,360.077,135.542,360.056Z" transform="translate(-111.853 -251.039)" fill="#263238"/>
      <path id="Path_11006" data-name="Path 11006" d="M136.038,342c-.048,2.459-.108,6.082-.068,8.257,6.186,1.261,12.946,2.507,13.394,2.447.821-.108.569-2.463-.152-3.311s-8.457-6.283-8.457-6.283l.052-.24Z" transform="translate(-125.592 -242.777)" fill="#f2b636" opacity="0.1"/>
      <path id="Path_11007" data-name="Path 11007" d="M110.07,253.137l16.557,2.174s20.121-30.5,18.371-39.734c-.961-5.081-18.235-13.058-18.235-13.058L125.018,199H112.845s-4.965,7.32-1.4,14.195c2.4,4.673,15.736,8.241,16.225,9.742C128.305,224.923,110.07,253.137,110.07,253.137Z" transform="translate(-110.07 -157.037)" fill="#455a64"/>
      <path id="Path_11008" data-name="Path 11008" d="M117.957,326.919a12.838,12.838,0,0,1,1.3.052c.484.024.965.048,1.446.084q1.389.108,2.767.272c1.858.216,3.716.456,5.566.737,1.053.16,2.1.328,3.151.517a.036.036,0,0,1,0,.068c-1.85-.156-3.7-.348-5.542-.537s-3.692-.372-5.526-.629c-.525-.072-1.053-.14-1.578-.236s-1.065-.128-1.574-.264C117.921,326.975,117.913,326.923,117.957,326.919Z" transform="translate(-114.781 -233.734)" fill="#263238"/>
      <path id="Path_11009" data-name="Path 11009" d="M143.973,251.083c1.445-2.21,2.847-4.453,4.224-6.711s2.735-4.525,4.032-6.807,2.571-4.617,3.736-6.987c.585-1.181,1.145-2.378,1.654-3.6a31.754,31.754,0,0,0,1.345-3.7,8.088,8.088,0,0,0,.4-3.808,5.429,5.429,0,0,0-.741-1.758,8.837,8.837,0,0,0-.557-.8,9.031,9.031,0,0,0-.645-.729,27.5,27.5,0,0,0-6.407-4.553c-2.3-1.289-4.713-2.378-7.107-3.5-.6-.284-1.2-.569-1.786-.869-.3-.156-.589-.312-.873-.484a1.962,1.962,0,0,1-.745-.669,9.342,9.342,0,0,1-1.065-3.8,9.3,9.3,0,0,0,1.149,3.752,1.85,1.85,0,0,0,.725.617c.284.16.577.312.873.456.6.284,1.2.553,1.8.825,2.4,1.077,4.833,2.154,7.175,3.4a36.763,36.763,0,0,1,3.416,2.038,19.916,19.916,0,0,1,3.1,2.531c.236.236.452.5.669.753a7.882,7.882,0,0,1,.585.825,5.39,5.39,0,0,1,.841,3.912c-.064.328-.108.665-.184.989s-.152.653-.252.973a31.868,31.868,0,0,1-1.377,3.74c-.521,1.225-1.089,2.423-1.678,3.6-1.2,2.366-2.459,4.693-3.8,6.975s-2.719,4.541-4.136,6.775S145.474,248.909,143.973,251.083Z" transform="translate(-127.68 -159.015)" fill="#263238"/>
      <path id="Path_11010" data-name="Path 11010" d="M153.21,355.66s.124,14.731.124,14.739c0,2.8.068,5.29.216,6.563a.028.028,0,0,0,0,.02,1.926,1.926,0,0,0,.212.869.04.04,0,0,0,0,.02c.841.565,23.356,1.149,24.149.9s.156-2.519-.7-3.239-9.382-4.805-9.382-4.805l-.264-14.723Z" transform="translate(-135.936 -250.967)" fill="#f7a9a0"/>
      <path id="Path_11011" data-name="Path 11011" d="M153.46,384.92s.024,3.015.024,3.023c0,2.8.068,5.29.216,6.563a.028.028,0,0,0,0,.02,3.792,3.792,0,0,0,.212.869.04.04,0,0,0,0,.02c.841.565,23.356,1.149,24.149.9s.156-2.519-.7-3.239-9.382-4.805-9.382-4.805v-3.067Z" transform="translate(-136.086 -268.511)" fill="#fff"/>
      <path id="Path_11012" data-name="Path 11012" d="M186.554,393.2a5.309,5.309,0,0,0-4.441,1.109c-.044.044,0,.1.064.088a21.26,21.26,0,0,1,4.373-1.009.1.1,0,0,0,0-.188Z" transform="translate(-153.255 -273.428)" fill="#263238"/>
      <path id="Path_11013" data-name="Path 11013" d="M189.33,394.772a5.276,5.276,0,0,0-4.437,1.109c-.044.04,0,.1.064.088a20.889,20.889,0,0,1,4.373-1.009.1.1,0,0,0,0-.188Z" transform="translate(-154.922 -274.367)" fill="#263238"/>
      <path id="Path_11014" data-name="Path 11014" d="M192,396.335a5.3,5.3,0,0,0-4.441,1.113c-.044.04,0,.1.068.084A20.877,20.877,0,0,1,192,396.527a.1.1,0,0,0,0-.192Z" transform="translate(-156.523 -275.305)" fill="#263238"/>
      <path id="Path_11015" data-name="Path 11015" d="M178.174,400.661c-.8.244-23.308-.34-24.149-.9-.324-.212-.432-3.5-.444-7.472v-.124l14.527.216v.248s8.521,4.076,9.382,4.8S178.946,400.421,178.174,400.661Z" transform="translate(-136.158 -272.852)" fill="#f2b636"/>
      <path id="Path_11016" data-name="Path 11016" d="M180.086,410.416c-3.792-.192-19.108-.609-22.872-.509-.032,0-.032.02,0,.024,3.752.272,19.072.561,22.868.545C180.162,410.476,180.166,410.42,180.086,410.416Z" transform="translate(-138.322 -283.484)" fill="#263238"/>
      <path id="Path_11017" data-name="Path 11017" d="M124.607,214.652s6.687,21.066,6.807,24.938c.1,3.3-.32,37.175-.32,37.175l16.922.1s-1.429-34.544-1.694-37.984c-.5-6.431-6.13-24.089-10.159-39.822H117.92s.156,8.237,3.9,14.195C121.824,213.239,123.522,214.028,124.607,214.652Z" transform="translate(-114.777 -157.073)" fill="#455a64"/>
      <path id="Path_11018" data-name="Path 11018" d="M152.968,385.167c1.958-.056,3.984-.112,5.938-.064s3.884.076,5.818.192c1.1.064,2.194.1,3.291.212a.028.028,0,0,1,0,.056c-1.954.116-3.916.092-5.87.076s-3.88-.04-5.822-.128c-1.1-.052-2.194-.108-3.291-.184C152.916,385.319,152.852,385.171,152.968,385.167Z" transform="translate(-135.754 -268.61)" fill="#263238"/>
      <path id="Path_11019" data-name="Path 11019" d="M162.124,223.747c.6,2,1.109,4.056,1.65,6.086s1.085,4.092,1.626,6.142c1.041,3.964,2.074,7.932,2.855,11.956a72,72,0,0,1,1.353,12.253c.088,4.2,0,8.409-.028,12.589s-.064,8.437-.136,12.653c0,.525-.02,1.049-.04,1.574a.04.04,0,0,1-.076,0c-.112-4.2-.052-8.409-.04-12.6s.068-8.409.032-12.589a75.172,75.172,0,0,0-1.073-12.413c-.709-4.036-1.7-8.008-2.735-11.981q-.885-3.4-1.77-6.807c-.589-2.274-1.2-4.549-1.742-6.843a.064.064,0,0,1,.124-.024Z" transform="translate(-141.206 -171.85)" fill="#263238"/>
      <path id="Path_11020" data-name="Path 11020" d="M130.5,236a15.088,15.088,0,0,1-2.511-.228,24.353,24.353,0,0,1-2.435-.677,19.127,19.127,0,0,0-2.4-.4,8.541,8.541,0,0,1-2.342-.7c-.032,0-.06.032-.028.052a14.811,14.811,0,0,0,2.242.973c.8.252,1.642.284,2.455.485a20.659,20.659,0,0,0,2.507.577,9.1,9.1,0,0,0,2.511-.04C130.541,236.042,130.529,236,130.5,236Z" transform="translate(-116.482 -178.022)" fill="#263238"/>
      <path id="Path_11021" data-name="Path 11021" d="M141.5,278.312l-.028-5.205c0-1.73-.02-3.46-.048-5.185s-.052-3.46-.172-5.177a15.186,15.186,0,0,0-.4-2.527c-.184-.841-.4-1.678-.621-2.515-.857-3.343-1.814-6.671-2.755-10.01l-2.831-9.982c.549,1.642,1.069,3.291,1.6,4.937l1.53,4.961q1.506,4.965,2.843,9.982c.208.845.428,1.682.609,2.531a15.539,15.539,0,0,1,.4,2.587c.1,1.738.124,3.468.116,5.205Q141.711,273.123,141.5,278.312Z" transform="translate(-124.802 -180.247)" fill="#263238"/>
      <path id="Path_11022" data-name="Path 11022" d="M174.751,240.956c-.629-2.186-1.221-4.385-1.814-6.579l-1.75-6.591-1.722-6.595c-.284-1.1-.581-2.194-.881-3.291s-.585-2.2-.985-3.259a58.958,58.958,0,0,1,2.162,6.471c.637,2.182,1.221,4.381,1.814,6.579s1.129,4.4,1.658,6.615S174.283,238.729,174.751,240.956Z" transform="translate(-144.564 -166.414)" fill="#263238"/>
      <path id="Path_11023" data-name="Path 11023" d="M165.835,141.165c.356,5.205,2.527,15.548,4.056,17.158,1.273,1.341,8.008,6.519,11.985,8.225,1.482.641,4.309-8.477,2.779-9.346-1.045-.589-7.864-2.451-8.509-3.139-1.2-1.269-4.5-9.61-7.083-13.614C167.621,138.186,165.615,137.938,165.835,141.165Z" transform="translate(-143.496 -120.909)" fill="#f7a9a0"/>
      <path id="Path_11024" data-name="Path 11024" d="M201.67,194.276a59.833,59.833,0,0,0,7.824,3.536c1.417.3,5.606.885,5.958-.188s-.869-1.337-.869-1.337,1.806-.036,2.054-1.145-1.646-1.466-1.646-1.466,1.85-.172,2-1.3-1.8-1.161-1.8-1.161,1.7-.08,1.45-1.065c-.3-1.2-3.42-.689-4.973-1.145-.352-.1-7.007-2.607-7.007-2.607Z" transform="translate(-164.992 -149.482)" fill="#f7a9a0"/>
      <path id="Path_11025" data-name="Path 11025" d="M227.66,197.241a8.053,8.053,0,0,1-5.454-.8c-.044,0-.08.04-.036.064,1.974,1.073,3.263,1.566,5.514.833C227.792,197.317,227.768,197.225,227.66,197.241Z" transform="translate(-177.271 -155.502)" fill="#263238"/>
      <path id="Path_11026" data-name="Path 11026" d="M226.589,203.183a12.246,12.246,0,0,1-5.838-.873c-.032,0-.056.044-.024.056,2.158.961,3.46,1.421,5.85.941C226.686,203.283,226.7,203.175,226.589,203.183Z" transform="translate(-176.409 -159.021)" fill="#263238"/>
      <path id="Path_11027" data-name="Path 11027" d="M224.971,209.091a10.917,10.917,0,0,1-5.734-1.273.044.044,0,0,0-.04.076,7.8,7.8,0,0,0,5.766,1.269C225.115,209.135,225.115,209.091,224.971,209.091Z" transform="translate(-175.491 -162.323)" fill="#263238"/>
      <path id="Path_11028" data-name="Path 11028" d="M207.45,181.67a28.239,28.239,0,0,1,4.048-1.109c1.3-.152,6.351,1.061,6.15,2.166-.26,1.426-3.311,1.3-4.8,1.045,0,0-.593,3.3-2.8,3.688S207.45,181.67,207.45,181.67Z" transform="translate(-168.457 -145.973)" fill="#f7a9a0"/>
      <path id="Path_11029" data-name="Path 11029" d="M221.394,186.906c-1.173,1.133-3.107.669-4.569.529a.132.132,0,0,0-.148.16c-.344,1.369-1.2,3.2-2.615,3.728a.032.032,0,1,0,0,.064c1.57-.364,2.579-2.09,2.859-3.6,1.5.168,3.452.545,4.465-.857C221.41,186.91,221.4,186.9,221.394,186.906Z" transform="translate(-172.403 -149.784)" fill="#263238"/>
      <path id="Path_11030" data-name="Path 11030" d="M182.508,154.5,178.1,165s-7.824-4.4-8.969-6.807-4-13.614-3.984-17.354,1.978-3.331,3.768-.669,7.208,11.888,7.392,12.045S182.508,154.5,182.508,154.5Z" transform="translate(-143.095 -120.526)" fill="#f2b636"/>
      <path id="Path_11031" data-name="Path 11031" d="M194.9,182.95c.352-.761.689-1.53,1.025-2.3.16-.368.324-.737.473-1.109s.36-.8.489-1.2a.024.024,0,0,0-.04-.02c-.228.368-.4.777-.609,1.161s-.36.717-.537,1.081c-.368.753-.737,1.506-1.089,2.266-.7,1.526-1.357,3.063-2,4.617a.032.032,0,1,0,.056.028C193.442,185.965,194.191,184.471,194.9,182.95Z" transform="translate(-159.555 -144.634)" fill="#263238"/>
      <path id="Path_11032" data-name="Path 11032" d="M172.886,161.739c-1.718-1.2-3.319-2.539-3.792-3.52-1.149-2.4-4-13.614-3.984-17.354,0-1.834.489-2.667,1.177-2.735C167.144,140.9,171.072,154.627,172.886,161.739Z" transform="translate(-143.071 -120.54)" opacity="0.1"/>
      <path id="Path_11033" data-name="Path 11033" d="M161.962,133.048c-1.153.052-3.2-1.686-3.692-3.416a25.362,25.362,0,0,1,.825-2.515c.264-.8.541-1.71.737-2.551.036-.176,4.989,2.495,4.989,2.495a13.844,13.844,0,0,0-1.253,3.119,2.289,2.289,0,0,0-.044.352.305.305,0,0,1,0,.06C163.475,131.275,163.2,132.992,161.962,133.048Z" transform="translate(-138.97 -112.403)" fill="#f7a9a0"/>
      <path id="Path_11034" data-name="Path 11034" d="M166.123,130.612v.06a3.768,3.768,0,0,1-.549-.1c-3.1-.781-3.023-4.865-2.955-5.886.909.348,4.8,2.451,4.8,2.451a13.844,13.844,0,0,0-1.253,3.119A1.865,1.865,0,0,0,166.123,130.612Z" transform="translate(-141.566 -112.482)" fill="#263238"/>
      <path id="Path_11035" data-name="Path 11035" d="M159.781,105.387c-.4,1.966,1.093,7.408,2.567,8.521,2.134,1.6,5.382,1.494,6.687-1.017,1.269-2.431-.8-9.49-2.439-10.475A4.8,4.8,0,0,0,159.781,105.387Z" transform="translate(-139.836 -98.792)" fill="#f7a9a0"/>
      <path id="Path_11036" data-name="Path 11036" d="M173.92,117.73s-.024.028,0,.04c.112.364.176.8-.12,1.013C174.176,118.639,174.084,118.058,173.92,117.73Z" transform="translate(-148.281 -108.309)" fill="#263238"/>
      <path id="Path_11037" data-name="Path 11037" d="M172.492,116.992c-.6.116-.328,1.313.232,1.2S173,116.9,172.492,116.992Z" transform="translate(-147.294 -107.863)" fill="#263238"/>
      <path id="Path_11038" data-name="Path 11038" d="M179.49,116.65s.036,0,.036.028c.076.372.22.8.585.833v.024C179.694,117.591,179.5,117.018,179.49,116.65Z" transform="translate(-151.693 -107.661)" fill="#263238"/>
      <path id="Path_11039" data-name="Path 11039" d="M179.733,115.471c.585-.184.9,1,.364,1.169S179.241,115.623,179.733,115.471Z" transform="translate(-151.692 -106.943)" fill="#263238"/>
      <path id="Path_11040" data-name="Path 11040" d="M170.954,114.438a4.719,4.719,0,0,0,.424-.268.931.931,0,0,0,.4-.356.268.268,0,0,0-.112-.3.649.649,0,0,0-.649.084.941.941,0,0,0-.44.521.276.276,0,0,0,.376.32Z" transform="translate(-146.345 -105.75)" fill="#263238"/>
      <path id="Path_11041" data-name="Path 11041" d="M179.259,112.7h-.5a.8.8,0,0,1-.513-.112.26.26,0,0,1-.056-.312.641.641,0,0,1,.6-.26.941.941,0,0,1,.645.224.276.276,0,0,1-.168.46Z" transform="translate(-150.894 -104.878)" fill="#263238"/>
      <path id="Path_11042" data-name="Path 11042" d="M175.172,126.46c.108.068.224.168.36.148a.953.953,0,0,0,.376-.188h.024a.525.525,0,0,1-.424.312.4.4,0,0,1-.368-.264S175.156,126.452,175.172,126.46Z" transform="translate(-149.085 -113.519)" fill="#263238"/>
      <path id="Path_11043" data-name="Path 11043" d="M175.532,116.946a1.309,1.309,0,0,0,.973.368,1.8,1.8,0,0,0,.461-.084l.084-.032a.4.4,0,0,0,.076-.032.088.088,0,0,0,.056-.1h0q0-.018,0-.036h0V117c-.06-.288-.188-.717-.188-.717.116.028.7.148.661,0a19.459,19.459,0,0,0-1.365-3.708.036.036,0,0,0-.068.024c.3,1.2.8,2.306,1.121,3.492a2.4,2.4,0,0,0-.641-.044c-.036,0,.264.8.28.953h0a1.81,1.81,0,0,1-1.4-.108C175.528,116.89,175.5,116.922,175.532,116.946Z" transform="translate(-149.313 -105.203)" fill="#263238"/>
      <path id="Path_11044" data-name="Path 11044" d="M176.683,123.7a1.522,1.522,0,0,1-.493.6.717.717,0,0,1-.4.12c-.316,0-.4-.28-.4-.525a1.6,1.6,0,0,1,.052-.4A2,2,0,0,0,176.683,123.7Z" transform="translate(-149.235 -111.768)" fill="#263238"/>
      <path id="Path_11045" data-name="Path 11045" d="M176.191,124.848a.717.717,0,0,1-.4.12c-.316,0-.4-.28-.4-.525A.7.7,0,0,1,176.191,124.848Z" transform="translate(-149.235 -112.324)" fill="#ff99ba"/>
      <path id="Path_11046" data-name="Path 11046" d="M158.438,106.212s-2.366-3.115-2.378-5.061c0-.877,1.117-1.6,1.117-1.6a1.97,1.97,0,0,1,.4-2.042c.925-1.073,3.436-1.121,3.436-1.121s1.369-2.5,3.752-1.814S165.93,98,165.93,98s.961,1.1-.989,2.246-6.062.653-6.062.653a14.241,14.241,0,0,1,.38,4.224,1.305,1.305,0,0,1-.821,1.089Z" transform="translate(-137.645 -94.352)" fill="#263238"/>
      <path id="Path_11047" data-name="Path 11047" d="M162.648,99.062a3.968,3.968,0,0,0-1.638-.124,4.249,4.249,0,0,0-1.421.376,2.4,2.4,0,0,0-1.5,1.978,1.678,1.678,0,0,0,.452,1.233s.032,0,0-.024a1.755,1.755,0,0,1,.064-2.246,3.636,3.636,0,0,1,2.314-1.145,7.114,7.114,0,0,1,1.7,0,.028.028,0,0,0,.028-.048Z" transform="translate(-138.859 -97.02)" fill="#263238"/>
      <path id="Path_11048" data-name="Path 11048" d="M174.326,95.366a1.954,1.954,0,0,0-1.482-1.105,3.372,3.372,0,0,0-2.154.3,4.216,4.216,0,0,0-1.63,1.5s0,.028.024,0a3.712,3.712,0,0,1,3.392-1.682,2.038,2.038,0,0,1,1.566.845,2,2,0,0,1,.128,1.7,3.768,3.768,0,0,1-1.313,1.626s0,.028,0,.02a3.912,3.912,0,0,0,1.329-1.4A2.19,2.19,0,0,0,174.326,95.366Z" transform="translate(-145.439 -94.201)" fill="#263238"/>
      <path id="Path_11049" data-name="Path 11049" d="M168.126,109.1a6.9,6.9,0,0,1-2.8.8,14.015,14.015,0,0,1-3.067-.1c-.593-.076-1.2-.176-1.766-.288v.028a15.423,15.423,0,0,0,3.2.629,7.732,7.732,0,0,0,2.979-.34,6.507,6.507,0,0,0,1.5-.713Z" transform="translate(-140.301 -103.134)" fill="#263238"/>
      <path id="Path_11050" data-name="Path 11050" d="M160.74,119.942s-1.445-1.65-2.206-1.113.46,3.019,1.45,3.267a.973.973,0,0,0,1.241-.661Z" transform="translate(-138.985 -108.903)" fill="#f7a9a0"/>
      <path id="Path_11051" data-name="Path 11051" d="M159.81,120.74v.028a2.463,2.463,0,0,1,1.433,1.389.541.541,0,0,0-.8-.056s0,.04.024.032a.6.6,0,0,1,.677.136,2.8,2.8,0,0,1,.372.5c.036.056.14,0,.112-.056h0C161.524,121.845,160.731,120.728,159.81,120.74Z" transform="translate(-139.893 -110.113)" fill="#263238"/>
      <rect id="Rectangle_27551" data-name="Rectangle 27551" width="40.39" height="26.716" transform="translate(57.677 50.644) rotate(-148.67)" fill="#37474f"/>
      <path id="Path_11052" data-name="Path 11052" d="M201.218,126.663a3.163,3.163,0,1,0,3.412-.829,3.163,3.163,0,0,0-3.412.829Z" transform="translate(-164.219 -113.053)" fill="#fff"/>
      <path id="Path_11053" data-name="Path 11053" d="M211.83,168.785l19.929,12.133-2.487-18.347Z" transform="translate(-171.083 -135.194)" fill="#263238"/>
      <path id="Path_11054" data-name="Path 11054" d="M187.31,159.279l17.674,10.759-3.968-13.378Z" transform="translate(-156.382 -131.65)" fill="#455a64"/>
      <rect id="Rectangle_27552" data-name="Rectangle 27552" width="40.39" height="5.758" transform="translate(26.183 24.72) rotate(31.33)" fill="#455a64"/>
      <path id="Path_11055" data-name="Path 11055" d="M112.549,161l22.888,5.722c-.112.448,3.2-18.247-.04-30.544-.22-.837-3.6-2.531-5.57-1.462C121.278,139.385,112.477,161.292,112.549,161Z" transform="translate(-111.556 -118.287)" fill="#f2b636"/>
      <path id="Path_11056" data-name="Path 11056" d="M161.69,142.774c4.24,4.805,12.593,13.446,17.154,13.158,4.833-.308,10.443-6.371,12.934-8.349,1.057-.841-6.407-7.284-7.712-6.683s-4.953,4.661-6.006,4.917-8.517-4.749-13.566-7.236C158.591,135.671,158.23,138.874,161.69,142.774Z" transform="translate(-139.695 -120.135)" fill="#f7a9a0"/>
      <path id="Path_11057" data-name="Path 11057" d="M226.362,122.066a1.6,1.6,0,0,1,1.053,1.47,2.35,2.35,0,0,1,1.6.148c.857.452.521,2,.521,2a2.867,2.867,0,0,1,1.654.424c.777.517.661,2.118.661,2.118a2.542,2.542,0,0,1,1.2,1.289c.577,1.526-.933,3.512-1.882,4.805s-4.825,4-5.51,4.581l-8.461-6.15s1.554-5.382,4.212-8.136C222.514,123.48,225.176,121.7,226.362,122.066Z" transform="translate(-174.303 -110.879)" fill="#f7a9a0"/>
      <path id="Path_11058" data-name="Path 11058" d="M236.579,125.7a20.785,20.785,0,0,0-3.8,3.444c-.028.028,0,.068.04.04,1.177-1.241,2.583-2.23,3.808-3.42a.041.041,0,0,0-.052-.064Z" transform="translate(-183.64 -113.08)" fill="#263238"/>
      <path id="Path_11059" data-name="Path 11059" d="M242.883,130.966a4.577,4.577,0,0,0-.837.833c-.276.312-.549.633-.8.957-.533.649-1.053,1.309-1.55,1.982-.024.032,0,.072.044.044.533-.645,1.073-1.285,1.63-1.906.28-.312.565-.621.849-.925a5.624,5.624,0,0,0,.761-.9.063.063,0,0,0-.1-.08Z" transform="translate(-187.786 -116.231)" fill="#263238"/>
      <path id="Path_11060" data-name="Path 11060" d="M249.37,137.57a3.123,3.123,0,0,0-.713.8c-.236.3-.477.6-.717.9-.481.6-.961,1.2-1.458,1.77-.028.028,0,.068.04.04.513-.585,1.033-1.161,1.538-1.754.248-.288.5-.581.741-.873a2.923,2.923,0,0,0,.6-.849.023.023,0,1,0-.032-.032Z" transform="translate(-191.854 -120.2)" fill="#263238"/>
      <path id="Path_11061" data-name="Path 11061" d="M181.905,141.738l7.8,8.849s-7.744,6.471-12.609,5.43-13.474-9.974-16.481-14.183-1.237-6.247,3.468-3.872,13.118,7.075,13.434,7.147S181.905,141.738,181.905,141.738Z" transform="translate(-139.489 -119.835)" fill="#f2b636"/>
      <path id="Path_11062" data-name="Path 11062" d="M215.54,157.534c-.533-.645-1.085-1.277-1.634-1.906-.264-.3-.529-.613-.8-.9s-.573-.669-.889-.965a.024.024,0,1,0-.036.032c.232.364.529.7.8,1.045s.5.633.749.949c.521.653,1.045,1.309,1.582,1.95,1.077,1.289,2.19,2.543,3.319,3.784a.032.032,0,0,0,.048-.04C217.647,160.145,216.614,158.827,215.54,157.534Z" transform="translate(-171.29 -129.906)" fill="#263238"/>
      <path id="Path_11063" data-name="Path 11063" d="M187.627,163.806A13.326,13.326,0,0,1,184.5,165.2a8.646,8.646,0,0,1-3.42.316,5.558,5.558,0,0,1-1.662-.509,16.268,16.268,0,0,1-1.518-.821,32.7,32.7,0,0,1-2.8-1.95,57.017,57.017,0,0,1-5.137-4.533q-1.2-1.2-2.354-2.491c-.749-.861-1.47-1.746-2.15-2.659.717.885,1.478,1.734,2.262,2.559s1.578,1.638,2.4,2.423A62.065,62.065,0,0,0,175.282,162a33.471,33.471,0,0,0,2.8,1.954,15.242,15.242,0,0,0,1.482.8,5.67,5.67,0,0,0,1.6.521,8.553,8.553,0,0,0,3.352-.232A13.323,13.323,0,0,0,187.627,163.806Z" transform="translate(-143.281 -129.186)" fill="#263238"/>
      <path id="Path_11064" data-name="Path 11064" d="M166.11,155c.4.3.8.569,1.225.853a2.583,2.583,0,0,1-.673-.336,2.4,2.4,0,0,1-.553-.517Z" transform="translate(-143.671 -130.655)" fill="#263238"/>
    </g>
  </g>
</svg>
