<svg xmlns="http://www.w3.org/2000/svg" xmlns:xlink="http://www.w3.org/1999/xlink" width="15" height="15" viewBox="0 0 15 15">
  <defs>
    <clipPath id="starred">
      <rect id="Rectangle_2643" data-name="Rectangle 2643" width="15" height="15" transform="translate(39 143)" fill="#6a6f73" stroke="#707070" stroke-width="1"/>
    </clipPath>
  </defs>
  <g id="Mask_Group_629" data-name="Mask Group 629" transform="translate(-39 -143)" clip-path="url(#starred)">
    <g id="svgexport-6_72_" data-name="svgexport-6 (72)" transform="translate(38.999 143.306)">
      <path id="Path_11482" data-name="Path 11482" d="M12.252,15.494a1.208,1.208,0,0,1-.566-.14l-3.238-1.7a.173.173,0,0,0-.163,0l-3.238,1.7a1.215,1.215,0,0,1-1.763-1.281l.618-3.6a.175.175,0,0,0-.052-.156L1.233,7.758a1.215,1.215,0,0,1,.675-2.072L5.526,5.16a.175.175,0,0,0,.132-.1L7.275,1.784a1.214,1.214,0,0,1,2.178,0l1.618,3.28a.177.177,0,0,0,.132.1l3.621.526A1.215,1.215,0,0,1,15.5,7.757L12.88,10.31a.176.176,0,0,0-.052.156l.618,3.6a1.216,1.216,0,0,1-1.195,1.421Zm-3.885-2.9a1.208,1.208,0,0,1,.565.14l3.237,1.7a.167.167,0,0,0,.185-.013.169.169,0,0,0,.07-.172l-.619-3.605a1.217,1.217,0,0,1,.349-1.075l2.62-2.553a.176.176,0,0,0-.1-.3l-3.62-.526a1.213,1.213,0,0,1-.914-.664l-1.62-3.28a.176.176,0,0,0-.315,0L6.59,5.524a1.213,1.213,0,0,1-.915.664l-3.619.527a.175.175,0,0,0-.1.3L4.578,9.568a1.217,1.217,0,0,1,.349,1.075l-.619,3.605a.176.176,0,0,0,.256.185l3.237-1.7a1.213,1.213,0,0,1,.565-.14Z" transform="translate(-0.866 -1.106)" fill="#6a6f73"/>
    </g>
  </g>
</svg>
