<svg xmlns="http://www.w3.org/2000/svg" xmlns:xlink="http://www.w3.org/1999/xlink" width="24" height="24" viewBox="0 0 24 24">
  <defs>
    <clipPath id="total-points">
      <rect id="Rectangle_29190" data-name="Rectangle 29190" width="24" height="24" transform="translate(19 19)" fill="#7e59d1" stroke="#8391a2" stroke-width="1"/>
    </clipPath>
  </defs>
  <g id="total_points" data-name="total points" transform="translate(-19 -19)" clip-path="url(#total-points)">
    <g id="svgexport-6_-_2022-05-16T153935.528" data-name="svgexport-6 - 2022-05-16T153935.528" transform="translate(19 19)">
      <g id="Group_15056" data-name="Group 15056">
        <g id="Group_15055" data-name="Group 15055">
          <g id="Group_15054" data-name="Group 15054">
            <path id="Path_12175" data-name="Path 12175" d="M15.188,8.132,13.28,7.854l-.854-1.73a.474.474,0,0,0-.85,0l-.854,1.73-1.909.277a.474.474,0,0,0-.263.809l1.381,1.346-.326,1.9a.472.472,0,0,0,.688.5l1.707-.9,1.707.9a.474.474,0,0,0,.69-.5l-.326-1.9L15.451,8.94a.474.474,0,0,0-.263-.809ZM13.229,9.777a.474.474,0,0,0-.136.421l.205,1.2-1.077-.566a.474.474,0,0,0-.442,0L10.7,11.4l.206-1.2a.474.474,0,0,0-.136-.421L9.9,8.931l1.2-.175a.474.474,0,0,0,.357-.259L12,7.405,12.538,8.5a.474.474,0,0,0,.357.259l1.2.172Z" fill="#7e59d1"/>
            <path id="Path_12176" data-name="Path 12176" d="M12,3.235A6.171,6.171,0,1,0,18.17,9.406,6.171,6.171,0,0,0,12,3.235Zm0,11.393a5.222,5.222,0,1,1,5.222-5.222A5.222,5.222,0,0,1,12,14.628Z" fill="#7e59d1"/>
            <path id="Path_12177" data-name="Path 12177" d="M20.685,10.685l-.887.336a2.385,2.385,0,0,1,.251,1c-.066.2-.468.466-.823.7a4.46,4.46,0,0,0-1.23,1.04,4.55,4.55,0,0,0-.618,1.5,2.379,2.379,0,0,1-.4.987,2.336,2.336,0,0,1-1.054.076,4.509,4.509,0,0,0-1.63.125,4.393,4.393,0,0,0-1.352.839c-.332.269-.71.573-.937.573s-.6-.3-.937-.574a4.383,4.383,0,0,0-1.352-.839,3.376,3.376,0,0,0-1.06-.143c-.2,0-.387.009-.571.018A2.371,2.371,0,0,1,7.03,16.25a2.434,2.434,0,0,1-.4-.988,4.5,4.5,0,0,0-.617-1.5,4.425,4.425,0,0,0-1.231-1.04c-.355-.231-.757-.493-.823-.7a2.393,2.393,0,0,1,.251-1A4.6,4.6,0,0,0,4.6,9.406a4.6,4.6,0,0,0-.39-1.613,2.4,2.4,0,0,1-.251-1c.066-.2.468-.466.823-.7a4.475,4.475,0,0,0,1.23-1.039,4.534,4.534,0,0,0,.618-1.5,2.379,2.379,0,0,1,.4-.987A2.328,2.328,0,0,1,8.08,2.487a4.531,4.531,0,0,0,1.633-.125,4.4,4.4,0,0,0,1.352-.839c.33-.27.707-.574.934-.574s.6.3.937.574a4.392,4.392,0,0,0,1.352.839,4.572,4.572,0,0,0,1.633.125,2.386,2.386,0,0,1,1.051.076,2.425,2.425,0,0,1,.4.987,4.5,4.5,0,0,0,.617,1.5,4.416,4.416,0,0,0,1.231,1.04c.355.231.757.493.823.7a2.389,2.389,0,0,1-.251,1,4.6,4.6,0,0,0-.39,1.613,4.6,4.6,0,0,0,.39,1.613l.444-.168.444-.168a3.779,3.779,0,0,1-.329-1.278,3.755,3.755,0,0,1,.328-1.278A2.558,2.558,0,0,0,20.947,6.5a2.641,2.641,0,0,0-1.208-1.2,3.745,3.745,0,0,1-.982-.8A3.791,3.791,0,0,1,18.289,3.3a2.593,2.593,0,0,0-.76-1.5,2.564,2.564,0,0,0-1.653-.257,3.794,3.794,0,0,1-1.293-.08A3.643,3.643,0,0,1,13.533.784,2.658,2.658,0,0,0,12,0a2.658,2.658,0,0,0-1.533.785,3.64,3.64,0,0,1-1.049.674,3.747,3.747,0,0,1-1.293.08A2.584,2.584,0,0,0,6.471,1.8,2.615,2.615,0,0,0,5.71,3.3,3.753,3.753,0,0,1,5.241,4.5a3.662,3.662,0,0,1-.982.8A2.641,2.641,0,0,0,3.052,6.5a2.562,2.562,0,0,0,.266,1.63,3.791,3.791,0,0,1,.328,1.278,3.761,3.761,0,0,1-.328,1.278,2.558,2.558,0,0,0-.266,1.629,2.639,2.639,0,0,0,1.208,1.2,3.734,3.734,0,0,1,.981.8,3.8,3.8,0,0,1,.469,1.195,4.852,4.852,0,0,0,.361,1.03L4.15,21.454a.474.474,0,0,0,.5.643l2.687-.321L9.09,23.834a.474.474,0,0,0,.8-.138l1.915-4.9a1.172,1.172,0,0,0,.385,0l1.915,4.9a.474.474,0,0,0,.8.135l1.755-2.058,2.687.321a.474.474,0,0,0,.5-.641l-1.922-4.913a4.885,4.885,0,0,0,.361-1.03,3.729,3.729,0,0,1,.469-1.195,3.67,3.67,0,0,1,.982-.8,2.638,2.638,0,0,0,1.208-1.2A2.57,2.57,0,0,0,20.685,10.685ZM9.3,22.616,7.89,20.967a.474.474,0,0,0-.417-.163l-2.152.258L6.833,17.2a3.8,3.8,0,0,0,1.291.077c.174-.008.354-.017.527-.017a2.478,2.478,0,0,1,.767.1,3.639,3.639,0,0,1,1.049.675c.158.127.316.255.478.369Zm9.383-1.554L16.527,20.8a.474.474,0,0,0-.417.163L14.7,22.616,13.054,18.4c.162-.115.321-.243.478-.369a3.64,3.64,0,0,1,1.049-.674,3.746,3.746,0,0,1,1.294-.08,3.806,3.806,0,0,0,1.291-.077Z" fill="#7e59d1"/>
          </g>
        </g>
      </g>
    </g>
  </g>
</svg>
