<svg xmlns="http://www.w3.org/2000/svg" width="309" height="187" viewBox="0 0 309 187">
  <g id="Group_10917" data-name="Group 10917" transform="translate(-510 -1013)">
    <rect id="placeholder-course" width="309" height="187" rx="2" transform="translate(510 1013)" fill="#f3f7f8"/>
    <g id="svgexport-6_30_" data-name="svgexport-6 (30)" transform="translate(623 1065)">
      <g id="Group_10264" data-name="Group 10264">
        <g id="Group_10263" data-name="Group 10263">
          <path id="Path_10594" data-name="Path 10594" d="M41.941,0A41.941,41.941,0,1,0,83.881,41.941,41.941,41.941,0,0,0,41.941,0ZM59.6,43.277a3,3,0,0,1-1.345,1.345v.015L34.293,56.62a3,3,0,0,1-4.335-2.7V29.958a3,3,0,0,1,4.335-2.681L58.259,39.26A3,3,0,0,1,59.6,43.277Z" fill="#dde1e2"/>
        </g>
      </g>
    </g>
  </g>
</svg>
