<svg xmlns="http://www.w3.org/2000/svg" xmlns="http://www.w3.org/1999/xlink" width="110" height="65" viewBox="0 0 110 65">
  <defs>
    <clipPath id="video-lec">
      <rect id="Rectangle_33039" data-name="Rectangle 33039" width="32" height="32" transform="translate(589 542)" fill="#7e59d1" stroke="#707070" stroke-width="1"/>
    </clipPath>
  </defs>
  <g id="Group_90136" data-name="Group 90136" transform="translate(-550 -525)">
    <rect id="NoPath_-_Copy_6_" data-name="NoPath - Copy (6)" width="110" height="65" rx="2" transform="translate(550 525)" fill="#f3f7f8"/>
    <g id="Mask_Group_927" data-name="Mask Group 927" clip-path="url(#video-lec)">
      <g id="svgexport-15_17_" data-name="svgexport-15 (17)" transform="translate(589 542)">
        <path id="Path_49031" data-name="Path 49031" d="M16,0A16,16,0,1,0,32,16,16,16,0,0,0,16,0Zm6.738,16.51a1.143,1.143,0,0,1-.513.513v.006L13.082,21.6a1.143,1.143,0,0,1-1.654-1.029V11.429a1.143,1.143,0,0,1,1.654-1.023l9.143,4.571A1.143,1.143,0,0,1,22.738,16.51Z" fill="#7e59d1"/>
      </g>
    </g>
  </g>
</svg>
