<svg xmlns="http://www.w3.org/2000/svg" xmlns:xlink="http://www.w3.org/1999/xlink" width="14" height="14" viewBox="0 0 14 14">
  <defs>
    <clipPath id="wishlist">
      <rect id="Rectangle_29490" data-name="Rectangle 29490" width="14" height="14" transform="translate(39 374)" fill="#6a6f73" stroke="#8391a2" stroke-width="1"/>
    </clipPath>
  </defs>
  <g id="Mask_Group_709" data-name="Mask Group 709" transform="translate(-39 -374)" clip-path="url(#wishlist)">
    <g id="svgexport-6_13_" data-name="svgexport-6 (13)" transform="translate(39 375.079)">
      <path id="Path_12960" data-name="Path 12960" d="M13.395,2.842A3.575,3.575,0,0,0,11.75,1.45a3.958,3.958,0,0,0-2.5-.168A5.339,5.339,0,0,0,7,2.516,5.339,5.339,0,0,0,4.747,1.282a3.956,3.956,0,0,0-2.5.168A3.575,3.575,0,0,0,.605,2.842,4.11,4.11,0,0,0,0,5.125c.068,3.754,5.66,7.167,6.781,7.814a.438.438,0,0,0,.437,0c1.12-.646,6.713-4.06,6.781-7.814a4.11,4.11,0,0,0-.6-2.283Zm-.27,2.267c-.022,1.214-.831,2.629-2.34,4.092A21.373,21.373,0,0,1,7,12.053,21.359,21.359,0,0,1,3.216,9.2C1.707,7.738.9,6.323.876,5.109A2.885,2.885,0,0,1,2.589,2.257a2.916,2.916,0,0,1,1.135-.225,4.259,4.259,0,0,1,2.964,1.4.438.438,0,0,0,.624,0,3.779,3.779,0,0,1,4.1-1.171,2.885,2.885,0,0,1,1.714,2.852Z" transform="translate(0 -1.156)" fill="#6a6f73"/>
    </g>
  </g>
</svg>
