<svg xmlns="http://www.w3.org/2000/svg" xmlns:xlink="http://www.w3.org/1999/xlink" width="22" height="22" viewBox="0 0 22 22">
  <defs>
    <clipPath id="youtube">
      <rect id="Rectangle_29366" data-name="Rectangle 29366" width="22" height="22" transform="translate(661 1022)" fill="#afaeb7" stroke="#707070" stroke-width="1"/>
    </clipPath>
  </defs>
  <g id="Mask_Group_703" data-name="Mask Group 703" transform="translate(-661 -1022)" clip-path="url(#youtube)">
    <g id="svgexport-6_-_2022-05-11T145636.100" data-name="svgexport-6 - 2022-05-11T145636.100" transform="translate(661 1022)">
      <path id="Path_12110" data-name="Path 12110" d="M17.431,3.216H4.569A4.569,4.569,0,0,0,0,7.785v6.43a4.569,4.569,0,0,0,4.569,4.569H17.431A4.569,4.569,0,0,0,22,14.215V7.785A4.569,4.569,0,0,0,17.431,3.216Zm-3.09,8.1L8.325,14.182a.241.241,0,0,1-.345-.218V8.046a.241.241,0,0,1,.351-.215l6.016,3.049A.242.242,0,0,1,14.341,11.313Z" fill="#afaeb7"/>
    </g>
  </g>
</svg>
