<svg xmlns="http://www.w3.org/2000/svg" xmlns:xlink="http://www.w3.org/1999/xlink" width="100.609" height="34.295" viewBox="0 0 100.609 34.295">
  <defs>
    <linearGradient id="linear-gradient" y1="0.5" x2="1" y2="0.5" gradientUnits="objectBoundingBox">
      <stop offset="0" stop-color="#a383ea"/>
      <stop offset="0.1" stop-color="#9876e7"/>
      <stop offset="0.51" stop-color="#6e48da"/>
      <stop offset="0.82" stop-color="#552bd3"/>
      <stop offset="1" stop-color="#4b20d0"/>
    </linearGradient>
  </defs>
  <g id="Artboard_٨" data-name="Artboard ٨" transform="translate(-318.689 -140.701)">
    <path id="Path_5609" data-name="Path 5609" d="M372.861,141.246a17.2,17.2,0,0,1,12.917,15.49h-6.165a10.876,10.876,0,0,0-1.382-4.31,11.155,11.155,0,0,0-13.093-5.029,10.416,10.416,0,0,0-5.473,4.444q-4.547,7.124-8.872,14.393a17.12,17.12,0,0,1-31.765-5.158,17.023,17.023,0,0,1,7.191-17.374,16.76,16.76,0,0,1,18.675-.307,41.626,41.626,0,0,1,4.759,4.349.992.992,0,0,1,.1,1.432c-.977,1.513-1.884,3.071-2.767,4.526a48.163,48.163,0,0,0-4.076-4.232,10.976,10.976,0,1,0,2.125,14.341q4.469-7.315,8.882-14.663A17.218,17.218,0,0,1,372.861,141.246Z" transform="translate(0)" fill="url(#linear-gradient)"/>
    <path id="Path_5610" data-name="Path 5610" d="M780.157,386.081a5.842,5.842,0,0,1-1.931-.31,6.224,6.224,0,0,1-1.6-.823,7.734,7.734,0,0,1-1.244-1.107l1.238-1.966a2.353,2.353,0,0,0,.538.807,4.227,4.227,0,0,0,.887.68,5.023,5.023,0,0,0,1.07.47,3.73,3.73,0,0,0,1.107.173,2.7,2.7,0,0,0,1.3-.266.8.8,0,0,0,.484-.711.807.807,0,0,0-.217-.575,1.815,1.815,0,0,0-.5-.372q-.278-.141-.476-.253c-.1-.049-.278-.126-.539-.229s-.55-.216-.872-.34l-.916-.352q-.433-.167-.68-.278a2.706,2.706,0,0,1-1.844-2.562,2.912,2.912,0,0,1,.875-2.079,3.141,3.141,0,0,1,1.138-.706,4.734,4.734,0,0,1,1.658-.26,6.915,6.915,0,0,1,1.869.229,6.687,6.687,0,0,1,1.441.575,6.386,6.386,0,0,1,1.07.726l-1.138,1.906a4.3,4.3,0,0,0-3.106-1.362,3.049,3.049,0,0,0-1.107.155,1.113,1.113,0,0,0-.507.347.609.609,0,0,0-.13.315.708.708,0,0,0,.154.42,1.749,1.749,0,0,0,.7.446q.223.1.6.242l.842.315c.309.116.614.237.916.365s.575.258.823.39a7.6,7.6,0,0,1,.916.607,3.3,3.3,0,0,1,.8.887,2.375,2.375,0,0,1,.328,1.281,3.387,3.387,0,0,1-.173,1.008,3.035,3.035,0,0,1-.607,1.058,3.15,3.15,0,0,1-1.2.829A5.082,5.082,0,0,1,780.157,386.081Z" transform="translate(-419.856 -215.42)" fill="#474747"/>
    <path id="Path_5611" data-name="Path 5611" d="M901.58,386.052a5.034,5.034,0,0,1-2.624-.662,4.449,4.449,0,0,1-1.72-1.862,6.216,6.216,0,0,1-.606-2.833,6.966,6.966,0,0,1,.154-1.38,7.037,7.037,0,0,1,.5-1.522,5.255,5.255,0,0,1,.928-1.392,4.448,4.448,0,0,1,1.424-1.021,4.658,4.658,0,0,1,1.977-.389,5.466,5.466,0,0,1,1.708.242,4.977,4.977,0,0,1,1.262.607,4.907,4.907,0,0,1,.887.761,6.018,6.018,0,0,1,.565.726c.14.219.242.377.309.476l-1.794,1.371a7.615,7.615,0,0,0-.645-1,3.159,3.159,0,0,0-.915-.807,2.61,2.61,0,0,0-1.349-.323,2.375,2.375,0,0,0-1.371.371,2.726,2.726,0,0,0-.867.937,4.083,4.083,0,0,0-.44,1.21,6.248,6.248,0,0,0-.123,1.182,5.42,5.42,0,0,0,.124,1.152,3.129,3.129,0,0,0,.427,1.038,2.2,2.2,0,0,0,.819.746,2.691,2.691,0,0,0,1.29.278,2.87,2.87,0,0,0,1.416-.31,2.655,2.655,0,0,0,.923-.872,8.34,8.34,0,0,0,.693-1.318l2.03.915a9.808,9.808,0,0,1-1.225,1.955,4.733,4.733,0,0,1-1.6,1.274A4.856,4.856,0,0,1,901.58,386.052Z" transform="translate(-531.326 -215.391)" fill="#474747"/>
    <path id="Path_5612" data-name="Path 5612" d="M1039.866,387.16a5.114,5.114,0,0,1-2.116-.427,4.964,4.964,0,0,1-1.646-1.182,5.372,5.372,0,0,1-1.064-1.72,5.633,5.633,0,0,1-.371-2.041,6.543,6.543,0,0,1,.3-1.95,5.5,5.5,0,0,1,.9-1.744,4.426,4.426,0,0,1,1.541-1.256,4.857,4.857,0,0,1,2.209-.47,5.441,5.441,0,0,1,2.3.452,4.544,4.544,0,0,1,1.613,1.21,5.09,5.09,0,0,1,.94,1.708,6.314,6.314,0,0,1,.309,1.955,6.49,6.49,0,0,1-.359,2.2,5.248,5.248,0,0,1-1.017,1.736,4.462,4.462,0,0,1-1.559,1.129A4.882,4.882,0,0,1,1039.866,387.16Zm0-2.066a2.7,2.7,0,0,0,1.371-.365,2.593,2.593,0,0,0,1.015-1.145,4.627,4.627,0,0,0,.384-2.029,3.362,3.362,0,0,0-.421-1.77,2.648,2.648,0,0,0-1.089-1.027,3.088,3.088,0,0,0-1.4-.334,3,3,0,0,0-1.4.3,2.5,2.5,0,0,0-.916.8,3.331,3.331,0,0,0-.494,1.12,5.431,5.431,0,0,0-.148,1.274,3.046,3.046,0,0,0,.248,1.219,3.31,3.31,0,0,0,.674,1.015,3.215,3.215,0,0,0,.984.694A2.839,2.839,0,0,0,1039.866,385.094Z" transform="translate(-658.231 -216.66)" fill="#474747"/>
    <path id="Path_5613" data-name="Path 5613" d="M1180.583,387.16a5.119,5.119,0,0,1-2.117-.427,4.967,4.967,0,0,1-1.645-1.182,5.351,5.351,0,0,1-1.061-1.72,5.636,5.636,0,0,1-.372-2.041,6.543,6.543,0,0,1,.291-1.949,5.494,5.494,0,0,1,.9-1.745,4.431,4.431,0,0,1,1.541-1.256,4.857,4.857,0,0,1,2.208-.47,5.446,5.446,0,0,1,2.3.452,4.533,4.533,0,0,1,1.608,1.21,5.082,5.082,0,0,1,.94,1.708,6.289,6.289,0,0,1,.31,1.955,6.505,6.505,0,0,1-.359,2.2,5.25,5.25,0,0,1-1.014,1.739,4.47,4.47,0,0,1-1.559,1.129A4.883,4.883,0,0,1,1180.583,387.16Zm0-2.066a2.7,2.7,0,0,0,1.371-.365,2.594,2.594,0,0,0,1.015-1.145,4.627,4.627,0,0,0,.384-2.029,3.362,3.362,0,0,0-.421-1.77,2.661,2.661,0,0,0-1.089-1.027,3.091,3.091,0,0,0-1.4-.334,3,3,0,0,0-1.4.3,2.488,2.488,0,0,0-.916.8,3.306,3.306,0,0,0-.494,1.12,5.431,5.431,0,0,0-.149,1.274,3.055,3.055,0,0,0,.248,1.219,3.338,3.338,0,0,0,.674,1.015,3.228,3.228,0,0,0,.984.694A2.84,2.84,0,0,0,1180.583,385.094Z" transform="translate(-787.601 -216.66)" fill="#474747"/>
    <path id="Path_5614" data-name="Path 5614" d="M1323.283,387.5a7.18,7.18,0,0,1-1.943-.21,2.281,2.281,0,0,1-1.064-.588,1.826,1.826,0,0,1-.452-.891,5.441,5.441,0,0,1-.106-1.107q0-.99.056-2.265t.149-2.742q.093-1.466.2-3.038l2.253.223q-.125.953-.217,1.949t-.155,1.936q-.061.941-.1,1.707t-.056,1.281c-.013.343-.019.565-.019.662a1.636,1.636,0,0,0,.1.65.547.547,0,0,0,.4.29,3.824,3.824,0,0,0,.866.074,15.956,15.956,0,0,0,1.621-.093q.9-.094,1.832-.278a13.879,13.879,0,0,0,1.694-.445l.484,2.128q-.842.211-1.813.384t-1.936.273A17.845,17.845,0,0,1,1323.283,387.5Z" transform="translate(-920.29 -216.927)" fill="#474747"/>
    <path id="Path_5615" data-name="Path 5615" d="M1440.876,385.942l-2.116-.4q.594-2.4,1.244-4.343a25.744,25.744,0,0,1,1.343-3.329,8.61,8.61,0,0,1,1.416-2.135,2.064,2.064,0,0,1,1.452-.748q1.472,0,2.71,2.729a33.28,33.28,0,0,1,2.1,7.9l-2.183.294q-.149-.816-.323-1.677t-.359-1.677q-.3-.012-.645-.012-.606,0-1.281.025t-1.324.081q-.649.056-1.21.118-.236.793-.452,1.6T1440.876,385.942Zm2.277-7.227q-.272.582-.726,1.881.531-.061,1.129-.093t1.163-.031c.323,0,.631.009.928.025q-.174-.632-.328-1.129a7.629,7.629,0,0,0-.278-.78,4.674,4.674,0,0,0-.458-.946.535.535,0,0,0-.408-.278.616.616,0,0,0-.446.29,5.873,5.873,0,0,0-.575,1.061Z" transform="translate(-1029.73 -215.392)" fill="#474747"/>
  </g>
</svg>
